<svg width="125" height="125" viewBox="0 0 125 125" fill="none" xmlns="http://www.w3.org/2000/svg">
<rect width="125" height="125" fill="white"/>
<rect x="15" y="15" width="95" height="95" rx="2" fill="#409EFF"/>
<path d="M68.6383 30.0989C68.3822 27.7932 66.4218 26 64.0417 26H56.8472C54.467 26 52.5067 27.7932 52.2506 30.0989L48.625 30.1C46.0707 30.1 44 32.1651 44 34.7125V62.3875C44 64.9348 46.0707 67 48.625 67H53.2496C52.6045 66.1435 52.2222 65.0787 52.2222 63.925H48.625C47.7736 63.925 47.0833 63.2366 47.0833 62.3875V34.7125C47.0833 33.8634 47.7736 33.175 48.625 33.175L53.0013 33.1754C53.831 34.4114 55.2438 35.225 56.8472 35.225H64.0417C65.645 35.225 67.058 34.4113 67.8876 33.1753L72.2639 33.175C73.1153 33.175 73.8056 33.8634 73.8056 34.7125V60.8496C74.5468 59.8656 75.635 59.1563 76.8889 58.9025V34.7125C76.8889 32.1651 74.8181 30.1 72.2639 30.1L68.6383 30.0989ZM68.656 30.2967L68.6667 30.6125C68.6667 30.5064 68.6632 30.401 68.656 30.2967ZM56.8472 29.075H64.0417C64.8931 29.075 65.5833 29.7634 65.5833 30.6125C65.5833 31.4616 64.8931 32.15 64.0417 32.15H56.8472C55.9958 32.15 55.3056 31.4616 55.3056 30.6125C55.3056 29.7634 55.9958 29.075 56.8472 29.075ZM60.4444 63.925C60.4444 65.6232 59.0639 67 57.3611 67C55.6582 67 54.2778 65.6232 54.2778 63.925C54.2778 62.2268 55.6582 60.85 57.3611 60.85C59.0639 60.85 60.4444 62.2268 60.4444 63.925ZM67.6389 67C69.3417 67 70.7222 65.6232 70.7222 63.925C70.7222 62.2268 69.3417 60.85 67.6389 60.85C65.9361 60.85 64.5556 62.2268 64.5556 63.925C64.5556 65.6232 65.9361 67 67.6389 67ZM77.9167 67C79.6195 67 81 65.6232 81 63.925C81 62.2268 79.6195 60.85 77.9167 60.85C76.2138 60.85 74.8333 62.2268 74.8333 63.925C74.8333 65.6232 76.2138 67 77.9167 67Z" fill="white"/>
<path d="M42.97 84.046V92.208H44.286V85.32H52.714V92.138H54.086V84.046H42.97ZM43.824 87.084V88.316H53.4V87.084H43.824ZM43.824 90.164V91.438H53.414V90.164H43.824ZM47.758 82.184V95.176H49.144V82.184H47.758ZM56.83 83.262C57.572 83.934 58.524 84.872 58.972 85.474L59.868 84.536C59.406 83.962 58.426 83.08 57.684 82.45L56.83 83.262ZM57.95 94.98C58.16 94.672 58.58 94.336 61.016 92.432C60.876 92.18 60.666 91.662 60.582 91.312L57.978 93.272L57.67 93.748L57.95 94.98ZM56.032 86.552V87.826H58.762V86.552H56.032ZM57.95 94.98C57.95 94.504 59.238 93.594 59.238 93.594V86.552H57.964V92.6C57.964 93.23 57.558 93.678 57.278 93.86C57.502 94.112 57.838 94.672 57.95 94.98ZM62.346 90.262V91.158H66.994V90.262H62.346ZM60.806 83.22V84.2H68.548V83.22H60.806ZM61.17 84.956V85.88H68.128V84.956H61.17ZM60.386 86.678V87.658H68.982V86.678H60.386ZM62.318 92.152V93.062H66.994V92.152H62.318ZM61.366 88.358V95.176H62.598V89.352H67.008V88.358H61.366ZM66.672 88.358V93.804C66.672 93.972 66.602 94.028 66.42 94.028C66.224 94.042 65.552 94.042 64.908 94.014C65.062 94.336 65.23 94.826 65.272 95.148C66.266 95.162 66.924 95.148 67.358 94.952C67.806 94.77 67.932 94.434 67.932 93.818V88.358H66.672ZM63.97 82.184V87H65.286V82.184H63.97ZM75.772 85.222V95.162H77.144V85.222H75.772ZM72.79 87.98H80.266V89.254H72.79V87.98ZM72.79 85.698H80.266V86.958H72.79V85.698ZM71.502 84.592V90.36H81.624V84.592H71.502ZM70.214 91.508V92.74H82.814V91.508H70.214ZM72.678 82.772C73.224 83.416 73.826 84.326 74.092 84.886L75.296 84.312C75.016 83.724 74.358 82.87 73.812 82.24L72.678 82.772ZM79.258 82.268C78.922 83.052 78.292 84.13 77.774 84.816L78.936 85.236C79.454 84.606 80.14 83.626 80.714 82.716L79.258 82.268Z" fill="white"/>
<rect x="101" y="5" width="20" height="20" rx="10" fill="#E6A23C"/>
<path d="M110.828 20.168C112.4 20.168 113.66 19.22 113.66 17.66C113.66 16.448 112.82 15.668 111.788 15.416V15.368C112.724 15.032 113.348 14.324 113.348 13.256C113.348 11.852 112.268 11.048 110.792 11.048C109.784 11.048 109.004 11.492 108.344 12.092L108.932 12.8C109.424 12.296 110.048 11.936 110.756 11.936C111.668 11.936 112.232 12.488 112.232 13.328C112.232 14.288 111.62 15.008 109.808 15.008V15.86C111.836 15.86 112.544 16.556 112.544 17.612C112.544 18.62 111.8 19.256 110.756 19.256C109.748 19.256 109.088 18.776 108.572 18.236L108.02 18.956C108.596 19.592 109.448 20.168 110.828 20.168Z" fill="white"/>
</svg>
