<svg width="926" height="286" viewBox="0 0 926 286" fill="none" xmlns="http://www.w3.org/2000/svg">
<rect x="0.5" y="0.5" width="925" height="285" fill="white"/>
<g clip-path="url(#clip0_30239_72943)">
<rect width="200" height="48" transform="translate(75 34)" fill="#F2F2F2"/>
<rect x="75" y="81" width="200" height="1" fill="#E4E7ED"/>
<g clip-path="url(#clip1_30239_72943)">
<path d="M91.93 55.432H96.214V56.356H91.93V55.432ZM91.93 53.612H96.214V54.536H91.93V53.612ZM90.712 52.632V57.336H97.488V52.632H90.712ZM90.054 58.19V59.282H98.23V58.19H90.054ZM93.442 58.764V63.944L94.688 64.476V58.764H93.442ZM91.818 61.298L91.02 61.578C91.888 64.476 93.498 64.98 95.822 64.98H98.272C98.314 64.644 98.482 64.084 98.65 63.804C98.104 63.832 96.27 63.832 95.864 63.832C94.016 63.832 92.532 63.51 91.818 61.298ZM94.324 60.738V61.802H97.516V60.738H94.324ZM90.936 59.842C90.726 61.844 90.11 63.412 88.892 64.378C89.172 64.56 89.676 64.966 89.872 65.176C91.132 64.042 91.846 62.278 92.14 59.982L90.936 59.842ZM85.364 59.478L85.672 60.766C86.89 60.402 88.444 59.912 89.9 59.45L89.718 58.246C88.122 58.722 86.47 59.212 85.364 59.478ZM85.504 54.942V56.16H89.858V54.942H85.504ZM87.142 52.198V63.58C87.142 63.776 87.086 63.832 86.918 63.832C86.75 63.846 86.232 63.846 85.658 63.832C85.826 64.182 85.98 64.728 86.022 65.05C86.904 65.05 87.492 65.008 87.856 64.798C88.248 64.602 88.374 64.252 88.374 63.594V52.198H87.142ZM105.272 55.222V65.162H106.644V55.222H105.272ZM102.29 57.98H109.766V59.254H102.29V57.98ZM102.29 55.698H109.766V56.958H102.29V55.698ZM101.002 54.592V60.36H111.124V54.592H101.002ZM99.714 61.508V62.74H112.314V61.508H99.714ZM102.178 52.772C102.724 53.416 103.326 54.326 103.592 54.886L104.796 54.312C104.516 53.724 103.858 52.87 103.312 52.24L102.178 52.772ZM108.758 52.268C108.422 53.052 107.792 54.13 107.274 54.816L108.436 55.236C108.954 54.606 109.64 53.626 110.214 52.716L108.758 52.268ZM118.614 54.2V55.432H126.342V54.2H118.614ZM120.392 55.642C119.874 56.594 118.964 57.756 118.068 58.484C118.348 58.68 118.782 59.044 118.992 59.296C119.916 58.498 120.896 57.308 121.568 56.174L120.392 55.642ZM122.996 56.258C123.906 57.126 124.956 58.372 125.39 59.212L126.37 58.372C125.894 57.56 124.816 56.37 123.906 55.516L122.996 56.258ZM120.784 58.176L119.636 58.47C120.756 61.648 122.702 64 125.726 65.092C125.922 64.728 126.314 64.182 126.622 63.916C123.738 63.02 121.736 60.892 120.784 58.176ZM120.98 52.534C121.414 53.066 121.862 53.836 122.058 54.34L123.262 53.794C123.052 53.304 122.59 52.604 122.128 52.072L120.98 52.534ZM113.798 55.068V56.3H118.264V55.068H113.798ZM115.548 52.184V65.176H116.766V52.184H115.548ZM115.422 55.852C115.058 57.784 114.232 60.164 113.336 61.41C113.56 61.746 113.868 62.334 113.994 62.698C114.932 61.242 115.772 58.428 116.164 56.146L115.422 55.852ZM116.738 56.776L116.136 57.308C116.514 57.994 117.382 59.744 117.69 60.57L118.46 59.576C118.208 59.128 117.046 57.196 116.738 56.776ZM123.528 58.134C122.744 60.948 120.854 62.992 117.97 64.182C118.236 64.406 118.628 64.91 118.81 65.19C121.904 63.874 123.85 61.662 124.802 58.456L123.528 58.134ZM136.646 62.376C137.64 63.174 138.942 64.322 139.558 65.05L140.566 64.182C139.922 63.468 138.592 62.362 137.598 61.606L136.646 62.376ZM137.948 56.23C136.982 58.12 134.882 60.01 132.474 61.06C132.712 61.312 133.062 61.774 133.216 62.068C135.778 60.878 137.948 58.862 139.208 56.65L137.948 56.23ZM138.9 58.806C137.71 61.116 135.05 63.09 131.774 64.084C132.012 64.364 132.39 64.882 132.544 65.19C135.988 64.056 138.718 61.942 140.258 59.296L138.9 58.806ZM132.572 53.99V55.208H140.44V53.99H132.572ZM133.048 58.988C133.048 58.638 134.588 58.19 134.588 58.19C135.218 57.322 136.268 55.586 136.842 54.634H135.442C135.064 55.278 134.028 56.972 133.706 57.322C133.468 57.588 133.02 57.686 132.712 57.756C132.824 58.036 133.006 58.666 133.048 58.988ZM133.048 58.988C133.384 58.848 133.916 58.764 137.388 58.54C137.444 58.274 137.612 57.77 137.766 57.448L133.706 57.658L133.034 58.036L133.048 58.988ZM135.47 52.478C135.792 53.094 136.086 53.92 136.184 54.452L137.5 54.004C137.402 53.486 137.038 52.688 136.702 52.1L135.47 52.478ZM127.714 54.858V56.076H132.292V54.858H127.714ZM129.52 52.184V65.176H130.78V52.184H129.52ZM129.548 55.712C129.17 57.602 128.302 59.94 127.378 61.158C127.602 61.494 127.91 62.096 128.036 62.474C129.016 61.032 129.898 58.274 130.304 55.992L129.548 55.712ZM130.71 56.51L130.108 56.986C130.472 57.616 131.326 59.254 131.634 60.01L132.418 59.1C132.166 58.666 131.032 56.902 130.71 56.51ZM150.73 58.596C150.002 59.282 148.602 59.898 147.384 60.248C147.636 60.444 147.944 60.766 148.112 61.018C149.428 60.584 150.842 59.884 151.71 59.002L150.73 58.596ZM152.074 59.968C151.136 60.934 149.302 61.69 147.538 62.068C147.776 62.306 148.042 62.67 148.196 62.922C150.1 62.418 151.962 61.564 153.054 60.374L152.074 59.968ZM153.264 61.494C152.032 62.894 149.512 63.72 146.796 64.112C147.048 64.392 147.342 64.84 147.468 65.162C150.394 64.63 152.97 63.664 154.398 61.97L153.264 61.494ZM148.84 52.17C148.294 53.654 147.314 55.068 146.208 55.964C146.502 56.146 146.992 56.524 147.202 56.748C148.322 55.726 149.4 54.144 150.058 52.478L148.84 52.17ZM148.91 53.668L148.266 54.746H153.012V53.668H148.91ZM148.686 54.312L147.86 54.886C148.77 56.58 150.814 58.386 153.922 59.114C154.09 58.792 154.412 58.302 154.664 58.05C151.556 57.49 149.526 55.88 148.686 54.312ZM145.242 56.132V62.908H146.348V56.132H145.242ZM144.15 52.254C143.506 54.368 142.428 56.482 141.238 57.84C141.462 58.19 141.798 58.918 141.91 59.24C143.31 57.588 144.584 55.04 145.382 52.604L144.15 52.254ZM143.002 55.852V65.176H144.262V54.662L144.22 54.634L143.002 55.852ZM152.844 53.668V53.864C151.864 56.23 149.12 57.644 146.236 58.19C146.46 58.442 146.74 58.904 146.866 59.198C149.974 58.47 152.844 56.944 154.048 53.99L153.278 53.612L153.068 53.668H152.844ZM156.456 53.248C157.212 53.962 158.178 54.956 158.626 55.586L159.564 54.648C159.102 54.032 158.094 53.08 157.352 52.408L156.456 53.248ZM155.658 56.552V57.826H158.878V56.552H155.658ZM160.628 53.318V54.648H168.482V53.318H160.628ZM164.674 53.766V63.356C164.674 63.608 164.576 63.692 164.296 63.706C164.002 63.72 162.98 63.734 162 63.678C162.224 64.056 162.476 64.714 162.546 65.12C163.862 65.12 164.758 65.078 165.332 64.854C165.892 64.616 166.074 64.196 166.074 63.37V53.766H164.674ZM157.772 64.896C158.024 64.588 158.5 64.252 161.524 62.166C161.384 61.9 161.216 61.34 161.146 60.962L157.87 63.104L157.506 63.608L157.772 64.896ZM157.772 64.896C157.772 64.406 159.172 63.524 159.172 63.524V56.552H157.898V62.502C157.898 63.132 157.422 63.58 157.128 63.762C157.352 64.028 157.674 64.574 157.772 64.896Z" fill="#909399"/>
</g>
<rect width="200" height="48" transform="translate(75 82)" fill="white"/>
<rect x="75" y="129" width="200" height="1" fill="#E4E7ED"/>
<path d="M259.667 98.6665L255 103.333L250.333 98.6665" stroke="#C0C4CC"/>
</g>
<rect x="75.5" y="34.5" width="199" height="95" stroke="#E4E7ED"/>
<g clip-path="url(#clip2_30239_72943)">
<rect width="200" height="48" transform="translate(275 34)" fill="#F2F2F2"/>
<rect x="275" y="81" width="200" height="1" fill="#E4E7ED"/>
<g clip-path="url(#clip3_30239_72943)">
<path d="M290.264 53.402V54.466H298.146V53.402H290.264ZM294.716 63.3C295.668 63.832 296.914 64.658 297.516 65.19L298.384 64.28C297.754 63.748 296.48 62.978 295.528 62.474L294.716 63.3ZM292.546 62.474C291.846 63.076 290.488 63.832 289.424 64.266C289.69 64.518 290.054 64.91 290.25 65.176C291.328 64.7 292.714 63.944 293.624 63.244L292.546 62.474ZM289.774 61.452V62.586H298.51V61.452H289.774ZM291.496 56.944V57.686H296.844V56.944H291.496ZM291.482 58.4V59.156H296.928V58.4H291.482ZM291.51 59.898V60.668H296.746V59.898H291.51ZM290.95 55.292V61.774H292.112V56.188H296.102V61.774H297.306V55.292H290.95ZM293.498 52.212C293.386 53.318 293.12 54.914 292.882 55.908L293.974 56.034C294.282 55.082 294.646 53.57 294.898 52.268L293.498 52.212ZM285.532 55.502V56.762H289.816V55.502H285.532ZM287.03 52.366V61.676H288.29V52.366H287.03ZM285.392 61.998L285.882 63.328C287.058 62.866 288.514 62.264 289.9 61.69L289.69 60.514C288.108 61.088 286.47 61.676 285.392 61.998ZM300.008 52.898V55.824H301.324V54.13H310.606V55.824H311.978V52.898H300.008ZM303.55 55.838V56.986H310.186V55.838H303.55ZM302.99 58.512V59.688H309.752V58.512H302.99ZM300.232 60.962V62.18H308.114V60.962H300.232ZM309.36 58.512L309.346 58.708C309.094 61.914 308.786 63.328 308.338 63.692C308.184 63.832 308.002 63.86 307.694 63.86C307.302 63.86 306.378 63.846 305.426 63.762C305.664 64.098 305.832 64.63 305.86 65.008C306.77 65.05 307.68 65.064 308.156 65.022C308.73 64.994 309.094 64.882 309.458 64.518C310.004 63.958 310.326 62.544 310.648 59.086C310.676 58.904 310.69 58.512 310.69 58.512H309.36ZM303.088 54.354C302.794 56.048 302.304 58.316 301.926 59.688H303.298C303.634 58.386 304.096 56.188 304.418 54.48L303.088 54.354ZM318.012 54.116V55.32H326.37V54.116H318.012ZM319.818 52.184V57.042H321.092V52.184H319.818ZM323.332 52.184V57.042H324.606V52.184H323.332ZM318.572 57.588V65.134H319.776V58.75H324.634V65.064H325.894V57.588H318.572ZM319.244 60.416V61.564H325.208V60.416H319.244ZM319.272 63.272V64.434H325.236V63.272H319.272ZM321.582 58.134V64.112H322.786V58.134H321.582ZM313.336 59.478L313.658 60.766C314.862 60.402 316.402 59.926 317.844 59.464L317.676 58.26C316.094 58.722 314.442 59.212 313.336 59.478ZM313.546 54.942V56.16H317.76V54.942H313.546ZM315.142 52.198V63.58C315.142 63.776 315.072 63.832 314.904 63.832C314.736 63.846 314.218 63.846 313.644 63.832C313.812 64.182 313.966 64.728 314.008 65.05C314.904 65.05 315.478 65.008 315.842 64.798C316.234 64.602 316.36 64.252 316.36 63.594V52.198H315.142ZM331.466 54.83V56.076H340.188V54.83H331.466ZM337.038 53.01C337.612 53.542 338.34 54.298 338.676 54.774L339.726 54.088C339.362 53.612 338.606 52.898 338.046 52.394L337.038 53.01ZM335.176 52.324V62.978H336.506V52.324H335.176ZM330.794 57.196H327.602V58.428H329.52V62.796H330.794V57.196ZM327.812 53.388C328.554 54.2 329.464 55.32 329.856 56.034L330.976 55.32C330.542 54.606 329.604 53.542 328.862 52.772L327.812 53.388ZM330.234 62.236C329.464 62.236 328.442 62.936 327.462 63.86L328.288 64.994C328.988 64.168 329.716 63.384 330.22 63.384C330.556 63.384 331.004 63.79 331.62 64.112C332.628 64.658 333.832 64.812 335.498 64.812C336.842 64.812 339.194 64.728 340.16 64.658C340.188 64.308 340.384 63.678 340.524 63.342C339.166 63.51 337.066 63.622 335.54 63.622C334.042 63.622 332.796 63.524 331.872 63.034C331.074 62.614 330.724 62.236 330.234 62.236ZM334.798 55.306C334.098 57.546 332.712 59.884 331.214 61.074C331.494 61.298 331.928 61.76 332.138 62.068C333.692 60.668 335.078 58.162 335.876 55.6L334.798 55.306ZM335.526 56.454C336.94 57.98 338.592 60.108 339.292 61.452L340.328 60.696C339.586 59.338 337.864 57.294 336.464 55.81L335.526 56.454Z" fill="#909399"/>
</g>
<rect x="275" y="129" width="200" height="1" fill="#E4E7ED"/>
</g>
<rect x="275.5" y="34.5" width="199" height="95" stroke="#E4E7ED"/>
<g clip-path="url(#clip4_30239_72943)">
<rect width="200" height="48" transform="translate(475 34)" fill="#F2F2F2"/>
<rect x="475" y="81" width="200" height="1" fill="#E4E7ED"/>
<g clip-path="url(#clip5_30239_72943)">
<path d="M492.784 63.37V64.574H497.166V63.37H492.784ZM492.336 59.156V65.204H493.554V60.374H496.466V65.148H497.726V59.156H492.336ZM493.386 52.94V54.102H496.424V52.94H493.386ZM492.882 52.94V54.97C492.882 55.95 492.714 57.07 491.342 57.896C491.58 58.05 492.056 58.484 492.224 58.708C493.75 57.756 494.058 56.258 494.058 54.998V52.94H492.882ZM495.878 52.94V56.846C495.878 57.98 496.088 58.428 497.166 58.428C497.32 58.428 497.67 58.428 497.838 58.428C498.076 58.428 498.328 58.414 498.496 58.358C498.468 58.078 498.426 57.616 498.412 57.308C498.258 57.364 497.978 57.378 497.824 57.378C497.698 57.378 497.376 57.378 497.25 57.378C497.096 57.378 497.068 57.266 497.068 56.86V52.94H495.878ZM486.96 53.906V54.956H490.376V53.906H486.96ZM490.096 53.906V63.706C490.096 63.874 490.026 63.93 489.886 63.93C489.718 63.944 489.214 63.944 488.668 63.93C488.836 64.224 489.004 64.742 489.032 65.064C489.872 65.064 490.404 65.036 490.782 64.84C491.146 64.63 491.258 64.308 491.258 63.72V53.906H490.096ZM486.456 53.906V59.156C486.456 60.906 486.372 63.118 485.42 64.644C485.7 64.77 486.204 65.106 486.414 65.302C487.45 63.664 487.604 61.06 487.604 59.156V53.906H486.456ZM488.024 55.754C488.332 56.37 488.64 57.196 488.78 57.742L489.662 57.364C489.522 56.846 489.186 56.034 488.85 55.432L488.024 55.754ZM488.318 52.156C488.234 52.772 488.024 53.654 487.842 54.242L488.864 54.494C489.102 53.962 489.396 53.15 489.662 52.394L488.318 52.156ZM485.518 58.204V59.31H490.768V58.204H485.518ZM487.982 60.066C488.36 60.724 488.766 61.606 488.92 62.194L489.788 61.788C489.606 61.242 489.2 60.374 488.794 59.716L487.982 60.066ZM507.568 52.856V54.06H511.334V52.856H507.568ZM507.568 56.048V57.224H511.334V56.048H507.568ZM507.554 59.282V60.472H511.362V59.282H507.554ZM510.76 52.856V63.608C510.76 63.818 510.676 63.888 510.48 63.888C510.27 63.902 509.57 63.902 508.898 63.874C509.066 64.21 509.248 64.798 509.29 65.148C510.326 65.148 511.012 65.12 511.446 64.91C511.894 64.7 512.034 64.322 512.034 63.622V52.856H510.76ZM507.022 52.856V57.966C507.022 59.982 506.924 62.642 505.804 64.476C506.098 64.602 506.644 64.994 506.854 65.232C508.086 63.244 508.268 60.15 508.268 57.966V52.856H507.022ZM499.658 53.962V55.124H506.434V53.962H499.658ZM501.38 56.188V57.224H504.838V56.188H501.38ZM501.38 58.386V59.422H504.852V58.386H501.38ZM499.476 60.626V61.802H506.392V60.626H499.476ZM500.806 52.352V61.074H502.01V52.352H500.806ZM504.208 52.352V61.074H505.426V52.352H504.208ZM501.338 62.012C500.932 62.908 500.204 63.818 499.434 64.42C499.742 64.602 500.26 64.98 500.512 65.204C501.268 64.504 502.08 63.426 502.598 62.376L501.338 62.012ZM503.382 62.53C503.928 63.188 504.586 64.112 504.852 64.672L505.93 64.042C505.622 63.468 504.95 62.614 504.39 61.984L503.382 62.53ZM518.614 54.2V55.432H526.342V54.2H518.614ZM520.392 55.642C519.874 56.594 518.964 57.756 518.068 58.484C518.348 58.68 518.782 59.044 518.992 59.296C519.916 58.498 520.896 57.308 521.568 56.174L520.392 55.642ZM522.996 56.258C523.906 57.126 524.956 58.372 525.39 59.212L526.37 58.372C525.894 57.56 524.816 56.37 523.906 55.516L522.996 56.258ZM520.784 58.176L519.636 58.47C520.756 61.648 522.702 64 525.726 65.092C525.922 64.728 526.314 64.182 526.622 63.916C523.738 63.02 521.736 60.892 520.784 58.176ZM520.98 52.534C521.414 53.066 521.862 53.836 522.058 54.34L523.262 53.794C523.052 53.304 522.59 52.604 522.128 52.072L520.98 52.534ZM513.798 55.068V56.3H518.264V55.068H513.798ZM515.548 52.184V65.176H516.766V52.184H515.548ZM515.422 55.852C515.058 57.784 514.232 60.164 513.336 61.41C513.56 61.746 513.868 62.334 513.994 62.698C514.932 61.242 515.772 58.428 516.164 56.146L515.422 55.852ZM516.738 56.776L516.136 57.308C516.514 57.994 517.382 59.744 517.69 60.57L518.46 59.576C518.208 59.128 517.046 57.196 516.738 56.776ZM523.528 58.134C522.744 60.948 520.854 62.992 517.97 64.182C518.236 64.406 518.628 64.91 518.81 65.19C521.904 63.874 523.85 61.662 524.802 58.456L523.528 58.134ZM536.646 62.376C537.64 63.174 538.942 64.322 539.558 65.05L540.566 64.182C539.922 63.468 538.592 62.362 537.598 61.606L536.646 62.376ZM537.948 56.23C536.982 58.12 534.882 60.01 532.474 61.06C532.712 61.312 533.062 61.774 533.216 62.068C535.778 60.878 537.948 58.862 539.208 56.65L537.948 56.23ZM538.9 58.806C537.71 61.116 535.05 63.09 531.774 64.084C532.012 64.364 532.39 64.882 532.544 65.19C535.988 64.056 538.718 61.942 540.258 59.296L538.9 58.806ZM532.572 53.99V55.208H540.44V53.99H532.572ZM533.048 58.988C533.048 58.638 534.588 58.19 534.588 58.19C535.218 57.322 536.268 55.586 536.842 54.634H535.442C535.064 55.278 534.028 56.972 533.706 57.322C533.468 57.588 533.02 57.686 532.712 57.756C532.824 58.036 533.006 58.666 533.048 58.988ZM533.048 58.988C533.384 58.848 533.916 58.764 537.388 58.54C537.444 58.274 537.612 57.77 537.766 57.448L533.706 57.658L533.034 58.036L533.048 58.988ZM535.47 52.478C535.792 53.094 536.086 53.92 536.184 54.452L537.5 54.004C537.402 53.486 537.038 52.688 536.702 52.1L535.47 52.478ZM527.714 54.858V56.076H532.292V54.858H527.714ZM529.52 52.184V65.176H530.78V52.184H529.52ZM529.548 55.712C529.17 57.602 528.302 59.94 527.378 61.158C527.602 61.494 527.91 62.096 528.036 62.474C529.016 61.032 529.898 58.274 530.304 55.992L529.548 55.712ZM530.71 56.51L530.108 56.986C530.472 57.616 531.326 59.254 531.634 60.01L532.418 59.1C532.166 58.666 531.032 56.902 530.71 56.51ZM550.73 58.596C550.002 59.282 548.602 59.898 547.384 60.248C547.636 60.444 547.944 60.766 548.112 61.018C549.428 60.584 550.842 59.884 551.71 59.002L550.73 58.596ZM552.074 59.968C551.136 60.934 549.302 61.69 547.538 62.068C547.776 62.306 548.042 62.67 548.196 62.922C550.1 62.418 551.962 61.564 553.054 60.374L552.074 59.968ZM553.264 61.494C552.032 62.894 549.512 63.72 546.796 64.112C547.048 64.392 547.342 64.84 547.468 65.162C550.394 64.63 552.97 63.664 554.398 61.97L553.264 61.494ZM548.84 52.17C548.294 53.654 547.314 55.068 546.208 55.964C546.502 56.146 546.992 56.524 547.202 56.748C548.322 55.726 549.4 54.144 550.058 52.478L548.84 52.17ZM548.91 53.668L548.266 54.746H553.012V53.668H548.91ZM548.686 54.312L547.86 54.886C548.77 56.58 550.814 58.386 553.922 59.114C554.09 58.792 554.412 58.302 554.664 58.05C551.556 57.49 549.526 55.88 548.686 54.312ZM545.242 56.132V62.908H546.348V56.132H545.242ZM544.15 52.254C543.506 54.368 542.428 56.482 541.238 57.84C541.462 58.19 541.798 58.918 541.91 59.24C543.31 57.588 544.584 55.04 545.382 52.604L544.15 52.254ZM543.002 55.852V65.176H544.262V54.662L544.22 54.634L543.002 55.852ZM552.844 53.668V53.864C551.864 56.23 549.12 57.644 546.236 58.19C546.46 58.442 546.74 58.904 546.866 59.198C549.974 58.47 552.844 56.944 554.048 53.99L553.278 53.612L553.068 53.668H552.844ZM556.456 53.248C557.212 53.962 558.178 54.956 558.626 55.586L559.564 54.648C559.102 54.032 558.094 53.08 557.352 52.408L556.456 53.248ZM555.658 56.552V57.826H558.878V56.552H555.658ZM560.628 53.318V54.648H568.482V53.318H560.628ZM564.674 53.766V63.356C564.674 63.608 564.576 63.692 564.296 63.706C564.002 63.72 562.98 63.734 562 63.678C562.224 64.056 562.476 64.714 562.546 65.12C563.862 65.12 564.758 65.078 565.332 64.854C565.892 64.616 566.074 64.196 566.074 63.37V53.766H564.674ZM557.772 64.896C558.024 64.588 558.5 64.252 561.524 62.166C561.384 61.9 561.216 61.34 561.146 60.962L557.87 63.104L557.506 63.608L557.772 64.896ZM557.772 64.896C557.772 64.406 559.172 63.524 559.172 63.524V56.552H557.898V62.502C557.898 63.132 557.422 63.58 557.128 63.762C557.352 64.028 557.674 64.574 557.772 64.896Z" fill="#909399"/>
</g>
<rect width="200" height="48" transform="translate(475 82)" fill="white"/>
<rect x="475" y="129" width="200" height="1" fill="#E4E7ED"/>
<path d="M659.667 98.6665L655 103.333L650.333 98.6665" stroke="#C0C4CC"/>
</g>
<rect x="475.5" y="34.5" width="199" height="95" stroke="#E4E7ED"/>
<g clip-path="url(#clip6_30239_72943)">
<rect width="200" height="48" transform="translate(675 34)" fill="#F2F2F2"/>
<rect x="675" y="81" width="200" height="1" fill="#E4E7ED"/>
<g clip-path="url(#clip7_30239_72943)">
<path d="M690.264 53.402V54.466H698.146V53.402H690.264ZM694.716 63.3C695.668 63.832 696.914 64.658 697.516 65.19L698.384 64.28C697.754 63.748 696.48 62.978 695.528 62.474L694.716 63.3ZM692.546 62.474C691.846 63.076 690.488 63.832 689.424 64.266C689.69 64.518 690.054 64.91 690.25 65.176C691.328 64.7 692.714 63.944 693.624 63.244L692.546 62.474ZM689.774 61.452V62.586H698.51V61.452H689.774ZM691.496 56.944V57.686H696.844V56.944H691.496ZM691.482 58.4V59.156H696.928V58.4H691.482ZM691.51 59.898V60.668H696.746V59.898H691.51ZM690.95 55.292V61.774H692.112V56.188H696.102V61.774H697.306V55.292H690.95ZM693.498 52.212C693.386 53.318 693.12 54.914 692.882 55.908L693.974 56.034C694.282 55.082 694.646 53.57 694.898 52.268L693.498 52.212ZM685.532 55.502V56.762H689.816V55.502H685.532ZM687.03 52.366V61.676H688.29V52.366H687.03ZM685.392 61.998L685.882 63.328C687.058 62.866 688.514 62.264 689.9 61.69L689.69 60.514C688.108 61.088 686.47 61.676 685.392 61.998ZM700.008 52.898V55.824H701.324V54.13H710.606V55.824H711.978V52.898H700.008ZM703.55 55.838V56.986H710.186V55.838H703.55ZM702.99 58.512V59.688H709.752V58.512H702.99ZM700.232 60.962V62.18H708.114V60.962H700.232ZM709.36 58.512L709.346 58.708C709.094 61.914 708.786 63.328 708.338 63.692C708.184 63.832 708.002 63.86 707.694 63.86C707.302 63.86 706.378 63.846 705.426 63.762C705.664 64.098 705.832 64.63 705.86 65.008C706.77 65.05 707.68 65.064 708.156 65.022C708.73 64.994 709.094 64.882 709.458 64.518C710.004 63.958 710.326 62.544 710.648 59.086C710.676 58.904 710.69 58.512 710.69 58.512H709.36ZM703.088 54.354C702.794 56.048 702.304 58.316 701.926 59.688H703.298C703.634 58.386 704.096 56.188 704.418 54.48L703.088 54.354ZM718.012 54.116V55.32H726.37V54.116H718.012ZM719.818 52.184V57.042H721.092V52.184H719.818ZM723.332 52.184V57.042H724.606V52.184H723.332ZM718.572 57.588V65.134H719.776V58.75H724.634V65.064H725.894V57.588H718.572ZM719.244 60.416V61.564H725.208V60.416H719.244ZM719.272 63.272V64.434H725.236V63.272H719.272ZM721.582 58.134V64.112H722.786V58.134H721.582ZM713.336 59.478L713.658 60.766C714.862 60.402 716.402 59.926 717.844 59.464L717.676 58.26C716.094 58.722 714.442 59.212 713.336 59.478ZM713.546 54.942V56.16H717.76V54.942H713.546ZM715.142 52.198V63.58C715.142 63.776 715.072 63.832 714.904 63.832C714.736 63.846 714.218 63.846 713.644 63.832C713.812 64.182 713.966 64.728 714.008 65.05C714.904 65.05 715.478 65.008 715.842 64.798C716.234 64.602 716.36 64.252 716.36 63.594V52.198H715.142ZM731.466 54.83V56.076H740.188V54.83H731.466ZM737.038 53.01C737.612 53.542 738.34 54.298 738.676 54.774L739.726 54.088C739.362 53.612 738.606 52.898 738.046 52.394L737.038 53.01ZM735.176 52.324V62.978H736.506V52.324H735.176ZM730.794 57.196H727.602V58.428H729.52V62.796H730.794V57.196ZM727.812 53.388C728.554 54.2 729.464 55.32 729.856 56.034L730.976 55.32C730.542 54.606 729.604 53.542 728.862 52.772L727.812 53.388ZM730.234 62.236C729.464 62.236 728.442 62.936 727.462 63.86L728.288 64.994C728.988 64.168 729.716 63.384 730.22 63.384C730.556 63.384 731.004 63.79 731.62 64.112C732.628 64.658 733.832 64.812 735.498 64.812C736.842 64.812 739.194 64.728 740.16 64.658C740.188 64.308 740.384 63.678 740.524 63.342C739.166 63.51 737.066 63.622 735.54 63.622C734.042 63.622 732.796 63.524 731.872 63.034C731.074 62.614 730.724 62.236 730.234 62.236ZM734.798 55.306C734.098 57.546 732.712 59.884 731.214 61.074C731.494 61.298 731.928 61.76 732.138 62.068C733.692 60.668 735.078 58.162 735.876 55.6L734.798 55.306ZM735.526 56.454C736.94 57.98 738.592 60.108 739.292 61.452L740.328 60.696C739.586 59.338 737.864 57.294 736.464 55.81L735.526 56.454Z" fill="#909399"/>
</g>
<rect x="675" y="129" width="200" height="1" fill="#E4E7ED"/>
</g>
<rect x="675.5" y="34.5" width="199" height="95" stroke="#E4E7ED"/>
<path d="M85.812 161.274V162.45H98.202V161.274H85.812ZM92.056 163.794V164.942H97.292V163.794H92.056ZM91.454 161.848V167.098H92.798V161.848H91.454ZM88.962 164.102L87.87 164.48C88.99 167.35 90.894 167.938 94.156 167.938H98.062C98.132 167.546 98.342 166.958 98.538 166.664C97.684 166.692 94.856 166.692 94.212 166.692C91.594 166.678 89.774 166.286 88.962 164.102ZM88.094 162.842C87.744 164.816 86.862 166.356 85.406 167.28C85.7 167.476 86.218 167.966 86.414 168.204C87.954 167.098 88.962 165.348 89.41 163.024L88.094 162.842ZM88.486 158.544H95.402V159.496H88.486V158.544ZM88.486 156.696H95.402V157.634H88.486V156.696ZM87.212 155.716V160.462H96.746V155.716H87.212ZM102.15 166.412V167.574H109.836V166.412H102.15ZM101.394 162.786V168.176H102.752V163.934H109.276V168.162H110.718V162.786H101.394ZM99.882 155.94V157.186H112.104V155.94H99.882ZM106.476 156.402C104.964 158.376 102.178 159.944 99.392 160.798C99.686 161.078 100.134 161.694 100.33 162.002C103.116 160.952 106.028 159.23 107.792 156.976L106.476 156.402ZM107.106 159.272C108.66 159.93 110.55 161.036 111.558 161.834L112.51 160.84C111.474 160.084 109.612 159.02 108.058 158.39L107.106 159.272ZM105.3 158.656V162.38H106.644V157.34L106.63 157.326L105.3 158.656ZM113.896 155.632V156.556H126.118V155.632H113.896ZM117.704 156.038V159.23H118.894V156.038H117.704ZM120.952 156.038V159.23H122.184V156.038H120.952ZM115.758 157.956H124.27V158.684H115.758V157.956ZM114.554 157.13V159.51H125.53V157.13H114.554ZM119.244 160.182V161.078H125.908V160.182H119.244ZM119.832 163.262H124.032V163.752H119.832V163.262ZM119.832 162.156H124.032V162.632H119.832V162.156ZM118.726 161.512V164.41H125.18V161.512H118.726ZM116.122 159.58C115.59 160.378 114.498 161.302 113.504 161.848C113.742 162.044 114.092 162.436 114.288 162.674C115.366 162.03 116.542 160.98 117.27 159.972L116.122 159.58ZM116.458 161.512C115.856 162.548 114.61 163.766 113.434 164.494C113.658 164.69 113.994 165.096 114.162 165.334C115.45 164.494 116.766 163.15 117.578 161.89L116.458 161.512ZM119.202 159.454C118.74 160.49 117.942 161.484 117.046 162.142C117.312 162.324 117.774 162.73 117.97 162.926C118.88 162.156 119.79 160.98 120.336 159.762L119.202 159.454ZM120.448 164.886L119.832 165.67H124.466V164.886H120.448ZM124.074 164.886V165.04C122.926 166.496 120.07 167.112 117.186 167.322C117.368 167.546 117.564 167.924 117.662 168.204C120.798 167.896 123.808 167.168 125.222 165.236L124.508 164.844L124.298 164.886H124.074ZM119.874 165.46L118.978 165.796C120.378 167.154 123.052 167.896 125.894 168.12C126.02 167.854 126.286 167.448 126.51 167.224C123.752 167.07 121.106 166.51 119.874 165.46ZM120.714 163.962C120.028 164.718 118.684 165.404 117.27 165.852C117.48 166.02 117.816 166.37 117.97 166.58C119.468 166.062 120.868 165.306 121.722 164.284L120.714 163.962ZM115.268 163.402V168.176H116.444V162.688L116.08 162.59L115.268 163.402ZM127.602 166.636V167.798H140.384V166.636H127.602ZM128.512 157.004V158.054H139.432V157.004H128.512ZM127.924 161.176V162.226H140.09V161.176H127.924ZM129.24 159.062V160.084H138.788V159.062H129.24ZM129.1 163.136V167.196H130.332V164.242H131.956V167.196H133.174V164.242H134.798V167.196H136.016V164.242H137.668V167.196H138.956V163.136H129.1ZM130.374 155.548C130.752 156.066 131.144 156.794 131.298 157.27L132.53 156.794C132.362 156.332 131.956 155.66 131.55 155.156L130.374 155.548ZM136.38 155.156C136.142 155.8 135.68 156.696 135.316 157.284L136.422 157.62C136.814 157.074 137.276 156.29 137.71 155.492L136.38 155.156ZM133.3 157.522V161.792H134.658V157.522H133.3ZM142.946 158.586V165.404C142.946 167.322 143.702 167.784 146.166 167.784C146.74 167.784 150.562 167.784 151.178 167.784C153.6 167.784 154.118 167.028 154.412 164.41C154.02 164.34 153.432 164.116 153.068 163.878C152.872 166.048 152.648 166.482 151.15 166.482C150.254 166.482 146.866 166.482 146.124 166.482C144.584 166.482 144.304 166.3 144.304 165.418V158.586H142.946ZM143.702 160.714V162.03H151.738V160.714H143.702ZM142.288 156.024V157.34H151.234V162.702H152.606V156.024H142.288ZM160.264 156.402V157.466H168.146V156.402H160.264ZM164.716 166.3C165.668 166.832 166.914 167.658 167.516 168.19L168.384 167.28C167.754 166.748 166.48 165.978 165.528 165.474L164.716 166.3ZM162.546 165.474C161.846 166.076 160.488 166.832 159.424 167.266C159.69 167.518 160.054 167.91 160.25 168.176C161.328 167.7 162.714 166.944 163.624 166.244L162.546 165.474ZM159.774 164.452V165.586H168.51V164.452H159.774ZM161.496 159.944V160.686H166.844V159.944H161.496ZM161.482 161.4V162.156H166.928V161.4H161.482ZM161.51 162.898V163.668H166.746V162.898H161.51ZM160.95 158.292V164.774H162.112V159.188H166.102V164.774H167.306V158.292H160.95ZM163.498 155.212C163.386 156.318 163.12 157.914 162.882 158.908L163.974 159.034C164.282 158.082 164.646 156.57 164.898 155.268L163.498 155.212ZM155.532 158.502V159.762H159.816V158.502H155.532ZM157.03 155.366V164.676H158.29V155.366H157.03ZM155.392 164.998L155.882 166.328C157.058 165.866 158.514 165.264 159.9 164.69L159.69 163.514C158.108 164.088 156.47 164.676 155.392 164.998ZM175.23 161.106C176.574 162.352 178.31 164.102 179.108 165.18L180.2 164.326C179.332 163.248 177.568 161.568 176.224 160.392L175.23 161.106ZM175.328 155.184V158.194C175.328 160.084 175.118 162.674 171.828 164.41C172.136 164.648 172.584 165.124 172.78 165.404C176.21 163.388 176.686 160.476 176.686 158.194V155.184H175.328ZM170.316 157.55V168.204H171.632V158.852H180.984V157.55H170.316ZM180.396 157.55V166.552C180.396 166.79 180.312 166.874 180.046 166.888C179.766 166.888 178.828 166.902 177.904 166.86C178.086 167.21 178.296 167.812 178.352 168.19C179.598 168.19 180.48 168.176 181.012 167.966C181.53 167.742 181.712 167.35 181.712 166.566V157.55H180.396ZM187.55 158.11C186.794 159.104 185.506 160.042 184.246 160.644C184.526 160.882 184.974 161.414 185.17 161.666C186.458 160.938 187.886 159.762 188.796 158.516L187.55 158.11ZM191.05 158.88C192.31 159.664 193.864 160.84 194.606 161.624L195.558 160.756C194.774 159.972 193.178 158.852 191.946 158.124L191.05 158.88ZM186.024 163.43V168.19H187.298V164.606H192.66V168.148H194.004V163.43H186.024ZM186.71 166.58V167.756H193.29V166.58H186.71ZM184.078 156.402V159.16H185.38V157.606H194.564V159.16H195.908V156.402H184.078ZM188.936 155.366C189.23 155.926 189.552 156.654 189.664 157.116L191.106 156.78C190.966 156.304 190.63 155.59 190.308 155.058L188.936 155.366ZM189.832 159.356C188.516 161.47 186.052 163.15 183.462 164.074C183.77 164.354 184.106 164.816 184.302 165.138C187.018 164.032 189.496 162.212 190.98 159.86L189.832 159.356ZM190.42 159.86L189.356 160.364C191.176 162.59 193.192 163.864 195.656 164.97C195.824 164.578 196.188 164.144 196.496 163.864C194.102 162.954 192.058 161.806 190.42 159.86ZM200.5 160.308C201.13 160.308 201.676 159.832 201.676 159.146C201.676 158.446 201.13 157.97 200.5 157.97C199.856 157.97 199.324 158.446 199.324 159.146C199.324 159.832 199.856 160.308 200.5 160.308ZM200.5 167.084C201.13 167.084 201.676 166.608 201.676 165.922C201.676 165.222 201.13 164.746 200.5 164.746C199.856 164.746 199.324 165.222 199.324 165.922C199.324 166.608 199.856 167.084 200.5 167.084Z" fill="black"/>
<rect x="220" y="154" width="14" height="14" rx="2" fill="#409EFF"/>
<path d="M225.75 162.417L231.166 157L232 157.833L225.75 164.083L222 160.333L222.833 159.5L225.75 162.417Z" fill="white"/>
<rect width="68" height="40" transform="translate(351 202)" fill="#409EFF"/>
<path d="M374.626 221.322H371.616V222.582H373.296V226.768H374.626V221.322ZM371.896 217.304C372.554 218.018 373.436 219.012 373.856 219.6L374.976 218.816C374.528 218.228 373.604 217.29 372.96 216.618L371.896 217.304ZM377.104 219.684V220.874H382.578V219.684H377.104ZM376.334 217.164V220.258C376.334 221.966 376.194 224.29 374.864 225.914C375.172 226.054 375.746 226.432 375.984 226.67C377.412 224.892 377.65 222.19 377.65 220.272V217.164H376.334ZM382.382 219.684V219.908C381.654 222.834 379.526 224.934 377.034 225.802C377.3 226.068 377.636 226.558 377.776 226.88C380.562 225.774 382.802 223.548 383.684 219.922L382.872 219.642L382.634 219.684H382.382ZM383.082 216.366C381.514 216.8 378.728 217.066 376.334 217.164C376.488 217.472 376.656 218.004 376.712 218.326C379.19 218.256 382.144 217.976 384.188 217.416L383.082 216.366ZM377.776 222.316C379.47 223.702 381.724 225.662 382.802 226.866L383.824 225.928C382.676 224.766 380.338 222.876 378.7 221.546L377.776 222.316ZM373.884 226.222C373.212 226.222 372.274 226.838 371.364 227.79L372.274 229.05C372.82 228.266 373.422 227.412 373.842 227.412C374.178 227.412 374.654 227.846 375.312 228.182C376.348 228.7 377.594 228.868 379.316 228.868C380.744 228.868 383.138 228.77 384.132 228.7C384.16 228.322 384.37 227.664 384.538 227.314C383.124 227.496 380.94 227.608 379.358 227.608C377.79 227.608 376.502 227.524 375.564 227.034C374.738 226.614 374.374 226.222 373.884 226.222ZM390.418 221.182H393.414V224.052H390.418V221.182ZM389.172 220.006V225.214H394.744V220.006H389.172ZM386.078 216.716V229.176H387.45V218.06H396.494V229.176H397.922V216.716H386.078ZM386.848 227.174V228.42H397.306V227.174H386.848Z" fill="white"/>
<rect width="68" height="40" transform="translate(429 202)" fill="#409EFF"/>
<path d="M454.964 224.22V225.158H460.228V224.22H454.964ZM453.48 217.22V218.2H461.81V217.22H453.48ZM453.83 218.956V219.88H461.446V218.956H453.83ZM452.948 220.678V221.658H462.356V220.678H452.948ZM454.95 226.068V227.034H460.228V226.068H454.95ZM454.026 222.358V229.176H455.258V223.352H460.186V222.358H454.026ZM459.948 222.358V227.804C459.948 227.972 459.878 228.028 459.682 228.028C459.5 228.042 458.828 228.042 458.184 228.014C458.338 228.336 458.492 228.826 458.548 229.148C459.542 229.162 460.2 229.148 460.634 228.952C461.082 228.77 461.194 228.434 461.194 227.818V222.358H459.948ZM456.938 216.184V221H458.254V216.184H456.938ZM450.078 217.346C450.848 217.78 451.828 218.452 452.304 218.9L453.13 217.878C452.626 217.444 451.618 216.828 450.862 216.45L450.078 217.346ZM449.42 221.028C450.232 221.462 451.282 222.148 451.772 222.624L452.57 221.574C452.038 221.112 450.974 220.482 450.176 220.09L449.42 221.028ZM449.868 228.168L451.072 228.952C451.73 227.608 452.5 225.928 453.074 224.43L451.996 223.66C451.352 225.27 450.484 227.076 449.868 228.168ZM469.258 223.912V228.084H470.658V223.912H469.258ZM463.966 217.836V221.126H465.282V219.054H474.676V220.804H476.048V217.836H463.966ZM465.604 223.128V224.318H474.48V223.128H465.604ZM464.022 227.51V228.714H476.02V227.51H464.022ZM470.742 220.664C472.156 221.378 474.102 222.47 475.054 223.114L475.95 222.064C474.928 221.434 472.94 220.426 471.582 219.768L470.742 220.664ZM468.32 219.754C467.186 220.678 465.688 221.546 464.092 222.092L464.848 223.268C466.444 222.596 468.068 221.56 469.244 220.566L468.32 219.754ZM468.796 216.464C469.118 217.122 469.482 218.018 469.636 218.564L471.106 218.088C470.924 217.556 470.518 216.702 470.196 216.086L468.796 216.464Z" fill="white"/>
<rect width="68" height="40" transform="translate(507 202)" fill="#409EFF"/>
<path d="M534.014 224.682V225.816H539.39V224.682H534.014ZM534.056 222.232V223.268H539.376V222.232H534.056ZM534.056 219.782V220.902H539.376V219.782H534.056ZM535.932 220.342V228.63H537.094V220.342H535.932ZM538.774 219.782V227.72C538.774 227.874 538.732 227.93 538.578 227.93C538.424 227.944 537.934 227.944 537.43 227.916C537.57 228.252 537.696 228.742 537.738 229.064C538.564 229.064 539.166 229.064 539.544 228.868C539.936 228.672 540.034 228.336 540.034 227.734V219.782H538.774ZM533.16 219.782V223.408C533.16 225.004 533.02 227.048 531.704 228.49C531.998 228.63 532.53 228.994 532.74 229.204C534.154 227.636 534.378 225.214 534.378 223.408V219.782H533.16ZM534.574 216.156C534 217.808 532.978 219.362 531.802 220.37C532.026 220.608 532.418 221.126 532.558 221.378C533.874 220.202 535.022 218.382 535.722 216.45L534.574 216.156ZM534.728 217.346L534.182 218.438H537.948V217.346H534.728ZM537.598 217.346V217.584C537.318 218.256 536.688 219.278 536.156 219.88C536.422 220.034 536.814 220.286 537.038 220.468C537.668 219.796 538.466 218.732 538.942 217.864L538.088 217.304L537.892 217.346H537.598ZM527.714 216.884V218.088H532.53V216.884H527.714ZM529.142 221.21V222.386H531.018V226.278H529.142V227.44H532.138V221.21H529.142ZM529.408 217.486C529.058 219.726 528.442 221.84 527.406 223.226C527.602 223.604 527.882 224.402 527.952 224.738C529.296 223.03 530.122 220.398 530.612 217.752L529.408 217.486ZM528.61 221.21V228.532H529.73V221.21H528.61ZM549.582 216.226C549.554 220.874 549.652 225.69 546.11 228.21C546.474 228.448 546.894 228.854 547.118 229.176C550.828 226.39 550.884 221.21 550.926 216.226H549.582ZM550.8 220.356L549.624 220.454C549.876 222.008 550.422 226.894 553.656 229.176C553.88 228.84 554.258 228.448 554.622 228.196C551.514 226.124 550.968 221.7 550.8 220.356ZM542.834 217.234C543.534 217.892 544.528 218.83 544.99 219.376L545.914 218.424C545.424 217.892 544.416 217.024 543.716 216.408L542.834 217.234ZM543.744 228.756C543.968 228.476 544.374 228.14 547.048 226.236C546.922 225.984 546.74 225.466 546.656 225.116L543.814 227.062L543.478 227.538L543.744 228.756ZM541.602 220.552V221.826H544.766V220.552H541.602ZM543.744 228.756C543.744 228.266 545.13 227.202 545.13 227.202V220.552H543.842V226.376C543.842 227.076 543.352 227.594 543.044 227.818C543.268 228.028 543.632 228.49 543.744 228.756Z" fill="white"/>
<rect x="0.5" y="0.5" width="925" height="285" stroke="black"/>
<defs>
<clipPath id="clip0_30239_72943">
<rect x="75" y="34" width="200" height="96" fill="white"/>
</clipPath>
<clipPath id="clip1_30239_72943">
<rect width="84" height="22" fill="white" transform="translate(85 47)"/>
</clipPath>
<clipPath id="clip2_30239_72943">
<rect x="275" y="34" width="200" height="96" fill="white"/>
</clipPath>
<clipPath id="clip3_30239_72943">
<rect width="56" height="22" fill="white" transform="translate(285 47)"/>
</clipPath>
<clipPath id="clip4_30239_72943">
<rect x="475" y="34" width="200" height="96" fill="white"/>
</clipPath>
<clipPath id="clip5_30239_72943">
<rect width="84" height="22" fill="white" transform="translate(485 47)"/>
</clipPath>
<clipPath id="clip6_30239_72943">
<rect x="675" y="34" width="200" height="96" fill="white"/>
</clipPath>
<clipPath id="clip7_30239_72943">
<rect width="56" height="22" fill="white" transform="translate(685 47)"/>
</clipPath>
</defs>
</svg>
