<svg width="189" height="40" viewBox="0 0 189 40" fill="none" xmlns="http://www.w3.org/2000/svg">
<rect width="188" height="40" transform="translate(0.5)" fill="#409EFF"/>
<path d="M26.1358 21.996C25.8138 23.06 25.2118 24.222 24.3858 24.922L25.3518 25.636C26.2338 24.81 26.7938 23.522 27.1578 22.388L26.1358 21.996ZM29.4258 22.556C29.8178 23.494 30.2378 24.726 30.3498 25.538L31.4138 25.132C31.2458 24.334 30.8538 23.13 30.4058 22.206L29.4258 22.556ZM31.1758 22.164C31.9318 23.242 32.7298 24.712 33.0378 25.678L34.1298 25.118C33.7938 24.152 32.9958 22.738 32.1978 21.674L31.1758 22.164ZM30.8258 18.286L29.7198 18.65C30.4758 20.19 31.8338 21.59 33.3178 22.276C33.5138 21.954 33.9058 21.478 34.1718 21.24C32.7858 20.694 31.4838 19.532 30.8258 18.286ZM24.4838 17.796V19.028H33.9198V17.796H24.4838ZM25.1418 14.94V16.172H33.4298V14.94H25.1418ZM27.8858 20.498V25.79C27.8858 25.944 27.8438 26 27.6618 26C27.4798 26 26.8918 26.014 26.2758 25.986C26.4298 26.336 26.5838 26.826 26.6258 27.176C27.5498 27.176 28.1658 27.162 28.5858 26.966C29.0058 26.77 29.1178 26.434 29.1178 25.804V20.498H27.8858ZM21.6278 15.248C22.4398 15.64 23.4198 16.298 23.8818 16.774L24.6798 15.71C24.1758 15.234 23.1818 14.66 22.3838 14.296L21.6278 15.248ZM20.9698 19.056C21.7958 19.406 22.8038 20.008 23.2798 20.456L24.0498 19.392C23.5458 18.944 22.5238 18.398 21.6978 18.076L20.9698 19.056ZM21.2638 26.28L22.4678 27.022C23.0838 25.72 23.7558 24.096 24.2878 22.668L23.2238 21.926C22.6358 23.494 21.8378 25.23 21.2638 26.28ZM28.2358 15.374C27.7878 17.894 26.5838 20.316 24.0498 21.534C24.3018 21.772 24.6938 22.248 24.8618 22.542C27.6198 21.156 28.9638 18.468 29.6078 15.57L28.2358 15.374ZM43.0198 24.656V25.93H46.7298V24.656H43.0198ZM35.2218 16.774V18.076H40.4998V16.774H35.2218ZM42.4318 15.864V26.938H43.7058V17.152H46.0158V26.84H47.3458V15.864H42.4318ZM40.1638 16.774V17.082C40.0518 22.934 39.9398 24.978 39.6318 25.398C39.5058 25.594 39.3658 25.65 39.1558 25.636C38.9038 25.636 38.3438 25.636 37.7278 25.58C37.9518 25.958 38.0918 26.532 38.1058 26.91C38.7498 26.952 39.3798 26.952 39.7858 26.882C40.2198 26.812 40.4998 26.672 40.7798 26.266C41.2278 25.636 41.3258 23.536 41.4378 17.418C41.4378 17.236 41.4378 16.774 41.4378 16.774H40.1638ZM37.0698 14.38C37.0558 19.378 37.1118 23.788 34.8438 26.252C35.1798 26.448 35.6278 26.882 35.8378 27.19C38.2878 24.474 38.3578 19.7 38.3718 14.38H37.0698ZM49.5438 14.912V16.158H61.3738V14.912H49.5438ZM50.4678 21.898V23.13H60.5898V21.898H50.4678ZM49.2078 25.44V26.686H61.8218V25.44H49.2078ZM54.7798 20.274V26.28H56.1518V20.274H54.7798ZM56.7398 17.222C58.0138 18.216 59.5678 19.672 60.2538 20.624L61.4018 19.812C60.6318 18.846 59.0358 17.46 57.7898 16.522L56.7398 17.222ZM50.5798 20.204C50.5798 19.924 51.5458 19.518 51.5458 19.518V19.504C52.6938 18.58 53.9818 17.18 55.0878 15.668L53.6318 15.262C52.7638 16.62 51.5318 17.908 51.1258 18.272C50.7478 18.622 50.4398 18.846 50.1458 18.916C50.2858 19.266 50.5098 19.91 50.5798 20.204ZM50.5798 20.204C51.1678 19.994 52.0218 19.98 59.8198 19.63C59.7498 19.364 59.6378 18.86 59.6098 18.51L51.4478 18.79L50.5658 19.238L50.5798 20.204ZM63.2638 23.788V24.978H75.7798V23.788H63.2638ZM68.7798 22.066V27.162H70.1098V22.066H68.7798ZM66.0638 20.568H72.8958V21.618H66.0638V20.568ZM66.0638 18.58H72.8958V19.602H66.0638V18.58ZM64.7898 17.544V22.64H74.2258V17.544H64.7898ZM66.4278 14.184V17.292H67.7158V14.184H66.4278ZM71.2578 14.184V17.292H72.5458V14.184H71.2578ZM63.3338 15.122V16.298H75.7098V15.122H63.3338ZM79.0838 15.374V27.204H80.3158V15.374H79.0838ZM77.1518 18.188V19.42H82.0518V18.188H77.1518ZM79.0978 18.664C78.6778 20.288 77.7118 22.388 76.8018 23.508C77.0118 23.844 77.3338 24.404 77.4738 24.796C78.4678 23.466 79.4338 20.974 79.9238 19L79.0978 18.664ZM81.0998 14.366C80.1058 14.786 78.5098 15.136 77.0958 15.36C77.2498 15.654 77.4178 16.102 77.4598 16.396C78.9158 16.228 80.6518 15.906 81.8978 15.444L81.0998 14.366ZM80.2878 19.686L79.7138 20.204C80.0778 20.708 80.9178 21.968 81.1838 22.57L81.9678 21.492C81.7158 21.17 80.5958 19.952 80.2878 19.686ZM81.8558 15.612V16.732H89.9198V15.612H81.8558ZM83.9558 18.314H87.6658V19.392H83.9558V18.314ZM82.7938 17.39V20.316H88.8978V17.39H82.7938ZM81.9398 20.988V27.176H83.1298V22.08H88.9958V20.988H81.9398ZM88.5478 20.988V26C88.5478 26.126 88.4918 26.168 88.3658 26.168C88.2398 26.168 87.8198 26.168 87.3858 26.154C87.5258 26.448 87.6798 26.882 87.7218 27.19C88.4638 27.19 88.9678 27.19 89.3178 27.008C89.6678 26.84 89.7518 26.546 89.7518 26V20.988H88.5478ZM84.6978 14.45C84.9778 15.038 85.2998 15.822 85.4258 16.312L86.7418 15.92C86.6018 15.444 86.2658 14.674 85.9578 14.114L84.6978 14.45ZM84.8938 23.676H86.7558V24.796H84.8938V23.676ZM83.9278 22.766V25.706H87.7638V22.766H83.9278ZM91.9778 16.046V24.208H93.2938V17.32H101.722V24.138H103.094V16.046H91.9778ZM92.8318 19.084V20.316H102.408V19.084H92.8318ZM92.8318 22.164V23.438H102.422V22.164H92.8318ZM96.7658 14.184V27.176H98.1518V14.184H96.7658ZM105.838 15.262C106.58 15.934 107.532 16.872 107.98 17.474L108.876 16.536C108.414 15.962 107.434 15.08 106.692 14.45L105.838 15.262ZM106.958 26.98C107.168 26.672 107.588 26.336 110.024 24.432C109.884 24.18 109.674 23.662 109.59 23.312L106.986 25.272L106.678 25.748L106.958 26.98ZM105.04 18.552V19.826H107.77V18.552H105.04ZM106.958 26.98C106.958 26.504 108.246 25.594 108.246 25.594V18.552H106.972V24.6C106.972 25.23 106.566 25.678 106.286 25.86C106.51 26.112 106.846 26.672 106.958 26.98ZM111.354 22.262V23.158H116.002V22.262H111.354ZM109.814 15.22V16.2H117.556V15.22H109.814ZM110.178 16.956V17.88H117.136V16.956H110.178ZM109.394 18.678V19.658H117.99V18.678H109.394ZM111.326 24.152V25.062H116.002V24.152H111.326ZM110.374 20.358V27.176H111.606V21.352H116.016V20.358H110.374ZM115.68 20.358V25.804C115.68 25.972 115.61 26.028 115.428 26.028C115.232 26.042 114.56 26.042 113.916 26.014C114.07 26.336 114.238 26.826 114.28 27.148C115.274 27.162 115.932 27.148 116.366 26.952C116.814 26.77 116.94 26.434 116.94 25.818V20.358H115.68ZM112.978 14.184V19H114.294V14.184H112.978ZM124.78 17.222V27.162H126.152V17.222H124.78ZM121.798 19.98H129.274V21.254H121.798V19.98ZM121.798 17.698H129.274V18.958H121.798V17.698ZM120.51 16.592V22.36H130.632V16.592H120.51ZM119.222 23.508V24.74H131.822V23.508H119.222ZM121.686 14.772C122.232 15.416 122.834 16.326 123.1 16.886L124.304 16.312C124.024 15.724 123.366 14.87 122.82 14.24L121.686 14.772ZM128.266 14.268C127.93 15.052 127.3 16.13 126.782 16.816L127.944 17.236C128.462 16.606 129.148 15.626 129.722 14.716L128.266 14.268ZM142.042 20.68C142.042 23.536 143.204 25.762 144.814 27.372L145.864 26.868C144.338 25.272 143.302 23.27 143.302 20.68C143.302 18.104 144.338 16.102 145.864 14.506L144.814 14.002C143.204 15.612 142.042 17.838 142.042 20.68ZM150.246 26.196C152.15 26.196 153.704 25.104 153.704 23.242C153.704 21.842 152.766 20.96 151.576 20.652V20.582C152.668 20.176 153.354 19.35 153.354 18.16C153.354 16.466 152.052 15.514 150.204 15.514C149.014 15.514 148.062 16.018 147.236 16.746L148.09 17.768C148.678 17.18 149.35 16.802 150.134 16.802C151.128 16.802 151.716 17.376 151.716 18.286C151.716 19.322 151.044 20.078 149.028 20.078V21.282C151.338 21.282 152.066 22.01 152.066 23.158C152.066 24.222 151.268 24.866 150.12 24.866C149.042 24.866 148.286 24.348 147.684 23.732L146.886 24.768C147.586 25.552 148.636 26.196 150.246 26.196ZM158.944 20.68C158.944 17.838 157.782 15.612 156.172 14.002L155.122 14.506C156.648 16.102 157.684 18.104 157.684 20.68C157.684 23.27 156.648 25.272 155.122 26.868L156.172 27.372C157.782 25.762 158.944 23.536 158.944 20.68Z" fill="white"/>
</svg>
