<svg width="161" height="40" viewBox="0 0 161 40" fill="none" xmlns="http://www.w3.org/2000/svg">
<rect width="160" height="40" transform="translate(0.5)" fill="#409EFF"/>
<path d="M20.9978 22.64V23.872H34.0178V22.64H20.9978ZM21.5438 14.996V16.228H33.4858V14.996H21.5438ZM23.5318 20.022V21.17H31.5398V20.022H23.5318ZM31.0498 17.404V25.65C31.0498 25.888 30.9658 25.958 30.6998 25.958C30.4618 25.972 29.5518 25.986 28.6978 25.944C28.8938 26.28 29.0898 26.854 29.1738 27.204C30.3638 27.204 31.1758 27.19 31.6798 26.98C32.1978 26.77 32.3658 26.392 32.3658 25.664V17.404H31.0498ZM22.6358 17.404V27.204H23.9378V18.608H31.5818V17.404H22.6358ZM26.7798 15.374V23.088H28.1098V15.374H26.7798ZM40.7518 14.184C40.3178 16.452 39.5058 18.65 38.3858 20.008C38.7358 20.162 39.4078 20.54 39.6878 20.736C40.7658 19.252 41.6478 16.9 42.1798 14.45L40.7518 14.184ZM40.8078 16.48L40.1918 17.796H46.6598V16.48H40.8078ZM46.2398 16.48V16.802C46.0438 17.936 45.4978 19.462 45.0778 20.344C45.3858 20.47 45.9178 20.736 46.1978 20.89C46.7018 19.882 47.3178 18.384 47.6678 16.956L46.7018 16.41L46.4358 16.48H46.2398ZM35.1938 16.102C36.1598 16.648 37.3778 17.502 37.9518 18.09L38.7918 17.012C38.1898 16.424 36.9438 15.64 35.9918 15.136L35.1938 16.102ZM34.9978 24.922L36.2298 25.832C37.0978 24.53 38.0918 22.934 38.9038 21.478L37.8678 20.596C36.9578 22.164 35.8098 23.9 34.9978 24.922ZM43.5938 19.63L42.4458 19.812C43.1318 23.34 44.4058 25.902 47.1638 27.092C47.3458 26.728 47.7518 26.168 48.0458 25.916C45.4698 24.964 44.1678 22.64 43.5938 19.63ZM42.3478 18.37V19.238C42.3478 21.17 42.0118 24.208 37.8678 26.224C38.2038 26.462 38.6798 26.952 38.8898 27.274C43.3418 25.006 43.7618 21.52 43.7618 19.266V18.37H42.3478ZM55.4378 17.432H59.7218V18.356H55.4378V17.432ZM55.4378 15.612H59.7218V16.536H55.4378V15.612ZM54.2198 14.632V19.336H60.9958V14.632H54.2198ZM53.5618 20.19V21.282H61.7378V20.19H53.5618ZM56.9498 20.764V25.944L58.1958 26.476V20.764H56.9498ZM55.3258 23.298L54.5278 23.578C55.3958 26.476 57.0058 26.98 59.3298 26.98H61.7798C61.8218 26.644 61.9898 26.084 62.1578 25.804C61.6118 25.832 59.7778 25.832 59.3718 25.832C57.5238 25.832 56.0398 25.51 55.3258 23.298ZM57.8318 22.738V23.802H61.0238V22.738H57.8318ZM54.4438 21.842C54.2338 23.844 53.6178 25.412 52.3998 26.378C52.6798 26.56 53.1838 26.966 53.3798 27.176C54.6398 26.042 55.3538 24.278 55.6478 21.982L54.4438 21.842ZM48.8718 21.478L49.1798 22.766C50.3978 22.402 51.9518 21.912 53.4078 21.45L53.2258 20.246C51.6298 20.722 49.9778 21.212 48.8718 21.478ZM49.0118 16.942V18.16H53.3658V16.942H49.0118ZM50.6498 14.198V25.58C50.6498 25.776 50.5938 25.832 50.4258 25.832C50.2578 25.846 49.7398 25.846 49.1658 25.832C49.3338 26.182 49.4878 26.728 49.5298 27.05C50.4118 27.05 50.9998 27.008 51.3638 26.798C51.7558 26.602 51.8818 26.252 51.8818 25.594V14.198H50.6498ZM71.5098 20.05C70.2218 23.438 67.2958 25.174 63.1378 26.014C63.3898 26.294 63.7958 26.896 63.9498 27.204C68.1778 26.154 71.2858 24.236 72.8398 20.428L71.5098 20.05ZM66.8198 17.642C66.0078 18.692 64.6218 19.77 63.3618 20.428C63.6698 20.652 64.1738 21.142 64.4118 21.408C65.6578 20.624 67.1418 19.364 68.1218 18.146L66.8198 17.642ZM67.5618 20.12L66.3718 20.484C67.8978 24.11 70.6698 26.266 75.0938 27.106C75.2758 26.742 75.6258 26.182 75.9198 25.902C71.6358 25.23 68.8358 23.256 67.5618 20.12ZM63.3898 16.06V17.348H75.5978V16.06H63.3898ZM71.0198 18.356C72.2938 19.252 73.8618 20.582 74.5618 21.464L75.6818 20.596C74.9118 19.714 73.3018 18.454 72.0558 17.6L71.0198 18.356ZM68.2478 14.478C68.6258 15.08 69.0318 15.892 69.2138 16.41L70.5298 15.906C70.3478 15.402 69.8858 14.618 69.5078 14.044L68.2478 14.478ZM77.5858 15.612V18.048H78.9158V16.886H88.0298V18.048H89.4018V15.612H77.5858ZM82.4158 14.436C82.6678 14.926 82.9478 15.598 83.0878 16.018L84.5158 15.584C84.3758 15.178 84.0398 14.534 83.7878 14.058L82.4158 14.436ZM78.4398 18.58V25.398H79.7138V19.728H87.2318V25.328H88.5618V18.58H78.4398ZM79.2518 21.044V22.164H87.8898V21.044H79.2518ZM79.2518 23.508V24.67H87.9598V23.508H79.2518ZM82.7938 17.292V27.162H84.1798V17.292H82.7938ZM100.154 24.376C101.148 25.174 102.45 26.322 103.066 27.05L104.074 26.182C103.43 25.468 102.1 24.362 101.106 23.606L100.154 24.376ZM101.456 18.23C100.49 20.12 98.3898 22.01 95.9818 23.06C96.2198 23.312 96.5698 23.774 96.7238 24.068C99.2858 22.878 101.456 20.862 102.716 18.65L101.456 18.23ZM102.408 20.806C101.218 23.116 98.5578 25.09 95.2818 26.084C95.5198 26.364 95.8978 26.882 96.0518 27.19C99.4958 26.056 102.226 23.942 103.766 21.296L102.408 20.806ZM96.0798 15.99V17.208H103.948V15.99H96.0798ZM96.5558 20.988C96.5558 20.638 98.0958 20.19 98.0958 20.19C98.7258 19.322 99.7758 17.586 100.35 16.634H98.9498C98.5718 17.278 97.5358 18.972 97.2138 19.322C96.9758 19.588 96.5278 19.686 96.2198 19.756C96.3318 20.036 96.5138 20.666 96.5558 20.988ZM96.5558 20.988C96.8918 20.848 97.4238 20.764 100.896 20.54C100.952 20.274 101.12 19.77 101.274 19.448L97.2138 19.658L96.5418 20.036L96.5558 20.988ZM98.9778 14.478C99.2998 15.094 99.5938 15.92 99.6918 16.452L101.008 16.004C100.91 15.486 100.546 14.688 100.21 14.1L98.9778 14.478ZM91.2218 16.858V18.076H95.7998V16.858H91.2218ZM93.0278 14.184V27.176H94.2878V14.184H93.0278ZM93.0558 17.712C92.6778 19.602 91.8098 21.94 90.8858 23.158C91.1098 23.494 91.4178 24.096 91.5438 24.474C92.5238 23.032 93.4058 20.274 93.8118 17.992L93.0558 17.712ZM94.2178 18.51L93.6158 18.986C93.9798 19.616 94.8338 21.254 95.1418 22.01L95.9258 21.1C95.6738 20.666 94.5398 18.902 94.2178 18.51ZM114.042 20.68C114.042 23.536 115.204 25.762 116.814 27.372L117.864 26.868C116.338 25.272 115.302 23.27 115.302 20.68C115.302 18.104 116.338 16.102 117.864 14.506L116.814 14.002C115.204 15.612 114.042 17.838 114.042 20.68ZM122.246 26.196C124.15 26.196 125.704 25.104 125.704 23.242C125.704 21.842 124.766 20.96 123.576 20.652V20.582C124.668 20.176 125.354 19.35 125.354 18.16C125.354 16.466 124.052 15.514 122.204 15.514C121.014 15.514 120.062 16.018 119.236 16.746L120.09 17.768C120.678 17.18 121.35 16.802 122.134 16.802C123.128 16.802 123.716 17.376 123.716 18.286C123.716 19.322 123.044 20.078 121.028 20.078V21.282C123.338 21.282 124.066 22.01 124.066 23.158C124.066 24.222 123.268 24.866 122.12 24.866C121.042 24.866 120.286 24.348 119.684 23.732L118.886 24.768C119.586 25.552 120.636 26.196 122.246 26.196ZM130.944 20.68C130.944 17.838 129.782 15.612 128.172 14.002L127.122 14.506C128.648 16.102 129.684 18.104 129.684 20.68C129.684 23.27 128.648 25.272 127.122 26.868L128.172 27.372C129.782 25.762 130.944 23.536 130.944 20.68Z" fill="white"/>
</svg>
