<svg width="97" height="36" viewBox="0 0 97 36" fill="none" xmlns="http://www.w3.org/2000/svg">
<rect x="0.5" width="96" height="36" rx="4" fill="#409EFF"/>
<path d="M27.43 15.432H31.714V16.356H27.43V15.432ZM27.43 13.612H31.714V14.536H27.43V13.612ZM26.212 12.632V17.336H32.988V12.632H26.212ZM25.554 18.19V19.282H33.73V18.19H25.554ZM28.942 18.764V23.944L30.188 24.476V18.764H28.942ZM27.318 21.298L26.52 21.578C27.388 24.476 28.998 24.98 31.322 24.98H33.772C33.814 24.644 33.982 24.084 34.15 23.804C33.604 23.832 31.77 23.832 31.364 23.832C29.516 23.832 28.032 23.51 27.318 21.298ZM29.824 20.738V21.802H33.016V20.738H29.824ZM26.436 19.842C26.226 21.844 25.61 23.412 24.392 24.378C24.672 24.56 25.176 24.966 25.372 25.176C26.632 24.042 27.346 22.278 27.64 19.982L26.436 19.842ZM20.864 19.478L21.172 20.766C22.39 20.402 23.944 19.912 25.4 19.45L25.218 18.246C23.622 18.722 21.97 19.212 20.864 19.478ZM21.004 14.942V16.16H25.358V14.942H21.004ZM22.642 12.198V23.58C22.642 23.776 22.586 23.832 22.418 23.832C22.25 23.846 21.732 23.846 21.158 23.832C21.326 24.182 21.48 24.728 21.522 25.05C22.404 25.05 22.992 25.008 23.356 24.798C23.748 24.602 23.874 24.252 23.874 23.594V12.198H22.642ZM43.502 18.05C42.214 21.438 39.288 23.174 35.13 24.014C35.382 24.294 35.788 24.896 35.942 25.204C40.17 24.154 43.278 22.236 44.832 18.428L43.502 18.05ZM38.812 15.642C38 16.692 36.614 17.77 35.354 18.428C35.662 18.652 36.166 19.142 36.404 19.408C37.65 18.624 39.134 17.364 40.114 16.146L38.812 15.642ZM39.554 18.12L38.364 18.484C39.89 22.11 42.662 24.266 47.086 25.106C47.268 24.742 47.618 24.182 47.912 23.902C43.628 23.23 40.828 21.256 39.554 18.12ZM35.382 14.06V15.348H47.59V14.06H35.382ZM43.012 16.356C44.286 17.252 45.854 18.582 46.554 19.464L47.674 18.596C46.904 17.714 45.294 16.454 44.048 15.6L43.012 16.356ZM40.24 12.478C40.618 13.08 41.024 13.892 41.206 14.41L42.522 13.906C42.34 13.402 41.878 12.618 41.5 12.044L40.24 12.478ZM49.578 13.612V16.048H50.908V14.886H60.022V16.048H61.394V13.612H49.578ZM54.408 12.436C54.66 12.926 54.94 13.598 55.08 14.018L56.508 13.584C56.368 13.178 56.032 12.534 55.78 12.058L54.408 12.436ZM50.432 16.58V23.398H51.706V17.728H59.224V23.328H60.554V16.58H50.432ZM51.244 19.044V20.164H59.882V19.044H51.244ZM51.244 21.508V22.67H59.952V21.508H51.244ZM54.786 15.292V25.162H56.172V15.292H54.786ZM72.146 22.376C73.14 23.174 74.442 24.322 75.058 25.05L76.066 24.182C75.422 23.468 74.092 22.362 73.098 21.606L72.146 22.376ZM73.448 16.23C72.482 18.12 70.382 20.01 67.974 21.06C68.212 21.312 68.562 21.774 68.716 22.068C71.278 20.878 73.448 18.862 74.708 16.65L73.448 16.23ZM74.4 18.806C73.21 21.116 70.55 23.09 67.274 24.084C67.512 24.364 67.89 24.882 68.044 25.19C71.488 24.056 74.218 21.942 75.758 19.296L74.4 18.806ZM68.072 13.99V15.208H75.94V13.99H68.072ZM68.548 18.988C68.548 18.638 70.088 18.19 70.088 18.19C70.718 17.322 71.768 15.586 72.342 14.634H70.942C70.564 15.278 69.528 16.972 69.206 17.322C68.968 17.588 68.52 17.686 68.212 17.756C68.324 18.036 68.506 18.666 68.548 18.988ZM68.548 18.988C68.884 18.848 69.416 18.764 72.888 18.54C72.944 18.274 73.112 17.77 73.266 17.448L69.206 17.658L68.534 18.036L68.548 18.988ZM70.97 12.478C71.292 13.094 71.586 13.92 71.684 14.452L73 14.004C72.902 13.486 72.538 12.688 72.202 12.1L70.97 12.478ZM63.214 14.858V16.076H67.792V14.858H63.214ZM65.02 12.184V25.176H66.28V12.184H65.02ZM65.048 15.712C64.67 17.602 63.802 19.94 62.878 21.158C63.102 21.494 63.41 22.096 63.536 22.474C64.516 21.032 65.398 18.274 65.804 15.992L65.048 15.712ZM66.21 16.51L65.608 16.986C65.972 17.616 66.826 19.254 67.134 20.01L67.918 19.1C67.666 18.666 66.532 16.902 66.21 16.51Z" fill="white"/>
</svg>
