<svg width="97" height="37" viewBox="0 0 97 37" fill="none" xmlns="http://www.w3.org/2000/svg">
<rect x="0.5" y="0.5" width="96" height="36" rx="4" fill="#409EFF"/>
<path d="M23.734 16.786V18.004H31.196V16.786H23.734ZM21.256 19.376V20.622H33.73V19.376H21.256ZM24.924 20.23C24.784 22.792 24.406 23.982 21.046 24.584C21.298 24.85 21.648 25.368 21.746 25.69C25.512 24.92 26.114 23.31 26.268 20.23H24.924ZM28.466 20.104V23.772C28.466 25.074 28.816 25.48 30.258 25.48C30.552 25.48 31.938 25.48 32.246 25.48C33.45 25.48 33.8 24.962 33.954 22.988C33.59 22.89 33.03 22.68 32.75 22.47C32.694 24.024 32.61 24.262 32.12 24.262C31.798 24.262 30.678 24.262 30.426 24.262C29.88 24.262 29.796 24.192 29.796 23.772V20.104H28.466ZM21.564 14.224V17.5H22.894V15.498H32.008V17.5H33.38V14.224H21.564ZM26.282 12.936C26.632 13.58 26.996 14.448 27.136 14.98L28.564 14.546C28.396 14 28.004 13.16 27.626 12.544L26.282 12.936ZM37.342 14.588V15.764H41.108V14.588H37.342ZM41.724 12.782V17.556C41.724 18.914 42.116 19.306 43.642 19.306C43.95 19.306 45.602 19.306 45.938 19.306C47.212 19.306 47.576 18.788 47.73 16.926C47.366 16.842 46.834 16.632 46.54 16.422C46.47 17.878 46.372 18.13 45.826 18.13C45.462 18.13 44.09 18.13 43.796 18.13C43.18 18.13 43.068 18.046 43.068 17.556V12.782H41.724ZM46.414 13.65C45.42 14.238 43.782 14.91 42.326 15.372C42.466 15.638 42.662 16.086 42.732 16.366C44.272 15.932 46.036 15.33 47.352 14.7L46.414 13.65ZM40.786 19.418V25.662H42.116V19.418H40.786ZM35.172 21.126V22.33H47.842V21.126H35.172ZM36.32 19.726C36.67 19.516 37.258 19.39 41.262 18.55C41.234 18.27 41.206 17.738 41.234 17.374L36.866 18.214L36.236 18.648L36.32 19.726ZM36.32 19.726C36.32 19.236 37.734 18.368 37.734 18.368V12.824H36.376V17.416C36.376 18.046 35.97 18.424 35.69 18.606C35.914 18.858 36.222 19.404 36.32 19.726ZM49.578 14.112V16.548H50.908V15.386H60.022V16.548H61.394V14.112H49.578ZM54.408 12.936C54.66 13.426 54.94 14.098 55.08 14.518L56.508 14.084C56.368 13.678 56.032 13.034 55.78 12.558L54.408 12.936ZM50.432 17.08V23.898H51.706V18.228H59.224V23.828H60.554V17.08H50.432ZM51.244 19.544V20.664H59.882V19.544H51.244ZM51.244 22.008V23.17H59.952V22.008H51.244ZM54.786 15.792V25.662H56.172V15.792H54.786ZM72.146 22.876C73.14 23.674 74.442 24.822 75.058 25.55L76.066 24.682C75.422 23.968 74.092 22.862 73.098 22.106L72.146 22.876ZM73.448 16.73C72.482 18.62 70.382 20.51 67.974 21.56C68.212 21.812 68.562 22.274 68.716 22.568C71.278 21.378 73.448 19.362 74.708 17.15L73.448 16.73ZM74.4 19.306C73.21 21.616 70.55 23.59 67.274 24.584C67.512 24.864 67.89 25.382 68.044 25.69C71.488 24.556 74.218 22.442 75.758 19.796L74.4 19.306ZM68.072 14.49V15.708H75.94V14.49H68.072ZM68.548 19.488C68.548 19.138 70.088 18.69 70.088 18.69C70.718 17.822 71.768 16.086 72.342 15.134H70.942C70.564 15.778 69.528 17.472 69.206 17.822C68.968 18.088 68.52 18.186 68.212 18.256C68.324 18.536 68.506 19.166 68.548 19.488ZM68.548 19.488C68.884 19.348 69.416 19.264 72.888 19.04C72.944 18.774 73.112 18.27 73.266 17.948L69.206 18.158L68.534 18.536L68.548 19.488ZM70.97 12.978C71.292 13.594 71.586 14.42 71.684 14.952L73 14.504C72.902 13.986 72.538 13.188 72.202 12.6L70.97 12.978ZM63.214 15.358V16.576H67.792V15.358H63.214ZM65.02 12.684V25.676H66.28V12.684H65.02ZM65.048 16.212C64.67 18.102 63.802 20.44 62.878 21.658C63.102 21.994 63.41 22.596 63.536 22.974C64.516 21.532 65.398 18.774 65.804 16.492L65.048 16.212ZM66.21 17.01L65.608 17.486C65.972 18.116 66.826 19.754 67.134 20.51L67.918 19.6C67.666 19.166 66.532 17.402 66.21 17.01Z" fill="white"/>
</svg>
