<svg width="1500" height="336" viewBox="0 0 1500 336" fill="none" xmlns="http://www.w3.org/2000/svg">
<rect width="1500" height="336" fill="white"/>
<g clip-path="url(#clip0_30290_75174)">
<rect width="100" height="48" fill="#F2F2F2"/>
<rect y="47" width="100" height="1" fill="#E4E7ED"/>
<g clip-path="url(#clip1_30290_75174)">
<path d="M14.088 21.782V22.846H21.06V21.782H14.088ZM13.346 25.324V26.458H22.348V25.324H13.346ZM17.476 25.772V29.734C17.476 29.93 17.406 29.972 17.126 29.986C16.874 30 15.894 30 14.942 29.972C15.124 30.322 15.334 30.826 15.39 31.19C16.636 31.19 17.504 31.204 18.064 31.008C18.638 30.826 18.806 30.476 18.806 29.762V25.772H17.476ZM21.942 25.324V25.506C21.466 26.36 20.766 27.382 20.192 28.026L21.256 28.53C21.928 27.802 22.67 26.668 23.328 25.646L22.376 25.254L22.166 25.324H21.942ZM20.654 21.782V22.034C20.052 22.762 18.778 23.784 17.672 24.33C17.882 24.512 18.218 24.862 18.386 25.086C19.73 24.442 21.158 23.378 22.138 22.37L21.284 21.712L20.99 21.782H20.654ZM12.254 19.696V20.928H23.342V19.696H12.254ZM11.61 19.696V23.56C11.61 25.604 11.512 28.488 10.35 30.49C10.658 30.63 11.232 31.008 11.47 31.232C12.702 29.076 12.898 25.786 12.898 23.56V19.696H11.61ZM15.18 24.078C16.496 24.652 18.246 25.52 19.114 26.08L19.954 25.212C19.03 24.666 17.252 23.84 15.978 23.322L15.18 24.078ZM16.51 18.464C16.79 19.052 17.14 19.85 17.294 20.326L18.666 19.892C18.484 19.43 18.12 18.66 17.812 18.1L16.51 18.464ZM27.822 19.892H34.08V21.53H27.822V19.892ZM26.506 18.73V22.692H35.48V18.73H26.506ZM24.812 23.784V24.988H37.118V23.784H24.812ZM27.486 26.332V27.536H34.5V26.332H27.486ZM34.094 26.332V26.514C33.828 28.558 33.534 29.524 33.142 29.818C32.974 29.93 32.792 29.944 32.47 29.944C32.064 29.944 31.042 29.93 30.076 29.846C30.314 30.196 30.51 30.728 30.538 31.106C31.504 31.162 32.428 31.162 32.932 31.134C33.52 31.106 33.912 31.022 34.29 30.686C34.794 30.224 35.144 29.174 35.452 26.906C35.48 26.724 35.522 26.332 35.522 26.332H34.094ZM27.808 24.274C27.5 25.338 27.052 26.668 26.674 27.536H28.2C28.494 26.752 28.928 25.506 29.222 24.47L27.808 24.274Z" fill="#909399"/>
</g>
<rect width="100" height="48" transform="translate(0 48)" fill="white"/>
<rect y="95" width="100" height="1" fill="#E4E7ED"/>
<g clip-path="url(#clip2_30290_75174)">
<path d="M11.19 78H17.084V76.67H15.068V67.696H13.85C13.248 68.06 12.576 68.312 11.596 68.48V69.502H13.458V76.67H11.19V78Z" fill="#909399"/>
</g>
<rect y="143" width="100" height="1" fill="#E4E7ED"/>
<rect y="191" width="100" height="1" fill="#E4E7ED"/>
<rect y="239" width="100" height="1" fill="#E4E7ED"/>
<rect y="287" width="100" height="1" fill="#E4E7ED"/>
</g>
<rect x="0.5" y="0.5" width="99" height="335" stroke="#E4E7ED"/>
<g clip-path="url(#clip3_30290_75174)">
<rect width="100" height="48" transform="translate(100)" fill="#F2F2F2"/>
<rect x="100" y="47" width="100" height="1" fill="#E4E7ED"/>
<g clip-path="url(#clip4_30290_75174)">
<path d="M116.202 20.466V21.628H123.356V20.466H116.202ZM118.12 22.874V24.036H121.354V22.874H118.12ZM117.322 22.874V25.87C117.322 27.326 117.168 29.202 115.838 30.532C116.146 30.672 116.664 31.036 116.874 31.246C118.302 29.804 118.554 27.564 118.554 25.884V22.874H117.322ZM120.654 22.874V29.258C120.654 30.252 120.724 30.518 120.934 30.742C121.158 30.952 121.466 31.036 121.76 31.036C121.928 31.036 122.222 31.036 122.404 31.036C122.67 31.036 122.936 30.994 123.118 30.854C123.3 30.714 123.412 30.504 123.496 30.21C123.552 29.902 123.608 29.09 123.622 28.432C123.328 28.334 122.992 28.152 122.768 27.956C122.768 28.67 122.754 29.216 122.726 29.468C122.698 29.692 122.656 29.818 122.614 29.874C122.572 29.916 122.474 29.93 122.39 29.93C122.306 29.93 122.18 29.93 122.124 29.93C122.04 29.93 121.984 29.916 121.942 29.874C121.9 29.818 121.886 29.622 121.886 29.286V22.874H120.654ZM111.96 19.85V20.914H115.026V19.85H111.96ZM114.732 19.85V29.748C114.732 29.916 114.676 29.972 114.508 29.972C114.34 29.972 113.85 29.986 113.304 29.958C113.458 30.266 113.626 30.784 113.668 31.106C114.508 31.106 115.04 31.078 115.418 30.868C115.782 30.672 115.894 30.336 115.894 29.762V19.85H114.732ZM111.442 19.85V25.142C111.442 26.892 111.358 29.118 110.406 30.658C110.686 30.77 111.204 31.092 111.414 31.302C112.45 29.65 112.604 27.06 112.604 25.128V19.85H111.442ZM112.758 21.754C113.052 22.384 113.388 23.21 113.528 23.742L114.382 23.378C114.228 22.86 113.878 22.062 113.584 21.446L112.758 21.754ZM113.108 18.114C113.01 18.73 112.8 19.612 112.618 20.2L113.654 20.452C113.878 19.92 114.172 19.108 114.438 18.352L113.108 18.114ZM110.49 24.218V25.296H115.586V24.218H110.49ZM112.73 26.066C113.08 26.738 113.486 27.62 113.654 28.194L114.522 27.802C114.312 27.256 113.892 26.388 113.528 25.73L112.73 26.066ZM118.33 18.408C118.652 19.066 119.044 19.976 119.212 20.55L120.514 20.13C120.318 19.57 119.926 18.702 119.576 18.044L118.33 18.408ZM125.106 27.536C125.106 27.284 125.96 26.892 125.96 26.892V26.864C127.304 25.506 128.676 23.63 129.754 21.754L128.676 21.082C127.71 22.986 126.254 24.932 125.778 25.436C125.344 25.954 125.022 26.29 124.686 26.346C124.84 26.682 125.036 27.284 125.106 27.536ZM125.106 27.536C125.428 27.354 125.946 27.2 129.418 26.514C129.39 26.248 129.404 25.744 129.432 25.408L125.624 26.066L125.036 26.486L125.106 27.536ZM125.008 24.148C125.008 23.896 125.764 23.49 125.764 23.49V23.448C126.744 22.23 127.766 20.48 128.48 18.814L127.248 18.226C126.702 19.864 125.708 21.614 125.4 22.062C125.092 22.524 124.854 22.832 124.588 22.902C124.728 23.252 124.952 23.882 125.008 24.148ZM125.008 24.148C125.26 24.022 125.694 23.924 128.032 23.644C128.032 23.392 128.074 22.916 128.144 22.58L125.568 22.804L124.98 23.196L125.008 24.148ZM124.714 29.146L124.98 30.406C126.31 29.986 128.004 29.44 129.614 28.922L129.418 27.816C127.682 28.334 125.876 28.852 124.714 29.146ZM130.048 21.488L130.258 22.692L136.894 21.656L136.67 20.494L130.048 21.488ZM129.754 24.512L129.978 25.702L137.272 24.33L137.048 23.168L129.754 24.512ZM132.092 18.156C132.134 24.764 133.072 31.162 135.9 31.162C136.936 31.162 137.314 30.7 137.538 29.062C137.244 28.922 136.852 28.642 136.586 28.348C136.516 29.538 136.39 29.874 136.054 29.874C134.43 29.874 133.338 24.302 133.408 18.156H132.092ZM133.87 19.094C134.514 19.458 135.34 20.018 135.774 20.396L136.558 19.598C136.124 19.234 135.27 18.702 134.64 18.394L133.87 19.094ZM136.264 25.114C134.864 27.326 132.204 28.992 129.292 29.86C129.6 30.168 129.936 30.63 130.104 30.966C133.128 29.902 135.802 28.082 137.37 25.618L136.264 25.114Z" fill="#909399"/>
</g>
<rect width="100" height="48" transform="translate(100 48)" fill="white"/>
<rect x="100" y="95" width="100" height="1" fill="#E4E7ED"/>
<g clip-path="url(#clip5_30290_75174)">
<path d="M115.656 63.886C114.9 66.728 113.64 69.472 112.03 71.194C112.31 71.376 112.814 71.768 113.01 71.978C114.634 70.102 115.964 67.19 116.832 64.124L115.656 63.886ZM112.002 64.866C113.542 66.966 115.236 69.808 115.908 71.572L117.042 70.956C116.328 69.178 114.564 66.42 113.01 64.348L112.002 64.866ZM118.456 63.326V64.544H122.628V63.326H118.456ZM118.456 61.156C118.162 63.27 117.574 65.314 116.594 66.574C116.902 66.728 117.462 67.064 117.686 67.26C118.652 65.86 119.324 63.676 119.702 61.352L118.456 61.156ZM122.334 63.326V63.55C122.138 64.684 121.788 66.14 121.466 67.022L122.502 67.344C122.908 66.364 123.314 64.852 123.608 63.536L122.74 63.27L122.53 63.326H122.334ZM120.416 67.036L119.31 67.26C119.87 70.494 120.738 72.44 122.684 74.162C122.852 73.812 123.23 73.392 123.538 73.154C121.774 71.684 120.948 69.976 120.416 67.036ZM119.296 65.286V66.308C119.296 68.212 119.086 71.11 116.818 73.294C117.084 73.504 117.504 73.966 117.7 74.274C120.234 71.796 120.528 68.492 120.528 66.322V65.286H119.296ZM117.098 62.178H110.966V73.63H117.084V72.426H112.268V63.396H117.098V62.178ZM132.624 61.744V73.826H133.87V61.744H132.624ZM135.634 61.506V74.176H136.908V61.506H135.634ZM129.67 61.52V66.322C129.67 68.828 129.502 71.376 127.878 73.406C128.214 73.574 128.732 73.938 128.984 74.176C130.734 71.936 130.93 69.094 130.93 66.322V61.52H129.67ZM128.522 65.202C128.34 66.364 127.976 67.722 127.416 68.576L128.396 69.108C128.998 68.184 129.32 66.714 129.516 65.51L128.522 65.202ZM130.748 65.804C131.168 66.756 131.56 68.002 131.672 68.828L132.68 68.436C132.54 67.624 132.148 66.378 131.7 65.44L130.748 65.804ZM133.534 65.608C134.122 66.602 134.71 67.932 134.934 68.814L135.956 68.338C135.718 67.47 135.116 66.168 134.5 65.188L133.534 65.608ZM125.036 62.276C125.82 62.71 126.842 63.368 127.318 63.816L128.13 62.738C127.612 62.318 126.576 61.716 125.82 61.324L125.036 62.276ZM124.462 66.042C125.246 66.448 126.296 67.064 126.814 67.47L127.598 66.406C127.052 66.014 125.974 65.44 125.204 65.076L124.462 66.042ZM124.728 73.322L125.918 74.022C126.52 72.692 127.178 71.012 127.682 69.528L126.618 68.842C126.058 70.438 125.288 72.244 124.728 73.322Z" fill="#909399"/>
</g>
<rect x="100" y="143" width="100" height="1" fill="#E4E7ED"/>
<rect x="100" y="191" width="100" height="1" fill="#E4E7ED"/>
<rect x="100" y="239" width="100" height="1" fill="#E4E7ED"/>
<rect x="100" y="287" width="100" height="1" fill="#E4E7ED"/>
</g>
<rect x="100.5" y="0.5" width="99" height="335" stroke="#E4E7ED"/>
<g clip-path="url(#clip6_30290_75174)">
<rect width="100" height="48" transform="translate(200)" fill="#F2F2F2"/>
<rect x="200" y="47" width="100" height="1" fill="#E4E7ED"/>
<g clip-path="url(#clip7_30290_75174)">
<path d="M218.456 26.206C219.618 27.732 221.018 29.832 221.676 31.134L222.992 30.42C222.292 29.132 220.906 27.144 219.702 25.632L218.456 26.206ZM214.368 18.562C213.57 20.62 212.184 22.622 210.63 23.826C210.98 24.05 211.596 24.526 211.862 24.778C213.374 23.406 214.872 21.25 215.796 18.954L214.368 18.562ZM219.464 18.45L218.162 18.982C219.24 21.068 220.976 23.378 222.432 24.778C222.684 24.428 223.188 23.91 223.538 23.644C222.11 22.454 220.36 20.298 219.464 18.45ZM212.184 30.364C212.184 30.07 213.192 29.608 213.192 29.608V29.566C214.802 27.9 216.468 25.506 217.798 23.042L216.328 22.412C215.25 24.75 213.542 27.186 212.968 27.816C212.45 28.46 212.086 28.852 211.68 28.964C211.862 29.356 212.114 30.07 212.184 30.364ZM212.184 30.364C212.786 30.126 213.64 30.07 220.892 29.538C220.794 29.23 220.654 28.67 220.598 28.264L213.038 28.74L212.156 29.244L212.184 30.364ZM225.176 19.066V20.326H235.676V19.066H225.176ZM225.288 21.6V22.762H233.66V21.6H225.288ZM235.172 19.066V29.356C235.172 29.622 235.088 29.692 234.836 29.692C234.542 29.706 233.604 29.72 232.708 29.678C232.904 30.07 233.1 30.728 233.156 31.12C234.416 31.12 235.298 31.092 235.83 30.868C236.376 30.63 236.53 30.196 236.53 29.37V19.066H235.172ZM226.1 24.064V29.706H227.388V24.064H226.1ZM227.206 24.064V25.226H231.49V27.522H227.206V28.67H232.792V24.064H227.206ZM242.312 29.286V30.504H249.032V29.286H242.312ZM242.732 19.584V20.788H248.962V19.584H242.732ZM243.53 18.128C242.704 19.458 241.122 20.956 238.826 22.006C239.134 22.23 239.554 22.72 239.75 23.042C242.186 21.796 243.866 20.172 245.028 18.436L243.53 18.128ZM248.5 19.584V19.794C246.89 23.028 242.62 25.24 238.532 26.08C238.784 26.374 239.092 26.934 239.218 27.298C243.53 26.29 247.954 23.938 249.886 20.046L248.99 19.514L248.766 19.584H248.5ZM241.514 22.762C242.438 23.434 243.614 24.428 244.174 25.058L245.266 24.204C244.664 23.56 243.446 22.636 242.536 22.006L241.514 22.762ZM248.584 25.114V31.176H249.942V25.114H248.584ZM242.76 25.114H242.466L241.43 26.136V31.176H242.76V26.332H248.934V25.114H242.76ZM254.73 19.36V31.19H255.948V19.36H254.73ZM252.686 22.174V23.42H257.656V22.174H252.686ZM254.814 22.664C254.352 24.33 253.33 26.444 252.364 27.564C252.574 27.858 252.868 28.376 252.994 28.712C254.016 27.396 255.038 24.946 255.57 22.986L254.814 22.664ZM257.04 18.296C255.99 18.758 254.254 19.164 252.756 19.416C252.896 19.71 253.064 20.158 253.12 20.438C254.66 20.228 256.494 19.864 257.796 19.346L257.04 18.296ZM255.892 23.798L255.346 24.316C255.752 24.848 256.69 26.22 257.012 26.85L257.754 25.8C257.488 25.45 256.242 24.106 255.892 23.798ZM259.364 18.226C259.014 20.088 258.356 21.936 257.432 23.098C257.74 23.266 258.3 23.602 258.552 23.798C259.448 22.524 260.19 20.522 260.624 18.464L259.364 18.226ZM258.972 23.728C258.678 25.436 258.146 27.172 257.376 28.264C257.67 28.418 258.216 28.74 258.44 28.936C259.224 27.732 259.84 25.842 260.204 23.952L258.972 23.728ZM259.406 19.99L259 21.222H264.67V19.99H259.406ZM260.988 20.9V29.65C260.988 29.846 260.932 29.888 260.75 29.902C260.554 29.902 259.938 29.902 259.322 29.888C259.504 30.224 259.714 30.784 259.784 31.134C260.666 31.134 261.31 31.092 261.73 30.896C262.164 30.686 262.304 30.336 262.304 29.664V20.9H260.988ZM262.892 23.924C263.48 25.464 264.04 27.494 264.222 28.824L265.44 28.432C265.23 27.102 264.67 25.128 264.04 23.574L262.892 23.924ZM264.306 19.99V20.13C264.082 20.746 263.62 21.824 263.2 22.664L264.362 22.958C264.74 22.104 265.16 21.082 265.496 20.158L264.656 19.934L264.46 19.99H264.306Z" fill="#909399"/>
</g>
<rect width="100" height="48" transform="translate(200 48)" fill="white"/>
<rect x="200" y="95" width="100" height="1" fill="#E4E7ED"/>
<g clip-path="url(#clip8_30290_75174)">
<path d="M212.408 68.576C212.548 68.436 213.178 68.352 213.976 68.352H222.292L222.306 67.078H213.22L212.408 67.526V68.576ZM216.986 65.132V72.468C216.986 72.664 216.93 72.72 216.692 72.72C216.454 72.734 215.712 72.734 214.942 72.706C215.138 73.084 215.362 73.686 215.432 74.078C216.44 74.078 217.196 74.036 217.672 73.812C218.176 73.588 218.33 73.21 218.33 72.496V65.132H216.986ZM213.444 69.36C212.884 70.662 211.932 71.978 210.91 72.818C211.232 73.014 211.778 73.434 212.03 73.672C213.038 72.72 214.102 71.208 214.76 69.724L213.444 69.36ZM219.31 69.892C220.332 70.984 221.55 72.51 222.082 73.476L223.286 72.832C222.712 71.852 221.452 70.396 220.416 69.346L219.31 69.892ZM211.036 63.018V64.278H222.922V63.018H211.036ZM212.408 68.576C212.408 68.296 213.458 67.82 213.458 67.82V67.792C214.76 66.182 216.16 63.928 217.224 61.632L215.782 61.086C214.9 63.284 213.5 65.552 213.024 66.14C212.59 66.742 212.282 67.12 211.918 67.218C212.1 67.596 212.324 68.282 212.408 68.576ZM224.854 63.536V64.824H237.174V63.536H224.854ZM229.334 66.826V68.114H234.836V66.826H229.334ZM234.486 66.826V67.05C234.262 70.676 233.968 72.244 233.534 72.636C233.352 72.776 233.17 72.804 232.862 72.804C232.47 72.804 231.49 72.79 230.496 72.706C230.748 73.056 230.944 73.616 230.972 74.008C231.91 74.064 232.834 74.064 233.352 74.022C233.94 73.98 234.332 73.868 234.696 73.462C235.27 72.888 235.55 71.334 235.816 67.428C235.844 67.246 235.858 66.826 235.858 66.826H234.486ZM228.578 64.334C228.424 67.568 228.27 71.264 224.574 73.154C224.924 73.42 225.344 73.882 225.54 74.232C229.488 72.076 229.852 67.988 230.048 64.334H228.578ZM230.006 61.548C230.356 62.22 230.79 63.13 230.972 63.69L232.316 63.116C232.106 62.556 231.686 61.702 231.294 61.058L230.006 61.548ZM243.768 65.048C243.558 67.288 243.138 70.298 242.774 72.104H244.062C244.356 70.354 244.762 67.358 245.014 65.048H243.768ZM245.84 66.546C246.386 66.994 247.016 67.624 247.296 68.058L248.038 67.54C247.73 67.12 247.086 66.504 246.554 66.084L245.84 66.546ZM245.476 69.486C246.05 69.962 246.75 70.662 247.072 71.124L247.842 70.578C247.506 70.13 246.792 69.458 246.218 69.01L245.476 69.486ZM243.936 62.696V63.9H251.174V62.696H243.936ZM244.314 65.048V66.196H249.746V65.048H244.314ZM242.004 67.89V69.094H251.538V67.89H242.004ZM243.446 70.97V72.104H251.16V70.97H243.446ZM244.104 61.17C243.614 62.78 242.76 64.404 241.794 65.44C242.116 65.608 242.676 65.958 242.942 66.168C243.88 65.034 244.804 63.256 245.392 61.506L244.104 61.17ZM249.368 65.048V65.314C249.186 70.452 248.948 72.356 248.57 72.79C248.43 72.958 248.29 73 248.052 73C247.772 73 247.17 72.986 246.484 72.93C246.68 73.238 246.806 73.714 246.834 74.036C247.506 74.078 248.192 74.092 248.598 74.036C249.046 73.98 249.368 73.868 249.662 73.476C250.138 72.874 250.362 71.012 250.572 65.65C250.586 65.468 250.6 65.048 250.6 65.048H249.368ZM239.302 62.29C240.142 62.71 241.206 63.368 241.738 63.83L242.508 62.822C241.962 62.374 240.87 61.758 240.044 61.394L239.302 62.29ZM238.532 66.322C239.33 66.728 240.352 67.372 240.828 67.834L241.584 66.826C241.08 66.378 240.058 65.79 239.26 65.426L238.532 66.322ZM238.938 73.224L240.1 73.952C240.702 72.608 241.374 70.9 241.892 69.416L240.884 68.688C240.296 70.312 239.512 72.132 238.938 73.224ZM255.08 63.284V64.544H258.496V63.284H255.08ZM260.414 61.198V74.176H261.8V61.198H260.414ZM254.268 67.638C255.108 68.24 256.228 69.122 256.746 69.696L257.572 68.688C257.04 68.142 255.892 67.288 255.066 66.742L254.268 67.638ZM255.038 61.17C254.562 63.62 253.694 65.944 252.434 67.372C252.742 67.568 253.316 67.988 253.554 68.212C254.828 66.602 255.794 64.096 256.368 61.422L255.038 61.17ZM258.034 63.284V63.606C257.46 68.576 255.472 71.488 252.448 72.958C252.784 73.182 253.33 73.728 253.554 74.064C256.634 72.44 258.776 69.108 259.49 63.522L258.552 63.242L258.3 63.284H258.034ZM261.254 66.196C262.374 67.204 263.816 68.618 264.488 69.514L265.594 68.604C264.88 67.722 263.382 66.364 262.29 65.426L261.254 66.196Z" fill="#909399"/>
</g>
<rect x="200" y="143" width="100" height="1" fill="#E4E7ED"/>
<rect x="200" y="191" width="100" height="1" fill="#E4E7ED"/>
<rect x="200" y="239" width="100" height="1" fill="#E4E7ED"/>
<rect x="200" y="287" width="100" height="1" fill="#E4E7ED"/>
</g>
<rect x="200.5" y="0.5" width="99" height="335" stroke="#E4E7ED"/>
<g clip-path="url(#clip9_30290_75174)">
<rect width="100" height="48" transform="translate(300)" fill="#F2F2F2"/>
<rect x="300" y="47" width="100" height="1" fill="#E4E7ED"/>
<g clip-path="url(#clip10_30290_75174)">
<path d="M317.784 29.37V30.574H322.166V29.37H317.784ZM317.336 25.156V31.204H318.554V26.374H321.466V31.148H322.726V25.156H317.336ZM318.386 18.94V20.102H321.424V18.94H318.386ZM317.882 18.94V20.97C317.882 21.95 317.714 23.07 316.342 23.896C316.58 24.05 317.056 24.484 317.224 24.708C318.75 23.756 319.058 22.258 319.058 20.998V18.94H317.882ZM320.878 18.94V22.846C320.878 23.98 321.088 24.428 322.166 24.428C322.32 24.428 322.67 24.428 322.838 24.428C323.076 24.428 323.328 24.414 323.496 24.358C323.468 24.078 323.426 23.616 323.412 23.308C323.258 23.364 322.978 23.378 322.824 23.378C322.698 23.378 322.376 23.378 322.25 23.378C322.096 23.378 322.068 23.266 322.068 22.86V18.94H320.878ZM311.96 19.906V20.956H315.376V19.906H311.96ZM315.096 19.906V29.706C315.096 29.874 315.026 29.93 314.886 29.93C314.718 29.944 314.214 29.944 313.668 29.93C313.836 30.224 314.004 30.742 314.032 31.064C314.872 31.064 315.404 31.036 315.782 30.84C316.146 30.63 316.258 30.308 316.258 29.72V19.906H315.096ZM311.456 19.906V25.156C311.456 26.906 311.372 29.118 310.42 30.644C310.7 30.77 311.204 31.106 311.414 31.302C312.45 29.664 312.604 27.06 312.604 25.156V19.906H311.456ZM313.024 21.754C313.332 22.37 313.64 23.196 313.78 23.742L314.662 23.364C314.522 22.846 314.186 22.034 313.85 21.432L313.024 21.754ZM313.318 18.156C313.234 18.772 313.024 19.654 312.842 20.242L313.864 20.494C314.102 19.962 314.396 19.15 314.662 18.394L313.318 18.156ZM310.518 24.204V25.31H315.768V24.204H310.518ZM312.982 26.066C313.36 26.724 313.766 27.606 313.92 28.194L314.788 27.788C314.606 27.242 314.2 26.374 313.794 25.716L312.982 26.066ZM328.312 29.286V30.504H335.032V29.286H328.312ZM328.732 19.584V20.788H334.962V19.584H328.732ZM329.53 18.128C328.704 19.458 327.122 20.956 324.826 22.006C325.134 22.23 325.554 22.72 325.75 23.042C328.186 21.796 329.866 20.172 331.028 18.436L329.53 18.128ZM334.5 19.584V19.794C332.89 23.028 328.62 25.24 324.532 26.08C324.784 26.374 325.092 26.934 325.218 27.298C329.53 26.29 333.954 23.938 335.886 20.046L334.99 19.514L334.766 19.584H334.5ZM327.514 22.762C328.438 23.434 329.614 24.428 330.174 25.058L331.266 24.204C330.664 23.56 329.446 22.636 328.536 22.006L327.514 22.762ZM334.584 25.114V31.176H335.942V25.114H334.584ZM328.76 25.114H328.466L327.43 26.136V31.176H328.76V26.332H334.934V25.114H328.76Z" fill="#909399"/>
</g>
<rect width="100" height="48" transform="translate(300 48)" fill="white"/>
<rect x="300" y="95" width="100" height="1" fill="#E4E7ED"/>
<g clip-path="url(#clip11_30290_75174)">
<path d="M315.768 65.048C315.558 67.288 315.138 70.298 314.774 72.104H316.062C316.356 70.354 316.762 67.358 317.014 65.048H315.768ZM317.84 66.546C318.386 66.994 319.016 67.624 319.296 68.058L320.038 67.54C319.73 67.12 319.086 66.504 318.554 66.084L317.84 66.546ZM317.476 69.486C318.05 69.962 318.75 70.662 319.072 71.124L319.842 70.578C319.506 70.13 318.792 69.458 318.218 69.01L317.476 69.486ZM315.936 62.696V63.9H323.174V62.696H315.936ZM316.314 65.048V66.196H321.746V65.048H316.314ZM314.004 67.89V69.094H323.538V67.89H314.004ZM315.446 70.97V72.104H323.16V70.97H315.446ZM316.104 61.17C315.614 62.78 314.76 64.404 313.794 65.44C314.116 65.608 314.676 65.958 314.942 66.168C315.88 65.034 316.804 63.256 317.392 61.506L316.104 61.17ZM321.368 65.048V65.314C321.186 70.452 320.948 72.356 320.57 72.79C320.43 72.958 320.29 73 320.052 73C319.772 73 319.17 72.986 318.484 72.93C318.68 73.238 318.806 73.714 318.834 74.036C319.506 74.078 320.192 74.092 320.598 74.036C321.046 73.98 321.368 73.868 321.662 73.476C322.138 72.874 322.362 71.012 322.572 65.65C322.586 65.468 322.6 65.048 322.6 65.048H321.368ZM311.302 62.29C312.142 62.71 313.206 63.368 313.738 63.83L314.508 62.822C313.962 62.374 312.87 61.758 312.044 61.394L311.302 62.29ZM310.532 66.322C311.33 66.728 312.352 67.372 312.828 67.834L313.584 66.826C313.08 66.378 312.058 65.79 311.26 65.426L310.532 66.322ZM310.938 73.224L312.1 73.952C312.702 72.608 313.374 70.9 313.892 69.416L312.884 68.688C312.296 70.312 311.512 72.132 310.938 73.224ZM325.386 62.094V63.396H336.6V62.094H325.386ZM326.016 66.952V68.254H336.096V66.952H326.016ZM324.686 72.258V73.56H337.328V72.258H324.686ZM330.286 62.43V73.098H331.672V62.43H330.286ZM340.548 70.34V71.404H349.662V70.34H340.548ZM340.87 68.1V69.22H350.264V68.1H340.87ZM338.868 72.678V73.826H351.16V72.678H338.868ZM344.342 67.092V73.462H345.714V67.092H344.342ZM341.57 64.74H348.36V65.776H341.57V64.74ZM341.57 62.752H348.36V63.774H341.57V62.752ZM340.282 61.73V66.812H349.732V61.73H340.282ZM341.108 66.756C340.562 67.946 339.61 69.122 338.602 69.892C338.924 70.074 339.47 70.48 339.722 70.718C340.702 69.85 341.752 68.506 342.396 67.134L341.108 66.756ZM355.822 62.892H362.08V64.53H355.822V62.892ZM354.506 61.73V65.692H363.48V61.73H354.506ZM352.812 66.784V67.988H365.118V66.784H352.812ZM355.486 69.332V70.536H362.5V69.332H355.486ZM362.094 69.332V69.514C361.828 71.558 361.534 72.524 361.142 72.818C360.974 72.93 360.792 72.944 360.47 72.944C360.064 72.944 359.042 72.93 358.076 72.846C358.314 73.196 358.51 73.728 358.538 74.106C359.504 74.162 360.428 74.162 360.932 74.134C361.52 74.106 361.912 74.022 362.29 73.686C362.794 73.224 363.144 72.174 363.452 69.906C363.48 69.724 363.522 69.332 363.522 69.332H362.094ZM355.808 67.274C355.5 68.338 355.052 69.668 354.674 70.536H356.2C356.494 69.752 356.928 68.506 357.222 67.47L355.808 67.274Z" fill="#909399"/>
</g>
<rect x="300" y="143" width="100" height="1" fill="#E4E7ED"/>
<rect x="300" y="191" width="100" height="1" fill="#E4E7ED"/>
<rect x="300" y="239" width="100" height="1" fill="#E4E7ED"/>
<rect x="300" y="287" width="100" height="1" fill="#E4E7ED"/>
</g>
<rect x="300.5" y="0.5" width="99" height="335" stroke="#E4E7ED"/>
<g clip-path="url(#clip12_30290_75174)">
<rect width="100" height="48" transform="translate(400)" fill="#F2F2F2"/>
<rect x="400" y="47" width="100" height="1" fill="#E4E7ED"/>
<g clip-path="url(#clip13_30290_75174)">
<path d="M416.202 20.466V21.628H423.356V20.466H416.202ZM418.12 22.874V24.036H421.354V22.874H418.12ZM417.322 22.874V25.87C417.322 27.326 417.168 29.202 415.838 30.532C416.146 30.672 416.664 31.036 416.874 31.246C418.302 29.804 418.554 27.564 418.554 25.884V22.874H417.322ZM420.654 22.874V29.258C420.654 30.252 420.724 30.518 420.934 30.742C421.158 30.952 421.466 31.036 421.76 31.036C421.928 31.036 422.222 31.036 422.404 31.036C422.67 31.036 422.936 30.994 423.118 30.854C423.3 30.714 423.412 30.504 423.496 30.21C423.552 29.902 423.608 29.09 423.622 28.432C423.328 28.334 422.992 28.152 422.768 27.956C422.768 28.67 422.754 29.216 422.726 29.468C422.698 29.692 422.656 29.818 422.614 29.874C422.572 29.916 422.474 29.93 422.39 29.93C422.306 29.93 422.18 29.93 422.124 29.93C422.04 29.93 421.984 29.916 421.942 29.874C421.9 29.818 421.886 29.622 421.886 29.286V22.874H420.654ZM411.96 19.85V20.914H415.026V19.85H411.96ZM414.732 19.85V29.748C414.732 29.916 414.676 29.972 414.508 29.972C414.34 29.972 413.85 29.986 413.304 29.958C413.458 30.266 413.626 30.784 413.668 31.106C414.508 31.106 415.04 31.078 415.418 30.868C415.782 30.672 415.894 30.336 415.894 29.762V19.85H414.732ZM411.442 19.85V25.142C411.442 26.892 411.358 29.118 410.406 30.658C410.686 30.77 411.204 31.092 411.414 31.302C412.45 29.65 412.604 27.06 412.604 25.128V19.85H411.442ZM412.758 21.754C413.052 22.384 413.388 23.21 413.528 23.742L414.382 23.378C414.228 22.86 413.878 22.062 413.584 21.446L412.758 21.754ZM413.108 18.114C413.01 18.73 412.8 19.612 412.618 20.2L413.654 20.452C413.878 19.92 414.172 19.108 414.438 18.352L413.108 18.114ZM410.49 24.218V25.296H415.586V24.218H410.49ZM412.73 26.066C413.08 26.738 413.486 27.62 413.654 28.194L414.522 27.802C414.312 27.256 413.892 26.388 413.528 25.73L412.73 26.066ZM418.33 18.408C418.652 19.066 419.044 19.976 419.212 20.55L420.514 20.13C420.318 19.57 419.926 18.702 419.576 18.044L418.33 18.408ZM430.244 18.184C429.81 20.452 428.998 22.65 427.878 24.008C428.228 24.162 428.9 24.54 429.18 24.736C430.258 23.252 431.14 20.9 431.672 18.45L430.244 18.184ZM430.3 20.48L429.684 21.796H436.152V20.48H430.3ZM435.732 20.48V20.802C435.536 21.936 434.99 23.462 434.57 24.344C434.878 24.47 435.41 24.736 435.69 24.89C436.194 23.882 436.81 22.384 437.16 20.956L436.194 20.41L435.928 20.48H435.732ZM424.686 20.102C425.652 20.648 426.87 21.502 427.444 22.09L428.284 21.012C427.682 20.424 426.436 19.64 425.484 19.136L424.686 20.102ZM424.49 28.922L425.722 29.832C426.59 28.53 427.584 26.934 428.396 25.478L427.36 24.596C426.45 26.164 425.302 27.9 424.49 28.922ZM433.086 23.63L431.938 23.812C432.624 27.34 433.898 29.902 436.656 31.092C436.838 30.728 437.244 30.168 437.538 29.916C434.962 28.964 433.66 26.64 433.086 23.63ZM431.84 22.37V23.238C431.84 25.17 431.504 28.208 427.36 30.224C427.696 30.462 428.172 30.952 428.382 31.274C432.834 29.006 433.254 25.52 433.254 23.266V22.37H431.84Z" fill="#909399"/>
</g>
<rect width="100" height="48" transform="translate(400 48)" fill="white"/>
<rect x="400" y="95" width="100" height="1" fill="#E4E7ED"/>
<g clip-path="url(#clip14_30290_75174)">
<path d="M412.408 73H414.382L415.74 67.274C415.894 66.476 416.076 65.706 416.23 64.922H416.286C416.426 65.706 416.58 66.476 416.762 67.274L418.134 73H420.15L422.18 62.696H420.626L419.646 68.058C419.478 69.15 419.296 70.256 419.128 71.376H419.058C418.806 70.256 418.596 69.136 418.344 68.058L417.014 62.696H415.572L414.256 68.058C414.018 69.15 413.78 70.256 413.556 71.376H413.5C413.318 70.256 413.136 69.15 412.94 68.058L411.988 62.696H410.308L412.408 73ZM426.5 73.196C428.544 73.196 429.832 71.334 429.832 67.96C429.832 64.586 428.544 62.794 426.5 62.794C424.442 62.794 423.168 64.572 423.168 67.96C423.168 71.334 424.442 73.196 426.5 73.196ZM426.5 71.908C425.45 71.908 424.708 70.83 424.708 67.96C424.708 65.076 425.45 64.068 426.5 64.068C427.55 64.068 428.278 65.076 428.278 67.96C428.278 70.83 427.55 71.908 426.5 71.908ZM431.684 73H437.578V71.67H435.562V62.976H434.344C433.742 63.34 433.07 63.592 432.09 63.774V64.796H433.952V71.67H431.684V73ZM439.081 73H445.745V71.628H443.127C442.609 71.628 441.965 71.684 441.433 71.74C443.575 69.486 445.255 67.638 445.255 65.818C445.255 63.984 444.037 62.794 442.147 62.794C440.803 62.794 439.893 63.368 438.997 64.32L439.921 65.216C440.467 64.6 441.139 64.082 441.951 64.082C443.099 64.082 443.687 64.796 443.687 65.888C443.687 67.47 441.951 69.248 439.081 72.062V73ZM450.201 73.196C452.105 73.196 453.659 72.132 453.659 70.312C453.659 68.968 452.721 68.1 451.531 67.792V67.736C452.623 67.316 453.309 66.546 453.309 65.398C453.309 63.732 452.007 62.794 450.159 62.794C448.969 62.794 448.017 63.312 447.191 64.054L448.045 65.062C448.633 64.474 449.305 64.082 450.089 64.082C451.083 64.082 451.671 64.628 451.671 65.51C451.671 66.476 450.999 67.218 448.983 67.218V68.422C451.293 68.422 452.021 69.136 452.021 70.228C452.021 71.25 451.223 71.866 450.075 71.866C448.997 71.866 448.241 71.348 447.639 70.732L446.841 71.768C447.541 72.552 448.591 73.196 450.201 73.196Z" fill="#909399"/>
</g>
<rect x="400" y="143" width="100" height="1" fill="#E4E7ED"/>
<rect x="400" y="191" width="100" height="1" fill="#E4E7ED"/>
<rect x="400" y="239" width="100" height="1" fill="#E4E7ED"/>
<rect x="400" y="287" width="100" height="1" fill="#E4E7ED"/>
</g>
<rect x="400.5" y="0.5" width="99" height="335" stroke="#E4E7ED"/>
<g clip-path="url(#clip15_30290_75174)">
<rect width="100" height="48" transform="translate(500)" fill="#F2F2F2"/>
<rect x="500" y="47" width="100" height="1" fill="#E4E7ED"/>
<g clip-path="url(#clip16_30290_75174)">
<path d="M516.93 21.432H521.214V22.356H516.93V21.432ZM516.93 19.612H521.214V20.536H516.93V19.612ZM515.712 18.632V23.336H522.488V18.632H515.712ZM515.054 24.19V25.282H523.23V24.19H515.054ZM518.442 24.764V29.944L519.688 30.476V24.764H518.442ZM516.818 27.298L516.02 27.578C516.888 30.476 518.498 30.98 520.822 30.98H523.272C523.314 30.644 523.482 30.084 523.65 29.804C523.104 29.832 521.27 29.832 520.864 29.832C519.016 29.832 517.532 29.51 516.818 27.298ZM519.324 26.738V27.802H522.516V26.738H519.324ZM515.936 25.842C515.726 27.844 515.11 29.412 513.892 30.378C514.172 30.56 514.676 30.966 514.872 31.176C516.132 30.042 516.846 28.278 517.14 25.982L515.936 25.842ZM510.364 25.478L510.672 26.766C511.89 26.402 513.444 25.912 514.9 25.45L514.718 24.246C513.122 24.722 511.47 25.212 510.364 25.478ZM510.504 20.942V22.16H514.858V20.942H510.504ZM512.142 18.198V29.58C512.142 29.776 512.086 29.832 511.918 29.832C511.75 29.846 511.232 29.846 510.658 29.832C510.826 30.182 510.98 30.728 511.022 31.05C511.904 31.05 512.492 31.008 512.856 30.798C513.248 30.602 513.374 30.252 513.374 29.594V18.198H512.142ZM530.272 21.222V31.162H531.644V21.222H530.272ZM527.29 23.98H534.766V25.254H527.29V23.98ZM527.29 21.698H534.766V22.958H527.29V21.698ZM526.002 20.592V26.36H536.124V20.592H526.002ZM524.714 27.508V28.74H537.314V27.508H524.714ZM527.178 18.772C527.724 19.416 528.326 20.326 528.592 20.886L529.796 20.312C529.516 19.724 528.858 18.87 528.312 18.24L527.178 18.772ZM533.758 18.268C533.422 19.052 532.792 20.13 532.274 20.816L533.436 21.236C533.954 20.606 534.64 19.626 535.214 18.716L533.758 18.268ZM541.822 19.892H548.08V21.53H541.822V19.892ZM540.506 18.73V22.692H549.48V18.73H540.506ZM538.812 23.784V24.988H551.118V23.784H538.812ZM541.486 26.332V27.536H548.5V26.332H541.486ZM548.094 26.332V26.514C547.828 28.558 547.534 29.524 547.142 29.818C546.974 29.93 546.792 29.944 546.47 29.944C546.064 29.944 545.042 29.93 544.076 29.846C544.314 30.196 544.51 30.728 544.538 31.106C545.504 31.162 546.428 31.162 546.932 31.134C547.52 31.106 547.912 31.022 548.29 30.686C548.794 30.224 549.144 29.174 549.452 26.906C549.48 26.724 549.522 26.332 549.522 26.332H548.094ZM541.808 24.274C541.5 25.338 541.052 26.668 540.674 27.536H542.2C542.494 26.752 542.928 25.506 543.222 24.47L541.808 24.274Z" fill="#909399"/>
</g>
<rect width="100" height="48" transform="translate(500 48)" fill="white"/>
<rect x="500" y="95" width="100" height="1" fill="#E4E7ED"/>
<g clip-path="url(#clip17_30290_75174)">
<path d="M511.344 73H514.802C517.084 73 518.736 72.02 518.736 69.976C518.736 68.59 517.896 67.778 516.72 67.526V67.47C517.644 67.148 518.176 66.224 518.176 65.23C518.176 63.368 516.65 62.696 514.55 62.696H511.344V73ZM512.982 66.994V63.97H514.41C515.852 63.97 516.58 64.376 516.58 65.454C516.58 66.406 515.936 66.994 514.368 66.994H512.982ZM512.982 71.726V68.226H514.62C516.258 68.226 517.14 68.744 517.14 69.906C517.14 71.152 516.216 71.726 514.62 71.726H512.982ZM520.682 73H526.688V71.628H522.32V62.696H520.682V73ZM531.135 73.196C533.179 73.196 534.467 71.334 534.467 67.96C534.467 64.586 533.179 62.794 531.135 62.794C529.077 62.794 527.803 64.572 527.803 67.96C527.803 71.334 529.077 73.196 531.135 73.196ZM531.135 71.908C530.085 71.908 529.343 70.83 529.343 67.96C529.343 65.076 530.085 64.068 531.135 64.068C532.185 64.068 532.913 65.076 532.913 67.96C532.913 70.83 532.185 71.908 531.135 71.908ZM539.119 73.196C541.163 73.196 542.451 71.334 542.451 67.96C542.451 64.586 541.163 62.794 539.119 62.794C537.061 62.794 535.787 64.572 535.787 67.96C535.787 71.334 537.061 73.196 539.119 73.196ZM539.119 71.908C538.069 71.908 537.327 70.83 537.327 67.96C537.327 65.076 538.069 64.068 539.119 64.068C540.169 64.068 540.897 65.076 540.897 67.96C540.897 70.83 540.169 71.908 539.119 71.908ZM546.851 73.196C548.755 73.196 550.309 72.132 550.309 70.312C550.309 68.968 549.371 68.1 548.181 67.792V67.736C549.273 67.316 549.959 66.546 549.959 65.398C549.959 63.732 548.657 62.794 546.809 62.794C545.619 62.794 544.667 63.312 543.841 64.054L544.695 65.062C545.283 64.474 545.955 64.082 546.739 64.082C547.733 64.082 548.321 64.628 548.321 65.51C548.321 66.476 547.649 67.218 545.633 67.218V68.422C547.943 68.422 548.671 69.136 548.671 70.228C548.671 71.25 547.873 71.866 546.725 71.866C545.647 71.866 544.891 71.348 544.289 70.732L543.491 71.768C544.191 72.552 545.241 73.196 546.851 73.196Z" fill="#909399"/>
</g>
<rect x="500" y="143" width="100" height="1" fill="#E4E7ED"/>
<rect x="500" y="191" width="100" height="1" fill="#E4E7ED"/>
<rect x="500" y="239" width="100" height="1" fill="#E4E7ED"/>
<rect x="500" y="287" width="100" height="1" fill="#E4E7ED"/>
</g>
<rect x="500.5" y="0.5" width="99" height="335" stroke="#E4E7ED"/>
<g clip-path="url(#clip18_30290_75174)">
<rect width="100" height="48" transform="translate(600)" fill="#F2F2F2"/>
<rect x="600" y="47" width="100" height="1" fill="#E4E7ED"/>
<g clip-path="url(#clip19_30290_75174)">
<path d="M617.476 28.754C619.31 29.384 621.158 30.308 622.264 31.106L623.076 30.07C621.928 29.3 619.954 28.39 618.106 27.788L617.476 28.754ZM615.88 18.464C616.244 19.066 616.636 19.892 616.79 20.396L618.176 19.948C618.008 19.43 617.588 18.646 617.21 18.058L615.88 18.464ZM611.176 19.654V22.664H612.492V20.9H621.466V22.664H622.852V19.654H611.176ZM616.916 21.558C616.776 26.22 616.608 28.824 611.092 30C611.372 30.294 611.708 30.798 611.848 31.148C617.728 29.762 618.134 26.654 618.302 21.558H616.916ZM610.966 26.318V27.438H623.104V26.318H610.966ZM613.304 22.286C614.046 22.72 614.942 23.406 615.348 23.882L616.174 22.93C615.74 22.44 614.83 21.824 614.088 21.432L613.304 22.286ZM611.89 24.428C612.66 24.848 613.598 25.52 614.032 26.01L614.83 25.016C614.368 24.54 613.43 23.924 612.66 23.546L611.89 24.428ZM625.078 18.772V31.176H626.338V19.962H628.592V18.772H625.078ZM628.284 18.772V19.136C628.018 20.06 627.514 21.768 627.038 23.014C628.004 24.078 628.214 25.016 628.214 25.744C628.214 26.164 628.13 26.528 627.934 26.668C627.822 26.738 627.668 26.78 627.5 26.78C627.304 26.808 627.052 26.794 626.744 26.766C626.954 27.102 627.08 27.592 627.08 27.914C627.416 27.928 627.78 27.928 628.06 27.9C628.382 27.858 628.648 27.76 628.872 27.62C629.32 27.312 629.502 26.696 629.502 25.884C629.502 25.03 629.278 24.022 628.298 22.874C628.746 21.782 629.264 20.382 629.684 19.22L628.732 18.716L628.522 18.772H628.284ZM630.482 19.164V20.41H636.628V19.164H630.482ZM629.866 22.51V23.756H637.398V22.51H629.866ZM632.75 23.126V29.58C632.75 29.748 632.694 29.804 632.498 29.804C632.302 29.804 631.686 29.818 631.028 29.79C631.21 30.196 631.378 30.77 631.42 31.162C632.386 31.162 633.058 31.134 633.506 30.91C633.982 30.686 634.094 30.294 634.094 29.594V23.126H632.75ZM634.822 25.52C635.466 26.934 636.068 28.782 636.264 29.902L637.468 29.468C637.258 28.334 636.6 26.542 635.942 25.156L634.822 25.52ZM630.678 25.198C630.314 26.668 629.712 28.18 628.956 29.174C629.25 29.314 629.768 29.664 630.006 29.86C630.748 28.782 631.462 27.102 631.868 25.478L630.678 25.198ZM645.784 29.37V30.574H650.166V29.37H645.784ZM645.336 25.156V31.204H646.554V26.374H649.466V31.148H650.726V25.156H645.336ZM646.386 18.94V20.102H649.424V18.94H646.386ZM645.882 18.94V20.97C645.882 21.95 645.714 23.07 644.342 23.896C644.58 24.05 645.056 24.484 645.224 24.708C646.75 23.756 647.058 22.258 647.058 20.998V18.94H645.882ZM648.878 18.94V22.846C648.878 23.98 649.088 24.428 650.166 24.428C650.32 24.428 650.67 24.428 650.838 24.428C651.076 24.428 651.328 24.414 651.496 24.358C651.468 24.078 651.426 23.616 651.412 23.308C651.258 23.364 650.978 23.378 650.824 23.378C650.698 23.378 650.376 23.378 650.25 23.378C650.096 23.378 650.068 23.266 650.068 22.86V18.94H648.878ZM639.96 19.906V20.956H643.376V19.906H639.96ZM643.096 19.906V29.706C643.096 29.874 643.026 29.93 642.886 29.93C642.718 29.944 642.214 29.944 641.668 29.93C641.836 30.224 642.004 30.742 642.032 31.064C642.872 31.064 643.404 31.036 643.782 30.84C644.146 30.63 644.258 30.308 644.258 29.72V19.906H643.096ZM639.456 19.906V25.156C639.456 26.906 639.372 29.118 638.42 30.644C638.7 30.77 639.204 31.106 639.414 31.302C640.45 29.664 640.604 27.06 640.604 25.156V19.906H639.456ZM641.024 21.754C641.332 22.37 641.64 23.196 641.78 23.742L642.662 23.364C642.522 22.846 642.186 22.034 641.85 21.432L641.024 21.754ZM641.318 18.156C641.234 18.772 641.024 19.654 640.842 20.242L641.864 20.494C642.102 19.962 642.396 19.15 642.662 18.394L641.318 18.156ZM638.518 24.204V25.31H643.768V24.204H638.518ZM640.982 26.066C641.36 26.724 641.766 27.606 641.92 28.194L642.788 27.788C642.606 27.242 642.2 26.374 641.794 25.716L640.982 26.066ZM660.568 18.856V20.06H664.334V18.856H660.568ZM660.568 22.048V23.224H664.334V22.048H660.568ZM660.554 25.282V26.472H664.362V25.282H660.554ZM663.76 18.856V29.608C663.76 29.818 663.676 29.888 663.48 29.888C663.27 29.902 662.57 29.902 661.898 29.874C662.066 30.21 662.248 30.798 662.29 31.148C663.326 31.148 664.012 31.12 664.446 30.91C664.894 30.7 665.034 30.322 665.034 29.622V18.856H663.76ZM660.022 18.856V23.966C660.022 25.982 659.924 28.642 658.804 30.476C659.098 30.602 659.644 30.994 659.854 31.232C661.086 29.244 661.268 26.15 661.268 23.966V18.856H660.022ZM652.658 19.962V21.124H659.434V19.962H652.658ZM654.38 22.188V23.224H657.838V22.188H654.38ZM654.38 24.386V25.422H657.852V24.386H654.38ZM652.476 26.626V27.802H659.392V26.626H652.476ZM653.806 18.352V27.074H655.01V18.352H653.806ZM657.208 18.352V27.074H658.426V18.352H657.208ZM654.338 28.012C653.932 28.908 653.204 29.818 652.434 30.42C652.742 30.602 653.26 30.98 653.512 31.204C654.268 30.504 655.08 29.426 655.598 28.376L654.338 28.012ZM656.382 28.53C656.928 29.188 657.586 30.112 657.852 30.672L658.93 30.042C658.622 29.468 657.95 28.614 657.39 27.984L656.382 28.53Z" fill="#909399"/>
</g>
<rect width="100" height="48" transform="translate(600 48)" fill="white"/>
<rect x="600" y="95" width="100" height="1" fill="#E4E7ED"/>
<g clip-path="url(#clip20_30290_75174)">
<path d="M610.602 73H617.266V71.628H614.69C614.186 71.628 613.528 71.684 612.996 71.74C615.18 69.64 616.776 67.582 616.776 65.608C616.776 63.732 615.558 62.514 613.668 62.514C612.324 62.514 611.414 63.088 610.518 64.054L611.442 64.936C611.988 64.306 612.66 63.802 613.472 63.802C614.62 63.802 615.208 64.572 615.208 65.678C615.208 67.372 613.654 69.374 610.602 72.062V73ZM621.974 73.196C623.99 73.196 625.306 71.39 625.306 67.806C625.306 64.25 623.99 62.514 621.974 62.514C619.944 62.514 618.642 64.25 618.642 67.806C618.642 71.39 619.944 73.196 621.974 73.196ZM621.974 71.908C620.924 71.908 620.182 70.788 620.182 67.806C620.182 64.866 620.924 63.774 621.974 63.774C623.024 63.774 623.752 64.866 623.752 67.806C623.752 70.788 623.024 71.908 621.974 71.908ZM626.571 73H633.235V71.628H630.659C630.155 71.628 629.497 71.684 628.965 71.74C631.149 69.64 632.745 67.582 632.745 65.608C632.745 63.732 631.527 62.514 629.637 62.514C628.293 62.514 627.383 63.088 626.487 64.054L627.411 64.936C627.957 64.306 628.629 63.802 629.441 63.802C630.589 63.802 631.177 64.572 631.177 65.678C631.177 67.372 629.623 69.374 626.571 72.062V73ZM634.555 73H641.219V71.628H638.643C638.139 71.628 637.481 71.684 636.949 71.74C639.133 69.64 640.729 67.582 640.729 65.608C640.729 63.732 639.511 62.514 637.621 62.514C636.277 62.514 635.367 63.088 634.471 64.054L635.395 64.936C635.941 64.306 636.613 63.802 637.425 63.802C638.573 63.802 639.161 64.572 639.161 65.678C639.161 67.372 637.607 69.374 634.555 72.062V73ZM642.596 69.654H646.292V68.45H642.596V69.654ZM650.931 73.196C652.947 73.196 654.263 71.39 654.263 67.806C654.263 64.25 652.947 62.514 650.931 62.514C648.901 62.514 647.599 64.25 647.599 67.806C647.599 71.39 648.901 73.196 650.931 73.196ZM650.931 71.908C649.881 71.908 649.139 70.788 649.139 67.806C649.139 64.866 649.881 63.774 650.931 63.774C651.981 63.774 652.709 64.866 652.709 67.806C652.709 70.788 651.981 71.908 650.931 71.908ZM658.93 73.196C660.918 73.196 662.262 72.02 662.262 70.494C662.262 69.08 661.45 68.282 660.526 67.764V67.694C661.156 67.204 661.87 66.322 661.87 65.258C661.87 63.648 660.764 62.542 658.972 62.542C657.278 62.542 656.018 63.592 656.018 65.202C656.018 66.28 656.634 67.064 657.404 67.61V67.666C656.452 68.17 655.57 69.094 655.57 70.452C655.57 72.048 656.984 73.196 658.93 73.196ZM659.602 67.288C658.454 66.826 657.474 66.308 657.474 65.202C657.474 64.278 658.104 63.704 658.944 63.704C659.938 63.704 660.526 64.418 660.526 65.356C660.526 66.056 660.218 66.714 659.602 67.288ZM658.958 72.02C657.838 72.02 656.984 71.306 656.984 70.284C656.984 69.388 657.488 68.632 658.202 68.128C659.602 68.716 660.736 69.192 660.736 70.438C660.736 71.404 660.008 72.02 658.958 72.02ZM663.568 69.654H667.264V68.45H663.568V69.654ZM668.516 73H675.18V71.628H672.604C672.1 71.628 671.442 71.684 670.91 71.74C673.094 69.64 674.69 67.582 674.69 65.608C674.69 63.732 673.472 62.514 671.582 62.514C670.238 62.514 669.328 63.088 668.432 64.054L669.356 64.936C669.902 64.306 670.574 63.802 671.386 63.802C672.534 63.802 673.122 64.572 673.122 65.678C673.122 67.372 671.568 69.374 668.516 72.062V73ZM679.888 73.196C681.904 73.196 683.22 71.39 683.22 67.806C683.22 64.25 681.904 62.514 679.888 62.514C677.858 62.514 676.556 64.25 676.556 67.806C676.556 71.39 677.858 73.196 679.888 73.196ZM679.888 71.908C678.838 71.908 678.096 70.788 678.096 67.806C678.096 64.866 678.838 63.774 679.888 63.774C680.938 63.774 681.666 64.866 681.666 67.806C681.666 70.788 680.938 71.908 679.888 71.908Z" fill="#909399"/>
</g>
<rect x="600" y="143" width="100" height="1" fill="#E4E7ED"/>
<rect x="600" y="191" width="100" height="1" fill="#E4E7ED"/>
<rect x="600" y="239" width="100" height="1" fill="#E4E7ED"/>
<rect x="600" y="287" width="100" height="1" fill="#E4E7ED"/>
</g>
<rect x="600.5" y="0.5" width="99" height="335" stroke="#E4E7ED"/>
<g clip-path="url(#clip21_30290_75174)">
<rect width="100" height="48" transform="translate(700)" fill="#F2F2F2"/>
<rect x="700" y="47" width="100" height="1" fill="#E4E7ED"/>
<g clip-path="url(#clip22_30290_75174)">
<path d="M716.93 21.432H721.214V22.356H716.93V21.432ZM716.93 19.612H721.214V20.536H716.93V19.612ZM715.712 18.632V23.336H722.488V18.632H715.712ZM715.054 24.19V25.282H723.23V24.19H715.054ZM718.442 24.764V29.944L719.688 30.476V24.764H718.442ZM716.818 27.298L716.02 27.578C716.888 30.476 718.498 30.98 720.822 30.98H723.272C723.314 30.644 723.482 30.084 723.65 29.804C723.104 29.832 721.27 29.832 720.864 29.832C719.016 29.832 717.532 29.51 716.818 27.298ZM719.324 26.738V27.802H722.516V26.738H719.324ZM715.936 25.842C715.726 27.844 715.11 29.412 713.892 30.378C714.172 30.56 714.676 30.966 714.872 31.176C716.132 30.042 716.846 28.278 717.14 25.982L715.936 25.842ZM710.364 25.478L710.672 26.766C711.89 26.402 713.444 25.912 714.9 25.45L714.718 24.246C713.122 24.722 711.47 25.212 710.364 25.478ZM710.504 20.942V22.16H714.858V20.942H710.504ZM712.142 18.198V29.58C712.142 29.776 712.086 29.832 711.918 29.832C711.75 29.846 711.232 29.846 710.658 29.832C710.826 30.182 710.98 30.728 711.022 31.05C711.904 31.05 712.492 31.008 712.856 30.798C713.248 30.602 713.374 30.252 713.374 29.594V18.198H712.142ZM730.272 21.222V31.162H731.644V21.222H730.272ZM727.29 23.98H734.766V25.254H727.29V23.98ZM727.29 21.698H734.766V22.958H727.29V21.698ZM726.002 20.592V26.36H736.124V20.592H726.002ZM724.714 27.508V28.74H737.314V27.508H724.714ZM727.178 18.772C727.724 19.416 728.326 20.326 728.592 20.886L729.796 20.312C729.516 19.724 728.858 18.87 728.312 18.24L727.178 18.772ZM733.758 18.268C733.422 19.052 732.792 20.13 732.274 20.816L733.436 21.236C733.954 20.606 734.64 19.626 735.214 18.716L733.758 18.268ZM743.614 20.2V21.432H751.342V20.2H743.614ZM745.392 21.642C744.874 22.594 743.964 23.756 743.068 24.484C743.348 24.68 743.782 25.044 743.992 25.296C744.916 24.498 745.896 23.308 746.568 22.174L745.392 21.642ZM747.996 22.258C748.906 23.126 749.956 24.372 750.39 25.212L751.37 24.372C750.894 23.56 749.816 22.37 748.906 21.516L747.996 22.258ZM745.784 24.176L744.636 24.47C745.756 27.648 747.702 30 750.726 31.092C750.922 30.728 751.314 30.182 751.622 29.916C748.738 29.02 746.736 26.892 745.784 24.176ZM745.98 18.534C746.414 19.066 746.862 19.836 747.058 20.34L748.262 19.794C748.052 19.304 747.59 18.604 747.128 18.072L745.98 18.534ZM738.798 21.068V22.3H743.264V21.068H738.798ZM740.548 18.184V31.176H741.766V18.184H740.548ZM740.422 21.852C740.058 23.784 739.232 26.164 738.336 27.41C738.56 27.746 738.868 28.334 738.994 28.698C739.932 27.242 740.772 24.428 741.164 22.146L740.422 21.852ZM741.738 22.776L741.136 23.308C741.514 23.994 742.382 25.744 742.69 26.57L743.46 25.576C743.208 25.128 742.046 23.196 741.738 22.776ZM748.528 24.134C747.744 26.948 745.854 28.992 742.97 30.182C743.236 30.406 743.628 30.91 743.81 31.19C746.904 29.874 748.85 27.662 749.802 24.456L748.528 24.134ZM761.646 28.376C762.64 29.174 763.942 30.322 764.558 31.05L765.566 30.182C764.922 29.468 763.592 28.362 762.598 27.606L761.646 28.376ZM762.948 22.23C761.982 24.12 759.882 26.01 757.474 27.06C757.712 27.312 758.062 27.774 758.216 28.068C760.778 26.878 762.948 24.862 764.208 22.65L762.948 22.23ZM763.9 24.806C762.71 27.116 760.05 29.09 756.774 30.084C757.012 30.364 757.39 30.882 757.544 31.19C760.988 30.056 763.718 27.942 765.258 25.296L763.9 24.806ZM757.572 19.99V21.208H765.44V19.99H757.572ZM758.048 24.988C758.048 24.638 759.588 24.19 759.588 24.19C760.218 23.322 761.268 21.586 761.842 20.634H760.442C760.064 21.278 759.028 22.972 758.706 23.322C758.468 23.588 758.02 23.686 757.712 23.756C757.824 24.036 758.006 24.666 758.048 24.988ZM758.048 24.988C758.384 24.848 758.916 24.764 762.388 24.54C762.444 24.274 762.612 23.77 762.766 23.448L758.706 23.658L758.034 24.036L758.048 24.988ZM760.47 18.478C760.792 19.094 761.086 19.92 761.184 20.452L762.5 20.004C762.402 19.486 762.038 18.688 761.702 18.1L760.47 18.478ZM752.714 20.858V22.076H757.292V20.858H752.714ZM754.52 18.184V31.176H755.78V18.184H754.52ZM754.548 21.712C754.17 23.602 753.302 25.94 752.378 27.158C752.602 27.494 752.91 28.096 753.036 28.474C754.016 27.032 754.898 24.274 755.304 21.992L754.548 21.712ZM755.71 22.51L755.108 22.986C755.472 23.616 756.326 25.254 756.634 26.01L757.418 25.1C757.166 24.666 756.032 22.902 755.71 22.51Z" fill="#909399"/>
</g>
<rect width="100" height="48" transform="translate(700 48)" fill="white"/>
<rect x="700" y="95" width="100" height="1" fill="#E4E7ED"/>
<g clip-path="url(#clip23_30290_75174)">
<path d="M718.484 62.864V68.772C718.484 70.13 718.792 70.536 720.038 70.536C720.29 70.536 721.256 70.536 721.522 70.536C722.614 70.536 722.95 69.92 723.09 67.764C722.726 67.666 722.18 67.47 721.914 67.232C721.858 69.01 721.788 69.318 721.396 69.318C721.186 69.318 720.402 69.318 720.234 69.318C719.842 69.318 719.772 69.248 719.772 68.758V62.864H718.484ZM715.04 62.85C714.984 66.518 714.9 68.73 712.884 70.018C713.164 70.242 713.556 70.732 713.71 71.04C716.048 69.556 716.286 66.924 716.328 62.85H715.04ZM722.964 62.024H711.232V73.378H723.188V72.104H712.548V63.312H722.964V62.024ZM732.316 66.154V67.428H736.39V66.154H732.316ZM731.686 66.154V72.132C731.686 73.63 732.134 74.022 733.534 74.022C733.828 74.022 735.41 74.022 735.718 74.022C737.076 74.022 737.44 73.35 737.594 71.026C737.23 70.942 736.67 70.704 736.376 70.48C736.306 72.426 736.208 72.776 735.62 72.776C735.27 72.776 733.982 72.776 733.702 72.776C733.1 72.776 733.002 72.692 733.002 72.132V66.154H731.686ZM731.644 61.828V63.102H735.774V68.352H737.048V61.828H731.644ZM725.008 64.306V74.12H726.058V65.412H729.67V73.924H730.734V64.306H725.008ZM725.554 69.948V70.9H730.174V69.948H725.554ZM725.554 72.146V73.196H730.174V72.146H725.554ZM724.7 61.716V62.892H731.028V61.716H724.7ZM726.66 62.01V65.146H727.57V62.01H726.66ZM728.27 62.01V65.146H729.194V62.01H728.27ZM726.856 65.132V66.518C726.856 67.232 726.758 68.086 726.044 68.758C726.198 68.842 726.464 69.08 726.576 69.22C727.346 68.45 727.528 67.372 727.528 66.532V65.132H726.856ZM728.172 65.132V67.904C728.172 68.646 728.354 68.8 728.928 68.8C729.04 68.8 729.418 68.8 729.53 68.8C729.936 68.8 730.146 68.66 730.23 68.324C730.02 68.268 729.754 68.184 729.6 68.058C729.586 68.086 729.544 68.1 729.404 68.1C729.334 68.1 729.068 68.1 729.012 68.1C728.872 68.1 728.858 68.072 728.858 67.89V65.132H728.172Z" fill="#909399"/>
</g>
<rect x="700" y="143" width="100" height="1" fill="#E4E7ED"/>
<rect x="700" y="191" width="100" height="1" fill="#E4E7ED"/>
<rect x="700" y="239" width="100" height="1" fill="#E4E7ED"/>
<rect x="700" y="287" width="100" height="1" fill="#E4E7ED"/>
</g>
<rect x="700.5" y="0.5" width="99" height="335" stroke="#E4E7ED"/>
<g clip-path="url(#clip24_30290_75174)">
<rect width="200" height="48" transform="translate(800)" fill="#F2F2F2"/>
<rect x="800" y="47" width="200" height="1" fill="#E4E7ED"/>
<g clip-path="url(#clip25_30290_75174)">
<path d="M816.93 21.432H821.214V22.356H816.93V21.432ZM816.93 19.612H821.214V20.536H816.93V19.612ZM815.712 18.632V23.336H822.488V18.632H815.712ZM815.054 24.19V25.282H823.23V24.19H815.054ZM818.442 24.764V29.944L819.688 30.476V24.764H818.442ZM816.818 27.298L816.02 27.578C816.888 30.476 818.498 30.98 820.822 30.98H823.272C823.314 30.644 823.482 30.084 823.65 29.804C823.104 29.832 821.27 29.832 820.864 29.832C819.016 29.832 817.532 29.51 816.818 27.298ZM819.324 26.738V27.802H822.516V26.738H819.324ZM815.936 25.842C815.726 27.844 815.11 29.412 813.892 30.378C814.172 30.56 814.676 30.966 814.872 31.176C816.132 30.042 816.846 28.278 817.14 25.982L815.936 25.842ZM810.364 25.478L810.672 26.766C811.89 26.402 813.444 25.912 814.9 25.45L814.718 24.246C813.122 24.722 811.47 25.212 810.364 25.478ZM810.504 20.942V22.16H814.858V20.942H810.504ZM812.142 18.198V29.58C812.142 29.776 812.086 29.832 811.918 29.832C811.75 29.846 811.232 29.846 810.658 29.832C810.826 30.182 810.98 30.728 811.022 31.05C811.904 31.05 812.492 31.008 812.856 30.798C813.248 30.602 813.374 30.252 813.374 29.594V18.198H812.142ZM830.272 21.222V31.162H831.644V21.222H830.272ZM827.29 23.98H834.766V25.254H827.29V23.98ZM827.29 21.698H834.766V22.958H827.29V21.698ZM826.002 20.592V26.36H836.124V20.592H826.002ZM824.714 27.508V28.74H837.314V27.508H824.714ZM827.178 18.772C827.724 19.416 828.326 20.326 828.592 20.886L829.796 20.312C829.516 19.724 828.858 18.87 828.312 18.24L827.178 18.772ZM833.758 18.268C833.422 19.052 832.792 20.13 832.274 20.816L833.436 21.236C833.954 20.606 834.64 19.626 835.214 18.716L833.758 18.268ZM843.614 20.2V21.432H851.342V20.2H843.614ZM845.392 21.642C844.874 22.594 843.964 23.756 843.068 24.484C843.348 24.68 843.782 25.044 843.992 25.296C844.916 24.498 845.896 23.308 846.568 22.174L845.392 21.642ZM847.996 22.258C848.906 23.126 849.956 24.372 850.39 25.212L851.37 24.372C850.894 23.56 849.816 22.37 848.906 21.516L847.996 22.258ZM845.784 24.176L844.636 24.47C845.756 27.648 847.702 30 850.726 31.092C850.922 30.728 851.314 30.182 851.622 29.916C848.738 29.02 846.736 26.892 845.784 24.176ZM845.98 18.534C846.414 19.066 846.862 19.836 847.058 20.34L848.262 19.794C848.052 19.304 847.59 18.604 847.128 18.072L845.98 18.534ZM838.798 21.068V22.3H843.264V21.068H838.798ZM840.548 18.184V31.176H841.766V18.184H840.548ZM840.422 21.852C840.058 23.784 839.232 26.164 838.336 27.41C838.56 27.746 838.868 28.334 838.994 28.698C839.932 27.242 840.772 24.428 841.164 22.146L840.422 21.852ZM841.738 22.776L841.136 23.308C841.514 23.994 842.382 25.744 842.69 26.57L843.46 25.576C843.208 25.128 842.046 23.196 841.738 22.776ZM848.528 24.134C847.744 26.948 845.854 28.992 842.97 30.182C843.236 30.406 843.628 30.91 843.81 31.19C846.904 29.874 848.85 27.662 849.802 24.456L848.528 24.134ZM861.646 28.376C862.64 29.174 863.942 30.322 864.558 31.05L865.566 30.182C864.922 29.468 863.592 28.362 862.598 27.606L861.646 28.376ZM862.948 22.23C861.982 24.12 859.882 26.01 857.474 27.06C857.712 27.312 858.062 27.774 858.216 28.068C860.778 26.878 862.948 24.862 864.208 22.65L862.948 22.23ZM863.9 24.806C862.71 27.116 860.05 29.09 856.774 30.084C857.012 30.364 857.39 30.882 857.544 31.19C860.988 30.056 863.718 27.942 865.258 25.296L863.9 24.806ZM857.572 19.99V21.208H865.44V19.99H857.572ZM858.048 24.988C858.048 24.638 859.588 24.19 859.588 24.19C860.218 23.322 861.268 21.586 861.842 20.634H860.442C860.064 21.278 859.028 22.972 858.706 23.322C858.468 23.588 858.02 23.686 857.712 23.756C857.824 24.036 858.006 24.666 858.048 24.988ZM858.048 24.988C858.384 24.848 858.916 24.764 862.388 24.54C862.444 24.274 862.612 23.77 862.766 23.448L858.706 23.658L858.034 24.036L858.048 24.988ZM860.47 18.478C860.792 19.094 861.086 19.92 861.184 20.452L862.5 20.004C862.402 19.486 862.038 18.688 861.702 18.1L860.47 18.478ZM852.714 20.858V22.076H857.292V20.858H852.714ZM854.52 18.184V31.176H855.78V18.184H854.52ZM854.548 21.712C854.17 23.602 853.302 25.94 852.378 27.158C852.602 27.494 852.91 28.096 853.036 28.474C854.016 27.032 854.898 24.274 855.304 21.992L854.548 21.712ZM855.71 22.51L855.108 22.986C855.472 23.616 856.326 25.254 856.634 26.01L857.418 25.1C857.166 24.666 856.032 22.902 855.71 22.51ZM875.73 24.596C875.002 25.282 873.602 25.898 872.384 26.248C872.636 26.444 872.944 26.766 873.112 27.018C874.428 26.584 875.842 25.884 876.71 25.002L875.73 24.596ZM877.074 25.968C876.136 26.934 874.302 27.69 872.538 28.068C872.776 28.306 873.042 28.67 873.196 28.922C875.1 28.418 876.962 27.564 878.054 26.374L877.074 25.968ZM878.264 27.494C877.032 28.894 874.512 29.72 871.796 30.112C872.048 30.392 872.342 30.84 872.468 31.162C875.394 30.63 877.97 29.664 879.398 27.97L878.264 27.494ZM873.84 18.17C873.294 19.654 872.314 21.068 871.208 21.964C871.502 22.146 871.992 22.524 872.202 22.748C873.322 21.726 874.4 20.144 875.058 18.478L873.84 18.17ZM873.91 19.668L873.266 20.746H878.012V19.668H873.91ZM873.686 20.312L872.86 20.886C873.77 22.58 875.814 24.386 878.922 25.114C879.09 24.792 879.412 24.302 879.664 24.05C876.556 23.49 874.526 21.88 873.686 20.312ZM870.242 22.132V28.908H871.348V22.132H870.242ZM869.15 18.254C868.506 20.368 867.428 22.482 866.238 23.84C866.462 24.19 866.798 24.918 866.91 25.24C868.31 23.588 869.584 21.04 870.382 18.604L869.15 18.254ZM868.002 21.852V31.176H869.262V20.662L869.22 20.634L868.002 21.852ZM877.844 19.668V19.864C876.864 22.23 874.12 23.644 871.236 24.19C871.46 24.442 871.74 24.904 871.866 25.198C874.974 24.47 877.844 22.944 879.048 19.99L878.278 19.612L878.068 19.668H877.844ZM881.456 19.248C882.212 19.962 883.178 20.956 883.626 21.586L884.564 20.648C884.102 20.032 883.094 19.08 882.352 18.408L881.456 19.248ZM880.658 22.552V23.826H883.878V22.552H880.658ZM885.628 19.318V20.648H893.482V19.318H885.628ZM889.674 19.766V29.356C889.674 29.608 889.576 29.692 889.296 29.706C889.002 29.72 887.98 29.734 887 29.678C887.224 30.056 887.476 30.714 887.546 31.12C888.862 31.12 889.758 31.078 890.332 30.854C890.892 30.616 891.074 30.196 891.074 29.37V19.766H889.674ZM882.772 30.896C883.024 30.588 883.5 30.252 886.524 28.166C886.384 27.9 886.216 27.34 886.146 26.962L882.87 29.104L882.506 29.608L882.772 30.896ZM882.772 30.896C882.772 30.406 884.172 29.524 884.172 29.524V22.552H882.898V28.502C882.898 29.132 882.422 29.58 882.128 29.762C882.352 30.028 882.674 30.574 882.772 30.896Z" fill="#909399"/>
</g>
<rect width="200" height="48" transform="translate(800 48)" fill="white"/>
<rect x="800" y="95" width="200" height="1" fill="#E4E7ED"/>
<g clip-path="url(#clip26_30290_75174)">
<path d="M810.658 69.654H814.354V68.45H810.658V69.654Z" fill="#909399"/>
</g>
<rect width="200" height="48" transform="translate(800 96)" fill="white"/>
<rect x="800" y="143" width="200" height="1" fill="#E4E7ED"/>
<rect width="200" height="48" transform="translate(800 144)" fill="white"/>
<rect x="800" y="191" width="200" height="1" fill="#E4E7ED"/>
<rect width="200" height="48" transform="translate(800 192)" fill="white"/>
<rect x="800" y="239" width="200" height="1" fill="#E4E7ED"/>
<rect width="200" height="48" transform="translate(800 240)" fill="white"/>
<rect x="800" y="287" width="200" height="1" fill="#E4E7ED"/>
<rect width="200" height="48" transform="translate(800 288)" fill="white"/>
</g>
<rect x="800.5" y="0.5" width="199" height="335" stroke="#E4E7ED"/>
<g clip-path="url(#clip27_30290_75174)">
<rect width="100" height="48" transform="translate(1000)" fill="#F2F2F2"/>
<rect x="1000" y="47" width="100" height="1" fill="#E4E7ED"/>
<g clip-path="url(#clip28_30290_75174)">
<path d="M1015.01 20.116V21.32H1023.37V20.116H1015.01ZM1016.82 18.184V23.042H1018.09V18.184H1016.82ZM1020.33 18.184V23.042H1021.61V18.184H1020.33ZM1015.57 23.588V31.134H1016.78V24.75H1021.63V31.064H1022.89V23.588H1015.57ZM1016.24 26.416V27.564H1022.21V26.416H1016.24ZM1016.27 29.272V30.434H1022.24V29.272H1016.27ZM1018.58 24.134V30.112H1019.79V24.134H1018.58ZM1010.34 25.478L1010.66 26.766C1011.86 26.402 1013.4 25.926 1014.84 25.464L1014.68 24.26C1013.09 24.722 1011.44 25.212 1010.34 25.478ZM1010.55 20.942V22.16H1014.76V20.942H1010.55ZM1012.14 18.198V29.58C1012.14 29.776 1012.07 29.832 1011.9 29.832C1011.74 29.846 1011.22 29.846 1010.64 29.832C1010.81 30.182 1010.97 30.728 1011.01 31.05C1011.9 31.05 1012.48 31.008 1012.84 30.798C1013.23 30.602 1013.36 30.252 1013.36 29.594V18.198H1012.14ZM1028.47 20.83V22.076H1037.19V20.83H1028.47ZM1034.04 19.01C1034.61 19.542 1035.34 20.298 1035.68 20.774L1036.73 20.088C1036.36 19.612 1035.61 18.898 1035.05 18.394L1034.04 19.01ZM1032.18 18.324V28.978H1033.51V18.324H1032.18ZM1027.79 23.196H1024.6V24.428H1026.52V28.796H1027.79V23.196ZM1024.81 19.388C1025.55 20.2 1026.46 21.32 1026.86 22.034L1027.98 21.32C1027.54 20.606 1026.6 19.542 1025.86 18.772L1024.81 19.388ZM1027.23 28.236C1026.46 28.236 1025.44 28.936 1024.46 29.86L1025.29 30.994C1025.99 30.168 1026.72 29.384 1027.22 29.384C1027.56 29.384 1028 29.79 1028.62 30.112C1029.63 30.658 1030.83 30.812 1032.5 30.812C1033.84 30.812 1036.19 30.728 1037.16 30.658C1037.19 30.308 1037.38 29.678 1037.52 29.342C1036.17 29.51 1034.07 29.622 1032.54 29.622C1031.04 29.622 1029.8 29.524 1028.87 29.034C1028.07 28.614 1027.72 28.236 1027.23 28.236ZM1031.8 21.306C1031.1 23.546 1029.71 25.884 1028.21 27.074C1028.49 27.298 1028.93 27.76 1029.14 28.068C1030.69 26.668 1032.08 24.162 1032.88 21.6L1031.8 21.306ZM1032.53 22.454C1033.94 23.98 1035.59 26.108 1036.29 27.452L1037.33 26.696C1036.59 25.338 1034.86 23.294 1033.46 21.81L1032.53 22.454Z" fill="#909399"/>
</g>
<rect width="100" height="48" transform="translate(1000 48)" fill="white"/>
<rect x="1000" y="95" width="100" height="1" fill="#E4E7ED"/>
<g clip-path="url(#clip29_30290_75174)">
<path d="M1012.09 73.196C1012.69 73.196 1013.16 72.72 1013.16 72.062C1013.16 71.39 1012.69 70.928 1012.09 70.928C1011.47 70.928 1011.01 71.39 1011.01 72.062C1011.01 72.72 1011.47 73.196 1012.09 73.196ZM1016.26 73.196C1016.86 73.196 1017.33 72.72 1017.33 72.062C1017.33 71.39 1016.86 70.928 1016.26 70.928C1015.64 70.928 1015.18 71.39 1015.18 72.062C1015.18 72.72 1015.64 73.196 1016.26 73.196ZM1020.43 73.196C1021.03 73.196 1021.5 72.72 1021.5 72.062C1021.5 71.39 1021.03 70.928 1020.43 70.928C1019.81 70.928 1019.35 71.39 1019.35 72.062C1019.35 72.72 1019.81 73.196 1020.43 73.196ZM1024.6 73.196C1025.2 73.196 1025.67 72.72 1025.67 72.062C1025.67 71.39 1025.2 70.928 1024.6 70.928C1023.98 70.928 1023.52 71.39 1023.52 72.062C1023.52 72.72 1023.98 73.196 1024.6 73.196ZM1028.77 73.196C1029.37 73.196 1029.84 72.72 1029.84 72.062C1029.84 71.39 1029.37 70.928 1028.77 70.928C1028.15 70.928 1027.69 71.39 1027.69 72.062C1027.69 72.72 1028.15 73.196 1028.77 73.196ZM1032.94 73.196C1033.54 73.196 1034.01 72.72 1034.01 72.062C1034.01 71.39 1033.54 70.928 1032.94 70.928C1032.32 70.928 1031.86 71.39 1031.86 72.062C1031.86 72.72 1032.32 73.196 1032.94 73.196Z" fill="#909399"/>
</g>
<rect x="1000" y="143" width="100" height="1" fill="#E4E7ED"/>
<rect x="1000" y="191" width="100" height="1" fill="#E4E7ED"/>
<rect x="1000" y="239" width="100" height="1" fill="#E4E7ED"/>
<rect x="1000" y="287" width="100" height="1" fill="#E4E7ED"/>
</g>
<rect x="1000.5" y="0.5" width="99" height="335" stroke="#E4E7ED"/>
<g clip-path="url(#clip30_30290_75174)">
<rect width="100" height="48" transform="translate(1100)" fill="#F2F2F2"/>
<rect x="1100" y="47" width="100" height="1" fill="#E4E7ED"/>
<g clip-path="url(#clip31_30290_75174)">
<path d="M1117.78 29.37V30.574H1122.17V29.37H1117.78ZM1117.34 25.156V31.204H1118.55V26.374H1121.47V31.148H1122.73V25.156H1117.34ZM1118.39 18.94V20.102H1121.42V18.94H1118.39ZM1117.88 18.94V20.97C1117.88 21.95 1117.71 23.07 1116.34 23.896C1116.58 24.05 1117.06 24.484 1117.22 24.708C1118.75 23.756 1119.06 22.258 1119.06 20.998V18.94H1117.88ZM1120.88 18.94V22.846C1120.88 23.98 1121.09 24.428 1122.17 24.428C1122.32 24.428 1122.67 24.428 1122.84 24.428C1123.08 24.428 1123.33 24.414 1123.5 24.358C1123.47 24.078 1123.43 23.616 1123.41 23.308C1123.26 23.364 1122.98 23.378 1122.82 23.378C1122.7 23.378 1122.38 23.378 1122.25 23.378C1122.1 23.378 1122.07 23.266 1122.07 22.86V18.94H1120.88ZM1111.96 19.906V20.956H1115.38V19.906H1111.96ZM1115.1 19.906V29.706C1115.1 29.874 1115.03 29.93 1114.89 29.93C1114.72 29.944 1114.21 29.944 1113.67 29.93C1113.84 30.224 1114 30.742 1114.03 31.064C1114.87 31.064 1115.4 31.036 1115.78 30.84C1116.15 30.63 1116.26 30.308 1116.26 29.72V19.906H1115.1ZM1111.46 19.906V25.156C1111.46 26.906 1111.37 29.118 1110.42 30.644C1110.7 30.77 1111.2 31.106 1111.41 31.302C1112.45 29.664 1112.6 27.06 1112.6 25.156V19.906H1111.46ZM1113.02 21.754C1113.33 22.37 1113.64 23.196 1113.78 23.742L1114.66 23.364C1114.52 22.846 1114.19 22.034 1113.85 21.432L1113.02 21.754ZM1113.32 18.156C1113.23 18.772 1113.02 19.654 1112.84 20.242L1113.86 20.494C1114.1 19.962 1114.4 19.15 1114.66 18.394L1113.32 18.156ZM1110.52 24.204V25.31H1115.77V24.204H1110.52ZM1112.98 26.066C1113.36 26.724 1113.77 27.606 1113.92 28.194L1114.79 27.788C1114.61 27.242 1114.2 26.374 1113.79 25.716L1112.98 26.066ZM1132.57 18.856V20.06H1136.33V18.856H1132.57ZM1132.57 22.048V23.224H1136.33V22.048H1132.57ZM1132.55 25.282V26.472H1136.36V25.282H1132.55ZM1135.76 18.856V29.608C1135.76 29.818 1135.68 29.888 1135.48 29.888C1135.27 29.902 1134.57 29.902 1133.9 29.874C1134.07 30.21 1134.25 30.798 1134.29 31.148C1135.33 31.148 1136.01 31.12 1136.45 30.91C1136.89 30.7 1137.03 30.322 1137.03 29.622V18.856H1135.76ZM1132.02 18.856V23.966C1132.02 25.982 1131.92 28.642 1130.8 30.476C1131.1 30.602 1131.64 30.994 1131.85 31.232C1133.09 29.244 1133.27 26.15 1133.27 23.966V18.856H1132.02ZM1124.66 19.962V21.124H1131.43V19.962H1124.66ZM1126.38 22.188V23.224H1129.84V22.188H1126.38ZM1126.38 24.386V25.422H1129.85V24.386H1126.38ZM1124.48 26.626V27.802H1131.39V26.626H1124.48ZM1125.81 18.352V27.074H1127.01V18.352H1125.81ZM1129.21 18.352V27.074H1130.43V18.352H1129.21ZM1126.34 28.012C1125.93 28.908 1125.2 29.818 1124.43 30.42C1124.74 30.602 1125.26 30.98 1125.51 31.204C1126.27 30.504 1127.08 29.426 1127.6 28.376L1126.34 28.012ZM1128.38 28.53C1128.93 29.188 1129.59 30.112 1129.85 30.672L1130.93 30.042C1130.62 29.468 1129.95 28.614 1129.39 27.984L1128.38 28.53ZM1143.61 20.2V21.432H1151.34V20.2H1143.61ZM1145.39 21.642C1144.87 22.594 1143.96 23.756 1143.07 24.484C1143.35 24.68 1143.78 25.044 1143.99 25.296C1144.92 24.498 1145.9 23.308 1146.57 22.174L1145.39 21.642ZM1148 22.258C1148.91 23.126 1149.96 24.372 1150.39 25.212L1151.37 24.372C1150.89 23.56 1149.82 22.37 1148.91 21.516L1148 22.258ZM1145.78 24.176L1144.64 24.47C1145.76 27.648 1147.7 30 1150.73 31.092C1150.92 30.728 1151.31 30.182 1151.62 29.916C1148.74 29.02 1146.74 26.892 1145.78 24.176ZM1145.98 18.534C1146.41 19.066 1146.86 19.836 1147.06 20.34L1148.26 19.794C1148.05 19.304 1147.59 18.604 1147.13 18.072L1145.98 18.534ZM1138.8 21.068V22.3H1143.26V21.068H1138.8ZM1140.55 18.184V31.176H1141.77V18.184H1140.55ZM1140.42 21.852C1140.06 23.784 1139.23 26.164 1138.34 27.41C1138.56 27.746 1138.87 28.334 1138.99 28.698C1139.93 27.242 1140.77 24.428 1141.16 22.146L1140.42 21.852ZM1141.74 22.776L1141.14 23.308C1141.51 23.994 1142.38 25.744 1142.69 26.57L1143.46 25.576C1143.21 25.128 1142.05 23.196 1141.74 22.776ZM1148.53 24.134C1147.74 26.948 1145.85 28.992 1142.97 30.182C1143.24 30.406 1143.63 30.91 1143.81 31.19C1146.9 29.874 1148.85 27.662 1149.8 24.456L1148.53 24.134ZM1161.65 28.376C1162.64 29.174 1163.94 30.322 1164.56 31.05L1165.57 30.182C1164.92 29.468 1163.59 28.362 1162.6 27.606L1161.65 28.376ZM1162.95 22.23C1161.98 24.12 1159.88 26.01 1157.47 27.06C1157.71 27.312 1158.06 27.774 1158.22 28.068C1160.78 26.878 1162.95 24.862 1164.21 22.65L1162.95 22.23ZM1163.9 24.806C1162.71 27.116 1160.05 29.09 1156.77 30.084C1157.01 30.364 1157.39 30.882 1157.54 31.19C1160.99 30.056 1163.72 27.942 1165.26 25.296L1163.9 24.806ZM1157.57 19.99V21.208H1165.44V19.99H1157.57ZM1158.05 24.988C1158.05 24.638 1159.59 24.19 1159.59 24.19C1160.22 23.322 1161.27 21.586 1161.84 20.634H1160.44C1160.06 21.278 1159.03 22.972 1158.71 23.322C1158.47 23.588 1158.02 23.686 1157.71 23.756C1157.82 24.036 1158.01 24.666 1158.05 24.988ZM1158.05 24.988C1158.38 24.848 1158.92 24.764 1162.39 24.54C1162.44 24.274 1162.61 23.77 1162.77 23.448L1158.71 23.658L1158.03 24.036L1158.05 24.988ZM1160.47 18.478C1160.79 19.094 1161.09 19.92 1161.18 20.452L1162.5 20.004C1162.4 19.486 1162.04 18.688 1161.7 18.1L1160.47 18.478ZM1152.71 20.858V22.076H1157.29V20.858H1152.71ZM1154.52 18.184V31.176H1155.78V18.184H1154.52ZM1154.55 21.712C1154.17 23.602 1153.3 25.94 1152.38 27.158C1152.6 27.494 1152.91 28.096 1153.04 28.474C1154.02 27.032 1154.9 24.274 1155.3 21.992L1154.55 21.712ZM1155.71 22.51L1155.11 22.986C1155.47 23.616 1156.33 25.254 1156.63 26.01L1157.42 25.1C1157.17 24.666 1156.03 22.902 1155.71 22.51Z" fill="#909399"/>
</g>
<rect width="100" height="48" transform="translate(1100 48)" fill="white"/>
<rect x="1100" y="95" width="100" height="1" fill="#E4E7ED"/>
<g clip-path="url(#clip32_30290_75174)">
<path d="M1110.94 62.15V63.508H1123.06V62.15H1110.94ZM1117.76 66.504C1119.37 67.652 1121.45 69.332 1122.42 70.424L1123.52 69.402C1122.49 68.31 1120.35 66.714 1118.76 65.65L1117.76 66.504ZM1117.36 62.64C1116.12 65.202 1113.57 67.904 1110.55 69.374C1110.83 69.682 1111.25 70.214 1111.46 70.564C1114.65 68.884 1117.22 66.084 1118.82 63.158L1117.36 62.64ZM1116.27 65.692V74.162H1117.71V64.264L1116.27 65.692ZM1132.48 62.864V68.772C1132.48 70.13 1132.79 70.536 1134.04 70.536C1134.29 70.536 1135.26 70.536 1135.52 70.536C1136.61 70.536 1136.95 69.92 1137.09 67.764C1136.73 67.666 1136.18 67.47 1135.91 67.232C1135.86 69.01 1135.79 69.318 1135.4 69.318C1135.19 69.318 1134.4 69.318 1134.23 69.318C1133.84 69.318 1133.77 69.248 1133.77 68.758V62.864H1132.48ZM1129.04 62.85C1128.98 66.518 1128.9 68.73 1126.88 70.018C1127.16 70.242 1127.56 70.732 1127.71 71.04C1130.05 69.556 1130.29 66.924 1130.33 62.85H1129.04ZM1136.96 62.024H1125.23V73.378H1137.19V72.104H1126.55V63.312H1136.96V62.024ZM1146.32 66.154V67.428H1150.39V66.154H1146.32ZM1145.69 66.154V72.132C1145.69 73.63 1146.13 74.022 1147.53 74.022C1147.83 74.022 1149.41 74.022 1149.72 74.022C1151.08 74.022 1151.44 73.35 1151.59 71.026C1151.23 70.942 1150.67 70.704 1150.38 70.48C1150.31 72.426 1150.21 72.776 1149.62 72.776C1149.27 72.776 1147.98 72.776 1147.7 72.776C1147.1 72.776 1147 72.692 1147 72.132V66.154H1145.69ZM1145.64 61.828V63.102H1149.77V68.352H1151.05V61.828H1145.64ZM1139.01 64.306V74.12H1140.06V65.412H1143.67V73.924H1144.73V64.306H1139.01ZM1139.55 69.948V70.9H1144.17V69.948H1139.55ZM1139.55 72.146V73.196H1144.17V72.146H1139.55ZM1138.7 61.716V62.892H1145.03V61.716H1138.7ZM1140.66 62.01V65.146H1141.57V62.01H1140.66ZM1142.27 62.01V65.146H1143.19V62.01H1142.27ZM1140.86 65.132V66.518C1140.86 67.232 1140.76 68.086 1140.04 68.758C1140.2 68.842 1140.46 69.08 1140.58 69.22C1141.35 68.45 1141.53 67.372 1141.53 66.532V65.132H1140.86ZM1142.17 65.132V67.904C1142.17 68.646 1142.35 68.8 1142.93 68.8C1143.04 68.8 1143.42 68.8 1143.53 68.8C1143.94 68.8 1144.15 68.66 1144.23 68.324C1144.02 68.268 1143.75 68.184 1143.6 68.058C1143.59 68.086 1143.54 68.1 1143.4 68.1C1143.33 68.1 1143.07 68.1 1143.01 68.1C1142.87 68.1 1142.86 68.072 1142.86 67.89V65.132H1142.17Z" fill="#909399"/>
</g>
<rect x="1100" y="143" width="100" height="1" fill="#E4E7ED"/>
<rect x="1100" y="191" width="100" height="1" fill="#E4E7ED"/>
<rect x="1100" y="239" width="100" height="1" fill="#E4E7ED"/>
<rect x="1100" y="287" width="100" height="1" fill="#E4E7ED"/>
</g>
<rect x="1100.5" y="0.5" width="99" height="335" stroke="#E4E7ED"/>
<g clip-path="url(#clip33_30290_75174)">
<rect width="200" height="48" transform="translate(1200)" fill="#F2F2F2"/>
<rect x="1200" y="47" width="200" height="1" fill="#E4E7ED"/>
<g clip-path="url(#clip34_30290_75174)">
<path d="M1217.78 29.37V30.574H1222.17V29.37H1217.78ZM1217.34 25.156V31.204H1218.55V26.374H1221.47V31.148H1222.73V25.156H1217.34ZM1218.39 18.94V20.102H1221.42V18.94H1218.39ZM1217.88 18.94V20.97C1217.88 21.95 1217.71 23.07 1216.34 23.896C1216.58 24.05 1217.06 24.484 1217.22 24.708C1218.75 23.756 1219.06 22.258 1219.06 20.998V18.94H1217.88ZM1220.88 18.94V22.846C1220.88 23.98 1221.09 24.428 1222.17 24.428C1222.32 24.428 1222.67 24.428 1222.84 24.428C1223.08 24.428 1223.33 24.414 1223.5 24.358C1223.47 24.078 1223.43 23.616 1223.41 23.308C1223.26 23.364 1222.98 23.378 1222.82 23.378C1222.7 23.378 1222.38 23.378 1222.25 23.378C1222.1 23.378 1222.07 23.266 1222.07 22.86V18.94H1220.88ZM1211.96 19.906V20.956H1215.38V19.906H1211.96ZM1215.1 19.906V29.706C1215.1 29.874 1215.03 29.93 1214.89 29.93C1214.72 29.944 1214.21 29.944 1213.67 29.93C1213.84 30.224 1214 30.742 1214.03 31.064C1214.87 31.064 1215.4 31.036 1215.78 30.84C1216.15 30.63 1216.26 30.308 1216.26 29.72V19.906H1215.1ZM1211.46 19.906V25.156C1211.46 26.906 1211.37 29.118 1210.42 30.644C1210.7 30.77 1211.2 31.106 1211.41 31.302C1212.45 29.664 1212.6 27.06 1212.6 25.156V19.906H1211.46ZM1213.02 21.754C1213.33 22.37 1213.64 23.196 1213.78 23.742L1214.66 23.364C1214.52 22.846 1214.19 22.034 1213.85 21.432L1213.02 21.754ZM1213.32 18.156C1213.23 18.772 1213.02 19.654 1212.84 20.242L1213.86 20.494C1214.1 19.962 1214.4 19.15 1214.66 18.394L1213.32 18.156ZM1210.52 24.204V25.31H1215.77V24.204H1210.52ZM1212.98 26.066C1213.36 26.724 1213.77 27.606 1213.92 28.194L1214.79 27.788C1214.61 27.242 1214.2 26.374 1213.79 25.716L1212.98 26.066ZM1232.57 18.856V20.06H1236.33V18.856H1232.57ZM1232.57 22.048V23.224H1236.33V22.048H1232.57ZM1232.55 25.282V26.472H1236.36V25.282H1232.55ZM1235.76 18.856V29.608C1235.76 29.818 1235.68 29.888 1235.48 29.888C1235.27 29.902 1234.57 29.902 1233.9 29.874C1234.07 30.21 1234.25 30.798 1234.29 31.148C1235.33 31.148 1236.01 31.12 1236.45 30.91C1236.89 30.7 1237.03 30.322 1237.03 29.622V18.856H1235.76ZM1232.02 18.856V23.966C1232.02 25.982 1231.92 28.642 1230.8 30.476C1231.1 30.602 1231.64 30.994 1231.85 31.232C1233.09 29.244 1233.27 26.15 1233.27 23.966V18.856H1232.02ZM1224.66 19.962V21.124H1231.43V19.962H1224.66ZM1226.38 22.188V23.224H1229.84V22.188H1226.38ZM1226.38 24.386V25.422H1229.85V24.386H1226.38ZM1224.48 26.626V27.802H1231.39V26.626H1224.48ZM1225.81 18.352V27.074H1227.01V18.352H1225.81ZM1229.21 18.352V27.074H1230.43V18.352H1229.21ZM1226.34 28.012C1225.93 28.908 1225.2 29.818 1224.43 30.42C1224.74 30.602 1225.26 30.98 1225.51 31.204C1226.27 30.504 1227.08 29.426 1227.6 28.376L1226.34 28.012ZM1228.38 28.53C1228.93 29.188 1229.59 30.112 1229.85 30.672L1230.93 30.042C1230.62 29.468 1229.95 28.614 1229.39 27.984L1228.38 28.53ZM1243.61 20.2V21.432H1251.34V20.2H1243.61ZM1245.39 21.642C1244.87 22.594 1243.96 23.756 1243.07 24.484C1243.35 24.68 1243.78 25.044 1243.99 25.296C1244.92 24.498 1245.9 23.308 1246.57 22.174L1245.39 21.642ZM1248 22.258C1248.91 23.126 1249.96 24.372 1250.39 25.212L1251.37 24.372C1250.89 23.56 1249.82 22.37 1248.91 21.516L1248 22.258ZM1245.78 24.176L1244.64 24.47C1245.76 27.648 1247.7 30 1250.73 31.092C1250.92 30.728 1251.31 30.182 1251.62 29.916C1248.74 29.02 1246.74 26.892 1245.78 24.176ZM1245.98 18.534C1246.41 19.066 1246.86 19.836 1247.06 20.34L1248.26 19.794C1248.05 19.304 1247.59 18.604 1247.13 18.072L1245.98 18.534ZM1238.8 21.068V22.3H1243.26V21.068H1238.8ZM1240.55 18.184V31.176H1241.77V18.184H1240.55ZM1240.42 21.852C1240.06 23.784 1239.23 26.164 1238.34 27.41C1238.56 27.746 1238.87 28.334 1238.99 28.698C1239.93 27.242 1240.77 24.428 1241.16 22.146L1240.42 21.852ZM1241.74 22.776L1241.14 23.308C1241.51 23.994 1242.38 25.744 1242.69 26.57L1243.46 25.576C1243.21 25.128 1242.05 23.196 1241.74 22.776ZM1248.53 24.134C1247.74 26.948 1245.85 28.992 1242.97 30.182C1243.24 30.406 1243.63 30.91 1243.81 31.19C1246.9 29.874 1248.85 27.662 1249.8 24.456L1248.53 24.134ZM1261.65 28.376C1262.64 29.174 1263.94 30.322 1264.56 31.05L1265.57 30.182C1264.92 29.468 1263.59 28.362 1262.6 27.606L1261.65 28.376ZM1262.95 22.23C1261.98 24.12 1259.88 26.01 1257.47 27.06C1257.71 27.312 1258.06 27.774 1258.22 28.068C1260.78 26.878 1262.95 24.862 1264.21 22.65L1262.95 22.23ZM1263.9 24.806C1262.71 27.116 1260.05 29.09 1256.77 30.084C1257.01 30.364 1257.39 30.882 1257.54 31.19C1260.99 30.056 1263.72 27.942 1265.26 25.296L1263.9 24.806ZM1257.57 19.99V21.208H1265.44V19.99H1257.57ZM1258.05 24.988C1258.05 24.638 1259.59 24.19 1259.59 24.19C1260.22 23.322 1261.27 21.586 1261.84 20.634H1260.44C1260.06 21.278 1259.03 22.972 1258.71 23.322C1258.47 23.588 1258.02 23.686 1257.71 23.756C1257.82 24.036 1258.01 24.666 1258.05 24.988ZM1258.05 24.988C1258.38 24.848 1258.92 24.764 1262.39 24.54C1262.44 24.274 1262.61 23.77 1262.77 23.448L1258.71 23.658L1258.03 24.036L1258.05 24.988ZM1260.47 18.478C1260.79 19.094 1261.09 19.92 1261.18 20.452L1262.5 20.004C1262.4 19.486 1262.04 18.688 1261.7 18.1L1260.47 18.478ZM1252.71 20.858V22.076H1257.29V20.858H1252.71ZM1254.52 18.184V31.176H1255.78V18.184H1254.52ZM1254.55 21.712C1254.17 23.602 1253.3 25.94 1252.38 27.158C1252.6 27.494 1252.91 28.096 1253.04 28.474C1254.02 27.032 1254.9 24.274 1255.3 21.992L1254.55 21.712ZM1255.71 22.51L1255.11 22.986C1255.47 23.616 1256.33 25.254 1256.63 26.01L1257.42 25.1C1257.17 24.666 1256.03 22.902 1255.71 22.51ZM1275.73 24.596C1275 25.282 1273.6 25.898 1272.38 26.248C1272.64 26.444 1272.94 26.766 1273.11 27.018C1274.43 26.584 1275.84 25.884 1276.71 25.002L1275.73 24.596ZM1277.07 25.968C1276.14 26.934 1274.3 27.69 1272.54 28.068C1272.78 28.306 1273.04 28.67 1273.2 28.922C1275.1 28.418 1276.96 27.564 1278.05 26.374L1277.07 25.968ZM1278.26 27.494C1277.03 28.894 1274.51 29.72 1271.8 30.112C1272.05 30.392 1272.34 30.84 1272.47 31.162C1275.39 30.63 1277.97 29.664 1279.4 27.97L1278.26 27.494ZM1273.84 18.17C1273.29 19.654 1272.31 21.068 1271.21 21.964C1271.5 22.146 1271.99 22.524 1272.2 22.748C1273.32 21.726 1274.4 20.144 1275.06 18.478L1273.84 18.17ZM1273.91 19.668L1273.27 20.746H1278.01V19.668H1273.91ZM1273.69 20.312L1272.86 20.886C1273.77 22.58 1275.81 24.386 1278.92 25.114C1279.09 24.792 1279.41 24.302 1279.66 24.05C1276.56 23.49 1274.53 21.88 1273.69 20.312ZM1270.24 22.132V28.908H1271.35V22.132H1270.24ZM1269.15 18.254C1268.51 20.368 1267.43 22.482 1266.24 23.84C1266.46 24.19 1266.8 24.918 1266.91 25.24C1268.31 23.588 1269.58 21.04 1270.38 18.604L1269.15 18.254ZM1268 21.852V31.176H1269.26V20.662L1269.22 20.634L1268 21.852ZM1277.84 19.668V19.864C1276.86 22.23 1274.12 23.644 1271.24 24.19C1271.46 24.442 1271.74 24.904 1271.87 25.198C1274.97 24.47 1277.84 22.944 1279.05 19.99L1278.28 19.612L1278.07 19.668H1277.84ZM1281.46 19.248C1282.21 19.962 1283.18 20.956 1283.63 21.586L1284.56 20.648C1284.1 20.032 1283.09 19.08 1282.35 18.408L1281.46 19.248ZM1280.66 22.552V23.826H1283.88V22.552H1280.66ZM1285.63 19.318V20.648H1293.48V19.318H1285.63ZM1289.67 19.766V29.356C1289.67 29.608 1289.58 29.692 1289.3 29.706C1289 29.72 1287.98 29.734 1287 29.678C1287.22 30.056 1287.48 30.714 1287.55 31.12C1288.86 31.12 1289.76 31.078 1290.33 30.854C1290.89 30.616 1291.07 30.196 1291.07 29.37V19.766H1289.67ZM1282.77 30.896C1283.02 30.588 1283.5 30.252 1286.52 28.166C1286.38 27.9 1286.22 27.34 1286.15 26.962L1282.87 29.104L1282.51 29.608L1282.77 30.896ZM1282.77 30.896C1282.77 30.406 1284.17 29.524 1284.17 29.524V22.552H1282.9V28.502C1282.9 29.132 1282.42 29.58 1282.13 29.762C1282.35 30.028 1282.67 30.574 1282.77 30.896Z" fill="#909399"/>
</g>
<rect width="200" height="48" transform="translate(1200 48)" fill="white"/>
<rect x="1200" y="95" width="200" height="1" fill="#E4E7ED"/>
<g clip-path="url(#clip35_30290_75174)">
<path d="M1217.1 62.71V63.97H1222.24V62.71H1217.1ZM1221.84 62.71V63.004C1221.27 67.918 1219.32 71.572 1216.69 73.196C1216.97 73.434 1217.34 73.868 1217.53 74.19C1220.46 72.202 1222.46 68.576 1223.1 62.892L1222.28 62.668L1222.05 62.71H1221.84ZM1218.83 63.648L1217.67 63.83C1218.43 68.492 1219.8 72.16 1222.7 74.092C1222.91 73.756 1223.31 73.28 1223.61 73.056C1220.85 71.404 1219.46 67.848 1218.83 63.648ZM1210.64 61.8V62.99H1217.03V61.8H1210.64ZM1212.21 64.726V65.86H1215.67V64.726H1212.21ZM1212.2 67.666V68.814H1215.73V67.666H1212.2ZM1211.51 62.472V71.558L1212.79 71.418V62.472H1211.51ZM1210.5 71.068L1210.78 72.342C1212.56 72.048 1215 71.628 1217.31 71.194L1217.24 70.074C1214.79 70.466 1212.17 70.858 1210.5 71.068ZM1214.8 62.458V74.162H1216.09V62.458H1214.8ZM1230.15 67.68V68.814H1235.94V67.68H1230.15ZM1230.12 70.13V71.25H1235.94V70.13H1230.12ZM1235.94 61.548C1235.62 62.388 1235.03 63.508 1234.57 64.222L1235.7 64.67C1236.18 63.984 1236.74 62.976 1237.22 62.024L1235.94 61.548ZM1228.86 62.136C1229.43 62.948 1230.01 64.04 1230.22 64.754L1231.41 64.18C1231.18 63.466 1230.57 62.416 1229.98 61.632L1228.86 62.136ZM1229.28 65.146V74.176H1230.58V66.378H1235.98V65.146H1229.28ZM1235.35 65.146V72.636C1235.35 72.818 1235.28 72.888 1235.06 72.902C1234.85 72.902 1234.11 72.902 1233.37 72.874C1233.55 73.224 1233.73 73.77 1233.79 74.12C1234.85 74.12 1235.56 74.12 1236.04 73.91C1236.5 73.7 1236.64 73.322 1236.64 72.65V65.146H1235.35ZM1232.34 61.17V65.944H1233.67V61.17H1232.34ZM1225.12 62.248C1225.99 62.71 1227.05 63.438 1227.56 63.956L1228.37 62.934C1227.84 62.416 1226.76 61.744 1225.9 61.324L1225.12 62.248ZM1224.48 65.972C1225.36 66.434 1226.45 67.162 1226.97 67.68L1227.77 66.644C1227.21 66.126 1226.1 65.454 1225.22 65.034L1224.48 65.972ZM1224.88 73.224L1226.04 74.078C1226.79 72.706 1227.61 70.998 1228.26 69.5L1227.28 68.702C1226.53 70.326 1225.57 72.146 1224.88 73.224ZM1240.48 61.898V63.102H1251.24V61.898H1240.48ZM1239.71 61.898V65.902C1239.71 68.072 1239.6 71.096 1238.39 73.224C1238.73 73.35 1239.3 73.686 1239.55 73.896C1240.83 71.642 1241.01 68.226 1241.01 65.902V61.898H1239.71ZM1243.43 67.47H1248.85V68.618H1243.43V67.47ZM1243.43 65.384H1248.85V66.518H1243.43V65.384ZM1242.13 64.362V69.64H1250.19V64.362H1242.13ZM1245.49 68.828V72.79C1245.49 72.958 1245.43 73.014 1245.22 73.014C1245.03 73.014 1244.31 73.014 1243.59 73C1243.74 73.336 1243.92 73.826 1243.96 74.176C1245.01 74.176 1245.71 74.162 1246.19 73.98C1246.65 73.798 1246.78 73.448 1246.78 72.818V68.828H1245.49ZM1245.27 63.2C1245.1 63.69 1244.79 64.362 1244.51 64.866L1245.74 65.104C1246.06 64.684 1246.46 64.054 1246.82 63.41L1245.27 63.2ZM1247.74 70.774C1248.54 71.684 1249.63 72.944 1250.15 73.686L1251.27 73.028C1250.71 72.286 1249.59 71.068 1248.79 70.214L1247.74 70.774ZM1243.1 70.2C1242.51 71.138 1241.61 72.202 1240.79 72.902C1241.11 73.07 1241.65 73.42 1241.91 73.616C1242.68 72.86 1243.66 71.656 1244.36 70.62L1243.1 70.2ZM1253.6 66.602H1254.55L1254.86 63.816L1254.91 62.164H1253.23L1253.29 63.816L1253.6 66.602ZM1256.68 66.602H1257.61L1257.95 63.816L1257.99 62.164H1256.31L1256.35 63.816L1256.68 66.602ZM1267.73 62.864V68.772C1267.73 70.13 1268.04 70.536 1269.28 70.536C1269.54 70.536 1270.5 70.536 1270.77 70.536C1271.86 70.536 1272.2 69.92 1272.34 67.764C1271.97 67.666 1271.43 67.47 1271.16 67.232C1271.1 69.01 1271.03 69.318 1270.64 69.318C1270.43 69.318 1269.65 69.318 1269.48 69.318C1269.09 69.318 1269.02 69.248 1269.02 68.758V62.864H1267.73ZM1264.29 62.85C1264.23 66.518 1264.15 68.73 1262.13 70.018C1262.41 70.242 1262.8 70.732 1262.96 71.04C1265.29 69.556 1265.53 66.924 1265.57 62.85H1264.29ZM1272.21 62.024H1260.48V73.378H1272.43V72.104H1261.79V63.312H1272.21V62.024ZM1281.56 66.154V67.428H1285.64V66.154H1281.56ZM1280.93 66.154V72.132C1280.93 73.63 1281.38 74.022 1282.78 74.022C1283.07 74.022 1284.66 74.022 1284.96 74.022C1286.32 74.022 1286.69 73.35 1286.84 71.026C1286.48 70.942 1285.92 70.704 1285.62 70.48C1285.55 72.426 1285.45 72.776 1284.87 72.776C1284.52 72.776 1283.23 72.776 1282.95 72.776C1282.35 72.776 1282.25 72.692 1282.25 72.132V66.154H1280.93ZM1280.89 61.828V63.102H1285.02V68.352H1286.29V61.828H1280.89ZM1274.25 64.306V74.12H1275.3V65.412H1278.92V73.924H1279.98V64.306H1274.25ZM1274.8 69.948V70.9H1279.42V69.948H1274.8ZM1274.8 72.146V73.196H1279.42V72.146H1274.8ZM1273.95 61.716V62.892H1280.27V61.716H1273.95ZM1275.91 62.01V65.146H1276.82V62.01H1275.91ZM1277.52 62.01V65.146H1278.44V62.01H1277.52ZM1276.1 65.132V66.518C1276.1 67.232 1276 68.086 1275.29 68.758C1275.44 68.842 1275.71 69.08 1275.82 69.22C1276.59 68.45 1276.77 67.372 1276.77 66.532V65.132H1276.1ZM1277.42 65.132V67.904C1277.42 68.646 1277.6 68.8 1278.17 68.8C1278.29 68.8 1278.66 68.8 1278.78 68.8C1279.18 68.8 1279.39 68.66 1279.48 68.324C1279.27 68.268 1279 68.184 1278.85 68.058C1278.83 68.086 1278.79 68.1 1278.65 68.1C1278.58 68.1 1278.31 68.1 1278.26 68.1C1278.12 68.1 1278.1 68.072 1278.1 67.89V65.132H1277.42ZM1288.84 66.602H1289.79L1290.1 63.816L1290.16 62.164H1288.48L1288.53 63.816L1288.84 66.602ZM1291.92 66.602H1292.86L1293.2 63.816L1293.24 62.164H1291.56L1291.6 63.816L1291.92 66.602ZM1304.22 67.596C1303.49 68.282 1302.09 68.898 1300.88 69.248C1301.13 69.444 1301.44 69.766 1301.6 70.018C1302.92 69.584 1304.33 68.884 1305.2 68.002L1304.22 67.596ZM1305.57 68.968C1304.63 69.934 1302.79 70.69 1301.03 71.068C1301.27 71.306 1301.53 71.67 1301.69 71.922C1303.59 71.418 1305.45 70.564 1306.55 69.374L1305.57 68.968ZM1306.76 70.494C1305.52 71.894 1303 72.72 1300.29 73.112C1300.54 73.392 1300.83 73.84 1300.96 74.162C1303.89 73.63 1306.46 72.664 1307.89 70.97L1306.76 70.494ZM1302.33 61.17C1301.79 62.654 1300.81 64.068 1299.7 64.964C1299.99 65.146 1300.48 65.524 1300.69 65.748C1301.81 64.726 1302.89 63.144 1303.55 61.478L1302.33 61.17ZM1302.4 62.668L1301.76 63.746H1306.5V62.668H1302.4ZM1302.18 63.312L1301.35 63.886C1302.26 65.58 1304.31 67.386 1307.41 68.114C1307.58 67.792 1307.9 67.302 1308.16 67.05C1305.05 66.49 1303.02 64.88 1302.18 63.312ZM1298.73 65.132V71.908H1299.84V65.132H1298.73ZM1297.64 61.254C1297 63.368 1295.92 65.482 1294.73 66.84C1294.95 67.19 1295.29 67.918 1295.4 68.24C1296.8 66.588 1298.08 64.04 1298.87 61.604L1297.64 61.254ZM1296.49 64.852V74.176H1297.75V63.662L1297.71 63.634L1296.49 64.852ZM1306.34 62.668V62.864C1305.36 65.23 1302.61 66.644 1299.73 67.19C1299.95 67.442 1300.23 67.904 1300.36 68.198C1303.47 67.47 1306.34 65.944 1307.54 62.99L1306.77 62.612L1306.56 62.668H1306.34ZM1309.95 62.248C1310.7 62.962 1311.67 63.956 1312.12 64.586L1313.06 63.648C1312.59 63.032 1311.59 62.08 1310.84 61.408L1309.95 62.248ZM1309.15 65.552V66.826H1312.37V65.552H1309.15ZM1314.12 62.318V63.648H1321.97V62.318H1314.12ZM1318.17 62.766V72.356C1318.17 72.608 1318.07 72.692 1317.79 72.706C1317.49 72.72 1316.47 72.734 1315.49 72.678C1315.72 73.056 1315.97 73.714 1316.04 74.12C1317.35 74.12 1318.25 74.078 1318.82 73.854C1319.38 73.616 1319.57 73.196 1319.57 72.37V62.766H1318.17ZM1311.26 73.896C1311.52 73.588 1311.99 73.252 1315.02 71.166C1314.88 70.9 1314.71 70.34 1314.64 69.962L1311.36 72.104L1311 72.608L1311.26 73.896ZM1311.26 73.896C1311.26 73.406 1312.66 72.524 1312.66 72.524V65.552H1311.39V71.502C1311.39 72.132 1310.91 72.58 1310.62 72.762C1310.84 73.028 1311.17 73.574 1311.26 73.896Z" fill="#909399"/>
</g>
<rect width="200" height="48" transform="translate(1200 96)" fill="white"/>
<rect x="1200" y="143" width="200" height="1" fill="#E4E7ED"/>
<rect width="200" height="48" transform="translate(1200 144)" fill="white"/>
<rect x="1200" y="191" width="200" height="1" fill="#E4E7ED"/>
<rect width="200" height="48" transform="translate(1200 192)" fill="white"/>
<rect x="1200" y="239" width="200" height="1" fill="#E4E7ED"/>
<rect width="200" height="48" transform="translate(1200 240)" fill="white"/>
<rect x="1200" y="287" width="200" height="1" fill="#E4E7ED"/>
<rect width="200" height="48" transform="translate(1200 288)" fill="white"/>
</g>
<rect x="1200.5" y="0.5" width="199" height="335" stroke="#E4E7ED"/>
<g clip-path="url(#clip36_30290_75174)">
<rect width="100" height="48" transform="translate(1400)" fill="#F2F2F2"/>
<rect x="1400" y="47" width="100" height="1" fill="#E4E7ED"/>
<g clip-path="url(#clip37_30290_75174)">
<path d="M1415.01 20.116V21.32H1423.37V20.116H1415.01ZM1416.82 18.184V23.042H1418.09V18.184H1416.82ZM1420.33 18.184V23.042H1421.61V18.184H1420.33ZM1415.57 23.588V31.134H1416.78V24.75H1421.63V31.064H1422.89V23.588H1415.57ZM1416.24 26.416V27.564H1422.21V26.416H1416.24ZM1416.27 29.272V30.434H1422.24V29.272H1416.27ZM1418.58 24.134V30.112H1419.79V24.134H1418.58ZM1410.34 25.478L1410.66 26.766C1411.86 26.402 1413.4 25.926 1414.84 25.464L1414.68 24.26C1413.09 24.722 1411.44 25.212 1410.34 25.478ZM1410.55 20.942V22.16H1414.76V20.942H1410.55ZM1412.14 18.198V29.58C1412.14 29.776 1412.07 29.832 1411.9 29.832C1411.74 29.846 1411.22 29.846 1410.64 29.832C1410.81 30.182 1410.97 30.728 1411.01 31.05C1411.9 31.05 1412.48 31.008 1412.84 30.798C1413.23 30.602 1413.36 30.252 1413.36 29.594V18.198H1412.14ZM1428.47 20.83V22.076H1437.19V20.83H1428.47ZM1434.04 19.01C1434.61 19.542 1435.34 20.298 1435.68 20.774L1436.73 20.088C1436.36 19.612 1435.61 18.898 1435.05 18.394L1434.04 19.01ZM1432.18 18.324V28.978H1433.51V18.324H1432.18ZM1427.79 23.196H1424.6V24.428H1426.52V28.796H1427.79V23.196ZM1424.81 19.388C1425.55 20.2 1426.46 21.32 1426.86 22.034L1427.98 21.32C1427.54 20.606 1426.6 19.542 1425.86 18.772L1424.81 19.388ZM1427.23 28.236C1426.46 28.236 1425.44 28.936 1424.46 29.86L1425.29 30.994C1425.99 30.168 1426.72 29.384 1427.22 29.384C1427.56 29.384 1428 29.79 1428.62 30.112C1429.63 30.658 1430.83 30.812 1432.5 30.812C1433.84 30.812 1436.19 30.728 1437.16 30.658C1437.19 30.308 1437.38 29.678 1437.52 29.342C1436.17 29.51 1434.07 29.622 1432.54 29.622C1431.04 29.622 1429.8 29.524 1428.87 29.034C1428.07 28.614 1427.72 28.236 1427.23 28.236ZM1431.8 21.306C1431.1 23.546 1429.71 25.884 1428.21 27.074C1428.49 27.298 1428.93 27.76 1429.14 28.068C1430.69 26.668 1432.08 24.162 1432.88 21.6L1431.8 21.306ZM1432.53 22.454C1433.94 23.98 1435.59 26.108 1436.29 27.452L1437.33 26.696C1436.59 25.338 1434.86 23.294 1433.46 21.81L1432.53 22.454Z" fill="#909399"/>
</g>
<rect width="100" height="48" transform="translate(1400 48)" fill="white"/>
<rect x="1400" y="95" width="100" height="1" fill="#E4E7ED"/>
<g clip-path="url(#clip38_30290_75174)">
<path d="M1412.09 73.196C1412.69 73.196 1413.16 72.72 1413.16 72.062C1413.16 71.39 1412.69 70.928 1412.09 70.928C1411.47 70.928 1411.01 71.39 1411.01 72.062C1411.01 72.72 1411.47 73.196 1412.09 73.196ZM1416.26 73.196C1416.86 73.196 1417.33 72.72 1417.33 72.062C1417.33 71.39 1416.86 70.928 1416.26 70.928C1415.64 70.928 1415.18 71.39 1415.18 72.062C1415.18 72.72 1415.64 73.196 1416.26 73.196ZM1420.43 73.196C1421.03 73.196 1421.5 72.72 1421.5 72.062C1421.5 71.39 1421.03 70.928 1420.43 70.928C1419.81 70.928 1419.35 71.39 1419.35 72.062C1419.35 72.72 1419.81 73.196 1420.43 73.196ZM1424.6 73.196C1425.2 73.196 1425.67 72.72 1425.67 72.062C1425.67 71.39 1425.2 70.928 1424.6 70.928C1423.98 70.928 1423.52 71.39 1423.52 72.062C1423.52 72.72 1423.98 73.196 1424.6 73.196ZM1428.77 73.196C1429.37 73.196 1429.84 72.72 1429.84 72.062C1429.84 71.39 1429.37 70.928 1428.77 70.928C1428.15 70.928 1427.69 71.39 1427.69 72.062C1427.69 72.72 1428.15 73.196 1428.77 73.196ZM1432.94 73.196C1433.54 73.196 1434.01 72.72 1434.01 72.062C1434.01 71.39 1433.54 70.928 1432.94 70.928C1432.32 70.928 1431.86 71.39 1431.86 72.062C1431.86 72.72 1432.32 73.196 1432.94 73.196Z" fill="#909399"/>
</g>
<rect x="1400" y="143" width="100" height="1" fill="#E4E7ED"/>
<rect x="1400" y="191" width="100" height="1" fill="#E4E7ED"/>
<rect x="1400" y="239" width="100" height="1" fill="#E4E7ED"/>
<rect x="1400" y="287" width="100" height="1" fill="#E4E7ED"/>
</g>
<rect x="1400.5" y="0.5" width="99" height="335" stroke="#E4E7ED"/>
<defs>
<clipPath id="clip0_30290_75174">
<rect width="100" height="336" fill="white"/>
</clipPath>
<clipPath id="clip1_30290_75174">
<rect width="28" height="22" fill="white" transform="translate(10 13)"/>
</clipPath>
<clipPath id="clip2_30290_75174">
<rect width="8" height="22" fill="white" transform="translate(10 61)"/>
</clipPath>
<clipPath id="clip3_30290_75174">
<rect x="100" width="100" height="336" fill="white"/>
</clipPath>
<clipPath id="clip4_30290_75174">
<rect width="28" height="22" fill="white" transform="translate(110 13)"/>
</clipPath>
<clipPath id="clip5_30290_75174">
<rect width="28" height="22" fill="white" transform="translate(110 56)"/>
</clipPath>
<clipPath id="clip6_30290_75174">
<rect x="200" width="100" height="336" fill="white"/>
</clipPath>
<clipPath id="clip7_30290_75174">
<rect width="56" height="22" fill="white" transform="translate(210 13)"/>
</clipPath>
<clipPath id="clip8_30290_75174">
<rect width="56" height="22" fill="white" transform="translate(210 56)"/>
</clipPath>
<clipPath id="clip9_30290_75174">
<rect x="300" width="100" height="336" fill="white"/>
</clipPath>
<clipPath id="clip10_30290_75174">
<rect width="28" height="22" fill="white" transform="translate(310 13)"/>
</clipPath>
<clipPath id="clip11_30290_75174">
<rect width="56" height="22" fill="white" transform="translate(310 56)"/>
</clipPath>
<clipPath id="clip12_30290_75174">
<rect x="400" width="100" height="336" fill="white"/>
</clipPath>
<clipPath id="clip13_30290_75174">
<rect width="28" height="22" fill="white" transform="translate(410 13)"/>
</clipPath>
<clipPath id="clip14_30290_75174">
<rect width="45" height="22" fill="white" transform="translate(410 56)"/>
</clipPath>
<clipPath id="clip15_30290_75174">
<rect x="500" width="100" height="336" fill="white"/>
</clipPath>
<clipPath id="clip16_30290_75174">
<rect width="42" height="22" fill="white" transform="translate(510 13)"/>
</clipPath>
<clipPath id="clip17_30290_75174">
<rect width="42" height="22" fill="white" transform="translate(510 56)"/>
</clipPath>
<clipPath id="clip18_30290_75174">
<rect x="600" width="100" height="336" fill="white"/>
</clipPath>
<clipPath id="clip19_30290_75174">
<rect width="56" height="22" fill="white" transform="translate(610 13)"/>
</clipPath>
<clipPath id="clip20_30290_75174">
<rect width="74" height="22" fill="white" transform="translate(610 56)"/>
</clipPath>
<clipPath id="clip21_30290_75174">
<rect x="700" width="100" height="336" fill="white"/>
</clipPath>
<clipPath id="clip22_30290_75174">
<rect width="56" height="22" fill="white" transform="translate(710 13)"/>
</clipPath>
<clipPath id="clip23_30290_75174">
<rect width="28" height="22" fill="white" transform="translate(710 56)"/>
</clipPath>
<clipPath id="clip24_30290_75174">
<rect x="800" width="200" height="336" fill="white"/>
</clipPath>
<clipPath id="clip25_30290_75174">
<rect width="84" height="22" fill="white" transform="translate(810 13)"/>
</clipPath>
<clipPath id="clip26_30290_75174">
<rect width="6" height="22" fill="white" transform="translate(810 56)"/>
</clipPath>
<clipPath id="clip27_30290_75174">
<rect x="1000" width="100" height="336" fill="white"/>
</clipPath>
<clipPath id="clip28_30290_75174">
<rect width="28" height="22" fill="white" transform="translate(1010 13)"/>
</clipPath>
<clipPath id="clip29_30290_75174">
<rect width="26" height="22" fill="white" transform="translate(1010 56)"/>
</clipPath>
<clipPath id="clip30_30290_75174">
<rect x="1100" width="100" height="336" fill="white"/>
</clipPath>
<clipPath id="clip31_30290_75174">
<rect width="56" height="22" fill="white" transform="translate(1110 13)"/>
</clipPath>
<clipPath id="clip32_30290_75174">
<rect width="42" height="22" fill="white" transform="translate(1110 56)"/>
</clipPath>
<clipPath id="clip33_30290_75174">
<rect x="1200" width="200" height="336" fill="white"/>
</clipPath>
<clipPath id="clip34_30290_75174">
<rect width="84" height="22" fill="white" transform="translate(1210 13)"/>
</clipPath>
<clipPath id="clip35_30290_75174">
<rect width="113" height="22" fill="white" transform="translate(1210 56)"/>
</clipPath>
<clipPath id="clip36_30290_75174">
<rect x="1400" width="100" height="336" fill="white"/>
</clipPath>
<clipPath id="clip37_30290_75174">
<rect width="28" height="22" fill="white" transform="translate(1410 13)"/>
</clipPath>
<clipPath id="clip38_30290_75174">
<rect width="26" height="22" fill="white" transform="translate(1410 56)"/>
</clipPath>
</defs>
</svg>
