<svg width="761" height="305" viewBox="0 0 761 305" fill="none" xmlns="http://www.w3.org/2000/svg">
<rect x="0.5" y="0.5" width="760" height="304" fill="white"/>
<path d="M80.012 41.116V42.32H88.37V41.116H80.012ZM81.818 39.184V44.042H83.092V39.184H81.818ZM85.332 39.184V44.042H86.606V39.184H85.332ZM80.572 44.588V52.134H81.776V45.75H86.634V52.064H87.894V44.588H80.572ZM81.244 47.416V48.564H87.208V47.416H81.244ZM81.272 50.272V51.434H87.236V50.272H81.272ZM83.582 45.134V51.112H84.786V45.134H83.582ZM75.336 46.478L75.658 47.766C76.862 47.402 78.402 46.926 79.844 46.464L79.676 45.26C78.094 45.722 76.442 46.212 75.336 46.478ZM75.546 41.942V43.16H79.76V41.942H75.546ZM77.142 39.198V50.58C77.142 50.776 77.072 50.832 76.904 50.832C76.736 50.846 76.218 50.846 75.644 50.832C75.812 51.182 75.966 51.728 76.008 52.05C76.904 52.05 77.478 52.008 77.842 51.798C78.234 51.602 78.36 51.252 78.36 50.594V39.198H77.142ZM93.466 41.83V43.076H102.188V41.83H93.466ZM99.038 40.01C99.612 40.542 100.34 41.298 100.676 41.774L101.726 41.088C101.362 40.612 100.606 39.898 100.046 39.394L99.038 40.01ZM97.176 39.324V49.978H98.506V39.324H97.176ZM92.794 44.196H89.602V45.428H91.52V49.796H92.794V44.196ZM89.812 40.388C90.554 41.2 91.464 42.32 91.856 43.034L92.976 42.32C92.542 41.606 91.604 40.542 90.862 39.772L89.812 40.388ZM92.234 49.236C91.464 49.236 90.442 49.936 89.462 50.86L90.288 51.994C90.988 51.168 91.716 50.384 92.22 50.384C92.556 50.384 93.004 50.79 93.62 51.112C94.628 51.658 95.832 51.812 97.498 51.812C98.842 51.812 101.194 51.728 102.16 51.658C102.188 51.308 102.384 50.678 102.524 50.342C101.166 50.51 99.066 50.622 97.54 50.622C96.042 50.622 94.796 50.524 93.872 50.034C93.074 49.614 92.724 49.236 92.234 49.236ZM96.798 42.306C96.098 44.546 94.712 46.884 93.214 48.074C93.494 48.298 93.928 48.76 94.138 49.068C95.692 47.668 97.078 45.162 97.876 42.6L96.798 42.306ZM97.526 43.454C98.94 44.98 100.592 47.108 101.292 48.452L102.328 47.696C101.586 46.338 99.864 44.294 98.464 42.81L97.526 43.454ZM106.5 44.308C107.13 44.308 107.676 43.832 107.676 43.146C107.676 42.446 107.13 41.97 106.5 41.97C105.856 41.97 105.324 42.446 105.324 43.146C105.324 43.832 105.856 44.308 106.5 44.308ZM106.5 51.084C107.13 51.084 107.676 50.608 107.676 49.922C107.676 49.222 107.13 48.746 106.5 48.746C105.856 48.746 105.324 49.222 105.324 49.922C105.324 50.608 105.856 51.084 106.5 51.084Z" fill="black"/>
<g clip-path="url(#clip0_27387_66260)">
<rect x="132" y="34" width="554" height="143" rx="4" fill="white"/>
<path d="M148.484 45.206C149.226 45.864 150.15 46.788 150.584 47.376L151.298 46.62C150.85 46.06 149.912 45.178 149.17 44.562L148.484 45.206ZM149.562 56.868C149.772 56.588 150.136 56.294 152.502 54.46C152.376 54.264 152.208 53.858 152.138 53.578L149.646 55.44L149.366 55.888L149.562 56.868ZM147.574 48.636V49.658H150.29V48.636H147.574ZM149.562 56.868C149.562 56.476 150.696 55.664 150.696 55.664V48.636H149.688V54.782C149.688 55.398 149.268 55.818 149.002 55.972C149.198 56.182 149.464 56.616 149.562 56.868ZM153.678 52.29V53.046H158.578V52.29H153.678ZM152.348 45.346V46.144H160.006V45.346H152.348ZM152.684 47.04V47.81H159.572V47.04H152.684ZM151.928 48.79V49.588H160.426V48.79H151.928ZM153.664 54.18V54.95H158.606V54.18H153.664ZM152.922 50.414V57.106H153.916V51.226H158.62V50.414H152.922ZM158.298 50.414V55.93C158.298 56.112 158.242 56.168 158.046 56.168C157.864 56.182 157.192 56.182 156.478 56.154C156.604 56.42 156.744 56.812 156.786 57.064C157.78 57.078 158.41 57.064 158.802 56.91C159.194 56.756 159.306 56.476 159.306 55.944V50.414H158.298ZM155.582 44.24V49.042H156.632V44.24H155.582ZM161.644 45.92V46.886H166.124V45.92H161.644ZM164.066 48.104V57.106H164.976V48.104H164.066ZM161.574 53.676L161.812 54.656C163.044 54.362 164.626 53.956 166.138 53.55L166.068 52.654C164.402 53.046 162.722 53.438 161.574 53.676ZM161.98 51.394C161.98 51.184 162.596 50.834 162.596 50.834V50.82C163.296 49.126 163.968 46.676 164.304 44.422L163.324 44.268C163.128 46.382 162.484 48.748 162.274 49.35C162.064 49.98 161.896 50.442 161.672 50.512C161.784 50.736 161.938 51.198 161.98 51.394ZM161.98 51.394C162.092 51.268 162.512 51.184 162.946 51.184H166.096V50.232H162.54L161.98 50.498V51.394ZM167.664 47.698V48.566H172.858V47.698H167.664ZM166.81 49.476V57.078H167.678V50.33H169.876V49.476H166.81ZM169.596 49.476V56.014C169.596 56.14 169.568 56.168 169.442 56.182C169.316 56.182 168.938 56.182 168.504 56.168C168.63 56.42 168.742 56.798 168.77 57.05C169.386 57.05 169.82 57.036 170.1 56.882C170.394 56.728 170.478 56.462 170.478 56.014V49.476H169.596ZM167.426 51.436V52.234H170.212V51.436H167.426ZM167.412 53.396V54.194H170.198V53.396H167.412ZM171.276 49.742V54.81H172.088V49.742H171.276ZM173.04 49.224V55.93C173.04 56.098 172.998 56.14 172.83 56.14C172.648 56.154 172.102 56.154 171.458 56.14C171.584 56.392 171.696 56.77 171.738 57.008C172.564 57.008 173.11 56.994 173.446 56.84C173.796 56.7 173.894 56.434 173.894 55.93V49.224H173.04ZM170.212 44.198C169.288 45.682 167.552 47.054 165.858 47.838C166.11 48.062 166.39 48.384 166.544 48.622C168.294 47.726 170.044 46.214 171.08 44.59L170.212 44.198ZM170.562 44.8L169.736 45.136C170.94 46.662 172.326 47.656 173.95 48.482C174.09 48.202 174.384 47.866 174.622 47.656C173.068 46.984 171.668 46.144 170.562 44.8ZM179.13 45.444C183.33 48.342 183.162 54.292 187.964 56.98C188.034 56.658 188.3 56.084 188.496 55.804C183.82 53.018 184.254 47.74 179.774 44.548L179.13 45.444ZM181.412 47.516C180.544 51.618 178.78 54.53 175.574 56.182C175.854 56.378 176.344 56.812 176.526 57.036C179.718 55.174 181.58 52.136 182.602 47.726L181.412 47.516ZM193.998 46.256V47.222H202.314V46.256H193.998ZM195.958 44.254V49.056H196.966V44.254H195.958ZM199.458 44.254V49.056H200.48V44.254H199.458ZM194.628 49.672V57.106H195.58V50.61H200.802V57.036H201.81V49.672H194.628ZM195.146 52.542V53.466H201.278V52.542H195.146ZM195.174 55.44V56.378H201.292V55.44H195.174ZM197.694 50.092V56.098H198.66V50.092H197.694ZM189.378 51.688L189.658 52.71C190.834 52.332 192.346 51.842 193.788 51.352L193.648 50.4C192.08 50.89 190.456 51.394 189.378 51.688ZM189.574 47.068V48.048H193.746V47.068H189.574ZM191.268 44.254V55.804C191.268 56.014 191.212 56.07 191.03 56.07C190.862 56.07 190.33 56.07 189.714 56.056C189.854 56.35 189.98 56.784 190.008 57.036C190.904 57.036 191.45 57.008 191.772 56.84C192.122 56.672 192.248 56.392 192.248 55.818V44.254H191.268ZM207.48 46.984V47.964H216.146V46.984H207.48ZM212.954 45.038C213.584 45.556 214.368 46.298 214.732 46.774L215.544 46.214C215.152 45.752 214.354 45.024 213.738 44.534L212.954 45.038ZM211.274 44.38V55.062H212.324V44.38H211.274ZM206.71 49.252H203.658V50.232H205.702V54.796H206.71V49.252ZM203.938 45.332C204.708 46.116 205.632 47.208 206.024 47.908L206.906 47.334C206.472 46.634 205.534 45.584 204.778 44.842L203.938 45.332ZM206.234 54.362C205.492 54.362 204.526 55.062 203.574 55.986L204.232 56.882C204.988 56.014 205.716 55.272 206.22 55.272C206.556 55.272 206.99 55.692 207.578 56.014C208.544 56.574 209.748 56.714 211.4 56.714C212.716 56.714 215.152 56.644 216.16 56.574C216.188 56.28 216.342 55.79 216.454 55.524C215.096 55.664 213.024 55.776 211.428 55.776C209.916 55.776 208.712 55.678 207.802 55.174C207.032 54.74 206.71 54.362 206.234 54.362ZM210.966 47.362C210.21 49.658 208.74 52.052 207.228 53.228C207.466 53.41 207.802 53.774 207.97 54.026C209.524 52.668 210.994 50.148 211.82 47.614L210.966 47.362ZM211.54 48.258C213.01 49.826 214.676 52.024 215.39 53.41L216.23 52.822C215.474 51.422 213.752 49.294 212.296 47.754L211.54 48.258Z" fill="#C0C4CC"/>
<path d="M683.999 170.999L679.999 174.999" stroke="#909399"/>
<path d="M683.999 172.999L681.999 174.999" stroke="#909399"/>
<path d="M654.667 168.167C656.323 168.167 657.391 166.643 657.391 163.571C657.391 160.523 656.323 159.047 654.667 159.047C652.987 159.047 651.919 160.523 651.919 163.571C651.919 166.643 652.987 168.167 654.667 168.167ZM654.667 167.279C653.659 167.279 652.975 166.163 652.975 163.571C652.975 161.015 653.659 159.923 654.667 159.923C655.663 159.923 656.335 161.015 656.335 163.571C656.335 166.163 655.663 167.279 654.667 167.279ZM658.119 170.147H658.911L662.499 158.471H661.719L658.119 170.147ZM665.843 168.167C667.415 168.167 668.675 167.219 668.675 165.659C668.675 164.447 667.835 163.667 666.803 163.415V163.367C667.739 163.031 668.363 162.323 668.363 161.255C668.363 159.851 667.283 159.047 665.807 159.047C664.799 159.047 664.019 159.491 663.359 160.091L663.947 160.799C664.439 160.295 665.063 159.935 665.771 159.935C666.683 159.935 667.247 160.487 667.247 161.327C667.247 162.287 666.635 163.007 664.823 163.007V163.859C666.851 163.859 667.559 164.555 667.559 165.611C667.559 166.619 666.815 167.255 665.771 167.255C664.763 167.255 664.103 166.775 663.587 166.235L663.035 166.955C663.611 167.591 664.463 168.167 665.843 168.167ZM672.679 168.167C674.335 168.167 675.403 166.643 675.403 163.571C675.403 160.523 674.335 159.047 672.679 159.047C670.999 159.047 669.931 160.523 669.931 163.571C669.931 166.643 670.999 168.167 672.679 168.167ZM672.679 167.279C671.671 167.279 670.987 166.163 670.987 163.571C670.987 161.015 671.671 159.923 672.679 159.923C673.675 159.923 674.347 161.015 674.347 163.571C674.347 166.163 673.675 167.279 672.679 167.279Z" fill="#C0C4CC"/>
</g>
<rect x="132.5" y="34.5" width="553" height="142" rx="3.5" stroke="#E4E7ED"/>
<rect width="68" height="40" transform="translate(307.5 221)" fill="#409EFF"/>
<path d="M331.126 240.322H328.116V241.582H329.796V245.768H331.126V240.322ZM328.396 236.304C329.054 237.018 329.936 238.012 330.356 238.6L331.476 237.816C331.028 237.228 330.104 236.29 329.46 235.618L328.396 236.304ZM333.604 238.684V239.874H339.078V238.684H333.604ZM332.834 236.164V239.258C332.834 240.966 332.694 243.29 331.364 244.914C331.672 245.054 332.246 245.432 332.484 245.67C333.912 243.892 334.15 241.19 334.15 239.272V236.164H332.834ZM338.882 238.684V238.908C338.154 241.834 336.026 243.934 333.534 244.802C333.8 245.068 334.136 245.558 334.276 245.88C337.062 244.774 339.302 242.548 340.184 238.922L339.372 238.642L339.134 238.684H338.882ZM339.582 235.366C338.014 235.8 335.228 236.066 332.834 236.164C332.988 236.472 333.156 237.004 333.212 237.326C335.69 237.256 338.644 236.976 340.688 236.416L339.582 235.366ZM334.276 241.316C335.97 242.702 338.224 244.662 339.302 245.866L340.324 244.928C339.176 243.766 336.838 241.876 335.2 240.546L334.276 241.316ZM330.384 245.222C329.712 245.222 328.774 245.838 327.864 246.79L328.774 248.05C329.32 247.266 329.922 246.412 330.342 246.412C330.678 246.412 331.154 246.846 331.812 247.182C332.848 247.7 334.094 247.868 335.816 247.868C337.244 247.868 339.638 247.77 340.632 247.7C340.66 247.322 340.87 246.664 341.038 246.314C339.624 246.496 337.44 246.608 335.858 246.608C334.29 246.608 333.002 246.524 332.064 246.034C331.238 245.614 330.874 245.222 330.384 245.222ZM346.918 240.182H349.914V243.052H346.918V240.182ZM345.672 239.006V244.214H351.244V239.006H345.672ZM342.578 235.716V248.176H343.95V237.06H352.994V248.176H354.422V235.716H342.578ZM343.348 246.174V247.42H353.806V246.174H343.348Z" fill="white"/>
<rect width="68" height="40" transform="translate(385.5 221)" fill="#409EFF"/>
<path d="M412.514 243.682V244.816H417.89V243.682H412.514ZM412.556 241.232V242.268H417.876V241.232H412.556ZM412.556 238.782V239.902H417.876V238.782H412.556ZM414.432 239.342V247.63H415.594V239.342H414.432ZM417.274 238.782V246.72C417.274 246.874 417.232 246.93 417.078 246.93C416.924 246.944 416.434 246.944 415.93 246.916C416.07 247.252 416.196 247.742 416.238 248.064C417.064 248.064 417.666 248.064 418.044 247.868C418.436 247.672 418.534 247.336 418.534 246.734V238.782H417.274ZM411.66 238.782V242.408C411.66 244.004 411.52 246.048 410.204 247.49C410.498 247.63 411.03 247.994 411.24 248.204C412.654 246.636 412.878 244.214 412.878 242.408V238.782H411.66ZM413.074 235.156C412.5 236.808 411.478 238.362 410.302 239.37C410.526 239.608 410.918 240.126 411.058 240.378C412.374 239.202 413.522 237.382 414.222 235.45L413.074 235.156ZM413.228 236.346L412.682 237.438H416.448V236.346H413.228ZM416.098 236.346V236.584C415.818 237.256 415.188 238.278 414.656 238.88C414.922 239.034 415.314 239.286 415.538 239.468C416.168 238.796 416.966 237.732 417.442 236.864L416.588 236.304L416.392 236.346H416.098ZM406.214 235.884V237.088H411.03V235.884H406.214ZM407.642 240.21V241.386H409.518V245.278H407.642V246.44H410.638V240.21H407.642ZM407.908 236.486C407.558 238.726 406.942 240.84 405.906 242.226C406.102 242.604 406.382 243.402 406.452 243.738C407.796 242.03 408.622 239.398 409.112 236.752L407.908 236.486ZM407.11 240.21V247.532H408.23V240.21H407.11ZM428.082 235.226C428.054 239.874 428.152 244.69 424.61 247.21C424.974 247.448 425.394 247.854 425.618 248.176C429.328 245.39 429.384 240.21 429.426 235.226H428.082ZM429.3 239.356L428.124 239.454C428.376 241.008 428.922 245.894 432.156 248.176C432.38 247.84 432.758 247.448 433.122 247.196C430.014 245.124 429.468 240.7 429.3 239.356ZM421.334 236.234C422.034 236.892 423.028 237.83 423.49 238.376L424.414 237.424C423.924 236.892 422.916 236.024 422.216 235.408L421.334 236.234ZM422.244 247.756C422.468 247.476 422.874 247.14 425.548 245.236C425.422 244.984 425.24 244.466 425.156 244.116L422.314 246.062L421.978 246.538L422.244 247.756ZM420.102 239.552V240.826H423.266V239.552H420.102ZM422.244 247.756C422.244 247.266 423.63 246.202 423.63 246.202V239.552H422.342V245.376C422.342 246.076 421.852 246.594 421.544 246.818C421.768 247.028 422.132 247.49 422.244 247.756Z" fill="white"/>
<rect x="0.5" y="0.5" width="760" height="304" stroke="black"/>
<defs>
<clipPath id="clip0_27387_66260">
<rect x="132" y="34" width="554" height="143" rx="4" fill="white"/>
</clipPath>
</defs>
</svg>
