<svg width="761" height="306" viewBox="0 0 761 306" fill="none" xmlns="http://www.w3.org/2000/svg">
<rect x="0.5" y="1" width="760" height="304" fill="white"/>
<path d="M80.012 41.616V42.82H88.37V41.616H80.012ZM81.818 39.684V44.542H83.092V39.684H81.818ZM85.332 39.684V44.542H86.606V39.684H85.332ZM80.572 45.088V52.634H81.776V46.25H86.634V52.564H87.894V45.088H80.572ZM81.244 47.916V49.064H87.208V47.916H81.244ZM81.272 50.772V51.934H87.236V50.772H81.272ZM83.582 45.634V51.612H84.786V45.634H83.582ZM75.336 46.978L75.658 48.266C76.862 47.902 78.402 47.426 79.844 46.964L79.676 45.76C78.094 46.222 76.442 46.712 75.336 46.978ZM75.546 42.442V43.66H79.76V42.442H75.546ZM77.142 39.698V51.08C77.142 51.276 77.072 51.332 76.904 51.332C76.736 51.346 76.218 51.346 75.644 51.332C75.812 51.682 75.966 52.228 76.008 52.55C76.904 52.55 77.478 52.508 77.842 52.298C78.234 52.102 78.36 51.752 78.36 51.094V39.698H77.142ZM93.466 42.33V43.576H102.188V42.33H93.466ZM99.038 40.51C99.612 41.042 100.34 41.798 100.676 42.274L101.726 41.588C101.362 41.112 100.606 40.398 100.046 39.894L99.038 40.51ZM97.176 39.824V50.478H98.506V39.824H97.176ZM92.794 44.696H89.602V45.928H91.52V50.296H92.794V44.696ZM89.812 40.888C90.554 41.7 91.464 42.82 91.856 43.534L92.976 42.82C92.542 42.106 91.604 41.042 90.862 40.272L89.812 40.888ZM92.234 49.736C91.464 49.736 90.442 50.436 89.462 51.36L90.288 52.494C90.988 51.668 91.716 50.884 92.22 50.884C92.556 50.884 93.004 51.29 93.62 51.612C94.628 52.158 95.832 52.312 97.498 52.312C98.842 52.312 101.194 52.228 102.16 52.158C102.188 51.808 102.384 51.178 102.524 50.842C101.166 51.01 99.066 51.122 97.54 51.122C96.042 51.122 94.796 51.024 93.872 50.534C93.074 50.114 92.724 49.736 92.234 49.736ZM96.798 42.806C96.098 45.046 94.712 47.384 93.214 48.574C93.494 48.798 93.928 49.26 94.138 49.568C95.692 48.168 97.078 45.662 97.876 43.1L96.798 42.806ZM97.526 43.954C98.94 45.48 100.592 47.608 101.292 48.952L102.328 48.196C101.586 46.838 99.864 44.794 98.464 43.31L97.526 43.954ZM106.5 44.808C107.13 44.808 107.676 44.332 107.676 43.646C107.676 42.946 107.13 42.47 106.5 42.47C105.856 42.47 105.324 42.946 105.324 43.646C105.324 44.332 105.856 44.808 106.5 44.808ZM106.5 51.584C107.13 51.584 107.676 51.108 107.676 50.422C107.676 49.722 107.13 49.246 106.5 49.246C105.856 49.246 105.324 49.722 105.324 50.422C105.324 51.108 105.856 51.584 106.5 51.584Z" fill="black"/>
<g clip-path="url(#clip0_29516_81096)">
<rect x="132" y="34.5" width="554" height="143" rx="4" fill="white"/>
<path d="M148.484 45.706C149.226 46.364 150.15 47.288 150.584 47.876L151.298 47.12C150.85 46.56 149.912 45.678 149.17 45.062L148.484 45.706ZM149.562 57.368C149.772 57.088 150.136 56.794 152.502 54.96C152.376 54.764 152.208 54.358 152.138 54.078L149.646 55.94L149.366 56.388L149.562 57.368ZM147.574 49.136V50.158H150.29V49.136H147.574ZM149.562 57.368C149.562 56.976 150.696 56.164 150.696 56.164V49.136H149.688V55.282C149.688 55.898 149.268 56.318 149.002 56.472C149.198 56.682 149.464 57.116 149.562 57.368ZM153.678 52.79V53.546H158.578V52.79H153.678ZM152.348 45.846V46.644H160.006V45.846H152.348ZM152.684 47.54V48.31H159.572V47.54H152.684ZM151.928 49.29V50.088H160.426V49.29H151.928ZM153.664 54.68V55.45H158.606V54.68H153.664ZM152.922 50.914V57.606H153.916V51.726H158.62V50.914H152.922ZM158.298 50.914V56.43C158.298 56.612 158.242 56.668 158.046 56.668C157.864 56.682 157.192 56.682 156.478 56.654C156.604 56.92 156.744 57.312 156.786 57.564C157.78 57.578 158.41 57.564 158.802 57.41C159.194 57.256 159.306 56.976 159.306 56.444V50.914H158.298ZM155.582 44.74V49.542H156.632V44.74H155.582ZM161.644 46.42V47.386H166.124V46.42H161.644ZM164.066 48.604V57.606H164.976V48.604H164.066ZM161.574 54.176L161.812 55.156C163.044 54.862 164.626 54.456 166.138 54.05L166.068 53.154C164.402 53.546 162.722 53.938 161.574 54.176ZM161.98 51.894C161.98 51.684 162.596 51.334 162.596 51.334V51.32C163.296 49.626 163.968 47.176 164.304 44.922L163.324 44.768C163.128 46.882 162.484 49.248 162.274 49.85C162.064 50.48 161.896 50.942 161.672 51.012C161.784 51.236 161.938 51.698 161.98 51.894ZM161.98 51.894C162.092 51.768 162.512 51.684 162.946 51.684H166.096V50.732H162.54L161.98 50.998V51.894ZM167.664 48.198V49.066H172.858V48.198H167.664ZM166.81 49.976V57.578H167.678V50.83H169.876V49.976H166.81ZM169.596 49.976V56.514C169.596 56.64 169.568 56.668 169.442 56.682C169.316 56.682 168.938 56.682 168.504 56.668C168.63 56.92 168.742 57.298 168.77 57.55C169.386 57.55 169.82 57.536 170.1 57.382C170.394 57.228 170.478 56.962 170.478 56.514V49.976H169.596ZM167.426 51.936V52.734H170.212V51.936H167.426ZM167.412 53.896V54.694H170.198V53.896H167.412ZM171.276 50.242V55.31H172.088V50.242H171.276ZM173.04 49.724V56.43C173.04 56.598 172.998 56.64 172.83 56.64C172.648 56.654 172.102 56.654 171.458 56.64C171.584 56.892 171.696 57.27 171.738 57.508C172.564 57.508 173.11 57.494 173.446 57.34C173.796 57.2 173.894 56.934 173.894 56.43V49.724H173.04ZM170.212 44.698C169.288 46.182 167.552 47.554 165.858 48.338C166.11 48.562 166.39 48.884 166.544 49.122C168.294 48.226 170.044 46.714 171.08 45.09L170.212 44.698ZM170.562 45.3L169.736 45.636C170.94 47.162 172.326 48.156 173.95 48.982C174.09 48.702 174.384 48.366 174.622 48.156C173.068 47.484 171.668 46.644 170.562 45.3ZM179.13 45.944C183.33 48.842 183.162 54.792 187.964 57.48C188.034 57.158 188.3 56.584 188.496 56.304C183.82 53.518 184.254 48.24 179.774 45.048L179.13 45.944ZM181.412 48.016C180.544 52.118 178.78 55.03 175.574 56.682C175.854 56.878 176.344 57.312 176.526 57.536C179.718 55.674 181.58 52.636 182.602 48.226L181.412 48.016ZM193.998 46.756V47.722H202.314V46.756H193.998ZM195.958 44.754V49.556H196.966V44.754H195.958ZM199.458 44.754V49.556H200.48V44.754H199.458ZM194.628 50.172V57.606H195.58V51.11H200.802V57.536H201.81V50.172H194.628ZM195.146 53.042V53.966H201.278V53.042H195.146ZM195.174 55.94V56.878H201.292V55.94H195.174ZM197.694 50.592V56.598H198.66V50.592H197.694ZM189.378 52.188L189.658 53.21C190.834 52.832 192.346 52.342 193.788 51.852L193.648 50.9C192.08 51.39 190.456 51.894 189.378 52.188ZM189.574 47.568V48.548H193.746V47.568H189.574ZM191.268 44.754V56.304C191.268 56.514 191.212 56.57 191.03 56.57C190.862 56.57 190.33 56.57 189.714 56.556C189.854 56.85 189.98 57.284 190.008 57.536C190.904 57.536 191.45 57.508 191.772 57.34C192.122 57.172 192.248 56.892 192.248 56.318V44.754H191.268ZM207.48 47.484V48.464H216.146V47.484H207.48ZM212.954 45.538C213.584 46.056 214.368 46.798 214.732 47.274L215.544 46.714C215.152 46.252 214.354 45.524 213.738 45.034L212.954 45.538ZM211.274 44.88V55.562H212.324V44.88H211.274ZM206.71 49.752H203.658V50.732H205.702V55.296H206.71V49.752ZM203.938 45.832C204.708 46.616 205.632 47.708 206.024 48.408L206.906 47.834C206.472 47.134 205.534 46.084 204.778 45.342L203.938 45.832ZM206.234 54.862C205.492 54.862 204.526 55.562 203.574 56.486L204.232 57.382C204.988 56.514 205.716 55.772 206.22 55.772C206.556 55.772 206.99 56.192 207.578 56.514C208.544 57.074 209.748 57.214 211.4 57.214C212.716 57.214 215.152 57.144 216.16 57.074C216.188 56.78 216.342 56.29 216.454 56.024C215.096 56.164 213.024 56.276 211.428 56.276C209.916 56.276 208.712 56.178 207.802 55.674C207.032 55.24 206.71 54.862 206.234 54.862ZM210.966 47.862C210.21 50.158 208.74 52.552 207.228 53.728C207.466 53.91 207.802 54.274 207.97 54.526C209.524 53.168 210.994 50.648 211.82 48.114L210.966 47.862ZM211.54 48.758C213.01 50.326 214.676 52.524 215.39 53.91L216.23 53.322C215.474 51.922 213.752 49.794 212.296 48.254L211.54 48.758Z" fill="#C0C4CC"/>
<path d="M683.999 171.499L679.999 175.499" stroke="#909399"/>
<path d="M683.999 173.499L681.999 175.499" stroke="#909399"/>
<path d="M654.667 168.667C656.323 168.667 657.391 167.143 657.391 164.071C657.391 161.023 656.323 159.547 654.667 159.547C652.987 159.547 651.919 161.023 651.919 164.071C651.919 167.143 652.987 168.667 654.667 168.667ZM654.667 167.779C653.659 167.779 652.975 166.663 652.975 164.071C652.975 161.515 653.659 160.423 654.667 160.423C655.663 160.423 656.335 161.515 656.335 164.071C656.335 166.663 655.663 167.779 654.667 167.779ZM658.119 170.647H658.911L662.499 158.971H661.719L658.119 170.647ZM665.843 168.667C667.415 168.667 668.675 167.719 668.675 166.159C668.675 164.947 667.835 164.167 666.803 163.915V163.867C667.739 163.531 668.363 162.823 668.363 161.755C668.363 160.351 667.283 159.547 665.807 159.547C664.799 159.547 664.019 159.991 663.359 160.591L663.947 161.299C664.439 160.795 665.063 160.435 665.771 160.435C666.683 160.435 667.247 160.987 667.247 161.827C667.247 162.787 666.635 163.507 664.823 163.507V164.359C666.851 164.359 667.559 165.055 667.559 166.111C667.559 167.119 666.815 167.755 665.771 167.755C664.763 167.755 664.103 167.275 663.587 166.735L663.035 167.455C663.611 168.091 664.463 168.667 665.843 168.667ZM672.679 168.667C674.335 168.667 675.403 167.143 675.403 164.071C675.403 161.023 674.335 159.547 672.679 159.547C670.999 159.547 669.931 161.023 669.931 164.071C669.931 167.143 670.999 168.667 672.679 168.667ZM672.679 167.779C671.671 167.779 670.987 166.663 670.987 164.071C670.987 161.515 671.671 160.423 672.679 160.423C673.675 160.423 674.347 161.515 674.347 164.071C674.347 166.663 673.675 167.779 672.679 167.779Z" fill="#C0C4CC"/>
</g>
<rect x="132.5" y="35" width="553" height="142" rx="3.5" stroke="#E4E7ED"/>
<rect width="68" height="40" transform="translate(307.5 221.5)" fill="#409EFF"/>
<path d="M331.126 240.822H328.116V242.082H329.796V246.268H331.126V240.822ZM328.396 236.804C329.054 237.518 329.936 238.512 330.356 239.1L331.476 238.316C331.028 237.728 330.104 236.79 329.46 236.118L328.396 236.804ZM333.604 239.184V240.374H339.078V239.184H333.604ZM332.834 236.664V239.758C332.834 241.466 332.694 243.79 331.364 245.414C331.672 245.554 332.246 245.932 332.484 246.17C333.912 244.392 334.15 241.69 334.15 239.772V236.664H332.834ZM338.882 239.184V239.408C338.154 242.334 336.026 244.434 333.534 245.302C333.8 245.568 334.136 246.058 334.276 246.38C337.062 245.274 339.302 243.048 340.184 239.422L339.372 239.142L339.134 239.184H338.882ZM339.582 235.866C338.014 236.3 335.228 236.566 332.834 236.664C332.988 236.972 333.156 237.504 333.212 237.826C335.69 237.756 338.644 237.476 340.688 236.916L339.582 235.866ZM334.276 241.816C335.97 243.202 338.224 245.162 339.302 246.366L340.324 245.428C339.176 244.266 336.838 242.376 335.2 241.046L334.276 241.816ZM330.384 245.722C329.712 245.722 328.774 246.338 327.864 247.29L328.774 248.55C329.32 247.766 329.922 246.912 330.342 246.912C330.678 246.912 331.154 247.346 331.812 247.682C332.848 248.2 334.094 248.368 335.816 248.368C337.244 248.368 339.638 248.27 340.632 248.2C340.66 247.822 340.87 247.164 341.038 246.814C339.624 246.996 337.44 247.108 335.858 247.108C334.29 247.108 333.002 247.024 332.064 246.534C331.238 246.114 330.874 245.722 330.384 245.722ZM346.918 240.682H349.914V243.552H346.918V240.682ZM345.672 239.506V244.714H351.244V239.506H345.672ZM342.578 236.216V248.676H343.95V237.56H352.994V248.676H354.422V236.216H342.578ZM343.348 246.674V247.92H353.806V246.674H343.348Z" fill="white"/>
<rect width="68" height="40" transform="translate(385.5 221.5)" fill="#409EFF"/>
<path d="M412.514 244.182V245.316H417.89V244.182H412.514ZM412.556 241.732V242.768H417.876V241.732H412.556ZM412.556 239.282V240.402H417.876V239.282H412.556ZM414.432 239.842V248.13H415.594V239.842H414.432ZM417.274 239.282V247.22C417.274 247.374 417.232 247.43 417.078 247.43C416.924 247.444 416.434 247.444 415.93 247.416C416.07 247.752 416.196 248.242 416.238 248.564C417.064 248.564 417.666 248.564 418.044 248.368C418.436 248.172 418.534 247.836 418.534 247.234V239.282H417.274ZM411.66 239.282V242.908C411.66 244.504 411.52 246.548 410.204 247.99C410.498 248.13 411.03 248.494 411.24 248.704C412.654 247.136 412.878 244.714 412.878 242.908V239.282H411.66ZM413.074 235.656C412.5 237.308 411.478 238.862 410.302 239.87C410.526 240.108 410.918 240.626 411.058 240.878C412.374 239.702 413.522 237.882 414.222 235.95L413.074 235.656ZM413.228 236.846L412.682 237.938H416.448V236.846H413.228ZM416.098 236.846V237.084C415.818 237.756 415.188 238.778 414.656 239.38C414.922 239.534 415.314 239.786 415.538 239.968C416.168 239.296 416.966 238.232 417.442 237.364L416.588 236.804L416.392 236.846H416.098ZM406.214 236.384V237.588H411.03V236.384H406.214ZM407.642 240.71V241.886H409.518V245.778H407.642V246.94H410.638V240.71H407.642ZM407.908 236.986C407.558 239.226 406.942 241.34 405.906 242.726C406.102 243.104 406.382 243.902 406.452 244.238C407.796 242.53 408.622 239.898 409.112 237.252L407.908 236.986ZM407.11 240.71V248.032H408.23V240.71H407.11ZM428.082 235.726C428.054 240.374 428.152 245.19 424.61 247.71C424.974 247.948 425.394 248.354 425.618 248.676C429.328 245.89 429.384 240.71 429.426 235.726H428.082ZM429.3 239.856L428.124 239.954C428.376 241.508 428.922 246.394 432.156 248.676C432.38 248.34 432.758 247.948 433.122 247.696C430.014 245.624 429.468 241.2 429.3 239.856ZM421.334 236.734C422.034 237.392 423.028 238.33 423.49 238.876L424.414 237.924C423.924 237.392 422.916 236.524 422.216 235.908L421.334 236.734ZM422.244 248.256C422.468 247.976 422.874 247.64 425.548 245.736C425.422 245.484 425.24 244.966 425.156 244.616L422.314 246.562L421.978 247.038L422.244 248.256ZM420.102 240.052V241.326H423.266V240.052H420.102ZM422.244 248.256C422.244 247.766 423.63 246.702 423.63 246.702V240.052H422.342V245.876C422.342 246.576 421.852 247.094 421.544 247.318C421.768 247.528 422.132 247.99 422.244 248.256Z" fill="white"/>
<rect x="0.5" y="1" width="760" height="304" stroke="black"/>
<defs>
<clipPath id="clip0_29516_81096">
<rect x="132" y="34.5" width="554" height="143" rx="4" fill="white"/>
</clipPath>
</defs>
</svg>
