<svg width="973" height="192" viewBox="0 0 973 192" fill="none" xmlns="http://www.w3.org/2000/svg">
<rect width="973" height="192" fill="white"/>
<g clip-path="url(#clip0_27506_73239)">
<g clip-path="url(#clip1_27506_73239)">
<rect width="114.833" height="48" fill="#F2F2F2"/>
<rect y="47" width="115" height="1" fill="#E4E7ED"/>
<g clip-path="url(#clip2_27506_73239)">
<path d="M14.088 21.782V22.846H21.06V21.782H14.088ZM13.346 25.324V26.458H22.348V25.324H13.346ZM17.476 25.772V29.734C17.476 29.93 17.406 29.972 17.126 29.986C16.874 30 15.894 30 14.942 29.972C15.124 30.322 15.334 30.826 15.39 31.19C16.636 31.19 17.504 31.204 18.064 31.008C18.638 30.826 18.806 30.476 18.806 29.762V25.772H17.476ZM21.942 25.324V25.506C21.466 26.36 20.766 27.382 20.192 28.026L21.256 28.53C21.928 27.802 22.67 26.668 23.328 25.646L22.376 25.254L22.166 25.324H21.942ZM20.654 21.782V22.034C20.052 22.762 18.778 23.784 17.672 24.33C17.882 24.512 18.218 24.862 18.386 25.086C19.73 24.442 21.158 23.378 22.138 22.37L21.284 21.712L20.99 21.782H20.654ZM12.254 19.696V20.928H23.342V19.696H12.254ZM11.61 19.696V23.56C11.61 25.604 11.512 28.488 10.35 30.49C10.658 30.63 11.232 31.008 11.47 31.232C12.702 29.076 12.898 25.786 12.898 23.56V19.696H11.61ZM15.18 24.078C16.496 24.652 18.246 25.52 19.114 26.08L19.954 25.212C19.03 24.666 17.252 23.84 15.978 23.322L15.18 24.078ZM16.51 18.464C16.79 19.052 17.14 19.85 17.294 20.326L18.666 19.892C18.484 19.43 18.12 18.66 17.812 18.1L16.51 18.464ZM27.822 19.892H34.08V21.53H27.822V19.892ZM26.506 18.73V22.692H35.48V18.73H26.506ZM24.812 23.784V24.988H37.118V23.784H24.812ZM27.486 26.332V27.536H34.5V26.332H27.486ZM34.094 26.332V26.514C33.828 28.558 33.534 29.524 33.142 29.818C32.974 29.93 32.792 29.944 32.47 29.944C32.064 29.944 31.042 29.93 30.076 29.846C30.314 30.196 30.51 30.728 30.538 31.106C31.504 31.162 32.428 31.162 32.932 31.134C33.52 31.106 33.912 31.022 34.29 30.686C34.794 30.224 35.144 29.174 35.452 26.906C35.48 26.724 35.522 26.332 35.522 26.332H34.094ZM27.808 24.274C27.5 25.338 27.052 26.668 26.674 27.536H28.2C28.494 26.752 28.928 25.506 29.222 24.47L27.808 24.274Z" fill="#909399"/>
</g>
</g>
<g clip-path="url(#clip3_27506_73239)">
<rect width="114.833" height="48" transform="translate(0 48)" fill="#F4F4F5"/>
<rect y="95" width="114.833" height="1" fill="#E4E7ED"/>
<g clip-path="url(#clip4_27506_73239)">
<path d="M11.19 78H17.084V76.67H15.068V67.696H13.85C13.248 68.06 12.576 68.312 11.596 68.48V69.502H13.458V76.67H11.19V78Z" fill="#909399"/>
</g>
</g>
<g clip-path="url(#clip5_27506_73239)">
<rect width="114.833" height="48" transform="translate(0 96)" fill="white"/>
<rect y="143" width="114.833" height="1" fill="#E4E7ED"/>
<g clip-path="url(#clip6_27506_73239)">
<path d="M10.602 126H17.266V124.628H14.69C14.186 124.628 13.528 124.684 12.996 124.74C15.18 122.64 16.776 120.582 16.776 118.608C16.776 116.732 15.558 115.514 13.668 115.514C12.324 115.514 11.414 116.088 10.518 117.054L11.442 117.936C11.988 117.306 12.66 116.802 13.472 116.802C14.62 116.802 15.208 117.572 15.208 118.678C15.208 120.372 13.654 122.374 10.602 125.062V126Z" fill="#909399"/>
</g>
</g>
<rect width="114.833" height="48" transform="translate(0 144)" fill="white"/>
<g clip-path="url(#clip7_27506_73239)">
<path d="M13.738 174.196C15.642 174.196 17.196 173.104 17.196 171.242C17.196 169.842 16.258 168.96 15.068 168.652V168.582C16.16 168.176 16.846 167.35 16.846 166.16C16.846 164.466 15.544 163.514 13.696 163.514C12.506 163.514 11.554 164.018 10.728 164.746L11.582 165.768C12.17 165.18 12.842 164.802 13.626 164.802C14.62 164.802 15.208 165.376 15.208 166.286C15.208 167.322 14.536 168.078 12.52 168.078V169.282C14.83 169.282 15.558 170.01 15.558 171.158C15.558 172.222 14.76 172.866 13.612 172.866C12.534 172.866 11.778 172.348 11.176 171.732L10.378 172.768C11.078 173.552 12.128 174.196 13.738 174.196Z" fill="#909399"/>
</g>
</g>
<rect x="0.5" y="0.5" width="113.833" height="191" stroke="#E4E7ED"/>
<g clip-path="url(#clip8_27506_73239)">
<g clip-path="url(#clip9_27506_73239)">
<rect width="164" height="48" transform="translate(114.833)" fill="#F2F2F2"/>
<rect x="114.833" y="47" width="164" height="1" fill="#E4E7ED"/>
<g clip-path="url(#clip10_27506_73239)">
<path d="M126.499 19.332V20.522H129.215V27.396H126.499V28.586H130.447V19.332H126.499ZM126.569 23.308V24.484H129.607V23.308H126.569ZM125.869 19.332V29.706H127.115V19.332H125.869ZM131.035 20.9V22.202H138.343V20.9H131.035ZM135.417 18.268V29.314C135.417 29.594 135.305 29.692 135.011 29.692C134.703 29.706 133.681 29.706 132.631 29.664C132.827 30.042 133.037 30.644 133.107 31.008C134.507 31.022 135.445 30.994 135.991 30.77C136.551 30.56 136.761 30.182 136.761 29.314V18.268H135.417ZM131.371 23.826C132.085 24.876 133.009 26.318 133.443 27.158L134.619 26.472C134.143 25.646 133.191 24.274 132.463 23.252L131.371 23.826ZM139.981 21.432V31.176H141.339V21.432H139.981ZM140.177 18.968C140.821 19.612 141.549 20.508 141.857 21.096L142.963 20.382C142.627 19.78 141.871 18.926 141.213 18.338L140.177 18.968ZM143.677 18.94V20.172H151.139V18.94H143.677ZM150.397 18.94V29.664C150.397 29.846 150.341 29.916 150.159 29.916C149.991 29.916 149.431 29.93 148.913 29.902C149.081 30.238 149.249 30.77 149.305 31.106C150.173 31.106 150.803 31.092 151.223 30.882C151.629 30.672 151.755 30.35 151.755 29.678V18.94H150.397ZM144.279 25.954H147.359V27.606H144.279V25.954ZM144.279 23.238H147.359V24.876H144.279V23.238ZM143.089 22.16V28.684H148.605V22.16H143.089Z" fill="#909399"/>
</g>
</g>
<g clip-path="url(#clip11_27506_73239)">
<rect width="164" height="48" transform="translate(114.833 48)" fill="#F4F4F5"/>
<rect x="114.833" y="95" width="164" height="1" fill="#E4E7ED"/>
<g clip-path="url(#clip12_27506_73239)">
<path d="M125.435 78H132.099V76.628H129.523C129.019 76.628 128.361 76.684 127.829 76.74C130.013 74.64 131.609 72.582 131.609 70.608C131.609 68.732 130.391 67.514 128.501 67.514C127.157 67.514 126.247 68.088 125.351 69.054L126.275 69.936C126.821 69.306 127.493 68.802 128.305 68.802C129.453 68.802 130.041 69.572 130.041 70.678C130.041 72.372 128.487 74.374 125.435 77.062V78ZM136.807 78.196C138.823 78.196 140.139 76.39 140.139 72.806C140.139 69.25 138.823 67.514 136.807 67.514C134.777 67.514 133.475 69.25 133.475 72.806C133.475 76.39 134.777 78.196 136.807 78.196ZM136.807 76.908C135.757 76.908 135.015 75.788 135.015 72.806C135.015 69.866 135.757 68.774 136.807 68.774C137.857 68.774 138.585 69.866 138.585 72.806C138.585 75.788 137.857 76.908 136.807 76.908ZM141.404 78H148.068V76.628H145.492C144.988 76.628 144.33 76.684 143.798 76.74C145.982 74.64 147.578 72.582 147.578 70.608C147.578 68.732 146.36 67.514 144.47 67.514C143.126 67.514 142.216 68.088 141.32 69.054L142.244 69.936C142.79 69.306 143.462 68.802 144.274 68.802C145.422 68.802 146.01 69.572 146.01 70.678C146.01 72.372 144.456 74.374 141.404 77.062V78ZM149.388 78H156.052V76.628H153.476C152.972 76.628 152.314 76.684 151.782 76.74C153.966 74.64 155.562 72.582 155.562 70.608C155.562 68.732 154.344 67.514 152.454 67.514C151.11 67.514 150.2 68.088 149.304 69.054L150.228 69.936C150.774 69.306 151.446 68.802 152.258 68.802C153.406 68.802 153.994 69.572 153.994 70.678C153.994 72.372 152.44 74.374 149.388 77.062V78ZM157.429 74.654H161.125V73.45H157.429V74.654ZM165.764 78.196C167.78 78.196 169.096 76.39 169.096 72.806C169.096 69.25 167.78 67.514 165.764 67.514C163.734 67.514 162.432 69.25 162.432 72.806C162.432 76.39 163.734 78.196 165.764 78.196ZM165.764 76.908C164.714 76.908 163.972 75.788 163.972 72.806C163.972 69.866 164.714 68.774 165.764 68.774C166.814 68.774 167.542 69.866 167.542 72.806C167.542 75.788 166.814 76.908 165.764 76.908ZM173.763 78.196C175.751 78.196 177.095 77.02 177.095 75.494C177.095 74.08 176.283 73.282 175.359 72.764V72.694C175.989 72.204 176.703 71.322 176.703 70.258C176.703 68.648 175.597 67.542 173.805 67.542C172.111 67.542 170.851 68.592 170.851 70.202C170.851 71.28 171.467 72.064 172.237 72.61V72.666C171.285 73.17 170.403 74.094 170.403 75.452C170.403 77.048 171.817 78.196 173.763 78.196ZM174.435 72.288C173.287 71.826 172.307 71.308 172.307 70.202C172.307 69.278 172.937 68.704 173.777 68.704C174.771 68.704 175.359 69.418 175.359 70.356C175.359 71.056 175.051 71.714 174.435 72.288ZM173.791 77.02C172.671 77.02 171.817 76.306 171.817 75.284C171.817 74.388 172.321 73.632 173.035 73.128C174.435 73.716 175.569 74.192 175.569 75.438C175.569 76.404 174.841 77.02 173.791 77.02ZM178.401 74.654H182.097V73.45H178.401V74.654ZM183.349 78H190.013V76.628H187.437C186.933 76.628 186.275 76.684 185.743 76.74C187.927 74.64 189.523 72.582 189.523 70.608C189.523 68.732 188.305 67.514 186.415 67.514C185.071 67.514 184.161 68.088 183.265 69.054L184.189 69.936C184.735 69.306 185.407 68.802 186.219 68.802C187.367 68.802 187.955 69.572 187.955 70.678C187.955 72.372 186.401 74.374 183.349 77.062V78ZM191.333 78H197.997V76.628H195.421C194.917 76.628 194.259 76.684 193.727 76.74C195.911 74.64 197.507 72.582 197.507 70.608C197.507 68.732 196.289 67.514 194.399 67.514C193.055 67.514 192.145 68.088 191.249 69.054L192.173 69.936C192.719 69.306 193.391 68.802 194.203 68.802C195.351 68.802 195.939 69.572 195.939 70.678C195.939 72.372 194.385 74.374 191.333 77.062V78ZM203.05 78H208.944V76.67H206.928V67.696H205.71C205.108 68.06 204.436 68.312 203.456 68.48V69.502H205.318V76.67H203.05V78ZM214.577 78H216.089V67.696H214.213L210.125 74.15V75.242H217.405V73.982H211.749L213.765 70.888C214.059 70.356 214.339 69.81 214.591 69.292H214.661C214.619 69.852 214.577 70.734 214.577 71.28V78ZM219.915 72.694C220.517 72.694 220.993 72.218 220.993 71.56C220.993 70.902 220.517 70.426 219.915 70.426C219.299 70.426 218.837 70.902 218.837 71.56C218.837 72.218 219.299 72.694 219.915 72.694ZM219.915 78.196C220.517 78.196 220.993 77.72 220.993 77.062C220.993 76.39 220.517 75.928 219.915 75.928C219.299 75.928 218.837 76.39 218.837 77.062C218.837 77.72 219.299 78.196 219.915 78.196ZM222.601 78H229.265V76.628H226.689C226.185 76.628 225.527 76.684 224.995 76.74C227.179 74.64 228.775 72.582 228.775 70.608C228.775 68.732 227.557 67.514 225.667 67.514C224.323 67.514 223.413 68.088 222.517 69.054L223.441 69.936C223.987 69.306 224.659 68.802 225.471 68.802C226.619 68.802 227.207 69.572 227.207 70.678C227.207 72.372 225.653 74.374 222.601 77.062V78ZM233.721 78.196C235.625 78.196 237.179 77.104 237.179 75.242C237.179 73.842 236.241 72.96 235.051 72.652V72.582C236.143 72.176 236.829 71.35 236.829 70.16C236.829 68.466 235.527 67.514 233.679 67.514C232.489 67.514 231.537 68.018 230.711 68.746L231.565 69.768C232.153 69.18 232.825 68.802 233.609 68.802C234.603 68.802 235.191 69.376 235.191 70.286C235.191 71.322 234.519 72.078 232.503 72.078V73.282C234.813 73.282 235.541 74.01 235.541 75.158C235.541 76.222 234.743 76.866 233.595 76.866C232.517 76.866 231.761 76.348 231.159 75.732L230.361 76.768C231.061 77.552 232.111 78.196 233.721 78.196ZM240.054 72.694C240.656 72.694 241.132 72.218 241.132 71.56C241.132 70.902 240.656 70.426 240.054 70.426C239.438 70.426 238.976 70.902 238.976 71.56C238.976 72.218 239.438 72.694 240.054 72.694ZM240.054 78.196C240.656 78.196 241.132 77.72 241.132 77.062C241.132 76.39 240.656 75.928 240.054 75.928C239.438 75.928 238.976 76.39 238.976 77.062C238.976 77.72 239.438 78.196 240.054 78.196ZM246.128 78.196C248.144 78.196 249.46 76.39 249.46 72.806C249.46 69.25 248.144 67.514 246.128 67.514C244.098 67.514 242.796 69.25 242.796 72.806C242.796 76.39 244.098 78.196 246.128 78.196ZM246.128 76.908C245.078 76.908 244.336 75.788 244.336 72.806C244.336 69.866 245.078 68.774 246.128 68.774C247.178 68.774 247.906 69.866 247.906 72.806C247.906 75.788 247.178 76.908 246.128 76.908ZM253.86 78.196C255.764 78.196 257.318 77.104 257.318 75.242C257.318 73.842 256.38 72.96 255.19 72.652V72.582C256.282 72.176 256.968 71.35 256.968 70.16C256.968 68.466 255.666 67.514 253.818 67.514C252.628 67.514 251.676 68.018 250.85 68.746L251.704 69.768C252.292 69.18 252.964 68.802 253.748 68.802C254.742 68.802 255.33 69.376 255.33 70.286C255.33 71.322 254.658 72.078 252.642 72.078V73.282C254.952 73.282 255.68 74.01 255.68 75.158C255.68 76.222 254.882 76.866 253.734 76.866C252.656 76.866 251.9 76.348 251.298 75.732L250.5 76.768C251.2 77.552 252.25 78.196 253.86 78.196Z" fill="#909399"/>
</g>
</g>
<g clip-path="url(#clip13_27506_73239)">
<rect width="164" height="48" transform="translate(114.833 96)" fill="white"/>
<rect x="114.833" y="143" width="164" height="1" fill="#E4E7ED"/>
<g clip-path="url(#clip14_27506_73239)">
<path d="M125.435 126H132.099V124.628H129.523C129.019 124.628 128.361 124.684 127.829 124.74C130.013 122.64 131.609 120.582 131.609 118.608C131.609 116.732 130.391 115.514 128.501 115.514C127.157 115.514 126.247 116.088 125.351 117.054L126.275 117.936C126.821 117.306 127.493 116.802 128.305 116.802C129.453 116.802 130.041 117.572 130.041 118.678C130.041 120.372 128.487 122.374 125.435 125.062V126ZM136.807 126.196C138.823 126.196 140.139 124.39 140.139 120.806C140.139 117.25 138.823 115.514 136.807 115.514C134.777 115.514 133.475 117.25 133.475 120.806C133.475 124.39 134.777 126.196 136.807 126.196ZM136.807 124.908C135.757 124.908 135.015 123.788 135.015 120.806C135.015 117.866 135.757 116.774 136.807 116.774C137.857 116.774 138.585 117.866 138.585 120.806C138.585 123.788 137.857 124.908 136.807 124.908ZM141.404 126H148.068V124.628H145.492C144.988 124.628 144.33 124.684 143.798 124.74C145.982 122.64 147.578 120.582 147.578 118.608C147.578 116.732 146.36 115.514 144.47 115.514C143.126 115.514 142.216 116.088 141.32 117.054L142.244 117.936C142.79 117.306 143.462 116.802 144.274 116.802C145.422 116.802 146.01 117.572 146.01 118.678C146.01 120.372 144.456 122.374 141.404 125.062V126ZM149.388 126H156.052V124.628H153.476C152.972 124.628 152.314 124.684 151.782 124.74C153.966 122.64 155.562 120.582 155.562 118.608C155.562 116.732 154.344 115.514 152.454 115.514C151.11 115.514 150.2 116.088 149.304 117.054L150.228 117.936C150.774 117.306 151.446 116.802 152.258 116.802C153.406 116.802 153.994 117.572 153.994 118.678C153.994 120.372 152.44 122.374 149.388 125.062V126ZM157.429 122.654H161.125V121.45H157.429V122.654ZM165.764 126.196C167.78 126.196 169.096 124.39 169.096 120.806C169.096 117.25 167.78 115.514 165.764 115.514C163.734 115.514 162.432 117.25 162.432 120.806C162.432 124.39 163.734 126.196 165.764 126.196ZM165.764 124.908C164.714 124.908 163.972 123.788 163.972 120.806C163.972 117.866 164.714 116.774 165.764 116.774C166.814 116.774 167.542 117.866 167.542 120.806C167.542 123.788 166.814 124.908 165.764 124.908ZM173.763 126.196C175.751 126.196 177.095 125.02 177.095 123.494C177.095 122.08 176.283 121.282 175.359 120.764V120.694C175.989 120.204 176.703 119.322 176.703 118.258C176.703 116.648 175.597 115.542 173.805 115.542C172.111 115.542 170.851 116.592 170.851 118.202C170.851 119.28 171.467 120.064 172.237 120.61V120.666C171.285 121.17 170.403 122.094 170.403 123.452C170.403 125.048 171.817 126.196 173.763 126.196ZM174.435 120.288C173.287 119.826 172.307 119.308 172.307 118.202C172.307 117.278 172.937 116.704 173.777 116.704C174.771 116.704 175.359 117.418 175.359 118.356C175.359 119.056 175.051 119.714 174.435 120.288ZM173.791 125.02C172.671 125.02 171.817 124.306 171.817 123.284C171.817 122.388 172.321 121.632 173.035 121.128C174.435 121.716 175.569 122.192 175.569 123.438C175.569 124.404 174.841 125.02 173.791 125.02ZM178.401 122.654H182.097V121.45H178.401V122.654ZM183.349 126H190.013V124.628H187.437C186.933 124.628 186.275 124.684 185.743 124.74C187.927 122.64 189.523 120.582 189.523 118.608C189.523 116.732 188.305 115.514 186.415 115.514C185.071 115.514 184.161 116.088 183.265 117.054L184.189 117.936C184.735 117.306 185.407 116.802 186.219 116.802C187.367 116.802 187.955 117.572 187.955 118.678C187.955 120.372 186.401 122.374 183.349 125.062V126ZM191.333 126H197.997V124.628H195.421C194.917 124.628 194.259 124.684 193.727 124.74C195.911 122.64 197.507 120.582 197.507 118.608C197.507 116.732 196.289 115.514 194.399 115.514C193.055 115.514 192.145 116.088 191.249 117.054L192.173 117.936C192.719 117.306 193.391 116.802 194.203 116.802C195.351 116.802 195.939 117.572 195.939 118.678C195.939 120.372 194.385 122.374 191.333 125.062V126ZM203.05 126H208.944V124.67H206.928V115.696H205.71C205.108 116.06 204.436 116.312 203.456 116.48V117.502H205.318V124.67H203.05V126ZM214.577 126H216.089V115.696H214.213L210.125 122.15V123.242H217.405V121.982H211.749L213.765 118.888C214.059 118.356 214.339 117.81 214.591 117.292H214.661C214.619 117.852 214.577 118.734 214.577 119.28V126ZM219.915 120.694C220.517 120.694 220.993 120.218 220.993 119.56C220.993 118.902 220.517 118.426 219.915 118.426C219.299 118.426 218.837 118.902 218.837 119.56C218.837 120.218 219.299 120.694 219.915 120.694ZM219.915 126.196C220.517 126.196 220.993 125.72 220.993 125.062C220.993 124.39 220.517 123.928 219.915 123.928C219.299 123.928 218.837 124.39 218.837 125.062C218.837 125.72 219.299 126.196 219.915 126.196ZM223.189 126H229.083V124.67H227.067V115.696H225.849C225.247 116.06 224.575 116.312 223.595 116.48V117.502H225.457V124.67H223.189V126ZM234.281 126.196C235.947 126.196 237.361 124.852 237.361 122.808C237.361 120.624 236.185 119.574 234.449 119.574C233.679 119.574 232.727 120.05 232.125 120.862L232.195 122.038C232.811 121.1 233.553 120.736 234.169 120.736C235.261 120.736 235.863 121.478 235.863 122.808C235.863 124.138 235.163 124.95 234.267 124.95C233.007 124.95 232.223 123.704 232.223 121.044C232.223 117.894 233.329 116.83 234.701 116.83C235.303 116.83 235.933 117.152 236.311 117.6L237.193 116.62C236.605 115.99 235.765 115.514 234.617 115.514C232.573 115.514 230.725 117.096 230.725 121.044C230.725 124.544 232.321 126.196 234.281 126.196ZM240.054 120.694C240.656 120.694 241.132 120.218 241.132 119.56C241.132 118.902 240.656 118.426 240.054 118.426C239.438 118.426 238.976 118.902 238.976 119.56C238.976 120.218 239.438 120.694 240.054 120.694ZM240.054 126.196C240.656 126.196 241.132 125.72 241.132 125.062C241.132 124.39 240.656 123.928 240.054 123.928C239.438 123.928 238.976 124.39 238.976 125.062C238.976 125.72 239.438 126.196 240.054 126.196ZM246.128 126.196C248.144 126.196 249.46 124.39 249.46 120.806C249.46 117.25 248.144 115.514 246.128 115.514C244.098 115.514 242.796 117.25 242.796 120.806C242.796 124.39 244.098 126.196 246.128 126.196ZM246.128 124.908C245.078 124.908 244.336 123.788 244.336 120.806C244.336 117.866 245.078 116.774 246.128 116.774C247.178 116.774 247.906 117.866 247.906 120.806C247.906 123.788 247.178 124.908 246.128 124.908ZM253.86 126.196C255.764 126.196 257.318 125.104 257.318 123.242C257.318 121.842 256.38 120.96 255.19 120.652V120.582C256.282 120.176 256.968 119.35 256.968 118.16C256.968 116.466 255.666 115.514 253.818 115.514C252.628 115.514 251.676 116.018 250.85 116.746L251.704 117.768C252.292 117.18 252.964 116.802 253.748 116.802C254.742 116.802 255.33 117.376 255.33 118.286C255.33 119.322 254.658 120.078 252.642 120.078V121.282C254.952 121.282 255.68 122.01 255.68 123.158C255.68 124.222 254.882 124.866 253.734 124.866C252.656 124.866 251.9 124.348 251.298 123.732L250.5 124.768C251.2 125.552 252.25 126.196 253.86 126.196Z" fill="#909399"/>
</g>
</g>
<rect width="164" height="48" transform="translate(114.833 144)" fill="white"/>
<g clip-path="url(#clip15_27506_73239)">
<path d="M125.435 174H132.099V172.628H129.523C129.019 172.628 128.361 172.684 127.829 172.74C130.013 170.64 131.609 168.582 131.609 166.608C131.609 164.732 130.391 163.514 128.501 163.514C127.157 163.514 126.247 164.088 125.351 165.054L126.275 165.936C126.821 165.306 127.493 164.802 128.305 164.802C129.453 164.802 130.041 165.572 130.041 166.678C130.041 168.372 128.487 170.374 125.435 173.062V174ZM136.807 174.196C138.823 174.196 140.139 172.39 140.139 168.806C140.139 165.25 138.823 163.514 136.807 163.514C134.777 163.514 133.475 165.25 133.475 168.806C133.475 172.39 134.777 174.196 136.807 174.196ZM136.807 172.908C135.757 172.908 135.015 171.788 135.015 168.806C135.015 165.866 135.757 164.774 136.807 164.774C137.857 164.774 138.585 165.866 138.585 168.806C138.585 171.788 137.857 172.908 136.807 172.908ZM141.404 174H148.068V172.628H145.492C144.988 172.628 144.33 172.684 143.798 172.74C145.982 170.64 147.578 168.582 147.578 166.608C147.578 164.732 146.36 163.514 144.47 163.514C143.126 163.514 142.216 164.088 141.32 165.054L142.244 165.936C142.79 165.306 143.462 164.802 144.274 164.802C145.422 164.802 146.01 165.572 146.01 166.678C146.01 168.372 144.456 170.374 141.404 173.062V174ZM149.388 174H156.052V172.628H153.476C152.972 172.628 152.314 172.684 151.782 172.74C153.966 170.64 155.562 168.582 155.562 166.608C155.562 164.732 154.344 163.514 152.454 163.514C151.11 163.514 150.2 164.088 149.304 165.054L150.228 165.936C150.774 165.306 151.446 164.802 152.258 164.802C153.406 164.802 153.994 165.572 153.994 166.678C153.994 168.372 152.44 170.374 149.388 173.062V174ZM157.429 170.654H161.125V169.45H157.429V170.654ZM165.764 174.196C167.78 174.196 169.096 172.39 169.096 168.806C169.096 165.25 167.78 163.514 165.764 163.514C163.734 163.514 162.432 165.25 162.432 168.806C162.432 172.39 163.734 174.196 165.764 174.196ZM165.764 172.908C164.714 172.908 163.972 171.788 163.972 168.806C163.972 165.866 164.714 164.774 165.764 164.774C166.814 164.774 167.542 165.866 167.542 168.806C167.542 171.788 166.814 172.908 165.764 172.908ZM173.763 174.196C175.751 174.196 177.095 173.02 177.095 171.494C177.095 170.08 176.283 169.282 175.359 168.764V168.694C175.989 168.204 176.703 167.322 176.703 166.258C176.703 164.648 175.597 163.542 173.805 163.542C172.111 163.542 170.851 164.592 170.851 166.202C170.851 167.28 171.467 168.064 172.237 168.61V168.666C171.285 169.17 170.403 170.094 170.403 171.452C170.403 173.048 171.817 174.196 173.763 174.196ZM174.435 168.288C173.287 167.826 172.307 167.308 172.307 166.202C172.307 165.278 172.937 164.704 173.777 164.704C174.771 164.704 175.359 165.418 175.359 166.356C175.359 167.056 175.051 167.714 174.435 168.288ZM173.791 173.02C172.671 173.02 171.817 172.306 171.817 171.284C171.817 170.388 172.321 169.632 173.035 169.128C174.435 169.716 175.569 170.192 175.569 171.438C175.569 172.404 174.841 173.02 173.791 173.02ZM178.401 170.654H182.097V169.45H178.401V170.654ZM183.349 174H190.013V172.628H187.437C186.933 172.628 186.275 172.684 185.743 172.74C187.927 170.64 189.523 168.582 189.523 166.608C189.523 164.732 188.305 163.514 186.415 163.514C185.071 163.514 184.161 164.088 183.265 165.054L184.189 165.936C184.735 165.306 185.407 164.802 186.219 164.802C187.367 164.802 187.955 165.572 187.955 166.678C187.955 168.372 186.401 170.374 183.349 173.062V174ZM191.333 174H197.997V172.628H195.421C194.917 172.628 194.259 172.684 193.727 172.74C195.911 170.64 197.507 168.582 197.507 166.608C197.507 164.732 196.289 163.514 194.399 163.514C193.055 163.514 192.145 164.088 191.249 165.054L192.173 165.936C192.719 165.306 193.391 164.802 194.203 164.802C195.351 164.802 195.939 165.572 195.939 166.678C195.939 168.372 194.385 170.374 191.333 173.062V174ZM203.05 174H208.944V172.67H206.928V163.696H205.71C205.108 164.06 204.436 164.312 203.456 164.48V165.502H205.318V172.67H203.05V174ZM214.577 174H216.089V163.696H214.213L210.125 170.15V171.242H217.405V169.982H211.749L213.765 166.888C214.059 166.356 214.339 165.81 214.591 165.292H214.661C214.619 165.852 214.577 166.734 214.577 167.28V174ZM219.915 168.694C220.517 168.694 220.993 168.218 220.993 167.56C220.993 166.902 220.517 166.426 219.915 166.426C219.299 166.426 218.837 166.902 218.837 167.56C218.837 168.218 219.299 168.694 219.915 168.694ZM219.915 174.196C220.517 174.196 220.993 173.72 220.993 173.062C220.993 172.39 220.517 171.928 219.915 171.928C219.299 171.928 218.837 172.39 218.837 173.062C218.837 173.72 219.299 174.196 219.915 174.196ZM223.189 174H229.083V172.67H227.067V163.696H225.849C225.247 164.06 224.575 164.312 223.595 164.48V165.502H225.457V172.67H223.189V174ZM233.973 174.196C235.989 174.196 237.305 172.39 237.305 168.806C237.305 165.25 235.989 163.514 233.973 163.514C231.943 163.514 230.641 165.25 230.641 168.806C230.641 172.39 231.943 174.196 233.973 174.196ZM233.973 172.908C232.923 172.908 232.181 171.788 232.181 168.806C232.181 165.866 232.923 164.774 233.973 164.774C235.023 164.774 235.751 165.866 235.751 168.806C235.751 171.788 235.023 172.908 233.973 172.908ZM240.054 168.694C240.656 168.694 241.132 168.218 241.132 167.56C241.132 166.902 240.656 166.426 240.054 166.426C239.438 166.426 238.976 166.902 238.976 167.56C238.976 168.218 239.438 168.694 240.054 168.694ZM240.054 174.196C240.656 174.196 241.132 173.72 241.132 173.062C241.132 172.39 240.656 171.928 240.054 171.928C239.438 171.928 238.976 172.39 238.976 173.062C238.976 173.72 239.438 174.196 240.054 174.196ZM246.128 174.196C248.144 174.196 249.46 172.39 249.46 168.806C249.46 165.25 248.144 163.514 246.128 163.514C244.098 163.514 242.796 165.25 242.796 168.806C242.796 172.39 244.098 174.196 246.128 174.196ZM246.128 172.908C245.078 172.908 244.336 171.788 244.336 168.806C244.336 165.866 245.078 164.774 246.128 164.774C247.178 164.774 247.906 165.866 247.906 168.806C247.906 171.788 247.178 172.908 246.128 172.908ZM253.86 174.196C255.764 174.196 257.318 173.104 257.318 171.242C257.318 169.842 256.38 168.96 255.19 168.652V168.582C256.282 168.176 256.968 167.35 256.968 166.16C256.968 164.466 255.666 163.514 253.818 163.514C252.628 163.514 251.676 164.018 250.85 164.746L251.704 165.768C252.292 165.18 252.964 164.802 253.748 164.802C254.742 164.802 255.33 165.376 255.33 166.286C255.33 167.322 254.658 168.078 252.642 168.078V169.282C254.952 169.282 255.68 170.01 255.68 171.158C255.68 172.222 254.882 172.866 253.734 172.866C252.656 172.866 251.9 172.348 251.298 171.732L250.5 172.768C251.2 173.552 252.25 174.196 253.86 174.196Z" fill="#909399"/>
</g>
</g>
<rect x="115.333" y="0.5" width="163" height="191" stroke="#E4E7ED"/>
<g clip-path="url(#clip16_27506_73239)">
<g clip-path="url(#clip17_27506_73239)">
<rect width="114.833" height="48" transform="translate(278.833)" fill="#F2F2F2"/>
<rect x="278.833" y="47" width="115" height="1" fill="#E4E7ED"/>
<g clip-path="url(#clip18_27506_73239)">
<path d="M298.563 24.596C297.835 25.282 296.435 25.898 295.217 26.248C295.469 26.444 295.777 26.766 295.945 27.018C297.261 26.584 298.675 25.884 299.543 25.002L298.563 24.596ZM299.907 25.968C298.969 26.934 297.135 27.69 295.371 28.068C295.609 28.306 295.875 28.67 296.029 28.922C297.933 28.418 299.795 27.564 300.887 26.374L299.907 25.968ZM301.097 27.494C299.865 28.894 297.345 29.72 294.629 30.112C294.881 30.392 295.175 30.84 295.301 31.162C298.227 30.63 300.803 29.664 302.231 27.97L301.097 27.494ZM296.673 18.17C296.127 19.654 295.147 21.068 294.041 21.964C294.335 22.146 294.825 22.524 295.035 22.748C296.155 21.726 297.233 20.144 297.891 18.478L296.673 18.17ZM296.743 19.668L296.099 20.746H300.845V19.668H296.743ZM296.519 20.312L295.693 20.886C296.603 22.58 298.647 24.386 301.755 25.114C301.923 24.792 302.245 24.302 302.497 24.05C299.389 23.49 297.359 21.88 296.519 20.312ZM293.075 22.132V28.908H294.181V22.132H293.075ZM291.983 18.254C291.339 20.368 290.261 22.482 289.071 23.84C289.295 24.19 289.631 24.918 289.743 25.24C291.143 23.588 292.417 21.04 293.215 18.604L291.983 18.254ZM290.835 21.852V31.176H292.095V20.662L292.053 20.634L290.835 21.852ZM300.677 19.668V19.864C299.697 22.23 296.953 23.644 294.069 24.19C294.293 24.442 294.573 24.904 294.699 25.198C297.807 24.47 300.677 22.944 301.881 19.99L301.111 19.612L300.901 19.668H300.677ZM304.289 19.248C305.045 19.962 306.011 20.956 306.459 21.586L307.397 20.648C306.935 20.032 305.927 19.08 305.185 18.408L304.289 19.248ZM303.491 22.552V23.826H306.711V22.552H303.491ZM308.461 19.318V20.648H316.315V19.318H308.461ZM312.507 19.766V29.356C312.507 29.608 312.409 29.692 312.129 29.706C311.835 29.72 310.813 29.734 309.833 29.678C310.057 30.056 310.309 30.714 310.379 31.12C311.695 31.12 312.591 31.078 313.165 30.854C313.725 30.616 313.907 30.196 313.907 29.37V19.766H312.507ZM305.605 30.896C305.857 30.588 306.333 30.252 309.357 28.166C309.217 27.9 309.049 27.34 308.979 26.962L305.703 29.104L305.339 29.608L305.605 30.896ZM305.605 30.896C305.605 30.406 307.005 29.524 307.005 29.524V22.552H305.731V28.502C305.731 29.132 305.255 29.58 304.961 29.762C305.185 30.028 305.507 30.574 305.605 30.896ZM323.007 18.226C322.951 20.48 323.119 27.088 317.337 30.084C317.757 30.378 318.191 30.798 318.429 31.148C324.337 27.844 324.435 20.886 324.505 18.226H323.007ZM324.365 19.934L323.091 20.074C323.287 21.376 323.819 28.418 329.447 31.078C329.643 30.7 330.021 30.252 330.413 29.944C324.995 27.522 324.477 20.998 324.365 19.934Z" fill="#909399"/>
</g>
</g>
<g clip-path="url(#clip19_27506_73239)">
<rect width="114.833" height="48" transform="translate(278.833 48)" fill="#F4F4F5"/>
<rect x="278.833" y="95" width="114.833" height="1" fill="#E4E7ED"/>
<g clip-path="url(#clip20_27506_73239)">
<path d="M289.561 64.642V65.846H302.133V64.642H289.561ZM290.569 62.332V63.508H301.195V62.332H290.569ZM292.977 61.184V65.23H294.307V61.184H292.977ZM297.387 61.184V65.23H298.745V61.184H297.387ZM295.147 65.314V71.124H296.505V65.314H295.147ZM292.305 69.598H299.431V70.662H292.305V69.598ZM292.305 67.666H299.431V68.702H292.305V67.666ZM291.031 66.728V71.6H300.761V66.728H291.031ZM296.995 72.496C298.535 73.042 300.131 73.714 301.083 74.176L302.049 73.294C301.013 72.832 299.291 72.174 297.751 71.656L296.995 72.496ZM293.691 71.684C292.809 72.258 291.017 72.93 289.575 73.28C289.869 73.532 290.275 73.952 290.499 74.218C291.927 73.854 293.719 73.154 294.853 72.468L293.691 71.684ZM309.301 64.978V66.056H315.587V64.978H309.301ZM312.143 66.616V74.134H313.431V66.616H312.143ZM309.483 69.332C309.483 69.08 310.393 68.66 310.393 68.66V68.646C311.177 67.386 312.045 65.538 312.633 63.76L311.331 63.466C310.883 65.118 310.071 66.868 309.805 67.316C309.553 67.806 309.329 68.114 309.091 68.17C309.217 68.492 309.413 69.08 309.483 69.332ZM309.483 69.332C309.609 69.206 310.113 69.136 310.701 69.136H315.895L315.909 67.96H310.155L309.483 68.31V69.332ZM308.811 61.884V64.558H309.945V63.074H314.845V64.558H316.021V61.884H308.811ZM308.811 70.592V71.796H316.343V70.592H308.811ZM305.409 61.408V66.728H306.501V61.408H305.409ZM303.421 66.07V67.302H308.461V66.07H303.421ZM304.457 66.742C304.415 69.612 304.303 71.824 303.239 73.14C303.533 73.336 303.883 73.742 304.051 74.036C305.311 72.496 305.507 69.962 305.535 66.742H304.457ZM303.491 62.458C303.743 63.48 304.023 64.824 304.121 65.678L305.059 65.454C304.947 64.6 304.653 63.298 304.359 62.262L303.491 62.458ZM307.551 62.178C307.369 63.172 306.991 64.6 306.669 65.468L307.509 65.706C307.845 64.866 308.251 63.522 308.601 62.43L307.551 62.178ZM306.375 73.154C306.571 72.86 306.921 72.552 308.909 70.998C308.783 70.788 308.573 70.368 308.475 70.074L306.431 71.6L306.165 72.048L306.375 73.154ZM306.375 73.154C306.375 72.734 307.383 71.88 307.383 71.88V66.77H306.291V71.082C306.291 71.754 306.011 72.146 305.787 72.328C305.983 72.51 306.277 72.93 306.375 73.154Z" fill="#909399"/>
</g>
</g>
<g clip-path="url(#clip21_27506_73239)">
<rect width="114.833" height="48" transform="translate(278.833 96)" fill="white"/>
<rect x="278.833" y="143" width="114.833" height="1" fill="#E4E7ED"/>
<g clip-path="url(#clip22_27506_73239)">
<path d="M289.561 112.642V113.846H302.133V112.642H289.561ZM290.569 110.332V111.508H301.195V110.332H290.569ZM292.977 109.184V113.23H294.307V109.184H292.977ZM297.387 109.184V113.23H298.745V109.184H297.387ZM295.147 113.314V119.124H296.505V113.314H295.147ZM292.305 117.598H299.431V118.662H292.305V117.598ZM292.305 115.666H299.431V116.702H292.305V115.666ZM291.031 114.728V119.6H300.761V114.728H291.031ZM296.995 120.496C298.535 121.042 300.131 121.714 301.083 122.176L302.049 121.294C301.013 120.832 299.291 120.174 297.751 119.656L296.995 120.496ZM293.691 119.684C292.809 120.258 291.017 120.93 289.575 121.28C289.869 121.532 290.275 121.952 290.499 122.218C291.927 121.854 293.719 121.154 294.853 120.468L293.691 119.684ZM309.301 112.978V114.056H315.587V112.978H309.301ZM312.143 114.616V122.134H313.431V114.616H312.143ZM309.483 117.332C309.483 117.08 310.393 116.66 310.393 116.66V116.646C311.177 115.386 312.045 113.538 312.633 111.76L311.331 111.466C310.883 113.118 310.071 114.868 309.805 115.316C309.553 115.806 309.329 116.114 309.091 116.17C309.217 116.492 309.413 117.08 309.483 117.332ZM309.483 117.332C309.609 117.206 310.113 117.136 310.701 117.136H315.895L315.909 115.96H310.155L309.483 116.31V117.332ZM308.811 109.884V112.558H309.945V111.074H314.845V112.558H316.021V109.884H308.811ZM308.811 118.592V119.796H316.343V118.592H308.811ZM305.409 109.408V114.728H306.501V109.408H305.409ZM303.421 114.07V115.302H308.461V114.07H303.421ZM304.457 114.742C304.415 117.612 304.303 119.824 303.239 121.14C303.533 121.336 303.883 121.742 304.051 122.036C305.311 120.496 305.507 117.962 305.535 114.742H304.457ZM303.491 110.458C303.743 111.48 304.023 112.824 304.121 113.678L305.059 113.454C304.947 112.6 304.653 111.298 304.359 110.262L303.491 110.458ZM307.551 110.178C307.369 111.172 306.991 112.6 306.669 113.468L307.509 113.706C307.845 112.866 308.251 111.522 308.601 110.43L307.551 110.178ZM306.375 121.154C306.571 120.86 306.921 120.552 308.909 118.998C308.783 118.788 308.573 118.368 308.475 118.074L306.431 119.6L306.165 120.048L306.375 121.154ZM306.375 121.154C306.375 120.734 307.383 119.88 307.383 119.88V114.77H306.291V119.082C306.291 119.754 306.011 120.146 305.787 120.328C305.983 120.51 306.277 120.93 306.375 121.154Z" fill="#909399"/>
</g>
</g>
<rect width="114.833" height="48" transform="translate(278.833 144)" fill="white"/>
<g clip-path="url(#clip23_27506_73239)">
<path d="M289.561 160.642V161.846H302.133V160.642H289.561ZM290.569 158.332V159.508H301.195V158.332H290.569ZM292.977 157.184V161.23H294.307V157.184H292.977ZM297.387 157.184V161.23H298.745V157.184H297.387ZM295.147 161.314V167.124H296.505V161.314H295.147ZM292.305 165.598H299.431V166.662H292.305V165.598ZM292.305 163.666H299.431V164.702H292.305V163.666ZM291.031 162.728V167.6H300.761V162.728H291.031ZM296.995 168.496C298.535 169.042 300.131 169.714 301.083 170.176L302.049 169.294C301.013 168.832 299.291 168.174 297.751 167.656L296.995 168.496ZM293.691 167.684C292.809 168.258 291.017 168.93 289.575 169.28C289.869 169.532 290.275 169.952 290.499 170.218C291.927 169.854 293.719 169.154 294.853 168.468L293.691 167.684ZM309.301 160.978V162.056H315.587V160.978H309.301ZM312.143 162.616V170.134H313.431V162.616H312.143ZM309.483 165.332C309.483 165.08 310.393 164.66 310.393 164.66V164.646C311.177 163.386 312.045 161.538 312.633 159.76L311.331 159.466C310.883 161.118 310.071 162.868 309.805 163.316C309.553 163.806 309.329 164.114 309.091 164.17C309.217 164.492 309.413 165.08 309.483 165.332ZM309.483 165.332C309.609 165.206 310.113 165.136 310.701 165.136H315.895L315.909 163.96H310.155L309.483 164.31V165.332ZM308.811 157.884V160.558H309.945V159.074H314.845V160.558H316.021V157.884H308.811ZM308.811 166.592V167.796H316.343V166.592H308.811ZM305.409 157.408V162.728H306.501V157.408H305.409ZM303.421 162.07V163.302H308.461V162.07H303.421ZM304.457 162.742C304.415 165.612 304.303 167.824 303.239 169.14C303.533 169.336 303.883 169.742 304.051 170.036C305.311 168.496 305.507 165.962 305.535 162.742H304.457ZM303.491 158.458C303.743 159.48 304.023 160.824 304.121 161.678L305.059 161.454C304.947 160.6 304.653 159.298 304.359 158.262L303.491 158.458ZM307.551 158.178C307.369 159.172 306.991 160.6 306.669 161.468L307.509 161.706C307.845 160.866 308.251 159.522 308.601 158.43L307.551 158.178ZM306.375 169.154C306.571 168.86 306.921 168.552 308.909 166.998C308.783 166.788 308.573 166.368 308.475 166.074L306.431 167.6L306.165 168.048L306.375 169.154ZM306.375 169.154C306.375 168.734 307.383 167.88 307.383 167.88V162.77H306.291V167.082C306.291 167.754 306.011 168.146 305.787 168.328C305.983 168.51 306.277 168.93 306.375 169.154Z" fill="#909399"/>
</g>
</g>
<rect x="279.333" y="0.5" width="113.833" height="191" stroke="#E4E7ED"/>
<g clip-path="url(#clip24_27506_73239)">
<g clip-path="url(#clip25_27506_73239)">
<rect width="114.833" height="48" transform="translate(393.667)" fill="#F2F2F2"/>
<rect x="393.667" y="47" width="115" height="1" fill="#E4E7ED"/>
<g clip-path="url(#clip26_27506_73239)">
<path d="M413.397 24.596C412.669 25.282 411.269 25.898 410.051 26.248C410.303 26.444 410.611 26.766 410.779 27.018C412.095 26.584 413.509 25.884 414.377 25.002L413.397 24.596ZM414.741 25.968C413.803 26.934 411.969 27.69 410.205 28.068C410.443 28.306 410.709 28.67 410.863 28.922C412.767 28.418 414.629 27.564 415.721 26.374L414.741 25.968ZM415.931 27.494C414.699 28.894 412.179 29.72 409.463 30.112C409.715 30.392 410.009 30.84 410.135 31.162C413.061 30.63 415.637 29.664 417.065 27.97L415.931 27.494ZM411.507 18.17C410.961 19.654 409.981 21.068 408.875 21.964C409.169 22.146 409.659 22.524 409.869 22.748C410.989 21.726 412.067 20.144 412.725 18.478L411.507 18.17ZM411.577 19.668L410.933 20.746H415.679V19.668H411.577ZM411.353 20.312L410.527 20.886C411.437 22.58 413.481 24.386 416.589 25.114C416.757 24.792 417.079 24.302 417.331 24.05C414.223 23.49 412.193 21.88 411.353 20.312ZM407.909 22.132V28.908H409.015V22.132H407.909ZM406.817 18.254C406.173 20.368 405.095 22.482 403.905 23.84C404.129 24.19 404.465 24.918 404.577 25.24C405.977 23.588 407.251 21.04 408.049 18.604L406.817 18.254ZM405.669 21.852V31.176H406.929V20.662L406.887 20.634L405.669 21.852ZM415.511 19.668V19.864C414.531 22.23 411.787 23.644 408.903 24.19C409.127 24.442 409.407 24.904 409.533 25.198C412.641 24.47 415.511 22.944 416.715 19.99L415.945 19.612L415.735 19.668H415.511ZM419.123 19.248C419.879 19.962 420.845 20.956 421.293 21.586L422.231 20.648C421.769 20.032 420.761 19.08 420.019 18.408L419.123 19.248ZM418.325 22.552V23.826H421.545V22.552H418.325ZM423.295 19.318V20.648H431.149V19.318H423.295ZM427.341 19.766V29.356C427.341 29.608 427.243 29.692 426.963 29.706C426.669 29.72 425.647 29.734 424.667 29.678C424.891 30.056 425.143 30.714 425.213 31.12C426.529 31.12 427.425 31.078 427.999 30.854C428.559 30.616 428.741 30.196 428.741 29.37V19.766H427.341ZM420.439 30.896C420.691 30.588 421.167 30.252 424.191 28.166C424.051 27.9 423.883 27.34 423.813 26.962L420.537 29.104L420.173 29.608L420.439 30.896ZM420.439 30.896C420.439 30.406 421.839 29.524 421.839 29.524V22.552H420.565V28.502C420.565 29.132 420.089 29.58 419.795 29.762C420.019 30.028 420.341 30.574 420.439 30.896ZM436.679 20.116V21.32H445.037V20.116H436.679ZM438.485 18.184V23.042H439.759V18.184H438.485ZM441.999 18.184V23.042H443.273V18.184H441.999ZM437.239 23.588V31.134H438.443V24.75H443.301V31.064H444.561V23.588H437.239ZM437.911 26.416V27.564H443.875V26.416H437.911ZM437.939 29.272V30.434H443.903V29.272H437.939ZM440.249 24.134V30.112H441.453V24.134H440.249ZM432.003 25.478L432.325 26.766C433.529 26.402 435.069 25.926 436.511 25.464L436.343 24.26C434.761 24.722 433.109 25.212 432.003 25.478ZM432.213 20.942V22.16H436.427V20.942H432.213ZM433.809 18.198V29.58C433.809 29.776 433.739 29.832 433.571 29.832C433.403 29.846 432.885 29.846 432.311 29.832C432.479 30.182 432.633 30.728 432.675 31.05C433.571 31.05 434.145 31.008 434.509 30.798C434.901 30.602 435.027 30.252 435.027 29.594V18.198H433.809ZM450.133 20.83V22.076H458.855V20.83H450.133ZM455.705 19.01C456.279 19.542 457.007 20.298 457.343 20.774L458.393 20.088C458.029 19.612 457.273 18.898 456.713 18.394L455.705 19.01ZM453.843 18.324V28.978H455.173V18.324H453.843ZM449.461 23.196H446.269V24.428H448.187V28.796H449.461V23.196ZM446.479 19.388C447.221 20.2 448.131 21.32 448.523 22.034L449.643 21.32C449.209 20.606 448.271 19.542 447.529 18.772L446.479 19.388ZM448.901 28.236C448.131 28.236 447.109 28.936 446.129 29.86L446.955 30.994C447.655 30.168 448.383 29.384 448.887 29.384C449.223 29.384 449.671 29.79 450.287 30.112C451.295 30.658 452.499 30.812 454.165 30.812C455.509 30.812 457.861 30.728 458.827 30.658C458.855 30.308 459.051 29.678 459.191 29.342C457.833 29.51 455.733 29.622 454.207 29.622C452.709 29.622 451.463 29.524 450.539 29.034C449.741 28.614 449.391 28.236 448.901 28.236ZM453.465 21.306C452.765 23.546 451.379 25.884 449.881 27.074C450.161 27.298 450.595 27.76 450.805 28.068C452.359 26.668 453.745 24.162 454.543 21.6L453.465 21.306ZM454.193 22.454C455.607 23.98 457.259 26.108 457.959 27.452L458.995 26.696C458.253 25.338 456.531 23.294 455.131 21.81L454.193 22.454Z" fill="#909399"/>
</g>
</g>
<g clip-path="url(#clip27_27506_73239)">
<rect width="114.833" height="48" transform="translate(393.667 48)" fill="#F4F4F5"/>
<rect x="393.667" y="95" width="114.833" height="1" fill="#E4E7ED"/>
<g clip-path="url(#clip28_27506_73239)">
<path d="M405.753 73.196C406.355 73.196 406.831 72.72 406.831 72.062C406.831 71.39 406.355 70.928 405.753 70.928C405.137 70.928 404.675 71.39 404.675 72.062C404.675 72.72 405.137 73.196 405.753 73.196ZM409.923 73.196C410.525 73.196 411.001 72.72 411.001 72.062C411.001 71.39 410.525 70.928 409.923 70.928C409.307 70.928 408.845 71.39 408.845 72.062C408.845 72.72 409.307 73.196 409.923 73.196ZM414.093 73.196C414.695 73.196 415.171 72.72 415.171 72.062C415.171 71.39 414.695 70.928 414.093 70.928C413.477 70.928 413.015 71.39 413.015 72.062C413.015 72.72 413.477 73.196 414.093 73.196ZM418.263 73.196C418.865 73.196 419.341 72.72 419.341 72.062C419.341 71.39 418.865 70.928 418.263 70.928C417.647 70.928 417.185 71.39 417.185 72.062C417.185 72.72 417.647 73.196 418.263 73.196ZM422.433 73.196C423.035 73.196 423.511 72.72 423.511 72.062C423.511 71.39 423.035 70.928 422.433 70.928C421.817 70.928 421.355 71.39 421.355 72.062C421.355 72.72 421.817 73.196 422.433 73.196ZM426.603 73.196C427.205 73.196 427.681 72.72 427.681 72.062C427.681 71.39 427.205 70.928 426.603 70.928C425.987 70.928 425.525 71.39 425.525 72.062C425.525 72.72 425.987 73.196 426.603 73.196Z" fill="#909399"/>
</g>
</g>
<g clip-path="url(#clip29_27506_73239)">
<rect width="114.833" height="48" transform="translate(393.667 96)" fill="white"/>
<rect x="393.667" y="143" width="114.833" height="1" fill="#E4E7ED"/>
<g clip-path="url(#clip30_27506_73239)">
<path d="M405.753 121.196C406.355 121.196 406.831 120.72 406.831 120.062C406.831 119.39 406.355 118.928 405.753 118.928C405.137 118.928 404.675 119.39 404.675 120.062C404.675 120.72 405.137 121.196 405.753 121.196ZM409.923 121.196C410.525 121.196 411.001 120.72 411.001 120.062C411.001 119.39 410.525 118.928 409.923 118.928C409.307 118.928 408.845 119.39 408.845 120.062C408.845 120.72 409.307 121.196 409.923 121.196ZM414.093 121.196C414.695 121.196 415.171 120.72 415.171 120.062C415.171 119.39 414.695 118.928 414.093 118.928C413.477 118.928 413.015 119.39 413.015 120.062C413.015 120.72 413.477 121.196 414.093 121.196ZM418.263 121.196C418.865 121.196 419.341 120.72 419.341 120.062C419.341 119.39 418.865 118.928 418.263 118.928C417.647 118.928 417.185 119.39 417.185 120.062C417.185 120.72 417.647 121.196 418.263 121.196ZM422.433 121.196C423.035 121.196 423.511 120.72 423.511 120.062C423.511 119.39 423.035 118.928 422.433 118.928C421.817 118.928 421.355 119.39 421.355 120.062C421.355 120.72 421.817 121.196 422.433 121.196ZM426.603 121.196C427.205 121.196 427.681 120.72 427.681 120.062C427.681 119.39 427.205 118.928 426.603 118.928C425.987 118.928 425.525 119.39 425.525 120.062C425.525 120.72 425.987 121.196 426.603 121.196Z" fill="#909399"/>
</g>
</g>
<rect width="114.833" height="48" transform="translate(393.667 144)" fill="white"/>
<g clip-path="url(#clip31_27506_73239)">
<path d="M405.753 169.196C406.355 169.196 406.831 168.72 406.831 168.062C406.831 167.39 406.355 166.928 405.753 166.928C405.137 166.928 404.675 167.39 404.675 168.062C404.675 168.72 405.137 169.196 405.753 169.196ZM409.923 169.196C410.525 169.196 411.001 168.72 411.001 168.062C411.001 167.39 410.525 166.928 409.923 166.928C409.307 166.928 408.845 167.39 408.845 168.062C408.845 168.72 409.307 169.196 409.923 169.196ZM414.093 169.196C414.695 169.196 415.171 168.72 415.171 168.062C415.171 167.39 414.695 166.928 414.093 166.928C413.477 166.928 413.015 167.39 413.015 168.062C413.015 168.72 413.477 169.196 414.093 169.196ZM418.263 169.196C418.865 169.196 419.341 168.72 419.341 168.062C419.341 167.39 418.865 166.928 418.263 166.928C417.647 166.928 417.185 167.39 417.185 168.062C417.185 168.72 417.647 169.196 418.263 169.196ZM422.433 169.196C423.035 169.196 423.511 168.72 423.511 168.062C423.511 167.39 423.035 166.928 422.433 166.928C421.817 166.928 421.355 167.39 421.355 168.062C421.355 168.72 421.817 169.196 422.433 169.196ZM426.603 169.196C427.205 169.196 427.681 168.72 427.681 168.062C427.681 167.39 427.205 166.928 426.603 166.928C425.987 166.928 425.525 167.39 425.525 168.062C425.525 168.72 425.987 169.196 426.603 169.196Z" fill="#909399"/>
</g>
</g>
<rect x="394.167" y="0.5" width="113.833" height="191" stroke="#E4E7ED"/>
<g clip-path="url(#clip32_27506_73239)">
<g clip-path="url(#clip33_27506_73239)">
<rect width="114.833" height="48" transform="translate(508.5)" fill="#F2F2F2"/>
<rect x="508.5" y="47" width="115" height="1" fill="#E4E7ED"/>
<g clip-path="url(#clip34_27506_73239)">
<path d="M519.578 19.612V22.048H520.908V20.886H530.022V22.048H531.394V19.612H519.578ZM524.408 18.436C524.66 18.926 524.94 19.598 525.08 20.018L526.508 19.584C526.368 19.178 526.032 18.534 525.78 18.058L524.408 18.436ZM520.432 22.58V29.398H521.706V23.728H529.224V29.328H530.554V22.58H520.432ZM521.244 25.044V26.164H529.882V25.044H521.244ZM521.244 27.508V28.67H529.952V27.508H521.244ZM524.786 21.292V31.162H526.172V21.292H524.786ZM542.146 28.376C543.14 29.174 544.442 30.322 545.058 31.05L546.066 30.182C545.422 29.468 544.092 28.362 543.098 27.606L542.146 28.376ZM543.448 22.23C542.482 24.12 540.382 26.01 537.974 27.06C538.212 27.312 538.562 27.774 538.716 28.068C541.278 26.878 543.448 24.862 544.708 22.65L543.448 22.23ZM544.4 24.806C543.21 27.116 540.55 29.09 537.274 30.084C537.512 30.364 537.89 30.882 538.044 31.19C541.488 30.056 544.218 27.942 545.758 25.296L544.4 24.806ZM538.072 19.99V21.208H545.94V19.99H538.072ZM538.548 24.988C538.548 24.638 540.088 24.19 540.088 24.19C540.718 23.322 541.768 21.586 542.342 20.634H540.942C540.564 21.278 539.528 22.972 539.206 23.322C538.968 23.588 538.52 23.686 538.212 23.756C538.324 24.036 538.506 24.666 538.548 24.988ZM538.548 24.988C538.884 24.848 539.416 24.764 542.888 24.54C542.944 24.274 543.112 23.77 543.266 23.448L539.206 23.658L538.534 24.036L538.548 24.988ZM540.97 18.478C541.292 19.094 541.586 19.92 541.684 20.452L543 20.004C542.902 19.486 542.538 18.688 542.202 18.1L540.97 18.478ZM533.214 20.858V22.076H537.792V20.858H533.214ZM535.02 18.184V31.176H536.28V18.184H535.02ZM535.048 21.712C534.67 23.602 533.802 25.94 532.878 27.158C533.102 27.494 533.41 28.096 533.536 28.474C534.516 27.032 535.398 24.274 535.804 21.992L535.048 21.712ZM536.21 22.51L535.608 22.986C535.972 23.616 536.826 25.254 537.134 26.01L537.918 25.1C537.666 24.666 536.532 22.902 536.21 22.51ZM552.674 18.226C552.618 20.48 552.786 27.088 547.004 30.084C547.424 30.378 547.858 30.798 548.096 31.148C554.004 27.844 554.102 20.886 554.172 18.226H552.674ZM554.032 19.934L552.758 20.074C552.954 21.376 553.486 28.418 559.114 31.078C559.31 30.7 559.688 30.252 560.08 29.944C554.662 27.522 554.144 20.998 554.032 19.934Z" fill="#909399"/>
</g>
</g>
<g clip-path="url(#clip35_27506_73239)">
<rect width="114.833" height="48" transform="translate(508.5 48)" fill="#F4F4F5"/>
<rect x="508.5" y="95" width="114.833" height="1" fill="#E4E7ED"/>
</g>
<g clip-path="url(#clip36_27506_73239)">
<rect width="114.833" height="48" transform="translate(508.5 96)" fill="white"/>
<rect x="508.5" y="143" width="114.833" height="1" fill="#E4E7ED"/>
<g clip-path="url(#clip37_27506_73239)">
<path d="M519.886 110.094V111.396H531.1V110.094H519.886ZM520.516 114.952V116.254H530.596V114.952H520.516ZM519.186 120.258V121.56H531.828V120.258H519.186ZM524.786 110.43V121.098H526.172V110.43H524.786ZM538.268 113.048C538.058 115.288 537.638 118.298 537.274 120.104H538.562C538.856 118.354 539.262 115.358 539.514 113.048H538.268ZM540.34 114.546C540.886 114.994 541.516 115.624 541.796 116.058L542.538 115.54C542.23 115.12 541.586 114.504 541.054 114.084L540.34 114.546ZM539.976 117.486C540.55 117.962 541.25 118.662 541.572 119.124L542.342 118.578C542.006 118.13 541.292 117.458 540.718 117.01L539.976 117.486ZM538.436 110.696V111.9H545.674V110.696H538.436ZM538.814 113.048V114.196H544.246V113.048H538.814ZM536.504 115.89V117.094H546.038V115.89H536.504ZM537.946 118.97V120.104H545.66V118.97H537.946ZM538.604 109.17C538.114 110.78 537.26 112.404 536.294 113.44C536.616 113.608 537.176 113.958 537.442 114.168C538.38 113.034 539.304 111.256 539.892 109.506L538.604 109.17ZM543.868 113.048V113.314C543.686 118.452 543.448 120.356 543.07 120.79C542.93 120.958 542.79 121 542.552 121C542.272 121 541.67 120.986 540.984 120.93C541.18 121.238 541.306 121.714 541.334 122.036C542.006 122.078 542.692 122.092 543.098 122.036C543.546 121.98 543.868 121.868 544.162 121.476C544.638 120.874 544.862 119.012 545.072 113.65C545.086 113.468 545.1 113.048 545.1 113.048H543.868ZM533.802 110.29C534.642 110.71 535.706 111.368 536.238 111.83L537.008 110.822C536.462 110.374 535.37 109.758 534.544 109.394L533.802 110.29ZM533.032 114.322C533.83 114.728 534.852 115.372 535.328 115.834L536.084 114.826C535.58 114.378 534.558 113.79 533.76 113.426L533.032 114.322ZM533.438 121.224L534.6 121.952C535.202 120.608 535.874 118.9 536.392 117.416L535.384 116.688C534.796 118.312 534.012 120.132 533.438 121.224ZM547.424 118.522C547.424 118.256 548.306 117.85 548.306 117.85V117.822C549.762 116.492 551.26 114.658 552.422 112.796L551.26 112.054C550.224 113.93 548.656 115.848 548.152 116.338C547.662 116.842 547.34 117.164 546.976 117.234C547.144 117.598 547.354 118.242 547.424 118.522ZM547.424 118.522C547.774 118.326 548.334 118.2 552.142 117.598C552.1 117.318 552.072 116.786 552.086 116.436L547.998 117.01L547.368 117.444L547.424 118.522ZM547.312 115.134C547.312 114.868 548.166 114.434 548.166 114.434V114.406C549.188 113.16 550.266 111.396 551.05 109.702L549.72 109.156C549.118 110.808 548.068 112.558 547.732 113.006C547.396 113.468 547.158 113.776 546.878 113.846C547.018 114.196 547.242 114.854 547.312 115.134ZM547.312 115.134C547.606 114.994 548.082 114.896 550.77 114.616C550.784 114.336 550.826 113.846 550.91 113.482L547.914 113.734L547.284 114.126L547.312 115.134ZM546.962 120.146L547.2 121.504C548.558 121.196 550.364 120.79 552.072 120.398L551.932 119.152C550.112 119.53 548.222 119.936 546.962 120.146ZM552.408 110.444V111.76H559.632V110.444H552.408ZM552.198 119.978V121.308H559.926V119.978H552.198ZM555.32 110.878V120.734H556.762V110.878H555.32Z" fill="#909399"/>
</g>
</g>
<rect width="114.833" height="48" transform="translate(508.5 144)" fill="white"/>
<g clip-path="url(#clip38_27506_73239)">
<path d="M519.886 158.094V159.396H531.1V158.094H519.886ZM520.516 162.952V164.254H530.596V162.952H520.516ZM519.186 168.258V169.56H531.828V168.258H519.186ZM524.786 158.43V169.098H526.172V158.43H524.786ZM538.268 161.048C538.058 163.288 537.638 166.298 537.274 168.104H538.562C538.856 166.354 539.262 163.358 539.514 161.048H538.268ZM540.34 162.546C540.886 162.994 541.516 163.624 541.796 164.058L542.538 163.54C542.23 163.12 541.586 162.504 541.054 162.084L540.34 162.546ZM539.976 165.486C540.55 165.962 541.25 166.662 541.572 167.124L542.342 166.578C542.006 166.13 541.292 165.458 540.718 165.01L539.976 165.486ZM538.436 158.696V159.9H545.674V158.696H538.436ZM538.814 161.048V162.196H544.246V161.048H538.814ZM536.504 163.89V165.094H546.038V163.89H536.504ZM537.946 166.97V168.104H545.66V166.97H537.946ZM538.604 157.17C538.114 158.78 537.26 160.404 536.294 161.44C536.616 161.608 537.176 161.958 537.442 162.168C538.38 161.034 539.304 159.256 539.892 157.506L538.604 157.17ZM543.868 161.048V161.314C543.686 166.452 543.448 168.356 543.07 168.79C542.93 168.958 542.79 169 542.552 169C542.272 169 541.67 168.986 540.984 168.93C541.18 169.238 541.306 169.714 541.334 170.036C542.006 170.078 542.692 170.092 543.098 170.036C543.546 169.98 543.868 169.868 544.162 169.476C544.638 168.874 544.862 167.012 545.072 161.65C545.086 161.468 545.1 161.048 545.1 161.048H543.868ZM533.802 158.29C534.642 158.71 535.706 159.368 536.238 159.83L537.008 158.822C536.462 158.374 535.37 157.758 534.544 157.394L533.802 158.29ZM533.032 162.322C533.83 162.728 534.852 163.372 535.328 163.834L536.084 162.826C535.58 162.378 534.558 161.79 533.76 161.426L533.032 162.322ZM533.438 169.224L534.6 169.952C535.202 168.608 535.874 166.9 536.392 165.416L535.384 164.688C534.796 166.312 534.012 168.132 533.438 169.224ZM547.424 166.522C547.424 166.256 548.306 165.85 548.306 165.85V165.822C549.762 164.492 551.26 162.658 552.422 160.796L551.26 160.054C550.224 161.93 548.656 163.848 548.152 164.338C547.662 164.842 547.34 165.164 546.976 165.234C547.144 165.598 547.354 166.242 547.424 166.522ZM547.424 166.522C547.774 166.326 548.334 166.2 552.142 165.598C552.1 165.318 552.072 164.786 552.086 164.436L547.998 165.01L547.368 165.444L547.424 166.522ZM547.312 163.134C547.312 162.868 548.166 162.434 548.166 162.434V162.406C549.188 161.16 550.266 159.396 551.05 157.702L549.72 157.156C549.118 158.808 548.068 160.558 547.732 161.006C547.396 161.468 547.158 161.776 546.878 161.846C547.018 162.196 547.242 162.854 547.312 163.134ZM547.312 163.134C547.606 162.994 548.082 162.896 550.77 162.616C550.784 162.336 550.826 161.846 550.91 161.482L547.914 161.734L547.284 162.126L547.312 163.134ZM546.962 168.146L547.2 169.504C548.558 169.196 550.364 168.79 552.072 168.398L551.932 167.152C550.112 167.53 548.222 167.936 546.962 168.146ZM552.408 158.444V159.76H559.632V158.444H552.408ZM552.198 167.978V169.308H559.926V167.978H552.198ZM555.32 158.878V168.734H556.762V158.878H555.32Z" fill="#909399"/>
</g>
</g>
<rect x="509" y="0.5" width="113.833" height="191" stroke="#E4E7ED"/>
<g clip-path="url(#clip39_27506_73239)">
<g clip-path="url(#clip40_27506_73239)">
<rect width="114.833" height="48" transform="translate(623.333)" fill="#F2F2F2"/>
<rect x="623.333" y="47" width="115" height="1" fill="#E4E7ED"/>
<g clip-path="url(#clip41_27506_73239)">
<path d="M634.411 19.612V22.048H635.741V20.886H644.855V22.048H646.227V19.612H634.411ZM639.241 18.436C639.493 18.926 639.773 19.598 639.913 20.018L641.341 19.584C641.201 19.178 640.865 18.534 640.613 18.058L639.241 18.436ZM635.265 22.58V29.398H636.539V23.728H644.057V29.328H645.387V22.58H635.265ZM636.077 25.044V26.164H644.715V25.044H636.077ZM636.077 27.508V28.67H644.785V27.508H636.077ZM639.619 21.292V31.162H641.005V21.292H639.619ZM656.979 28.376C657.973 29.174 659.275 30.322 659.891 31.05L660.899 30.182C660.255 29.468 658.925 28.362 657.931 27.606L656.979 28.376ZM658.281 22.23C657.315 24.12 655.215 26.01 652.807 27.06C653.045 27.312 653.395 27.774 653.549 28.068C656.111 26.878 658.281 24.862 659.541 22.65L658.281 22.23ZM659.233 24.806C658.043 27.116 655.383 29.09 652.107 30.084C652.345 30.364 652.723 30.882 652.877 31.19C656.321 30.056 659.051 27.942 660.591 25.296L659.233 24.806ZM652.905 19.99V21.208H660.773V19.99H652.905ZM653.381 24.988C653.381 24.638 654.921 24.19 654.921 24.19C655.551 23.322 656.601 21.586 657.175 20.634H655.775C655.397 21.278 654.361 22.972 654.039 23.322C653.801 23.588 653.353 23.686 653.045 23.756C653.157 24.036 653.339 24.666 653.381 24.988ZM653.381 24.988C653.717 24.848 654.249 24.764 657.721 24.54C657.777 24.274 657.945 23.77 658.099 23.448L654.039 23.658L653.367 24.036L653.381 24.988ZM655.803 18.478C656.125 19.094 656.419 19.92 656.517 20.452L657.833 20.004C657.735 19.486 657.371 18.688 657.035 18.1L655.803 18.478ZM648.047 20.858V22.076H652.625V20.858H648.047ZM649.853 18.184V31.176H651.113V18.184H649.853ZM649.881 21.712C649.503 23.602 648.635 25.94 647.711 27.158C647.935 27.494 648.243 28.096 648.369 28.474C649.349 27.032 650.231 24.274 650.637 21.992L649.881 21.712ZM651.043 22.51L650.441 22.986C650.805 23.616 651.659 25.254 651.967 26.01L652.751 25.1C652.499 24.666 651.365 22.902 651.043 22.51ZM666.345 20.116V21.32H674.703V20.116H666.345ZM668.151 18.184V23.042H669.425V18.184H668.151ZM671.665 18.184V23.042H672.939V18.184H671.665ZM666.905 23.588V31.134H668.109V24.75H672.967V31.064H674.227V23.588H666.905ZM667.577 26.416V27.564H673.541V26.416H667.577ZM667.605 29.272V30.434H673.569V29.272H667.605ZM669.915 24.134V30.112H671.119V24.134H669.915ZM661.669 25.478L661.991 26.766C663.195 26.402 664.735 25.926 666.177 25.464L666.009 24.26C664.427 24.722 662.775 25.212 661.669 25.478ZM661.879 20.942V22.16H666.093V20.942H661.879ZM663.475 18.198V29.58C663.475 29.776 663.405 29.832 663.237 29.832C663.069 29.846 662.551 29.846 661.977 29.832C662.145 30.182 662.299 30.728 662.341 31.05C663.237 31.05 663.811 31.008 664.175 30.798C664.567 30.602 664.693 30.252 664.693 29.594V18.198H663.475ZM679.799 20.83V22.076H688.521V20.83H679.799ZM685.371 19.01C685.945 19.542 686.673 20.298 687.009 20.774L688.059 20.088C687.695 19.612 686.939 18.898 686.379 18.394L685.371 19.01ZM683.509 18.324V28.978H684.839V18.324H683.509ZM679.127 23.196H675.935V24.428H677.853V28.796H679.127V23.196ZM676.145 19.388C676.887 20.2 677.797 21.32 678.189 22.034L679.309 21.32C678.875 20.606 677.937 19.542 677.195 18.772L676.145 19.388ZM678.567 28.236C677.797 28.236 676.775 28.936 675.795 29.86L676.621 30.994C677.321 30.168 678.049 29.384 678.553 29.384C678.889 29.384 679.337 29.79 679.953 30.112C680.961 30.658 682.165 30.812 683.831 30.812C685.175 30.812 687.527 30.728 688.493 30.658C688.521 30.308 688.717 29.678 688.857 29.342C687.499 29.51 685.399 29.622 683.873 29.622C682.375 29.622 681.129 29.524 680.205 29.034C679.407 28.614 679.057 28.236 678.567 28.236ZM683.131 21.306C682.431 23.546 681.045 25.884 679.547 27.074C679.827 27.298 680.261 27.76 680.471 28.068C682.025 26.668 683.411 24.162 684.209 21.6L683.131 21.306ZM683.859 22.454C685.273 23.98 686.925 26.108 687.625 27.452L688.661 26.696C687.919 25.338 686.197 23.294 684.797 21.81L683.859 22.454Z" fill="#909399"/>
</g>
</g>
<g clip-path="url(#clip42_27506_73239)">
<rect width="114.833" height="48" transform="translate(623.333 48)" fill="#F4F4F5"/>
<rect x="623.333" y="95" width="114.833" height="1" fill="#E4E7ED"/>
</g>
<g clip-path="url(#clip43_27506_73239)">
<rect width="114.833" height="48" transform="translate(623.333 96)" fill="white"/>
<rect x="623.333" y="143" width="114.833" height="1" fill="#E4E7ED"/>
<g clip-path="url(#clip44_27506_73239)">
<path d="M635.419 121.196C636.021 121.196 636.497 120.72 636.497 120.062C636.497 119.39 636.021 118.928 635.419 118.928C634.803 118.928 634.341 119.39 634.341 120.062C634.341 120.72 634.803 121.196 635.419 121.196ZM639.589 121.196C640.191 121.196 640.667 120.72 640.667 120.062C640.667 119.39 640.191 118.928 639.589 118.928C638.973 118.928 638.511 119.39 638.511 120.062C638.511 120.72 638.973 121.196 639.589 121.196ZM643.759 121.196C644.361 121.196 644.837 120.72 644.837 120.062C644.837 119.39 644.361 118.928 643.759 118.928C643.143 118.928 642.681 119.39 642.681 120.062C642.681 120.72 643.143 121.196 643.759 121.196ZM647.929 121.196C648.531 121.196 649.007 120.72 649.007 120.062C649.007 119.39 648.531 118.928 647.929 118.928C647.313 118.928 646.851 119.39 646.851 120.062C646.851 120.72 647.313 121.196 647.929 121.196ZM652.099 121.196C652.701 121.196 653.177 120.72 653.177 120.062C653.177 119.39 652.701 118.928 652.099 118.928C651.483 118.928 651.021 119.39 651.021 120.062C651.021 120.72 651.483 121.196 652.099 121.196ZM656.269 121.196C656.871 121.196 657.347 120.72 657.347 120.062C657.347 119.39 656.871 118.928 656.269 118.928C655.653 118.928 655.191 119.39 655.191 120.062C655.191 120.72 655.653 121.196 656.269 121.196Z" fill="#909399"/>
</g>
</g>
<rect width="114.833" height="48" transform="translate(623.333 144)" fill="white"/>
<g clip-path="url(#clip45_27506_73239)">
<path d="M635.419 169.196C636.021 169.196 636.497 168.72 636.497 168.062C636.497 167.39 636.021 166.928 635.419 166.928C634.803 166.928 634.341 167.39 634.341 168.062C634.341 168.72 634.803 169.196 635.419 169.196ZM639.589 169.196C640.191 169.196 640.667 168.72 640.667 168.062C640.667 167.39 640.191 166.928 639.589 166.928C638.973 166.928 638.511 167.39 638.511 168.062C638.511 168.72 638.973 169.196 639.589 169.196ZM643.759 169.196C644.361 169.196 644.837 168.72 644.837 168.062C644.837 167.39 644.361 166.928 643.759 166.928C643.143 166.928 642.681 167.39 642.681 168.062C642.681 168.72 643.143 169.196 643.759 169.196ZM647.929 169.196C648.531 169.196 649.007 168.72 649.007 168.062C649.007 167.39 648.531 166.928 647.929 166.928C647.313 166.928 646.851 167.39 646.851 168.062C646.851 168.72 647.313 169.196 647.929 169.196ZM652.099 169.196C652.701 169.196 653.177 168.72 653.177 168.062C653.177 167.39 652.701 166.928 652.099 166.928C651.483 166.928 651.021 167.39 651.021 168.062C651.021 168.72 651.483 169.196 652.099 169.196ZM656.269 169.196C656.871 169.196 657.347 168.72 657.347 168.062C657.347 167.39 656.871 166.928 656.269 166.928C655.653 166.928 655.191 167.39 655.191 168.062C655.191 168.72 655.653 169.196 656.269 169.196Z" fill="#909399"/>
</g>
</g>
<rect x="623.833" y="0.5" width="113.833" height="191" stroke="#E4E7ED"/>
<g clip-path="url(#clip46_27506_73239)">
<g clip-path="url(#clip47_27506_73239)">
<rect width="114.833" height="48" transform="translate(738.167)" fill="#F2F2F2"/>
<rect x="738.167" y="47" width="115" height="1" fill="#E4E7ED"/>
<g clip-path="url(#clip48_27506_73239)">
<path d="M753.207 22.216V23.532H761.509V22.216H753.207ZM757.631 22.818L756.525 23.056C757.239 26.654 758.541 29.594 760.879 31.148C761.089 30.798 761.537 30.294 761.845 30.042C759.591 28.754 758.261 25.996 757.631 22.818ZM758.499 19.15C759.101 19.92 759.787 20.984 760.095 21.642L761.173 20.984C760.837 20.34 760.109 19.332 759.507 18.59L758.499 19.15ZM756.301 18.212V21.614C756.301 24.218 755.951 27.648 752.745 30.322C753.095 30.546 753.557 30.896 753.809 31.162C757.155 28.362 757.617 24.638 757.617 21.614V18.212H756.301ZM751.471 18.17V31.148H752.787V18.17H751.471ZM748.755 20.606C749.371 21.446 750.113 22.566 750.407 23.28L751.513 22.58C751.191 21.88 750.421 20.788 749.777 19.99L748.755 20.606ZM748.587 27.116L749.301 28.25C750.211 27.466 751.289 26.458 752.255 25.52L751.723 24.456C750.589 25.478 749.371 26.514 748.587 27.116ZM762.895 20.088V21.306H775.481V20.088H762.895ZM768.537 18.1C768.243 21.124 767.739 23.91 762.741 25.17C763.021 25.45 763.343 25.968 763.483 26.29C768.789 24.82 769.559 21.642 769.909 18.1H768.537ZM770.133 20.172L768.915 20.452C769.923 23.392 771.743 25.324 774.809 26.164C774.991 25.8 775.383 25.24 775.691 24.96C772.807 24.302 770.973 22.608 770.133 20.172ZM767.459 24.386C768.271 24.848 769.279 25.576 769.741 26.08L770.945 25.324C770.413 24.806 769.405 24.12 768.593 23.686L767.459 24.386ZM765.891 26.612V29.202C765.891 30.518 766.353 30.882 768.117 30.882C768.495 30.882 770.763 30.882 771.155 30.882C772.597 30.882 773.003 30.42 773.171 28.544C772.807 28.46 772.247 28.264 771.967 28.054C771.883 29.482 771.771 29.692 771.057 29.692C770.525 29.692 768.621 29.692 768.229 29.692C767.361 29.692 767.207 29.622 767.207 29.202V26.612H765.891ZM767.865 26.346C768.635 27.088 769.559 28.11 769.965 28.782L771.057 28.082C770.609 27.424 769.657 26.43 768.887 25.744L767.865 26.346ZM772.597 26.752C773.283 27.956 773.983 29.58 774.221 30.574L775.481 30.126C775.215 29.118 774.473 27.55 773.773 26.388L772.597 26.752ZM764.169 26.57C763.917 27.732 763.441 29.132 762.825 30.056L764.015 30.658C764.617 29.678 765.065 28.152 765.359 26.962L764.169 26.57Z" fill="#909399"/>
</g>
</g>
<g clip-path="url(#clip49_27506_73239)">
<rect width="114.833" height="48" transform="translate(738.167 48)" fill="#F4F4F5"/>
<rect x="738.167" y="95" width="114.833" height="1" fill="#E4E7ED"/>
<g clip-path="url(#clip50_27506_73239)">
<path d="M755.097 64.432H759.381V65.356H755.097V64.432ZM755.097 62.612H759.381V63.536H755.097V62.612ZM753.879 61.632V66.336H760.655V61.632H753.879ZM753.221 67.19V68.282H761.397V67.19H753.221ZM756.609 67.764V72.944L757.855 73.476V67.764H756.609ZM754.985 70.298L754.187 70.578C755.055 73.476 756.665 73.98 758.989 73.98H761.439C761.481 73.644 761.649 73.084 761.817 72.804C761.271 72.832 759.437 72.832 759.031 72.832C757.183 72.832 755.699 72.51 754.985 70.298ZM757.491 69.738V70.802H760.683V69.738H757.491ZM754.103 68.842C753.893 70.844 753.277 72.412 752.059 73.378C752.339 73.56 752.843 73.966 753.039 74.176C754.299 73.042 755.013 71.278 755.307 68.982L754.103 68.842ZM748.531 68.478L748.839 69.766C750.057 69.402 751.611 68.912 753.067 68.45L752.885 67.246C751.289 67.722 749.637 68.212 748.531 68.478ZM748.671 63.942V65.16H753.025V63.942H748.671ZM750.309 61.198V72.58C750.309 72.776 750.253 72.832 750.085 72.832C749.917 72.846 749.399 72.846 748.825 72.832C748.993 73.182 749.147 73.728 749.189 74.05C750.071 74.05 750.659 74.008 751.023 73.798C751.415 73.602 751.541 73.252 751.541 72.594V61.198H750.309ZM771.169 67.05C769.881 70.438 766.955 72.174 762.797 73.014C763.049 73.294 763.455 73.896 763.609 74.204C767.837 73.154 770.945 71.236 772.499 67.428L771.169 67.05ZM766.479 64.642C765.667 65.692 764.281 66.77 763.021 67.428C763.329 67.652 763.833 68.142 764.071 68.408C765.317 67.624 766.801 66.364 767.781 65.146L766.479 64.642ZM767.221 67.12L766.031 67.484C767.557 71.11 770.329 73.266 774.753 74.106C774.935 73.742 775.285 73.182 775.579 72.902C771.295 72.23 768.495 70.256 767.221 67.12ZM763.049 63.06V64.348H775.257V63.06H763.049ZM770.679 65.356C771.953 66.252 773.521 67.582 774.221 68.464L775.341 67.596C774.571 66.714 772.961 65.454 771.715 64.6L770.679 65.356ZM767.907 61.478C768.285 62.08 768.691 62.892 768.873 63.41L770.189 62.906C770.007 62.402 769.545 61.618 769.167 61.044L767.907 61.478Z" fill="#909399"/>
</g>
</g>
<g clip-path="url(#clip51_27506_73239)">
<rect width="114.833" height="48" transform="translate(738.167 96)" fill="white"/>
<rect x="738.167" y="143" width="114.833" height="1" fill="#E4E7ED"/>
<g clip-path="url(#clip52_27506_73239)">
<path d="M749.245 110.612V113.048H750.575V111.886H759.689V113.048H761.061V110.612H749.245ZM754.075 109.436C754.327 109.926 754.607 110.598 754.747 111.018L756.175 110.584C756.035 110.178 755.699 109.534 755.447 109.058L754.075 109.436ZM750.099 113.58V120.398H751.373V114.728H758.891V120.328H760.221V113.58H750.099ZM750.911 116.044V117.164H759.549V116.044H750.911ZM750.911 118.508V119.67H759.619V118.508H750.911ZM754.453 112.292V122.162H755.839V112.292H754.453ZM771.813 119.376C772.807 120.174 774.109 121.322 774.725 122.05L775.733 121.182C775.089 120.468 773.759 119.362 772.765 118.606L771.813 119.376ZM773.115 113.23C772.149 115.12 770.049 117.01 767.641 118.06C767.879 118.312 768.229 118.774 768.383 119.068C770.945 117.878 773.115 115.862 774.375 113.65L773.115 113.23ZM774.067 115.806C772.877 118.116 770.217 120.09 766.941 121.084C767.179 121.364 767.557 121.882 767.711 122.19C771.155 121.056 773.885 118.942 775.425 116.296L774.067 115.806ZM767.739 110.99V112.208H775.607V110.99H767.739ZM768.215 115.988C768.215 115.638 769.755 115.19 769.755 115.19C770.385 114.322 771.435 112.586 772.009 111.634H770.609C770.231 112.278 769.195 113.972 768.873 114.322C768.635 114.588 768.187 114.686 767.879 114.756C767.991 115.036 768.173 115.666 768.215 115.988ZM768.215 115.988C768.551 115.848 769.083 115.764 772.555 115.54C772.611 115.274 772.779 114.77 772.933 114.448L768.873 114.658L768.201 115.036L768.215 115.988ZM770.637 109.478C770.959 110.094 771.253 110.92 771.351 111.452L772.667 111.004C772.569 110.486 772.205 109.688 771.869 109.1L770.637 109.478ZM762.881 111.858V113.076H767.459V111.858H762.881ZM764.687 109.184V122.176H765.947V109.184H764.687ZM764.715 112.712C764.337 114.602 763.469 116.94 762.545 118.158C762.769 118.494 763.077 119.096 763.203 119.474C764.183 118.032 765.065 115.274 765.471 112.992L764.715 112.712ZM765.877 113.51L765.275 113.986C765.639 114.616 766.493 116.254 766.801 117.01L767.585 116.1C767.333 115.666 766.199 113.902 765.877 113.51ZM779.401 113.286V114.504H786.863V113.286H779.401ZM776.923 115.876V117.122H789.397V115.876H776.923ZM780.591 116.73C780.451 119.292 780.073 120.482 776.713 121.084C776.965 121.35 777.315 121.868 777.413 122.19C781.179 121.42 781.781 119.81 781.935 116.73H780.591ZM784.133 116.604V120.272C784.133 121.574 784.483 121.98 785.925 121.98C786.219 121.98 787.605 121.98 787.913 121.98C789.117 121.98 789.467 121.462 789.621 119.488C789.257 119.39 788.697 119.18 788.417 118.97C788.361 120.524 788.277 120.762 787.787 120.762C787.465 120.762 786.345 120.762 786.093 120.762C785.547 120.762 785.463 120.692 785.463 120.272V116.604H784.133ZM777.231 110.724V114H778.561V111.998H787.675V114H789.047V110.724H777.231ZM781.949 109.436C782.299 110.08 782.663 110.948 782.803 111.48L784.231 111.046C784.063 110.5 783.671 109.66 783.293 109.044L781.949 109.436ZM793.009 111.088V112.264H796.775V111.088H793.009ZM797.391 109.282V114.056C797.391 115.414 797.783 115.806 799.309 115.806C799.617 115.806 801.269 115.806 801.605 115.806C802.879 115.806 803.243 115.288 803.397 113.426C803.033 113.342 802.501 113.132 802.207 112.922C802.137 114.378 802.039 114.63 801.493 114.63C801.129 114.63 799.757 114.63 799.463 114.63C798.847 114.63 798.735 114.546 798.735 114.056V109.282H797.391ZM802.081 110.15C801.087 110.738 799.449 111.41 797.993 111.872C798.133 112.138 798.329 112.586 798.399 112.866C799.939 112.432 801.703 111.83 803.019 111.2L802.081 110.15ZM796.453 115.918V122.162H797.783V115.918H796.453ZM790.839 117.626V118.83H803.509V117.626H790.839ZM791.987 116.226C792.337 116.016 792.925 115.89 796.929 115.05C796.901 114.77 796.873 114.238 796.901 113.874L792.533 114.714L791.903 115.148L791.987 116.226ZM791.987 116.226C791.987 115.736 793.401 114.868 793.401 114.868V109.324H792.043V113.916C792.043 114.546 791.637 114.924 791.357 115.106C791.581 115.358 791.889 115.904 791.987 116.226Z" fill="#909399"/>
</g>
</g>
<rect width="114.833" height="48" transform="translate(738.167 144)" fill="white"/>
<g clip-path="url(#clip53_27506_73239)">
<path d="M749.245 158.612V161.048H750.575V159.886H759.689V161.048H761.061V158.612H749.245ZM754.075 157.436C754.327 157.926 754.607 158.598 754.747 159.018L756.175 158.584C756.035 158.178 755.699 157.534 755.447 157.058L754.075 157.436ZM750.099 161.58V168.398H751.373V162.728H758.891V168.328H760.221V161.58H750.099ZM750.911 164.044V165.164H759.549V164.044H750.911ZM750.911 166.508V167.67H759.619V166.508H750.911ZM754.453 160.292V170.162H755.839V160.292H754.453ZM771.813 167.376C772.807 168.174 774.109 169.322 774.725 170.05L775.733 169.182C775.089 168.468 773.759 167.362 772.765 166.606L771.813 167.376ZM773.115 161.23C772.149 163.12 770.049 165.01 767.641 166.06C767.879 166.312 768.229 166.774 768.383 167.068C770.945 165.878 773.115 163.862 774.375 161.65L773.115 161.23ZM774.067 163.806C772.877 166.116 770.217 168.09 766.941 169.084C767.179 169.364 767.557 169.882 767.711 170.19C771.155 169.056 773.885 166.942 775.425 164.296L774.067 163.806ZM767.739 158.99V160.208H775.607V158.99H767.739ZM768.215 163.988C768.215 163.638 769.755 163.19 769.755 163.19C770.385 162.322 771.435 160.586 772.009 159.634H770.609C770.231 160.278 769.195 161.972 768.873 162.322C768.635 162.588 768.187 162.686 767.879 162.756C767.991 163.036 768.173 163.666 768.215 163.988ZM768.215 163.988C768.551 163.848 769.083 163.764 772.555 163.54C772.611 163.274 772.779 162.77 772.933 162.448L768.873 162.658L768.201 163.036L768.215 163.988ZM770.637 157.478C770.959 158.094 771.253 158.92 771.351 159.452L772.667 159.004C772.569 158.486 772.205 157.688 771.869 157.1L770.637 157.478ZM762.881 159.858V161.076H767.459V159.858H762.881ZM764.687 157.184V170.176H765.947V157.184H764.687ZM764.715 160.712C764.337 162.602 763.469 164.94 762.545 166.158C762.769 166.494 763.077 167.096 763.203 167.474C764.183 166.032 765.065 163.274 765.471 160.992L764.715 160.712ZM765.877 161.51L765.275 161.986C765.639 162.616 766.493 164.254 766.801 165.01L767.585 164.1C767.333 163.666 766.199 161.902 765.877 161.51ZM779.401 161.286V162.504H786.863V161.286H779.401ZM776.923 163.876V165.122H789.397V163.876H776.923ZM780.591 164.73C780.451 167.292 780.073 168.482 776.713 169.084C776.965 169.35 777.315 169.868 777.413 170.19C781.179 169.42 781.781 167.81 781.935 164.73H780.591ZM784.133 164.604V168.272C784.133 169.574 784.483 169.98 785.925 169.98C786.219 169.98 787.605 169.98 787.913 169.98C789.117 169.98 789.467 169.462 789.621 167.488C789.257 167.39 788.697 167.18 788.417 166.97C788.361 168.524 788.277 168.762 787.787 168.762C787.465 168.762 786.345 168.762 786.093 168.762C785.547 168.762 785.463 168.692 785.463 168.272V164.604H784.133ZM777.231 158.724V162H778.561V159.998H787.675V162H789.047V158.724H777.231ZM781.949 157.436C782.299 158.08 782.663 158.948 782.803 159.48L784.231 159.046C784.063 158.5 783.671 157.66 783.293 157.044L781.949 157.436ZM793.009 159.088V160.264H796.775V159.088H793.009ZM797.391 157.282V162.056C797.391 163.414 797.783 163.806 799.309 163.806C799.617 163.806 801.269 163.806 801.605 163.806C802.879 163.806 803.243 163.288 803.397 161.426C803.033 161.342 802.501 161.132 802.207 160.922C802.137 162.378 802.039 162.63 801.493 162.63C801.129 162.63 799.757 162.63 799.463 162.63C798.847 162.63 798.735 162.546 798.735 162.056V157.282H797.391ZM802.081 158.15C801.087 158.738 799.449 159.41 797.993 159.872C798.133 160.138 798.329 160.586 798.399 160.866C799.939 160.432 801.703 159.83 803.019 159.2L802.081 158.15ZM796.453 163.918V170.162H797.783V163.918H796.453ZM790.839 165.626V166.83H803.509V165.626H790.839ZM791.987 164.226C792.337 164.016 792.925 163.89 796.929 163.05C796.901 162.77 796.873 162.238 796.901 161.874L792.533 162.714L791.903 163.148L791.987 164.226ZM791.987 164.226C791.987 163.736 793.401 162.868 793.401 162.868V157.324H792.043V161.916C792.043 162.546 791.637 162.924 791.357 163.106C791.581 163.358 791.889 163.904 791.987 164.226Z" fill="#909399"/>
</g>
</g>
<rect x="738.667" y="0.5" width="113.833" height="191" stroke="#E4E7ED"/>
<g clip-path="url(#clip54_27506_73239)">
<rect width="120" height="48" transform="translate(853)" fill="#F2F2F2"/>
<rect x="853" y="47" width="120" height="1" fill="#E4E7ED"/>
<g clip-path="url(#clip55_27506_73239)">
<path d="M863.434 25.506L863.756 26.794C864.89 26.388 866.318 25.856 867.662 25.352L867.452 24.176C865.982 24.694 864.456 25.212 863.434 25.506ZM863.588 20.942V22.16H867.564V20.942H863.588ZM865.072 18.184V29.692C865.072 29.846 865.03 29.902 864.876 29.902C864.75 29.902 864.344 29.902 863.91 29.888C864.064 30.224 864.218 30.756 864.26 31.078C865.016 31.078 865.506 31.036 865.856 30.826C866.206 30.63 866.318 30.294 866.318 29.678V18.184H865.072ZM870.546 19.696H873.486V20.928H870.546V19.696ZM869.398 18.744V21.894H874.69V18.744H869.398ZM869.076 23.392H870.616V24.736H869.076V23.392ZM868.054 22.454V25.688H871.666V22.454H868.054ZM873.402 23.392H874.998V24.736H873.402V23.392ZM872.366 22.454V25.688H876.09V22.454H872.366ZM867.83 26.654V27.746H876.356V26.654H867.83ZM871.386 25.66V31.204H872.66V25.66H871.386ZM871.19 27.158C870.308 28.348 868.572 29.398 866.864 29.888C867.13 30.14 867.508 30.616 867.69 30.924C869.454 30.294 871.232 29.034 872.226 27.564L871.19 27.158ZM872.94 27.298L872.002 27.662C872.842 28.95 874.34 30.196 875.754 30.798C875.95 30.49 876.328 30.028 876.608 29.79C875.208 29.328 873.71 28.334 872.94 27.298ZM883.846 20.508L883.23 21.768H890.524V20.508H883.846ZM885.638 23.56V24.764H890.188V23.56H885.638ZM885.624 26.654V27.9H890.37V26.654H885.624ZM884.966 20.928V31.176H886.324V20.928H884.966ZM884.294 18.338C883.622 20.382 882.502 22.412 881.242 23.7C881.536 23.91 882.054 24.386 882.264 24.624C883.552 23.168 884.784 20.914 885.568 18.674L884.294 18.338ZM880.78 18.24C880.024 20.312 878.75 22.37 877.406 23.686C877.644 24.008 878.036 24.75 878.162 25.058C879.688 23.49 881.144 21.026 882.054 18.646L880.78 18.24ZM879.324 21.964V31.162H880.654V20.648L880.64 20.634L879.324 21.964Z" fill="#909399"/>
</g>
<rect width="120" height="48" transform="translate(853 48)" fill="#F4F4F5"/>
<rect x="853" y="95" width="120" height="1" fill="#E4E7ED"/>
<rect width="120" height="48" transform="translate(853 96)" fill="white"/>
<rect x="853" y="143" width="120" height="1" fill="#E4E7ED"/>
<rect x="863" y="102" width="96" height="36" rx="4" fill="#409EFF"/>
<path d="M883.49 122.64V123.872H896.51V122.64H883.49ZM884.036 114.996V116.228H895.978V114.996H884.036ZM886.024 120.022V121.17H894.032V120.022H886.024ZM893.542 117.404V125.65C893.542 125.888 893.458 125.958 893.192 125.958C892.954 125.972 892.044 125.986 891.19 125.944C891.386 126.28 891.582 126.854 891.666 127.204C892.856 127.204 893.668 127.19 894.172 126.98C894.69 126.77 894.858 126.392 894.858 125.664V117.404H893.542ZM885.128 117.404V127.204H886.43V118.608H894.074V117.404H885.128ZM889.272 115.374V123.088H890.602V115.374H889.272ZM903.244 114.184C902.81 116.452 901.998 118.65 900.878 120.008C901.228 120.162 901.9 120.54 902.18 120.736C903.258 119.252 904.14 116.9 904.672 114.45L903.244 114.184ZM903.3 116.48L902.684 117.796H909.152V116.48H903.3ZM908.732 116.48V116.802C908.536 117.936 907.99 119.462 907.57 120.344C907.878 120.47 908.41 120.736 908.69 120.89C909.194 119.882 909.81 118.384 910.16 116.956L909.194 116.41L908.928 116.48H908.732ZM897.686 116.102C898.652 116.648 899.87 117.502 900.444 118.09L901.284 117.012C900.682 116.424 899.436 115.64 898.484 115.136L897.686 116.102ZM897.49 124.922L898.722 125.832C899.59 124.53 900.584 122.934 901.396 121.478L900.36 120.596C899.45 122.164 898.302 123.9 897.49 124.922ZM906.086 119.63L904.938 119.812C905.624 123.34 906.898 125.902 909.656 127.092C909.838 126.728 910.244 126.168 910.538 125.916C907.962 124.964 906.66 122.64 906.086 119.63ZM904.84 118.37V119.238C904.84 121.17 904.504 124.208 900.36 126.224C900.696 126.462 901.172 126.952 901.382 127.274C905.834 125.006 906.254 121.52 906.254 119.266V118.37H904.84ZM912.47 116.046V124.208H913.786V117.32H922.214V124.138H923.586V116.046H912.47ZM913.324 119.084V120.316H922.9V119.084H913.324ZM913.324 122.164V123.438H922.914V122.164H913.324ZM917.258 114.184V127.176H918.644V114.184H917.258ZM926.33 115.262C927.072 115.934 928.024 116.872 928.472 117.474L929.368 116.536C928.906 115.962 927.926 115.08 927.184 114.45L926.33 115.262ZM927.45 126.98C927.66 126.672 928.08 126.336 930.516 124.432C930.376 124.18 930.166 123.662 930.082 123.312L927.478 125.272L927.17 125.748L927.45 126.98ZM925.532 118.552V119.826H928.262V118.552H925.532ZM927.45 126.98C927.45 126.504 928.738 125.594 928.738 125.594V118.552H927.464V124.6C927.464 125.23 927.058 125.678 926.778 125.86C927.002 126.112 927.338 126.672 927.45 126.98ZM931.846 122.262V123.158H936.494V122.262H931.846ZM930.306 115.22V116.2H938.048V115.22H930.306ZM930.67 116.956V117.88H937.628V116.956H930.67ZM929.886 118.678V119.658H938.482V118.678H929.886ZM931.818 124.152V125.062H936.494V124.152H931.818ZM930.866 120.358V127.176H932.098V121.352H936.508V120.358H930.866ZM936.172 120.358V125.804C936.172 125.972 936.102 126.028 935.92 126.028C935.724 126.042 935.052 126.042 934.408 126.014C934.562 126.336 934.73 126.826 934.772 127.148C935.766 127.162 936.424 127.148 936.858 126.952C937.306 126.77 937.432 126.434 937.432 125.818V120.358H936.172ZM933.47 114.184V119H934.786V114.184H933.47Z" fill="white"/>
<rect width="120" height="48" transform="translate(853 144)" fill="white"/>
<rect x="863" y="150" width="96" height="36" rx="4" fill="#409EFF"/>
<path d="M883.49 170.64V171.872H896.51V170.64H883.49ZM884.036 162.996V164.228H895.978V162.996H884.036ZM886.024 168.022V169.17H894.032V168.022H886.024ZM893.542 165.404V173.65C893.542 173.888 893.458 173.958 893.192 173.958C892.954 173.972 892.044 173.986 891.19 173.944C891.386 174.28 891.582 174.854 891.666 175.204C892.856 175.204 893.668 175.19 894.172 174.98C894.69 174.77 894.858 174.392 894.858 173.664V165.404H893.542ZM885.128 165.404V175.204H886.43V166.608H894.074V165.404H885.128ZM889.272 163.374V171.088H890.602V163.374H889.272ZM903.244 162.184C902.81 164.452 901.998 166.65 900.878 168.008C901.228 168.162 901.9 168.54 902.18 168.736C903.258 167.252 904.14 164.9 904.672 162.45L903.244 162.184ZM903.3 164.48L902.684 165.796H909.152V164.48H903.3ZM908.732 164.48V164.802C908.536 165.936 907.99 167.462 907.57 168.344C907.878 168.47 908.41 168.736 908.69 168.89C909.194 167.882 909.81 166.384 910.16 164.956L909.194 164.41L908.928 164.48H908.732ZM897.686 164.102C898.652 164.648 899.87 165.502 900.444 166.09L901.284 165.012C900.682 164.424 899.436 163.64 898.484 163.136L897.686 164.102ZM897.49 172.922L898.722 173.832C899.59 172.53 900.584 170.934 901.396 169.478L900.36 168.596C899.45 170.164 898.302 171.9 897.49 172.922ZM906.086 167.63L904.938 167.812C905.624 171.34 906.898 173.902 909.656 175.092C909.838 174.728 910.244 174.168 910.538 173.916C907.962 172.964 906.66 170.64 906.086 167.63ZM904.84 166.37V167.238C904.84 169.17 904.504 172.208 900.36 174.224C900.696 174.462 901.172 174.952 901.382 175.274C905.834 173.006 906.254 169.52 906.254 167.266V166.37H904.84ZM912.47 164.046V172.208H913.786V165.32H922.214V172.138H923.586V164.046H912.47ZM913.324 167.084V168.316H922.9V167.084H913.324ZM913.324 170.164V171.438H922.914V170.164H913.324ZM917.258 162.184V175.176H918.644V162.184H917.258ZM926.33 163.262C927.072 163.934 928.024 164.872 928.472 165.474L929.368 164.536C928.906 163.962 927.926 163.08 927.184 162.45L926.33 163.262ZM927.45 174.98C927.66 174.672 928.08 174.336 930.516 172.432C930.376 172.18 930.166 171.662 930.082 171.312L927.478 173.272L927.17 173.748L927.45 174.98ZM925.532 166.552V167.826H928.262V166.552H925.532ZM927.45 174.98C927.45 174.504 928.738 173.594 928.738 173.594V166.552H927.464V172.6C927.464 173.23 927.058 173.678 926.778 173.86C927.002 174.112 927.338 174.672 927.45 174.98ZM931.846 170.262V171.158H936.494V170.262H931.846ZM930.306 163.22V164.2H938.048V163.22H930.306ZM930.67 164.956V165.88H937.628V164.956H930.67ZM929.886 166.678V167.658H938.482V166.678H929.886ZM931.818 172.152V173.062H936.494V172.152H931.818ZM930.866 168.358V175.176H932.098V169.352H936.508V168.358H930.866ZM936.172 168.358V173.804C936.172 173.972 936.102 174.028 935.92 174.028C935.724 174.042 935.052 174.042 934.408 174.014C934.562 174.336 934.73 174.826 934.772 175.148C935.766 175.162 936.424 175.148 936.858 174.952C937.306 174.77 937.432 174.434 937.432 173.818V168.358H936.172ZM933.47 162.184V167H934.786V162.184H933.47Z" fill="white"/>
</g>
<rect x="853.5" y="0.5" width="119" height="191" stroke="#E4E7ED"/>
<defs>
<clipPath id="clip0_27506_73239">
<rect width="114.833" height="192" fill="white"/>
</clipPath>
<clipPath id="clip1_27506_73239">
<rect width="114.833" height="48" fill="white"/>
</clipPath>
<clipPath id="clip2_27506_73239">
<rect width="28" height="22" fill="white" transform="translate(10 13)"/>
</clipPath>
<clipPath id="clip3_27506_73239">
<rect width="114.833" height="48" fill="white" transform="translate(0 48)"/>
</clipPath>
<clipPath id="clip4_27506_73239">
<rect width="8" height="22" fill="white" transform="translate(10 61)"/>
</clipPath>
<clipPath id="clip5_27506_73239">
<rect width="114.833" height="48" fill="white" transform="translate(0 96)"/>
</clipPath>
<clipPath id="clip6_27506_73239">
<rect width="8" height="22" fill="white" transform="translate(10 109)"/>
</clipPath>
<clipPath id="clip7_27506_73239">
<rect width="8" height="22" fill="white" transform="translate(10 157)"/>
</clipPath>
<clipPath id="clip8_27506_73239">
<rect x="114.833" width="164" height="192" fill="white"/>
</clipPath>
<clipPath id="clip9_27506_73239">
<rect width="164" height="48" fill="white" transform="translate(114.833)"/>
</clipPath>
<clipPath id="clip10_27506_73239">
<rect width="28" height="22" fill="white" transform="translate(124.833 13)"/>
</clipPath>
<clipPath id="clip11_27506_73239">
<rect width="164" height="48" fill="white" transform="translate(114.833 48)"/>
</clipPath>
<clipPath id="clip12_27506_73239">
<rect width="134" height="22" fill="white" transform="translate(124.833 61)"/>
</clipPath>
<clipPath id="clip13_27506_73239">
<rect width="164" height="48" fill="white" transform="translate(114.833 96)"/>
</clipPath>
<clipPath id="clip14_27506_73239">
<rect width="134" height="22" fill="white" transform="translate(124.833 109)"/>
</clipPath>
<clipPath id="clip15_27506_73239">
<rect width="134" height="22" fill="white" transform="translate(124.833 157)"/>
</clipPath>
<clipPath id="clip16_27506_73239">
<rect x="278.833" width="114.833" height="192" fill="white"/>
</clipPath>
<clipPath id="clip17_27506_73239">
<rect width="114.833" height="48" fill="white" transform="translate(278.833)"/>
</clipPath>
<clipPath id="clip18_27506_73239">
<rect width="42" height="22" fill="white" transform="translate(288.833 13)"/>
</clipPath>
<clipPath id="clip19_27506_73239">
<rect width="114.833" height="48" fill="white" transform="translate(278.833 48)"/>
</clipPath>
<clipPath id="clip20_27506_73239">
<rect width="28" height="22" fill="white" transform="translate(288.833 56)"/>
</clipPath>
<clipPath id="clip21_27506_73239">
<rect width="114.833" height="48" fill="white" transform="translate(278.833 96)"/>
</clipPath>
<clipPath id="clip22_27506_73239">
<rect width="28" height="22" fill="white" transform="translate(288.833 104)"/>
</clipPath>
<clipPath id="clip23_27506_73239">
<rect width="28" height="22" fill="white" transform="translate(288.833 152)"/>
</clipPath>
<clipPath id="clip24_27506_73239">
<rect x="393.667" width="114.833" height="192" fill="white"/>
</clipPath>
<clipPath id="clip25_27506_73239">
<rect width="114.833" height="48" fill="white" transform="translate(393.667)"/>
</clipPath>
<clipPath id="clip26_27506_73239">
<rect width="56" height="22" fill="white" transform="translate(403.667 13)"/>
</clipPath>
<clipPath id="clip27_27506_73239">
<rect width="114.833" height="48" fill="white" transform="translate(393.667 48)"/>
</clipPath>
<clipPath id="clip28_27506_73239">
<rect width="26" height="22" fill="white" transform="translate(403.667 56)"/>
</clipPath>
<clipPath id="clip29_27506_73239">
<rect width="114.833" height="48" fill="white" transform="translate(393.667 96)"/>
</clipPath>
<clipPath id="clip30_27506_73239">
<rect width="26" height="22" fill="white" transform="translate(403.667 104)"/>
</clipPath>
<clipPath id="clip31_27506_73239">
<rect width="26" height="22" fill="white" transform="translate(403.667 152)"/>
</clipPath>
<clipPath id="clip32_27506_73239">
<rect x="508.5" width="114.833" height="192" fill="white"/>
</clipPath>
<clipPath id="clip33_27506_73239">
<rect width="114.833" height="48" fill="white" transform="translate(508.5)"/>
</clipPath>
<clipPath id="clip34_27506_73239">
<rect width="42" height="22" fill="white" transform="translate(518.5 13)"/>
</clipPath>
<clipPath id="clip35_27506_73239">
<rect width="114.833" height="48" fill="white" transform="translate(508.5 48)"/>
</clipPath>
<clipPath id="clip36_27506_73239">
<rect width="114.833" height="48" fill="white" transform="translate(508.5 96)"/>
</clipPath>
<clipPath id="clip37_27506_73239">
<rect width="42" height="22" fill="white" transform="translate(518.5 104)"/>
</clipPath>
<clipPath id="clip38_27506_73239">
<rect width="42" height="22" fill="white" transform="translate(518.5 152)"/>
</clipPath>
<clipPath id="clip39_27506_73239">
<rect x="623.333" width="114.833" height="192" fill="white"/>
</clipPath>
<clipPath id="clip40_27506_73239">
<rect width="114.833" height="48" fill="white" transform="translate(623.333)"/>
</clipPath>
<clipPath id="clip41_27506_73239">
<rect width="56" height="22" fill="white" transform="translate(633.333 13)"/>
</clipPath>
<clipPath id="clip42_27506_73239">
<rect width="114.833" height="48" fill="white" transform="translate(623.333 48)"/>
</clipPath>
<clipPath id="clip43_27506_73239">
<rect width="114.833" height="48" fill="white" transform="translate(623.333 96)"/>
</clipPath>
<clipPath id="clip44_27506_73239">
<rect width="26" height="22" fill="white" transform="translate(633.333 104)"/>
</clipPath>
<clipPath id="clip45_27506_73239">
<rect width="26" height="22" fill="white" transform="translate(633.333 152)"/>
</clipPath>
<clipPath id="clip46_27506_73239">
<rect x="738.167" width="114.833" height="192" fill="white"/>
</clipPath>
<clipPath id="clip47_27506_73239">
<rect width="114.833" height="48" fill="white" transform="translate(738.167)"/>
</clipPath>
<clipPath id="clip48_27506_73239">
<rect width="28" height="22" fill="white" transform="translate(748.167 13)"/>
</clipPath>
<clipPath id="clip49_27506_73239">
<rect width="114.833" height="48" fill="white" transform="translate(738.167 48)"/>
</clipPath>
<clipPath id="clip50_27506_73239">
<rect width="28" height="22" fill="white" transform="translate(748.167 56)"/>
</clipPath>
<clipPath id="clip51_27506_73239">
<rect width="114.833" height="48" fill="white" transform="translate(738.167 96)"/>
</clipPath>
<clipPath id="clip52_27506_73239">
<rect width="56" height="22" fill="white" transform="translate(748.167 104)"/>
</clipPath>
<clipPath id="clip53_27506_73239">
<rect width="56" height="22" fill="white" transform="translate(748.167 152)"/>
</clipPath>
<clipPath id="clip54_27506_73239">
<rect x="853" width="120" height="192" fill="white"/>
</clipPath>
<clipPath id="clip55_27506_73239">
<rect width="28" height="22" fill="white" transform="translate(863 13)"/>
</clipPath>
</defs>
</svg>
