<svg width="973" height="192" viewBox="0 0 973 192" fill="none" xmlns="http://www.w3.org/2000/svg">
<rect width="973" height="192" fill="white"/>
<g clip-path="url(#clip0_28292_92374)">
<g clip-path="url(#clip1_28292_92374)">
<rect width="115.5" height="48" fill="#F2F2F2"/>
<rect y="47" width="116" height="1" fill="#E4E7ED"/>
<g clip-path="url(#clip2_28292_92374)">
<path d="M14.088 21.782V22.846H21.06V21.782H14.088ZM13.346 25.324V26.458H22.348V25.324H13.346ZM17.476 25.772V29.734C17.476 29.93 17.406 29.972 17.126 29.986C16.874 30 15.894 30 14.942 29.972C15.124 30.322 15.334 30.826 15.39 31.19C16.636 31.19 17.504 31.204 18.064 31.008C18.638 30.826 18.806 30.476 18.806 29.762V25.772H17.476ZM21.942 25.324V25.506C21.466 26.36 20.766 27.382 20.192 28.026L21.256 28.53C21.928 27.802 22.67 26.668 23.328 25.646L22.376 25.254L22.166 25.324H21.942ZM20.654 21.782V22.034C20.052 22.762 18.778 23.784 17.672 24.33C17.882 24.512 18.218 24.862 18.386 25.086C19.73 24.442 21.158 23.378 22.138 22.37L21.284 21.712L20.99 21.782H20.654ZM12.254 19.696V20.928H23.342V19.696H12.254ZM11.61 19.696V23.56C11.61 25.604 11.512 28.488 10.35 30.49C10.658 30.63 11.232 31.008 11.47 31.232C12.702 29.076 12.898 25.786 12.898 23.56V19.696H11.61ZM15.18 24.078C16.496 24.652 18.246 25.52 19.114 26.08L19.954 25.212C19.03 24.666 17.252 23.84 15.978 23.322L15.18 24.078ZM16.51 18.464C16.79 19.052 17.14 19.85 17.294 20.326L18.666 19.892C18.484 19.43 18.12 18.66 17.812 18.1L16.51 18.464ZM27.822 19.892H34.08V21.53H27.822V19.892ZM26.506 18.73V22.692H35.48V18.73H26.506ZM24.812 23.784V24.988H37.118V23.784H24.812ZM27.486 26.332V27.536H34.5V26.332H27.486ZM34.094 26.332V26.514C33.828 28.558 33.534 29.524 33.142 29.818C32.974 29.93 32.792 29.944 32.47 29.944C32.064 29.944 31.042 29.93 30.076 29.846C30.314 30.196 30.51 30.728 30.538 31.106C31.504 31.162 32.428 31.162 32.932 31.134C33.52 31.106 33.912 31.022 34.29 30.686C34.794 30.224 35.144 29.174 35.452 26.906C35.48 26.724 35.522 26.332 35.522 26.332H34.094ZM27.808 24.274C27.5 25.338 27.052 26.668 26.674 27.536H28.2C28.494 26.752 28.928 25.506 29.222 24.47L27.808 24.274Z" fill="#909399"/>
</g>
</g>
<g clip-path="url(#clip3_28292_92374)">
<rect width="115.5" height="48" transform="translate(0 48)" fill="#F4F4F5"/>
<rect y="95" width="115.5" height="1" fill="#E4E7ED"/>
<g clip-path="url(#clip4_28292_92374)">
<path d="M11.19 78H17.084V76.67H15.068V67.696H13.85C13.248 68.06 12.576 68.312 11.596 68.48V69.502H13.458V76.67H11.19V78Z" fill="#909399"/>
</g>
</g>
<g clip-path="url(#clip5_28292_92374)">
<rect width="115.5" height="48" transform="translate(0 96)" fill="white"/>
<rect y="143" width="115.5" height="1" fill="#E4E7ED"/>
<g clip-path="url(#clip6_28292_92374)">
<path d="M10.602 126H17.266V124.628H14.69C14.186 124.628 13.528 124.684 12.996 124.74C15.18 122.64 16.776 120.582 16.776 118.608C16.776 116.732 15.558 115.514 13.668 115.514C12.324 115.514 11.414 116.088 10.518 117.054L11.442 117.936C11.988 117.306 12.66 116.802 13.472 116.802C14.62 116.802 15.208 117.572 15.208 118.678C15.208 120.372 13.654 122.374 10.602 125.062V126Z" fill="#909399"/>
</g>
</g>
<rect width="115.5" height="48" transform="translate(0 144)" fill="white"/>
<g clip-path="url(#clip7_28292_92374)">
<path d="M13.738 174.196C15.642 174.196 17.196 173.104 17.196 171.242C17.196 169.842 16.258 168.96 15.068 168.652V168.582C16.16 168.176 16.846 167.35 16.846 166.16C16.846 164.466 15.544 163.514 13.696 163.514C12.506 163.514 11.554 164.018 10.728 164.746L11.582 165.768C12.17 165.18 12.842 164.802 13.626 164.802C14.62 164.802 15.208 165.376 15.208 166.286C15.208 167.322 14.536 168.078 12.52 168.078V169.282C14.83 169.282 15.558 170.01 15.558 171.158C15.558 172.222 14.76 172.866 13.612 172.866C12.534 172.866 11.778 172.348 11.176 171.732L10.378 172.768C11.078 173.552 12.128 174.196 13.738 174.196Z" fill="#909399"/>
</g>
</g>
<rect x="0.5" y="0.5" width="114.5" height="191" stroke="#E4E7ED"/>
<g clip-path="url(#clip8_28292_92374)">
<g clip-path="url(#clip9_28292_92374)">
<rect width="164" height="48" transform="translate(115.5)" fill="#F2F2F2"/>
<rect x="115.5" y="47" width="164" height="1" fill="#E4E7ED"/>
<g clip-path="url(#clip10_28292_92374)">
<path d="M127.166 19.332V20.522H129.882V27.396H127.166V28.586H131.114V19.332H127.166ZM127.236 23.308V24.484H130.274V23.308H127.236ZM126.536 19.332V29.706H127.782V19.332H126.536ZM131.702 20.9V22.202H139.01V20.9H131.702ZM136.084 18.268V29.314C136.084 29.594 135.972 29.692 135.678 29.692C135.37 29.706 134.348 29.706 133.298 29.664C133.494 30.042 133.704 30.644 133.774 31.008C135.174 31.022 136.112 30.994 136.658 30.77C137.218 30.56 137.428 30.182 137.428 29.314V18.268H136.084ZM132.038 23.826C132.752 24.876 133.676 26.318 134.11 27.158L135.286 26.472C134.81 25.646 133.858 24.274 133.13 23.252L132.038 23.826ZM140.648 21.432V31.176H142.006V21.432H140.648ZM140.844 18.968C141.488 19.612 142.216 20.508 142.524 21.096L143.63 20.382C143.294 19.78 142.538 18.926 141.88 18.338L140.844 18.968ZM144.344 18.94V20.172H151.806V18.94H144.344ZM151.064 18.94V29.664C151.064 29.846 151.008 29.916 150.826 29.916C150.658 29.916 150.098 29.93 149.58 29.902C149.748 30.238 149.916 30.77 149.972 31.106C150.84 31.106 151.47 31.092 151.89 30.882C152.296 30.672 152.422 30.35 152.422 29.678V18.94H151.064ZM144.946 25.954H148.026V27.606H144.946V25.954ZM144.946 23.238H148.026V24.876H144.946V23.238ZM143.756 22.16V28.684H149.272V22.16H143.756Z" fill="#909399"/>
</g>
</g>
<g clip-path="url(#clip11_28292_92374)">
<rect width="164" height="48" transform="translate(115.5 48)" fill="#F4F4F5"/>
<rect x="115.5" y="95" width="164" height="1" fill="#E4E7ED"/>
<g clip-path="url(#clip12_28292_92374)">
<path d="M126.102 78H132.766V76.628H130.19C129.686 76.628 129.028 76.684 128.496 76.74C130.68 74.64 132.276 72.582 132.276 70.608C132.276 68.732 131.058 67.514 129.168 67.514C127.824 67.514 126.914 68.088 126.018 69.054L126.942 69.936C127.488 69.306 128.16 68.802 128.972 68.802C130.12 68.802 130.708 69.572 130.708 70.678C130.708 72.372 129.154 74.374 126.102 77.062V78ZM137.474 78.196C139.49 78.196 140.806 76.39 140.806 72.806C140.806 69.25 139.49 67.514 137.474 67.514C135.444 67.514 134.142 69.25 134.142 72.806C134.142 76.39 135.444 78.196 137.474 78.196ZM137.474 76.908C136.424 76.908 135.682 75.788 135.682 72.806C135.682 69.866 136.424 68.774 137.474 68.774C138.524 68.774 139.252 69.866 139.252 72.806C139.252 75.788 138.524 76.908 137.474 76.908ZM142.071 78H148.735V76.628H146.159C145.655 76.628 144.997 76.684 144.465 76.74C146.649 74.64 148.245 72.582 148.245 70.608C148.245 68.732 147.027 67.514 145.137 67.514C143.793 67.514 142.883 68.088 141.987 69.054L142.911 69.936C143.457 69.306 144.129 68.802 144.941 68.802C146.089 68.802 146.677 69.572 146.677 70.678C146.677 72.372 145.123 74.374 142.071 77.062V78ZM150.055 78H156.719V76.628H154.143C153.639 76.628 152.981 76.684 152.449 76.74C154.633 74.64 156.229 72.582 156.229 70.608C156.229 68.732 155.011 67.514 153.121 67.514C151.777 67.514 150.867 68.088 149.971 69.054L150.895 69.936C151.441 69.306 152.113 68.802 152.925 68.802C154.073 68.802 154.661 69.572 154.661 70.678C154.661 72.372 153.107 74.374 150.055 77.062V78ZM158.096 74.654H161.792V73.45H158.096V74.654ZM166.431 78.196C168.447 78.196 169.763 76.39 169.763 72.806C169.763 69.25 168.447 67.514 166.431 67.514C164.401 67.514 163.099 69.25 163.099 72.806C163.099 76.39 164.401 78.196 166.431 78.196ZM166.431 76.908C165.381 76.908 164.639 75.788 164.639 72.806C164.639 69.866 165.381 68.774 166.431 68.774C167.481 68.774 168.209 69.866 168.209 72.806C168.209 75.788 167.481 76.908 166.431 76.908ZM174.43 78.196C176.418 78.196 177.762 77.02 177.762 75.494C177.762 74.08 176.95 73.282 176.026 72.764V72.694C176.656 72.204 177.37 71.322 177.37 70.258C177.37 68.648 176.264 67.542 174.472 67.542C172.778 67.542 171.518 68.592 171.518 70.202C171.518 71.28 172.134 72.064 172.904 72.61V72.666C171.952 73.17 171.07 74.094 171.07 75.452C171.07 77.048 172.484 78.196 174.43 78.196ZM175.102 72.288C173.954 71.826 172.974 71.308 172.974 70.202C172.974 69.278 173.604 68.704 174.444 68.704C175.438 68.704 176.026 69.418 176.026 70.356C176.026 71.056 175.718 71.714 175.102 72.288ZM174.458 77.02C173.338 77.02 172.484 76.306 172.484 75.284C172.484 74.388 172.988 73.632 173.702 73.128C175.102 73.716 176.236 74.192 176.236 75.438C176.236 76.404 175.508 77.02 174.458 77.02ZM179.068 74.654H182.764V73.45H179.068V74.654ZM184.016 78H190.68V76.628H188.104C187.6 76.628 186.942 76.684 186.41 76.74C188.594 74.64 190.19 72.582 190.19 70.608C190.19 68.732 188.972 67.514 187.082 67.514C185.738 67.514 184.828 68.088 183.932 69.054L184.856 69.936C185.402 69.306 186.074 68.802 186.886 68.802C188.034 68.802 188.622 69.572 188.622 70.678C188.622 72.372 187.068 74.374 184.016 77.062V78ZM192 78H198.664V76.628H196.088C195.584 76.628 194.926 76.684 194.394 76.74C196.578 74.64 198.174 72.582 198.174 70.608C198.174 68.732 196.956 67.514 195.066 67.514C193.722 67.514 192.812 68.088 191.916 69.054L192.84 69.936C193.386 69.306 194.058 68.802 194.87 68.802C196.018 68.802 196.606 69.572 196.606 70.678C196.606 72.372 195.052 74.374 192 77.062V78ZM203.717 78H209.611V76.67H207.595V67.696H206.377C205.775 68.06 205.103 68.312 204.123 68.48V69.502H205.985V76.67H203.717V78ZM215.244 78H216.756V67.696H214.88L210.792 74.15V75.242H218.072V73.982H212.416L214.432 70.888C214.726 70.356 215.006 69.81 215.258 69.292H215.328C215.286 69.852 215.244 70.734 215.244 71.28V78ZM220.582 72.694C221.184 72.694 221.66 72.218 221.66 71.56C221.66 70.902 221.184 70.426 220.582 70.426C219.966 70.426 219.504 70.902 219.504 71.56C219.504 72.218 219.966 72.694 220.582 72.694ZM220.582 78.196C221.184 78.196 221.66 77.72 221.66 77.062C221.66 76.39 221.184 75.928 220.582 75.928C219.966 75.928 219.504 76.39 219.504 77.062C219.504 77.72 219.966 78.196 220.582 78.196ZM223.268 78H229.932V76.628H227.356C226.852 76.628 226.194 76.684 225.662 76.74C227.846 74.64 229.442 72.582 229.442 70.608C229.442 68.732 228.224 67.514 226.334 67.514C224.99 67.514 224.08 68.088 223.184 69.054L224.108 69.936C224.654 69.306 225.326 68.802 226.138 68.802C227.286 68.802 227.874 69.572 227.874 70.678C227.874 72.372 226.32 74.374 223.268 77.062V78ZM234.388 78.196C236.292 78.196 237.846 77.104 237.846 75.242C237.846 73.842 236.908 72.96 235.718 72.652V72.582C236.81 72.176 237.496 71.35 237.496 70.16C237.496 68.466 236.194 67.514 234.346 67.514C233.156 67.514 232.204 68.018 231.378 68.746L232.232 69.768C232.82 69.18 233.492 68.802 234.276 68.802C235.27 68.802 235.858 69.376 235.858 70.286C235.858 71.322 235.186 72.078 233.17 72.078V73.282C235.48 73.282 236.208 74.01 236.208 75.158C236.208 76.222 235.41 76.866 234.262 76.866C233.184 76.866 232.428 76.348 231.826 75.732L231.028 76.768C231.728 77.552 232.778 78.196 234.388 78.196ZM240.721 72.694C241.323 72.694 241.799 72.218 241.799 71.56C241.799 70.902 241.323 70.426 240.721 70.426C240.105 70.426 239.643 70.902 239.643 71.56C239.643 72.218 240.105 72.694 240.721 72.694ZM240.721 78.196C241.323 78.196 241.799 77.72 241.799 77.062C241.799 76.39 241.323 75.928 240.721 75.928C240.105 75.928 239.643 76.39 239.643 77.062C239.643 77.72 240.105 78.196 240.721 78.196ZM246.795 78.196C248.811 78.196 250.127 76.39 250.127 72.806C250.127 69.25 248.811 67.514 246.795 67.514C244.765 67.514 243.463 69.25 243.463 72.806C243.463 76.39 244.765 78.196 246.795 78.196ZM246.795 76.908C245.745 76.908 245.003 75.788 245.003 72.806C245.003 69.866 245.745 68.774 246.795 68.774C247.845 68.774 248.573 69.866 248.573 72.806C248.573 75.788 247.845 76.908 246.795 76.908ZM254.527 78.196C256.431 78.196 257.985 77.104 257.985 75.242C257.985 73.842 257.047 72.96 255.857 72.652V72.582C256.949 72.176 257.635 71.35 257.635 70.16C257.635 68.466 256.333 67.514 254.485 67.514C253.295 67.514 252.343 68.018 251.517 68.746L252.371 69.768C252.959 69.18 253.631 68.802 254.415 68.802C255.409 68.802 255.997 69.376 255.997 70.286C255.997 71.322 255.325 72.078 253.309 72.078V73.282C255.619 73.282 256.347 74.01 256.347 75.158C256.347 76.222 255.549 76.866 254.401 76.866C253.323 76.866 252.567 76.348 251.965 75.732L251.167 76.768C251.867 77.552 252.917 78.196 254.527 78.196Z" fill="#909399"/>
</g>
</g>
<g clip-path="url(#clip13_28292_92374)">
<rect width="164" height="48" transform="translate(115.5 96)" fill="white"/>
<rect x="115.5" y="143" width="164" height="1" fill="#E4E7ED"/>
<g clip-path="url(#clip14_28292_92374)">
<path d="M126.102 126H132.766V124.628H130.19C129.686 124.628 129.028 124.684 128.496 124.74C130.68 122.64 132.276 120.582 132.276 118.608C132.276 116.732 131.058 115.514 129.168 115.514C127.824 115.514 126.914 116.088 126.018 117.054L126.942 117.936C127.488 117.306 128.16 116.802 128.972 116.802C130.12 116.802 130.708 117.572 130.708 118.678C130.708 120.372 129.154 122.374 126.102 125.062V126ZM137.474 126.196C139.49 126.196 140.806 124.39 140.806 120.806C140.806 117.25 139.49 115.514 137.474 115.514C135.444 115.514 134.142 117.25 134.142 120.806C134.142 124.39 135.444 126.196 137.474 126.196ZM137.474 124.908C136.424 124.908 135.682 123.788 135.682 120.806C135.682 117.866 136.424 116.774 137.474 116.774C138.524 116.774 139.252 117.866 139.252 120.806C139.252 123.788 138.524 124.908 137.474 124.908ZM142.071 126H148.735V124.628H146.159C145.655 124.628 144.997 124.684 144.465 124.74C146.649 122.64 148.245 120.582 148.245 118.608C148.245 116.732 147.027 115.514 145.137 115.514C143.793 115.514 142.883 116.088 141.987 117.054L142.911 117.936C143.457 117.306 144.129 116.802 144.941 116.802C146.089 116.802 146.677 117.572 146.677 118.678C146.677 120.372 145.123 122.374 142.071 125.062V126ZM150.055 126H156.719V124.628H154.143C153.639 124.628 152.981 124.684 152.449 124.74C154.633 122.64 156.229 120.582 156.229 118.608C156.229 116.732 155.011 115.514 153.121 115.514C151.777 115.514 150.867 116.088 149.971 117.054L150.895 117.936C151.441 117.306 152.113 116.802 152.925 116.802C154.073 116.802 154.661 117.572 154.661 118.678C154.661 120.372 153.107 122.374 150.055 125.062V126ZM158.096 122.654H161.792V121.45H158.096V122.654ZM166.431 126.196C168.447 126.196 169.763 124.39 169.763 120.806C169.763 117.25 168.447 115.514 166.431 115.514C164.401 115.514 163.099 117.25 163.099 120.806C163.099 124.39 164.401 126.196 166.431 126.196ZM166.431 124.908C165.381 124.908 164.639 123.788 164.639 120.806C164.639 117.866 165.381 116.774 166.431 116.774C167.481 116.774 168.209 117.866 168.209 120.806C168.209 123.788 167.481 124.908 166.431 124.908ZM174.43 126.196C176.418 126.196 177.762 125.02 177.762 123.494C177.762 122.08 176.95 121.282 176.026 120.764V120.694C176.656 120.204 177.37 119.322 177.37 118.258C177.37 116.648 176.264 115.542 174.472 115.542C172.778 115.542 171.518 116.592 171.518 118.202C171.518 119.28 172.134 120.064 172.904 120.61V120.666C171.952 121.17 171.07 122.094 171.07 123.452C171.07 125.048 172.484 126.196 174.43 126.196ZM175.102 120.288C173.954 119.826 172.974 119.308 172.974 118.202C172.974 117.278 173.604 116.704 174.444 116.704C175.438 116.704 176.026 117.418 176.026 118.356C176.026 119.056 175.718 119.714 175.102 120.288ZM174.458 125.02C173.338 125.02 172.484 124.306 172.484 123.284C172.484 122.388 172.988 121.632 173.702 121.128C175.102 121.716 176.236 122.192 176.236 123.438C176.236 124.404 175.508 125.02 174.458 125.02ZM179.068 122.654H182.764V121.45H179.068V122.654ZM184.016 126H190.68V124.628H188.104C187.6 124.628 186.942 124.684 186.41 124.74C188.594 122.64 190.19 120.582 190.19 118.608C190.19 116.732 188.972 115.514 187.082 115.514C185.738 115.514 184.828 116.088 183.932 117.054L184.856 117.936C185.402 117.306 186.074 116.802 186.886 116.802C188.034 116.802 188.622 117.572 188.622 118.678C188.622 120.372 187.068 122.374 184.016 125.062V126ZM192 126H198.664V124.628H196.088C195.584 124.628 194.926 124.684 194.394 124.74C196.578 122.64 198.174 120.582 198.174 118.608C198.174 116.732 196.956 115.514 195.066 115.514C193.722 115.514 192.812 116.088 191.916 117.054L192.84 117.936C193.386 117.306 194.058 116.802 194.87 116.802C196.018 116.802 196.606 117.572 196.606 118.678C196.606 120.372 195.052 122.374 192 125.062V126ZM203.717 126H209.611V124.67H207.595V115.696H206.377C205.775 116.06 205.103 116.312 204.123 116.48V117.502H205.985V124.67H203.717V126ZM215.244 126H216.756V115.696H214.88L210.792 122.15V123.242H218.072V121.982H212.416L214.432 118.888C214.726 118.356 215.006 117.81 215.258 117.292H215.328C215.286 117.852 215.244 118.734 215.244 119.28V126ZM220.582 120.694C221.184 120.694 221.66 120.218 221.66 119.56C221.66 118.902 221.184 118.426 220.582 118.426C219.966 118.426 219.504 118.902 219.504 119.56C219.504 120.218 219.966 120.694 220.582 120.694ZM220.582 126.196C221.184 126.196 221.66 125.72 221.66 125.062C221.66 124.39 221.184 123.928 220.582 123.928C219.966 123.928 219.504 124.39 219.504 125.062C219.504 125.72 219.966 126.196 220.582 126.196ZM223.856 126H229.75V124.67H227.734V115.696H226.516C225.914 116.06 225.242 116.312 224.262 116.48V117.502H226.124V124.67H223.856V126ZM234.948 126.196C236.614 126.196 238.028 124.852 238.028 122.808C238.028 120.624 236.852 119.574 235.116 119.574C234.346 119.574 233.394 120.05 232.792 120.862L232.862 122.038C233.478 121.1 234.22 120.736 234.836 120.736C235.928 120.736 236.53 121.478 236.53 122.808C236.53 124.138 235.83 124.95 234.934 124.95C233.674 124.95 232.89 123.704 232.89 121.044C232.89 117.894 233.996 116.83 235.368 116.83C235.97 116.83 236.6 117.152 236.978 117.6L237.86 116.62C237.272 115.99 236.432 115.514 235.284 115.514C233.24 115.514 231.392 117.096 231.392 121.044C231.392 124.544 232.988 126.196 234.948 126.196ZM240.721 120.694C241.323 120.694 241.799 120.218 241.799 119.56C241.799 118.902 241.323 118.426 240.721 118.426C240.105 118.426 239.643 118.902 239.643 119.56C239.643 120.218 240.105 120.694 240.721 120.694ZM240.721 126.196C241.323 126.196 241.799 125.72 241.799 125.062C241.799 124.39 241.323 123.928 240.721 123.928C240.105 123.928 239.643 124.39 239.643 125.062C239.643 125.72 240.105 126.196 240.721 126.196ZM246.795 126.196C248.811 126.196 250.127 124.39 250.127 120.806C250.127 117.25 248.811 115.514 246.795 115.514C244.765 115.514 243.463 117.25 243.463 120.806C243.463 124.39 244.765 126.196 246.795 126.196ZM246.795 124.908C245.745 124.908 245.003 123.788 245.003 120.806C245.003 117.866 245.745 116.774 246.795 116.774C247.845 116.774 248.573 117.866 248.573 120.806C248.573 123.788 247.845 124.908 246.795 124.908ZM254.527 126.196C256.431 126.196 257.985 125.104 257.985 123.242C257.985 121.842 257.047 120.96 255.857 120.652V120.582C256.949 120.176 257.635 119.35 257.635 118.16C257.635 116.466 256.333 115.514 254.485 115.514C253.295 115.514 252.343 116.018 251.517 116.746L252.371 117.768C252.959 117.18 253.631 116.802 254.415 116.802C255.409 116.802 255.997 117.376 255.997 118.286C255.997 119.322 255.325 120.078 253.309 120.078V121.282C255.619 121.282 256.347 122.01 256.347 123.158C256.347 124.222 255.549 124.866 254.401 124.866C253.323 124.866 252.567 124.348 251.965 123.732L251.167 124.768C251.867 125.552 252.917 126.196 254.527 126.196Z" fill="#909399"/>
</g>
</g>
<rect width="164" height="48" transform="translate(115.5 144)" fill="white"/>
<g clip-path="url(#clip15_28292_92374)">
<path d="M126.102 174H132.766V172.628H130.19C129.686 172.628 129.028 172.684 128.496 172.74C130.68 170.64 132.276 168.582 132.276 166.608C132.276 164.732 131.058 163.514 129.168 163.514C127.824 163.514 126.914 164.088 126.018 165.054L126.942 165.936C127.488 165.306 128.16 164.802 128.972 164.802C130.12 164.802 130.708 165.572 130.708 166.678C130.708 168.372 129.154 170.374 126.102 173.062V174ZM137.474 174.196C139.49 174.196 140.806 172.39 140.806 168.806C140.806 165.25 139.49 163.514 137.474 163.514C135.444 163.514 134.142 165.25 134.142 168.806C134.142 172.39 135.444 174.196 137.474 174.196ZM137.474 172.908C136.424 172.908 135.682 171.788 135.682 168.806C135.682 165.866 136.424 164.774 137.474 164.774C138.524 164.774 139.252 165.866 139.252 168.806C139.252 171.788 138.524 172.908 137.474 172.908ZM142.071 174H148.735V172.628H146.159C145.655 172.628 144.997 172.684 144.465 172.74C146.649 170.64 148.245 168.582 148.245 166.608C148.245 164.732 147.027 163.514 145.137 163.514C143.793 163.514 142.883 164.088 141.987 165.054L142.911 165.936C143.457 165.306 144.129 164.802 144.941 164.802C146.089 164.802 146.677 165.572 146.677 166.678C146.677 168.372 145.123 170.374 142.071 173.062V174ZM150.055 174H156.719V172.628H154.143C153.639 172.628 152.981 172.684 152.449 172.74C154.633 170.64 156.229 168.582 156.229 166.608C156.229 164.732 155.011 163.514 153.121 163.514C151.777 163.514 150.867 164.088 149.971 165.054L150.895 165.936C151.441 165.306 152.113 164.802 152.925 164.802C154.073 164.802 154.661 165.572 154.661 166.678C154.661 168.372 153.107 170.374 150.055 173.062V174ZM158.096 170.654H161.792V169.45H158.096V170.654ZM166.431 174.196C168.447 174.196 169.763 172.39 169.763 168.806C169.763 165.25 168.447 163.514 166.431 163.514C164.401 163.514 163.099 165.25 163.099 168.806C163.099 172.39 164.401 174.196 166.431 174.196ZM166.431 172.908C165.381 172.908 164.639 171.788 164.639 168.806C164.639 165.866 165.381 164.774 166.431 164.774C167.481 164.774 168.209 165.866 168.209 168.806C168.209 171.788 167.481 172.908 166.431 172.908ZM174.43 174.196C176.418 174.196 177.762 173.02 177.762 171.494C177.762 170.08 176.95 169.282 176.026 168.764V168.694C176.656 168.204 177.37 167.322 177.37 166.258C177.37 164.648 176.264 163.542 174.472 163.542C172.778 163.542 171.518 164.592 171.518 166.202C171.518 167.28 172.134 168.064 172.904 168.61V168.666C171.952 169.17 171.07 170.094 171.07 171.452C171.07 173.048 172.484 174.196 174.43 174.196ZM175.102 168.288C173.954 167.826 172.974 167.308 172.974 166.202C172.974 165.278 173.604 164.704 174.444 164.704C175.438 164.704 176.026 165.418 176.026 166.356C176.026 167.056 175.718 167.714 175.102 168.288ZM174.458 173.02C173.338 173.02 172.484 172.306 172.484 171.284C172.484 170.388 172.988 169.632 173.702 169.128C175.102 169.716 176.236 170.192 176.236 171.438C176.236 172.404 175.508 173.02 174.458 173.02ZM179.068 170.654H182.764V169.45H179.068V170.654ZM184.016 174H190.68V172.628H188.104C187.6 172.628 186.942 172.684 186.41 172.74C188.594 170.64 190.19 168.582 190.19 166.608C190.19 164.732 188.972 163.514 187.082 163.514C185.738 163.514 184.828 164.088 183.932 165.054L184.856 165.936C185.402 165.306 186.074 164.802 186.886 164.802C188.034 164.802 188.622 165.572 188.622 166.678C188.622 168.372 187.068 170.374 184.016 173.062V174ZM192 174H198.664V172.628H196.088C195.584 172.628 194.926 172.684 194.394 172.74C196.578 170.64 198.174 168.582 198.174 166.608C198.174 164.732 196.956 163.514 195.066 163.514C193.722 163.514 192.812 164.088 191.916 165.054L192.84 165.936C193.386 165.306 194.058 164.802 194.87 164.802C196.018 164.802 196.606 165.572 196.606 166.678C196.606 168.372 195.052 170.374 192 173.062V174ZM203.717 174H209.611V172.67H207.595V163.696H206.377C205.775 164.06 205.103 164.312 204.123 164.48V165.502H205.985V172.67H203.717V174ZM215.244 174H216.756V163.696H214.88L210.792 170.15V171.242H218.072V169.982H212.416L214.432 166.888C214.726 166.356 215.006 165.81 215.258 165.292H215.328C215.286 165.852 215.244 166.734 215.244 167.28V174ZM220.582 168.694C221.184 168.694 221.66 168.218 221.66 167.56C221.66 166.902 221.184 166.426 220.582 166.426C219.966 166.426 219.504 166.902 219.504 167.56C219.504 168.218 219.966 168.694 220.582 168.694ZM220.582 174.196C221.184 174.196 221.66 173.72 221.66 173.062C221.66 172.39 221.184 171.928 220.582 171.928C219.966 171.928 219.504 172.39 219.504 173.062C219.504 173.72 219.966 174.196 220.582 174.196ZM223.856 174H229.75V172.67H227.734V163.696H226.516C225.914 164.06 225.242 164.312 224.262 164.48V165.502H226.124V172.67H223.856V174ZM234.64 174.196C236.656 174.196 237.972 172.39 237.972 168.806C237.972 165.25 236.656 163.514 234.64 163.514C232.61 163.514 231.308 165.25 231.308 168.806C231.308 172.39 232.61 174.196 234.64 174.196ZM234.64 172.908C233.59 172.908 232.848 171.788 232.848 168.806C232.848 165.866 233.59 164.774 234.64 164.774C235.69 164.774 236.418 165.866 236.418 168.806C236.418 171.788 235.69 172.908 234.64 172.908ZM240.721 168.694C241.323 168.694 241.799 168.218 241.799 167.56C241.799 166.902 241.323 166.426 240.721 166.426C240.105 166.426 239.643 166.902 239.643 167.56C239.643 168.218 240.105 168.694 240.721 168.694ZM240.721 174.196C241.323 174.196 241.799 173.72 241.799 173.062C241.799 172.39 241.323 171.928 240.721 171.928C240.105 171.928 239.643 172.39 239.643 173.062C239.643 173.72 240.105 174.196 240.721 174.196ZM246.795 174.196C248.811 174.196 250.127 172.39 250.127 168.806C250.127 165.25 248.811 163.514 246.795 163.514C244.765 163.514 243.463 165.25 243.463 168.806C243.463 172.39 244.765 174.196 246.795 174.196ZM246.795 172.908C245.745 172.908 245.003 171.788 245.003 168.806C245.003 165.866 245.745 164.774 246.795 164.774C247.845 164.774 248.573 165.866 248.573 168.806C248.573 171.788 247.845 172.908 246.795 172.908ZM254.527 174.196C256.431 174.196 257.985 173.104 257.985 171.242C257.985 169.842 257.047 168.96 255.857 168.652V168.582C256.949 168.176 257.635 167.35 257.635 166.16C257.635 164.466 256.333 163.514 254.485 163.514C253.295 163.514 252.343 164.018 251.517 164.746L252.371 165.768C252.959 165.18 253.631 164.802 254.415 164.802C255.409 164.802 255.997 165.376 255.997 166.286C255.997 167.322 255.325 168.078 253.309 168.078V169.282C255.619 169.282 256.347 170.01 256.347 171.158C256.347 172.222 255.549 172.866 254.401 172.866C253.323 172.866 252.567 172.348 251.965 171.732L251.167 172.768C251.867 173.552 252.917 174.196 254.527 174.196Z" fill="#909399"/>
</g>
</g>
<rect x="116" y="0.5" width="163" height="191" stroke="#E4E7ED"/>
<g clip-path="url(#clip16_28292_92374)">
<g clip-path="url(#clip17_28292_92374)">
<rect width="115.5" height="48" transform="translate(279.5)" fill="#F2F2F2"/>
<rect x="279.5" y="47" width="116" height="1" fill="#E4E7ED"/>
<g clip-path="url(#clip18_28292_92374)">
<path d="M299.23 24.596C298.502 25.282 297.102 25.898 295.884 26.248C296.136 26.444 296.444 26.766 296.612 27.018C297.928 26.584 299.342 25.884 300.21 25.002L299.23 24.596ZM300.574 25.968C299.636 26.934 297.802 27.69 296.038 28.068C296.276 28.306 296.542 28.67 296.696 28.922C298.6 28.418 300.462 27.564 301.554 26.374L300.574 25.968ZM301.764 27.494C300.532 28.894 298.012 29.72 295.296 30.112C295.548 30.392 295.842 30.84 295.968 31.162C298.894 30.63 301.47 29.664 302.898 27.97L301.764 27.494ZM297.34 18.17C296.794 19.654 295.814 21.068 294.708 21.964C295.002 22.146 295.492 22.524 295.702 22.748C296.822 21.726 297.9 20.144 298.558 18.478L297.34 18.17ZM297.41 19.668L296.766 20.746H301.512V19.668H297.41ZM297.186 20.312L296.36 20.886C297.27 22.58 299.314 24.386 302.422 25.114C302.59 24.792 302.912 24.302 303.164 24.05C300.056 23.49 298.026 21.88 297.186 20.312ZM293.742 22.132V28.908H294.848V22.132H293.742ZM292.65 18.254C292.006 20.368 290.928 22.482 289.738 23.84C289.962 24.19 290.298 24.918 290.41 25.24C291.81 23.588 293.084 21.04 293.882 18.604L292.65 18.254ZM291.502 21.852V31.176H292.762V20.662L292.72 20.634L291.502 21.852ZM301.344 19.668V19.864C300.364 22.23 297.62 23.644 294.736 24.19C294.96 24.442 295.24 24.904 295.366 25.198C298.474 24.47 301.344 22.944 302.548 19.99L301.778 19.612L301.568 19.668H301.344ZM304.956 19.248C305.712 19.962 306.678 20.956 307.126 21.586L308.064 20.648C307.602 20.032 306.594 19.08 305.852 18.408L304.956 19.248ZM304.158 22.552V23.826H307.378V22.552H304.158ZM309.128 19.318V20.648H316.982V19.318H309.128ZM313.174 19.766V29.356C313.174 29.608 313.076 29.692 312.796 29.706C312.502 29.72 311.48 29.734 310.5 29.678C310.724 30.056 310.976 30.714 311.046 31.12C312.362 31.12 313.258 31.078 313.832 30.854C314.392 30.616 314.574 30.196 314.574 29.37V19.766H313.174ZM306.272 30.896C306.524 30.588 307 30.252 310.024 28.166C309.884 27.9 309.716 27.34 309.646 26.962L306.37 29.104L306.006 29.608L306.272 30.896ZM306.272 30.896C306.272 30.406 307.672 29.524 307.672 29.524V22.552H306.398V28.502C306.398 29.132 305.922 29.58 305.628 29.762C305.852 30.028 306.174 30.574 306.272 30.896ZM323.674 18.226C323.618 20.48 323.786 27.088 318.004 30.084C318.424 30.378 318.858 30.798 319.096 31.148C325.004 27.844 325.102 20.886 325.172 18.226H323.674ZM325.032 19.934L323.758 20.074C323.954 21.376 324.486 28.418 330.114 31.078C330.31 30.7 330.688 30.252 331.08 29.944C325.662 27.522 325.144 20.998 325.032 19.934Z" fill="#909399"/>
</g>
</g>
<g clip-path="url(#clip19_28292_92374)">
<rect width="115.5" height="48" transform="translate(279.5 48)" fill="#F4F4F5"/>
<rect x="279.5" y="95" width="115.5" height="1" fill="#E4E7ED"/>
<g clip-path="url(#clip20_28292_92374)">
<path d="M290.228 64.642V65.846H302.8V64.642H290.228ZM291.236 62.332V63.508H301.862V62.332H291.236ZM293.644 61.184V65.23H294.974V61.184H293.644ZM298.054 61.184V65.23H299.412V61.184H298.054ZM295.814 65.314V71.124H297.172V65.314H295.814ZM292.972 69.598H300.098V70.662H292.972V69.598ZM292.972 67.666H300.098V68.702H292.972V67.666ZM291.698 66.728V71.6H301.428V66.728H291.698ZM297.662 72.496C299.202 73.042 300.798 73.714 301.75 74.176L302.716 73.294C301.68 72.832 299.958 72.174 298.418 71.656L297.662 72.496ZM294.358 71.684C293.476 72.258 291.684 72.93 290.242 73.28C290.536 73.532 290.942 73.952 291.166 74.218C292.594 73.854 294.386 73.154 295.52 72.468L294.358 71.684ZM309.968 64.978V66.056H316.254V64.978H309.968ZM312.81 66.616V74.134H314.098V66.616H312.81ZM310.15 69.332C310.15 69.08 311.06 68.66 311.06 68.66V68.646C311.844 67.386 312.712 65.538 313.3 63.76L311.998 63.466C311.55 65.118 310.738 66.868 310.472 67.316C310.22 67.806 309.996 68.114 309.758 68.17C309.884 68.492 310.08 69.08 310.15 69.332ZM310.15 69.332C310.276 69.206 310.78 69.136 311.368 69.136H316.562L316.576 67.96H310.822L310.15 68.31V69.332ZM309.478 61.884V64.558H310.612V63.074H315.512V64.558H316.688V61.884H309.478ZM309.478 70.592V71.796H317.01V70.592H309.478ZM306.076 61.408V66.728H307.168V61.408H306.076ZM304.088 66.07V67.302H309.128V66.07H304.088ZM305.124 66.742C305.082 69.612 304.97 71.824 303.906 73.14C304.2 73.336 304.55 73.742 304.718 74.036C305.978 72.496 306.174 69.962 306.202 66.742H305.124ZM304.158 62.458C304.41 63.48 304.69 64.824 304.788 65.678L305.726 65.454C305.614 64.6 305.32 63.298 305.026 62.262L304.158 62.458ZM308.218 62.178C308.036 63.172 307.658 64.6 307.336 65.468L308.176 65.706C308.512 64.866 308.918 63.522 309.268 62.43L308.218 62.178ZM307.042 73.154C307.238 72.86 307.588 72.552 309.576 70.998C309.45 70.788 309.24 70.368 309.142 70.074L307.098 71.6L306.832 72.048L307.042 73.154ZM307.042 73.154C307.042 72.734 308.05 71.88 308.05 71.88V66.77H306.958V71.082C306.958 71.754 306.678 72.146 306.454 72.328C306.65 72.51 306.944 72.93 307.042 73.154Z" fill="#909399"/>
</g>
</g>
<g clip-path="url(#clip21_28292_92374)">
<rect width="115.5" height="48" transform="translate(279.5 96)" fill="white"/>
<rect x="279.5" y="143" width="115.5" height="1" fill="#E4E7ED"/>
<g clip-path="url(#clip22_28292_92374)">
<path d="M290.228 112.642V113.846H302.8V112.642H290.228ZM291.236 110.332V111.508H301.862V110.332H291.236ZM293.644 109.184V113.23H294.974V109.184H293.644ZM298.054 109.184V113.23H299.412V109.184H298.054ZM295.814 113.314V119.124H297.172V113.314H295.814ZM292.972 117.598H300.098V118.662H292.972V117.598ZM292.972 115.666H300.098V116.702H292.972V115.666ZM291.698 114.728V119.6H301.428V114.728H291.698ZM297.662 120.496C299.202 121.042 300.798 121.714 301.75 122.176L302.716 121.294C301.68 120.832 299.958 120.174 298.418 119.656L297.662 120.496ZM294.358 119.684C293.476 120.258 291.684 120.93 290.242 121.28C290.536 121.532 290.942 121.952 291.166 122.218C292.594 121.854 294.386 121.154 295.52 120.468L294.358 119.684ZM309.968 112.978V114.056H316.254V112.978H309.968ZM312.81 114.616V122.134H314.098V114.616H312.81ZM310.15 117.332C310.15 117.08 311.06 116.66 311.06 116.66V116.646C311.844 115.386 312.712 113.538 313.3 111.76L311.998 111.466C311.55 113.118 310.738 114.868 310.472 115.316C310.22 115.806 309.996 116.114 309.758 116.17C309.884 116.492 310.08 117.08 310.15 117.332ZM310.15 117.332C310.276 117.206 310.78 117.136 311.368 117.136H316.562L316.576 115.96H310.822L310.15 116.31V117.332ZM309.478 109.884V112.558H310.612V111.074H315.512V112.558H316.688V109.884H309.478ZM309.478 118.592V119.796H317.01V118.592H309.478ZM306.076 109.408V114.728H307.168V109.408H306.076ZM304.088 114.07V115.302H309.128V114.07H304.088ZM305.124 114.742C305.082 117.612 304.97 119.824 303.906 121.14C304.2 121.336 304.55 121.742 304.718 122.036C305.978 120.496 306.174 117.962 306.202 114.742H305.124ZM304.158 110.458C304.41 111.48 304.69 112.824 304.788 113.678L305.726 113.454C305.614 112.6 305.32 111.298 305.026 110.262L304.158 110.458ZM308.218 110.178C308.036 111.172 307.658 112.6 307.336 113.468L308.176 113.706C308.512 112.866 308.918 111.522 309.268 110.43L308.218 110.178ZM307.042 121.154C307.238 120.86 307.588 120.552 309.576 118.998C309.45 118.788 309.24 118.368 309.142 118.074L307.098 119.6L306.832 120.048L307.042 121.154ZM307.042 121.154C307.042 120.734 308.05 119.88 308.05 119.88V114.77H306.958V119.082C306.958 119.754 306.678 120.146 306.454 120.328C306.65 120.51 306.944 120.93 307.042 121.154Z" fill="#909399"/>
</g>
</g>
<rect width="115.5" height="48" transform="translate(279.5 144)" fill="white"/>
<g clip-path="url(#clip23_28292_92374)">
<path d="M290.228 160.642V161.846H302.8V160.642H290.228ZM291.236 158.332V159.508H301.862V158.332H291.236ZM293.644 157.184V161.23H294.974V157.184H293.644ZM298.054 157.184V161.23H299.412V157.184H298.054ZM295.814 161.314V167.124H297.172V161.314H295.814ZM292.972 165.598H300.098V166.662H292.972V165.598ZM292.972 163.666H300.098V164.702H292.972V163.666ZM291.698 162.728V167.6H301.428V162.728H291.698ZM297.662 168.496C299.202 169.042 300.798 169.714 301.75 170.176L302.716 169.294C301.68 168.832 299.958 168.174 298.418 167.656L297.662 168.496ZM294.358 167.684C293.476 168.258 291.684 168.93 290.242 169.28C290.536 169.532 290.942 169.952 291.166 170.218C292.594 169.854 294.386 169.154 295.52 168.468L294.358 167.684ZM309.968 160.978V162.056H316.254V160.978H309.968ZM312.81 162.616V170.134H314.098V162.616H312.81ZM310.15 165.332C310.15 165.08 311.06 164.66 311.06 164.66V164.646C311.844 163.386 312.712 161.538 313.3 159.76L311.998 159.466C311.55 161.118 310.738 162.868 310.472 163.316C310.22 163.806 309.996 164.114 309.758 164.17C309.884 164.492 310.08 165.08 310.15 165.332ZM310.15 165.332C310.276 165.206 310.78 165.136 311.368 165.136H316.562L316.576 163.96H310.822L310.15 164.31V165.332ZM309.478 157.884V160.558H310.612V159.074H315.512V160.558H316.688V157.884H309.478ZM309.478 166.592V167.796H317.01V166.592H309.478ZM306.076 157.408V162.728H307.168V157.408H306.076ZM304.088 162.07V163.302H309.128V162.07H304.088ZM305.124 162.742C305.082 165.612 304.97 167.824 303.906 169.14C304.2 169.336 304.55 169.742 304.718 170.036C305.978 168.496 306.174 165.962 306.202 162.742H305.124ZM304.158 158.458C304.41 159.48 304.69 160.824 304.788 161.678L305.726 161.454C305.614 160.6 305.32 159.298 305.026 158.262L304.158 158.458ZM308.218 158.178C308.036 159.172 307.658 160.6 307.336 161.468L308.176 161.706C308.512 160.866 308.918 159.522 309.268 158.43L308.218 158.178ZM307.042 169.154C307.238 168.86 307.588 168.552 309.576 166.998C309.45 166.788 309.24 166.368 309.142 166.074L307.098 167.6L306.832 168.048L307.042 169.154ZM307.042 169.154C307.042 168.734 308.05 167.88 308.05 167.88V162.77H306.958V167.082C306.958 167.754 306.678 168.146 306.454 168.328C306.65 168.51 306.944 168.93 307.042 169.154Z" fill="#909399"/>
</g>
</g>
<rect x="280" y="0.5" width="114.5" height="191" stroke="#E4E7ED"/>
<g clip-path="url(#clip24_28292_92374)">
<g clip-path="url(#clip25_28292_92374)">
<rect width="115.5" height="48" transform="translate(395)" fill="#F2F2F2"/>
<rect x="395" y="47" width="116" height="1" fill="#E4E7ED"/>
<g clip-path="url(#clip26_28292_92374)">
<path d="M414.73 24.596C414.002 25.282 412.602 25.898 411.384 26.248C411.636 26.444 411.944 26.766 412.112 27.018C413.428 26.584 414.842 25.884 415.71 25.002L414.73 24.596ZM416.074 25.968C415.136 26.934 413.302 27.69 411.538 28.068C411.776 28.306 412.042 28.67 412.196 28.922C414.1 28.418 415.962 27.564 417.054 26.374L416.074 25.968ZM417.264 27.494C416.032 28.894 413.512 29.72 410.796 30.112C411.048 30.392 411.342 30.84 411.468 31.162C414.394 30.63 416.97 29.664 418.398 27.97L417.264 27.494ZM412.84 18.17C412.294 19.654 411.314 21.068 410.208 21.964C410.502 22.146 410.992 22.524 411.202 22.748C412.322 21.726 413.4 20.144 414.058 18.478L412.84 18.17ZM412.91 19.668L412.266 20.746H417.012V19.668H412.91ZM412.686 20.312L411.86 20.886C412.77 22.58 414.814 24.386 417.922 25.114C418.09 24.792 418.412 24.302 418.664 24.05C415.556 23.49 413.526 21.88 412.686 20.312ZM409.242 22.132V28.908H410.348V22.132H409.242ZM408.15 18.254C407.506 20.368 406.428 22.482 405.238 23.84C405.462 24.19 405.798 24.918 405.91 25.24C407.31 23.588 408.584 21.04 409.382 18.604L408.15 18.254ZM407.002 21.852V31.176H408.262V20.662L408.22 20.634L407.002 21.852ZM416.844 19.668V19.864C415.864 22.23 413.12 23.644 410.236 24.19C410.46 24.442 410.74 24.904 410.866 25.198C413.974 24.47 416.844 22.944 418.048 19.99L417.278 19.612L417.068 19.668H416.844ZM420.456 19.248C421.212 19.962 422.178 20.956 422.626 21.586L423.564 20.648C423.102 20.032 422.094 19.08 421.352 18.408L420.456 19.248ZM419.658 22.552V23.826H422.878V22.552H419.658ZM424.628 19.318V20.648H432.482V19.318H424.628ZM428.674 19.766V29.356C428.674 29.608 428.576 29.692 428.296 29.706C428.002 29.72 426.98 29.734 426 29.678C426.224 30.056 426.476 30.714 426.546 31.12C427.862 31.12 428.758 31.078 429.332 30.854C429.892 30.616 430.074 30.196 430.074 29.37V19.766H428.674ZM421.772 30.896C422.024 30.588 422.5 30.252 425.524 28.166C425.384 27.9 425.216 27.34 425.146 26.962L421.87 29.104L421.506 29.608L421.772 30.896ZM421.772 30.896C421.772 30.406 423.172 29.524 423.172 29.524V22.552H421.898V28.502C421.898 29.132 421.422 29.58 421.128 29.762C421.352 30.028 421.674 30.574 421.772 30.896ZM438.012 20.116V21.32H446.37V20.116H438.012ZM439.818 18.184V23.042H441.092V18.184H439.818ZM443.332 18.184V23.042H444.606V18.184H443.332ZM438.572 23.588V31.134H439.776V24.75H444.634V31.064H445.894V23.588H438.572ZM439.244 26.416V27.564H445.208V26.416H439.244ZM439.272 29.272V30.434H445.236V29.272H439.272ZM441.582 24.134V30.112H442.786V24.134H441.582ZM433.336 25.478L433.658 26.766C434.862 26.402 436.402 25.926 437.844 25.464L437.676 24.26C436.094 24.722 434.442 25.212 433.336 25.478ZM433.546 20.942V22.16H437.76V20.942H433.546ZM435.142 18.198V29.58C435.142 29.776 435.072 29.832 434.904 29.832C434.736 29.846 434.218 29.846 433.644 29.832C433.812 30.182 433.966 30.728 434.008 31.05C434.904 31.05 435.478 31.008 435.842 30.798C436.234 30.602 436.36 30.252 436.36 29.594V18.198H435.142ZM451.466 20.83V22.076H460.188V20.83H451.466ZM457.038 19.01C457.612 19.542 458.34 20.298 458.676 20.774L459.726 20.088C459.362 19.612 458.606 18.898 458.046 18.394L457.038 19.01ZM455.176 18.324V28.978H456.506V18.324H455.176ZM450.794 23.196H447.602V24.428H449.52V28.796H450.794V23.196ZM447.812 19.388C448.554 20.2 449.464 21.32 449.856 22.034L450.976 21.32C450.542 20.606 449.604 19.542 448.862 18.772L447.812 19.388ZM450.234 28.236C449.464 28.236 448.442 28.936 447.462 29.86L448.288 30.994C448.988 30.168 449.716 29.384 450.22 29.384C450.556 29.384 451.004 29.79 451.62 30.112C452.628 30.658 453.832 30.812 455.498 30.812C456.842 30.812 459.194 30.728 460.16 30.658C460.188 30.308 460.384 29.678 460.524 29.342C459.166 29.51 457.066 29.622 455.54 29.622C454.042 29.622 452.796 29.524 451.872 29.034C451.074 28.614 450.724 28.236 450.234 28.236ZM454.798 21.306C454.098 23.546 452.712 25.884 451.214 27.074C451.494 27.298 451.928 27.76 452.138 28.068C453.692 26.668 455.078 24.162 455.876 21.6L454.798 21.306ZM455.526 22.454C456.94 23.98 458.592 26.108 459.292 27.452L460.328 26.696C459.586 25.338 457.864 23.294 456.464 21.81L455.526 22.454Z" fill="#909399"/>
</g>
</g>
<g clip-path="url(#clip27_28292_92374)">
<rect width="115.5" height="48" transform="translate(395 48)" fill="#F4F4F5"/>
<rect x="395" y="95" width="115.5" height="1" fill="#E4E7ED"/>
<g clip-path="url(#clip28_28292_92374)">
<path d="M407.086 73.196C407.688 73.196 408.164 72.72 408.164 72.062C408.164 71.39 407.688 70.928 407.086 70.928C406.47 70.928 406.008 71.39 406.008 72.062C406.008 72.72 406.47 73.196 407.086 73.196ZM411.256 73.196C411.858 73.196 412.334 72.72 412.334 72.062C412.334 71.39 411.858 70.928 411.256 70.928C410.64 70.928 410.178 71.39 410.178 72.062C410.178 72.72 410.64 73.196 411.256 73.196ZM415.426 73.196C416.028 73.196 416.504 72.72 416.504 72.062C416.504 71.39 416.028 70.928 415.426 70.928C414.81 70.928 414.348 71.39 414.348 72.062C414.348 72.72 414.81 73.196 415.426 73.196ZM419.596 73.196C420.198 73.196 420.674 72.72 420.674 72.062C420.674 71.39 420.198 70.928 419.596 70.928C418.98 70.928 418.518 71.39 418.518 72.062C418.518 72.72 418.98 73.196 419.596 73.196ZM423.766 73.196C424.368 73.196 424.844 72.72 424.844 72.062C424.844 71.39 424.368 70.928 423.766 70.928C423.15 70.928 422.688 71.39 422.688 72.062C422.688 72.72 423.15 73.196 423.766 73.196ZM427.936 73.196C428.538 73.196 429.014 72.72 429.014 72.062C429.014 71.39 428.538 70.928 427.936 70.928C427.32 70.928 426.858 71.39 426.858 72.062C426.858 72.72 427.32 73.196 427.936 73.196Z" fill="#909399"/>
</g>
</g>
<g clip-path="url(#clip29_28292_92374)">
<rect width="115.5" height="48" transform="translate(395 96)" fill="white"/>
<rect x="395" y="143" width="115.5" height="1" fill="#E4E7ED"/>
<g clip-path="url(#clip30_28292_92374)">
<path d="M407.086 121.196C407.688 121.196 408.164 120.72 408.164 120.062C408.164 119.39 407.688 118.928 407.086 118.928C406.47 118.928 406.008 119.39 406.008 120.062C406.008 120.72 406.47 121.196 407.086 121.196ZM411.256 121.196C411.858 121.196 412.334 120.72 412.334 120.062C412.334 119.39 411.858 118.928 411.256 118.928C410.64 118.928 410.178 119.39 410.178 120.062C410.178 120.72 410.64 121.196 411.256 121.196ZM415.426 121.196C416.028 121.196 416.504 120.72 416.504 120.062C416.504 119.39 416.028 118.928 415.426 118.928C414.81 118.928 414.348 119.39 414.348 120.062C414.348 120.72 414.81 121.196 415.426 121.196ZM419.596 121.196C420.198 121.196 420.674 120.72 420.674 120.062C420.674 119.39 420.198 118.928 419.596 118.928C418.98 118.928 418.518 119.39 418.518 120.062C418.518 120.72 418.98 121.196 419.596 121.196ZM423.766 121.196C424.368 121.196 424.844 120.72 424.844 120.062C424.844 119.39 424.368 118.928 423.766 118.928C423.15 118.928 422.688 119.39 422.688 120.062C422.688 120.72 423.15 121.196 423.766 121.196ZM427.936 121.196C428.538 121.196 429.014 120.72 429.014 120.062C429.014 119.39 428.538 118.928 427.936 118.928C427.32 118.928 426.858 119.39 426.858 120.062C426.858 120.72 427.32 121.196 427.936 121.196Z" fill="#909399"/>
</g>
</g>
<rect width="115.5" height="48" transform="translate(395 144)" fill="white"/>
<g clip-path="url(#clip31_28292_92374)">
<path d="M407.086 169.196C407.688 169.196 408.164 168.72 408.164 168.062C408.164 167.39 407.688 166.928 407.086 166.928C406.47 166.928 406.008 167.39 406.008 168.062C406.008 168.72 406.47 169.196 407.086 169.196ZM411.256 169.196C411.858 169.196 412.334 168.72 412.334 168.062C412.334 167.39 411.858 166.928 411.256 166.928C410.64 166.928 410.178 167.39 410.178 168.062C410.178 168.72 410.64 169.196 411.256 169.196ZM415.426 169.196C416.028 169.196 416.504 168.72 416.504 168.062C416.504 167.39 416.028 166.928 415.426 166.928C414.81 166.928 414.348 167.39 414.348 168.062C414.348 168.72 414.81 169.196 415.426 169.196ZM419.596 169.196C420.198 169.196 420.674 168.72 420.674 168.062C420.674 167.39 420.198 166.928 419.596 166.928C418.98 166.928 418.518 167.39 418.518 168.062C418.518 168.72 418.98 169.196 419.596 169.196ZM423.766 169.196C424.368 169.196 424.844 168.72 424.844 168.062C424.844 167.39 424.368 166.928 423.766 166.928C423.15 166.928 422.688 167.39 422.688 168.062C422.688 168.72 423.15 169.196 423.766 169.196ZM427.936 169.196C428.538 169.196 429.014 168.72 429.014 168.062C429.014 167.39 428.538 166.928 427.936 166.928C427.32 166.928 426.858 167.39 426.858 168.062C426.858 168.72 427.32 169.196 427.936 169.196Z" fill="#909399"/>
</g>
</g>
<rect x="395.5" y="0.5" width="114.5" height="191" stroke="#E4E7ED"/>
<g clip-path="url(#clip32_28292_92374)">
<g clip-path="url(#clip33_28292_92374)">
<rect width="115.5" height="48" transform="translate(510.5)" fill="#F2F2F2"/>
<rect x="510.5" y="47" width="116" height="1" fill="#E4E7ED"/>
<g clip-path="url(#clip34_28292_92374)">
<path d="M521.578 19.612V22.048H522.908V20.886H532.022V22.048H533.394V19.612H521.578ZM526.408 18.436C526.66 18.926 526.94 19.598 527.08 20.018L528.508 19.584C528.368 19.178 528.032 18.534 527.78 18.058L526.408 18.436ZM522.432 22.58V29.398H523.706V23.728H531.224V29.328H532.554V22.58H522.432ZM523.244 25.044V26.164H531.882V25.044H523.244ZM523.244 27.508V28.67H531.952V27.508H523.244ZM526.786 21.292V31.162H528.172V21.292H526.786ZM544.146 28.376C545.14 29.174 546.442 30.322 547.058 31.05L548.066 30.182C547.422 29.468 546.092 28.362 545.098 27.606L544.146 28.376ZM545.448 22.23C544.482 24.12 542.382 26.01 539.974 27.06C540.212 27.312 540.562 27.774 540.716 28.068C543.278 26.878 545.448 24.862 546.708 22.65L545.448 22.23ZM546.4 24.806C545.21 27.116 542.55 29.09 539.274 30.084C539.512 30.364 539.89 30.882 540.044 31.19C543.488 30.056 546.218 27.942 547.758 25.296L546.4 24.806ZM540.072 19.99V21.208H547.94V19.99H540.072ZM540.548 24.988C540.548 24.638 542.088 24.19 542.088 24.19C542.718 23.322 543.768 21.586 544.342 20.634H542.942C542.564 21.278 541.528 22.972 541.206 23.322C540.968 23.588 540.52 23.686 540.212 23.756C540.324 24.036 540.506 24.666 540.548 24.988ZM540.548 24.988C540.884 24.848 541.416 24.764 544.888 24.54C544.944 24.274 545.112 23.77 545.266 23.448L541.206 23.658L540.534 24.036L540.548 24.988ZM542.97 18.478C543.292 19.094 543.586 19.92 543.684 20.452L545 20.004C544.902 19.486 544.538 18.688 544.202 18.1L542.97 18.478ZM535.214 20.858V22.076H539.792V20.858H535.214ZM537.02 18.184V31.176H538.28V18.184H537.02ZM537.048 21.712C536.67 23.602 535.802 25.94 534.878 27.158C535.102 27.494 535.41 28.096 535.536 28.474C536.516 27.032 537.398 24.274 537.804 21.992L537.048 21.712ZM538.21 22.51L537.608 22.986C537.972 23.616 538.826 25.254 539.134 26.01L539.918 25.1C539.666 24.666 538.532 22.902 538.21 22.51ZM554.674 18.226C554.618 20.48 554.786 27.088 549.004 30.084C549.424 30.378 549.858 30.798 550.096 31.148C556.004 27.844 556.102 20.886 556.172 18.226H554.674ZM556.032 19.934L554.758 20.074C554.954 21.376 555.486 28.418 561.114 31.078C561.31 30.7 561.688 30.252 562.08 29.944C556.662 27.522 556.144 20.998 556.032 19.934Z" fill="#909399"/>
</g>
</g>
<g clip-path="url(#clip35_28292_92374)">
<rect width="115.5" height="48" transform="translate(510.5 48)" fill="#F4F4F5"/>
<rect x="510.5" y="95" width="115.5" height="1" fill="#E4E7ED"/>
<g clip-path="url(#clip36_28292_92374)">
<path d="M521.886 62.094V63.396H533.1V62.094H521.886ZM522.516 66.952V68.254H532.596V66.952H522.516ZM521.186 72.258V73.56H533.828V72.258H521.186ZM526.786 62.43V73.098H528.172V62.43H526.786ZM540.268 65.048C540.058 67.288 539.638 70.298 539.274 72.104H540.562C540.856 70.354 541.262 67.358 541.514 65.048H540.268ZM542.34 66.546C542.886 66.994 543.516 67.624 543.796 68.058L544.538 67.54C544.23 67.12 543.586 66.504 543.054 66.084L542.34 66.546ZM541.976 69.486C542.55 69.962 543.25 70.662 543.572 71.124L544.342 70.578C544.006 70.13 543.292 69.458 542.718 69.01L541.976 69.486ZM540.436 62.696V63.9H547.674V62.696H540.436ZM540.814 65.048V66.196H546.246V65.048H540.814ZM538.504 67.89V69.094H548.038V67.89H538.504ZM539.946 70.97V72.104H547.66V70.97H539.946ZM540.604 61.17C540.114 62.78 539.26 64.404 538.294 65.44C538.616 65.608 539.176 65.958 539.442 66.168C540.38 65.034 541.304 63.256 541.892 61.506L540.604 61.17ZM545.868 65.048V65.314C545.686 70.452 545.448 72.356 545.07 72.79C544.93 72.958 544.79 73 544.552 73C544.272 73 543.67 72.986 542.984 72.93C543.18 73.238 543.306 73.714 543.334 74.036C544.006 74.078 544.692 74.092 545.098 74.036C545.546 73.98 545.868 73.868 546.162 73.476C546.638 72.874 546.862 71.012 547.072 65.65C547.086 65.468 547.1 65.048 547.1 65.048H545.868ZM535.802 62.29C536.642 62.71 537.706 63.368 538.238 63.83L539.008 62.822C538.462 62.374 537.37 61.758 536.544 61.394L535.802 62.29ZM535.032 66.322C535.83 66.728 536.852 67.372 537.328 67.834L538.084 66.826C537.58 66.378 536.558 65.79 535.76 65.426L535.032 66.322ZM535.438 73.224L536.6 73.952C537.202 72.608 537.874 70.9 538.392 69.416L537.384 68.688C536.796 70.312 536.012 72.132 535.438 73.224ZM549.424 70.522C549.424 70.256 550.306 69.85 550.306 69.85V69.822C551.762 68.492 553.26 66.658 554.422 64.796L553.26 64.054C552.224 65.93 550.656 67.848 550.152 68.338C549.662 68.842 549.34 69.164 548.976 69.234C549.144 69.598 549.354 70.242 549.424 70.522ZM549.424 70.522C549.774 70.326 550.334 70.2 554.142 69.598C554.1 69.318 554.072 68.786 554.086 68.436L549.998 69.01L549.368 69.444L549.424 70.522ZM549.312 67.134C549.312 66.868 550.166 66.434 550.166 66.434V66.406C551.188 65.16 552.266 63.396 553.05 61.702L551.72 61.156C551.118 62.808 550.068 64.558 549.732 65.006C549.396 65.468 549.158 65.776 548.878 65.846C549.018 66.196 549.242 66.854 549.312 67.134ZM549.312 67.134C549.606 66.994 550.082 66.896 552.77 66.616C552.784 66.336 552.826 65.846 552.91 65.482L549.914 65.734L549.284 66.126L549.312 67.134ZM548.962 72.146L549.2 73.504C550.558 73.196 552.364 72.79 554.072 72.398L553.932 71.152C552.112 71.53 550.222 71.936 548.962 72.146ZM554.408 62.444V63.76H561.632V62.444H554.408ZM554.198 71.978V73.308H561.926V71.978H554.198ZM557.32 62.878V72.734H558.762V62.878H557.32Z" fill="#909399"/>
</g>
</g>
<g clip-path="url(#clip37_28292_92374)">
<rect width="115.5" height="48" transform="translate(510.5 96)" fill="white"/>
<rect x="510.5" y="143" width="115.5" height="1" fill="#E4E7ED"/>
<g clip-path="url(#clip38_28292_92374)">
<path d="M521.886 110.094V111.396H533.1V110.094H521.886ZM522.516 114.952V116.254H532.596V114.952H522.516ZM521.186 120.258V121.56H533.828V120.258H521.186ZM526.786 110.43V121.098H528.172V110.43H526.786ZM540.268 113.048C540.058 115.288 539.638 118.298 539.274 120.104H540.562C540.856 118.354 541.262 115.358 541.514 113.048H540.268ZM542.34 114.546C542.886 114.994 543.516 115.624 543.796 116.058L544.538 115.54C544.23 115.12 543.586 114.504 543.054 114.084L542.34 114.546ZM541.976 117.486C542.55 117.962 543.25 118.662 543.572 119.124L544.342 118.578C544.006 118.13 543.292 117.458 542.718 117.01L541.976 117.486ZM540.436 110.696V111.9H547.674V110.696H540.436ZM540.814 113.048V114.196H546.246V113.048H540.814ZM538.504 115.89V117.094H548.038V115.89H538.504ZM539.946 118.97V120.104H547.66V118.97H539.946ZM540.604 109.17C540.114 110.78 539.26 112.404 538.294 113.44C538.616 113.608 539.176 113.958 539.442 114.168C540.38 113.034 541.304 111.256 541.892 109.506L540.604 109.17ZM545.868 113.048V113.314C545.686 118.452 545.448 120.356 545.07 120.79C544.93 120.958 544.79 121 544.552 121C544.272 121 543.67 120.986 542.984 120.93C543.18 121.238 543.306 121.714 543.334 122.036C544.006 122.078 544.692 122.092 545.098 122.036C545.546 121.98 545.868 121.868 546.162 121.476C546.638 120.874 546.862 119.012 547.072 113.65C547.086 113.468 547.1 113.048 547.1 113.048H545.868ZM535.802 110.29C536.642 110.71 537.706 111.368 538.238 111.83L539.008 110.822C538.462 110.374 537.37 109.758 536.544 109.394L535.802 110.29ZM535.032 114.322C535.83 114.728 536.852 115.372 537.328 115.834L538.084 114.826C537.58 114.378 536.558 113.79 535.76 113.426L535.032 114.322ZM535.438 121.224L536.6 121.952C537.202 120.608 537.874 118.9 538.392 117.416L537.384 116.688C536.796 118.312 536.012 120.132 535.438 121.224ZM549.424 118.522C549.424 118.256 550.306 117.85 550.306 117.85V117.822C551.762 116.492 553.26 114.658 554.422 112.796L553.26 112.054C552.224 113.93 550.656 115.848 550.152 116.338C549.662 116.842 549.34 117.164 548.976 117.234C549.144 117.598 549.354 118.242 549.424 118.522ZM549.424 118.522C549.774 118.326 550.334 118.2 554.142 117.598C554.1 117.318 554.072 116.786 554.086 116.436L549.998 117.01L549.368 117.444L549.424 118.522ZM549.312 115.134C549.312 114.868 550.166 114.434 550.166 114.434V114.406C551.188 113.16 552.266 111.396 553.05 109.702L551.72 109.156C551.118 110.808 550.068 112.558 549.732 113.006C549.396 113.468 549.158 113.776 548.878 113.846C549.018 114.196 549.242 114.854 549.312 115.134ZM549.312 115.134C549.606 114.994 550.082 114.896 552.77 114.616C552.784 114.336 552.826 113.846 552.91 113.482L549.914 113.734L549.284 114.126L549.312 115.134ZM548.962 120.146L549.2 121.504C550.558 121.196 552.364 120.79 554.072 120.398L553.932 119.152C552.112 119.53 550.222 119.936 548.962 120.146ZM554.408 110.444V111.76H561.632V110.444H554.408ZM554.198 119.978V121.308H561.926V119.978H554.198ZM557.32 110.878V120.734H558.762V110.878H557.32Z" fill="#909399"/>
</g>
</g>
<rect width="115.5" height="48" transform="translate(510.5 144)" fill="white"/>
<g clip-path="url(#clip39_28292_92374)">
<path d="M521.886 158.094V159.396H533.1V158.094H521.886ZM522.516 162.952V164.254H532.596V162.952H522.516ZM521.186 168.258V169.56H533.828V168.258H521.186ZM526.786 158.43V169.098H528.172V158.43H526.786ZM540.268 161.048C540.058 163.288 539.638 166.298 539.274 168.104H540.562C540.856 166.354 541.262 163.358 541.514 161.048H540.268ZM542.34 162.546C542.886 162.994 543.516 163.624 543.796 164.058L544.538 163.54C544.23 163.12 543.586 162.504 543.054 162.084L542.34 162.546ZM541.976 165.486C542.55 165.962 543.25 166.662 543.572 167.124L544.342 166.578C544.006 166.13 543.292 165.458 542.718 165.01L541.976 165.486ZM540.436 158.696V159.9H547.674V158.696H540.436ZM540.814 161.048V162.196H546.246V161.048H540.814ZM538.504 163.89V165.094H548.038V163.89H538.504ZM539.946 166.97V168.104H547.66V166.97H539.946ZM540.604 157.17C540.114 158.78 539.26 160.404 538.294 161.44C538.616 161.608 539.176 161.958 539.442 162.168C540.38 161.034 541.304 159.256 541.892 157.506L540.604 157.17ZM545.868 161.048V161.314C545.686 166.452 545.448 168.356 545.07 168.79C544.93 168.958 544.79 169 544.552 169C544.272 169 543.67 168.986 542.984 168.93C543.18 169.238 543.306 169.714 543.334 170.036C544.006 170.078 544.692 170.092 545.098 170.036C545.546 169.98 545.868 169.868 546.162 169.476C546.638 168.874 546.862 167.012 547.072 161.65C547.086 161.468 547.1 161.048 547.1 161.048H545.868ZM535.802 158.29C536.642 158.71 537.706 159.368 538.238 159.83L539.008 158.822C538.462 158.374 537.37 157.758 536.544 157.394L535.802 158.29ZM535.032 162.322C535.83 162.728 536.852 163.372 537.328 163.834L538.084 162.826C537.58 162.378 536.558 161.79 535.76 161.426L535.032 162.322ZM535.438 169.224L536.6 169.952C537.202 168.608 537.874 166.9 538.392 165.416L537.384 164.688C536.796 166.312 536.012 168.132 535.438 169.224ZM549.424 166.522C549.424 166.256 550.306 165.85 550.306 165.85V165.822C551.762 164.492 553.26 162.658 554.422 160.796L553.26 160.054C552.224 161.93 550.656 163.848 550.152 164.338C549.662 164.842 549.34 165.164 548.976 165.234C549.144 165.598 549.354 166.242 549.424 166.522ZM549.424 166.522C549.774 166.326 550.334 166.2 554.142 165.598C554.1 165.318 554.072 164.786 554.086 164.436L549.998 165.01L549.368 165.444L549.424 166.522ZM549.312 163.134C549.312 162.868 550.166 162.434 550.166 162.434V162.406C551.188 161.16 552.266 159.396 553.05 157.702L551.72 157.156C551.118 158.808 550.068 160.558 549.732 161.006C549.396 161.468 549.158 161.776 548.878 161.846C549.018 162.196 549.242 162.854 549.312 163.134ZM549.312 163.134C549.606 162.994 550.082 162.896 552.77 162.616C552.784 162.336 552.826 161.846 552.91 161.482L549.914 161.734L549.284 162.126L549.312 163.134ZM548.962 168.146L549.2 169.504C550.558 169.196 552.364 168.79 554.072 168.398L553.932 167.152C552.112 167.53 550.222 167.936 548.962 168.146ZM554.408 158.444V159.76H561.632V158.444H554.408ZM554.198 167.978V169.308H561.926V167.978H554.198ZM557.32 158.878V168.734H558.762V158.878H557.32Z" fill="#909399"/>
</g>
</g>
<rect x="511" y="0.5" width="114.5" height="191" stroke="#E4E7ED"/>
<g clip-path="url(#clip40_28292_92374)">
<g clip-path="url(#clip41_28292_92374)">
<rect width="115.5" height="48" transform="translate(626)" fill="#F2F2F2"/>
<rect x="626" y="47" width="116" height="1" fill="#E4E7ED"/>
<g clip-path="url(#clip42_28292_92374)">
<path d="M637.078 19.612V22.048H638.408V20.886H647.522V22.048H648.894V19.612H637.078ZM641.908 18.436C642.16 18.926 642.44 19.598 642.58 20.018L644.008 19.584C643.868 19.178 643.532 18.534 643.28 18.058L641.908 18.436ZM637.932 22.58V29.398H639.206V23.728H646.724V29.328H648.054V22.58H637.932ZM638.744 25.044V26.164H647.382V25.044H638.744ZM638.744 27.508V28.67H647.452V27.508H638.744ZM642.286 21.292V31.162H643.672V21.292H642.286ZM659.646 28.376C660.64 29.174 661.942 30.322 662.558 31.05L663.566 30.182C662.922 29.468 661.592 28.362 660.598 27.606L659.646 28.376ZM660.948 22.23C659.982 24.12 657.882 26.01 655.474 27.06C655.712 27.312 656.062 27.774 656.216 28.068C658.778 26.878 660.948 24.862 662.208 22.65L660.948 22.23ZM661.9 24.806C660.71 27.116 658.05 29.09 654.774 30.084C655.012 30.364 655.39 30.882 655.544 31.19C658.988 30.056 661.718 27.942 663.258 25.296L661.9 24.806ZM655.572 19.99V21.208H663.44V19.99H655.572ZM656.048 24.988C656.048 24.638 657.588 24.19 657.588 24.19C658.218 23.322 659.268 21.586 659.842 20.634H658.442C658.064 21.278 657.028 22.972 656.706 23.322C656.468 23.588 656.02 23.686 655.712 23.756C655.824 24.036 656.006 24.666 656.048 24.988ZM656.048 24.988C656.384 24.848 656.916 24.764 660.388 24.54C660.444 24.274 660.612 23.77 660.766 23.448L656.706 23.658L656.034 24.036L656.048 24.988ZM658.47 18.478C658.792 19.094 659.086 19.92 659.184 20.452L660.5 20.004C660.402 19.486 660.038 18.688 659.702 18.1L658.47 18.478ZM650.714 20.858V22.076H655.292V20.858H650.714ZM652.52 18.184V31.176H653.78V18.184H652.52ZM652.548 21.712C652.17 23.602 651.302 25.94 650.378 27.158C650.602 27.494 650.91 28.096 651.036 28.474C652.016 27.032 652.898 24.274 653.304 21.992L652.548 21.712ZM653.71 22.51L653.108 22.986C653.472 23.616 654.326 25.254 654.634 26.01L655.418 25.1C655.166 24.666 654.032 22.902 653.71 22.51ZM669.012 20.116V21.32H677.37V20.116H669.012ZM670.818 18.184V23.042H672.092V18.184H670.818ZM674.332 18.184V23.042H675.606V18.184H674.332ZM669.572 23.588V31.134H670.776V24.75H675.634V31.064H676.894V23.588H669.572ZM670.244 26.416V27.564H676.208V26.416H670.244ZM670.272 29.272V30.434H676.236V29.272H670.272ZM672.582 24.134V30.112H673.786V24.134H672.582ZM664.336 25.478L664.658 26.766C665.862 26.402 667.402 25.926 668.844 25.464L668.676 24.26C667.094 24.722 665.442 25.212 664.336 25.478ZM664.546 20.942V22.16H668.76V20.942H664.546ZM666.142 18.198V29.58C666.142 29.776 666.072 29.832 665.904 29.832C665.736 29.846 665.218 29.846 664.644 29.832C664.812 30.182 664.966 30.728 665.008 31.05C665.904 31.05 666.478 31.008 666.842 30.798C667.234 30.602 667.36 30.252 667.36 29.594V18.198H666.142ZM682.466 20.83V22.076H691.188V20.83H682.466ZM688.038 19.01C688.612 19.542 689.34 20.298 689.676 20.774L690.726 20.088C690.362 19.612 689.606 18.898 689.046 18.394L688.038 19.01ZM686.176 18.324V28.978H687.506V18.324H686.176ZM681.794 23.196H678.602V24.428H680.52V28.796H681.794V23.196ZM678.812 19.388C679.554 20.2 680.464 21.32 680.856 22.034L681.976 21.32C681.542 20.606 680.604 19.542 679.862 18.772L678.812 19.388ZM681.234 28.236C680.464 28.236 679.442 28.936 678.462 29.86L679.288 30.994C679.988 30.168 680.716 29.384 681.22 29.384C681.556 29.384 682.004 29.79 682.62 30.112C683.628 30.658 684.832 30.812 686.498 30.812C687.842 30.812 690.194 30.728 691.16 30.658C691.188 30.308 691.384 29.678 691.524 29.342C690.166 29.51 688.066 29.622 686.54 29.622C685.042 29.622 683.796 29.524 682.872 29.034C682.074 28.614 681.724 28.236 681.234 28.236ZM685.798 21.306C685.098 23.546 683.712 25.884 682.214 27.074C682.494 27.298 682.928 27.76 683.138 28.068C684.692 26.668 686.078 24.162 686.876 21.6L685.798 21.306ZM686.526 22.454C687.94 23.98 689.592 26.108 690.292 27.452L691.328 26.696C690.586 25.338 688.864 23.294 687.464 21.81L686.526 22.454Z" fill="#909399"/>
</g>
</g>
<g clip-path="url(#clip43_28292_92374)">
<rect width="115.5" height="48" transform="translate(626 48)" fill="#F4F4F5"/>
<rect x="626" y="95" width="115.5" height="1" fill="#E4E7ED"/>
<g clip-path="url(#clip44_28292_92374)">
<path d="M638.086 73.196C638.688 73.196 639.164 72.72 639.164 72.062C639.164 71.39 638.688 70.928 638.086 70.928C637.47 70.928 637.008 71.39 637.008 72.062C637.008 72.72 637.47 73.196 638.086 73.196ZM642.256 73.196C642.858 73.196 643.334 72.72 643.334 72.062C643.334 71.39 642.858 70.928 642.256 70.928C641.64 70.928 641.178 71.39 641.178 72.062C641.178 72.72 641.64 73.196 642.256 73.196ZM646.426 73.196C647.028 73.196 647.504 72.72 647.504 72.062C647.504 71.39 647.028 70.928 646.426 70.928C645.81 70.928 645.348 71.39 645.348 72.062C645.348 72.72 645.81 73.196 646.426 73.196ZM650.596 73.196C651.198 73.196 651.674 72.72 651.674 72.062C651.674 71.39 651.198 70.928 650.596 70.928C649.98 70.928 649.518 71.39 649.518 72.062C649.518 72.72 649.98 73.196 650.596 73.196ZM654.766 73.196C655.368 73.196 655.844 72.72 655.844 72.062C655.844 71.39 655.368 70.928 654.766 70.928C654.15 70.928 653.688 71.39 653.688 72.062C653.688 72.72 654.15 73.196 654.766 73.196ZM658.936 73.196C659.538 73.196 660.014 72.72 660.014 72.062C660.014 71.39 659.538 70.928 658.936 70.928C658.32 70.928 657.858 71.39 657.858 72.062C657.858 72.72 658.32 73.196 658.936 73.196Z" fill="#909399"/>
</g>
</g>
<g clip-path="url(#clip45_28292_92374)">
<rect width="115.5" height="48" transform="translate(626 96)" fill="white"/>
<rect x="626" y="143" width="115.5" height="1" fill="#E4E7ED"/>
<g clip-path="url(#clip46_28292_92374)">
<path d="M638.086 121.196C638.688 121.196 639.164 120.72 639.164 120.062C639.164 119.39 638.688 118.928 638.086 118.928C637.47 118.928 637.008 119.39 637.008 120.062C637.008 120.72 637.47 121.196 638.086 121.196ZM642.256 121.196C642.858 121.196 643.334 120.72 643.334 120.062C643.334 119.39 642.858 118.928 642.256 118.928C641.64 118.928 641.178 119.39 641.178 120.062C641.178 120.72 641.64 121.196 642.256 121.196ZM646.426 121.196C647.028 121.196 647.504 120.72 647.504 120.062C647.504 119.39 647.028 118.928 646.426 118.928C645.81 118.928 645.348 119.39 645.348 120.062C645.348 120.72 645.81 121.196 646.426 121.196ZM650.596 121.196C651.198 121.196 651.674 120.72 651.674 120.062C651.674 119.39 651.198 118.928 650.596 118.928C649.98 118.928 649.518 119.39 649.518 120.062C649.518 120.72 649.98 121.196 650.596 121.196ZM654.766 121.196C655.368 121.196 655.844 120.72 655.844 120.062C655.844 119.39 655.368 118.928 654.766 118.928C654.15 118.928 653.688 119.39 653.688 120.062C653.688 120.72 654.15 121.196 654.766 121.196ZM658.936 121.196C659.538 121.196 660.014 120.72 660.014 120.062C660.014 119.39 659.538 118.928 658.936 118.928C658.32 118.928 657.858 119.39 657.858 120.062C657.858 120.72 658.32 121.196 658.936 121.196Z" fill="#909399"/>
</g>
</g>
<rect width="115.5" height="48" transform="translate(626 144)" fill="white"/>
<g clip-path="url(#clip47_28292_92374)">
<path d="M638.086 169.196C638.688 169.196 639.164 168.72 639.164 168.062C639.164 167.39 638.688 166.928 638.086 166.928C637.47 166.928 637.008 167.39 637.008 168.062C637.008 168.72 637.47 169.196 638.086 169.196ZM642.256 169.196C642.858 169.196 643.334 168.72 643.334 168.062C643.334 167.39 642.858 166.928 642.256 166.928C641.64 166.928 641.178 167.39 641.178 168.062C641.178 168.72 641.64 169.196 642.256 169.196ZM646.426 169.196C647.028 169.196 647.504 168.72 647.504 168.062C647.504 167.39 647.028 166.928 646.426 166.928C645.81 166.928 645.348 167.39 645.348 168.062C645.348 168.72 645.81 169.196 646.426 169.196ZM650.596 169.196C651.198 169.196 651.674 168.72 651.674 168.062C651.674 167.39 651.198 166.928 650.596 166.928C649.98 166.928 649.518 167.39 649.518 168.062C649.518 168.72 649.98 169.196 650.596 169.196ZM654.766 169.196C655.368 169.196 655.844 168.72 655.844 168.062C655.844 167.39 655.368 166.928 654.766 166.928C654.15 166.928 653.688 167.39 653.688 168.062C653.688 168.72 654.15 169.196 654.766 169.196ZM658.936 169.196C659.538 169.196 660.014 168.72 660.014 168.062C660.014 167.39 659.538 166.928 658.936 166.928C658.32 166.928 657.858 167.39 657.858 168.062C657.858 168.72 658.32 169.196 658.936 169.196Z" fill="#909399"/>
</g>
</g>
<rect x="626.5" y="0.5" width="114.5" height="191" stroke="#E4E7ED"/>
<g clip-path="url(#clip48_28292_92374)">
<g clip-path="url(#clip49_28292_92374)">
<rect width="115.5" height="48" transform="translate(741.5)" fill="#F2F2F2"/>
<rect x="741.5" y="47" width="116" height="1" fill="#E4E7ED"/>
<g clip-path="url(#clip50_28292_92374)">
<path d="M756.54 22.216V23.532H764.842V22.216H756.54ZM760.964 22.818L759.858 23.056C760.572 26.654 761.874 29.594 764.212 31.148C764.422 30.798 764.87 30.294 765.178 30.042C762.924 28.754 761.594 25.996 760.964 22.818ZM761.832 19.15C762.434 19.92 763.12 20.984 763.428 21.642L764.506 20.984C764.17 20.34 763.442 19.332 762.84 18.59L761.832 19.15ZM759.634 18.212V21.614C759.634 24.218 759.284 27.648 756.078 30.322C756.428 30.546 756.89 30.896 757.142 31.162C760.488 28.362 760.95 24.638 760.95 21.614V18.212H759.634ZM754.804 18.17V31.148H756.12V18.17H754.804ZM752.088 20.606C752.704 21.446 753.446 22.566 753.74 23.28L754.846 22.58C754.524 21.88 753.754 20.788 753.11 19.99L752.088 20.606ZM751.92 27.116L752.634 28.25C753.544 27.466 754.622 26.458 755.588 25.52L755.056 24.456C753.922 25.478 752.704 26.514 751.92 27.116ZM766.228 20.088V21.306H778.814V20.088H766.228ZM771.87 18.1C771.576 21.124 771.072 23.91 766.074 25.17C766.354 25.45 766.676 25.968 766.816 26.29C772.122 24.82 772.892 21.642 773.242 18.1H771.87ZM773.466 20.172L772.248 20.452C773.256 23.392 775.076 25.324 778.142 26.164C778.324 25.8 778.716 25.24 779.024 24.96C776.14 24.302 774.306 22.608 773.466 20.172ZM770.792 24.386C771.604 24.848 772.612 25.576 773.074 26.08L774.278 25.324C773.746 24.806 772.738 24.12 771.926 23.686L770.792 24.386ZM769.224 26.612V29.202C769.224 30.518 769.686 30.882 771.45 30.882C771.828 30.882 774.096 30.882 774.488 30.882C775.93 30.882 776.336 30.42 776.504 28.544C776.14 28.46 775.58 28.264 775.3 28.054C775.216 29.482 775.104 29.692 774.39 29.692C773.858 29.692 771.954 29.692 771.562 29.692C770.694 29.692 770.54 29.622 770.54 29.202V26.612H769.224ZM771.198 26.346C771.968 27.088 772.892 28.11 773.298 28.782L774.39 28.082C773.942 27.424 772.99 26.43 772.22 25.744L771.198 26.346ZM775.93 26.752C776.616 27.956 777.316 29.58 777.554 30.574L778.814 30.126C778.548 29.118 777.806 27.55 777.106 26.388L775.93 26.752ZM767.502 26.57C767.25 27.732 766.774 29.132 766.158 30.056L767.348 30.658C767.95 29.678 768.398 28.152 768.692 26.962L767.502 26.57Z" fill="#909399"/>
</g>
</g>
<g clip-path="url(#clip51_28292_92374)">
<rect width="115.5" height="48" transform="translate(741.5 48)" fill="#F4F4F5"/>
<rect x="741.5" y="95" width="115.5" height="1" fill="#E4E7ED"/>
<g clip-path="url(#clip52_28292_92374)">
<path d="M752.578 62.612V65.048H753.908V63.886H763.022V65.048H764.394V62.612H752.578ZM757.408 61.436C757.66 61.926 757.94 62.598 758.08 63.018L759.508 62.584C759.368 62.178 759.032 61.534 758.78 61.058L757.408 61.436ZM753.432 65.58V72.398H754.706V66.728H762.224V72.328H763.554V65.58H753.432ZM754.244 68.044V69.164H762.882V68.044H754.244ZM754.244 70.508V71.67H762.952V70.508H754.244ZM757.786 64.292V74.162H759.172V64.292H757.786ZM775.146 71.376C776.14 72.174 777.442 73.322 778.058 74.05L779.066 73.182C778.422 72.468 777.092 71.362 776.098 70.606L775.146 71.376ZM776.448 65.23C775.482 67.12 773.382 69.01 770.974 70.06C771.212 70.312 771.562 70.774 771.716 71.068C774.278 69.878 776.448 67.862 777.708 65.65L776.448 65.23ZM777.4 67.806C776.21 70.116 773.55 72.09 770.274 73.084C770.512 73.364 770.89 73.882 771.044 74.19C774.488 73.056 777.218 70.942 778.758 68.296L777.4 67.806ZM771.072 62.99V64.208H778.94V62.99H771.072ZM771.548 67.988C771.548 67.638 773.088 67.19 773.088 67.19C773.718 66.322 774.768 64.586 775.342 63.634H773.942C773.564 64.278 772.528 65.972 772.206 66.322C771.968 66.588 771.52 66.686 771.212 66.756C771.324 67.036 771.506 67.666 771.548 67.988ZM771.548 67.988C771.884 67.848 772.416 67.764 775.888 67.54C775.944 67.274 776.112 66.77 776.266 66.448L772.206 66.658L771.534 67.036L771.548 67.988ZM773.97 61.478C774.292 62.094 774.586 62.92 774.684 63.452L776 63.004C775.902 62.486 775.538 61.688 775.202 61.1L773.97 61.478ZM766.214 63.858V65.076H770.792V63.858H766.214ZM768.02 61.184V74.176H769.28V61.184H768.02ZM768.048 64.712C767.67 66.602 766.802 68.94 765.878 70.158C766.102 70.494 766.41 71.096 766.536 71.474C767.516 70.032 768.398 67.274 768.804 64.992L768.048 64.712ZM769.21 65.51L768.608 65.986C768.972 66.616 769.826 68.254 770.134 69.01L770.918 68.1C770.666 67.666 769.532 65.902 769.21 65.51ZM782.734 65.286V66.504H790.196V65.286H782.734ZM780.256 67.876V69.122H792.73V67.876H780.256ZM783.924 68.73C783.784 71.292 783.406 72.482 780.046 73.084C780.298 73.35 780.648 73.868 780.746 74.19C784.512 73.42 785.114 71.81 785.268 68.73H783.924ZM787.466 68.604V72.272C787.466 73.574 787.816 73.98 789.258 73.98C789.552 73.98 790.938 73.98 791.246 73.98C792.45 73.98 792.8 73.462 792.954 71.488C792.59 71.39 792.03 71.18 791.75 70.97C791.694 72.524 791.61 72.762 791.12 72.762C790.798 72.762 789.678 72.762 789.426 72.762C788.88 72.762 788.796 72.692 788.796 72.272V68.604H787.466ZM780.564 62.724V66H781.894V63.998H791.008V66H792.38V62.724H780.564ZM785.282 61.436C785.632 62.08 785.996 62.948 786.136 63.48L787.564 63.046C787.396 62.5 787.004 61.66 786.626 61.044L785.282 61.436ZM796.342 63.088V64.264H800.108V63.088H796.342ZM800.724 61.282V66.056C800.724 67.414 801.116 67.806 802.642 67.806C802.95 67.806 804.602 67.806 804.938 67.806C806.212 67.806 806.576 67.288 806.73 65.426C806.366 65.342 805.834 65.132 805.54 64.922C805.47 66.378 805.372 66.63 804.826 66.63C804.462 66.63 803.09 66.63 802.796 66.63C802.18 66.63 802.068 66.546 802.068 66.056V61.282H800.724ZM805.414 62.15C804.42 62.738 802.782 63.41 801.326 63.872C801.466 64.138 801.662 64.586 801.732 64.866C803.272 64.432 805.036 63.83 806.352 63.2L805.414 62.15ZM799.786 67.918V74.162H801.116V67.918H799.786ZM794.172 69.626V70.83H806.842V69.626H794.172ZM795.32 68.226C795.67 68.016 796.258 67.89 800.262 67.05C800.234 66.77 800.206 66.238 800.234 65.874L795.866 66.714L795.236 67.148L795.32 68.226ZM795.32 68.226C795.32 67.736 796.734 66.868 796.734 66.868V61.324H795.376V65.916C795.376 66.546 794.97 66.924 794.69 67.106C794.914 67.358 795.222 67.904 795.32 68.226Z" fill="#909399"/>
</g>
</g>
<g clip-path="url(#clip53_28292_92374)">
<rect width="115.5" height="48" transform="translate(741.5 96)" fill="white"/>
<rect x="741.5" y="143" width="115.5" height="1" fill="#E4E7ED"/>
<g clip-path="url(#clip54_28292_92374)">
<path d="M752.578 110.612V113.048H753.908V111.886H763.022V113.048H764.394V110.612H752.578ZM757.408 109.436C757.66 109.926 757.94 110.598 758.08 111.018L759.508 110.584C759.368 110.178 759.032 109.534 758.78 109.058L757.408 109.436ZM753.432 113.58V120.398H754.706V114.728H762.224V120.328H763.554V113.58H753.432ZM754.244 116.044V117.164H762.882V116.044H754.244ZM754.244 118.508V119.67H762.952V118.508H754.244ZM757.786 112.292V122.162H759.172V112.292H757.786ZM775.146 119.376C776.14 120.174 777.442 121.322 778.058 122.05L779.066 121.182C778.422 120.468 777.092 119.362 776.098 118.606L775.146 119.376ZM776.448 113.23C775.482 115.12 773.382 117.01 770.974 118.06C771.212 118.312 771.562 118.774 771.716 119.068C774.278 117.878 776.448 115.862 777.708 113.65L776.448 113.23ZM777.4 115.806C776.21 118.116 773.55 120.09 770.274 121.084C770.512 121.364 770.89 121.882 771.044 122.19C774.488 121.056 777.218 118.942 778.758 116.296L777.4 115.806ZM771.072 110.99V112.208H778.94V110.99H771.072ZM771.548 115.988C771.548 115.638 773.088 115.19 773.088 115.19C773.718 114.322 774.768 112.586 775.342 111.634H773.942C773.564 112.278 772.528 113.972 772.206 114.322C771.968 114.588 771.52 114.686 771.212 114.756C771.324 115.036 771.506 115.666 771.548 115.988ZM771.548 115.988C771.884 115.848 772.416 115.764 775.888 115.54C775.944 115.274 776.112 114.77 776.266 114.448L772.206 114.658L771.534 115.036L771.548 115.988ZM773.97 109.478C774.292 110.094 774.586 110.92 774.684 111.452L776 111.004C775.902 110.486 775.538 109.688 775.202 109.1L773.97 109.478ZM766.214 111.858V113.076H770.792V111.858H766.214ZM768.02 109.184V122.176H769.28V109.184H768.02ZM768.048 112.712C767.67 114.602 766.802 116.94 765.878 118.158C766.102 118.494 766.41 119.096 766.536 119.474C767.516 118.032 768.398 115.274 768.804 112.992L768.048 112.712ZM769.21 113.51L768.608 113.986C768.972 114.616 769.826 116.254 770.134 117.01L770.918 116.1C770.666 115.666 769.532 113.902 769.21 113.51ZM782.734 113.286V114.504H790.196V113.286H782.734ZM780.256 115.876V117.122H792.73V115.876H780.256ZM783.924 116.73C783.784 119.292 783.406 120.482 780.046 121.084C780.298 121.35 780.648 121.868 780.746 122.19C784.512 121.42 785.114 119.81 785.268 116.73H783.924ZM787.466 116.604V120.272C787.466 121.574 787.816 121.98 789.258 121.98C789.552 121.98 790.938 121.98 791.246 121.98C792.45 121.98 792.8 121.462 792.954 119.488C792.59 119.39 792.03 119.18 791.75 118.97C791.694 120.524 791.61 120.762 791.12 120.762C790.798 120.762 789.678 120.762 789.426 120.762C788.88 120.762 788.796 120.692 788.796 120.272V116.604H787.466ZM780.564 110.724V114H781.894V111.998H791.008V114H792.38V110.724H780.564ZM785.282 109.436C785.632 110.08 785.996 110.948 786.136 111.48L787.564 111.046C787.396 110.5 787.004 109.66 786.626 109.044L785.282 109.436ZM796.342 111.088V112.264H800.108V111.088H796.342ZM800.724 109.282V114.056C800.724 115.414 801.116 115.806 802.642 115.806C802.95 115.806 804.602 115.806 804.938 115.806C806.212 115.806 806.576 115.288 806.73 113.426C806.366 113.342 805.834 113.132 805.54 112.922C805.47 114.378 805.372 114.63 804.826 114.63C804.462 114.63 803.09 114.63 802.796 114.63C802.18 114.63 802.068 114.546 802.068 114.056V109.282H800.724ZM805.414 110.15C804.42 110.738 802.782 111.41 801.326 111.872C801.466 112.138 801.662 112.586 801.732 112.866C803.272 112.432 805.036 111.83 806.352 111.2L805.414 110.15ZM799.786 115.918V122.162H801.116V115.918H799.786ZM794.172 117.626V118.83H806.842V117.626H794.172ZM795.32 116.226C795.67 116.016 796.258 115.89 800.262 115.05C800.234 114.77 800.206 114.238 800.234 113.874L795.866 114.714L795.236 115.148L795.32 116.226ZM795.32 116.226C795.32 115.736 796.734 114.868 796.734 114.868V109.324H795.376V113.916C795.376 114.546 794.97 114.924 794.69 115.106C794.914 115.358 795.222 115.904 795.32 116.226Z" fill="#909399"/>
</g>
</g>
<rect width="115.5" height="48" transform="translate(741.5 144)" fill="white"/>
<g clip-path="url(#clip55_28292_92374)">
<path d="M752.578 158.612V161.048H753.908V159.886H763.022V161.048H764.394V158.612H752.578ZM757.408 157.436C757.66 157.926 757.94 158.598 758.08 159.018L759.508 158.584C759.368 158.178 759.032 157.534 758.78 157.058L757.408 157.436ZM753.432 161.58V168.398H754.706V162.728H762.224V168.328H763.554V161.58H753.432ZM754.244 164.044V165.164H762.882V164.044H754.244ZM754.244 166.508V167.67H762.952V166.508H754.244ZM757.786 160.292V170.162H759.172V160.292H757.786ZM775.146 167.376C776.14 168.174 777.442 169.322 778.058 170.05L779.066 169.182C778.422 168.468 777.092 167.362 776.098 166.606L775.146 167.376ZM776.448 161.23C775.482 163.12 773.382 165.01 770.974 166.06C771.212 166.312 771.562 166.774 771.716 167.068C774.278 165.878 776.448 163.862 777.708 161.65L776.448 161.23ZM777.4 163.806C776.21 166.116 773.55 168.09 770.274 169.084C770.512 169.364 770.89 169.882 771.044 170.19C774.488 169.056 777.218 166.942 778.758 164.296L777.4 163.806ZM771.072 158.99V160.208H778.94V158.99H771.072ZM771.548 163.988C771.548 163.638 773.088 163.19 773.088 163.19C773.718 162.322 774.768 160.586 775.342 159.634H773.942C773.564 160.278 772.528 161.972 772.206 162.322C771.968 162.588 771.52 162.686 771.212 162.756C771.324 163.036 771.506 163.666 771.548 163.988ZM771.548 163.988C771.884 163.848 772.416 163.764 775.888 163.54C775.944 163.274 776.112 162.77 776.266 162.448L772.206 162.658L771.534 163.036L771.548 163.988ZM773.97 157.478C774.292 158.094 774.586 158.92 774.684 159.452L776 159.004C775.902 158.486 775.538 157.688 775.202 157.1L773.97 157.478ZM766.214 159.858V161.076H770.792V159.858H766.214ZM768.02 157.184V170.176H769.28V157.184H768.02ZM768.048 160.712C767.67 162.602 766.802 164.94 765.878 166.158C766.102 166.494 766.41 167.096 766.536 167.474C767.516 166.032 768.398 163.274 768.804 160.992L768.048 160.712ZM769.21 161.51L768.608 161.986C768.972 162.616 769.826 164.254 770.134 165.01L770.918 164.1C770.666 163.666 769.532 161.902 769.21 161.51ZM782.734 161.286V162.504H790.196V161.286H782.734ZM780.256 163.876V165.122H792.73V163.876H780.256ZM783.924 164.73C783.784 167.292 783.406 168.482 780.046 169.084C780.298 169.35 780.648 169.868 780.746 170.19C784.512 169.42 785.114 167.81 785.268 164.73H783.924ZM787.466 164.604V168.272C787.466 169.574 787.816 169.98 789.258 169.98C789.552 169.98 790.938 169.98 791.246 169.98C792.45 169.98 792.8 169.462 792.954 167.488C792.59 167.39 792.03 167.18 791.75 166.97C791.694 168.524 791.61 168.762 791.12 168.762C790.798 168.762 789.678 168.762 789.426 168.762C788.88 168.762 788.796 168.692 788.796 168.272V164.604H787.466ZM780.564 158.724V162H781.894V159.998H791.008V162H792.38V158.724H780.564ZM785.282 157.436C785.632 158.08 785.996 158.948 786.136 159.48L787.564 159.046C787.396 158.5 787.004 157.66 786.626 157.044L785.282 157.436ZM796.342 159.088V160.264H800.108V159.088H796.342ZM800.724 157.282V162.056C800.724 163.414 801.116 163.806 802.642 163.806C802.95 163.806 804.602 163.806 804.938 163.806C806.212 163.806 806.576 163.288 806.73 161.426C806.366 161.342 805.834 161.132 805.54 160.922C805.47 162.378 805.372 162.63 804.826 162.63C804.462 162.63 803.09 162.63 802.796 162.63C802.18 162.63 802.068 162.546 802.068 162.056V157.282H800.724ZM805.414 158.15C804.42 158.738 802.782 159.41 801.326 159.872C801.466 160.138 801.662 160.586 801.732 160.866C803.272 160.432 805.036 159.83 806.352 159.2L805.414 158.15ZM799.786 163.918V170.162H801.116V163.918H799.786ZM794.172 165.626V166.83H806.842V165.626H794.172ZM795.32 164.226C795.67 164.016 796.258 163.89 800.262 163.05C800.234 162.77 800.206 162.238 800.234 161.874L795.866 162.714L795.236 163.148L795.32 164.226ZM795.32 164.226C795.32 163.736 796.734 162.868 796.734 162.868V157.324H795.376V161.916C795.376 162.546 794.97 162.924 794.69 163.106C794.914 163.358 795.222 163.904 795.32 164.226Z" fill="#909399"/>
</g>
</g>
<rect x="742" y="0.5" width="114.5" height="191" stroke="#E4E7ED"/>
<g clip-path="url(#clip56_28292_92374)">
<rect width="116" height="48" transform="translate(857)" fill="#F2F2F2"/>
<rect x="857" y="47" width="116" height="1" fill="#E4E7ED"/>
<g clip-path="url(#clip57_28292_92374)">
<path d="M867.434 25.506L867.756 26.794C868.89 26.388 870.318 25.856 871.662 25.352L871.452 24.176C869.982 24.694 868.456 25.212 867.434 25.506ZM867.588 20.942V22.16H871.564V20.942H867.588ZM869.072 18.184V29.692C869.072 29.846 869.03 29.902 868.876 29.902C868.75 29.902 868.344 29.902 867.91 29.888C868.064 30.224 868.218 30.756 868.26 31.078C869.016 31.078 869.506 31.036 869.856 30.826C870.206 30.63 870.318 30.294 870.318 29.678V18.184H869.072ZM874.546 19.696H877.486V20.928H874.546V19.696ZM873.398 18.744V21.894H878.69V18.744H873.398ZM873.076 23.392H874.616V24.736H873.076V23.392ZM872.054 22.454V25.688H875.666V22.454H872.054ZM877.402 23.392H878.998V24.736H877.402V23.392ZM876.366 22.454V25.688H880.09V22.454H876.366ZM871.83 26.654V27.746H880.356V26.654H871.83ZM875.386 25.66V31.204H876.66V25.66H875.386ZM875.19 27.158C874.308 28.348 872.572 29.398 870.864 29.888C871.13 30.14 871.508 30.616 871.69 30.924C873.454 30.294 875.232 29.034 876.226 27.564L875.19 27.158ZM876.94 27.298L876.002 27.662C876.842 28.95 878.34 30.196 879.754 30.798C879.95 30.49 880.328 30.028 880.608 29.79C879.208 29.328 877.71 28.334 876.94 27.298ZM887.846 20.508L887.23 21.768H894.524V20.508H887.846ZM889.638 23.56V24.764H894.188V23.56H889.638ZM889.624 26.654V27.9H894.37V26.654H889.624ZM888.966 20.928V31.176H890.324V20.928H888.966ZM888.294 18.338C887.622 20.382 886.502 22.412 885.242 23.7C885.536 23.91 886.054 24.386 886.264 24.624C887.552 23.168 888.784 20.914 889.568 18.674L888.294 18.338ZM884.78 18.24C884.024 20.312 882.75 22.37 881.406 23.686C881.644 24.008 882.036 24.75 882.162 25.058C883.688 23.49 885.144 21.026 886.054 18.646L884.78 18.24ZM883.324 21.964V31.162H884.654V20.648L884.64 20.634L883.324 21.964Z" fill="#909399"/>
</g>
<rect width="116" height="48" transform="translate(857 48)" fill="#F4F4F5"/>
<rect x="857" y="95" width="116" height="1" fill="#E4E7ED"/>
<rect x="867" y="54" width="96" height="36" rx="4" fill="#409EFF"/>
<path d="M887.49 74.64V75.872H900.51V74.64H887.49ZM888.036 66.996V68.228H899.978V66.996H888.036ZM890.024 72.022V73.17H898.032V72.022H890.024ZM897.542 69.404V77.65C897.542 77.888 897.458 77.958 897.192 77.958C896.954 77.972 896.044 77.986 895.19 77.944C895.386 78.28 895.582 78.854 895.666 79.204C896.856 79.204 897.668 79.19 898.172 78.98C898.69 78.77 898.858 78.392 898.858 77.664V69.404H897.542ZM889.128 69.404V79.204H890.43V70.608H898.074V69.404H889.128ZM893.272 67.374V75.088H894.602V67.374H893.272ZM907.244 66.184C906.81 68.452 905.998 70.65 904.878 72.008C905.228 72.162 905.9 72.54 906.18 72.736C907.258 71.252 908.14 68.9 908.672 66.45L907.244 66.184ZM907.3 68.48L906.684 69.796H913.152V68.48H907.3ZM912.732 68.48V68.802C912.536 69.936 911.99 71.462 911.57 72.344C911.878 72.47 912.41 72.736 912.69 72.89C913.194 71.882 913.81 70.384 914.16 68.956L913.194 68.41L912.928 68.48H912.732ZM901.686 68.102C902.652 68.648 903.87 69.502 904.444 70.09L905.284 69.012C904.682 68.424 903.436 67.64 902.484 67.136L901.686 68.102ZM901.49 76.922L902.722 77.832C903.59 76.53 904.584 74.934 905.396 73.478L904.36 72.596C903.45 74.164 902.302 75.9 901.49 76.922ZM910.086 71.63L908.938 71.812C909.624 75.34 910.898 77.902 913.656 79.092C913.838 78.728 914.244 78.168 914.538 77.916C911.962 76.964 910.66 74.64 910.086 71.63ZM908.84 70.37V71.238C908.84 73.17 908.504 76.208 904.36 78.224C904.696 78.462 905.172 78.952 905.382 79.274C909.834 77.006 910.254 73.52 910.254 71.266V70.37H908.84ZM916.47 68.046V76.208H917.786V69.32H926.214V76.138H927.586V68.046H916.47ZM917.324 71.084V72.316H926.9V71.084H917.324ZM917.324 74.164V75.438H926.914V74.164H917.324ZM921.258 66.184V79.176H922.644V66.184H921.258ZM930.33 67.262C931.072 67.934 932.024 68.872 932.472 69.474L933.368 68.536C932.906 67.962 931.926 67.08 931.184 66.45L930.33 67.262ZM931.45 78.98C931.66 78.672 932.08 78.336 934.516 76.432C934.376 76.18 934.166 75.662 934.082 75.312L931.478 77.272L931.17 77.748L931.45 78.98ZM929.532 70.552V71.826H932.262V70.552H929.532ZM931.45 78.98C931.45 78.504 932.738 77.594 932.738 77.594V70.552H931.464V76.6C931.464 77.23 931.058 77.678 930.778 77.86C931.002 78.112 931.338 78.672 931.45 78.98ZM935.846 74.262V75.158H940.494V74.262H935.846ZM934.306 67.22V68.2H942.048V67.22H934.306ZM934.67 68.956V69.88H941.628V68.956H934.67ZM933.886 70.678V71.658H942.482V70.678H933.886ZM935.818 76.152V77.062H940.494V76.152H935.818ZM934.866 72.358V79.176H936.098V73.352H940.508V72.358H934.866ZM940.172 72.358V77.804C940.172 77.972 940.102 78.028 939.92 78.028C939.724 78.042 939.052 78.042 938.408 78.014C938.562 78.336 938.73 78.826 938.772 79.148C939.766 79.162 940.424 79.148 940.858 78.952C941.306 78.77 941.432 78.434 941.432 77.818V72.358H940.172ZM937.47 66.184V71H938.786V66.184H937.47Z" fill="white"/>
<rect width="116" height="48" transform="translate(857 96)" fill="white"/>
<rect x="857" y="143" width="116" height="1" fill="#E4E7ED"/>
<rect x="867" y="102" width="96" height="36" rx="4" fill="#409EFF"/>
<path d="M887.49 122.64V123.872H900.51V122.64H887.49ZM888.036 114.996V116.228H899.978V114.996H888.036ZM890.024 120.022V121.17H898.032V120.022H890.024ZM897.542 117.404V125.65C897.542 125.888 897.458 125.958 897.192 125.958C896.954 125.972 896.044 125.986 895.19 125.944C895.386 126.28 895.582 126.854 895.666 127.204C896.856 127.204 897.668 127.19 898.172 126.98C898.69 126.77 898.858 126.392 898.858 125.664V117.404H897.542ZM889.128 117.404V127.204H890.43V118.608H898.074V117.404H889.128ZM893.272 115.374V123.088H894.602V115.374H893.272ZM907.244 114.184C906.81 116.452 905.998 118.65 904.878 120.008C905.228 120.162 905.9 120.54 906.18 120.736C907.258 119.252 908.14 116.9 908.672 114.45L907.244 114.184ZM907.3 116.48L906.684 117.796H913.152V116.48H907.3ZM912.732 116.48V116.802C912.536 117.936 911.99 119.462 911.57 120.344C911.878 120.47 912.41 120.736 912.69 120.89C913.194 119.882 913.81 118.384 914.16 116.956L913.194 116.41L912.928 116.48H912.732ZM901.686 116.102C902.652 116.648 903.87 117.502 904.444 118.09L905.284 117.012C904.682 116.424 903.436 115.64 902.484 115.136L901.686 116.102ZM901.49 124.922L902.722 125.832C903.59 124.53 904.584 122.934 905.396 121.478L904.36 120.596C903.45 122.164 902.302 123.9 901.49 124.922ZM910.086 119.63L908.938 119.812C909.624 123.34 910.898 125.902 913.656 127.092C913.838 126.728 914.244 126.168 914.538 125.916C911.962 124.964 910.66 122.64 910.086 119.63ZM908.84 118.37V119.238C908.84 121.17 908.504 124.208 904.36 126.224C904.696 126.462 905.172 126.952 905.382 127.274C909.834 125.006 910.254 121.52 910.254 119.266V118.37H908.84ZM916.47 116.046V124.208H917.786V117.32H926.214V124.138H927.586V116.046H916.47ZM917.324 119.084V120.316H926.9V119.084H917.324ZM917.324 122.164V123.438H926.914V122.164H917.324ZM921.258 114.184V127.176H922.644V114.184H921.258ZM930.33 115.262C931.072 115.934 932.024 116.872 932.472 117.474L933.368 116.536C932.906 115.962 931.926 115.08 931.184 114.45L930.33 115.262ZM931.45 126.98C931.66 126.672 932.08 126.336 934.516 124.432C934.376 124.18 934.166 123.662 934.082 123.312L931.478 125.272L931.17 125.748L931.45 126.98ZM929.532 118.552V119.826H932.262V118.552H929.532ZM931.45 126.98C931.45 126.504 932.738 125.594 932.738 125.594V118.552H931.464V124.6C931.464 125.23 931.058 125.678 930.778 125.86C931.002 126.112 931.338 126.672 931.45 126.98ZM935.846 122.262V123.158H940.494V122.262H935.846ZM934.306 115.22V116.2H942.048V115.22H934.306ZM934.67 116.956V117.88H941.628V116.956H934.67ZM933.886 118.678V119.658H942.482V118.678H933.886ZM935.818 124.152V125.062H940.494V124.152H935.818ZM934.866 120.358V127.176H936.098V121.352H940.508V120.358H934.866ZM940.172 120.358V125.804C940.172 125.972 940.102 126.028 939.92 126.028C939.724 126.042 939.052 126.042 938.408 126.014C938.562 126.336 938.73 126.826 938.772 127.148C939.766 127.162 940.424 127.148 940.858 126.952C941.306 126.77 941.432 126.434 941.432 125.818V120.358H940.172ZM937.47 114.184V119H938.786V114.184H937.47Z" fill="white"/>
<rect width="116" height="48" transform="translate(857 144)" fill="white"/>
<rect x="867" y="150" width="96" height="36" rx="4" fill="#409EFF"/>
<path d="M887.49 170.64V171.872H900.51V170.64H887.49ZM888.036 162.996V164.228H899.978V162.996H888.036ZM890.024 168.022V169.17H898.032V168.022H890.024ZM897.542 165.404V173.65C897.542 173.888 897.458 173.958 897.192 173.958C896.954 173.972 896.044 173.986 895.19 173.944C895.386 174.28 895.582 174.854 895.666 175.204C896.856 175.204 897.668 175.19 898.172 174.98C898.69 174.77 898.858 174.392 898.858 173.664V165.404H897.542ZM889.128 165.404V175.204H890.43V166.608H898.074V165.404H889.128ZM893.272 163.374V171.088H894.602V163.374H893.272ZM907.244 162.184C906.81 164.452 905.998 166.65 904.878 168.008C905.228 168.162 905.9 168.54 906.18 168.736C907.258 167.252 908.14 164.9 908.672 162.45L907.244 162.184ZM907.3 164.48L906.684 165.796H913.152V164.48H907.3ZM912.732 164.48V164.802C912.536 165.936 911.99 167.462 911.57 168.344C911.878 168.47 912.41 168.736 912.69 168.89C913.194 167.882 913.81 166.384 914.16 164.956L913.194 164.41L912.928 164.48H912.732ZM901.686 164.102C902.652 164.648 903.87 165.502 904.444 166.09L905.284 165.012C904.682 164.424 903.436 163.64 902.484 163.136L901.686 164.102ZM901.49 172.922L902.722 173.832C903.59 172.53 904.584 170.934 905.396 169.478L904.36 168.596C903.45 170.164 902.302 171.9 901.49 172.922ZM910.086 167.63L908.938 167.812C909.624 171.34 910.898 173.902 913.656 175.092C913.838 174.728 914.244 174.168 914.538 173.916C911.962 172.964 910.66 170.64 910.086 167.63ZM908.84 166.37V167.238C908.84 169.17 908.504 172.208 904.36 174.224C904.696 174.462 905.172 174.952 905.382 175.274C909.834 173.006 910.254 169.52 910.254 167.266V166.37H908.84ZM916.47 164.046V172.208H917.786V165.32H926.214V172.138H927.586V164.046H916.47ZM917.324 167.084V168.316H926.9V167.084H917.324ZM917.324 170.164V171.438H926.914V170.164H917.324ZM921.258 162.184V175.176H922.644V162.184H921.258ZM930.33 163.262C931.072 163.934 932.024 164.872 932.472 165.474L933.368 164.536C932.906 163.962 931.926 163.08 931.184 162.45L930.33 163.262ZM931.45 174.98C931.66 174.672 932.08 174.336 934.516 172.432C934.376 172.18 934.166 171.662 934.082 171.312L931.478 173.272L931.17 173.748L931.45 174.98ZM929.532 166.552V167.826H932.262V166.552H929.532ZM931.45 174.98C931.45 174.504 932.738 173.594 932.738 173.594V166.552H931.464V172.6C931.464 173.23 931.058 173.678 930.778 173.86C931.002 174.112 931.338 174.672 931.45 174.98ZM935.846 170.262V171.158H940.494V170.262H935.846ZM934.306 163.22V164.2H942.048V163.22H934.306ZM934.67 164.956V165.88H941.628V164.956H934.67ZM933.886 166.678V167.658H942.482V166.678H933.886ZM935.818 172.152V173.062H940.494V172.152H935.818ZM934.866 168.358V175.176H936.098V169.352H940.508V168.358H934.866ZM940.172 168.358V173.804C940.172 173.972 940.102 174.028 939.92 174.028C939.724 174.042 939.052 174.042 938.408 174.014C938.562 174.336 938.73 174.826 938.772 175.148C939.766 175.162 940.424 175.148 940.858 174.952C941.306 174.77 941.432 174.434 941.432 173.818V168.358H940.172ZM937.47 162.184V167H938.786V162.184H937.47Z" fill="white"/>
</g>
<rect x="857.5" y="0.5" width="115" height="191" stroke="#E4E7ED"/>
<defs>
<clipPath id="clip0_28292_92374">
<rect width="115.5" height="192" fill="white"/>
</clipPath>
<clipPath id="clip1_28292_92374">
<rect width="115.5" height="48" fill="white"/>
</clipPath>
<clipPath id="clip2_28292_92374">
<rect width="28" height="22" fill="white" transform="translate(10 13)"/>
</clipPath>
<clipPath id="clip3_28292_92374">
<rect width="115.5" height="48" fill="white" transform="translate(0 48)"/>
</clipPath>
<clipPath id="clip4_28292_92374">
<rect width="8" height="22" fill="white" transform="translate(10 61)"/>
</clipPath>
<clipPath id="clip5_28292_92374">
<rect width="115.5" height="48" fill="white" transform="translate(0 96)"/>
</clipPath>
<clipPath id="clip6_28292_92374">
<rect width="8" height="22" fill="white" transform="translate(10 109)"/>
</clipPath>
<clipPath id="clip7_28292_92374">
<rect width="8" height="22" fill="white" transform="translate(10 157)"/>
</clipPath>
<clipPath id="clip8_28292_92374">
<rect x="115.5" width="164" height="192" fill="white"/>
</clipPath>
<clipPath id="clip9_28292_92374">
<rect width="164" height="48" fill="white" transform="translate(115.5)"/>
</clipPath>
<clipPath id="clip10_28292_92374">
<rect width="28" height="22" fill="white" transform="translate(125.5 13)"/>
</clipPath>
<clipPath id="clip11_28292_92374">
<rect width="164" height="48" fill="white" transform="translate(115.5 48)"/>
</clipPath>
<clipPath id="clip12_28292_92374">
<rect width="134" height="22" fill="white" transform="translate(125.5 61)"/>
</clipPath>
<clipPath id="clip13_28292_92374">
<rect width="164" height="48" fill="white" transform="translate(115.5 96)"/>
</clipPath>
<clipPath id="clip14_28292_92374">
<rect width="134" height="22" fill="white" transform="translate(125.5 109)"/>
</clipPath>
<clipPath id="clip15_28292_92374">
<rect width="134" height="22" fill="white" transform="translate(125.5 157)"/>
</clipPath>
<clipPath id="clip16_28292_92374">
<rect x="279.5" width="115.5" height="192" fill="white"/>
</clipPath>
<clipPath id="clip17_28292_92374">
<rect width="115.5" height="48" fill="white" transform="translate(279.5)"/>
</clipPath>
<clipPath id="clip18_28292_92374">
<rect width="42" height="22" fill="white" transform="translate(289.5 13)"/>
</clipPath>
<clipPath id="clip19_28292_92374">
<rect width="115.5" height="48" fill="white" transform="translate(279.5 48)"/>
</clipPath>
<clipPath id="clip20_28292_92374">
<rect width="28" height="22" fill="white" transform="translate(289.5 56)"/>
</clipPath>
<clipPath id="clip21_28292_92374">
<rect width="115.5" height="48" fill="white" transform="translate(279.5 96)"/>
</clipPath>
<clipPath id="clip22_28292_92374">
<rect width="28" height="22" fill="white" transform="translate(289.5 104)"/>
</clipPath>
<clipPath id="clip23_28292_92374">
<rect width="28" height="22" fill="white" transform="translate(289.5 152)"/>
</clipPath>
<clipPath id="clip24_28292_92374">
<rect x="395" width="115.5" height="192" fill="white"/>
</clipPath>
<clipPath id="clip25_28292_92374">
<rect width="115.5" height="48" fill="white" transform="translate(395)"/>
</clipPath>
<clipPath id="clip26_28292_92374">
<rect width="56" height="22" fill="white" transform="translate(405 13)"/>
</clipPath>
<clipPath id="clip27_28292_92374">
<rect width="115.5" height="48" fill="white" transform="translate(395 48)"/>
</clipPath>
<clipPath id="clip28_28292_92374">
<rect width="26" height="22" fill="white" transform="translate(405 56)"/>
</clipPath>
<clipPath id="clip29_28292_92374">
<rect width="115.5" height="48" fill="white" transform="translate(395 96)"/>
</clipPath>
<clipPath id="clip30_28292_92374">
<rect width="26" height="22" fill="white" transform="translate(405 104)"/>
</clipPath>
<clipPath id="clip31_28292_92374">
<rect width="26" height="22" fill="white" transform="translate(405 152)"/>
</clipPath>
<clipPath id="clip32_28292_92374">
<rect x="510.5" width="115.5" height="192" fill="white"/>
</clipPath>
<clipPath id="clip33_28292_92374">
<rect width="115.5" height="48" fill="white" transform="translate(510.5)"/>
</clipPath>
<clipPath id="clip34_28292_92374">
<rect width="42" height="22" fill="white" transform="translate(520.5 13)"/>
</clipPath>
<clipPath id="clip35_28292_92374">
<rect width="115.5" height="48" fill="white" transform="translate(510.5 48)"/>
</clipPath>
<clipPath id="clip36_28292_92374">
<rect width="42" height="22" fill="white" transform="translate(520.5 56)"/>
</clipPath>
<clipPath id="clip37_28292_92374">
<rect width="115.5" height="48" fill="white" transform="translate(510.5 96)"/>
</clipPath>
<clipPath id="clip38_28292_92374">
<rect width="42" height="22" fill="white" transform="translate(520.5 104)"/>
</clipPath>
<clipPath id="clip39_28292_92374">
<rect width="42" height="22" fill="white" transform="translate(520.5 152)"/>
</clipPath>
<clipPath id="clip40_28292_92374">
<rect x="626" width="115.5" height="192" fill="white"/>
</clipPath>
<clipPath id="clip41_28292_92374">
<rect width="115.5" height="48" fill="white" transform="translate(626)"/>
</clipPath>
<clipPath id="clip42_28292_92374">
<rect width="56" height="22" fill="white" transform="translate(636 13)"/>
</clipPath>
<clipPath id="clip43_28292_92374">
<rect width="115.5" height="48" fill="white" transform="translate(626 48)"/>
</clipPath>
<clipPath id="clip44_28292_92374">
<rect width="26" height="22" fill="white" transform="translate(636 56)"/>
</clipPath>
<clipPath id="clip45_28292_92374">
<rect width="115.5" height="48" fill="white" transform="translate(626 96)"/>
</clipPath>
<clipPath id="clip46_28292_92374">
<rect width="26" height="22" fill="white" transform="translate(636 104)"/>
</clipPath>
<clipPath id="clip47_28292_92374">
<rect width="26" height="22" fill="white" transform="translate(636 152)"/>
</clipPath>
<clipPath id="clip48_28292_92374">
<rect x="741.5" width="115.5" height="192" fill="white"/>
</clipPath>
<clipPath id="clip49_28292_92374">
<rect width="115.5" height="48" fill="white" transform="translate(741.5)"/>
</clipPath>
<clipPath id="clip50_28292_92374">
<rect width="28" height="22" fill="white" transform="translate(751.5 13)"/>
</clipPath>
<clipPath id="clip51_28292_92374">
<rect width="115.5" height="48" fill="white" transform="translate(741.5 48)"/>
</clipPath>
<clipPath id="clip52_28292_92374">
<rect width="56" height="22" fill="white" transform="translate(751.5 56)"/>
</clipPath>
<clipPath id="clip53_28292_92374">
<rect width="115.5" height="48" fill="white" transform="translate(741.5 96)"/>
</clipPath>
<clipPath id="clip54_28292_92374">
<rect width="56" height="22" fill="white" transform="translate(751.5 104)"/>
</clipPath>
<clipPath id="clip55_28292_92374">
<rect width="56" height="22" fill="white" transform="translate(751.5 152)"/>
</clipPath>
<clipPath id="clip56_28292_92374">
<rect x="857" width="116" height="192" fill="white"/>
</clipPath>
<clipPath id="clip57_28292_92374">
<rect width="28" height="22" fill="white" transform="translate(867 13)"/>
</clipPath>
</defs>
</svg>
