<svg width="974" height="192" viewBox="0 0 974 192" fill="none" xmlns="http://www.w3.org/2000/svg">
<rect width="974" height="192" fill="white"/>
<g clip-path="url(#clip0_27506_73491)">
<g clip-path="url(#clip1_27506_73491)">
<rect width="135.833" height="48" fill="#F2F2F2"/>
<rect y="47" width="136" height="1" fill="#E4E7ED"/>
<g clip-path="url(#clip2_27506_73491)">
<path d="M14.088 21.782V22.846H21.06V21.782H14.088ZM13.346 25.324V26.458H22.348V25.324H13.346ZM17.476 25.772V29.734C17.476 29.93 17.406 29.972 17.126 29.986C16.874 30 15.894 30 14.942 29.972C15.124 30.322 15.334 30.826 15.39 31.19C16.636 31.19 17.504 31.204 18.064 31.008C18.638 30.826 18.806 30.476 18.806 29.762V25.772H17.476ZM21.942 25.324V25.506C21.466 26.36 20.766 27.382 20.192 28.026L21.256 28.53C21.928 27.802 22.67 26.668 23.328 25.646L22.376 25.254L22.166 25.324H21.942ZM20.654 21.782V22.034C20.052 22.762 18.778 23.784 17.672 24.33C17.882 24.512 18.218 24.862 18.386 25.086C19.73 24.442 21.158 23.378 22.138 22.37L21.284 21.712L20.99 21.782H20.654ZM12.254 19.696V20.928H23.342V19.696H12.254ZM11.61 19.696V23.56C11.61 25.604 11.512 28.488 10.35 30.49C10.658 30.63 11.232 31.008 11.47 31.232C12.702 29.076 12.898 25.786 12.898 23.56V19.696H11.61ZM15.18 24.078C16.496 24.652 18.246 25.52 19.114 26.08L19.954 25.212C19.03 24.666 17.252 23.84 15.978 23.322L15.18 24.078ZM16.51 18.464C16.79 19.052 17.14 19.85 17.294 20.326L18.666 19.892C18.484 19.43 18.12 18.66 17.812 18.1L16.51 18.464ZM27.822 19.892H34.08V21.53H27.822V19.892ZM26.506 18.73V22.692H35.48V18.73H26.506ZM24.812 23.784V24.988H37.118V23.784H24.812ZM27.486 26.332V27.536H34.5V26.332H27.486ZM34.094 26.332V26.514C33.828 28.558 33.534 29.524 33.142 29.818C32.974 29.93 32.792 29.944 32.47 29.944C32.064 29.944 31.042 29.93 30.076 29.846C30.314 30.196 30.51 30.728 30.538 31.106C31.504 31.162 32.428 31.162 32.932 31.134C33.52 31.106 33.912 31.022 34.29 30.686C34.794 30.224 35.144 29.174 35.452 26.906C35.48 26.724 35.522 26.332 35.522 26.332H34.094ZM27.808 24.274C27.5 25.338 27.052 26.668 26.674 27.536H28.2C28.494 26.752 28.928 25.506 29.222 24.47L27.808 24.274Z" fill="#909399"/>
</g>
</g>
<g clip-path="url(#clip3_27506_73491)">
<rect width="135.833" height="48" transform="translate(0 48)" fill="#F4F4F5"/>
<rect y="95" width="135.833" height="1" fill="#E4E7ED"/>
<g clip-path="url(#clip4_27506_73491)">
<path d="M11.19 78H17.084V76.67H15.068V67.696H13.85C13.248 68.06 12.576 68.312 11.596 68.48V69.502H13.458V76.67H11.19V78Z" fill="#909399"/>
</g>
</g>
<g clip-path="url(#clip5_27506_73491)">
<rect width="135.833" height="48" transform="translate(0 96)" fill="white"/>
<rect y="143" width="135.833" height="1" fill="#E4E7ED"/>
<g clip-path="url(#clip6_27506_73491)">
<path d="M10.602 126H17.266V124.628H14.69C14.186 124.628 13.528 124.684 12.996 124.74C15.18 122.64 16.776 120.582 16.776 118.608C16.776 116.732 15.558 115.514 13.668 115.514C12.324 115.514 11.414 116.088 10.518 117.054L11.442 117.936C11.988 117.306 12.66 116.802 13.472 116.802C14.62 116.802 15.208 117.572 15.208 118.678C15.208 120.372 13.654 122.374 10.602 125.062V126Z" fill="#909399"/>
</g>
</g>
<rect width="135.833" height="48" transform="translate(0 144)" fill="white"/>
<g clip-path="url(#clip7_27506_73491)">
<path d="M13.738 174.196C15.642 174.196 17.196 173.104 17.196 171.242C17.196 169.842 16.258 168.96 15.068 168.652V168.582C16.16 168.176 16.846 167.35 16.846 166.16C16.846 164.466 15.544 163.514 13.696 163.514C12.506 163.514 11.554 164.018 10.728 164.746L11.582 165.768C12.17 165.18 12.842 164.802 13.626 164.802C14.62 164.802 15.208 165.376 15.208 166.286C15.208 167.322 14.536 168.078 12.52 168.078V169.282C14.83 169.282 15.558 170.01 15.558 171.158C15.558 172.222 14.76 172.866 13.612 172.866C12.534 172.866 11.778 172.348 11.176 171.732L10.378 172.768C11.078 173.552 12.128 174.196 13.738 174.196Z" fill="#909399"/>
</g>
</g>
<rect x="0.5" y="0.5" width="134.833" height="191" stroke="#E4E7ED"/>
<g clip-path="url(#clip8_27506_73491)">
<g clip-path="url(#clip9_27506_73491)">
<rect width="159" height="48" transform="translate(135.833)" fill="#F2F2F2"/>
<rect x="135.833" y="47" width="159" height="1" fill="#E4E7ED"/>
<g clip-path="url(#clip10_27506_73491)">
<path d="M147.499 19.332V20.522H150.215V27.396H147.499V28.586H151.447V19.332H147.499ZM147.569 23.308V24.484H150.607V23.308H147.569ZM146.869 19.332V29.706H148.115V19.332H146.869ZM152.035 20.9V22.202H159.343V20.9H152.035ZM156.417 18.268V29.314C156.417 29.594 156.305 29.692 156.011 29.692C155.703 29.706 154.681 29.706 153.631 29.664C153.827 30.042 154.037 30.644 154.107 31.008C155.507 31.022 156.445 30.994 156.991 30.77C157.551 30.56 157.761 30.182 157.761 29.314V18.268H156.417ZM152.371 23.826C153.085 24.876 154.009 26.318 154.443 27.158L155.619 26.472C155.143 25.646 154.191 24.274 153.463 23.252L152.371 23.826ZM160.981 21.432V31.176H162.339V21.432H160.981ZM161.177 18.968C161.821 19.612 162.549 20.508 162.857 21.096L163.963 20.382C163.627 19.78 162.871 18.926 162.213 18.338L161.177 18.968ZM164.677 18.94V20.172H172.139V18.94H164.677ZM171.397 18.94V29.664C171.397 29.846 171.341 29.916 171.159 29.916C170.991 29.916 170.431 29.93 169.913 29.902C170.081 30.238 170.249 30.77 170.305 31.106C171.173 31.106 171.803 31.092 172.223 30.882C172.629 30.672 172.755 30.35 172.755 29.678V18.94H171.397ZM165.279 25.954H168.359V27.606H165.279V25.954ZM165.279 23.238H168.359V24.876H165.279V23.238ZM164.089 22.16V28.684H169.605V22.16H164.089Z" fill="#909399"/>
</g>
</g>
<g clip-path="url(#clip11_27506_73491)">
<rect width="159" height="48" transform="translate(135.833 48)" fill="#F4F4F5"/>
<rect x="135.833" y="95" width="159" height="1" fill="#E4E7ED"/>
<g clip-path="url(#clip12_27506_73491)">
<path d="M146.435 78H153.099V76.628H150.523C150.019 76.628 149.361 76.684 148.829 76.74C151.013 74.64 152.609 72.582 152.609 70.608C152.609 68.732 151.391 67.514 149.501 67.514C148.157 67.514 147.247 68.088 146.351 69.054L147.275 69.936C147.821 69.306 148.493 68.802 149.305 68.802C150.453 68.802 151.041 69.572 151.041 70.678C151.041 72.372 149.487 74.374 146.435 77.062V78ZM157.807 78.196C159.823 78.196 161.139 76.39 161.139 72.806C161.139 69.25 159.823 67.514 157.807 67.514C155.777 67.514 154.475 69.25 154.475 72.806C154.475 76.39 155.777 78.196 157.807 78.196ZM157.807 76.908C156.757 76.908 156.015 75.788 156.015 72.806C156.015 69.866 156.757 68.774 157.807 68.774C158.857 68.774 159.585 69.866 159.585 72.806C159.585 75.788 158.857 76.908 157.807 76.908ZM162.404 78H169.068V76.628H166.492C165.988 76.628 165.33 76.684 164.798 76.74C166.982 74.64 168.578 72.582 168.578 70.608C168.578 68.732 167.36 67.514 165.47 67.514C164.126 67.514 163.216 68.088 162.32 69.054L163.244 69.936C163.79 69.306 164.462 68.802 165.274 68.802C166.422 68.802 167.01 69.572 167.01 70.678C167.01 72.372 165.456 74.374 162.404 77.062V78ZM170.388 78H177.052V76.628H174.476C173.972 76.628 173.314 76.684 172.782 76.74C174.966 74.64 176.562 72.582 176.562 70.608C176.562 68.732 175.344 67.514 173.454 67.514C172.11 67.514 171.2 68.088 170.304 69.054L171.228 69.936C171.774 69.306 172.446 68.802 173.258 68.802C174.406 68.802 174.994 69.572 174.994 70.678C174.994 72.372 173.44 74.374 170.388 77.062V78ZM178.429 74.654H182.125V73.45H178.429V74.654ZM186.764 78.196C188.78 78.196 190.096 76.39 190.096 72.806C190.096 69.25 188.78 67.514 186.764 67.514C184.734 67.514 183.432 69.25 183.432 72.806C183.432 76.39 184.734 78.196 186.764 78.196ZM186.764 76.908C185.714 76.908 184.972 75.788 184.972 72.806C184.972 69.866 185.714 68.774 186.764 68.774C187.814 68.774 188.542 69.866 188.542 72.806C188.542 75.788 187.814 76.908 186.764 76.908ZM194.763 78.196C196.751 78.196 198.095 77.02 198.095 75.494C198.095 74.08 197.283 73.282 196.359 72.764V72.694C196.989 72.204 197.703 71.322 197.703 70.258C197.703 68.648 196.597 67.542 194.805 67.542C193.111 67.542 191.851 68.592 191.851 70.202C191.851 71.28 192.467 72.064 193.237 72.61V72.666C192.285 73.17 191.403 74.094 191.403 75.452C191.403 77.048 192.817 78.196 194.763 78.196ZM195.435 72.288C194.287 71.826 193.307 71.308 193.307 70.202C193.307 69.278 193.937 68.704 194.777 68.704C195.771 68.704 196.359 69.418 196.359 70.356C196.359 71.056 196.051 71.714 195.435 72.288ZM194.791 77.02C193.671 77.02 192.817 76.306 192.817 75.284C192.817 74.388 193.321 73.632 194.035 73.128C195.435 73.716 196.569 74.192 196.569 75.438C196.569 76.404 195.841 77.02 194.791 77.02ZM199.401 74.654H203.097V73.45H199.401V74.654ZM204.349 78H211.013V76.628H208.437C207.933 76.628 207.275 76.684 206.743 76.74C208.927 74.64 210.523 72.582 210.523 70.608C210.523 68.732 209.305 67.514 207.415 67.514C206.071 67.514 205.161 68.088 204.265 69.054L205.189 69.936C205.735 69.306 206.407 68.802 207.219 68.802C208.367 68.802 208.955 69.572 208.955 70.678C208.955 72.372 207.401 74.374 204.349 77.062V78ZM212.333 78H218.997V76.628H216.421C215.917 76.628 215.259 76.684 214.727 76.74C216.911 74.64 218.507 72.582 218.507 70.608C218.507 68.732 217.289 67.514 215.399 67.514C214.055 67.514 213.145 68.088 212.249 69.054L213.173 69.936C213.719 69.306 214.391 68.802 215.203 68.802C216.351 68.802 216.939 69.572 216.939 70.678C216.939 72.372 215.385 74.374 212.333 77.062V78ZM224.05 78H229.944V76.67H227.928V67.696H226.71C226.108 68.06 225.436 68.312 224.456 68.48V69.502H226.318V76.67H224.05V78ZM235.577 78H237.089V67.696H235.213L231.125 74.15V75.242H238.405V73.982H232.749L234.765 70.888C235.059 70.356 235.339 69.81 235.591 69.292H235.661C235.619 69.852 235.577 70.734 235.577 71.28V78ZM240.915 72.694C241.517 72.694 241.993 72.218 241.993 71.56C241.993 70.902 241.517 70.426 240.915 70.426C240.299 70.426 239.837 70.902 239.837 71.56C239.837 72.218 240.299 72.694 240.915 72.694ZM240.915 78.196C241.517 78.196 241.993 77.72 241.993 77.062C241.993 76.39 241.517 75.928 240.915 75.928C240.299 75.928 239.837 76.39 239.837 77.062C239.837 77.72 240.299 78.196 240.915 78.196ZM243.601 78H250.265V76.628H247.689C247.185 76.628 246.527 76.684 245.995 76.74C248.179 74.64 249.775 72.582 249.775 70.608C249.775 68.732 248.557 67.514 246.667 67.514C245.323 67.514 244.413 68.088 243.517 69.054L244.441 69.936C244.987 69.306 245.659 68.802 246.471 68.802C247.619 68.802 248.207 69.572 248.207 70.678C248.207 72.372 246.653 74.374 243.601 77.062V78ZM254.721 78.196C256.625 78.196 258.179 77.104 258.179 75.242C258.179 73.842 257.241 72.96 256.051 72.652V72.582C257.143 72.176 257.829 71.35 257.829 70.16C257.829 68.466 256.527 67.514 254.679 67.514C253.489 67.514 252.537 68.018 251.711 68.746L252.565 69.768C253.153 69.18 253.825 68.802 254.609 68.802C255.603 68.802 256.191 69.376 256.191 70.286C256.191 71.322 255.519 72.078 253.503 72.078V73.282C255.813 73.282 256.541 74.01 256.541 75.158C256.541 76.222 255.743 76.866 254.595 76.866C253.517 76.866 252.761 76.348 252.159 75.732L251.361 76.768C252.061 77.552 253.111 78.196 254.721 78.196ZM261.054 72.694C261.656 72.694 262.132 72.218 262.132 71.56C262.132 70.902 261.656 70.426 261.054 70.426C260.438 70.426 259.976 70.902 259.976 71.56C259.976 72.218 260.438 72.694 261.054 72.694ZM261.054 78.196C261.656 78.196 262.132 77.72 262.132 77.062C262.132 76.39 261.656 75.928 261.054 75.928C260.438 75.928 259.976 76.39 259.976 77.062C259.976 77.72 260.438 78.196 261.054 78.196ZM267.128 78.196C269.144 78.196 270.46 76.39 270.46 72.806C270.46 69.25 269.144 67.514 267.128 67.514C265.098 67.514 263.796 69.25 263.796 72.806C263.796 76.39 265.098 78.196 267.128 78.196ZM267.128 76.908C266.078 76.908 265.336 75.788 265.336 72.806C265.336 69.866 266.078 68.774 267.128 68.774C268.178 68.774 268.906 69.866 268.906 72.806C268.906 75.788 268.178 76.908 267.128 76.908ZM274.86 78.196C276.764 78.196 278.318 77.104 278.318 75.242C278.318 73.842 277.38 72.96 276.19 72.652V72.582C277.282 72.176 277.968 71.35 277.968 70.16C277.968 68.466 276.666 67.514 274.818 67.514C273.628 67.514 272.676 68.018 271.85 68.746L272.704 69.768C273.292 69.18 273.964 68.802 274.748 68.802C275.742 68.802 276.33 69.376 276.33 70.286C276.33 71.322 275.658 72.078 273.642 72.078V73.282C275.952 73.282 276.68 74.01 276.68 75.158C276.68 76.222 275.882 76.866 274.734 76.866C273.656 76.866 272.9 76.348 272.298 75.732L271.5 76.768C272.2 77.552 273.25 78.196 274.86 78.196Z" fill="#909399"/>
</g>
</g>
<g clip-path="url(#clip13_27506_73491)">
<rect width="159" height="48" transform="translate(135.833 96)" fill="white"/>
<rect x="135.833" y="143" width="159" height="1" fill="#E4E7ED"/>
<g clip-path="url(#clip14_27506_73491)">
<path d="M146.435 126H153.099V124.628H150.523C150.019 124.628 149.361 124.684 148.829 124.74C151.013 122.64 152.609 120.582 152.609 118.608C152.609 116.732 151.391 115.514 149.501 115.514C148.157 115.514 147.247 116.088 146.351 117.054L147.275 117.936C147.821 117.306 148.493 116.802 149.305 116.802C150.453 116.802 151.041 117.572 151.041 118.678C151.041 120.372 149.487 122.374 146.435 125.062V126ZM157.807 126.196C159.823 126.196 161.139 124.39 161.139 120.806C161.139 117.25 159.823 115.514 157.807 115.514C155.777 115.514 154.475 117.25 154.475 120.806C154.475 124.39 155.777 126.196 157.807 126.196ZM157.807 124.908C156.757 124.908 156.015 123.788 156.015 120.806C156.015 117.866 156.757 116.774 157.807 116.774C158.857 116.774 159.585 117.866 159.585 120.806C159.585 123.788 158.857 124.908 157.807 124.908ZM162.404 126H169.068V124.628H166.492C165.988 124.628 165.33 124.684 164.798 124.74C166.982 122.64 168.578 120.582 168.578 118.608C168.578 116.732 167.36 115.514 165.47 115.514C164.126 115.514 163.216 116.088 162.32 117.054L163.244 117.936C163.79 117.306 164.462 116.802 165.274 116.802C166.422 116.802 167.01 117.572 167.01 118.678C167.01 120.372 165.456 122.374 162.404 125.062V126ZM170.388 126H177.052V124.628H174.476C173.972 124.628 173.314 124.684 172.782 124.74C174.966 122.64 176.562 120.582 176.562 118.608C176.562 116.732 175.344 115.514 173.454 115.514C172.11 115.514 171.2 116.088 170.304 117.054L171.228 117.936C171.774 117.306 172.446 116.802 173.258 116.802C174.406 116.802 174.994 117.572 174.994 118.678C174.994 120.372 173.44 122.374 170.388 125.062V126ZM178.429 122.654H182.125V121.45H178.429V122.654ZM186.764 126.196C188.78 126.196 190.096 124.39 190.096 120.806C190.096 117.25 188.78 115.514 186.764 115.514C184.734 115.514 183.432 117.25 183.432 120.806C183.432 124.39 184.734 126.196 186.764 126.196ZM186.764 124.908C185.714 124.908 184.972 123.788 184.972 120.806C184.972 117.866 185.714 116.774 186.764 116.774C187.814 116.774 188.542 117.866 188.542 120.806C188.542 123.788 187.814 124.908 186.764 124.908ZM194.763 126.196C196.751 126.196 198.095 125.02 198.095 123.494C198.095 122.08 197.283 121.282 196.359 120.764V120.694C196.989 120.204 197.703 119.322 197.703 118.258C197.703 116.648 196.597 115.542 194.805 115.542C193.111 115.542 191.851 116.592 191.851 118.202C191.851 119.28 192.467 120.064 193.237 120.61V120.666C192.285 121.17 191.403 122.094 191.403 123.452C191.403 125.048 192.817 126.196 194.763 126.196ZM195.435 120.288C194.287 119.826 193.307 119.308 193.307 118.202C193.307 117.278 193.937 116.704 194.777 116.704C195.771 116.704 196.359 117.418 196.359 118.356C196.359 119.056 196.051 119.714 195.435 120.288ZM194.791 125.02C193.671 125.02 192.817 124.306 192.817 123.284C192.817 122.388 193.321 121.632 194.035 121.128C195.435 121.716 196.569 122.192 196.569 123.438C196.569 124.404 195.841 125.02 194.791 125.02ZM199.401 122.654H203.097V121.45H199.401V122.654ZM204.349 126H211.013V124.628H208.437C207.933 124.628 207.275 124.684 206.743 124.74C208.927 122.64 210.523 120.582 210.523 118.608C210.523 116.732 209.305 115.514 207.415 115.514C206.071 115.514 205.161 116.088 204.265 117.054L205.189 117.936C205.735 117.306 206.407 116.802 207.219 116.802C208.367 116.802 208.955 117.572 208.955 118.678C208.955 120.372 207.401 122.374 204.349 125.062V126ZM212.333 126H218.997V124.628H216.421C215.917 124.628 215.259 124.684 214.727 124.74C216.911 122.64 218.507 120.582 218.507 118.608C218.507 116.732 217.289 115.514 215.399 115.514C214.055 115.514 213.145 116.088 212.249 117.054L213.173 117.936C213.719 117.306 214.391 116.802 215.203 116.802C216.351 116.802 216.939 117.572 216.939 118.678C216.939 120.372 215.385 122.374 212.333 125.062V126ZM224.05 126H229.944V124.67H227.928V115.696H226.71C226.108 116.06 225.436 116.312 224.456 116.48V117.502H226.318V124.67H224.05V126ZM235.577 126H237.089V115.696H235.213L231.125 122.15V123.242H238.405V121.982H232.749L234.765 118.888C235.059 118.356 235.339 117.81 235.591 117.292H235.661C235.619 117.852 235.577 118.734 235.577 119.28V126ZM240.915 120.694C241.517 120.694 241.993 120.218 241.993 119.56C241.993 118.902 241.517 118.426 240.915 118.426C240.299 118.426 239.837 118.902 239.837 119.56C239.837 120.218 240.299 120.694 240.915 120.694ZM240.915 126.196C241.517 126.196 241.993 125.72 241.993 125.062C241.993 124.39 241.517 123.928 240.915 123.928C240.299 123.928 239.837 124.39 239.837 125.062C239.837 125.72 240.299 126.196 240.915 126.196ZM244.189 126H250.083V124.67H248.067V115.696H246.849C246.247 116.06 245.575 116.312 244.595 116.48V117.502H246.457V124.67H244.189V126ZM255.281 126.196C256.947 126.196 258.361 124.852 258.361 122.808C258.361 120.624 257.185 119.574 255.449 119.574C254.679 119.574 253.727 120.05 253.125 120.862L253.195 122.038C253.811 121.1 254.553 120.736 255.169 120.736C256.261 120.736 256.863 121.478 256.863 122.808C256.863 124.138 256.163 124.95 255.267 124.95C254.007 124.95 253.223 123.704 253.223 121.044C253.223 117.894 254.329 116.83 255.701 116.83C256.303 116.83 256.933 117.152 257.311 117.6L258.193 116.62C257.605 115.99 256.765 115.514 255.617 115.514C253.573 115.514 251.725 117.096 251.725 121.044C251.725 124.544 253.321 126.196 255.281 126.196ZM261.054 120.694C261.656 120.694 262.132 120.218 262.132 119.56C262.132 118.902 261.656 118.426 261.054 118.426C260.438 118.426 259.976 118.902 259.976 119.56C259.976 120.218 260.438 120.694 261.054 120.694ZM261.054 126.196C261.656 126.196 262.132 125.72 262.132 125.062C262.132 124.39 261.656 123.928 261.054 123.928C260.438 123.928 259.976 124.39 259.976 125.062C259.976 125.72 260.438 126.196 261.054 126.196ZM267.128 126.196C269.144 126.196 270.46 124.39 270.46 120.806C270.46 117.25 269.144 115.514 267.128 115.514C265.098 115.514 263.796 117.25 263.796 120.806C263.796 124.39 265.098 126.196 267.128 126.196ZM267.128 124.908C266.078 124.908 265.336 123.788 265.336 120.806C265.336 117.866 266.078 116.774 267.128 116.774C268.178 116.774 268.906 117.866 268.906 120.806C268.906 123.788 268.178 124.908 267.128 124.908ZM274.86 126.196C276.764 126.196 278.318 125.104 278.318 123.242C278.318 121.842 277.38 120.96 276.19 120.652V120.582C277.282 120.176 277.968 119.35 277.968 118.16C277.968 116.466 276.666 115.514 274.818 115.514C273.628 115.514 272.676 116.018 271.85 116.746L272.704 117.768C273.292 117.18 273.964 116.802 274.748 116.802C275.742 116.802 276.33 117.376 276.33 118.286C276.33 119.322 275.658 120.078 273.642 120.078V121.282C275.952 121.282 276.68 122.01 276.68 123.158C276.68 124.222 275.882 124.866 274.734 124.866C273.656 124.866 272.9 124.348 272.298 123.732L271.5 124.768C272.2 125.552 273.25 126.196 274.86 126.196Z" fill="#909399"/>
</g>
</g>
<rect width="159" height="48" transform="translate(135.833 144)" fill="white"/>
<g clip-path="url(#clip15_27506_73491)">
<path d="M146.435 174H153.099V172.628H150.523C150.019 172.628 149.361 172.684 148.829 172.74C151.013 170.64 152.609 168.582 152.609 166.608C152.609 164.732 151.391 163.514 149.501 163.514C148.157 163.514 147.247 164.088 146.351 165.054L147.275 165.936C147.821 165.306 148.493 164.802 149.305 164.802C150.453 164.802 151.041 165.572 151.041 166.678C151.041 168.372 149.487 170.374 146.435 173.062V174ZM157.807 174.196C159.823 174.196 161.139 172.39 161.139 168.806C161.139 165.25 159.823 163.514 157.807 163.514C155.777 163.514 154.475 165.25 154.475 168.806C154.475 172.39 155.777 174.196 157.807 174.196ZM157.807 172.908C156.757 172.908 156.015 171.788 156.015 168.806C156.015 165.866 156.757 164.774 157.807 164.774C158.857 164.774 159.585 165.866 159.585 168.806C159.585 171.788 158.857 172.908 157.807 172.908ZM162.404 174H169.068V172.628H166.492C165.988 172.628 165.33 172.684 164.798 172.74C166.982 170.64 168.578 168.582 168.578 166.608C168.578 164.732 167.36 163.514 165.47 163.514C164.126 163.514 163.216 164.088 162.32 165.054L163.244 165.936C163.79 165.306 164.462 164.802 165.274 164.802C166.422 164.802 167.01 165.572 167.01 166.678C167.01 168.372 165.456 170.374 162.404 173.062V174ZM170.388 174H177.052V172.628H174.476C173.972 172.628 173.314 172.684 172.782 172.74C174.966 170.64 176.562 168.582 176.562 166.608C176.562 164.732 175.344 163.514 173.454 163.514C172.11 163.514 171.2 164.088 170.304 165.054L171.228 165.936C171.774 165.306 172.446 164.802 173.258 164.802C174.406 164.802 174.994 165.572 174.994 166.678C174.994 168.372 173.44 170.374 170.388 173.062V174ZM178.429 170.654H182.125V169.45H178.429V170.654ZM186.764 174.196C188.78 174.196 190.096 172.39 190.096 168.806C190.096 165.25 188.78 163.514 186.764 163.514C184.734 163.514 183.432 165.25 183.432 168.806C183.432 172.39 184.734 174.196 186.764 174.196ZM186.764 172.908C185.714 172.908 184.972 171.788 184.972 168.806C184.972 165.866 185.714 164.774 186.764 164.774C187.814 164.774 188.542 165.866 188.542 168.806C188.542 171.788 187.814 172.908 186.764 172.908ZM194.763 174.196C196.751 174.196 198.095 173.02 198.095 171.494C198.095 170.08 197.283 169.282 196.359 168.764V168.694C196.989 168.204 197.703 167.322 197.703 166.258C197.703 164.648 196.597 163.542 194.805 163.542C193.111 163.542 191.851 164.592 191.851 166.202C191.851 167.28 192.467 168.064 193.237 168.61V168.666C192.285 169.17 191.403 170.094 191.403 171.452C191.403 173.048 192.817 174.196 194.763 174.196ZM195.435 168.288C194.287 167.826 193.307 167.308 193.307 166.202C193.307 165.278 193.937 164.704 194.777 164.704C195.771 164.704 196.359 165.418 196.359 166.356C196.359 167.056 196.051 167.714 195.435 168.288ZM194.791 173.02C193.671 173.02 192.817 172.306 192.817 171.284C192.817 170.388 193.321 169.632 194.035 169.128C195.435 169.716 196.569 170.192 196.569 171.438C196.569 172.404 195.841 173.02 194.791 173.02ZM199.401 170.654H203.097V169.45H199.401V170.654ZM204.349 174H211.013V172.628H208.437C207.933 172.628 207.275 172.684 206.743 172.74C208.927 170.64 210.523 168.582 210.523 166.608C210.523 164.732 209.305 163.514 207.415 163.514C206.071 163.514 205.161 164.088 204.265 165.054L205.189 165.936C205.735 165.306 206.407 164.802 207.219 164.802C208.367 164.802 208.955 165.572 208.955 166.678C208.955 168.372 207.401 170.374 204.349 173.062V174ZM212.333 174H218.997V172.628H216.421C215.917 172.628 215.259 172.684 214.727 172.74C216.911 170.64 218.507 168.582 218.507 166.608C218.507 164.732 217.289 163.514 215.399 163.514C214.055 163.514 213.145 164.088 212.249 165.054L213.173 165.936C213.719 165.306 214.391 164.802 215.203 164.802C216.351 164.802 216.939 165.572 216.939 166.678C216.939 168.372 215.385 170.374 212.333 173.062V174ZM224.05 174H229.944V172.67H227.928V163.696H226.71C226.108 164.06 225.436 164.312 224.456 164.48V165.502H226.318V172.67H224.05V174ZM235.577 174H237.089V163.696H235.213L231.125 170.15V171.242H238.405V169.982H232.749L234.765 166.888C235.059 166.356 235.339 165.81 235.591 165.292H235.661C235.619 165.852 235.577 166.734 235.577 167.28V174ZM240.915 168.694C241.517 168.694 241.993 168.218 241.993 167.56C241.993 166.902 241.517 166.426 240.915 166.426C240.299 166.426 239.837 166.902 239.837 167.56C239.837 168.218 240.299 168.694 240.915 168.694ZM240.915 174.196C241.517 174.196 241.993 173.72 241.993 173.062C241.993 172.39 241.517 171.928 240.915 171.928C240.299 171.928 239.837 172.39 239.837 173.062C239.837 173.72 240.299 174.196 240.915 174.196ZM244.189 174H250.083V172.67H248.067V163.696H246.849C246.247 164.06 245.575 164.312 244.595 164.48V165.502H246.457V172.67H244.189V174ZM254.973 174.196C256.989 174.196 258.305 172.39 258.305 168.806C258.305 165.25 256.989 163.514 254.973 163.514C252.943 163.514 251.641 165.25 251.641 168.806C251.641 172.39 252.943 174.196 254.973 174.196ZM254.973 172.908C253.923 172.908 253.181 171.788 253.181 168.806C253.181 165.866 253.923 164.774 254.973 164.774C256.023 164.774 256.751 165.866 256.751 168.806C256.751 171.788 256.023 172.908 254.973 172.908ZM261.054 168.694C261.656 168.694 262.132 168.218 262.132 167.56C262.132 166.902 261.656 166.426 261.054 166.426C260.438 166.426 259.976 166.902 259.976 167.56C259.976 168.218 260.438 168.694 261.054 168.694ZM261.054 174.196C261.656 174.196 262.132 173.72 262.132 173.062C262.132 172.39 261.656 171.928 261.054 171.928C260.438 171.928 259.976 172.39 259.976 173.062C259.976 173.72 260.438 174.196 261.054 174.196ZM267.128 174.196C269.144 174.196 270.46 172.39 270.46 168.806C270.46 165.25 269.144 163.514 267.128 163.514C265.098 163.514 263.796 165.25 263.796 168.806C263.796 172.39 265.098 174.196 267.128 174.196ZM267.128 172.908C266.078 172.908 265.336 171.788 265.336 168.806C265.336 165.866 266.078 164.774 267.128 164.774C268.178 164.774 268.906 165.866 268.906 168.806C268.906 171.788 268.178 172.908 267.128 172.908ZM274.86 174.196C276.764 174.196 278.318 173.104 278.318 171.242C278.318 169.842 277.38 168.96 276.19 168.652V168.582C277.282 168.176 277.968 167.35 277.968 166.16C277.968 164.466 276.666 163.514 274.818 163.514C273.628 163.514 272.676 164.018 271.85 164.746L272.704 165.768C273.292 165.18 273.964 164.802 274.748 164.802C275.742 164.802 276.33 165.376 276.33 166.286C276.33 167.322 275.658 168.078 273.642 168.078V169.282C275.952 169.282 276.68 170.01 276.68 171.158C276.68 172.222 275.882 172.866 274.734 172.866C273.656 172.866 272.9 172.348 272.298 171.732L271.5 172.768C272.2 173.552 273.25 174.196 274.86 174.196Z" fill="#909399"/>
</g>
</g>
<rect x="136.333" y="0.5" width="158" height="191" stroke="#E4E7ED"/>
<g clip-path="url(#clip16_27506_73491)">
<g clip-path="url(#clip17_27506_73491)">
<rect width="135.833" height="48" transform="translate(294.833)" fill="#F2F2F2"/>
<rect x="294.833" y="47" width="136" height="1" fill="#E4E7ED"/>
<g clip-path="url(#clip18_27506_73491)">
<path d="M314.563 24.596C313.835 25.282 312.435 25.898 311.217 26.248C311.469 26.444 311.777 26.766 311.945 27.018C313.261 26.584 314.675 25.884 315.543 25.002L314.563 24.596ZM315.907 25.968C314.969 26.934 313.135 27.69 311.371 28.068C311.609 28.306 311.875 28.67 312.029 28.922C313.933 28.418 315.795 27.564 316.887 26.374L315.907 25.968ZM317.097 27.494C315.865 28.894 313.345 29.72 310.629 30.112C310.881 30.392 311.175 30.84 311.301 31.162C314.227 30.63 316.803 29.664 318.231 27.97L317.097 27.494ZM312.673 18.17C312.127 19.654 311.147 21.068 310.041 21.964C310.335 22.146 310.825 22.524 311.035 22.748C312.155 21.726 313.233 20.144 313.891 18.478L312.673 18.17ZM312.743 19.668L312.099 20.746H316.845V19.668H312.743ZM312.519 20.312L311.693 20.886C312.603 22.58 314.647 24.386 317.755 25.114C317.923 24.792 318.245 24.302 318.497 24.05C315.389 23.49 313.359 21.88 312.519 20.312ZM309.075 22.132V28.908H310.181V22.132H309.075ZM307.983 18.254C307.339 20.368 306.261 22.482 305.071 23.84C305.295 24.19 305.631 24.918 305.743 25.24C307.143 23.588 308.417 21.04 309.215 18.604L307.983 18.254ZM306.835 21.852V31.176H308.095V20.662L308.053 20.634L306.835 21.852ZM316.677 19.668V19.864C315.697 22.23 312.953 23.644 310.069 24.19C310.293 24.442 310.573 24.904 310.699 25.198C313.807 24.47 316.677 22.944 317.881 19.99L317.111 19.612L316.901 19.668H316.677ZM320.289 19.248C321.045 19.962 322.011 20.956 322.459 21.586L323.397 20.648C322.935 20.032 321.927 19.08 321.185 18.408L320.289 19.248ZM319.491 22.552V23.826H322.711V22.552H319.491ZM324.461 19.318V20.648H332.315V19.318H324.461ZM328.507 19.766V29.356C328.507 29.608 328.409 29.692 328.129 29.706C327.835 29.72 326.813 29.734 325.833 29.678C326.057 30.056 326.309 30.714 326.379 31.12C327.695 31.12 328.591 31.078 329.165 30.854C329.725 30.616 329.907 30.196 329.907 29.37V19.766H328.507ZM321.605 30.896C321.857 30.588 322.333 30.252 325.357 28.166C325.217 27.9 325.049 27.34 324.979 26.962L321.703 29.104L321.339 29.608L321.605 30.896ZM321.605 30.896C321.605 30.406 323.005 29.524 323.005 29.524V22.552H321.731V28.502C321.731 29.132 321.255 29.58 320.961 29.762C321.185 30.028 321.507 30.574 321.605 30.896ZM339.007 18.226C338.951 20.48 339.119 27.088 333.337 30.084C333.757 30.378 334.191 30.798 334.429 31.148C340.337 27.844 340.435 20.886 340.505 18.226H339.007ZM340.365 19.934L339.091 20.074C339.287 21.376 339.819 28.418 345.447 31.078C345.643 30.7 346.021 30.252 346.413 29.944C340.995 27.522 340.477 20.998 340.365 19.934Z" fill="#909399"/>
</g>
</g>
<g clip-path="url(#clip19_27506_73491)">
<rect width="135.833" height="48" transform="translate(294.833 48)" fill="#F4F4F5"/>
<rect x="294.833" y="95" width="135.833" height="1" fill="#E4E7ED"/>
<g clip-path="url(#clip20_27506_73491)">
<path d="M305.561 64.642V65.846H318.133V64.642H305.561ZM306.569 62.332V63.508H317.195V62.332H306.569ZM308.977 61.184V65.23H310.307V61.184H308.977ZM313.387 61.184V65.23H314.745V61.184H313.387ZM311.147 65.314V71.124H312.505V65.314H311.147ZM308.305 69.598H315.431V70.662H308.305V69.598ZM308.305 67.666H315.431V68.702H308.305V67.666ZM307.031 66.728V71.6H316.761V66.728H307.031ZM312.995 72.496C314.535 73.042 316.131 73.714 317.083 74.176L318.049 73.294C317.013 72.832 315.291 72.174 313.751 71.656L312.995 72.496ZM309.691 71.684C308.809 72.258 307.017 72.93 305.575 73.28C305.869 73.532 306.275 73.952 306.499 74.218C307.927 73.854 309.719 73.154 310.853 72.468L309.691 71.684ZM325.301 64.978V66.056H331.587V64.978H325.301ZM328.143 66.616V74.134H329.431V66.616H328.143ZM325.483 69.332C325.483 69.08 326.393 68.66 326.393 68.66V68.646C327.177 67.386 328.045 65.538 328.633 63.76L327.331 63.466C326.883 65.118 326.071 66.868 325.805 67.316C325.553 67.806 325.329 68.114 325.091 68.17C325.217 68.492 325.413 69.08 325.483 69.332ZM325.483 69.332C325.609 69.206 326.113 69.136 326.701 69.136H331.895L331.909 67.96H326.155L325.483 68.31V69.332ZM324.811 61.884V64.558H325.945V63.074H330.845V64.558H332.021V61.884H324.811ZM324.811 70.592V71.796H332.343V70.592H324.811ZM321.409 61.408V66.728H322.501V61.408H321.409ZM319.421 66.07V67.302H324.461V66.07H319.421ZM320.457 66.742C320.415 69.612 320.303 71.824 319.239 73.14C319.533 73.336 319.883 73.742 320.051 74.036C321.311 72.496 321.507 69.962 321.535 66.742H320.457ZM319.491 62.458C319.743 63.48 320.023 64.824 320.121 65.678L321.059 65.454C320.947 64.6 320.653 63.298 320.359 62.262L319.491 62.458ZM323.551 62.178C323.369 63.172 322.991 64.6 322.669 65.468L323.509 65.706C323.845 64.866 324.251 63.522 324.601 62.43L323.551 62.178ZM322.375 73.154C322.571 72.86 322.921 72.552 324.909 70.998C324.783 70.788 324.573 70.368 324.475 70.074L322.431 71.6L322.165 72.048L322.375 73.154ZM322.375 73.154C322.375 72.734 323.383 71.88 323.383 71.88V66.77H322.291V71.082C322.291 71.754 322.011 72.146 321.787 72.328C321.983 72.51 322.277 72.93 322.375 73.154Z" fill="#909399"/>
</g>
</g>
<g clip-path="url(#clip21_27506_73491)">
<rect width="135.833" height="48" transform="translate(294.833 96)" fill="white"/>
<rect x="294.833" y="143" width="135.833" height="1" fill="#E4E7ED"/>
<g clip-path="url(#clip22_27506_73491)">
<path d="M305.561 112.642V113.846H318.133V112.642H305.561ZM306.569 110.332V111.508H317.195V110.332H306.569ZM308.977 109.184V113.23H310.307V109.184H308.977ZM313.387 109.184V113.23H314.745V109.184H313.387ZM311.147 113.314V119.124H312.505V113.314H311.147ZM308.305 117.598H315.431V118.662H308.305V117.598ZM308.305 115.666H315.431V116.702H308.305V115.666ZM307.031 114.728V119.6H316.761V114.728H307.031ZM312.995 120.496C314.535 121.042 316.131 121.714 317.083 122.176L318.049 121.294C317.013 120.832 315.291 120.174 313.751 119.656L312.995 120.496ZM309.691 119.684C308.809 120.258 307.017 120.93 305.575 121.28C305.869 121.532 306.275 121.952 306.499 122.218C307.927 121.854 309.719 121.154 310.853 120.468L309.691 119.684ZM325.301 112.978V114.056H331.587V112.978H325.301ZM328.143 114.616V122.134H329.431V114.616H328.143ZM325.483 117.332C325.483 117.08 326.393 116.66 326.393 116.66V116.646C327.177 115.386 328.045 113.538 328.633 111.76L327.331 111.466C326.883 113.118 326.071 114.868 325.805 115.316C325.553 115.806 325.329 116.114 325.091 116.17C325.217 116.492 325.413 117.08 325.483 117.332ZM325.483 117.332C325.609 117.206 326.113 117.136 326.701 117.136H331.895L331.909 115.96H326.155L325.483 116.31V117.332ZM324.811 109.884V112.558H325.945V111.074H330.845V112.558H332.021V109.884H324.811ZM324.811 118.592V119.796H332.343V118.592H324.811ZM321.409 109.408V114.728H322.501V109.408H321.409ZM319.421 114.07V115.302H324.461V114.07H319.421ZM320.457 114.742C320.415 117.612 320.303 119.824 319.239 121.14C319.533 121.336 319.883 121.742 320.051 122.036C321.311 120.496 321.507 117.962 321.535 114.742H320.457ZM319.491 110.458C319.743 111.48 320.023 112.824 320.121 113.678L321.059 113.454C320.947 112.6 320.653 111.298 320.359 110.262L319.491 110.458ZM323.551 110.178C323.369 111.172 322.991 112.6 322.669 113.468L323.509 113.706C323.845 112.866 324.251 111.522 324.601 110.43L323.551 110.178ZM322.375 121.154C322.571 120.86 322.921 120.552 324.909 118.998C324.783 118.788 324.573 118.368 324.475 118.074L322.431 119.6L322.165 120.048L322.375 121.154ZM322.375 121.154C322.375 120.734 323.383 119.88 323.383 119.88V114.77H322.291V119.082C322.291 119.754 322.011 120.146 321.787 120.328C321.983 120.51 322.277 120.93 322.375 121.154Z" fill="#909399"/>
</g>
</g>
<rect width="135.833" height="48" transform="translate(294.833 144)" fill="white"/>
<g clip-path="url(#clip23_27506_73491)">
<path d="M305.561 160.642V161.846H318.133V160.642H305.561ZM306.569 158.332V159.508H317.195V158.332H306.569ZM308.977 157.184V161.23H310.307V157.184H308.977ZM313.387 157.184V161.23H314.745V157.184H313.387ZM311.147 161.314V167.124H312.505V161.314H311.147ZM308.305 165.598H315.431V166.662H308.305V165.598ZM308.305 163.666H315.431V164.702H308.305V163.666ZM307.031 162.728V167.6H316.761V162.728H307.031ZM312.995 168.496C314.535 169.042 316.131 169.714 317.083 170.176L318.049 169.294C317.013 168.832 315.291 168.174 313.751 167.656L312.995 168.496ZM309.691 167.684C308.809 168.258 307.017 168.93 305.575 169.28C305.869 169.532 306.275 169.952 306.499 170.218C307.927 169.854 309.719 169.154 310.853 168.468L309.691 167.684ZM325.301 160.978V162.056H331.587V160.978H325.301ZM328.143 162.616V170.134H329.431V162.616H328.143ZM325.483 165.332C325.483 165.08 326.393 164.66 326.393 164.66V164.646C327.177 163.386 328.045 161.538 328.633 159.76L327.331 159.466C326.883 161.118 326.071 162.868 325.805 163.316C325.553 163.806 325.329 164.114 325.091 164.17C325.217 164.492 325.413 165.08 325.483 165.332ZM325.483 165.332C325.609 165.206 326.113 165.136 326.701 165.136H331.895L331.909 163.96H326.155L325.483 164.31V165.332ZM324.811 157.884V160.558H325.945V159.074H330.845V160.558H332.021V157.884H324.811ZM324.811 166.592V167.796H332.343V166.592H324.811ZM321.409 157.408V162.728H322.501V157.408H321.409ZM319.421 162.07V163.302H324.461V162.07H319.421ZM320.457 162.742C320.415 165.612 320.303 167.824 319.239 169.14C319.533 169.336 319.883 169.742 320.051 170.036C321.311 168.496 321.507 165.962 321.535 162.742H320.457ZM319.491 158.458C319.743 159.48 320.023 160.824 320.121 161.678L321.059 161.454C320.947 160.6 320.653 159.298 320.359 158.262L319.491 158.458ZM323.551 158.178C323.369 159.172 322.991 160.6 322.669 161.468L323.509 161.706C323.845 160.866 324.251 159.522 324.601 158.43L323.551 158.178ZM322.375 169.154C322.571 168.86 322.921 168.552 324.909 166.998C324.783 166.788 324.573 166.368 324.475 166.074L322.431 167.6L322.165 168.048L322.375 169.154ZM322.375 169.154C322.375 168.734 323.383 167.88 323.383 167.88V162.77H322.291V167.082C322.291 167.754 322.011 168.146 321.787 168.328C321.983 168.51 322.277 168.93 322.375 169.154Z" fill="#909399"/>
</g>
</g>
<rect x="295.333" y="0.5" width="134.833" height="191" stroke="#E4E7ED"/>
<g clip-path="url(#clip24_27506_73491)">
<g clip-path="url(#clip25_27506_73491)">
<rect width="135.833" height="48" transform="translate(430.667)" fill="#F2F2F2"/>
<rect x="430.667" y="47" width="136" height="1" fill="#E4E7ED"/>
<g clip-path="url(#clip26_27506_73491)">
<path d="M450.397 24.596C449.669 25.282 448.269 25.898 447.051 26.248C447.303 26.444 447.611 26.766 447.779 27.018C449.095 26.584 450.509 25.884 451.377 25.002L450.397 24.596ZM451.741 25.968C450.803 26.934 448.969 27.69 447.205 28.068C447.443 28.306 447.709 28.67 447.863 28.922C449.767 28.418 451.629 27.564 452.721 26.374L451.741 25.968ZM452.931 27.494C451.699 28.894 449.179 29.72 446.463 30.112C446.715 30.392 447.009 30.84 447.135 31.162C450.061 30.63 452.637 29.664 454.065 27.97L452.931 27.494ZM448.507 18.17C447.961 19.654 446.981 21.068 445.875 21.964C446.169 22.146 446.659 22.524 446.869 22.748C447.989 21.726 449.067 20.144 449.725 18.478L448.507 18.17ZM448.577 19.668L447.933 20.746H452.679V19.668H448.577ZM448.353 20.312L447.527 20.886C448.437 22.58 450.481 24.386 453.589 25.114C453.757 24.792 454.079 24.302 454.331 24.05C451.223 23.49 449.193 21.88 448.353 20.312ZM444.909 22.132V28.908H446.015V22.132H444.909ZM443.817 18.254C443.173 20.368 442.095 22.482 440.905 23.84C441.129 24.19 441.465 24.918 441.577 25.24C442.977 23.588 444.251 21.04 445.049 18.604L443.817 18.254ZM442.669 21.852V31.176H443.929V20.662L443.887 20.634L442.669 21.852ZM452.511 19.668V19.864C451.531 22.23 448.787 23.644 445.903 24.19C446.127 24.442 446.407 24.904 446.533 25.198C449.641 24.47 452.511 22.944 453.715 19.99L452.945 19.612L452.735 19.668H452.511ZM456.123 19.248C456.879 19.962 457.845 20.956 458.293 21.586L459.231 20.648C458.769 20.032 457.761 19.08 457.019 18.408L456.123 19.248ZM455.325 22.552V23.826H458.545V22.552H455.325ZM460.295 19.318V20.648H468.149V19.318H460.295ZM464.341 19.766V29.356C464.341 29.608 464.243 29.692 463.963 29.706C463.669 29.72 462.647 29.734 461.667 29.678C461.891 30.056 462.143 30.714 462.213 31.12C463.529 31.12 464.425 31.078 464.999 30.854C465.559 30.616 465.741 30.196 465.741 29.37V19.766H464.341ZM457.439 30.896C457.691 30.588 458.167 30.252 461.191 28.166C461.051 27.9 460.883 27.34 460.813 26.962L457.537 29.104L457.173 29.608L457.439 30.896ZM457.439 30.896C457.439 30.406 458.839 29.524 458.839 29.524V22.552H457.565V28.502C457.565 29.132 457.089 29.58 456.795 29.762C457.019 30.028 457.341 30.574 457.439 30.896ZM473.679 20.116V21.32H482.037V20.116H473.679ZM475.485 18.184V23.042H476.759V18.184H475.485ZM478.999 18.184V23.042H480.273V18.184H478.999ZM474.239 23.588V31.134H475.443V24.75H480.301V31.064H481.561V23.588H474.239ZM474.911 26.416V27.564H480.875V26.416H474.911ZM474.939 29.272V30.434H480.903V29.272H474.939ZM477.249 24.134V30.112H478.453V24.134H477.249ZM469.003 25.478L469.325 26.766C470.529 26.402 472.069 25.926 473.511 25.464L473.343 24.26C471.761 24.722 470.109 25.212 469.003 25.478ZM469.213 20.942V22.16H473.427V20.942H469.213ZM470.809 18.198V29.58C470.809 29.776 470.739 29.832 470.571 29.832C470.403 29.846 469.885 29.846 469.311 29.832C469.479 30.182 469.633 30.728 469.675 31.05C470.571 31.05 471.145 31.008 471.509 30.798C471.901 30.602 472.027 30.252 472.027 29.594V18.198H470.809ZM487.133 20.83V22.076H495.855V20.83H487.133ZM492.705 19.01C493.279 19.542 494.007 20.298 494.343 20.774L495.393 20.088C495.029 19.612 494.273 18.898 493.713 18.394L492.705 19.01ZM490.843 18.324V28.978H492.173V18.324H490.843ZM486.461 23.196H483.269V24.428H485.187V28.796H486.461V23.196ZM483.479 19.388C484.221 20.2 485.131 21.32 485.523 22.034L486.643 21.32C486.209 20.606 485.271 19.542 484.529 18.772L483.479 19.388ZM485.901 28.236C485.131 28.236 484.109 28.936 483.129 29.86L483.955 30.994C484.655 30.168 485.383 29.384 485.887 29.384C486.223 29.384 486.671 29.79 487.287 30.112C488.295 30.658 489.499 30.812 491.165 30.812C492.509 30.812 494.861 30.728 495.827 30.658C495.855 30.308 496.051 29.678 496.191 29.342C494.833 29.51 492.733 29.622 491.207 29.622C489.709 29.622 488.463 29.524 487.539 29.034C486.741 28.614 486.391 28.236 485.901 28.236ZM490.465 21.306C489.765 23.546 488.379 25.884 486.881 27.074C487.161 27.298 487.595 27.76 487.805 28.068C489.359 26.668 490.745 24.162 491.543 21.6L490.465 21.306ZM491.193 22.454C492.607 23.98 494.259 26.108 494.959 27.452L495.995 26.696C495.253 25.338 493.531 23.294 492.131 21.81L491.193 22.454Z" fill="#909399"/>
</g>
</g>
<g clip-path="url(#clip27_27506_73491)">
<rect width="135.833" height="48" transform="translate(430.667 48)" fill="#F4F4F5"/>
<rect x="430.667" y="95" width="135.833" height="1" fill="#E4E7ED"/>
<g clip-path="url(#clip28_27506_73491)">
<path d="M442.753 73.196C443.355 73.196 443.831 72.72 443.831 72.062C443.831 71.39 443.355 70.928 442.753 70.928C442.137 70.928 441.675 71.39 441.675 72.062C441.675 72.72 442.137 73.196 442.753 73.196ZM446.923 73.196C447.525 73.196 448.001 72.72 448.001 72.062C448.001 71.39 447.525 70.928 446.923 70.928C446.307 70.928 445.845 71.39 445.845 72.062C445.845 72.72 446.307 73.196 446.923 73.196ZM451.093 73.196C451.695 73.196 452.171 72.72 452.171 72.062C452.171 71.39 451.695 70.928 451.093 70.928C450.477 70.928 450.015 71.39 450.015 72.062C450.015 72.72 450.477 73.196 451.093 73.196ZM455.263 73.196C455.865 73.196 456.341 72.72 456.341 72.062C456.341 71.39 455.865 70.928 455.263 70.928C454.647 70.928 454.185 71.39 454.185 72.062C454.185 72.72 454.647 73.196 455.263 73.196ZM459.433 73.196C460.035 73.196 460.511 72.72 460.511 72.062C460.511 71.39 460.035 70.928 459.433 70.928C458.817 70.928 458.355 71.39 458.355 72.062C458.355 72.72 458.817 73.196 459.433 73.196ZM463.603 73.196C464.205 73.196 464.681 72.72 464.681 72.062C464.681 71.39 464.205 70.928 463.603 70.928C462.987 70.928 462.525 71.39 462.525 72.062C462.525 72.72 462.987 73.196 463.603 73.196Z" fill="#909399"/>
</g>
</g>
<g clip-path="url(#clip29_27506_73491)">
<rect width="135.833" height="48" transform="translate(430.667 96)" fill="white"/>
<rect x="430.667" y="143" width="135.833" height="1" fill="#E4E7ED"/>
<g clip-path="url(#clip30_27506_73491)">
<path d="M442.753 121.196C443.355 121.196 443.831 120.72 443.831 120.062C443.831 119.39 443.355 118.928 442.753 118.928C442.137 118.928 441.675 119.39 441.675 120.062C441.675 120.72 442.137 121.196 442.753 121.196ZM446.923 121.196C447.525 121.196 448.001 120.72 448.001 120.062C448.001 119.39 447.525 118.928 446.923 118.928C446.307 118.928 445.845 119.39 445.845 120.062C445.845 120.72 446.307 121.196 446.923 121.196ZM451.093 121.196C451.695 121.196 452.171 120.72 452.171 120.062C452.171 119.39 451.695 118.928 451.093 118.928C450.477 118.928 450.015 119.39 450.015 120.062C450.015 120.72 450.477 121.196 451.093 121.196ZM455.263 121.196C455.865 121.196 456.341 120.72 456.341 120.062C456.341 119.39 455.865 118.928 455.263 118.928C454.647 118.928 454.185 119.39 454.185 120.062C454.185 120.72 454.647 121.196 455.263 121.196ZM459.433 121.196C460.035 121.196 460.511 120.72 460.511 120.062C460.511 119.39 460.035 118.928 459.433 118.928C458.817 118.928 458.355 119.39 458.355 120.062C458.355 120.72 458.817 121.196 459.433 121.196ZM463.603 121.196C464.205 121.196 464.681 120.72 464.681 120.062C464.681 119.39 464.205 118.928 463.603 118.928C462.987 118.928 462.525 119.39 462.525 120.062C462.525 120.72 462.987 121.196 463.603 121.196Z" fill="#909399"/>
</g>
</g>
<rect width="135.833" height="48" transform="translate(430.667 144)" fill="white"/>
<g clip-path="url(#clip31_27506_73491)">
<path d="M442.753 169.196C443.355 169.196 443.831 168.72 443.831 168.062C443.831 167.39 443.355 166.928 442.753 166.928C442.137 166.928 441.675 167.39 441.675 168.062C441.675 168.72 442.137 169.196 442.753 169.196ZM446.923 169.196C447.525 169.196 448.001 168.72 448.001 168.062C448.001 167.39 447.525 166.928 446.923 166.928C446.307 166.928 445.845 167.39 445.845 168.062C445.845 168.72 446.307 169.196 446.923 169.196ZM451.093 169.196C451.695 169.196 452.171 168.72 452.171 168.062C452.171 167.39 451.695 166.928 451.093 166.928C450.477 166.928 450.015 167.39 450.015 168.062C450.015 168.72 450.477 169.196 451.093 169.196ZM455.263 169.196C455.865 169.196 456.341 168.72 456.341 168.062C456.341 167.39 455.865 166.928 455.263 166.928C454.647 166.928 454.185 167.39 454.185 168.062C454.185 168.72 454.647 169.196 455.263 169.196ZM459.433 169.196C460.035 169.196 460.511 168.72 460.511 168.062C460.511 167.39 460.035 166.928 459.433 166.928C458.817 166.928 458.355 167.39 458.355 168.062C458.355 168.72 458.817 169.196 459.433 169.196ZM463.603 169.196C464.205 169.196 464.681 168.72 464.681 168.062C464.681 167.39 464.205 166.928 463.603 166.928C462.987 166.928 462.525 167.39 462.525 168.062C462.525 168.72 462.987 169.196 463.603 169.196Z" fill="#909399"/>
</g>
</g>
<rect x="431.167" y="0.5" width="134.833" height="191" stroke="#E4E7ED"/>
<g clip-path="url(#clip32_27506_73491)">
<g clip-path="url(#clip33_27506_73491)">
<rect width="135.833" height="48" transform="translate(566.5)" fill="#F2F2F2"/>
<rect x="566.5" y="47" width="136" height="1" fill="#E4E7ED"/>
<g clip-path="url(#clip34_27506_73491)">
<path d="M577.578 19.612V22.048H578.908V20.886H588.022V22.048H589.394V19.612H577.578ZM582.408 18.436C582.66 18.926 582.94 19.598 583.08 20.018L584.508 19.584C584.368 19.178 584.032 18.534 583.78 18.058L582.408 18.436ZM578.432 22.58V29.398H579.706V23.728H587.224V29.328H588.554V22.58H578.432ZM579.244 25.044V26.164H587.882V25.044H579.244ZM579.244 27.508V28.67H587.952V27.508H579.244ZM582.786 21.292V31.162H584.172V21.292H582.786ZM600.146 28.376C601.14 29.174 602.442 30.322 603.058 31.05L604.066 30.182C603.422 29.468 602.092 28.362 601.098 27.606L600.146 28.376ZM601.448 22.23C600.482 24.12 598.382 26.01 595.974 27.06C596.212 27.312 596.562 27.774 596.716 28.068C599.278 26.878 601.448 24.862 602.708 22.65L601.448 22.23ZM602.4 24.806C601.21 27.116 598.55 29.09 595.274 30.084C595.512 30.364 595.89 30.882 596.044 31.19C599.488 30.056 602.218 27.942 603.758 25.296L602.4 24.806ZM596.072 19.99V21.208H603.94V19.99H596.072ZM596.548 24.988C596.548 24.638 598.088 24.19 598.088 24.19C598.718 23.322 599.768 21.586 600.342 20.634H598.942C598.564 21.278 597.528 22.972 597.206 23.322C596.968 23.588 596.52 23.686 596.212 23.756C596.324 24.036 596.506 24.666 596.548 24.988ZM596.548 24.988C596.884 24.848 597.416 24.764 600.888 24.54C600.944 24.274 601.112 23.77 601.266 23.448L597.206 23.658L596.534 24.036L596.548 24.988ZM598.97 18.478C599.292 19.094 599.586 19.92 599.684 20.452L601 20.004C600.902 19.486 600.538 18.688 600.202 18.1L598.97 18.478ZM591.214 20.858V22.076H595.792V20.858H591.214ZM593.02 18.184V31.176H594.28V18.184H593.02ZM593.048 21.712C592.67 23.602 591.802 25.94 590.878 27.158C591.102 27.494 591.41 28.096 591.536 28.474C592.516 27.032 593.398 24.274 593.804 21.992L593.048 21.712ZM594.21 22.51L593.608 22.986C593.972 23.616 594.826 25.254 595.134 26.01L595.918 25.1C595.666 24.666 594.532 22.902 594.21 22.51ZM610.674 18.226C610.618 20.48 610.786 27.088 605.004 30.084C605.424 30.378 605.858 30.798 606.096 31.148C612.004 27.844 612.102 20.886 612.172 18.226H610.674ZM612.032 19.934L610.758 20.074C610.954 21.376 611.486 28.418 617.114 31.078C617.31 30.7 617.688 30.252 618.08 29.944C612.662 27.522 612.144 20.998 612.032 19.934Z" fill="#909399"/>
</g>
</g>
<g clip-path="url(#clip35_27506_73491)">
<rect width="135.833" height="48" transform="translate(566.5 48)" fill="#F4F4F5"/>
<rect x="566.5" y="95" width="135.833" height="1" fill="#E4E7ED"/>
<path d="M577.386 67.094V68.396H588.6V67.094H577.386ZM578.016 71.952V73.254H588.096V71.952H578.016ZM576.686 77.258V78.56H589.328V77.258H576.686ZM582.286 67.43V78.098H583.672V67.43H582.286ZM595.768 70.048C595.558 72.288 595.138 75.298 594.774 77.104H596.062C596.356 75.354 596.762 72.358 597.014 70.048H595.768ZM597.84 71.546C598.386 71.994 599.016 72.624 599.296 73.058L600.038 72.54C599.73 72.12 599.086 71.504 598.554 71.084L597.84 71.546ZM597.476 74.486C598.05 74.962 598.75 75.662 599.072 76.124L599.842 75.578C599.506 75.13 598.792 74.458 598.218 74.01L597.476 74.486ZM595.936 67.696V68.9H603.174V67.696H595.936ZM596.314 70.048V71.196H601.746V70.048H596.314ZM594.004 72.89V74.094H603.538V72.89H594.004ZM595.446 75.97V77.104H603.16V75.97H595.446ZM596.104 66.17C595.614 67.78 594.76 69.404 593.794 70.44C594.116 70.608 594.676 70.958 594.942 71.168C595.88 70.034 596.804 68.256 597.392 66.506L596.104 66.17ZM601.368 70.048V70.314C601.186 75.452 600.948 77.356 600.57 77.79C600.43 77.958 600.29 78 600.052 78C599.772 78 599.17 77.986 598.484 77.93C598.68 78.238 598.806 78.714 598.834 79.036C599.506 79.078 600.192 79.092 600.598 79.036C601.046 78.98 601.368 78.868 601.662 78.476C602.138 77.874 602.362 76.012 602.572 70.65C602.586 70.468 602.6 70.048 602.6 70.048H601.368ZM591.302 67.29C592.142 67.71 593.206 68.368 593.738 68.83L594.508 67.822C593.962 67.374 592.87 66.758 592.044 66.394L591.302 67.29ZM590.532 71.322C591.33 71.728 592.352 72.372 592.828 72.834L593.584 71.826C593.08 71.378 592.058 70.79 591.26 70.426L590.532 71.322ZM590.938 78.224L592.1 78.952C592.702 77.608 593.374 75.9 593.892 74.416L592.884 73.688C592.296 75.312 591.512 77.132 590.938 78.224ZM604.924 75.522C604.924 75.256 605.806 74.85 605.806 74.85V74.822C607.262 73.492 608.76 71.658 609.922 69.796L608.76 69.054C607.724 70.93 606.156 72.848 605.652 73.338C605.162 73.842 604.84 74.164 604.476 74.234C604.644 74.598 604.854 75.242 604.924 75.522ZM604.924 75.522C605.274 75.326 605.834 75.2 609.642 74.598C609.6 74.318 609.572 73.786 609.586 73.436L605.498 74.01L604.868 74.444L604.924 75.522ZM604.812 72.134C604.812 71.868 605.666 71.434 605.666 71.434V71.406C606.688 70.16 607.766 68.396 608.55 66.702L607.22 66.156C606.618 67.808 605.568 69.558 605.232 70.006C604.896 70.468 604.658 70.776 604.378 70.846C604.518 71.196 604.742 71.854 604.812 72.134ZM604.812 72.134C605.106 71.994 605.582 71.896 608.27 71.616C608.284 71.336 608.326 70.846 608.41 70.482L605.414 70.734L604.784 71.126L604.812 72.134ZM604.462 77.146L604.7 78.504C606.058 78.196 607.864 77.79 609.572 77.398L609.432 76.152C607.612 76.53 605.722 76.936 604.462 77.146ZM609.908 67.444V68.76H617.132V67.444H609.908ZM609.698 76.978V78.308H617.426V76.978H609.698ZM612.82 67.878V77.734H614.262V67.878H612.82Z" fill="#909399"/>
</g>
<g clip-path="url(#clip36_27506_73491)">
<rect width="135.833" height="48" transform="translate(566.5 96)" fill="white"/>
<rect x="566.5" y="143" width="135.833" height="1" fill="#E4E7ED"/>
<g clip-path="url(#clip37_27506_73491)">
<path d="M577.886 110.094V111.396H589.1V110.094H577.886ZM578.516 114.952V116.254H588.596V114.952H578.516ZM577.186 120.258V121.56H589.828V120.258H577.186ZM582.786 110.43V121.098H584.172V110.43H582.786ZM596.268 113.048C596.058 115.288 595.638 118.298 595.274 120.104H596.562C596.856 118.354 597.262 115.358 597.514 113.048H596.268ZM598.34 114.546C598.886 114.994 599.516 115.624 599.796 116.058L600.538 115.54C600.23 115.12 599.586 114.504 599.054 114.084L598.34 114.546ZM597.976 117.486C598.55 117.962 599.25 118.662 599.572 119.124L600.342 118.578C600.006 118.13 599.292 117.458 598.718 117.01L597.976 117.486ZM596.436 110.696V111.9H603.674V110.696H596.436ZM596.814 113.048V114.196H602.246V113.048H596.814ZM594.504 115.89V117.094H604.038V115.89H594.504ZM595.946 118.97V120.104H603.66V118.97H595.946ZM596.604 109.17C596.114 110.78 595.26 112.404 594.294 113.44C594.616 113.608 595.176 113.958 595.442 114.168C596.38 113.034 597.304 111.256 597.892 109.506L596.604 109.17ZM601.868 113.048V113.314C601.686 118.452 601.448 120.356 601.07 120.79C600.93 120.958 600.79 121 600.552 121C600.272 121 599.67 120.986 598.984 120.93C599.18 121.238 599.306 121.714 599.334 122.036C600.006 122.078 600.692 122.092 601.098 122.036C601.546 121.98 601.868 121.868 602.162 121.476C602.638 120.874 602.862 119.012 603.072 113.65C603.086 113.468 603.1 113.048 603.1 113.048H601.868ZM591.802 110.29C592.642 110.71 593.706 111.368 594.238 111.83L595.008 110.822C594.462 110.374 593.37 109.758 592.544 109.394L591.802 110.29ZM591.032 114.322C591.83 114.728 592.852 115.372 593.328 115.834L594.084 114.826C593.58 114.378 592.558 113.79 591.76 113.426L591.032 114.322ZM591.438 121.224L592.6 121.952C593.202 120.608 593.874 118.9 594.392 117.416L593.384 116.688C592.796 118.312 592.012 120.132 591.438 121.224ZM605.424 118.522C605.424 118.256 606.306 117.85 606.306 117.85V117.822C607.762 116.492 609.26 114.658 610.422 112.796L609.26 112.054C608.224 113.93 606.656 115.848 606.152 116.338C605.662 116.842 605.34 117.164 604.976 117.234C605.144 117.598 605.354 118.242 605.424 118.522ZM605.424 118.522C605.774 118.326 606.334 118.2 610.142 117.598C610.1 117.318 610.072 116.786 610.086 116.436L605.998 117.01L605.368 117.444L605.424 118.522ZM605.312 115.134C605.312 114.868 606.166 114.434 606.166 114.434V114.406C607.188 113.16 608.266 111.396 609.05 109.702L607.72 109.156C607.118 110.808 606.068 112.558 605.732 113.006C605.396 113.468 605.158 113.776 604.878 113.846C605.018 114.196 605.242 114.854 605.312 115.134ZM605.312 115.134C605.606 114.994 606.082 114.896 608.77 114.616C608.784 114.336 608.826 113.846 608.91 113.482L605.914 113.734L605.284 114.126L605.312 115.134ZM604.962 120.146L605.2 121.504C606.558 121.196 608.364 120.79 610.072 120.398L609.932 119.152C608.112 119.53 606.222 119.936 604.962 120.146ZM610.408 110.444V111.76H617.632V110.444H610.408ZM610.198 119.978V121.308H617.926V119.978H610.198ZM613.32 110.878V120.734H614.762V110.878H613.32Z" fill="#909399"/>
</g>
</g>
<rect width="135.833" height="48" transform="translate(566.5 144)" fill="white"/>
<g clip-path="url(#clip38_27506_73491)">
<path d="M577.886 158.094V159.396H589.1V158.094H577.886ZM578.516 162.952V164.254H588.596V162.952H578.516ZM577.186 168.258V169.56H589.828V168.258H577.186ZM582.786 158.43V169.098H584.172V158.43H582.786ZM596.268 161.048C596.058 163.288 595.638 166.298 595.274 168.104H596.562C596.856 166.354 597.262 163.358 597.514 161.048H596.268ZM598.34 162.546C598.886 162.994 599.516 163.624 599.796 164.058L600.538 163.54C600.23 163.12 599.586 162.504 599.054 162.084L598.34 162.546ZM597.976 165.486C598.55 165.962 599.25 166.662 599.572 167.124L600.342 166.578C600.006 166.13 599.292 165.458 598.718 165.01L597.976 165.486ZM596.436 158.696V159.9H603.674V158.696H596.436ZM596.814 161.048V162.196H602.246V161.048H596.814ZM594.504 163.89V165.094H604.038V163.89H594.504ZM595.946 166.97V168.104H603.66V166.97H595.946ZM596.604 157.17C596.114 158.78 595.26 160.404 594.294 161.44C594.616 161.608 595.176 161.958 595.442 162.168C596.38 161.034 597.304 159.256 597.892 157.506L596.604 157.17ZM601.868 161.048V161.314C601.686 166.452 601.448 168.356 601.07 168.79C600.93 168.958 600.79 169 600.552 169C600.272 169 599.67 168.986 598.984 168.93C599.18 169.238 599.306 169.714 599.334 170.036C600.006 170.078 600.692 170.092 601.098 170.036C601.546 169.98 601.868 169.868 602.162 169.476C602.638 168.874 602.862 167.012 603.072 161.65C603.086 161.468 603.1 161.048 603.1 161.048H601.868ZM591.802 158.29C592.642 158.71 593.706 159.368 594.238 159.83L595.008 158.822C594.462 158.374 593.37 157.758 592.544 157.394L591.802 158.29ZM591.032 162.322C591.83 162.728 592.852 163.372 593.328 163.834L594.084 162.826C593.58 162.378 592.558 161.79 591.76 161.426L591.032 162.322ZM591.438 169.224L592.6 169.952C593.202 168.608 593.874 166.9 594.392 165.416L593.384 164.688C592.796 166.312 592.012 168.132 591.438 169.224ZM605.424 166.522C605.424 166.256 606.306 165.85 606.306 165.85V165.822C607.762 164.492 609.26 162.658 610.422 160.796L609.26 160.054C608.224 161.93 606.656 163.848 606.152 164.338C605.662 164.842 605.34 165.164 604.976 165.234C605.144 165.598 605.354 166.242 605.424 166.522ZM605.424 166.522C605.774 166.326 606.334 166.2 610.142 165.598C610.1 165.318 610.072 164.786 610.086 164.436L605.998 165.01L605.368 165.444L605.424 166.522ZM605.312 163.134C605.312 162.868 606.166 162.434 606.166 162.434V162.406C607.188 161.16 608.266 159.396 609.05 157.702L607.72 157.156C607.118 158.808 606.068 160.558 605.732 161.006C605.396 161.468 605.158 161.776 604.878 161.846C605.018 162.196 605.242 162.854 605.312 163.134ZM605.312 163.134C605.606 162.994 606.082 162.896 608.77 162.616C608.784 162.336 608.826 161.846 608.91 161.482L605.914 161.734L605.284 162.126L605.312 163.134ZM604.962 168.146L605.2 169.504C606.558 169.196 608.364 168.79 610.072 168.398L609.932 167.152C608.112 167.53 606.222 167.936 604.962 168.146ZM610.408 158.444V159.76H617.632V158.444H610.408ZM610.198 167.978V169.308H617.926V167.978H610.198ZM613.32 158.878V168.734H614.762V158.878H613.32Z" fill="#909399"/>
</g>
</g>
<rect x="567" y="0.5" width="134.833" height="191" stroke="#E4E7ED"/>
<g clip-path="url(#clip39_27506_73491)">
<g clip-path="url(#clip40_27506_73491)">
<rect width="135.833" height="48" transform="translate(702.333)" fill="#F2F2F2"/>
<rect x="702.333" y="47" width="136" height="1" fill="#E4E7ED"/>
<g clip-path="url(#clip41_27506_73491)">
<path d="M713.411 19.612V22.048H714.741V20.886H723.855V22.048H725.227V19.612H713.411ZM718.241 18.436C718.493 18.926 718.773 19.598 718.913 20.018L720.341 19.584C720.201 19.178 719.865 18.534 719.613 18.058L718.241 18.436ZM714.265 22.58V29.398H715.539V23.728H723.057V29.328H724.387V22.58H714.265ZM715.077 25.044V26.164H723.715V25.044H715.077ZM715.077 27.508V28.67H723.785V27.508H715.077ZM718.619 21.292V31.162H720.005V21.292H718.619ZM735.979 28.376C736.973 29.174 738.275 30.322 738.891 31.05L739.899 30.182C739.255 29.468 737.925 28.362 736.931 27.606L735.979 28.376ZM737.281 22.23C736.315 24.12 734.215 26.01 731.807 27.06C732.045 27.312 732.395 27.774 732.549 28.068C735.111 26.878 737.281 24.862 738.541 22.65L737.281 22.23ZM738.233 24.806C737.043 27.116 734.383 29.09 731.107 30.084C731.345 30.364 731.723 30.882 731.877 31.19C735.321 30.056 738.051 27.942 739.591 25.296L738.233 24.806ZM731.905 19.99V21.208H739.773V19.99H731.905ZM732.381 24.988C732.381 24.638 733.921 24.19 733.921 24.19C734.551 23.322 735.601 21.586 736.175 20.634H734.775C734.397 21.278 733.361 22.972 733.039 23.322C732.801 23.588 732.353 23.686 732.045 23.756C732.157 24.036 732.339 24.666 732.381 24.988ZM732.381 24.988C732.717 24.848 733.249 24.764 736.721 24.54C736.777 24.274 736.945 23.77 737.099 23.448L733.039 23.658L732.367 24.036L732.381 24.988ZM734.803 18.478C735.125 19.094 735.419 19.92 735.517 20.452L736.833 20.004C736.735 19.486 736.371 18.688 736.035 18.1L734.803 18.478ZM727.047 20.858V22.076H731.625V20.858H727.047ZM728.853 18.184V31.176H730.113V18.184H728.853ZM728.881 21.712C728.503 23.602 727.635 25.94 726.711 27.158C726.935 27.494 727.243 28.096 727.369 28.474C728.349 27.032 729.231 24.274 729.637 21.992L728.881 21.712ZM730.043 22.51L729.441 22.986C729.805 23.616 730.659 25.254 730.967 26.01L731.751 25.1C731.499 24.666 730.365 22.902 730.043 22.51ZM745.345 20.116V21.32H753.703V20.116H745.345ZM747.151 18.184V23.042H748.425V18.184H747.151ZM750.665 18.184V23.042H751.939V18.184H750.665ZM745.905 23.588V31.134H747.109V24.75H751.967V31.064H753.227V23.588H745.905ZM746.577 26.416V27.564H752.541V26.416H746.577ZM746.605 29.272V30.434H752.569V29.272H746.605ZM748.915 24.134V30.112H750.119V24.134H748.915ZM740.669 25.478L740.991 26.766C742.195 26.402 743.735 25.926 745.177 25.464L745.009 24.26C743.427 24.722 741.775 25.212 740.669 25.478ZM740.879 20.942V22.16H745.093V20.942H740.879ZM742.475 18.198V29.58C742.475 29.776 742.405 29.832 742.237 29.832C742.069 29.846 741.551 29.846 740.977 29.832C741.145 30.182 741.299 30.728 741.341 31.05C742.237 31.05 742.811 31.008 743.175 30.798C743.567 30.602 743.693 30.252 743.693 29.594V18.198H742.475ZM758.799 20.83V22.076H767.521V20.83H758.799ZM764.371 19.01C764.945 19.542 765.673 20.298 766.009 20.774L767.059 20.088C766.695 19.612 765.939 18.898 765.379 18.394L764.371 19.01ZM762.509 18.324V28.978H763.839V18.324H762.509ZM758.127 23.196H754.935V24.428H756.853V28.796H758.127V23.196ZM755.145 19.388C755.887 20.2 756.797 21.32 757.189 22.034L758.309 21.32C757.875 20.606 756.937 19.542 756.195 18.772L755.145 19.388ZM757.567 28.236C756.797 28.236 755.775 28.936 754.795 29.86L755.621 30.994C756.321 30.168 757.049 29.384 757.553 29.384C757.889 29.384 758.337 29.79 758.953 30.112C759.961 30.658 761.165 30.812 762.831 30.812C764.175 30.812 766.527 30.728 767.493 30.658C767.521 30.308 767.717 29.678 767.857 29.342C766.499 29.51 764.399 29.622 762.873 29.622C761.375 29.622 760.129 29.524 759.205 29.034C758.407 28.614 758.057 28.236 757.567 28.236ZM762.131 21.306C761.431 23.546 760.045 25.884 758.547 27.074C758.827 27.298 759.261 27.76 759.471 28.068C761.025 26.668 762.411 24.162 763.209 21.6L762.131 21.306ZM762.859 22.454C764.273 23.98 765.925 26.108 766.625 27.452L767.661 26.696C766.919 25.338 765.197 23.294 763.797 21.81L762.859 22.454Z" fill="#909399"/>
</g>
</g>
<g clip-path="url(#clip42_27506_73491)">
<rect width="135.833" height="48" transform="translate(702.333 48)" fill="#F4F4F5"/>
<rect x="702.333" y="95" width="135.833" height="1" fill="#E4E7ED"/>
<g clip-path="url(#clip43_27506_73491)">
<path d="M714.419 73.196C715.021 73.196 715.497 72.72 715.497 72.062C715.497 71.39 715.021 70.928 714.419 70.928C713.803 70.928 713.341 71.39 713.341 72.062C713.341 72.72 713.803 73.196 714.419 73.196ZM718.589 73.196C719.191 73.196 719.667 72.72 719.667 72.062C719.667 71.39 719.191 70.928 718.589 70.928C717.973 70.928 717.511 71.39 717.511 72.062C717.511 72.72 717.973 73.196 718.589 73.196ZM722.759 73.196C723.361 73.196 723.837 72.72 723.837 72.062C723.837 71.39 723.361 70.928 722.759 70.928C722.143 70.928 721.681 71.39 721.681 72.062C721.681 72.72 722.143 73.196 722.759 73.196ZM726.929 73.196C727.531 73.196 728.007 72.72 728.007 72.062C728.007 71.39 727.531 70.928 726.929 70.928C726.313 70.928 725.851 71.39 725.851 72.062C725.851 72.72 726.313 73.196 726.929 73.196ZM731.099 73.196C731.701 73.196 732.177 72.72 732.177 72.062C732.177 71.39 731.701 70.928 731.099 70.928C730.483 70.928 730.021 71.39 730.021 72.062C730.021 72.72 730.483 73.196 731.099 73.196ZM735.269 73.196C735.871 73.196 736.347 72.72 736.347 72.062C736.347 71.39 735.871 70.928 735.269 70.928C734.653 70.928 734.191 71.39 734.191 72.062C734.191 72.72 734.653 73.196 735.269 73.196Z" fill="#909399"/>
</g>
</g>
<g clip-path="url(#clip44_27506_73491)">
<rect width="135.833" height="48" transform="translate(702.333 96)" fill="white"/>
<rect x="702.333" y="143" width="135.833" height="1" fill="#E4E7ED"/>
<g clip-path="url(#clip45_27506_73491)">
<path d="M714.419 121.196C715.021 121.196 715.497 120.72 715.497 120.062C715.497 119.39 715.021 118.928 714.419 118.928C713.803 118.928 713.341 119.39 713.341 120.062C713.341 120.72 713.803 121.196 714.419 121.196ZM718.589 121.196C719.191 121.196 719.667 120.72 719.667 120.062C719.667 119.39 719.191 118.928 718.589 118.928C717.973 118.928 717.511 119.39 717.511 120.062C717.511 120.72 717.973 121.196 718.589 121.196ZM722.759 121.196C723.361 121.196 723.837 120.72 723.837 120.062C723.837 119.39 723.361 118.928 722.759 118.928C722.143 118.928 721.681 119.39 721.681 120.062C721.681 120.72 722.143 121.196 722.759 121.196ZM726.929 121.196C727.531 121.196 728.007 120.72 728.007 120.062C728.007 119.39 727.531 118.928 726.929 118.928C726.313 118.928 725.851 119.39 725.851 120.062C725.851 120.72 726.313 121.196 726.929 121.196ZM731.099 121.196C731.701 121.196 732.177 120.72 732.177 120.062C732.177 119.39 731.701 118.928 731.099 118.928C730.483 118.928 730.021 119.39 730.021 120.062C730.021 120.72 730.483 121.196 731.099 121.196ZM735.269 121.196C735.871 121.196 736.347 120.72 736.347 120.062C736.347 119.39 735.871 118.928 735.269 118.928C734.653 118.928 734.191 119.39 734.191 120.062C734.191 120.72 734.653 121.196 735.269 121.196Z" fill="#909399"/>
</g>
</g>
<rect width="135.833" height="48" transform="translate(702.333 144)" fill="white"/>
<g clip-path="url(#clip46_27506_73491)">
<path d="M714.419 169.196C715.021 169.196 715.497 168.72 715.497 168.062C715.497 167.39 715.021 166.928 714.419 166.928C713.803 166.928 713.341 167.39 713.341 168.062C713.341 168.72 713.803 169.196 714.419 169.196ZM718.589 169.196C719.191 169.196 719.667 168.72 719.667 168.062C719.667 167.39 719.191 166.928 718.589 166.928C717.973 166.928 717.511 167.39 717.511 168.062C717.511 168.72 717.973 169.196 718.589 169.196ZM722.759 169.196C723.361 169.196 723.837 168.72 723.837 168.062C723.837 167.39 723.361 166.928 722.759 166.928C722.143 166.928 721.681 167.39 721.681 168.062C721.681 168.72 722.143 169.196 722.759 169.196ZM726.929 169.196C727.531 169.196 728.007 168.72 728.007 168.062C728.007 167.39 727.531 166.928 726.929 166.928C726.313 166.928 725.851 167.39 725.851 168.062C725.851 168.72 726.313 169.196 726.929 169.196ZM731.099 169.196C731.701 169.196 732.177 168.72 732.177 168.062C732.177 167.39 731.701 166.928 731.099 166.928C730.483 166.928 730.021 167.39 730.021 168.062C730.021 168.72 730.483 169.196 731.099 169.196ZM735.269 169.196C735.871 169.196 736.347 168.72 736.347 168.062C736.347 167.39 735.871 166.928 735.269 166.928C734.653 166.928 734.191 167.39 734.191 168.062C734.191 168.72 734.653 169.196 735.269 169.196Z" fill="#909399"/>
</g>
</g>
<rect x="702.833" y="0.5" width="134.833" height="191" stroke="#E4E7ED"/>
<g clip-path="url(#clip47_27506_73491)">
<g clip-path="url(#clip48_27506_73491)">
<rect width="135.833" height="48" transform="translate(838.167)" fill="#F2F2F2"/>
<rect x="838.167" y="47" width="136" height="1" fill="#E4E7ED"/>
<g clip-path="url(#clip49_27506_73491)">
<path d="M853.207 22.216V23.532H861.509V22.216H853.207ZM857.631 22.818L856.525 23.056C857.239 26.654 858.541 29.594 860.879 31.148C861.089 30.798 861.537 30.294 861.845 30.042C859.591 28.754 858.261 25.996 857.631 22.818ZM858.499 19.15C859.101 19.92 859.787 20.984 860.095 21.642L861.173 20.984C860.837 20.34 860.109 19.332 859.507 18.59L858.499 19.15ZM856.301 18.212V21.614C856.301 24.218 855.951 27.648 852.745 30.322C853.095 30.546 853.557 30.896 853.809 31.162C857.155 28.362 857.617 24.638 857.617 21.614V18.212H856.301ZM851.471 18.17V31.148H852.787V18.17H851.471ZM848.755 20.606C849.371 21.446 850.113 22.566 850.407 23.28L851.513 22.58C851.191 21.88 850.421 20.788 849.777 19.99L848.755 20.606ZM848.587 27.116L849.301 28.25C850.211 27.466 851.289 26.458 852.255 25.52L851.723 24.456C850.589 25.478 849.371 26.514 848.587 27.116ZM862.895 20.088V21.306H875.481V20.088H862.895ZM868.537 18.1C868.243 21.124 867.739 23.91 862.741 25.17C863.021 25.45 863.343 25.968 863.483 26.29C868.789 24.82 869.559 21.642 869.909 18.1H868.537ZM870.133 20.172L868.915 20.452C869.923 23.392 871.743 25.324 874.809 26.164C874.991 25.8 875.383 25.24 875.691 24.96C872.807 24.302 870.973 22.608 870.133 20.172ZM867.459 24.386C868.271 24.848 869.279 25.576 869.741 26.08L870.945 25.324C870.413 24.806 869.405 24.12 868.593 23.686L867.459 24.386ZM865.891 26.612V29.202C865.891 30.518 866.353 30.882 868.117 30.882C868.495 30.882 870.763 30.882 871.155 30.882C872.597 30.882 873.003 30.42 873.171 28.544C872.807 28.46 872.247 28.264 871.967 28.054C871.883 29.482 871.771 29.692 871.057 29.692C870.525 29.692 868.621 29.692 868.229 29.692C867.361 29.692 867.207 29.622 867.207 29.202V26.612H865.891ZM867.865 26.346C868.635 27.088 869.559 28.11 869.965 28.782L871.057 28.082C870.609 27.424 869.657 26.43 868.887 25.744L867.865 26.346ZM872.597 26.752C873.283 27.956 873.983 29.58 874.221 30.574L875.481 30.126C875.215 29.118 874.473 27.55 873.773 26.388L872.597 26.752ZM864.169 26.57C863.917 27.732 863.441 29.132 862.825 30.056L864.015 30.658C864.617 29.678 865.065 28.152 865.359 26.962L864.169 26.57Z" fill="#909399"/>
</g>
</g>
<g clip-path="url(#clip50_27506_73491)">
<rect width="135.833" height="48" transform="translate(838.167 48)" fill="#F4F4F5"/>
<rect x="838.167" y="95" width="135.833" height="1" fill="#E4E7ED"/>
<g clip-path="url(#clip51_27506_73491)">
<path d="M849.245 62.612V65.048H850.575V63.886H859.689V65.048H861.061V62.612H849.245ZM854.075 61.436C854.327 61.926 854.607 62.598 854.747 63.018L856.175 62.584C856.035 62.178 855.699 61.534 855.447 61.058L854.075 61.436ZM850.099 65.58V72.398H851.373V66.728H858.891V72.328H860.221V65.58H850.099ZM850.911 68.044V69.164H859.549V68.044H850.911ZM850.911 70.508V71.67H859.619V70.508H850.911ZM854.453 64.292V74.162H855.839V64.292H854.453ZM871.813 71.376C872.807 72.174 874.109 73.322 874.725 74.05L875.733 73.182C875.089 72.468 873.759 71.362 872.765 70.606L871.813 71.376ZM873.115 65.23C872.149 67.12 870.049 69.01 867.641 70.06C867.879 70.312 868.229 70.774 868.383 71.068C870.945 69.878 873.115 67.862 874.375 65.65L873.115 65.23ZM874.067 67.806C872.877 70.116 870.217 72.09 866.941 73.084C867.179 73.364 867.557 73.882 867.711 74.19C871.155 73.056 873.885 70.942 875.425 68.296L874.067 67.806ZM867.739 62.99V64.208H875.607V62.99H867.739ZM868.215 67.988C868.215 67.638 869.755 67.19 869.755 67.19C870.385 66.322 871.435 64.586 872.009 63.634H870.609C870.231 64.278 869.195 65.972 868.873 66.322C868.635 66.588 868.187 66.686 867.879 66.756C867.991 67.036 868.173 67.666 868.215 67.988ZM868.215 67.988C868.551 67.848 869.083 67.764 872.555 67.54C872.611 67.274 872.779 66.77 872.933 66.448L868.873 66.658L868.201 67.036L868.215 67.988ZM870.637 61.478C870.959 62.094 871.253 62.92 871.351 63.452L872.667 63.004C872.569 62.486 872.205 61.688 871.869 61.1L870.637 61.478ZM862.881 63.858V65.076H867.459V63.858H862.881ZM864.687 61.184V74.176H865.947V61.184H864.687ZM864.715 64.712C864.337 66.602 863.469 68.94 862.545 70.158C862.769 70.494 863.077 71.096 863.203 71.474C864.183 70.032 865.065 67.274 865.471 64.992L864.715 64.712ZM865.877 65.51L865.275 65.986C865.639 66.616 866.493 68.254 866.801 69.01L867.585 68.1C867.333 67.666 866.199 65.902 865.877 65.51ZM879.401 65.286V66.504H886.863V65.286H879.401ZM876.923 67.876V69.122H889.397V67.876H876.923ZM880.591 68.73C880.451 71.292 880.073 72.482 876.713 73.084C876.965 73.35 877.315 73.868 877.413 74.19C881.179 73.42 881.781 71.81 881.935 68.73H880.591ZM884.133 68.604V72.272C884.133 73.574 884.483 73.98 885.925 73.98C886.219 73.98 887.605 73.98 887.913 73.98C889.117 73.98 889.467 73.462 889.621 71.488C889.257 71.39 888.697 71.18 888.417 70.97C888.361 72.524 888.277 72.762 887.787 72.762C887.465 72.762 886.345 72.762 886.093 72.762C885.547 72.762 885.463 72.692 885.463 72.272V68.604H884.133ZM877.231 62.724V66H878.561V63.998H887.675V66H889.047V62.724H877.231ZM881.949 61.436C882.299 62.08 882.663 62.948 882.803 63.48L884.231 63.046C884.063 62.5 883.671 61.66 883.293 61.044L881.949 61.436ZM893.009 63.088V64.264H896.775V63.088H893.009ZM897.391 61.282V66.056C897.391 67.414 897.783 67.806 899.309 67.806C899.617 67.806 901.269 67.806 901.605 67.806C902.879 67.806 903.243 67.288 903.397 65.426C903.033 65.342 902.501 65.132 902.207 64.922C902.137 66.378 902.039 66.63 901.493 66.63C901.129 66.63 899.757 66.63 899.463 66.63C898.847 66.63 898.735 66.546 898.735 66.056V61.282H897.391ZM902.081 62.15C901.087 62.738 899.449 63.41 897.993 63.872C898.133 64.138 898.329 64.586 898.399 64.866C899.939 64.432 901.703 63.83 903.019 63.2L902.081 62.15ZM896.453 67.918V74.162H897.783V67.918H896.453ZM890.839 69.626V70.83H903.509V69.626H890.839ZM891.987 68.226C892.337 68.016 892.925 67.89 896.929 67.05C896.901 66.77 896.873 66.238 896.901 65.874L892.533 66.714L891.903 67.148L891.987 68.226ZM891.987 68.226C891.987 67.736 893.401 66.868 893.401 66.868V61.324H892.043V65.916C892.043 66.546 891.637 66.924 891.357 67.106C891.581 67.358 891.889 67.904 891.987 68.226Z" fill="#909399"/>
</g>
</g>
<g clip-path="url(#clip52_27506_73491)">
<rect width="135.833" height="48" transform="translate(838.167 96)" fill="white"/>
<rect x="838.167" y="143" width="135.833" height="1" fill="#E4E7ED"/>
<g clip-path="url(#clip53_27506_73491)">
<path d="M849.245 110.612V113.048H850.575V111.886H859.689V113.048H861.061V110.612H849.245ZM854.075 109.436C854.327 109.926 854.607 110.598 854.747 111.018L856.175 110.584C856.035 110.178 855.699 109.534 855.447 109.058L854.075 109.436ZM850.099 113.58V120.398H851.373V114.728H858.891V120.328H860.221V113.58H850.099ZM850.911 116.044V117.164H859.549V116.044H850.911ZM850.911 118.508V119.67H859.619V118.508H850.911ZM854.453 112.292V122.162H855.839V112.292H854.453ZM871.813 119.376C872.807 120.174 874.109 121.322 874.725 122.05L875.733 121.182C875.089 120.468 873.759 119.362 872.765 118.606L871.813 119.376ZM873.115 113.23C872.149 115.12 870.049 117.01 867.641 118.06C867.879 118.312 868.229 118.774 868.383 119.068C870.945 117.878 873.115 115.862 874.375 113.65L873.115 113.23ZM874.067 115.806C872.877 118.116 870.217 120.09 866.941 121.084C867.179 121.364 867.557 121.882 867.711 122.19C871.155 121.056 873.885 118.942 875.425 116.296L874.067 115.806ZM867.739 110.99V112.208H875.607V110.99H867.739ZM868.215 115.988C868.215 115.638 869.755 115.19 869.755 115.19C870.385 114.322 871.435 112.586 872.009 111.634H870.609C870.231 112.278 869.195 113.972 868.873 114.322C868.635 114.588 868.187 114.686 867.879 114.756C867.991 115.036 868.173 115.666 868.215 115.988ZM868.215 115.988C868.551 115.848 869.083 115.764 872.555 115.54C872.611 115.274 872.779 114.77 872.933 114.448L868.873 114.658L868.201 115.036L868.215 115.988ZM870.637 109.478C870.959 110.094 871.253 110.92 871.351 111.452L872.667 111.004C872.569 110.486 872.205 109.688 871.869 109.1L870.637 109.478ZM862.881 111.858V113.076H867.459V111.858H862.881ZM864.687 109.184V122.176H865.947V109.184H864.687ZM864.715 112.712C864.337 114.602 863.469 116.94 862.545 118.158C862.769 118.494 863.077 119.096 863.203 119.474C864.183 118.032 865.065 115.274 865.471 112.992L864.715 112.712ZM865.877 113.51L865.275 113.986C865.639 114.616 866.493 116.254 866.801 117.01L867.585 116.1C867.333 115.666 866.199 113.902 865.877 113.51ZM879.401 113.286V114.504H886.863V113.286H879.401ZM876.923 115.876V117.122H889.397V115.876H876.923ZM880.591 116.73C880.451 119.292 880.073 120.482 876.713 121.084C876.965 121.35 877.315 121.868 877.413 122.19C881.179 121.42 881.781 119.81 881.935 116.73H880.591ZM884.133 116.604V120.272C884.133 121.574 884.483 121.98 885.925 121.98C886.219 121.98 887.605 121.98 887.913 121.98C889.117 121.98 889.467 121.462 889.621 119.488C889.257 119.39 888.697 119.18 888.417 118.97C888.361 120.524 888.277 120.762 887.787 120.762C887.465 120.762 886.345 120.762 886.093 120.762C885.547 120.762 885.463 120.692 885.463 120.272V116.604H884.133ZM877.231 110.724V114H878.561V111.998H887.675V114H889.047V110.724H877.231ZM881.949 109.436C882.299 110.08 882.663 110.948 882.803 111.48L884.231 111.046C884.063 110.5 883.671 109.66 883.293 109.044L881.949 109.436ZM893.009 111.088V112.264H896.775V111.088H893.009ZM897.391 109.282V114.056C897.391 115.414 897.783 115.806 899.309 115.806C899.617 115.806 901.269 115.806 901.605 115.806C902.879 115.806 903.243 115.288 903.397 113.426C903.033 113.342 902.501 113.132 902.207 112.922C902.137 114.378 902.039 114.63 901.493 114.63C901.129 114.63 899.757 114.63 899.463 114.63C898.847 114.63 898.735 114.546 898.735 114.056V109.282H897.391ZM902.081 110.15C901.087 110.738 899.449 111.41 897.993 111.872C898.133 112.138 898.329 112.586 898.399 112.866C899.939 112.432 901.703 111.83 903.019 111.2L902.081 110.15ZM896.453 115.918V122.162H897.783V115.918H896.453ZM890.839 117.626V118.83H903.509V117.626H890.839ZM891.987 116.226C892.337 116.016 892.925 115.89 896.929 115.05C896.901 114.77 896.873 114.238 896.901 113.874L892.533 114.714L891.903 115.148L891.987 116.226ZM891.987 116.226C891.987 115.736 893.401 114.868 893.401 114.868V109.324H892.043V113.916C892.043 114.546 891.637 114.924 891.357 115.106C891.581 115.358 891.889 115.904 891.987 116.226Z" fill="#909399"/>
</g>
</g>
<rect width="135.833" height="48" transform="translate(838.167 144)" fill="white"/>
<g clip-path="url(#clip54_27506_73491)">
<path d="M849.245 158.612V161.048H850.575V159.886H859.689V161.048H861.061V158.612H849.245ZM854.075 157.436C854.327 157.926 854.607 158.598 854.747 159.018L856.175 158.584C856.035 158.178 855.699 157.534 855.447 157.058L854.075 157.436ZM850.099 161.58V168.398H851.373V162.728H858.891V168.328H860.221V161.58H850.099ZM850.911 164.044V165.164H859.549V164.044H850.911ZM850.911 166.508V167.67H859.619V166.508H850.911ZM854.453 160.292V170.162H855.839V160.292H854.453ZM871.813 167.376C872.807 168.174 874.109 169.322 874.725 170.05L875.733 169.182C875.089 168.468 873.759 167.362 872.765 166.606L871.813 167.376ZM873.115 161.23C872.149 163.12 870.049 165.01 867.641 166.06C867.879 166.312 868.229 166.774 868.383 167.068C870.945 165.878 873.115 163.862 874.375 161.65L873.115 161.23ZM874.067 163.806C872.877 166.116 870.217 168.09 866.941 169.084C867.179 169.364 867.557 169.882 867.711 170.19C871.155 169.056 873.885 166.942 875.425 164.296L874.067 163.806ZM867.739 158.99V160.208H875.607V158.99H867.739ZM868.215 163.988C868.215 163.638 869.755 163.19 869.755 163.19C870.385 162.322 871.435 160.586 872.009 159.634H870.609C870.231 160.278 869.195 161.972 868.873 162.322C868.635 162.588 868.187 162.686 867.879 162.756C867.991 163.036 868.173 163.666 868.215 163.988ZM868.215 163.988C868.551 163.848 869.083 163.764 872.555 163.54C872.611 163.274 872.779 162.77 872.933 162.448L868.873 162.658L868.201 163.036L868.215 163.988ZM870.637 157.478C870.959 158.094 871.253 158.92 871.351 159.452L872.667 159.004C872.569 158.486 872.205 157.688 871.869 157.1L870.637 157.478ZM862.881 159.858V161.076H867.459V159.858H862.881ZM864.687 157.184V170.176H865.947V157.184H864.687ZM864.715 160.712C864.337 162.602 863.469 164.94 862.545 166.158C862.769 166.494 863.077 167.096 863.203 167.474C864.183 166.032 865.065 163.274 865.471 160.992L864.715 160.712ZM865.877 161.51L865.275 161.986C865.639 162.616 866.493 164.254 866.801 165.01L867.585 164.1C867.333 163.666 866.199 161.902 865.877 161.51ZM879.401 161.286V162.504H886.863V161.286H879.401ZM876.923 163.876V165.122H889.397V163.876H876.923ZM880.591 164.73C880.451 167.292 880.073 168.482 876.713 169.084C876.965 169.35 877.315 169.868 877.413 170.19C881.179 169.42 881.781 167.81 881.935 164.73H880.591ZM884.133 164.604V168.272C884.133 169.574 884.483 169.98 885.925 169.98C886.219 169.98 887.605 169.98 887.913 169.98C889.117 169.98 889.467 169.462 889.621 167.488C889.257 167.39 888.697 167.18 888.417 166.97C888.361 168.524 888.277 168.762 887.787 168.762C887.465 168.762 886.345 168.762 886.093 168.762C885.547 168.762 885.463 168.692 885.463 168.272V164.604H884.133ZM877.231 158.724V162H878.561V159.998H887.675V162H889.047V158.724H877.231ZM881.949 157.436C882.299 158.08 882.663 158.948 882.803 159.48L884.231 159.046C884.063 158.5 883.671 157.66 883.293 157.044L881.949 157.436ZM893.009 159.088V160.264H896.775V159.088H893.009ZM897.391 157.282V162.056C897.391 163.414 897.783 163.806 899.309 163.806C899.617 163.806 901.269 163.806 901.605 163.806C902.879 163.806 903.243 163.288 903.397 161.426C903.033 161.342 902.501 161.132 902.207 160.922C902.137 162.378 902.039 162.63 901.493 162.63C901.129 162.63 899.757 162.63 899.463 162.63C898.847 162.63 898.735 162.546 898.735 162.056V157.282H897.391ZM902.081 158.15C901.087 158.738 899.449 159.41 897.993 159.872C898.133 160.138 898.329 160.586 898.399 160.866C899.939 160.432 901.703 159.83 903.019 159.2L902.081 158.15ZM896.453 163.918V170.162H897.783V163.918H896.453ZM890.839 165.626V166.83H903.509V165.626H890.839ZM891.987 164.226C892.337 164.016 892.925 163.89 896.929 163.05C896.901 162.77 896.873 162.238 896.901 161.874L892.533 162.714L891.903 163.148L891.987 164.226ZM891.987 164.226C891.987 163.736 893.401 162.868 893.401 162.868V157.324H892.043V161.916C892.043 162.546 891.637 162.924 891.357 163.106C891.581 163.358 891.889 163.904 891.987 164.226Z" fill="#909399"/>
</g>
</g>
<rect x="838.667" y="0.5" width="134.833" height="191" stroke="#E4E7ED"/>
<defs>
<clipPath id="clip0_27506_73491">
<rect width="135.833" height="192" fill="white"/>
</clipPath>
<clipPath id="clip1_27506_73491">
<rect width="135.833" height="48" fill="white"/>
</clipPath>
<clipPath id="clip2_27506_73491">
<rect width="28" height="22" fill="white" transform="translate(10 13)"/>
</clipPath>
<clipPath id="clip3_27506_73491">
<rect width="135.833" height="48" fill="white" transform="translate(0 48)"/>
</clipPath>
<clipPath id="clip4_27506_73491">
<rect width="8" height="22" fill="white" transform="translate(10 61)"/>
</clipPath>
<clipPath id="clip5_27506_73491">
<rect width="135.833" height="48" fill="white" transform="translate(0 96)"/>
</clipPath>
<clipPath id="clip6_27506_73491">
<rect width="8" height="22" fill="white" transform="translate(10 109)"/>
</clipPath>
<clipPath id="clip7_27506_73491">
<rect width="8" height="22" fill="white" transform="translate(10 157)"/>
</clipPath>
<clipPath id="clip8_27506_73491">
<rect x="135.833" width="159" height="192" fill="white"/>
</clipPath>
<clipPath id="clip9_27506_73491">
<rect width="159" height="48" fill="white" transform="translate(135.833)"/>
</clipPath>
<clipPath id="clip10_27506_73491">
<rect width="28" height="22" fill="white" transform="translate(145.833 13)"/>
</clipPath>
<clipPath id="clip11_27506_73491">
<rect width="159" height="48" fill="white" transform="translate(135.833 48)"/>
</clipPath>
<clipPath id="clip12_27506_73491">
<rect width="134" height="22" fill="white" transform="translate(145.833 61)"/>
</clipPath>
<clipPath id="clip13_27506_73491">
<rect width="159" height="48" fill="white" transform="translate(135.833 96)"/>
</clipPath>
<clipPath id="clip14_27506_73491">
<rect width="134" height="22" fill="white" transform="translate(145.833 109)"/>
</clipPath>
<clipPath id="clip15_27506_73491">
<rect width="134" height="22" fill="white" transform="translate(145.833 157)"/>
</clipPath>
<clipPath id="clip16_27506_73491">
<rect x="294.833" width="135.833" height="192" fill="white"/>
</clipPath>
<clipPath id="clip17_27506_73491">
<rect width="135.833" height="48" fill="white" transform="translate(294.833)"/>
</clipPath>
<clipPath id="clip18_27506_73491">
<rect width="42" height="22" fill="white" transform="translate(304.833 13)"/>
</clipPath>
<clipPath id="clip19_27506_73491">
<rect width="135.833" height="48" fill="white" transform="translate(294.833 48)"/>
</clipPath>
<clipPath id="clip20_27506_73491">
<rect width="28" height="22" fill="white" transform="translate(304.833 56)"/>
</clipPath>
<clipPath id="clip21_27506_73491">
<rect width="135.833" height="48" fill="white" transform="translate(294.833 96)"/>
</clipPath>
<clipPath id="clip22_27506_73491">
<rect width="28" height="22" fill="white" transform="translate(304.833 104)"/>
</clipPath>
<clipPath id="clip23_27506_73491">
<rect width="28" height="22" fill="white" transform="translate(304.833 152)"/>
</clipPath>
<clipPath id="clip24_27506_73491">
<rect x="430.667" width="135.833" height="192" fill="white"/>
</clipPath>
<clipPath id="clip25_27506_73491">
<rect width="135.833" height="48" fill="white" transform="translate(430.667)"/>
</clipPath>
<clipPath id="clip26_27506_73491">
<rect width="56" height="22" fill="white" transform="translate(440.667 13)"/>
</clipPath>
<clipPath id="clip27_27506_73491">
<rect width="135.833" height="48" fill="white" transform="translate(430.667 48)"/>
</clipPath>
<clipPath id="clip28_27506_73491">
<rect width="26" height="22" fill="white" transform="translate(440.667 56)"/>
</clipPath>
<clipPath id="clip29_27506_73491">
<rect width="135.833" height="48" fill="white" transform="translate(430.667 96)"/>
</clipPath>
<clipPath id="clip30_27506_73491">
<rect width="26" height="22" fill="white" transform="translate(440.667 104)"/>
</clipPath>
<clipPath id="clip31_27506_73491">
<rect width="26" height="22" fill="white" transform="translate(440.667 152)"/>
</clipPath>
<clipPath id="clip32_27506_73491">
<rect x="566.5" width="135.833" height="192" fill="white"/>
</clipPath>
<clipPath id="clip33_27506_73491">
<rect width="135.833" height="48" fill="white" transform="translate(566.5)"/>
</clipPath>
<clipPath id="clip34_27506_73491">
<rect width="42" height="22" fill="white" transform="translate(576.5 13)"/>
</clipPath>
<clipPath id="clip35_27506_73491">
<rect width="135.833" height="48" fill="white" transform="translate(566.5 48)"/>
</clipPath>
<clipPath id="clip36_27506_73491">
<rect width="135.833" height="48" fill="white" transform="translate(566.5 96)"/>
</clipPath>
<clipPath id="clip37_27506_73491">
<rect width="42" height="22" fill="white" transform="translate(576.5 104)"/>
</clipPath>
<clipPath id="clip38_27506_73491">
<rect width="42" height="22" fill="white" transform="translate(576.5 152)"/>
</clipPath>
<clipPath id="clip39_27506_73491">
<rect x="702.333" width="135.833" height="192" fill="white"/>
</clipPath>
<clipPath id="clip40_27506_73491">
<rect width="135.833" height="48" fill="white" transform="translate(702.333)"/>
</clipPath>
<clipPath id="clip41_27506_73491">
<rect width="56" height="22" fill="white" transform="translate(712.333 13)"/>
</clipPath>
<clipPath id="clip42_27506_73491">
<rect width="135.833" height="48" fill="white" transform="translate(702.333 48)"/>
</clipPath>
<clipPath id="clip43_27506_73491">
<rect width="26" height="22" fill="white" transform="translate(712.333 56)"/>
</clipPath>
<clipPath id="clip44_27506_73491">
<rect width="135.833" height="48" fill="white" transform="translate(702.333 96)"/>
</clipPath>
<clipPath id="clip45_27506_73491">
<rect width="26" height="22" fill="white" transform="translate(712.333 104)"/>
</clipPath>
<clipPath id="clip46_27506_73491">
<rect width="26" height="22" fill="white" transform="translate(712.333 152)"/>
</clipPath>
<clipPath id="clip47_27506_73491">
<rect x="838.167" width="135.833" height="192" fill="white"/>
</clipPath>
<clipPath id="clip48_27506_73491">
<rect width="135.833" height="48" fill="white" transform="translate(838.167)"/>
</clipPath>
<clipPath id="clip49_27506_73491">
<rect width="28" height="22" fill="white" transform="translate(848.167 13)"/>
</clipPath>
<clipPath id="clip50_27506_73491">
<rect width="135.833" height="48" fill="white" transform="translate(838.167 48)"/>
</clipPath>
<clipPath id="clip51_27506_73491">
<rect width="56" height="22" fill="white" transform="translate(848.167 56)"/>
</clipPath>
<clipPath id="clip52_27506_73491">
<rect width="135.833" height="48" fill="white" transform="translate(838.167 96)"/>
</clipPath>
<clipPath id="clip53_27506_73491">
<rect width="56" height="22" fill="white" transform="translate(848.167 104)"/>
</clipPath>
<clipPath id="clip54_27506_73491">
<rect width="56" height="22" fill="white" transform="translate(848.167 152)"/>
</clipPath>
</defs>
</svg>
