<svg width="125" height="125" viewBox="0 0 125 125" fill="none" xmlns="http://www.w3.org/2000/svg">
<rect width="125" height="125" fill="white"/>
<rect x="15" y="15" width="95" height="95" rx="2" fill="#409EFF"/>
<path d="M62.9605 27.5C65.0953 27.5 66.8531 29.0853 67.0804 31.1228C67.0802 31.1212 67.08 31.1196 67.0798 31.118L70.3289 31.119C72.6179 31.119 74.4737 32.9419 74.4737 35.1905V44.6872C73.6002 44.3293 72.6743 44.0702 71.7105 43.924V35.1905C71.7105 34.441 71.0919 33.8333 70.3289 33.8333L66.4071 33.8337C65.6634 34.9247 64.3974 35.6429 62.9605 35.6429H56.5132C55.0763 35.6429 53.8101 34.9246 53.0666 33.8336L49.1447 33.8333C48.3817 33.8333 47.7632 34.441 47.7632 35.1905V59.619C47.7632 60.3686 48.3817 60.9762 49.1447 60.9762H59.2435C59.7726 61.9732 60.4427 62.8865 61.2282 63.6905H49.1447C46.8557 63.6905 45 61.8676 45 59.619V35.1905C45 32.9419 46.8557 31.119 49.1447 31.119L52.3938 31.118C52.6234 29.0828 54.3801 27.5 56.5132 27.5H62.9605ZM67.0957 31.2927L67.1053 31.5714C67.1053 31.4777 67.1021 31.3848 67.0957 31.2927ZM62.9605 30.2143H56.5132C55.7501 30.2143 55.1316 30.8219 55.1316 31.5714C55.1316 32.321 55.7501 32.9286 56.5132 32.9286H62.9605C63.7235 32.9286 64.3421 32.321 64.3421 31.5714C64.3421 30.8219 63.7235 30.2143 62.9605 30.2143ZM80 55.5476C80 61.0442 75.464 65.5 69.8684 65.5C64.2728 65.5 59.7368 61.0442 59.7368 55.5476C59.7368 50.051 64.2728 45.5952 69.8684 45.5952C75.464 45.5952 80 50.051 80 55.5476ZM76.0461 51.2887C75.6863 50.9355 75.1031 50.9355 74.7434 51.2887L68.0263 57.8872L64.9935 54.9078C64.6337 54.5546 64.0505 54.5546 63.6907 54.9078C63.3312 55.2612 63.3312 55.8341 63.6907 56.1875L67.3749 59.8065C67.7347 60.1597 68.3179 60.1597 68.6777 59.8065L76.0461 52.5684C76.4057 52.215 76.4057 51.6421 76.0461 51.2887Z" fill="white"/>
<path d="M51.23 87.096C50.502 87.782 49.102 88.398 47.884 88.748C48.136 88.944 48.444 89.266 48.612 89.518C49.928 89.084 51.342 88.384 52.21 87.502L51.23 87.096ZM52.574 88.468C51.636 89.434 49.802 90.19 48.038 90.568C48.276 90.806 48.542 91.17 48.696 91.422C50.6 90.918 52.462 90.064 53.554 88.874L52.574 88.468ZM53.764 89.994C52.532 91.394 50.012 92.22 47.296 92.612C47.548 92.892 47.842 93.34 47.968 93.662C50.894 93.13 53.47 92.164 54.898 90.47L53.764 89.994ZM49.34 80.67C48.794 82.154 47.814 83.568 46.708 84.464C47.002 84.646 47.492 85.024 47.702 85.248C48.822 84.226 49.9 82.644 50.558 80.978L49.34 80.67ZM49.41 82.168L48.766 83.246H53.512V82.168H49.41ZM49.186 82.812L48.36 83.386C49.27 85.08 51.314 86.886 54.422 87.614C54.59 87.292 54.912 86.802 55.164 86.55C52.056 85.99 50.026 84.38 49.186 82.812ZM45.742 84.632V91.408H46.848V84.632H45.742ZM44.65 80.754C44.006 82.868 42.928 84.982 41.738 86.34C41.962 86.69 42.298 87.418 42.41 87.74C43.81 86.088 45.084 83.54 45.882 81.104L44.65 80.754ZM43.502 84.352V93.676H44.762V83.162L44.72 83.134L43.502 84.352ZM53.344 82.168V82.364C52.364 84.73 49.62 86.144 46.736 86.69C46.96 86.942 47.24 87.404 47.366 87.698C50.474 86.97 53.344 85.444 54.548 82.49L53.778 82.112L53.568 82.168H53.344ZM56.956 81.748C57.712 82.462 58.678 83.456 59.126 84.086L60.064 83.148C59.602 82.532 58.594 81.58 57.852 80.908L56.956 81.748ZM56.158 85.052V86.326H59.378V85.052H56.158ZM61.128 81.818V83.148H68.982V81.818H61.128ZM65.174 82.266V91.856C65.174 92.108 65.076 92.192 64.796 92.206C64.502 92.22 63.48 92.234 62.5 92.178C62.724 92.556 62.976 93.214 63.046 93.62C64.362 93.62 65.258 93.578 65.832 93.354C66.392 93.116 66.574 92.696 66.574 91.87V82.266H65.174ZM58.272 93.396C58.524 93.088 59 92.752 62.024 90.666C61.884 90.4 61.716 89.84 61.646 89.462L58.37 91.604L58.006 92.108L58.272 93.396ZM58.272 93.396C58.272 92.906 59.672 92.024 59.672 92.024V85.052H58.398V91.002C58.398 91.632 57.922 92.08 57.628 92.262C57.852 92.528 58.174 93.074 58.272 93.396ZM70.928 81.832V82.966H82.156V81.832H70.928ZM71.628 83.96V85.024H81.568V83.96H71.628ZM70.354 86.074V87.208H82.618V86.074H70.354ZM75.786 80.684V86.984H77.13V80.684H75.786ZM75.562 86.368C74.372 87.782 71.992 89.154 69.906 89.812C70.186 90.078 70.578 90.568 70.774 90.89C72.916 90.106 75.31 88.58 76.71 86.9L75.562 86.368ZM77.466 86.718L76.276 87.026C77.34 90.078 79.23 92.276 82.212 93.27C82.408 92.92 82.8 92.402 83.094 92.122C80.266 91.31 78.362 89.336 77.466 86.718ZM81.246 87.628C80.518 88.342 79.272 89.266 78.348 89.84L79.202 90.54C80.154 90.022 81.358 89.196 82.338 88.426L81.246 87.628ZM72.916 93.676C73.28 93.438 73.854 93.256 77.802 92.024C77.732 91.744 77.62 91.212 77.592 90.848L73.378 92.066L72.79 92.542L72.916 93.676ZM72.916 93.676C72.916 93.242 74.344 92.486 74.344 92.486V88.692H72.972V91.478C72.972 92.066 72.622 92.346 72.356 92.486C72.566 92.766 72.832 93.354 72.916 93.676Z" fill="white"/>
<rect x="97" y="4" width="20" height="20" rx="10" fill="#67C23A"/>
<path d="M104.728 19H109.552V18.088H107.776V10.204H106.936C106.468 10.492 105.904 10.696 105.112 10.828V11.536H106.684V18.088H104.728V19Z" fill="white"/>
</svg>
