<svg width="450" height="286" viewBox="0 0 450 286" fill="none" xmlns="http://www.w3.org/2000/svg">
<rect x="0.5" y="0.5" width="449" height="285" fill="white"/>
<g clip-path="url(#clip0_30280_72985)">
<rect width="100" height="48" transform="translate(75 34)" fill="#F2F2F2"/>
<rect x="75" y="81" width="100" height="1" fill="#E4E7ED"/>
<g clip-path="url(#clip1_30280_72985)">
<path d="M86.078 53.612V56.048H87.408V54.886H96.522V56.048H97.894V53.612H86.078ZM90.908 52.436C91.16 52.926 91.44 53.598 91.58 54.018L93.008 53.584C92.868 53.178 92.532 52.534 92.28 52.058L90.908 52.436ZM86.932 56.58V63.398H88.206V57.728H95.724V63.328H97.054V56.58H86.932ZM87.744 59.044V60.164H96.382V59.044H87.744ZM87.744 61.508V62.67H96.452V61.508H87.744ZM91.286 55.292V65.162H92.672V55.292H91.286ZM108.646 62.376C109.64 63.174 110.942 64.322 111.558 65.05L112.566 64.182C111.922 63.468 110.592 62.362 109.598 61.606L108.646 62.376ZM109.948 56.23C108.982 58.12 106.882 60.01 104.474 61.06C104.712 61.312 105.062 61.774 105.216 62.068C107.778 60.878 109.948 58.862 111.208 56.65L109.948 56.23ZM110.9 58.806C109.71 61.116 107.05 63.09 103.774 64.084C104.012 64.364 104.39 64.882 104.544 65.19C107.988 64.056 110.718 61.942 112.258 59.296L110.9 58.806ZM104.572 53.99V55.208H112.44V53.99H104.572ZM105.048 58.988C105.048 58.638 106.588 58.19 106.588 58.19C107.218 57.322 108.268 55.586 108.842 54.634H107.442C107.064 55.278 106.028 56.972 105.706 57.322C105.468 57.588 105.02 57.686 104.712 57.756C104.824 58.036 105.006 58.666 105.048 58.988ZM105.048 58.988C105.384 58.848 105.916 58.764 109.388 58.54C109.444 58.274 109.612 57.77 109.766 57.448L105.706 57.658L105.034 58.036L105.048 58.988ZM107.47 52.478C107.792 53.094 108.086 53.92 108.184 54.452L109.5 54.004C109.402 53.486 109.038 52.688 108.702 52.1L107.47 52.478ZM99.714 54.858V56.076H104.292V54.858H99.714ZM101.52 52.184V65.176H102.78V52.184H101.52ZM101.548 55.712C101.17 57.602 100.302 59.94 99.378 61.158C99.602 61.494 99.91 62.096 100.036 62.474C101.016 61.032 101.898 58.274 102.304 55.992L101.548 55.712ZM102.71 56.51L102.108 56.986C102.472 57.616 103.326 59.254 103.634 60.01L104.418 59.1C104.166 58.666 103.032 56.902 102.71 56.51ZM113.896 61.522C113.896 61.256 114.778 60.85 114.778 60.85V60.822C116.192 59.492 117.634 57.644 118.796 55.796L117.606 55.04C116.626 56.916 115.086 58.848 114.582 59.338C114.12 59.842 113.798 60.164 113.448 60.234C113.602 60.598 113.826 61.242 113.896 61.522ZM113.896 61.522C114.26 61.326 114.82 61.186 118.684 60.486C118.642 60.206 118.6 59.688 118.614 59.338L114.47 59.996L113.826 60.43L113.896 61.522ZM113.784 58.078C113.784 57.812 114.638 57.378 114.638 57.378V57.336C115.604 56.16 116.626 54.438 117.354 52.786L115.996 52.226C115.45 53.836 114.47 55.516 114.162 55.964C113.854 56.398 113.602 56.706 113.322 56.776C113.49 57.14 113.714 57.798 113.784 58.078ZM113.784 58.078C114.064 57.952 114.54 57.854 117.214 57.574C117.214 57.308 117.27 56.804 117.34 56.482L114.372 56.72L113.756 57.112L113.784 58.078ZM113.434 63.146L113.644 64.504C115.086 64.182 116.99 63.804 118.782 63.398L118.67 62.166C116.766 62.544 114.764 62.922 113.434 63.146ZM118.726 53.99V55.264H126.272V53.99H118.726ZM119.09 57.168V58.428H125.992V57.168H119.09ZM120.154 63.37V64.574H124.998V63.37H120.154ZM121.834 52.17V57.812H123.206V52.17H121.834ZM119.44 59.688V65.176H120.728V60.878H124.34V65.12H125.684V59.688H119.44ZM127.812 59.59V60.808H140.202V59.59H127.812ZM133.314 53.29V65.176H134.714V53.29H133.314ZM132.894 60.15C131.746 61.62 129.492 63.006 127.42 63.664C127.714 63.944 128.12 64.434 128.33 64.756C130.43 63.972 132.684 62.404 134 60.626L132.894 60.15ZM135.022 60.08L133.986 60.556C135.33 62.278 137.626 63.874 139.684 64.686C139.88 64.35 140.286 63.846 140.58 63.566C138.536 62.908 136.212 61.522 135.022 60.08ZM130.542 56.216H137.472V57.434H130.542V56.216ZM130.542 53.976H137.472V55.166H130.542V53.976ZM129.17 52.856V58.554H138.914V52.856H129.17Z" fill="#909399"/>
</g>
<rect width="100" height="48" transform="translate(75 82)" fill="white"/>
<rect x="75" y="129" width="100" height="1" fill="#E4E7ED"/>
<path d="M159.667 98.6665L155 103.333L150.334 98.6665" stroke="#C0C4CC"/>
</g>
<rect x="75.5" y="34.5" width="99" height="95" stroke="#E4E7ED"/>
<g clip-path="url(#clip2_30280_72985)">
<rect width="200" height="48" transform="translate(175 34)" fill="#F2F2F2"/>
<rect x="175" y="81" width="200" height="1" fill="#E4E7ED"/>
<g clip-path="url(#clip3_30280_72985)">
<path d="M186.078 53.612V56.048H187.408V54.886H196.522V56.048H197.894V53.612H186.078ZM190.908 52.436C191.16 52.926 191.44 53.598 191.58 54.018L193.008 53.584C192.868 53.178 192.532 52.534 192.28 52.058L190.908 52.436ZM186.932 56.58V63.398H188.206V57.728H195.724V63.328H197.054V56.58H186.932ZM187.744 59.044V60.164H196.382V59.044H187.744ZM187.744 61.508V62.67H196.452V61.508H187.744ZM191.286 55.292V65.162H192.672V55.292H191.286ZM208.646 62.376C209.64 63.174 210.942 64.322 211.558 65.05L212.566 64.182C211.922 63.468 210.592 62.362 209.598 61.606L208.646 62.376ZM209.948 56.23C208.982 58.12 206.882 60.01 204.474 61.06C204.712 61.312 205.062 61.774 205.216 62.068C207.778 60.878 209.948 58.862 211.208 56.65L209.948 56.23ZM210.9 58.806C209.71 61.116 207.05 63.09 203.774 64.084C204.012 64.364 204.39 64.882 204.544 65.19C207.988 64.056 210.718 61.942 212.258 59.296L210.9 58.806ZM204.572 53.99V55.208H212.44V53.99H204.572ZM205.048 58.988C205.048 58.638 206.588 58.19 206.588 58.19C207.218 57.322 208.268 55.586 208.842 54.634H207.442C207.064 55.278 206.028 56.972 205.706 57.322C205.468 57.588 205.02 57.686 204.712 57.756C204.824 58.036 205.006 58.666 205.048 58.988ZM205.048 58.988C205.384 58.848 205.916 58.764 209.388 58.54C209.444 58.274 209.612 57.77 209.766 57.448L205.706 57.658L205.034 58.036L205.048 58.988ZM207.47 52.478C207.792 53.094 208.086 53.92 208.184 54.452L209.5 54.004C209.402 53.486 209.038 52.688 208.702 52.1L207.47 52.478ZM199.714 54.858V56.076H204.292V54.858H199.714ZM201.52 52.184V65.176H202.78V52.184H201.52ZM201.548 55.712C201.17 57.602 200.302 59.94 199.378 61.158C199.602 61.494 199.91 62.096 200.036 62.474C201.016 61.032 201.898 58.274 202.304 55.992L201.548 55.712ZM202.71 56.51L202.108 56.986C202.472 57.616 203.326 59.254 203.634 60.01L204.418 59.1C204.166 58.666 203.032 56.902 202.71 56.51ZM218.012 54.116V55.32H226.37V54.116H218.012ZM219.818 52.184V57.042H221.092V52.184H219.818ZM223.332 52.184V57.042H224.606V52.184H223.332ZM218.572 57.588V65.134H219.776V58.75H224.634V65.064H225.894V57.588H218.572ZM219.244 60.416V61.564H225.208V60.416H219.244ZM219.272 63.272V64.434H225.236V63.272H219.272ZM221.582 58.134V64.112H222.786V58.134H221.582ZM213.336 59.478L213.658 60.766C214.862 60.402 216.402 59.926 217.844 59.464L217.676 58.26C216.094 58.722 214.442 59.212 213.336 59.478ZM213.546 54.942V56.16H217.76V54.942H213.546ZM215.142 52.198V63.58C215.142 63.776 215.072 63.832 214.904 63.832C214.736 63.846 214.218 63.846 213.644 63.832C213.812 64.182 213.966 64.728 214.008 65.05C214.904 65.05 215.478 65.008 215.842 64.798C216.234 64.602 216.36 64.252 216.36 63.594V52.198H215.142ZM231.466 54.83V56.076H240.188V54.83H231.466ZM237.038 53.01C237.612 53.542 238.34 54.298 238.676 54.774L239.726 54.088C239.362 53.612 238.606 52.898 238.046 52.394L237.038 53.01ZM235.176 52.324V62.978H236.506V52.324H235.176ZM230.794 57.196H227.602V58.428H229.52V62.796H230.794V57.196ZM227.812 53.388C228.554 54.2 229.464 55.32 229.856 56.034L230.976 55.32C230.542 54.606 229.604 53.542 228.862 52.772L227.812 53.388ZM230.234 62.236C229.464 62.236 228.442 62.936 227.462 63.86L228.288 64.994C228.988 64.168 229.716 63.384 230.22 63.384C230.556 63.384 231.004 63.79 231.62 64.112C232.628 64.658 233.832 64.812 235.498 64.812C236.842 64.812 239.194 64.728 240.16 64.658C240.188 64.308 240.384 63.678 240.524 63.342C239.166 63.51 237.066 63.622 235.54 63.622C234.042 63.622 232.796 63.524 231.872 63.034C231.074 62.614 230.724 62.236 230.234 62.236ZM234.798 55.306C234.098 57.546 232.712 59.884 231.214 61.074C231.494 61.298 231.928 61.76 232.138 62.068C233.692 60.668 235.078 58.162 235.876 55.6L234.798 55.306ZM235.526 56.454C236.94 57.98 238.592 60.108 239.292 61.452L240.328 60.696C239.586 59.338 237.864 57.294 236.464 55.81L235.526 56.454Z" fill="#909399"/>
</g>
<rect x="175" y="129" width="200" height="1" fill="#E4E7ED"/>
</g>
<rect x="175.5" y="34.5" width="199" height="95" stroke="#E4E7ED"/>
<path d="M85.812 161.274V162.45H98.202V161.274H85.812ZM92.056 163.794V164.942H97.292V163.794H92.056ZM91.454 161.848V167.098H92.798V161.848H91.454ZM88.962 164.102L87.87 164.48C88.99 167.35 90.894 167.938 94.156 167.938H98.062C98.132 167.546 98.342 166.958 98.538 166.664C97.684 166.692 94.856 166.692 94.212 166.692C91.594 166.678 89.774 166.286 88.962 164.102ZM88.094 162.842C87.744 164.816 86.862 166.356 85.406 167.28C85.7 167.476 86.218 167.966 86.414 168.204C87.954 167.098 88.962 165.348 89.41 163.024L88.094 162.842ZM88.486 158.544H95.402V159.496H88.486V158.544ZM88.486 156.696H95.402V157.634H88.486V156.696ZM87.212 155.716V160.462H96.746V155.716H87.212ZM102.15 166.412V167.574H109.836V166.412H102.15ZM101.394 162.786V168.176H102.752V163.934H109.276V168.162H110.718V162.786H101.394ZM99.882 155.94V157.186H112.104V155.94H99.882ZM106.476 156.402C104.964 158.376 102.178 159.944 99.392 160.798C99.686 161.078 100.134 161.694 100.33 162.002C103.116 160.952 106.028 159.23 107.792 156.976L106.476 156.402ZM107.106 159.272C108.66 159.93 110.55 161.036 111.558 161.834L112.51 160.84C111.474 160.084 109.612 159.02 108.058 158.39L107.106 159.272ZM105.3 158.656V162.38H106.644V157.34L106.63 157.326L105.3 158.656ZM113.896 155.632V156.556H126.118V155.632H113.896ZM117.704 156.038V159.23H118.894V156.038H117.704ZM120.952 156.038V159.23H122.184V156.038H120.952ZM115.758 157.956H124.27V158.684H115.758V157.956ZM114.554 157.13V159.51H125.53V157.13H114.554ZM119.244 160.182V161.078H125.908V160.182H119.244ZM119.832 163.262H124.032V163.752H119.832V163.262ZM119.832 162.156H124.032V162.632H119.832V162.156ZM118.726 161.512V164.41H125.18V161.512H118.726ZM116.122 159.58C115.59 160.378 114.498 161.302 113.504 161.848C113.742 162.044 114.092 162.436 114.288 162.674C115.366 162.03 116.542 160.98 117.27 159.972L116.122 159.58ZM116.458 161.512C115.856 162.548 114.61 163.766 113.434 164.494C113.658 164.69 113.994 165.096 114.162 165.334C115.45 164.494 116.766 163.15 117.578 161.89L116.458 161.512ZM119.202 159.454C118.74 160.49 117.942 161.484 117.046 162.142C117.312 162.324 117.774 162.73 117.97 162.926C118.88 162.156 119.79 160.98 120.336 159.762L119.202 159.454ZM120.448 164.886L119.832 165.67H124.466V164.886H120.448ZM124.074 164.886V165.04C122.926 166.496 120.07 167.112 117.186 167.322C117.368 167.546 117.564 167.924 117.662 168.204C120.798 167.896 123.808 167.168 125.222 165.236L124.508 164.844L124.298 164.886H124.074ZM119.874 165.46L118.978 165.796C120.378 167.154 123.052 167.896 125.894 168.12C126.02 167.854 126.286 167.448 126.51 167.224C123.752 167.07 121.106 166.51 119.874 165.46ZM120.714 163.962C120.028 164.718 118.684 165.404 117.27 165.852C117.48 166.02 117.816 166.37 117.97 166.58C119.468 166.062 120.868 165.306 121.722 164.284L120.714 163.962ZM115.268 163.402V168.176H116.444V162.688L116.08 162.59L115.268 163.402ZM127.602 166.636V167.798H140.384V166.636H127.602ZM128.512 157.004V158.054H139.432V157.004H128.512ZM127.924 161.176V162.226H140.09V161.176H127.924ZM129.24 159.062V160.084H138.788V159.062H129.24ZM129.1 163.136V167.196H130.332V164.242H131.956V167.196H133.174V164.242H134.798V167.196H136.016V164.242H137.668V167.196H138.956V163.136H129.1ZM130.374 155.548C130.752 156.066 131.144 156.794 131.298 157.27L132.53 156.794C132.362 156.332 131.956 155.66 131.55 155.156L130.374 155.548ZM136.38 155.156C136.142 155.8 135.68 156.696 135.316 157.284L136.422 157.62C136.814 157.074 137.276 156.29 137.71 155.492L136.38 155.156ZM133.3 157.522V161.792H134.658V157.522H133.3ZM142.946 158.586V165.404C142.946 167.322 143.702 167.784 146.166 167.784C146.74 167.784 150.562 167.784 151.178 167.784C153.6 167.784 154.118 167.028 154.412 164.41C154.02 164.34 153.432 164.116 153.068 163.878C152.872 166.048 152.648 166.482 151.15 166.482C150.254 166.482 146.866 166.482 146.124 166.482C144.584 166.482 144.304 166.3 144.304 165.418V158.586H142.946ZM143.702 160.714V162.03H151.738V160.714H143.702ZM142.288 156.024V157.34H151.234V162.702H152.606V156.024H142.288ZM160.264 156.402V157.466H168.146V156.402H160.264ZM164.716 166.3C165.668 166.832 166.914 167.658 167.516 168.19L168.384 167.28C167.754 166.748 166.48 165.978 165.528 165.474L164.716 166.3ZM162.546 165.474C161.846 166.076 160.488 166.832 159.424 167.266C159.69 167.518 160.054 167.91 160.25 168.176C161.328 167.7 162.714 166.944 163.624 166.244L162.546 165.474ZM159.774 164.452V165.586H168.51V164.452H159.774ZM161.496 159.944V160.686H166.844V159.944H161.496ZM161.482 161.4V162.156H166.928V161.4H161.482ZM161.51 162.898V163.668H166.746V162.898H161.51ZM160.95 158.292V164.774H162.112V159.188H166.102V164.774H167.306V158.292H160.95ZM163.498 155.212C163.386 156.318 163.12 157.914 162.882 158.908L163.974 159.034C164.282 158.082 164.646 156.57 164.898 155.268L163.498 155.212ZM155.532 158.502V159.762H159.816V158.502H155.532ZM157.03 155.366V164.676H158.29V155.366H157.03ZM155.392 164.998L155.882 166.328C157.058 165.866 158.514 165.264 159.9 164.69L159.69 163.514C158.108 164.088 156.47 164.676 155.392 164.998ZM175.23 161.106C176.574 162.352 178.31 164.102 179.108 165.18L180.2 164.326C179.332 163.248 177.568 161.568 176.224 160.392L175.23 161.106ZM175.328 155.184V158.194C175.328 160.084 175.118 162.674 171.828 164.41C172.136 164.648 172.584 165.124 172.78 165.404C176.21 163.388 176.686 160.476 176.686 158.194V155.184H175.328ZM170.316 157.55V168.204H171.632V158.852H180.984V157.55H170.316ZM180.396 157.55V166.552C180.396 166.79 180.312 166.874 180.046 166.888C179.766 166.888 178.828 166.902 177.904 166.86C178.086 167.21 178.296 167.812 178.352 168.19C179.598 168.19 180.48 168.176 181.012 167.966C181.53 167.742 181.712 167.35 181.712 166.566V157.55H180.396ZM187.55 158.11C186.794 159.104 185.506 160.042 184.246 160.644C184.526 160.882 184.974 161.414 185.17 161.666C186.458 160.938 187.886 159.762 188.796 158.516L187.55 158.11ZM191.05 158.88C192.31 159.664 193.864 160.84 194.606 161.624L195.558 160.756C194.774 159.972 193.178 158.852 191.946 158.124L191.05 158.88ZM186.024 163.43V168.19H187.298V164.606H192.66V168.148H194.004V163.43H186.024ZM186.71 166.58V167.756H193.29V166.58H186.71ZM184.078 156.402V159.16H185.38V157.606H194.564V159.16H195.908V156.402H184.078ZM188.936 155.366C189.23 155.926 189.552 156.654 189.664 157.116L191.106 156.78C190.966 156.304 190.63 155.59 190.308 155.058L188.936 155.366ZM189.832 159.356C188.516 161.47 186.052 163.15 183.462 164.074C183.77 164.354 184.106 164.816 184.302 165.138C187.018 164.032 189.496 162.212 190.98 159.86L189.832 159.356ZM190.42 159.86L189.356 160.364C191.176 162.59 193.192 163.864 195.656 164.97C195.824 164.578 196.188 164.144 196.496 163.864C194.102 162.954 192.058 161.806 190.42 159.86ZM200.5 160.308C201.13 160.308 201.676 159.832 201.676 159.146C201.676 158.446 201.13 157.97 200.5 157.97C199.856 157.97 199.324 158.446 199.324 159.146C199.324 159.832 199.856 160.308 200.5 160.308ZM200.5 167.084C201.13 167.084 201.676 166.608 201.676 165.922C201.676 165.222 201.13 164.746 200.5 164.746C199.856 164.746 199.324 165.222 199.324 165.922C199.324 166.608 199.856 167.084 200.5 167.084Z" fill="black"/>
<rect x="220" y="154" width="14" height="14" rx="2" fill="#409EFF"/>
<path d="M225.75 162.417L231.166 157L232 157.833L225.75 164.083L222 160.333L222.833 159.5L225.75 162.417Z" fill="white"/>
<rect width="68" height="40" transform="translate(152 202)" fill="#409EFF"/>
<path d="M175.626 221.322H172.616V222.582H174.296V226.768H175.626V221.322ZM172.896 217.304C173.554 218.018 174.436 219.012 174.856 219.6L175.976 218.816C175.528 218.228 174.604 217.29 173.96 216.618L172.896 217.304ZM178.104 219.684V220.874H183.578V219.684H178.104ZM177.334 217.164V220.258C177.334 221.966 177.194 224.29 175.864 225.914C176.172 226.054 176.746 226.432 176.984 226.67C178.412 224.892 178.65 222.19 178.65 220.272V217.164H177.334ZM183.382 219.684V219.908C182.654 222.834 180.526 224.934 178.034 225.802C178.3 226.068 178.636 226.558 178.776 226.88C181.562 225.774 183.802 223.548 184.684 219.922L183.872 219.642L183.634 219.684H183.382ZM184.082 216.366C182.514 216.8 179.728 217.066 177.334 217.164C177.488 217.472 177.656 218.004 177.712 218.326C180.19 218.256 183.144 217.976 185.188 217.416L184.082 216.366ZM178.776 222.316C180.47 223.702 182.724 225.662 183.802 226.866L184.824 225.928C183.676 224.766 181.338 222.876 179.7 221.546L178.776 222.316ZM174.884 226.222C174.212 226.222 173.274 226.838 172.364 227.79L173.274 229.05C173.82 228.266 174.422 227.412 174.842 227.412C175.178 227.412 175.654 227.846 176.312 228.182C177.348 228.7 178.594 228.868 180.316 228.868C181.744 228.868 184.138 228.77 185.132 228.7C185.16 228.322 185.37 227.664 185.538 227.314C184.124 227.496 181.94 227.608 180.358 227.608C178.79 227.608 177.502 227.524 176.564 227.034C175.738 226.614 175.374 226.222 174.884 226.222ZM191.418 221.182H194.414V224.052H191.418V221.182ZM190.172 220.006V225.214H195.744V220.006H190.172ZM187.078 216.716V229.176H188.45V218.06H197.494V229.176H198.922V216.716H187.078ZM187.848 227.174V228.42H198.306V227.174H187.848Z" fill="white"/>
<rect width="68" height="40" transform="translate(230 202)" fill="#409EFF"/>
<path d="M257.014 224.682V225.816H262.39V224.682H257.014ZM257.056 222.232V223.268H262.376V222.232H257.056ZM257.056 219.782V220.902H262.376V219.782H257.056ZM258.932 220.342V228.63H260.094V220.342H258.932ZM261.774 219.782V227.72C261.774 227.874 261.732 227.93 261.578 227.93C261.424 227.944 260.934 227.944 260.43 227.916C260.57 228.252 260.696 228.742 260.738 229.064C261.564 229.064 262.166 229.064 262.544 228.868C262.936 228.672 263.034 228.336 263.034 227.734V219.782H261.774ZM256.16 219.782V223.408C256.16 225.004 256.02 227.048 254.704 228.49C254.998 228.63 255.53 228.994 255.74 229.204C257.154 227.636 257.378 225.214 257.378 223.408V219.782H256.16ZM257.574 216.156C257 217.808 255.978 219.362 254.802 220.37C255.026 220.608 255.418 221.126 255.558 221.378C256.874 220.202 258.022 218.382 258.722 216.45L257.574 216.156ZM257.728 217.346L257.182 218.438H260.948V217.346H257.728ZM260.598 217.346V217.584C260.318 218.256 259.688 219.278 259.156 219.88C259.422 220.034 259.814 220.286 260.038 220.468C260.668 219.796 261.466 218.732 261.942 217.864L261.088 217.304L260.892 217.346H260.598ZM250.714 216.884V218.088H255.53V216.884H250.714ZM252.142 221.21V222.386H254.018V226.278H252.142V227.44H255.138V221.21H252.142ZM252.408 217.486C252.058 219.726 251.442 221.84 250.406 223.226C250.602 223.604 250.882 224.402 250.952 224.738C252.296 223.03 253.122 220.398 253.612 217.752L252.408 217.486ZM251.61 221.21V228.532H252.73V221.21H251.61ZM272.582 216.226C272.554 220.874 272.652 225.69 269.11 228.21C269.474 228.448 269.894 228.854 270.118 229.176C273.828 226.39 273.884 221.21 273.926 216.226H272.582ZM273.8 220.356L272.624 220.454C272.876 222.008 273.422 226.894 276.656 229.176C276.88 228.84 277.258 228.448 277.622 228.196C274.514 226.124 273.968 221.7 273.8 220.356ZM265.834 217.234C266.534 217.892 267.528 218.83 267.99 219.376L268.914 218.424C268.424 217.892 267.416 217.024 266.716 216.408L265.834 217.234ZM266.744 228.756C266.968 228.476 267.374 228.14 270.048 226.236C269.922 225.984 269.74 225.466 269.656 225.116L266.814 227.062L266.478 227.538L266.744 228.756ZM264.602 220.552V221.826H267.766V220.552H264.602ZM266.744 228.756C266.744 228.266 268.13 227.202 268.13 227.202V220.552H266.842V226.376C266.842 227.076 266.352 227.594 266.044 227.818C266.268 228.028 266.632 228.49 266.744 228.756Z" fill="white"/>
<rect x="0.5" y="0.5" width="449" height="285" stroke="black"/>
<defs>
<clipPath id="clip0_30280_72985">
<rect x="75" y="34" width="100" height="96" fill="white"/>
</clipPath>
<clipPath id="clip1_30280_72985">
<rect width="56" height="22" fill="white" transform="translate(85 47)"/>
</clipPath>
<clipPath id="clip2_30280_72985">
<rect x="175" y="34" width="200" height="96" fill="white"/>
</clipPath>
<clipPath id="clip3_30280_72985">
<rect width="56" height="22" fill="white" transform="translate(185 47)"/>
</clipPath>
</defs>
</svg>
