<svg width="1800" height="528" viewBox="0 0 1800 528" fill="none" xmlns="http://www.w3.org/2000/svg">
<rect width="1800" height="528" fill="white"/>
<g clip-path="url(#clip0_27347_63245)">
<rect width="100" height="48" fill="#F2F2F2"/>
<rect y="47" width="100" height="1" fill="#E4E7ED"/>
<g clip-path="url(#clip1_27347_63245)">
<path d="M12.87 26.43V27.592H21.27V26.43H12.87ZM12.73 23.308V24.484H21.326V23.308H12.73ZM11.064 29.636V30.826H23.006V29.636H11.064ZM16.3 23.812V30.294H17.686V23.812H16.3ZM16.804 18.044C15.404 20.256 12.842 22.202 10.294 23.322C10.63 23.616 11.022 24.064 11.218 24.414C13.836 23.112 16.384 21.026 17.98 18.59L16.804 18.044ZM17.364 18.534L16.258 19.08C18.232 21.516 20.332 23.084 22.824 24.47C23.006 24.092 23.398 23.63 23.734 23.35C21.298 22.16 19.142 20.676 17.364 18.534ZM28.452 23.042V24.204H37.356V23.042H28.452ZM30.104 20.046V21.18H36.768V20.046H30.104ZM32.358 18.254V23.518H33.674V18.254H32.358ZM30.09 18.618C29.754 19.85 29.166 21.082 28.41 21.88C28.718 22.034 29.264 22.384 29.516 22.58C30.258 21.684 30.958 20.298 31.35 18.884L30.09 18.618ZM33.422 23.686V27.116C33.422 28.362 33.688 28.754 34.864 28.754C35.088 28.754 35.858 28.754 36.096 28.754C37.048 28.754 37.384 28.292 37.51 26.472C37.146 26.374 36.6 26.178 36.348 25.954C36.306 27.34 36.25 27.522 35.956 27.522C35.802 27.522 35.186 27.522 35.074 27.522C34.766 27.522 34.738 27.48 34.738 27.102V23.686H33.422ZM30.944 23.686C30.762 25.576 30.342 26.99 28.116 27.788C28.41 28.04 28.774 28.53 28.928 28.866C31.462 27.844 32.05 26.052 32.274 23.686H30.944ZM24.742 19.36C25.54 20.046 26.478 21.026 26.884 21.712L27.976 20.886C27.528 20.214 26.562 19.276 25.75 18.632L24.742 19.36ZM27.64 23.574H24.714V24.806H26.366V28.936H27.64V23.574ZM27.514 28.418C26.674 28.418 25.568 29.16 24.546 30.098L25.428 31.246C26.198 30.364 26.968 29.608 27.486 29.608C27.794 29.608 28.228 30.014 28.788 30.364C29.712 30.896 30.86 31.05 32.498 31.05C33.87 31.05 36.124 30.98 37.188 30.91C37.202 30.546 37.412 29.888 37.552 29.538C36.18 29.706 34.038 29.818 32.526 29.818C31.056 29.818 29.866 29.734 28.984 29.202C28.284 28.782 27.948 28.418 27.514 28.418Z" fill="#909399"/>
</g>
<rect x="50.5" y="17.5" width="13" height="13" rx="1.5" stroke="#DCDFE6"/>
<rect y="95" width="100" height="1" fill="#E4E7ED"/>
<rect y="143" width="100" height="1" fill="#E4E7ED"/>
<rect y="191" width="100" height="1" fill="#E4E7ED"/>
<rect y="239" width="100" height="1" fill="#E4E7ED"/>
<rect y="287" width="100" height="1" fill="#E4E7ED"/>
<rect y="335" width="100" height="1" fill="#E4E7ED"/>
<rect y="383" width="100" height="1" fill="#E4E7ED"/>
<rect y="431" width="100" height="1" fill="#E4E7ED"/>
<rect y="479" width="100" height="1" fill="#E4E7ED"/>
<rect y="527" width="100" height="1" fill="#E4E7ED"/>
</g>
<rect x="0.5" y="0.5" width="99" height="527" stroke="#E4E7ED"/>
<g clip-path="url(#clip2_27347_63245)">
<rect width="100" height="48" transform="translate(100)" fill="#F2F2F2"/>
<rect x="100" y="47" width="100" height="1" fill="#E4E7ED"/>
<g clip-path="url(#clip3_27347_63245)">
<path d="M114.088 21.782V22.846H121.06V21.782H114.088ZM113.346 25.324V26.458H122.348V25.324H113.346ZM117.476 25.772V29.734C117.476 29.93 117.406 29.972 117.126 29.986C116.874 30 115.894 30 114.942 29.972C115.124 30.322 115.334 30.826 115.39 31.19C116.636 31.19 117.504 31.204 118.064 31.008C118.638 30.826 118.806 30.476 118.806 29.762V25.772H117.476ZM121.942 25.324V25.506C121.466 26.36 120.766 27.382 120.192 28.026L121.256 28.53C121.928 27.802 122.67 26.668 123.328 25.646L122.376 25.254L122.166 25.324H121.942ZM120.654 21.782V22.034C120.052 22.762 118.778 23.784 117.672 24.33C117.882 24.512 118.218 24.862 118.386 25.086C119.73 24.442 121.158 23.378 122.138 22.37L121.284 21.712L120.99 21.782H120.654ZM112.254 19.696V20.928H123.342V19.696H112.254ZM111.61 19.696V23.56C111.61 25.604 111.512 28.488 110.35 30.49C110.658 30.63 111.232 31.008 111.47 31.232C112.702 29.076 112.898 25.786 112.898 23.56V19.696H111.61ZM115.18 24.078C116.496 24.652 118.246 25.52 119.114 26.08L119.954 25.212C119.03 24.666 117.252 23.84 115.978 23.322L115.18 24.078ZM116.51 18.464C116.79 19.052 117.14 19.85 117.294 20.326L118.666 19.892C118.484 19.43 118.12 18.66 117.812 18.1L116.51 18.464ZM127.822 19.892H134.08V21.53H127.822V19.892ZM126.506 18.73V22.692H135.48V18.73H126.506ZM124.812 23.784V24.988H137.118V23.784H124.812ZM127.486 26.332V27.536H134.5V26.332H127.486ZM134.094 26.332V26.514C133.828 28.558 133.534 29.524 133.142 29.818C132.974 29.93 132.792 29.944 132.47 29.944C132.064 29.944 131.042 29.93 130.076 29.846C130.314 30.196 130.51 30.728 130.538 31.106C131.504 31.162 132.428 31.162 132.932 31.134C133.52 31.106 133.912 31.022 134.29 30.686C134.794 30.224 135.144 29.174 135.452 26.906C135.48 26.724 135.522 26.332 135.522 26.332H134.094ZM127.808 24.274C127.5 25.338 127.052 26.668 126.674 27.536H128.2C128.494 26.752 128.928 25.506 129.222 24.47L127.808 24.274Z" fill="#909399"/>
</g>
<rect x="100" y="95" width="100" height="1" fill="#E4E7ED"/>
<rect x="100" y="143" width="100" height="1" fill="#E4E7ED"/>
<rect x="100" y="191" width="100" height="1" fill="#E4E7ED"/>
<rect x="100" y="239" width="100" height="1" fill="#E4E7ED"/>
<rect x="100" y="287" width="100" height="1" fill="#E4E7ED"/>
<rect x="100" y="335" width="100" height="1" fill="#E4E7ED"/>
<rect x="100" y="383" width="100" height="1" fill="#E4E7ED"/>
<rect x="100" y="431" width="100" height="1" fill="#E4E7ED"/>
<rect x="100" y="479" width="100" height="1" fill="#E4E7ED"/>
<rect x="100" y="527" width="100" height="1" fill="#E4E7ED"/>
</g>
<rect x="100.5" y="0.5" width="99" height="527" stroke="#E4E7ED"/>
<g clip-path="url(#clip4_27347_63245)">
<rect width="100" height="48" transform="translate(200)" fill="#F2F2F2"/>
<rect x="200" y="47" width="100" height="1" fill="#E4E7ED"/>
<g clip-path="url(#clip5_27347_63245)">
<path d="M216.202 20.466V21.628H223.356V20.466H216.202ZM218.12 22.874V24.036H221.354V22.874H218.12ZM217.322 22.874V25.87C217.322 27.326 217.168 29.202 215.838 30.532C216.146 30.672 216.664 31.036 216.874 31.246C218.302 29.804 218.554 27.564 218.554 25.884V22.874H217.322ZM220.654 22.874V29.258C220.654 30.252 220.724 30.518 220.934 30.742C221.158 30.952 221.466 31.036 221.76 31.036C221.928 31.036 222.222 31.036 222.404 31.036C222.67 31.036 222.936 30.994 223.118 30.854C223.3 30.714 223.412 30.504 223.496 30.21C223.552 29.902 223.608 29.09 223.622 28.432C223.328 28.334 222.992 28.152 222.768 27.956C222.768 28.67 222.754 29.216 222.726 29.468C222.698 29.692 222.656 29.818 222.614 29.874C222.572 29.916 222.474 29.93 222.39 29.93C222.306 29.93 222.18 29.93 222.124 29.93C222.04 29.93 221.984 29.916 221.942 29.874C221.9 29.818 221.886 29.622 221.886 29.286V22.874H220.654ZM211.96 19.85V20.914H215.026V19.85H211.96ZM214.732 19.85V29.748C214.732 29.916 214.676 29.972 214.508 29.972C214.34 29.972 213.85 29.986 213.304 29.958C213.458 30.266 213.626 30.784 213.668 31.106C214.508 31.106 215.04 31.078 215.418 30.868C215.782 30.672 215.894 30.336 215.894 29.762V19.85H214.732ZM211.442 19.85V25.142C211.442 26.892 211.358 29.118 210.406 30.658C210.686 30.77 211.204 31.092 211.414 31.302C212.45 29.65 212.604 27.06 212.604 25.128V19.85H211.442ZM212.758 21.754C213.052 22.384 213.388 23.21 213.528 23.742L214.382 23.378C214.228 22.86 213.878 22.062 213.584 21.446L212.758 21.754ZM213.108 18.114C213.01 18.73 212.8 19.612 212.618 20.2L213.654 20.452C213.878 19.92 214.172 19.108 214.438 18.352L213.108 18.114ZM210.49 24.218V25.296H215.586V24.218H210.49ZM212.73 26.066C213.08 26.738 213.486 27.62 213.654 28.194L214.522 27.802C214.312 27.256 213.892 26.388 213.528 25.73L212.73 26.066ZM218.33 18.408C218.652 19.066 219.044 19.976 219.212 20.55L220.514 20.13C220.318 19.57 219.926 18.702 219.576 18.044L218.33 18.408ZM225.106 27.536C225.106 27.284 225.96 26.892 225.96 26.892V26.864C227.304 25.506 228.676 23.63 229.754 21.754L228.676 21.082C227.71 22.986 226.254 24.932 225.778 25.436C225.344 25.954 225.022 26.29 224.686 26.346C224.84 26.682 225.036 27.284 225.106 27.536ZM225.106 27.536C225.428 27.354 225.946 27.2 229.418 26.514C229.39 26.248 229.404 25.744 229.432 25.408L225.624 26.066L225.036 26.486L225.106 27.536ZM225.008 24.148C225.008 23.896 225.764 23.49 225.764 23.49V23.448C226.744 22.23 227.766 20.48 228.48 18.814L227.248 18.226C226.702 19.864 225.708 21.614 225.4 22.062C225.092 22.524 224.854 22.832 224.588 22.902C224.728 23.252 224.952 23.882 225.008 24.148ZM225.008 24.148C225.26 24.022 225.694 23.924 228.032 23.644C228.032 23.392 228.074 22.916 228.144 22.58L225.568 22.804L224.98 23.196L225.008 24.148ZM224.714 29.146L224.98 30.406C226.31 29.986 228.004 29.44 229.614 28.922L229.418 27.816C227.682 28.334 225.876 28.852 224.714 29.146ZM230.048 21.488L230.258 22.692L236.894 21.656L236.67 20.494L230.048 21.488ZM229.754 24.512L229.978 25.702L237.272 24.33L237.048 23.168L229.754 24.512ZM232.092 18.156C232.134 24.764 233.072 31.162 235.9 31.162C236.936 31.162 237.314 30.7 237.538 29.062C237.244 28.922 236.852 28.642 236.586 28.348C236.516 29.538 236.39 29.874 236.054 29.874C234.43 29.874 233.338 24.302 233.408 18.156H232.092ZM233.87 19.094C234.514 19.458 235.34 20.018 235.774 20.396L236.558 19.598C236.124 19.234 235.27 18.702 234.64 18.394L233.87 19.094ZM236.264 25.114C234.864 27.326 232.204 28.992 229.292 29.86C229.6 30.168 229.936 30.63 230.104 30.966C233.128 29.902 235.802 28.082 237.37 25.618L236.264 25.114Z" fill="#909399"/>
</g>
<rect x="200" y="95" width="100" height="1" fill="#E4E7ED"/>
<rect x="200" y="143" width="100" height="1" fill="#E4E7ED"/>
<rect x="200" y="191" width="100" height="1" fill="#E4E7ED"/>
<rect x="200" y="239" width="100" height="1" fill="#E4E7ED"/>
<rect x="200" y="287" width="100" height="1" fill="#E4E7ED"/>
<rect x="200" y="335" width="100" height="1" fill="#E4E7ED"/>
<rect x="200" y="383" width="100" height="1" fill="#E4E7ED"/>
<rect x="200" y="431" width="100" height="1" fill="#E4E7ED"/>
<rect x="200" y="479" width="100" height="1" fill="#E4E7ED"/>
<rect x="200" y="527" width="100" height="1" fill="#E4E7ED"/>
</g>
<rect x="200.5" y="0.5" width="99" height="527" stroke="#E4E7ED"/>
<g clip-path="url(#clip6_27347_63245)">
<rect width="100" height="48" transform="translate(300)" fill="#F2F2F2"/>
<rect x="300" y="47" width="100" height="1" fill="#E4E7ED"/>
<g clip-path="url(#clip7_27347_63245)">
<path d="M318.456 26.206C319.618 27.732 321.018 29.832 321.676 31.134L322.992 30.42C322.292 29.132 320.906 27.144 319.702 25.632L318.456 26.206ZM314.368 18.562C313.57 20.62 312.184 22.622 310.63 23.826C310.98 24.05 311.596 24.526 311.862 24.778C313.374 23.406 314.872 21.25 315.796 18.954L314.368 18.562ZM319.464 18.45L318.162 18.982C319.24 21.068 320.976 23.378 322.432 24.778C322.684 24.428 323.188 23.91 323.538 23.644C322.11 22.454 320.36 20.298 319.464 18.45ZM312.184 30.364C312.184 30.07 313.192 29.608 313.192 29.608V29.566C314.802 27.9 316.468 25.506 317.798 23.042L316.328 22.412C315.25 24.75 313.542 27.186 312.968 27.816C312.45 28.46 312.086 28.852 311.68 28.964C311.862 29.356 312.114 30.07 312.184 30.364ZM312.184 30.364C312.786 30.126 313.64 30.07 320.892 29.538C320.794 29.23 320.654 28.67 320.598 28.264L313.038 28.74L312.156 29.244L312.184 30.364ZM325.176 19.066V20.326H335.676V19.066H325.176ZM325.288 21.6V22.762H333.66V21.6H325.288ZM335.172 19.066V29.356C335.172 29.622 335.088 29.692 334.836 29.692C334.542 29.706 333.604 29.72 332.708 29.678C332.904 30.07 333.1 30.728 333.156 31.12C334.416 31.12 335.298 31.092 335.83 30.868C336.376 30.63 336.53 30.196 336.53 29.37V19.066H335.172ZM326.1 24.064V29.706H327.388V24.064H326.1ZM327.206 24.064V25.226H331.49V27.522H327.206V28.67H332.792V24.064H327.206ZM342.312 29.286V30.504H349.032V29.286H342.312ZM342.732 19.584V20.788H348.962V19.584H342.732ZM343.53 18.128C342.704 19.458 341.122 20.956 338.826 22.006C339.134 22.23 339.554 22.72 339.75 23.042C342.186 21.796 343.866 20.172 345.028 18.436L343.53 18.128ZM348.5 19.584V19.794C346.89 23.028 342.62 25.24 338.532 26.08C338.784 26.374 339.092 26.934 339.218 27.298C343.53 26.29 347.954 23.938 349.886 20.046L348.99 19.514L348.766 19.584H348.5ZM341.514 22.762C342.438 23.434 343.614 24.428 344.174 25.058L345.266 24.204C344.664 23.56 343.446 22.636 342.536 22.006L341.514 22.762ZM348.584 25.114V31.176H349.942V25.114H348.584ZM342.76 25.114H342.466L341.43 26.136V31.176H342.76V26.332H348.934V25.114H342.76ZM354.73 19.36V31.19H355.948V19.36H354.73ZM352.686 22.174V23.42H357.656V22.174H352.686ZM354.814 22.664C354.352 24.33 353.33 26.444 352.364 27.564C352.574 27.858 352.868 28.376 352.994 28.712C354.016 27.396 355.038 24.946 355.57 22.986L354.814 22.664ZM357.04 18.296C355.99 18.758 354.254 19.164 352.756 19.416C352.896 19.71 353.064 20.158 353.12 20.438C354.66 20.228 356.494 19.864 357.796 19.346L357.04 18.296ZM355.892 23.798L355.346 24.316C355.752 24.848 356.69 26.22 357.012 26.85L357.754 25.8C357.488 25.45 356.242 24.106 355.892 23.798ZM359.364 18.226C359.014 20.088 358.356 21.936 357.432 23.098C357.74 23.266 358.3 23.602 358.552 23.798C359.448 22.524 360.19 20.522 360.624 18.464L359.364 18.226ZM358.972 23.728C358.678 25.436 358.146 27.172 357.376 28.264C357.67 28.418 358.216 28.74 358.44 28.936C359.224 27.732 359.84 25.842 360.204 23.952L358.972 23.728ZM359.406 19.99L359 21.222H364.67V19.99H359.406ZM360.988 20.9V29.65C360.988 29.846 360.932 29.888 360.75 29.902C360.554 29.902 359.938 29.902 359.322 29.888C359.504 30.224 359.714 30.784 359.784 31.134C360.666 31.134 361.31 31.092 361.73 30.896C362.164 30.686 362.304 30.336 362.304 29.664V20.9H360.988ZM362.892 23.924C363.48 25.464 364.04 27.494 364.222 28.824L365.44 28.432C365.23 27.102 364.67 25.128 364.04 23.574L362.892 23.924ZM364.306 19.99V20.13C364.082 20.746 363.62 21.824 363.2 22.664L364.362 22.958C364.74 22.104 365.16 21.082 365.496 20.158L364.656 19.934L364.46 19.99H364.306Z" fill="#909399"/>
</g>
<rect x="300" y="95" width="100" height="1" fill="#E4E7ED"/>
<rect x="300" y="143" width="100" height="1" fill="#E4E7ED"/>
<rect x="300" y="191" width="100" height="1" fill="#E4E7ED"/>
<rect x="300" y="239" width="100" height="1" fill="#E4E7ED"/>
<rect x="300" y="287" width="100" height="1" fill="#E4E7ED"/>
<rect x="300" y="335" width="100" height="1" fill="#E4E7ED"/>
<rect x="300" y="383" width="100" height="1" fill="#E4E7ED"/>
<rect x="300" y="431" width="100" height="1" fill="#E4E7ED"/>
<rect x="300" y="479" width="100" height="1" fill="#E4E7ED"/>
<rect x="300" y="527" width="100" height="1" fill="#E4E7ED"/>
</g>
<rect x="300.5" y="0.5" width="99" height="527" stroke="#E4E7ED"/>
<g clip-path="url(#clip8_27347_63245)">
<rect width="100" height="48" transform="translate(400)" fill="#F2F2F2"/>
<rect x="400" y="47" width="100" height="1" fill="#E4E7ED"/>
<g clip-path="url(#clip9_27347_63245)">
<path d="M417.784 29.37V30.574H422.166V29.37H417.784ZM417.336 25.156V31.204H418.554V26.374H421.466V31.148H422.726V25.156H417.336ZM418.386 18.94V20.102H421.424V18.94H418.386ZM417.882 18.94V20.97C417.882 21.95 417.714 23.07 416.342 23.896C416.58 24.05 417.056 24.484 417.224 24.708C418.75 23.756 419.058 22.258 419.058 20.998V18.94H417.882ZM420.878 18.94V22.846C420.878 23.98 421.088 24.428 422.166 24.428C422.32 24.428 422.67 24.428 422.838 24.428C423.076 24.428 423.328 24.414 423.496 24.358C423.468 24.078 423.426 23.616 423.412 23.308C423.258 23.364 422.978 23.378 422.824 23.378C422.698 23.378 422.376 23.378 422.25 23.378C422.096 23.378 422.068 23.266 422.068 22.86V18.94H420.878ZM411.96 19.906V20.956H415.376V19.906H411.96ZM415.096 19.906V29.706C415.096 29.874 415.026 29.93 414.886 29.93C414.718 29.944 414.214 29.944 413.668 29.93C413.836 30.224 414.004 30.742 414.032 31.064C414.872 31.064 415.404 31.036 415.782 30.84C416.146 30.63 416.258 30.308 416.258 29.72V19.906H415.096ZM411.456 19.906V25.156C411.456 26.906 411.372 29.118 410.42 30.644C410.7 30.77 411.204 31.106 411.414 31.302C412.45 29.664 412.604 27.06 412.604 25.156V19.906H411.456ZM413.024 21.754C413.332 22.37 413.64 23.196 413.78 23.742L414.662 23.364C414.522 22.846 414.186 22.034 413.85 21.432L413.024 21.754ZM413.318 18.156C413.234 18.772 413.024 19.654 412.842 20.242L413.864 20.494C414.102 19.962 414.396 19.15 414.662 18.394L413.318 18.156ZM410.518 24.204V25.31H415.768V24.204H410.518ZM412.982 26.066C413.36 26.724 413.766 27.606 413.92 28.194L414.788 27.788C414.606 27.242 414.2 26.374 413.794 25.716L412.982 26.066ZM428.312 29.286V30.504H435.032V29.286H428.312ZM428.732 19.584V20.788H434.962V19.584H428.732ZM429.53 18.128C428.704 19.458 427.122 20.956 424.826 22.006C425.134 22.23 425.554 22.72 425.75 23.042C428.186 21.796 429.866 20.172 431.028 18.436L429.53 18.128ZM434.5 19.584V19.794C432.89 23.028 428.62 25.24 424.532 26.08C424.784 26.374 425.092 26.934 425.218 27.298C429.53 26.29 433.954 23.938 435.886 20.046L434.99 19.514L434.766 19.584H434.5ZM427.514 22.762C428.438 23.434 429.614 24.428 430.174 25.058L431.266 24.204C430.664 23.56 429.446 22.636 428.536 22.006L427.514 22.762ZM434.584 25.114V31.176H435.942V25.114H434.584ZM428.76 25.114H428.466L427.43 26.136V31.176H428.76V26.332H434.934V25.114H428.76Z" fill="#909399"/>
</g>
<rect x="400" y="95" width="100" height="1" fill="#E4E7ED"/>
<rect x="400" y="143" width="100" height="1" fill="#E4E7ED"/>
<rect x="400" y="191" width="100" height="1" fill="#E4E7ED"/>
<rect x="400" y="239" width="100" height="1" fill="#E4E7ED"/>
<rect x="400" y="287" width="100" height="1" fill="#E4E7ED"/>
<rect x="400" y="335" width="100" height="1" fill="#E4E7ED"/>
<rect x="400" y="383" width="100" height="1" fill="#E4E7ED"/>
<rect x="400" y="431" width="100" height="1" fill="#E4E7ED"/>
<rect x="400" y="479" width="100" height="1" fill="#E4E7ED"/>
<rect x="400" y="527" width="100" height="1" fill="#E4E7ED"/>
</g>
<rect x="400.5" y="0.5" width="99" height="527" stroke="#E4E7ED"/>
<g clip-path="url(#clip10_27347_63245)">
<rect width="100" height="48" transform="translate(500)" fill="#F2F2F2"/>
<rect x="500" y="47" width="100" height="1" fill="#E4E7ED"/>
<g clip-path="url(#clip11_27347_63245)">
<path d="M516.202 20.466V21.628H523.356V20.466H516.202ZM518.12 22.874V24.036H521.354V22.874H518.12ZM517.322 22.874V25.87C517.322 27.326 517.168 29.202 515.838 30.532C516.146 30.672 516.664 31.036 516.874 31.246C518.302 29.804 518.554 27.564 518.554 25.884V22.874H517.322ZM520.654 22.874V29.258C520.654 30.252 520.724 30.518 520.934 30.742C521.158 30.952 521.466 31.036 521.76 31.036C521.928 31.036 522.222 31.036 522.404 31.036C522.67 31.036 522.936 30.994 523.118 30.854C523.3 30.714 523.412 30.504 523.496 30.21C523.552 29.902 523.608 29.09 523.622 28.432C523.328 28.334 522.992 28.152 522.768 27.956C522.768 28.67 522.754 29.216 522.726 29.468C522.698 29.692 522.656 29.818 522.614 29.874C522.572 29.916 522.474 29.93 522.39 29.93C522.306 29.93 522.18 29.93 522.124 29.93C522.04 29.93 521.984 29.916 521.942 29.874C521.9 29.818 521.886 29.622 521.886 29.286V22.874H520.654ZM511.96 19.85V20.914H515.026V19.85H511.96ZM514.732 19.85V29.748C514.732 29.916 514.676 29.972 514.508 29.972C514.34 29.972 513.85 29.986 513.304 29.958C513.458 30.266 513.626 30.784 513.668 31.106C514.508 31.106 515.04 31.078 515.418 30.868C515.782 30.672 515.894 30.336 515.894 29.762V19.85H514.732ZM511.442 19.85V25.142C511.442 26.892 511.358 29.118 510.406 30.658C510.686 30.77 511.204 31.092 511.414 31.302C512.45 29.65 512.604 27.06 512.604 25.128V19.85H511.442ZM512.758 21.754C513.052 22.384 513.388 23.21 513.528 23.742L514.382 23.378C514.228 22.86 513.878 22.062 513.584 21.446L512.758 21.754ZM513.108 18.114C513.01 18.73 512.8 19.612 512.618 20.2L513.654 20.452C513.878 19.92 514.172 19.108 514.438 18.352L513.108 18.114ZM510.49 24.218V25.296H515.586V24.218H510.49ZM512.73 26.066C513.08 26.738 513.486 27.62 513.654 28.194L514.522 27.802C514.312 27.256 513.892 26.388 513.528 25.73L512.73 26.066ZM518.33 18.408C518.652 19.066 519.044 19.976 519.212 20.55L520.514 20.13C520.318 19.57 519.926 18.702 519.576 18.044L518.33 18.408ZM530.244 18.184C529.81 20.452 528.998 22.65 527.878 24.008C528.228 24.162 528.9 24.54 529.18 24.736C530.258 23.252 531.14 20.9 531.672 18.45L530.244 18.184ZM530.3 20.48L529.684 21.796H536.152V20.48H530.3ZM535.732 20.48V20.802C535.536 21.936 534.99 23.462 534.57 24.344C534.878 24.47 535.41 24.736 535.69 24.89C536.194 23.882 536.81 22.384 537.16 20.956L536.194 20.41L535.928 20.48H535.732ZM524.686 20.102C525.652 20.648 526.87 21.502 527.444 22.09L528.284 21.012C527.682 20.424 526.436 19.64 525.484 19.136L524.686 20.102ZM524.49 28.922L525.722 29.832C526.59 28.53 527.584 26.934 528.396 25.478L527.36 24.596C526.45 26.164 525.302 27.9 524.49 28.922ZM533.086 23.63L531.938 23.812C532.624 27.34 533.898 29.902 536.656 31.092C536.838 30.728 537.244 30.168 537.538 29.916C534.962 28.964 533.66 26.64 533.086 23.63ZM531.84 22.37V23.238C531.84 25.17 531.504 28.208 527.36 30.224C527.696 30.462 528.172 30.952 528.382 31.274C532.834 29.006 533.254 25.52 533.254 23.266V22.37H531.84Z" fill="#909399"/>
</g>
<rect x="500" y="95" width="100" height="1" fill="#E4E7ED"/>
<rect x="500" y="143" width="100" height="1" fill="#E4E7ED"/>
<rect x="500" y="191" width="100" height="1" fill="#E4E7ED"/>
<rect x="500" y="239" width="100" height="1" fill="#E4E7ED"/>
<rect x="500" y="287" width="100" height="1" fill="#E4E7ED"/>
<rect x="500" y="335" width="100" height="1" fill="#E4E7ED"/>
<rect x="500" y="383" width="100" height="1" fill="#E4E7ED"/>
<rect x="500" y="431" width="100" height="1" fill="#E4E7ED"/>
<rect x="500" y="479" width="100" height="1" fill="#E4E7ED"/>
<rect x="500" y="527" width="100" height="1" fill="#E4E7ED"/>
</g>
<rect x="500.5" y="0.5" width="99" height="527" stroke="#E4E7ED"/>
<g clip-path="url(#clip12_27347_63245)">
<rect width="100" height="48" transform="translate(600)" fill="#F2F2F2"/>
<rect x="600" y="47" width="100" height="1" fill="#E4E7ED"/>
<g clip-path="url(#clip13_27347_63245)">
<path d="M616.93 21.432H621.214V22.356H616.93V21.432ZM616.93 19.612H621.214V20.536H616.93V19.612ZM615.712 18.632V23.336H622.488V18.632H615.712ZM615.054 24.19V25.282H623.23V24.19H615.054ZM618.442 24.764V29.944L619.688 30.476V24.764H618.442ZM616.818 27.298L616.02 27.578C616.888 30.476 618.498 30.98 620.822 30.98H623.272C623.314 30.644 623.482 30.084 623.65 29.804C623.104 29.832 621.27 29.832 620.864 29.832C619.016 29.832 617.532 29.51 616.818 27.298ZM619.324 26.738V27.802H622.516V26.738H619.324ZM615.936 25.842C615.726 27.844 615.11 29.412 613.892 30.378C614.172 30.56 614.676 30.966 614.872 31.176C616.132 30.042 616.846 28.278 617.14 25.982L615.936 25.842ZM610.364 25.478L610.672 26.766C611.89 26.402 613.444 25.912 614.9 25.45L614.718 24.246C613.122 24.722 611.47 25.212 610.364 25.478ZM610.504 20.942V22.16H614.858V20.942H610.504ZM612.142 18.198V29.58C612.142 29.776 612.086 29.832 611.918 29.832C611.75 29.846 611.232 29.846 610.658 29.832C610.826 30.182 610.98 30.728 611.022 31.05C611.904 31.05 612.492 31.008 612.856 30.798C613.248 30.602 613.374 30.252 613.374 29.594V18.198H612.142ZM630.272 21.222V31.162H631.644V21.222H630.272ZM627.29 23.98H634.766V25.254H627.29V23.98ZM627.29 21.698H634.766V22.958H627.29V21.698ZM626.002 20.592V26.36H636.124V20.592H626.002ZM624.714 27.508V28.74H637.314V27.508H624.714ZM627.178 18.772C627.724 19.416 628.326 20.326 628.592 20.886L629.796 20.312C629.516 19.724 628.858 18.87 628.312 18.24L627.178 18.772ZM633.758 18.268C633.422 19.052 632.792 20.13 632.274 20.816L633.436 21.236C633.954 20.606 634.64 19.626 635.214 18.716L633.758 18.268ZM641.822 19.892H648.08V21.53H641.822V19.892ZM640.506 18.73V22.692H649.48V18.73H640.506ZM638.812 23.784V24.988H651.118V23.784H638.812ZM641.486 26.332V27.536H648.5V26.332H641.486ZM648.094 26.332V26.514C647.828 28.558 647.534 29.524 647.142 29.818C646.974 29.93 646.792 29.944 646.47 29.944C646.064 29.944 645.042 29.93 644.076 29.846C644.314 30.196 644.51 30.728 644.538 31.106C645.504 31.162 646.428 31.162 646.932 31.134C647.52 31.106 647.912 31.022 648.29 30.686C648.794 30.224 649.144 29.174 649.452 26.906C649.48 26.724 649.522 26.332 649.522 26.332H648.094ZM641.808 24.274C641.5 25.338 641.052 26.668 640.674 27.536H642.2C642.494 26.752 642.928 25.506 643.222 24.47L641.808 24.274Z" fill="#909399"/>
</g>
<rect x="600" y="95" width="100" height="1" fill="#E4E7ED"/>
<rect x="600" y="143" width="100" height="1" fill="#E4E7ED"/>
<rect x="600" y="191" width="100" height="1" fill="#E4E7ED"/>
<rect x="600" y="239" width="100" height="1" fill="#E4E7ED"/>
<rect x="600" y="287" width="100" height="1" fill="#E4E7ED"/>
<rect x="600" y="335" width="100" height="1" fill="#E4E7ED"/>
<rect x="600" y="383" width="100" height="1" fill="#E4E7ED"/>
<rect x="600" y="431" width="100" height="1" fill="#E4E7ED"/>
<rect x="600" y="479" width="100" height="1" fill="#E4E7ED"/>
<rect x="600" y="527" width="100" height="1" fill="#E4E7ED"/>
</g>
<rect x="600.5" y="0.5" width="99" height="527" stroke="#E4E7ED"/>
<g clip-path="url(#clip14_27347_63245)">
<rect width="100" height="48" transform="translate(700)" fill="#F2F2F2"/>
<rect x="700" y="47" width="100" height="1" fill="#E4E7ED"/>
<g clip-path="url(#clip15_27347_63245)">
<path d="M717.476 28.754C719.31 29.384 721.158 30.308 722.264 31.106L723.076 30.07C721.928 29.3 719.954 28.39 718.106 27.788L717.476 28.754ZM715.88 18.464C716.244 19.066 716.636 19.892 716.79 20.396L718.176 19.948C718.008 19.43 717.588 18.646 717.21 18.058L715.88 18.464ZM711.176 19.654V22.664H712.492V20.9H721.466V22.664H722.852V19.654H711.176ZM716.916 21.558C716.776 26.22 716.608 28.824 711.092 30C711.372 30.294 711.708 30.798 711.848 31.148C717.728 29.762 718.134 26.654 718.302 21.558H716.916ZM710.966 26.318V27.438H723.104V26.318H710.966ZM713.304 22.286C714.046 22.72 714.942 23.406 715.348 23.882L716.174 22.93C715.74 22.44 714.83 21.824 714.088 21.432L713.304 22.286ZM711.89 24.428C712.66 24.848 713.598 25.52 714.032 26.01L714.83 25.016C714.368 24.54 713.43 23.924 712.66 23.546L711.89 24.428ZM725.078 18.772V31.176H726.338V19.962H728.592V18.772H725.078ZM728.284 18.772V19.136C728.018 20.06 727.514 21.768 727.038 23.014C728.004 24.078 728.214 25.016 728.214 25.744C728.214 26.164 728.13 26.528 727.934 26.668C727.822 26.738 727.668 26.78 727.5 26.78C727.304 26.808 727.052 26.794 726.744 26.766C726.954 27.102 727.08 27.592 727.08 27.914C727.416 27.928 727.78 27.928 728.06 27.9C728.382 27.858 728.648 27.76 728.872 27.62C729.32 27.312 729.502 26.696 729.502 25.884C729.502 25.03 729.278 24.022 728.298 22.874C728.746 21.782 729.264 20.382 729.684 19.22L728.732 18.716L728.522 18.772H728.284ZM730.482 19.164V20.41H736.628V19.164H730.482ZM729.866 22.51V23.756H737.398V22.51H729.866ZM732.75 23.126V29.58C732.75 29.748 732.694 29.804 732.498 29.804C732.302 29.804 731.686 29.818 731.028 29.79C731.21 30.196 731.378 30.77 731.42 31.162C732.386 31.162 733.058 31.134 733.506 30.91C733.982 30.686 734.094 30.294 734.094 29.594V23.126H732.75ZM734.822 25.52C735.466 26.934 736.068 28.782 736.264 29.902L737.468 29.468C737.258 28.334 736.6 26.542 735.942 25.156L734.822 25.52ZM730.678 25.198C730.314 26.668 729.712 28.18 728.956 29.174C729.25 29.314 729.768 29.664 730.006 29.86C730.748 28.782 731.462 27.102 731.868 25.478L730.678 25.198ZM745.784 29.37V30.574H750.166V29.37H745.784ZM745.336 25.156V31.204H746.554V26.374H749.466V31.148H750.726V25.156H745.336ZM746.386 18.94V20.102H749.424V18.94H746.386ZM745.882 18.94V20.97C745.882 21.95 745.714 23.07 744.342 23.896C744.58 24.05 745.056 24.484 745.224 24.708C746.75 23.756 747.058 22.258 747.058 20.998V18.94H745.882ZM748.878 18.94V22.846C748.878 23.98 749.088 24.428 750.166 24.428C750.32 24.428 750.67 24.428 750.838 24.428C751.076 24.428 751.328 24.414 751.496 24.358C751.468 24.078 751.426 23.616 751.412 23.308C751.258 23.364 750.978 23.378 750.824 23.378C750.698 23.378 750.376 23.378 750.25 23.378C750.096 23.378 750.068 23.266 750.068 22.86V18.94H748.878ZM739.96 19.906V20.956H743.376V19.906H739.96ZM743.096 19.906V29.706C743.096 29.874 743.026 29.93 742.886 29.93C742.718 29.944 742.214 29.944 741.668 29.93C741.836 30.224 742.004 30.742 742.032 31.064C742.872 31.064 743.404 31.036 743.782 30.84C744.146 30.63 744.258 30.308 744.258 29.72V19.906H743.096ZM739.456 19.906V25.156C739.456 26.906 739.372 29.118 738.42 30.644C738.7 30.77 739.204 31.106 739.414 31.302C740.45 29.664 740.604 27.06 740.604 25.156V19.906H739.456ZM741.024 21.754C741.332 22.37 741.64 23.196 741.78 23.742L742.662 23.364C742.522 22.846 742.186 22.034 741.85 21.432L741.024 21.754ZM741.318 18.156C741.234 18.772 741.024 19.654 740.842 20.242L741.864 20.494C742.102 19.962 742.396 19.15 742.662 18.394L741.318 18.156ZM738.518 24.204V25.31H743.768V24.204H738.518ZM740.982 26.066C741.36 26.724 741.766 27.606 741.92 28.194L742.788 27.788C742.606 27.242 742.2 26.374 741.794 25.716L740.982 26.066ZM760.568 18.856V20.06H764.334V18.856H760.568ZM760.568 22.048V23.224H764.334V22.048H760.568ZM760.554 25.282V26.472H764.362V25.282H760.554ZM763.76 18.856V29.608C763.76 29.818 763.676 29.888 763.48 29.888C763.27 29.902 762.57 29.902 761.898 29.874C762.066 30.21 762.248 30.798 762.29 31.148C763.326 31.148 764.012 31.12 764.446 30.91C764.894 30.7 765.034 30.322 765.034 29.622V18.856H763.76ZM760.022 18.856V23.966C760.022 25.982 759.924 28.642 758.804 30.476C759.098 30.602 759.644 30.994 759.854 31.232C761.086 29.244 761.268 26.15 761.268 23.966V18.856H760.022ZM752.658 19.962V21.124H759.434V19.962H752.658ZM754.38 22.188V23.224H757.838V22.188H754.38ZM754.38 24.386V25.422H757.852V24.386H754.38ZM752.476 26.626V27.802H759.392V26.626H752.476ZM753.806 18.352V27.074H755.01V18.352H753.806ZM757.208 18.352V27.074H758.426V18.352H757.208ZM754.338 28.012C753.932 28.908 753.204 29.818 752.434 30.42C752.742 30.602 753.26 30.98 753.512 31.204C754.268 30.504 755.08 29.426 755.598 28.376L754.338 28.012ZM756.382 28.53C756.928 29.188 757.586 30.112 757.852 30.672L758.93 30.042C758.622 29.468 757.95 28.614 757.39 27.984L756.382 28.53Z" fill="#909399"/>
</g>
<rect x="700" y="95" width="100" height="1" fill="#E4E7ED"/>
<rect x="700" y="143" width="100" height="1" fill="#E4E7ED"/>
<rect x="700" y="191" width="100" height="1" fill="#E4E7ED"/>
<rect x="700" y="239" width="100" height="1" fill="#E4E7ED"/>
<rect x="700" y="287" width="100" height="1" fill="#E4E7ED"/>
<rect x="700" y="335" width="100" height="1" fill="#E4E7ED"/>
<rect x="700" y="383" width="100" height="1" fill="#E4E7ED"/>
<rect x="700" y="431" width="100" height="1" fill="#E4E7ED"/>
<rect x="700" y="479" width="100" height="1" fill="#E4E7ED"/>
<rect x="700" y="527" width="100" height="1" fill="#E4E7ED"/>
</g>
<rect x="700.5" y="0.5" width="99" height="527" stroke="#E4E7ED"/>
<g clip-path="url(#clip16_27347_63245)">
<rect width="100" height="48" transform="translate(800)" fill="#F2F2F2"/>
<rect x="800" y="47" width="100" height="1" fill="#E4E7ED"/>
<g clip-path="url(#clip17_27347_63245)">
<path d="M811.946 21.586V28.404C811.946 30.322 812.702 30.784 815.166 30.784C815.74 30.784 819.562 30.784 820.178 30.784C822.6 30.784 823.118 30.028 823.412 27.41C823.02 27.34 822.432 27.116 822.068 26.878C821.872 29.048 821.648 29.482 820.15 29.482C819.254 29.482 815.866 29.482 815.124 29.482C813.584 29.482 813.304 29.3 813.304 28.418V21.586H811.946ZM812.702 23.714V25.03H820.738V23.714H812.702ZM811.288 19.024V20.34H820.234V25.702H821.606V19.024H811.288ZM824.826 20.256V21.53H837.188V20.256H824.826ZM829.264 24.736V25.968H836.628V24.736H829.264ZM828.718 29.608V30.84H837.16V29.608H828.718ZM832.288 22.202V30.266H833.618V22.202H832.288ZM829.348 18.184C828.578 21.04 826.968 24.162 824.434 25.884C824.644 26.192 824.966 26.766 825.106 27.13C827.976 25.114 829.712 21.796 830.72 18.52L829.348 18.184ZM826.562 23.994V31.148H827.892V23.994H826.562ZM839.47 20.046V28.208H840.786V21.32H849.214V28.138H850.586V20.046H839.47ZM840.324 23.084V24.316H849.9V23.084H840.324ZM840.324 26.164V27.438H849.914V26.164H840.324ZM844.258 18.184V31.176H845.644V18.184H844.258ZM853.33 19.262C854.072 19.934 855.024 20.872 855.472 21.474L856.368 20.536C855.906 19.962 854.926 19.08 854.184 18.45L853.33 19.262ZM854.45 30.98C854.66 30.672 855.08 30.336 857.516 28.432C857.376 28.18 857.166 27.662 857.082 27.312L854.478 29.272L854.17 29.748L854.45 30.98ZM852.532 22.552V23.826H855.262V22.552H852.532ZM854.45 30.98C854.45 30.504 855.738 29.594 855.738 29.594V22.552H854.464V28.6C854.464 29.23 854.058 29.678 853.778 29.86C854.002 30.112 854.338 30.672 854.45 30.98ZM858.846 26.262V27.158H863.494V26.262H858.846ZM857.306 19.22V20.2H865.048V19.22H857.306ZM857.67 20.956V21.88H864.628V20.956H857.67ZM856.886 22.678V23.658H865.482V22.678H856.886ZM858.818 28.152V29.062H863.494V28.152H858.818ZM857.866 24.358V31.176H859.098V25.352H863.508V24.358H857.866ZM863.172 24.358V29.804C863.172 29.972 863.102 30.028 862.92 30.028C862.724 30.042 862.052 30.042 861.408 30.014C861.562 30.336 861.73 30.826 861.772 31.148C862.766 31.162 863.424 31.148 863.858 30.952C864.306 30.77 864.432 30.434 864.432 29.818V24.358H863.172ZM860.47 18.184V23H861.786V18.184H860.47ZM872.272 21.222V31.162H873.644V21.222H872.272ZM869.29 23.98H876.766V25.254H869.29V23.98ZM869.29 21.698H876.766V22.958H869.29V21.698ZM868.002 20.592V26.36H878.124V20.592H868.002ZM866.714 27.508V28.74H879.314V27.508H866.714ZM869.178 18.772C869.724 19.416 870.326 20.326 870.592 20.886L871.796 20.312C871.516 19.724 870.858 18.87 870.312 18.24L869.178 18.772ZM875.758 18.268C875.422 19.052 874.792 20.13 874.274 20.816L875.436 21.236C875.954 20.606 876.64 19.626 877.214 18.716L875.758 18.268Z" fill="#909399"/>
</g>
<rect x="800" y="95" width="100" height="1" fill="#E4E7ED"/>
<rect x="800" y="143" width="100" height="1" fill="#E4E7ED"/>
<rect x="800" y="191" width="100" height="1" fill="#E4E7ED"/>
<rect x="800" y="239" width="100" height="1" fill="#E4E7ED"/>
<rect x="800" y="287" width="100" height="1" fill="#E4E7ED"/>
<rect x="800" y="335" width="100" height="1" fill="#E4E7ED"/>
<rect x="800" y="383" width="100" height="1" fill="#E4E7ED"/>
<rect x="800" y="431" width="100" height="1" fill="#E4E7ED"/>
<rect x="800" y="479" width="100" height="1" fill="#E4E7ED"/>
<rect x="800" y="527" width="100" height="1" fill="#E4E7ED"/>
</g>
<rect x="800.5" y="0.5" width="99" height="527" stroke="#E4E7ED"/>
<g clip-path="url(#clip18_27347_63245)">
<rect width="100" height="48" transform="translate(900)" fill="#F2F2F2"/>
<rect x="900" y="47" width="100" height="1" fill="#E4E7ED"/>
<g clip-path="url(#clip19_27347_63245)">
<path d="M911.946 21.586V28.404C911.946 30.322 912.702 30.784 915.166 30.784C915.74 30.784 919.562 30.784 920.178 30.784C922.6 30.784 923.118 30.028 923.412 27.41C923.02 27.34 922.432 27.116 922.068 26.878C921.872 29.048 921.648 29.482 920.15 29.482C919.254 29.482 915.866 29.482 915.124 29.482C913.584 29.482 913.304 29.3 913.304 28.418V21.586H911.946ZM912.702 23.714V25.03H920.738V23.714H912.702ZM911.288 19.024V20.34H920.234V25.702H921.606V19.024H911.288ZM924.826 20.256V21.53H937.188V20.256H924.826ZM929.264 24.736V25.968H936.628V24.736H929.264ZM928.718 29.608V30.84H937.16V29.608H928.718ZM932.288 22.202V30.266H933.618V22.202H932.288ZM929.348 18.184C928.578 21.04 926.968 24.162 924.434 25.884C924.644 26.192 924.966 26.766 925.106 27.13C927.976 25.114 929.712 21.796 930.72 18.52L929.348 18.184ZM926.562 23.994V31.148H927.892V23.994H926.562ZM947.73 24.596C947.002 25.282 945.602 25.898 944.384 26.248C944.636 26.444 944.944 26.766 945.112 27.018C946.428 26.584 947.842 25.884 948.71 25.002L947.73 24.596ZM949.074 25.968C948.136 26.934 946.302 27.69 944.538 28.068C944.776 28.306 945.042 28.67 945.196 28.922C947.1 28.418 948.962 27.564 950.054 26.374L949.074 25.968ZM950.264 27.494C949.032 28.894 946.512 29.72 943.796 30.112C944.048 30.392 944.342 30.84 944.468 31.162C947.394 30.63 949.97 29.664 951.398 27.97L950.264 27.494ZM945.84 18.17C945.294 19.654 944.314 21.068 943.208 21.964C943.502 22.146 943.992 22.524 944.202 22.748C945.322 21.726 946.4 20.144 947.058 18.478L945.84 18.17ZM945.91 19.668L945.266 20.746H950.012V19.668H945.91ZM945.686 20.312L944.86 20.886C945.77 22.58 947.814 24.386 950.922 25.114C951.09 24.792 951.412 24.302 951.664 24.05C948.556 23.49 946.526 21.88 945.686 20.312ZM942.242 22.132V28.908H943.348V22.132H942.242ZM941.15 18.254C940.506 20.368 939.428 22.482 938.238 23.84C938.462 24.19 938.798 24.918 938.91 25.24C940.31 23.588 941.584 21.04 942.382 18.604L941.15 18.254ZM940.002 21.852V31.176H941.262V20.662L941.22 20.634L940.002 21.852ZM949.844 19.668V19.864C948.864 22.23 946.12 23.644 943.236 24.19C943.46 24.442 943.74 24.904 943.866 25.198C946.974 24.47 949.844 22.944 951.048 19.99L950.278 19.612L950.068 19.668H949.844ZM953.456 19.248C954.212 19.962 955.178 20.956 955.626 21.586L956.564 20.648C956.102 20.032 955.094 19.08 954.352 18.408L953.456 19.248ZM952.658 22.552V23.826H955.878V22.552H952.658ZM957.628 19.318V20.648H965.482V19.318H957.628ZM961.674 19.766V29.356C961.674 29.608 961.576 29.692 961.296 29.706C961.002 29.72 959.98 29.734 959 29.678C959.224 30.056 959.476 30.714 959.546 31.12C960.862 31.12 961.758 31.078 962.332 30.854C962.892 30.616 963.074 30.196 963.074 29.37V19.766H961.674ZM954.772 30.896C955.024 30.588 955.5 30.252 958.524 28.166C958.384 27.9 958.216 27.34 958.146 26.962L954.87 29.104L954.506 29.608L954.772 30.896ZM954.772 30.896C954.772 30.406 956.172 29.524 956.172 29.524V22.552H954.898V28.502C954.898 29.132 954.422 29.58 954.128 29.762C954.352 30.028 954.674 30.574 954.772 30.896ZM967.428 19.332V20.466H978.656V19.332H967.428ZM968.128 21.46V22.524H978.068V21.46H968.128ZM966.854 23.574V24.708H979.118V23.574H966.854ZM972.286 18.184V24.484H973.63V18.184H972.286ZM972.062 23.868C970.872 25.282 968.492 26.654 966.406 27.312C966.686 27.578 967.078 28.068 967.274 28.39C969.416 27.606 971.81 26.08 973.21 24.4L972.062 23.868ZM973.966 24.218L972.776 24.526C973.84 27.578 975.73 29.776 978.712 30.77C978.908 30.42 979.3 29.902 979.594 29.622C976.766 28.81 974.862 26.836 973.966 24.218ZM977.746 25.128C977.018 25.842 975.772 26.766 974.848 27.34L975.702 28.04C976.654 27.522 977.858 26.696 978.838 25.926L977.746 25.128ZM969.416 31.176C969.78 30.938 970.354 30.756 974.302 29.524C974.232 29.244 974.12 28.712 974.092 28.348L969.878 29.566L969.29 30.042L969.416 31.176ZM969.416 31.176C969.416 30.742 970.844 29.986 970.844 29.986V26.192H969.472V28.978C969.472 29.566 969.122 29.846 968.856 29.986C969.066 30.266 969.332 30.854 969.416 31.176Z" fill="#909399"/>
</g>
<rect x="900" y="95" width="100" height="1" fill="#E4E7ED"/>
<rect x="900" y="143" width="100" height="1" fill="#E4E7ED"/>
<rect x="900" y="191" width="100" height="1" fill="#E4E7ED"/>
<rect x="900" y="239" width="100" height="1" fill="#E4E7ED"/>
<rect x="900" y="287" width="100" height="1" fill="#E4E7ED"/>
<rect x="900" y="335" width="100" height="1" fill="#E4E7ED"/>
<rect x="900" y="383" width="100" height="1" fill="#E4E7ED"/>
<rect x="900" y="431" width="100" height="1" fill="#E4E7ED"/>
<rect x="900" y="479" width="100" height="1" fill="#E4E7ED"/>
<rect x="900" y="527" width="100" height="1" fill="#E4E7ED"/>
</g>
<rect x="900.5" y="0.5" width="99" height="527" stroke="#E4E7ED"/>
<g clip-path="url(#clip20_27347_63245)">
<rect width="100" height="48" transform="translate(1000)" fill="#F2F2F2"/>
<rect x="1000" y="47" width="100" height="1" fill="#E4E7ED"/>
<g clip-path="url(#clip21_27347_63245)">
<path d="M1016.93 21.432H1021.21V22.356H1016.93V21.432ZM1016.93 19.612H1021.21V20.536H1016.93V19.612ZM1015.71 18.632V23.336H1022.49V18.632H1015.71ZM1015.05 24.19V25.282H1023.23V24.19H1015.05ZM1018.44 24.764V29.944L1019.69 30.476V24.764H1018.44ZM1016.82 27.298L1016.02 27.578C1016.89 30.476 1018.5 30.98 1020.82 30.98H1023.27C1023.31 30.644 1023.48 30.084 1023.65 29.804C1023.1 29.832 1021.27 29.832 1020.86 29.832C1019.02 29.832 1017.53 29.51 1016.82 27.298ZM1019.32 26.738V27.802H1022.52V26.738H1019.32ZM1015.94 25.842C1015.73 27.844 1015.11 29.412 1013.89 30.378C1014.17 30.56 1014.68 30.966 1014.87 31.176C1016.13 30.042 1016.85 28.278 1017.14 25.982L1015.94 25.842ZM1010.36 25.478L1010.67 26.766C1011.89 26.402 1013.44 25.912 1014.9 25.45L1014.72 24.246C1013.12 24.722 1011.47 25.212 1010.36 25.478ZM1010.5 20.942V22.16H1014.86V20.942H1010.5ZM1012.14 18.198V29.58C1012.14 29.776 1012.09 29.832 1011.92 29.832C1011.75 29.846 1011.23 29.846 1010.66 29.832C1010.83 30.182 1010.98 30.728 1011.02 31.05C1011.9 31.05 1012.49 31.008 1012.86 30.798C1013.25 30.602 1013.37 30.252 1013.37 29.594V18.198H1012.14ZM1030.27 21.222V31.162H1031.64V21.222H1030.27ZM1027.29 23.98H1034.77V25.254H1027.29V23.98ZM1027.29 21.698H1034.77V22.958H1027.29V21.698ZM1026 20.592V26.36H1036.12V20.592H1026ZM1024.71 27.508V28.74H1037.31V27.508H1024.71ZM1027.18 18.772C1027.72 19.416 1028.33 20.326 1028.59 20.886L1029.8 20.312C1029.52 19.724 1028.86 18.87 1028.31 18.24L1027.18 18.772ZM1033.76 18.268C1033.42 19.052 1032.79 20.13 1032.27 20.816L1033.44 21.236C1033.95 20.606 1034.64 19.626 1035.21 18.716L1033.76 18.268ZM1043.61 20.2V21.432H1051.34V20.2H1043.61ZM1045.39 21.642C1044.87 22.594 1043.96 23.756 1043.07 24.484C1043.35 24.68 1043.78 25.044 1043.99 25.296C1044.92 24.498 1045.9 23.308 1046.57 22.174L1045.39 21.642ZM1048 22.258C1048.91 23.126 1049.96 24.372 1050.39 25.212L1051.37 24.372C1050.89 23.56 1049.82 22.37 1048.91 21.516L1048 22.258ZM1045.78 24.176L1044.64 24.47C1045.76 27.648 1047.7 30 1050.73 31.092C1050.92 30.728 1051.31 30.182 1051.62 29.916C1048.74 29.02 1046.74 26.892 1045.78 24.176ZM1045.98 18.534C1046.41 19.066 1046.86 19.836 1047.06 20.34L1048.26 19.794C1048.05 19.304 1047.59 18.604 1047.13 18.072L1045.98 18.534ZM1038.8 21.068V22.3H1043.26V21.068H1038.8ZM1040.55 18.184V31.176H1041.77V18.184H1040.55ZM1040.42 21.852C1040.06 23.784 1039.23 26.164 1038.34 27.41C1038.56 27.746 1038.87 28.334 1038.99 28.698C1039.93 27.242 1040.77 24.428 1041.16 22.146L1040.42 21.852ZM1041.74 22.776L1041.14 23.308C1041.51 23.994 1042.38 25.744 1042.69 26.57L1043.46 25.576C1043.21 25.128 1042.05 23.196 1041.74 22.776ZM1048.53 24.134C1047.74 26.948 1045.85 28.992 1042.97 30.182C1043.24 30.406 1043.63 30.91 1043.81 31.19C1046.9 29.874 1048.85 27.662 1049.8 24.456L1048.53 24.134ZM1061.65 28.376C1062.64 29.174 1063.94 30.322 1064.56 31.05L1065.57 30.182C1064.92 29.468 1063.59 28.362 1062.6 27.606L1061.65 28.376ZM1062.95 22.23C1061.98 24.12 1059.88 26.01 1057.47 27.06C1057.71 27.312 1058.06 27.774 1058.22 28.068C1060.78 26.878 1062.95 24.862 1064.21 22.65L1062.95 22.23ZM1063.9 24.806C1062.71 27.116 1060.05 29.09 1056.77 30.084C1057.01 30.364 1057.39 30.882 1057.54 31.19C1060.99 30.056 1063.72 27.942 1065.26 25.296L1063.9 24.806ZM1057.57 19.99V21.208H1065.44V19.99H1057.57ZM1058.05 24.988C1058.05 24.638 1059.59 24.19 1059.59 24.19C1060.22 23.322 1061.27 21.586 1061.84 20.634H1060.44C1060.06 21.278 1059.03 22.972 1058.71 23.322C1058.47 23.588 1058.02 23.686 1057.71 23.756C1057.82 24.036 1058.01 24.666 1058.05 24.988ZM1058.05 24.988C1058.38 24.848 1058.92 24.764 1062.39 24.54C1062.44 24.274 1062.61 23.77 1062.77 23.448L1058.71 23.658L1058.03 24.036L1058.05 24.988ZM1060.47 18.478C1060.79 19.094 1061.09 19.92 1061.18 20.452L1062.5 20.004C1062.4 19.486 1062.04 18.688 1061.7 18.1L1060.47 18.478ZM1052.71 20.858V22.076H1057.29V20.858H1052.71ZM1054.52 18.184V31.176H1055.78V18.184H1054.52ZM1054.55 21.712C1054.17 23.602 1053.3 25.94 1052.38 27.158C1052.6 27.494 1052.91 28.096 1053.04 28.474C1054.02 27.032 1054.9 24.274 1055.3 21.992L1054.55 21.712ZM1055.71 22.51L1055.11 22.986C1055.47 23.616 1056.33 25.254 1056.63 26.01L1057.42 25.1C1057.17 24.666 1056.03 22.902 1055.71 22.51Z" fill="#909399"/>
</g>
<rect x="1000" y="95" width="100" height="1" fill="#E4E7ED"/>
<rect x="1000" y="143" width="100" height="1" fill="#E4E7ED"/>
<rect x="1000" y="191" width="100" height="1" fill="#E4E7ED"/>
<rect x="1000" y="239" width="100" height="1" fill="#E4E7ED"/>
<rect x="1000" y="287" width="100" height="1" fill="#E4E7ED"/>
<rect x="1000" y="335" width="100" height="1" fill="#E4E7ED"/>
<rect x="1000" y="383" width="100" height="1" fill="#E4E7ED"/>
<rect x="1000" y="431" width="100" height="1" fill="#E4E7ED"/>
<rect x="1000" y="479" width="100" height="1" fill="#E4E7ED"/>
<rect x="1000" y="527" width="100" height="1" fill="#E4E7ED"/>
</g>
<path d="M1000 0V-1H997V0H1000ZM1100 0H1101V-1H1100V0ZM1100 528V529H1101V528H1100ZM1000 528H997V529H1000V528ZM1000 1H1100V-1H1000V1ZM1099 0V528H1101V0H1099ZM1100 527H1000V529H1100V527ZM1003 528V0H997V528H1003Z" fill="#E4E7ED" mask="url(#path-142-inside-1_27347_63245)"/>
<g clip-path="url(#clip22_27347_63245)">
<rect width="200" height="48" transform="translate(1100)" fill="#F2F2F2"/>
<rect x="1100" y="47" width="200" height="1" fill="#E4E7ED"/>
<g clip-path="url(#clip23_27347_63245)">
<path d="M1116.93 21.432H1121.21V22.356H1116.93V21.432ZM1116.93 19.612H1121.21V20.536H1116.93V19.612ZM1115.71 18.632V23.336H1122.49V18.632H1115.71ZM1115.05 24.19V25.282H1123.23V24.19H1115.05ZM1118.44 24.764V29.944L1119.69 30.476V24.764H1118.44ZM1116.82 27.298L1116.02 27.578C1116.89 30.476 1118.5 30.98 1120.82 30.98H1123.27C1123.31 30.644 1123.48 30.084 1123.65 29.804C1123.1 29.832 1121.27 29.832 1120.86 29.832C1119.02 29.832 1117.53 29.51 1116.82 27.298ZM1119.32 26.738V27.802H1122.52V26.738H1119.32ZM1115.94 25.842C1115.73 27.844 1115.11 29.412 1113.89 30.378C1114.17 30.56 1114.68 30.966 1114.87 31.176C1116.13 30.042 1116.85 28.278 1117.14 25.982L1115.94 25.842ZM1110.36 25.478L1110.67 26.766C1111.89 26.402 1113.44 25.912 1114.9 25.45L1114.72 24.246C1113.12 24.722 1111.47 25.212 1110.36 25.478ZM1110.5 20.942V22.16H1114.86V20.942H1110.5ZM1112.14 18.198V29.58C1112.14 29.776 1112.09 29.832 1111.92 29.832C1111.75 29.846 1111.23 29.846 1110.66 29.832C1110.83 30.182 1110.98 30.728 1111.02 31.05C1111.9 31.05 1112.49 31.008 1112.86 30.798C1113.25 30.602 1113.37 30.252 1113.37 29.594V18.198H1112.14ZM1130.27 21.222V31.162H1131.64V21.222H1130.27ZM1127.29 23.98H1134.77V25.254H1127.29V23.98ZM1127.29 21.698H1134.77V22.958H1127.29V21.698ZM1126 20.592V26.36H1136.12V20.592H1126ZM1124.71 27.508V28.74H1137.31V27.508H1124.71ZM1127.18 18.772C1127.72 19.416 1128.33 20.326 1128.59 20.886L1129.8 20.312C1129.52 19.724 1128.86 18.87 1128.31 18.24L1127.18 18.772ZM1133.76 18.268C1133.42 19.052 1132.79 20.13 1132.27 20.816L1133.44 21.236C1133.95 20.606 1134.64 19.626 1135.21 18.716L1133.76 18.268ZM1143.61 20.2V21.432H1151.34V20.2H1143.61ZM1145.39 21.642C1144.87 22.594 1143.96 23.756 1143.07 24.484C1143.35 24.68 1143.78 25.044 1143.99 25.296C1144.92 24.498 1145.9 23.308 1146.57 22.174L1145.39 21.642ZM1148 22.258C1148.91 23.126 1149.96 24.372 1150.39 25.212L1151.37 24.372C1150.89 23.56 1149.82 22.37 1148.91 21.516L1148 22.258ZM1145.78 24.176L1144.64 24.47C1145.76 27.648 1147.7 30 1150.73 31.092C1150.92 30.728 1151.31 30.182 1151.62 29.916C1148.74 29.02 1146.74 26.892 1145.78 24.176ZM1145.98 18.534C1146.41 19.066 1146.86 19.836 1147.06 20.34L1148.26 19.794C1148.05 19.304 1147.59 18.604 1147.13 18.072L1145.98 18.534ZM1138.8 21.068V22.3H1143.26V21.068H1138.8ZM1140.55 18.184V31.176H1141.77V18.184H1140.55ZM1140.42 21.852C1140.06 23.784 1139.23 26.164 1138.34 27.41C1138.56 27.746 1138.87 28.334 1138.99 28.698C1139.93 27.242 1140.77 24.428 1141.16 22.146L1140.42 21.852ZM1141.74 22.776L1141.14 23.308C1141.51 23.994 1142.38 25.744 1142.69 26.57L1143.46 25.576C1143.21 25.128 1142.05 23.196 1141.74 22.776ZM1148.53 24.134C1147.74 26.948 1145.85 28.992 1142.97 30.182C1143.24 30.406 1143.63 30.91 1143.81 31.19C1146.9 29.874 1148.85 27.662 1149.8 24.456L1148.53 24.134ZM1161.65 28.376C1162.64 29.174 1163.94 30.322 1164.56 31.05L1165.57 30.182C1164.92 29.468 1163.59 28.362 1162.6 27.606L1161.65 28.376ZM1162.95 22.23C1161.98 24.12 1159.88 26.01 1157.47 27.06C1157.71 27.312 1158.06 27.774 1158.22 28.068C1160.78 26.878 1162.95 24.862 1164.21 22.65L1162.95 22.23ZM1163.9 24.806C1162.71 27.116 1160.05 29.09 1156.77 30.084C1157.01 30.364 1157.39 30.882 1157.54 31.19C1160.99 30.056 1163.72 27.942 1165.26 25.296L1163.9 24.806ZM1157.57 19.99V21.208H1165.44V19.99H1157.57ZM1158.05 24.988C1158.05 24.638 1159.59 24.19 1159.59 24.19C1160.22 23.322 1161.27 21.586 1161.84 20.634H1160.44C1160.06 21.278 1159.03 22.972 1158.71 23.322C1158.47 23.588 1158.02 23.686 1157.71 23.756C1157.82 24.036 1158.01 24.666 1158.05 24.988ZM1158.05 24.988C1158.38 24.848 1158.92 24.764 1162.39 24.54C1162.44 24.274 1162.61 23.77 1162.77 23.448L1158.71 23.658L1158.03 24.036L1158.05 24.988ZM1160.47 18.478C1160.79 19.094 1161.09 19.92 1161.18 20.452L1162.5 20.004C1162.4 19.486 1162.04 18.688 1161.7 18.1L1160.47 18.478ZM1152.71 20.858V22.076H1157.29V20.858H1152.71ZM1154.52 18.184V31.176H1155.78V18.184H1154.52ZM1154.55 21.712C1154.17 23.602 1153.3 25.94 1152.38 27.158C1152.6 27.494 1152.91 28.096 1153.04 28.474C1154.02 27.032 1154.9 24.274 1155.3 21.992L1154.55 21.712ZM1155.71 22.51L1155.11 22.986C1155.47 23.616 1156.33 25.254 1156.63 26.01L1157.42 25.1C1157.17 24.666 1156.03 22.902 1155.71 22.51ZM1175.73 24.596C1175 25.282 1173.6 25.898 1172.38 26.248C1172.64 26.444 1172.94 26.766 1173.11 27.018C1174.43 26.584 1175.84 25.884 1176.71 25.002L1175.73 24.596ZM1177.07 25.968C1176.14 26.934 1174.3 27.69 1172.54 28.068C1172.78 28.306 1173.04 28.67 1173.2 28.922C1175.1 28.418 1176.96 27.564 1178.05 26.374L1177.07 25.968ZM1178.26 27.494C1177.03 28.894 1174.51 29.72 1171.8 30.112C1172.05 30.392 1172.34 30.84 1172.47 31.162C1175.39 30.63 1177.97 29.664 1179.4 27.97L1178.26 27.494ZM1173.84 18.17C1173.29 19.654 1172.31 21.068 1171.21 21.964C1171.5 22.146 1171.99 22.524 1172.2 22.748C1173.32 21.726 1174.4 20.144 1175.06 18.478L1173.84 18.17ZM1173.91 19.668L1173.27 20.746H1178.01V19.668H1173.91ZM1173.69 20.312L1172.86 20.886C1173.77 22.58 1175.81 24.386 1178.92 25.114C1179.09 24.792 1179.41 24.302 1179.66 24.05C1176.56 23.49 1174.53 21.88 1173.69 20.312ZM1170.24 22.132V28.908H1171.35V22.132H1170.24ZM1169.15 18.254C1168.51 20.368 1167.43 22.482 1166.24 23.84C1166.46 24.19 1166.8 24.918 1166.91 25.24C1168.31 23.588 1169.58 21.04 1170.38 18.604L1169.15 18.254ZM1168 21.852V31.176H1169.26V20.662L1169.22 20.634L1168 21.852ZM1177.84 19.668V19.864C1176.86 22.23 1174.12 23.644 1171.24 24.19C1171.46 24.442 1171.74 24.904 1171.87 25.198C1174.97 24.47 1177.84 22.944 1179.05 19.99L1178.28 19.612L1178.07 19.668H1177.84ZM1181.46 19.248C1182.21 19.962 1183.18 20.956 1183.63 21.586L1184.56 20.648C1184.1 20.032 1183.09 19.08 1182.35 18.408L1181.46 19.248ZM1180.66 22.552V23.826H1183.88V22.552H1180.66ZM1185.63 19.318V20.648H1193.48V19.318H1185.63ZM1189.67 19.766V29.356C1189.67 29.608 1189.58 29.692 1189.3 29.706C1189 29.72 1187.98 29.734 1187 29.678C1187.22 30.056 1187.48 30.714 1187.55 31.12C1188.86 31.12 1189.76 31.078 1190.33 30.854C1190.89 30.616 1191.07 30.196 1191.07 29.37V19.766H1189.67ZM1182.77 30.896C1183.02 30.588 1183.5 30.252 1186.52 28.166C1186.38 27.9 1186.22 27.34 1186.15 26.962L1182.87 29.104L1182.51 29.608L1182.77 30.896ZM1182.77 30.896C1182.77 30.406 1184.17 29.524 1184.17 29.524V22.552H1182.9V28.502C1182.9 29.132 1182.42 29.58 1182.13 29.762C1182.35 30.028 1182.67 30.574 1182.77 30.896Z" fill="#909399"/>
</g>
<rect x="1100" y="95" width="200" height="1" fill="#E4E7ED"/>
<rect x="1100" y="143" width="200" height="1" fill="#E4E7ED"/>
<rect x="1100" y="191" width="200" height="1" fill="#E4E7ED"/>
<rect x="1100" y="239" width="200" height="1" fill="#E4E7ED"/>
<rect x="1100" y="287" width="200" height="1" fill="#E4E7ED"/>
<rect x="1100" y="335" width="200" height="1" fill="#E4E7ED"/>
<rect x="1100" y="383" width="200" height="1" fill="#E4E7ED"/>
<rect x="1100" y="431" width="200" height="1" fill="#E4E7ED"/>
<rect x="1100" y="479" width="200" height="1" fill="#E4E7ED"/>
<rect x="1100" y="527" width="200" height="1" fill="#E4E7ED"/>
</g>
<rect x="1100.5" y="0.5" width="199" height="527" stroke="#E4E7ED"/>
<g clip-path="url(#clip24_27347_63245)">
<rect width="100" height="48" transform="translate(1300)" fill="#F2F2F2"/>
<rect x="1300" y="47" width="100" height="1" fill="#E4E7ED"/>
<g clip-path="url(#clip25_27347_63245)">
<path d="M1315.26 19.402V20.466H1323.15V19.402H1315.26ZM1319.72 29.3C1320.67 29.832 1321.91 30.658 1322.52 31.19L1323.38 30.28C1322.75 29.748 1321.48 28.978 1320.53 28.474L1319.72 29.3ZM1317.55 28.474C1316.85 29.076 1315.49 29.832 1314.42 30.266C1314.69 30.518 1315.05 30.91 1315.25 31.176C1316.33 30.7 1317.71 29.944 1318.62 29.244L1317.55 28.474ZM1314.77 27.452V28.586H1323.51V27.452H1314.77ZM1316.5 22.944V23.686H1321.84V22.944H1316.5ZM1316.48 24.4V25.156H1321.93V24.4H1316.48ZM1316.51 25.898V26.668H1321.75V25.898H1316.51ZM1315.95 21.292V27.774H1317.11V22.188H1321.1V27.774H1322.31V21.292H1315.95ZM1318.5 18.212C1318.39 19.318 1318.12 20.914 1317.88 21.908L1318.97 22.034C1319.28 21.082 1319.65 19.57 1319.9 18.268L1318.5 18.212ZM1310.53 21.502V22.762H1314.82V21.502H1310.53ZM1312.03 18.366V27.676H1313.29V18.366H1312.03ZM1310.39 27.998L1310.88 29.328C1312.06 28.866 1313.51 28.264 1314.9 27.69L1314.69 26.514C1313.11 27.088 1311.47 27.676 1310.39 27.998ZM1325.01 18.898V21.824H1326.32V20.13H1335.61V21.824H1336.98V18.898H1325.01ZM1328.55 21.838V22.986H1335.19V21.838H1328.55ZM1327.99 24.512V25.688H1334.75V24.512H1327.99ZM1325.23 26.962V28.18H1333.11V26.962H1325.23ZM1334.36 24.512L1334.35 24.708C1334.09 27.914 1333.79 29.328 1333.34 29.692C1333.18 29.832 1333 29.86 1332.69 29.86C1332.3 29.86 1331.38 29.846 1330.43 29.762C1330.66 30.098 1330.83 30.63 1330.86 31.008C1331.77 31.05 1332.68 31.064 1333.16 31.022C1333.73 30.994 1334.09 30.882 1334.46 30.518C1335 29.958 1335.33 28.544 1335.65 25.086C1335.68 24.904 1335.69 24.512 1335.69 24.512H1334.36ZM1328.09 20.354C1327.79 22.048 1327.3 24.316 1326.93 25.688H1328.3C1328.63 24.386 1329.1 22.188 1329.42 20.48L1328.09 20.354ZM1343.01 20.116V21.32H1351.37V20.116H1343.01ZM1344.82 18.184V23.042H1346.09V18.184H1344.82ZM1348.33 18.184V23.042H1349.61V18.184H1348.33ZM1343.57 23.588V31.134H1344.78V24.75H1349.63V31.064H1350.89V23.588H1343.57ZM1344.24 26.416V27.564H1350.21V26.416H1344.24ZM1344.27 29.272V30.434H1350.24V29.272H1344.27ZM1346.58 24.134V30.112H1347.79V24.134H1346.58ZM1338.34 25.478L1338.66 26.766C1339.86 26.402 1341.4 25.926 1342.84 25.464L1342.68 24.26C1341.09 24.722 1339.44 25.212 1338.34 25.478ZM1338.55 20.942V22.16H1342.76V20.942H1338.55ZM1340.14 18.198V29.58C1340.14 29.776 1340.07 29.832 1339.9 29.832C1339.74 29.846 1339.22 29.846 1338.64 29.832C1338.81 30.182 1338.97 30.728 1339.01 31.05C1339.9 31.05 1340.48 31.008 1340.84 30.798C1341.23 30.602 1341.36 30.252 1341.36 29.594V18.198H1340.14ZM1356.47 20.83V22.076H1365.19V20.83H1356.47ZM1362.04 19.01C1362.61 19.542 1363.34 20.298 1363.68 20.774L1364.73 20.088C1364.36 19.612 1363.61 18.898 1363.05 18.394L1362.04 19.01ZM1360.18 18.324V28.978H1361.51V18.324H1360.18ZM1355.79 23.196H1352.6V24.428H1354.52V28.796H1355.79V23.196ZM1352.81 19.388C1353.55 20.2 1354.46 21.32 1354.86 22.034L1355.98 21.32C1355.54 20.606 1354.6 19.542 1353.86 18.772L1352.81 19.388ZM1355.23 28.236C1354.46 28.236 1353.44 28.936 1352.46 29.86L1353.29 30.994C1353.99 30.168 1354.72 29.384 1355.22 29.384C1355.56 29.384 1356 29.79 1356.62 30.112C1357.63 30.658 1358.83 30.812 1360.5 30.812C1361.84 30.812 1364.19 30.728 1365.16 30.658C1365.19 30.308 1365.38 29.678 1365.52 29.342C1364.17 29.51 1362.07 29.622 1360.54 29.622C1359.04 29.622 1357.8 29.524 1356.87 29.034C1356.07 28.614 1355.72 28.236 1355.23 28.236ZM1359.8 21.306C1359.1 23.546 1357.71 25.884 1356.21 27.074C1356.49 27.298 1356.93 27.76 1357.14 28.068C1358.69 26.668 1360.08 24.162 1360.88 21.6L1359.8 21.306ZM1360.53 22.454C1361.94 23.98 1363.59 26.108 1364.29 27.452L1365.33 26.696C1364.59 25.338 1362.86 23.294 1361.46 21.81L1360.53 22.454Z" fill="#909399"/>
</g>
<rect x="1300" y="95" width="100" height="1" fill="#E4E7ED"/>
<rect x="1300" y="143" width="100" height="1" fill="#E4E7ED"/>
<rect x="1300" y="191" width="100" height="1" fill="#E4E7ED"/>
<rect x="1300" y="239" width="100" height="1" fill="#E4E7ED"/>
<rect x="1300" y="287" width="100" height="1" fill="#E4E7ED"/>
<rect x="1300" y="335" width="100" height="1" fill="#E4E7ED"/>
<rect x="1300" y="383" width="100" height="1" fill="#E4E7ED"/>
<rect x="1300" y="431" width="100" height="1" fill="#E4E7ED"/>
<rect x="1300" y="479" width="100" height="1" fill="#E4E7ED"/>
<rect x="1300" y="527" width="100" height="1" fill="#E4E7ED"/>
</g>
<rect x="1300.5" y="0.5" width="99" height="527" stroke="#E4E7ED"/>
<g clip-path="url(#clip26_27347_63245)">
<rect width="100" height="48" transform="translate(1400)" fill="#F2F2F2"/>
<rect x="1400" y="47" width="100" height="1" fill="#E4E7ED"/>
<g clip-path="url(#clip27_27347_63245)">
<path d="M1417.78 29.37V30.574H1422.17V29.37H1417.78ZM1417.34 25.156V31.204H1418.55V26.374H1421.47V31.148H1422.73V25.156H1417.34ZM1418.39 18.94V20.102H1421.42V18.94H1418.39ZM1417.88 18.94V20.97C1417.88 21.95 1417.71 23.07 1416.34 23.896C1416.58 24.05 1417.06 24.484 1417.22 24.708C1418.75 23.756 1419.06 22.258 1419.06 20.998V18.94H1417.88ZM1420.88 18.94V22.846C1420.88 23.98 1421.09 24.428 1422.17 24.428C1422.32 24.428 1422.67 24.428 1422.84 24.428C1423.08 24.428 1423.33 24.414 1423.5 24.358C1423.47 24.078 1423.43 23.616 1423.41 23.308C1423.26 23.364 1422.98 23.378 1422.82 23.378C1422.7 23.378 1422.38 23.378 1422.25 23.378C1422.1 23.378 1422.07 23.266 1422.07 22.86V18.94H1420.88ZM1411.96 19.906V20.956H1415.38V19.906H1411.96ZM1415.1 19.906V29.706C1415.1 29.874 1415.03 29.93 1414.89 29.93C1414.72 29.944 1414.21 29.944 1413.67 29.93C1413.84 30.224 1414 30.742 1414.03 31.064C1414.87 31.064 1415.4 31.036 1415.78 30.84C1416.15 30.63 1416.26 30.308 1416.26 29.72V19.906H1415.1ZM1411.46 19.906V25.156C1411.46 26.906 1411.37 29.118 1410.42 30.644C1410.7 30.77 1411.2 31.106 1411.41 31.302C1412.45 29.664 1412.6 27.06 1412.6 25.156V19.906H1411.46ZM1413.02 21.754C1413.33 22.37 1413.64 23.196 1413.78 23.742L1414.66 23.364C1414.52 22.846 1414.19 22.034 1413.85 21.432L1413.02 21.754ZM1413.32 18.156C1413.23 18.772 1413.02 19.654 1412.84 20.242L1413.86 20.494C1414.1 19.962 1414.4 19.15 1414.66 18.394L1413.32 18.156ZM1410.52 24.204V25.31H1415.77V24.204H1410.52ZM1412.98 26.066C1413.36 26.724 1413.77 27.606 1413.92 28.194L1414.79 27.788C1414.61 27.242 1414.2 26.374 1413.79 25.716L1412.98 26.066ZM1432.57 18.856V20.06H1436.33V18.856H1432.57ZM1432.57 22.048V23.224H1436.33V22.048H1432.57ZM1432.55 25.282V26.472H1436.36V25.282H1432.55ZM1435.76 18.856V29.608C1435.76 29.818 1435.68 29.888 1435.48 29.888C1435.27 29.902 1434.57 29.902 1433.9 29.874C1434.07 30.21 1434.25 30.798 1434.29 31.148C1435.33 31.148 1436.01 31.12 1436.45 30.91C1436.89 30.7 1437.03 30.322 1437.03 29.622V18.856H1435.76ZM1432.02 18.856V23.966C1432.02 25.982 1431.92 28.642 1430.8 30.476C1431.1 30.602 1431.64 30.994 1431.85 31.232C1433.09 29.244 1433.27 26.15 1433.27 23.966V18.856H1432.02ZM1424.66 19.962V21.124H1431.43V19.962H1424.66ZM1426.38 22.188V23.224H1429.84V22.188H1426.38ZM1426.38 24.386V25.422H1429.85V24.386H1426.38ZM1424.48 26.626V27.802H1431.39V26.626H1424.48ZM1425.81 18.352V27.074H1427.01V18.352H1425.81ZM1429.21 18.352V27.074H1430.43V18.352H1429.21ZM1426.34 28.012C1425.93 28.908 1425.2 29.818 1424.43 30.42C1424.74 30.602 1425.26 30.98 1425.51 31.204C1426.27 30.504 1427.08 29.426 1427.6 28.376L1426.34 28.012ZM1428.38 28.53C1428.93 29.188 1429.59 30.112 1429.85 30.672L1430.93 30.042C1430.62 29.468 1429.95 28.614 1429.39 27.984L1428.38 28.53ZM1443.61 20.2V21.432H1451.34V20.2H1443.61ZM1445.39 21.642C1444.87 22.594 1443.96 23.756 1443.07 24.484C1443.35 24.68 1443.78 25.044 1443.99 25.296C1444.92 24.498 1445.9 23.308 1446.57 22.174L1445.39 21.642ZM1448 22.258C1448.91 23.126 1449.96 24.372 1450.39 25.212L1451.37 24.372C1450.89 23.56 1449.82 22.37 1448.91 21.516L1448 22.258ZM1445.78 24.176L1444.64 24.47C1445.76 27.648 1447.7 30 1450.73 31.092C1450.92 30.728 1451.31 30.182 1451.62 29.916C1448.74 29.02 1446.74 26.892 1445.78 24.176ZM1445.98 18.534C1446.41 19.066 1446.86 19.836 1447.06 20.34L1448.26 19.794C1448.05 19.304 1447.59 18.604 1447.13 18.072L1445.98 18.534ZM1438.8 21.068V22.3H1443.26V21.068H1438.8ZM1440.55 18.184V31.176H1441.77V18.184H1440.55ZM1440.42 21.852C1440.06 23.784 1439.23 26.164 1438.34 27.41C1438.56 27.746 1438.87 28.334 1438.99 28.698C1439.93 27.242 1440.77 24.428 1441.16 22.146L1440.42 21.852ZM1441.74 22.776L1441.14 23.308C1441.51 23.994 1442.38 25.744 1442.69 26.57L1443.46 25.576C1443.21 25.128 1442.05 23.196 1441.74 22.776ZM1448.53 24.134C1447.74 26.948 1445.85 28.992 1442.97 30.182C1443.24 30.406 1443.63 30.91 1443.81 31.19C1446.9 29.874 1448.85 27.662 1449.8 24.456L1448.53 24.134ZM1461.65 28.376C1462.64 29.174 1463.94 30.322 1464.56 31.05L1465.57 30.182C1464.92 29.468 1463.59 28.362 1462.6 27.606L1461.65 28.376ZM1462.95 22.23C1461.98 24.12 1459.88 26.01 1457.47 27.06C1457.71 27.312 1458.06 27.774 1458.22 28.068C1460.78 26.878 1462.95 24.862 1464.21 22.65L1462.95 22.23ZM1463.9 24.806C1462.71 27.116 1460.05 29.09 1456.77 30.084C1457.01 30.364 1457.39 30.882 1457.54 31.19C1460.99 30.056 1463.72 27.942 1465.26 25.296L1463.9 24.806ZM1457.57 19.99V21.208H1465.44V19.99H1457.57ZM1458.05 24.988C1458.05 24.638 1459.59 24.19 1459.59 24.19C1460.22 23.322 1461.27 21.586 1461.84 20.634H1460.44C1460.06 21.278 1459.03 22.972 1458.71 23.322C1458.47 23.588 1458.02 23.686 1457.71 23.756C1457.82 24.036 1458.01 24.666 1458.05 24.988ZM1458.05 24.988C1458.38 24.848 1458.92 24.764 1462.39 24.54C1462.44 24.274 1462.61 23.77 1462.77 23.448L1458.71 23.658L1458.03 24.036L1458.05 24.988ZM1460.47 18.478C1460.79 19.094 1461.09 19.92 1461.18 20.452L1462.5 20.004C1462.4 19.486 1462.04 18.688 1461.7 18.1L1460.47 18.478ZM1452.71 20.858V22.076H1457.29V20.858H1452.71ZM1454.52 18.184V31.176H1455.78V18.184H1454.52ZM1454.55 21.712C1454.17 23.602 1453.3 25.94 1452.38 27.158C1452.6 27.494 1452.91 28.096 1453.04 28.474C1454.02 27.032 1454.9 24.274 1455.3 21.992L1454.55 21.712ZM1455.71 22.51L1455.11 22.986C1455.47 23.616 1456.33 25.254 1456.63 26.01L1457.42 25.1C1457.17 24.666 1456.03 22.902 1455.71 22.51Z" fill="#909399"/>
</g>
<rect x="1400" y="95" width="100" height="1" fill="#E4E7ED"/>
<rect x="1400" y="143" width="100" height="1" fill="#E4E7ED"/>
<rect x="1400" y="191" width="100" height="1" fill="#E4E7ED"/>
<rect x="1400" y="239" width="100" height="1" fill="#E4E7ED"/>
<rect x="1400" y="287" width="100" height="1" fill="#E4E7ED"/>
<rect x="1400" y="335" width="100" height="1" fill="#E4E7ED"/>
<rect x="1400" y="383" width="100" height="1" fill="#E4E7ED"/>
<rect x="1400" y="431" width="100" height="1" fill="#E4E7ED"/>
<rect x="1400" y="479" width="100" height="1" fill="#E4E7ED"/>
<rect x="1400" y="527" width="100" height="1" fill="#E4E7ED"/>
</g>
<path d="M1400 0V-1H1397V0H1400ZM1500 0H1501V-1H1500V0ZM1500 528V529H1501V528H1500ZM1400 528H1397V529H1400V528ZM1400 1H1500V-1H1400V1ZM1499 0V528H1501V0H1499ZM1500 527H1400V529H1500V527ZM1403 528V0H1397V528H1403Z" fill="#E4E7ED" mask="url(#path-184-inside-2_27347_63245)"/>
<g clip-path="url(#clip28_27347_63245)">
<rect width="200" height="48" transform="translate(1500)" fill="#F2F2F2"/>
<rect x="1500" y="47" width="200" height="1" fill="#E4E7ED"/>
<g clip-path="url(#clip29_27347_63245)">
<path d="M1517.78 29.37V30.574H1522.17V29.37H1517.78ZM1517.34 25.156V31.204H1518.55V26.374H1521.47V31.148H1522.73V25.156H1517.34ZM1518.39 18.94V20.102H1521.42V18.94H1518.39ZM1517.88 18.94V20.97C1517.88 21.95 1517.71 23.07 1516.34 23.896C1516.58 24.05 1517.06 24.484 1517.22 24.708C1518.75 23.756 1519.06 22.258 1519.06 20.998V18.94H1517.88ZM1520.88 18.94V22.846C1520.88 23.98 1521.09 24.428 1522.17 24.428C1522.32 24.428 1522.67 24.428 1522.84 24.428C1523.08 24.428 1523.33 24.414 1523.5 24.358C1523.47 24.078 1523.43 23.616 1523.41 23.308C1523.26 23.364 1522.98 23.378 1522.82 23.378C1522.7 23.378 1522.38 23.378 1522.25 23.378C1522.1 23.378 1522.07 23.266 1522.07 22.86V18.94H1520.88ZM1511.96 19.906V20.956H1515.38V19.906H1511.96ZM1515.1 19.906V29.706C1515.1 29.874 1515.03 29.93 1514.89 29.93C1514.72 29.944 1514.21 29.944 1513.67 29.93C1513.84 30.224 1514 30.742 1514.03 31.064C1514.87 31.064 1515.4 31.036 1515.78 30.84C1516.15 30.63 1516.26 30.308 1516.26 29.72V19.906H1515.1ZM1511.46 19.906V25.156C1511.46 26.906 1511.37 29.118 1510.42 30.644C1510.7 30.77 1511.2 31.106 1511.41 31.302C1512.45 29.664 1512.6 27.06 1512.6 25.156V19.906H1511.46ZM1513.02 21.754C1513.33 22.37 1513.64 23.196 1513.78 23.742L1514.66 23.364C1514.52 22.846 1514.19 22.034 1513.85 21.432L1513.02 21.754ZM1513.32 18.156C1513.23 18.772 1513.02 19.654 1512.84 20.242L1513.86 20.494C1514.1 19.962 1514.4 19.15 1514.66 18.394L1513.32 18.156ZM1510.52 24.204V25.31H1515.77V24.204H1510.52ZM1512.98 26.066C1513.36 26.724 1513.77 27.606 1513.92 28.194L1514.79 27.788C1514.61 27.242 1514.2 26.374 1513.79 25.716L1512.98 26.066ZM1532.57 18.856V20.06H1536.33V18.856H1532.57ZM1532.57 22.048V23.224H1536.33V22.048H1532.57ZM1532.55 25.282V26.472H1536.36V25.282H1532.55ZM1535.76 18.856V29.608C1535.76 29.818 1535.68 29.888 1535.48 29.888C1535.27 29.902 1534.57 29.902 1533.9 29.874C1534.07 30.21 1534.25 30.798 1534.29 31.148C1535.33 31.148 1536.01 31.12 1536.45 30.91C1536.89 30.7 1537.03 30.322 1537.03 29.622V18.856H1535.76ZM1532.02 18.856V23.966C1532.02 25.982 1531.92 28.642 1530.8 30.476C1531.1 30.602 1531.64 30.994 1531.85 31.232C1533.09 29.244 1533.27 26.15 1533.27 23.966V18.856H1532.02ZM1524.66 19.962V21.124H1531.43V19.962H1524.66ZM1526.38 22.188V23.224H1529.84V22.188H1526.38ZM1526.38 24.386V25.422H1529.85V24.386H1526.38ZM1524.48 26.626V27.802H1531.39V26.626H1524.48ZM1525.81 18.352V27.074H1527.01V18.352H1525.81ZM1529.21 18.352V27.074H1530.43V18.352H1529.21ZM1526.34 28.012C1525.93 28.908 1525.2 29.818 1524.43 30.42C1524.74 30.602 1525.26 30.98 1525.51 31.204C1526.27 30.504 1527.08 29.426 1527.6 28.376L1526.34 28.012ZM1528.38 28.53C1528.93 29.188 1529.59 30.112 1529.85 30.672L1530.93 30.042C1530.62 29.468 1529.95 28.614 1529.39 27.984L1528.38 28.53ZM1543.61 20.2V21.432H1551.34V20.2H1543.61ZM1545.39 21.642C1544.87 22.594 1543.96 23.756 1543.07 24.484C1543.35 24.68 1543.78 25.044 1543.99 25.296C1544.92 24.498 1545.9 23.308 1546.57 22.174L1545.39 21.642ZM1548 22.258C1548.91 23.126 1549.96 24.372 1550.39 25.212L1551.37 24.372C1550.89 23.56 1549.82 22.37 1548.91 21.516L1548 22.258ZM1545.78 24.176L1544.64 24.47C1545.76 27.648 1547.7 30 1550.73 31.092C1550.92 30.728 1551.31 30.182 1551.62 29.916C1548.74 29.02 1546.74 26.892 1545.78 24.176ZM1545.98 18.534C1546.41 19.066 1546.86 19.836 1547.06 20.34L1548.26 19.794C1548.05 19.304 1547.59 18.604 1547.13 18.072L1545.98 18.534ZM1538.8 21.068V22.3H1543.26V21.068H1538.8ZM1540.55 18.184V31.176H1541.77V18.184H1540.55ZM1540.42 21.852C1540.06 23.784 1539.23 26.164 1538.34 27.41C1538.56 27.746 1538.87 28.334 1538.99 28.698C1539.93 27.242 1540.77 24.428 1541.16 22.146L1540.42 21.852ZM1541.74 22.776L1541.14 23.308C1541.51 23.994 1542.38 25.744 1542.69 26.57L1543.46 25.576C1543.21 25.128 1542.05 23.196 1541.74 22.776ZM1548.53 24.134C1547.74 26.948 1545.85 28.992 1542.97 30.182C1543.24 30.406 1543.63 30.91 1543.81 31.19C1546.9 29.874 1548.85 27.662 1549.8 24.456L1548.53 24.134ZM1561.65 28.376C1562.64 29.174 1563.94 30.322 1564.56 31.05L1565.57 30.182C1564.92 29.468 1563.59 28.362 1562.6 27.606L1561.65 28.376ZM1562.95 22.23C1561.98 24.12 1559.88 26.01 1557.47 27.06C1557.71 27.312 1558.06 27.774 1558.22 28.068C1560.78 26.878 1562.95 24.862 1564.21 22.65L1562.95 22.23ZM1563.9 24.806C1562.71 27.116 1560.05 29.09 1556.77 30.084C1557.01 30.364 1557.39 30.882 1557.54 31.19C1560.99 30.056 1563.72 27.942 1565.26 25.296L1563.9 24.806ZM1557.57 19.99V21.208H1565.44V19.99H1557.57ZM1558.05 24.988C1558.05 24.638 1559.59 24.19 1559.59 24.19C1560.22 23.322 1561.27 21.586 1561.84 20.634H1560.44C1560.06 21.278 1559.03 22.972 1558.71 23.322C1558.47 23.588 1558.02 23.686 1557.71 23.756C1557.82 24.036 1558.01 24.666 1558.05 24.988ZM1558.05 24.988C1558.38 24.848 1558.92 24.764 1562.39 24.54C1562.44 24.274 1562.61 23.77 1562.77 23.448L1558.71 23.658L1558.03 24.036L1558.05 24.988ZM1560.47 18.478C1560.79 19.094 1561.09 19.92 1561.18 20.452L1562.5 20.004C1562.4 19.486 1562.04 18.688 1561.7 18.1L1560.47 18.478ZM1552.71 20.858V22.076H1557.29V20.858H1552.71ZM1554.52 18.184V31.176H1555.78V18.184H1554.52ZM1554.55 21.712C1554.17 23.602 1553.3 25.94 1552.38 27.158C1552.6 27.494 1552.91 28.096 1553.04 28.474C1554.02 27.032 1554.9 24.274 1555.3 21.992L1554.55 21.712ZM1555.71 22.51L1555.11 22.986C1555.47 23.616 1556.33 25.254 1556.63 26.01L1557.42 25.1C1557.17 24.666 1556.03 22.902 1555.71 22.51ZM1575.73 24.596C1575 25.282 1573.6 25.898 1572.38 26.248C1572.64 26.444 1572.94 26.766 1573.11 27.018C1574.43 26.584 1575.84 25.884 1576.71 25.002L1575.73 24.596ZM1577.07 25.968C1576.14 26.934 1574.3 27.69 1572.54 28.068C1572.78 28.306 1573.04 28.67 1573.2 28.922C1575.1 28.418 1576.96 27.564 1578.05 26.374L1577.07 25.968ZM1578.26 27.494C1577.03 28.894 1574.51 29.72 1571.8 30.112C1572.05 30.392 1572.34 30.84 1572.47 31.162C1575.39 30.63 1577.97 29.664 1579.4 27.97L1578.26 27.494ZM1573.84 18.17C1573.29 19.654 1572.31 21.068 1571.21 21.964C1571.5 22.146 1571.99 22.524 1572.2 22.748C1573.32 21.726 1574.4 20.144 1575.06 18.478L1573.84 18.17ZM1573.91 19.668L1573.27 20.746H1578.01V19.668H1573.91ZM1573.69 20.312L1572.86 20.886C1573.77 22.58 1575.81 24.386 1578.92 25.114C1579.09 24.792 1579.41 24.302 1579.66 24.05C1576.56 23.49 1574.53 21.88 1573.69 20.312ZM1570.24 22.132V28.908H1571.35V22.132H1570.24ZM1569.15 18.254C1568.51 20.368 1567.43 22.482 1566.24 23.84C1566.46 24.19 1566.8 24.918 1566.91 25.24C1568.31 23.588 1569.58 21.04 1570.38 18.604L1569.15 18.254ZM1568 21.852V31.176H1569.26V20.662L1569.22 20.634L1568 21.852ZM1577.84 19.668V19.864C1576.86 22.23 1574.12 23.644 1571.24 24.19C1571.46 24.442 1571.74 24.904 1571.87 25.198C1574.97 24.47 1577.84 22.944 1579.05 19.99L1578.28 19.612L1578.07 19.668H1577.84ZM1581.46 19.248C1582.21 19.962 1583.18 20.956 1583.63 21.586L1584.56 20.648C1584.1 20.032 1583.09 19.08 1582.35 18.408L1581.46 19.248ZM1580.66 22.552V23.826H1583.88V22.552H1580.66ZM1585.63 19.318V20.648H1593.48V19.318H1585.63ZM1589.67 19.766V29.356C1589.67 29.608 1589.58 29.692 1589.3 29.706C1589 29.72 1587.98 29.734 1587 29.678C1587.22 30.056 1587.48 30.714 1587.55 31.12C1588.86 31.12 1589.76 31.078 1590.33 30.854C1590.89 30.616 1591.07 30.196 1591.07 29.37V19.766H1589.67ZM1582.77 30.896C1583.02 30.588 1583.5 30.252 1586.52 28.166C1586.38 27.9 1586.22 27.34 1586.15 26.962L1582.87 29.104L1582.51 29.608L1582.77 30.896ZM1582.77 30.896C1582.77 30.406 1584.17 29.524 1584.17 29.524V22.552H1582.9V28.502C1582.9 29.132 1582.42 29.58 1582.13 29.762C1582.35 30.028 1582.67 30.574 1582.77 30.896Z" fill="#909399"/>
</g>
<rect x="1500" y="95" width="200" height="1" fill="#E4E7ED"/>
<rect x="1500" y="143" width="200" height="1" fill="#E4E7ED"/>
<rect x="1500" y="191" width="200" height="1" fill="#E4E7ED"/>
<rect x="1500" y="239" width="200" height="1" fill="#E4E7ED"/>
<rect x="1500" y="287" width="200" height="1" fill="#E4E7ED"/>
<rect x="1500" y="335" width="200" height="1" fill="#E4E7ED"/>
<rect x="1500" y="383" width="200" height="1" fill="#E4E7ED"/>
<rect x="1500" y="431" width="200" height="1" fill="#E4E7ED"/>
<rect x="1500" y="479" width="200" height="1" fill="#E4E7ED"/>
<rect x="1500" y="527" width="200" height="1" fill="#E4E7ED"/>
</g>
<rect x="1500.5" y="0.5" width="199" height="527" stroke="#E4E7ED"/>
<g clip-path="url(#clip30_27347_63245)">
<rect width="100" height="48" transform="translate(1700)" fill="#F2F2F2"/>
<rect x="1700" y="47" width="100" height="1" fill="#E4E7ED"/>
<g clip-path="url(#clip31_27347_63245)">
<path d="M1715.26 19.402V20.466H1723.15V19.402H1715.26ZM1719.72 29.3C1720.67 29.832 1721.91 30.658 1722.52 31.19L1723.38 30.28C1722.75 29.748 1721.48 28.978 1720.53 28.474L1719.72 29.3ZM1717.55 28.474C1716.85 29.076 1715.49 29.832 1714.42 30.266C1714.69 30.518 1715.05 30.91 1715.25 31.176C1716.33 30.7 1717.71 29.944 1718.62 29.244L1717.55 28.474ZM1714.77 27.452V28.586H1723.51V27.452H1714.77ZM1716.5 22.944V23.686H1721.84V22.944H1716.5ZM1716.48 24.4V25.156H1721.93V24.4H1716.48ZM1716.51 25.898V26.668H1721.75V25.898H1716.51ZM1715.95 21.292V27.774H1717.11V22.188H1721.1V27.774H1722.31V21.292H1715.95ZM1718.5 18.212C1718.39 19.318 1718.12 20.914 1717.88 21.908L1718.97 22.034C1719.28 21.082 1719.65 19.57 1719.9 18.268L1718.5 18.212ZM1710.53 21.502V22.762H1714.82V21.502H1710.53ZM1712.03 18.366V27.676H1713.29V18.366H1712.03ZM1710.39 27.998L1710.88 29.328C1712.06 28.866 1713.51 28.264 1714.9 27.69L1714.69 26.514C1713.11 27.088 1711.47 27.676 1710.39 27.998ZM1725.01 18.898V21.824H1726.32V20.13H1735.61V21.824H1736.98V18.898H1725.01ZM1728.55 21.838V22.986H1735.19V21.838H1728.55ZM1727.99 24.512V25.688H1734.75V24.512H1727.99ZM1725.23 26.962V28.18H1733.11V26.962H1725.23ZM1734.36 24.512L1734.35 24.708C1734.09 27.914 1733.79 29.328 1733.34 29.692C1733.18 29.832 1733 29.86 1732.69 29.86C1732.3 29.86 1731.38 29.846 1730.43 29.762C1730.66 30.098 1730.83 30.63 1730.86 31.008C1731.77 31.05 1732.68 31.064 1733.16 31.022C1733.73 30.994 1734.09 30.882 1734.46 30.518C1735 29.958 1735.33 28.544 1735.65 25.086C1735.68 24.904 1735.69 24.512 1735.69 24.512H1734.36ZM1728.09 20.354C1727.79 22.048 1727.3 24.316 1726.93 25.688H1728.3C1728.63 24.386 1729.1 22.188 1729.42 20.48L1728.09 20.354ZM1743.01 20.116V21.32H1751.37V20.116H1743.01ZM1744.82 18.184V23.042H1746.09V18.184H1744.82ZM1748.33 18.184V23.042H1749.61V18.184H1748.33ZM1743.57 23.588V31.134H1744.78V24.75H1749.63V31.064H1750.89V23.588H1743.57ZM1744.24 26.416V27.564H1750.21V26.416H1744.24ZM1744.27 29.272V30.434H1750.24V29.272H1744.27ZM1746.58 24.134V30.112H1747.79V24.134H1746.58ZM1738.34 25.478L1738.66 26.766C1739.86 26.402 1741.4 25.926 1742.84 25.464L1742.68 24.26C1741.09 24.722 1739.44 25.212 1738.34 25.478ZM1738.55 20.942V22.16H1742.76V20.942H1738.55ZM1740.14 18.198V29.58C1740.14 29.776 1740.07 29.832 1739.9 29.832C1739.74 29.846 1739.22 29.846 1738.64 29.832C1738.81 30.182 1738.97 30.728 1739.01 31.05C1739.9 31.05 1740.48 31.008 1740.84 30.798C1741.23 30.602 1741.36 30.252 1741.36 29.594V18.198H1740.14ZM1756.47 20.83V22.076H1765.19V20.83H1756.47ZM1762.04 19.01C1762.61 19.542 1763.34 20.298 1763.68 20.774L1764.73 20.088C1764.36 19.612 1763.61 18.898 1763.05 18.394L1762.04 19.01ZM1760.18 18.324V28.978H1761.51V18.324H1760.18ZM1755.79 23.196H1752.6V24.428H1754.52V28.796H1755.79V23.196ZM1752.81 19.388C1753.55 20.2 1754.46 21.32 1754.86 22.034L1755.98 21.32C1755.54 20.606 1754.6 19.542 1753.86 18.772L1752.81 19.388ZM1755.23 28.236C1754.46 28.236 1753.44 28.936 1752.46 29.86L1753.29 30.994C1753.99 30.168 1754.72 29.384 1755.22 29.384C1755.56 29.384 1756 29.79 1756.62 30.112C1757.63 30.658 1758.83 30.812 1760.5 30.812C1761.84 30.812 1764.19 30.728 1765.16 30.658C1765.19 30.308 1765.38 29.678 1765.52 29.342C1764.17 29.51 1762.07 29.622 1760.54 29.622C1759.04 29.622 1757.8 29.524 1756.87 29.034C1756.07 28.614 1755.72 28.236 1755.23 28.236ZM1759.8 21.306C1759.1 23.546 1757.71 25.884 1756.21 27.074C1756.49 27.298 1756.93 27.76 1757.14 28.068C1758.69 26.668 1760.08 24.162 1760.88 21.6L1759.8 21.306ZM1760.53 22.454C1761.94 23.98 1763.59 26.108 1764.29 27.452L1765.33 26.696C1764.59 25.338 1762.86 23.294 1761.46 21.81L1760.53 22.454Z" fill="#909399"/>
</g>
<rect x="1700" y="95" width="100" height="1" fill="#E4E7ED"/>
<rect x="1700" y="143" width="100" height="1" fill="#E4E7ED"/>
<rect x="1700" y="191" width="100" height="1" fill="#E4E7ED"/>
<rect x="1700" y="239" width="100" height="1" fill="#E4E7ED"/>
<rect x="1700" y="287" width="100" height="1" fill="#E4E7ED"/>
<rect x="1700" y="335" width="100" height="1" fill="#E4E7ED"/>
<rect x="1700" y="383" width="100" height="1" fill="#E4E7ED"/>
<rect x="1700" y="431" width="100" height="1" fill="#E4E7ED"/>
<rect x="1700" y="479" width="100" height="1" fill="#E4E7ED"/>
<rect x="1700" y="527" width="100" height="1" fill="#E4E7ED"/>
</g>
<rect x="1700.5" y="0.5" width="99" height="527" stroke="#E4E7ED"/>
<defs>
<clipPath id="clip0_27347_63245">
<rect width="100" height="528" fill="white"/>
</clipPath>
<clipPath id="clip1_27347_63245">
<rect width="28" height="22" fill="white" transform="translate(10 13)"/>
</clipPath>
<clipPath id="clip2_27347_63245">
<rect x="100" width="100" height="528" fill="white"/>
</clipPath>
<clipPath id="clip3_27347_63245">
<rect width="28" height="22" fill="white" transform="translate(110 13)"/>
</clipPath>
<clipPath id="clip4_27347_63245">
<rect x="200" width="100" height="528" fill="white"/>
</clipPath>
<clipPath id="clip5_27347_63245">
<rect width="28" height="22" fill="white" transform="translate(210 13)"/>
</clipPath>
<clipPath id="clip6_27347_63245">
<rect x="300" width="100" height="528" fill="white"/>
</clipPath>
<clipPath id="clip7_27347_63245">
<rect width="56" height="22" fill="white" transform="translate(310 13)"/>
</clipPath>
<clipPath id="clip8_27347_63245">
<rect x="400" width="100" height="528" fill="white"/>
</clipPath>
<clipPath id="clip9_27347_63245">
<rect width="28" height="22" fill="white" transform="translate(410 13)"/>
</clipPath>
<clipPath id="clip10_27347_63245">
<rect x="500" width="100" height="528" fill="white"/>
</clipPath>
<clipPath id="clip11_27347_63245">
<rect width="28" height="22" fill="white" transform="translate(510 13)"/>
</clipPath>
<clipPath id="clip12_27347_63245">
<rect x="600" width="100" height="528" fill="white"/>
</clipPath>
<clipPath id="clip13_27347_63245">
<rect width="42" height="22" fill="white" transform="translate(610 13)"/>
</clipPath>
<clipPath id="clip14_27347_63245">
<rect x="700" width="100" height="528" fill="white"/>
</clipPath>
<clipPath id="clip15_27347_63245">
<rect width="56" height="22" fill="white" transform="translate(710 13)"/>
</clipPath>
<clipPath id="clip16_27347_63245">
<rect x="800" width="100" height="528" fill="white"/>
</clipPath>
<clipPath id="clip17_27347_63245">
<rect width="70" height="22" fill="white" transform="translate(810 13)"/>
</clipPath>
<clipPath id="clip18_27347_63245">
<rect x="900" width="100" height="528" fill="white"/>
</clipPath>
<clipPath id="clip19_27347_63245">
<rect width="70" height="22" fill="white" transform="translate(910 13)"/>
</clipPath>
<clipPath id="clip20_27347_63245">
<path d="M1000 0H1100V528H1000V0Z" fill="white"/>
</clipPath>
<clipPath id="clip21_27347_63245">
<rect width="56" height="22" fill="white" transform="translate(1010 13)"/>
</clipPath>
<clipPath id="clip22_27347_63245">
<rect x="1100" width="200" height="528" fill="white"/>
</clipPath>
<clipPath id="clip23_27347_63245">
<rect width="84" height="22" fill="white" transform="translate(1110 13)"/>
</clipPath>
<clipPath id="clip24_27347_63245">
<rect x="1300" width="100" height="528" fill="white"/>
</clipPath>
<clipPath id="clip25_27347_63245">
<rect width="56" height="22" fill="white" transform="translate(1310 13)"/>
</clipPath>
<clipPath id="clip26_27347_63245">
<path d="M1400 0H1500V528H1400V0Z" fill="white"/>
</clipPath>
<clipPath id="clip27_27347_63245">
<rect width="56" height="22" fill="white" transform="translate(1410 13)"/>
</clipPath>
<clipPath id="clip28_27347_63245">
<rect x="1500" width="200" height="528" fill="white"/>
</clipPath>
<clipPath id="clip29_27347_63245">
<rect width="84" height="22" fill="white" transform="translate(1510 13)"/>
</clipPath>
<clipPath id="clip30_27347_63245">
<rect x="1700" width="100" height="528" fill="white"/>
</clipPath>
<clipPath id="clip31_27347_63245">
<rect width="56" height="22" fill="white" transform="translate(1710 13)"/>
</clipPath>
</defs>
</svg>
