<svg width="973" height="192" viewBox="0 0 973 192" fill="none" xmlns="http://www.w3.org/2000/svg">
<rect width="973" height="192" fill="white"/>
<g clip-path="url(#clip0_27386_65101)">
<g clip-path="url(#clip1_27386_65101)">
<rect width="113.667" height="48" fill="#F2F2F2"/>
<rect y="47" width="114" height="1" fill="#E4E7ED"/>
<g clip-path="url(#clip2_27386_65101)">
<path d="M14.088 21.782V22.846H21.06V21.782H14.088ZM13.346 25.324V26.458H22.348V25.324H13.346ZM17.476 25.772V29.734C17.476 29.93 17.406 29.972 17.126 29.986C16.874 30 15.894 30 14.942 29.972C15.124 30.322 15.334 30.826 15.39 31.19C16.636 31.19 17.504 31.204 18.064 31.008C18.638 30.826 18.806 30.476 18.806 29.762V25.772H17.476ZM21.942 25.324V25.506C21.466 26.36 20.766 27.382 20.192 28.026L21.256 28.53C21.928 27.802 22.67 26.668 23.328 25.646L22.376 25.254L22.166 25.324H21.942ZM20.654 21.782V22.034C20.052 22.762 18.778 23.784 17.672 24.33C17.882 24.512 18.218 24.862 18.386 25.086C19.73 24.442 21.158 23.378 22.138 22.37L21.284 21.712L20.99 21.782H20.654ZM12.254 19.696V20.928H23.342V19.696H12.254ZM11.61 19.696V23.56C11.61 25.604 11.512 28.488 10.35 30.49C10.658 30.63 11.232 31.008 11.47 31.232C12.702 29.076 12.898 25.786 12.898 23.56V19.696H11.61ZM15.18 24.078C16.496 24.652 18.246 25.52 19.114 26.08L19.954 25.212C19.03 24.666 17.252 23.84 15.978 23.322L15.18 24.078ZM16.51 18.464C16.79 19.052 17.14 19.85 17.294 20.326L18.666 19.892C18.484 19.43 18.12 18.66 17.812 18.1L16.51 18.464ZM27.822 19.892H34.08V21.53H27.822V19.892ZM26.506 18.73V22.692H35.48V18.73H26.506ZM24.812 23.784V24.988H37.118V23.784H24.812ZM27.486 26.332V27.536H34.5V26.332H27.486ZM34.094 26.332V26.514C33.828 28.558 33.534 29.524 33.142 29.818C32.974 29.93 32.792 29.944 32.47 29.944C32.064 29.944 31.042 29.93 30.076 29.846C30.314 30.196 30.51 30.728 30.538 31.106C31.504 31.162 32.428 31.162 32.932 31.134C33.52 31.106 33.912 31.022 34.29 30.686C34.794 30.224 35.144 29.174 35.452 26.906C35.48 26.724 35.522 26.332 35.522 26.332H34.094ZM27.808 24.274C27.5 25.338 27.052 26.668 26.674 27.536H28.2C28.494 26.752 28.928 25.506 29.222 24.47L27.808 24.274Z" fill="#909399"/>
</g>
</g>
<g clip-path="url(#clip3_27386_65101)">
<rect width="113.667" height="48" transform="translate(0 48)" fill="#F4F4F5"/>
<rect y="95" width="113.667" height="1" fill="#E4E7ED"/>
<g clip-path="url(#clip4_27386_65101)">
<path d="M11.19 78H17.084V76.67H15.068V67.696H13.85C13.248 68.06 12.576 68.312 11.596 68.48V69.502H13.458V76.67H11.19V78Z" fill="#909399"/>
</g>
</g>
<g clip-path="url(#clip5_27386_65101)">
<rect width="113.667" height="48" transform="translate(0 96)" fill="white"/>
<rect y="143" width="113.667" height="1" fill="#E4E7ED"/>
<g clip-path="url(#clip6_27386_65101)">
<path d="M10.602 126H17.266V124.628H14.69C14.186 124.628 13.528 124.684 12.996 124.74C15.18 122.64 16.776 120.582 16.776 118.608C16.776 116.732 15.558 115.514 13.668 115.514C12.324 115.514 11.414 116.088 10.518 117.054L11.442 117.936C11.988 117.306 12.66 116.802 13.472 116.802C14.62 116.802 15.208 117.572 15.208 118.678C15.208 120.372 13.654 122.374 10.602 125.062V126Z" fill="#909399"/>
</g>
</g>
<rect width="113.667" height="48" transform="translate(0 144)" fill="white"/>
<g clip-path="url(#clip7_27386_65101)">
<path d="M13.738 174.196C15.642 174.196 17.196 173.104 17.196 171.242C17.196 169.842 16.258 168.96 15.068 168.652V168.582C16.16 168.176 16.846 167.35 16.846 166.16C16.846 164.466 15.544 163.514 13.696 163.514C12.506 163.514 11.554 164.018 10.728 164.746L11.582 165.768C12.17 165.18 12.842 164.802 13.626 164.802C14.62 164.802 15.208 165.376 15.208 166.286C15.208 167.322 14.536 168.078 12.52 168.078V169.282C14.83 169.282 15.558 170.01 15.558 171.158C15.558 172.222 14.76 172.866 13.612 172.866C12.534 172.866 11.778 172.348 11.176 171.732L10.378 172.768C11.078 173.552 12.128 174.196 13.738 174.196Z" fill="#909399"/>
</g>
</g>
<rect x="0.5" y="0.5" width="112.667" height="191" stroke="#E4E7ED"/>
<g clip-path="url(#clip8_27386_65101)">
<g clip-path="url(#clip9_27386_65101)">
<rect width="164" height="48" transform="translate(113.667)" fill="#F2F2F2"/>
<rect x="113.667" y="47" width="164" height="1" fill="#E4E7ED"/>
<g clip-path="url(#clip10_27386_65101)">
<path d="M125.333 19.332V20.522H128.049V27.396H125.333V28.586H129.281V19.332H125.333ZM125.403 23.308V24.484H128.441V23.308H125.403ZM124.703 19.332V29.706H125.949V19.332H124.703ZM129.869 20.9V22.202H137.177V20.9H129.869ZM134.251 18.268V29.314C134.251 29.594 134.139 29.692 133.845 29.692C133.537 29.706 132.515 29.706 131.465 29.664C131.661 30.042 131.871 30.644 131.941 31.008C133.341 31.022 134.279 30.994 134.825 30.77C135.385 30.56 135.595 30.182 135.595 29.314V18.268H134.251ZM130.205 23.826C130.919 24.876 131.843 26.318 132.277 27.158L133.453 26.472C132.977 25.646 132.025 24.274 131.297 23.252L130.205 23.826ZM138.815 21.432V31.176H140.173V21.432H138.815ZM139.011 18.968C139.655 19.612 140.383 20.508 140.691 21.096L141.797 20.382C141.461 19.78 140.705 18.926 140.047 18.338L139.011 18.968ZM142.511 18.94V20.172H149.973V18.94H142.511ZM149.231 18.94V29.664C149.231 29.846 149.175 29.916 148.993 29.916C148.825 29.916 148.265 29.93 147.747 29.902C147.915 30.238 148.083 30.77 148.139 31.106C149.007 31.106 149.637 31.092 150.057 30.882C150.463 30.672 150.589 30.35 150.589 29.678V18.94H149.231ZM143.113 25.954H146.193V27.606H143.113V25.954ZM143.113 23.238H146.193V24.876H143.113V23.238ZM141.923 22.16V28.684H147.439V22.16H141.923Z" fill="#909399"/>
</g>
</g>
<g clip-path="url(#clip11_27386_65101)">
<rect width="164" height="48" transform="translate(113.667 48)" fill="#F4F4F5"/>
<rect x="113.667" y="95" width="164" height="1" fill="#E4E7ED"/>
<g clip-path="url(#clip12_27386_65101)">
<path d="M124.269 78H130.933V76.628H128.357C127.853 76.628 127.195 76.684 126.663 76.74C128.847 74.64 130.443 72.582 130.443 70.608C130.443 68.732 129.225 67.514 127.335 67.514C125.991 67.514 125.081 68.088 124.185 69.054L125.109 69.936C125.655 69.306 126.327 68.802 127.139 68.802C128.287 68.802 128.875 69.572 128.875 70.678C128.875 72.372 127.321 74.374 124.269 77.062V78ZM135.641 78.196C137.657 78.196 138.973 76.39 138.973 72.806C138.973 69.25 137.657 67.514 135.641 67.514C133.611 67.514 132.309 69.25 132.309 72.806C132.309 76.39 133.611 78.196 135.641 78.196ZM135.641 76.908C134.591 76.908 133.849 75.788 133.849 72.806C133.849 69.866 134.591 68.774 135.641 68.774C136.691 68.774 137.419 69.866 137.419 72.806C137.419 75.788 136.691 76.908 135.641 76.908ZM140.238 78H146.902V76.628H144.326C143.822 76.628 143.164 76.684 142.632 76.74C144.816 74.64 146.412 72.582 146.412 70.608C146.412 68.732 145.194 67.514 143.304 67.514C141.96 67.514 141.05 68.088 140.154 69.054L141.078 69.936C141.624 69.306 142.296 68.802 143.108 68.802C144.256 68.802 144.844 69.572 144.844 70.678C144.844 72.372 143.29 74.374 140.238 77.062V78ZM148.222 78H154.886V76.628H152.31C151.806 76.628 151.148 76.684 150.616 76.74C152.8 74.64 154.396 72.582 154.396 70.608C154.396 68.732 153.178 67.514 151.288 67.514C149.944 67.514 149.034 68.088 148.138 69.054L149.062 69.936C149.608 69.306 150.28 68.802 151.092 68.802C152.24 68.802 152.828 69.572 152.828 70.678C152.828 72.372 151.274 74.374 148.222 77.062V78ZM156.262 74.654H159.958V73.45H156.262V74.654ZM164.598 78.196C166.614 78.196 167.93 76.39 167.93 72.806C167.93 69.25 166.614 67.514 164.598 67.514C162.568 67.514 161.266 69.25 161.266 72.806C161.266 76.39 162.568 78.196 164.598 78.196ZM164.598 76.908C163.548 76.908 162.806 75.788 162.806 72.806C162.806 69.866 163.548 68.774 164.598 68.774C165.648 68.774 166.376 69.866 166.376 72.806C166.376 75.788 165.648 76.908 164.598 76.908ZM172.597 78.196C174.585 78.196 175.929 77.02 175.929 75.494C175.929 74.08 175.117 73.282 174.193 72.764V72.694C174.823 72.204 175.537 71.322 175.537 70.258C175.537 68.648 174.431 67.542 172.639 67.542C170.945 67.542 169.685 68.592 169.685 70.202C169.685 71.28 170.301 72.064 171.071 72.61V72.666C170.119 73.17 169.237 74.094 169.237 75.452C169.237 77.048 170.651 78.196 172.597 78.196ZM173.269 72.288C172.121 71.826 171.141 71.308 171.141 70.202C171.141 69.278 171.771 68.704 172.611 68.704C173.605 68.704 174.193 69.418 174.193 70.356C174.193 71.056 173.885 71.714 173.269 72.288ZM172.625 77.02C171.505 77.02 170.651 76.306 170.651 75.284C170.651 74.388 171.155 73.632 171.869 73.128C173.269 73.716 174.403 74.192 174.403 75.438C174.403 76.404 173.675 77.02 172.625 77.02ZM177.235 74.654H180.931V73.45H177.235V74.654ZM182.183 78H188.847V76.628H186.271C185.767 76.628 185.109 76.684 184.577 76.74C186.761 74.64 188.357 72.582 188.357 70.608C188.357 68.732 187.139 67.514 185.249 67.514C183.905 67.514 182.995 68.088 182.099 69.054L183.023 69.936C183.569 69.306 184.241 68.802 185.053 68.802C186.201 68.802 186.789 69.572 186.789 70.678C186.789 72.372 185.235 74.374 182.183 77.062V78ZM190.167 78H196.831V76.628H194.255C193.751 76.628 193.093 76.684 192.561 76.74C194.745 74.64 196.341 72.582 196.341 70.608C196.341 68.732 195.123 67.514 193.233 67.514C191.889 67.514 190.979 68.088 190.083 69.054L191.007 69.936C191.553 69.306 192.225 68.802 193.037 68.802C194.185 68.802 194.773 69.572 194.773 70.678C194.773 72.372 193.219 74.374 190.167 77.062V78ZM201.884 78H207.778V76.67H205.762V67.696H204.544C203.942 68.06 203.27 68.312 202.29 68.48V69.502H204.152V76.67H201.884V78ZM213.411 78H214.923V67.696H213.047L208.959 74.15V75.242H216.239V73.982H210.583L212.599 70.888C212.893 70.356 213.173 69.81 213.425 69.292H213.495C213.453 69.852 213.411 70.734 213.411 71.28V78ZM218.749 72.694C219.351 72.694 219.827 72.218 219.827 71.56C219.827 70.902 219.351 70.426 218.749 70.426C218.133 70.426 217.671 70.902 217.671 71.56C217.671 72.218 218.133 72.694 218.749 72.694ZM218.749 78.196C219.351 78.196 219.827 77.72 219.827 77.062C219.827 76.39 219.351 75.928 218.749 75.928C218.133 75.928 217.671 76.39 217.671 77.062C217.671 77.72 218.133 78.196 218.749 78.196ZM221.435 78H228.099V76.628H225.523C225.019 76.628 224.361 76.684 223.829 76.74C226.013 74.64 227.609 72.582 227.609 70.608C227.609 68.732 226.391 67.514 224.501 67.514C223.157 67.514 222.247 68.088 221.351 69.054L222.275 69.936C222.821 69.306 223.493 68.802 224.305 68.802C225.453 68.802 226.041 69.572 226.041 70.678C226.041 72.372 224.487 74.374 221.435 77.062V78ZM232.555 78.196C234.459 78.196 236.013 77.104 236.013 75.242C236.013 73.842 235.075 72.96 233.885 72.652V72.582C234.977 72.176 235.663 71.35 235.663 70.16C235.663 68.466 234.361 67.514 232.513 67.514C231.323 67.514 230.371 68.018 229.545 68.746L230.399 69.768C230.987 69.18 231.659 68.802 232.443 68.802C233.437 68.802 234.025 69.376 234.025 70.286C234.025 71.322 233.353 72.078 231.337 72.078V73.282C233.647 73.282 234.375 74.01 234.375 75.158C234.375 76.222 233.577 76.866 232.429 76.866C231.351 76.866 230.595 76.348 229.993 75.732L229.195 76.768C229.895 77.552 230.945 78.196 232.555 78.196ZM238.888 72.694C239.49 72.694 239.966 72.218 239.966 71.56C239.966 70.902 239.49 70.426 238.888 70.426C238.272 70.426 237.81 70.902 237.81 71.56C237.81 72.218 238.272 72.694 238.888 72.694ZM238.888 78.196C239.49 78.196 239.966 77.72 239.966 77.062C239.966 76.39 239.49 75.928 238.888 75.928C238.272 75.928 237.81 76.39 237.81 77.062C237.81 77.72 238.272 78.196 238.888 78.196ZM244.962 78.196C246.978 78.196 248.294 76.39 248.294 72.806C248.294 69.25 246.978 67.514 244.962 67.514C242.932 67.514 241.63 69.25 241.63 72.806C241.63 76.39 242.932 78.196 244.962 78.196ZM244.962 76.908C243.912 76.908 243.17 75.788 243.17 72.806C243.17 69.866 243.912 68.774 244.962 68.774C246.012 68.774 246.74 69.866 246.74 72.806C246.74 75.788 246.012 76.908 244.962 76.908ZM252.694 78.196C254.598 78.196 256.152 77.104 256.152 75.242C256.152 73.842 255.214 72.96 254.024 72.652V72.582C255.116 72.176 255.802 71.35 255.802 70.16C255.802 68.466 254.5 67.514 252.652 67.514C251.462 67.514 250.51 68.018 249.684 68.746L250.538 69.768C251.126 69.18 251.798 68.802 252.582 68.802C253.576 68.802 254.164 69.376 254.164 70.286C254.164 71.322 253.492 72.078 251.476 72.078V73.282C253.786 73.282 254.514 74.01 254.514 75.158C254.514 76.222 253.716 76.866 252.568 76.866C251.49 76.866 250.734 76.348 250.132 75.732L249.334 76.768C250.034 77.552 251.084 78.196 252.694 78.196Z" fill="#909399"/>
</g>
</g>
<g clip-path="url(#clip13_27386_65101)">
<rect width="164" height="48" transform="translate(113.667 96)" fill="white"/>
<rect x="113.667" y="143" width="164" height="1" fill="#E4E7ED"/>
<g clip-path="url(#clip14_27386_65101)">
<path d="M124.269 126H130.933V124.628H128.357C127.853 124.628 127.195 124.684 126.663 124.74C128.847 122.64 130.443 120.582 130.443 118.608C130.443 116.732 129.225 115.514 127.335 115.514C125.991 115.514 125.081 116.088 124.185 117.054L125.109 117.936C125.655 117.306 126.327 116.802 127.139 116.802C128.287 116.802 128.875 117.572 128.875 118.678C128.875 120.372 127.321 122.374 124.269 125.062V126ZM135.641 126.196C137.657 126.196 138.973 124.39 138.973 120.806C138.973 117.25 137.657 115.514 135.641 115.514C133.611 115.514 132.309 117.25 132.309 120.806C132.309 124.39 133.611 126.196 135.641 126.196ZM135.641 124.908C134.591 124.908 133.849 123.788 133.849 120.806C133.849 117.866 134.591 116.774 135.641 116.774C136.691 116.774 137.419 117.866 137.419 120.806C137.419 123.788 136.691 124.908 135.641 124.908ZM140.238 126H146.902V124.628H144.326C143.822 124.628 143.164 124.684 142.632 124.74C144.816 122.64 146.412 120.582 146.412 118.608C146.412 116.732 145.194 115.514 143.304 115.514C141.96 115.514 141.05 116.088 140.154 117.054L141.078 117.936C141.624 117.306 142.296 116.802 143.108 116.802C144.256 116.802 144.844 117.572 144.844 118.678C144.844 120.372 143.29 122.374 140.238 125.062V126ZM148.222 126H154.886V124.628H152.31C151.806 124.628 151.148 124.684 150.616 124.74C152.8 122.64 154.396 120.582 154.396 118.608C154.396 116.732 153.178 115.514 151.288 115.514C149.944 115.514 149.034 116.088 148.138 117.054L149.062 117.936C149.608 117.306 150.28 116.802 151.092 116.802C152.24 116.802 152.828 117.572 152.828 118.678C152.828 120.372 151.274 122.374 148.222 125.062V126ZM156.262 122.654H159.958V121.45H156.262V122.654ZM164.598 126.196C166.614 126.196 167.93 124.39 167.93 120.806C167.93 117.25 166.614 115.514 164.598 115.514C162.568 115.514 161.266 117.25 161.266 120.806C161.266 124.39 162.568 126.196 164.598 126.196ZM164.598 124.908C163.548 124.908 162.806 123.788 162.806 120.806C162.806 117.866 163.548 116.774 164.598 116.774C165.648 116.774 166.376 117.866 166.376 120.806C166.376 123.788 165.648 124.908 164.598 124.908ZM172.597 126.196C174.585 126.196 175.929 125.02 175.929 123.494C175.929 122.08 175.117 121.282 174.193 120.764V120.694C174.823 120.204 175.537 119.322 175.537 118.258C175.537 116.648 174.431 115.542 172.639 115.542C170.945 115.542 169.685 116.592 169.685 118.202C169.685 119.28 170.301 120.064 171.071 120.61V120.666C170.119 121.17 169.237 122.094 169.237 123.452C169.237 125.048 170.651 126.196 172.597 126.196ZM173.269 120.288C172.121 119.826 171.141 119.308 171.141 118.202C171.141 117.278 171.771 116.704 172.611 116.704C173.605 116.704 174.193 117.418 174.193 118.356C174.193 119.056 173.885 119.714 173.269 120.288ZM172.625 125.02C171.505 125.02 170.651 124.306 170.651 123.284C170.651 122.388 171.155 121.632 171.869 121.128C173.269 121.716 174.403 122.192 174.403 123.438C174.403 124.404 173.675 125.02 172.625 125.02ZM177.235 122.654H180.931V121.45H177.235V122.654ZM182.183 126H188.847V124.628H186.271C185.767 124.628 185.109 124.684 184.577 124.74C186.761 122.64 188.357 120.582 188.357 118.608C188.357 116.732 187.139 115.514 185.249 115.514C183.905 115.514 182.995 116.088 182.099 117.054L183.023 117.936C183.569 117.306 184.241 116.802 185.053 116.802C186.201 116.802 186.789 117.572 186.789 118.678C186.789 120.372 185.235 122.374 182.183 125.062V126ZM190.167 126H196.831V124.628H194.255C193.751 124.628 193.093 124.684 192.561 124.74C194.745 122.64 196.341 120.582 196.341 118.608C196.341 116.732 195.123 115.514 193.233 115.514C191.889 115.514 190.979 116.088 190.083 117.054L191.007 117.936C191.553 117.306 192.225 116.802 193.037 116.802C194.185 116.802 194.773 117.572 194.773 118.678C194.773 120.372 193.219 122.374 190.167 125.062V126ZM201.884 126H207.778V124.67H205.762V115.696H204.544C203.942 116.06 203.27 116.312 202.29 116.48V117.502H204.152V124.67H201.884V126ZM213.411 126H214.923V115.696H213.047L208.959 122.15V123.242H216.239V121.982H210.583L212.599 118.888C212.893 118.356 213.173 117.81 213.425 117.292H213.495C213.453 117.852 213.411 118.734 213.411 119.28V126ZM218.749 120.694C219.351 120.694 219.827 120.218 219.827 119.56C219.827 118.902 219.351 118.426 218.749 118.426C218.133 118.426 217.671 118.902 217.671 119.56C217.671 120.218 218.133 120.694 218.749 120.694ZM218.749 126.196C219.351 126.196 219.827 125.72 219.827 125.062C219.827 124.39 219.351 123.928 218.749 123.928C218.133 123.928 217.671 124.39 217.671 125.062C217.671 125.72 218.133 126.196 218.749 126.196ZM222.023 126H227.917V124.67H225.901V115.696H224.683C224.081 116.06 223.409 116.312 222.429 116.48V117.502H224.291V124.67H222.023V126ZM233.115 126.196C234.781 126.196 236.195 124.852 236.195 122.808C236.195 120.624 235.019 119.574 233.283 119.574C232.513 119.574 231.561 120.05 230.959 120.862L231.029 122.038C231.645 121.1 232.387 120.736 233.003 120.736C234.095 120.736 234.697 121.478 234.697 122.808C234.697 124.138 233.997 124.95 233.101 124.95C231.841 124.95 231.057 123.704 231.057 121.044C231.057 117.894 232.163 116.83 233.535 116.83C234.137 116.83 234.767 117.152 235.145 117.6L236.027 116.62C235.439 115.99 234.599 115.514 233.451 115.514C231.407 115.514 229.559 117.096 229.559 121.044C229.559 124.544 231.155 126.196 233.115 126.196ZM238.888 120.694C239.49 120.694 239.966 120.218 239.966 119.56C239.966 118.902 239.49 118.426 238.888 118.426C238.272 118.426 237.81 118.902 237.81 119.56C237.81 120.218 238.272 120.694 238.888 120.694ZM238.888 126.196C239.49 126.196 239.966 125.72 239.966 125.062C239.966 124.39 239.49 123.928 238.888 123.928C238.272 123.928 237.81 124.39 237.81 125.062C237.81 125.72 238.272 126.196 238.888 126.196ZM244.962 126.196C246.978 126.196 248.294 124.39 248.294 120.806C248.294 117.25 246.978 115.514 244.962 115.514C242.932 115.514 241.63 117.25 241.63 120.806C241.63 124.39 242.932 126.196 244.962 126.196ZM244.962 124.908C243.912 124.908 243.17 123.788 243.17 120.806C243.17 117.866 243.912 116.774 244.962 116.774C246.012 116.774 246.74 117.866 246.74 120.806C246.74 123.788 246.012 124.908 244.962 124.908ZM252.694 126.196C254.598 126.196 256.152 125.104 256.152 123.242C256.152 121.842 255.214 120.96 254.024 120.652V120.582C255.116 120.176 255.802 119.35 255.802 118.16C255.802 116.466 254.5 115.514 252.652 115.514C251.462 115.514 250.51 116.018 249.684 116.746L250.538 117.768C251.126 117.18 251.798 116.802 252.582 116.802C253.576 116.802 254.164 117.376 254.164 118.286C254.164 119.322 253.492 120.078 251.476 120.078V121.282C253.786 121.282 254.514 122.01 254.514 123.158C254.514 124.222 253.716 124.866 252.568 124.866C251.49 124.866 250.734 124.348 250.132 123.732L249.334 124.768C250.034 125.552 251.084 126.196 252.694 126.196Z" fill="#909399"/>
</g>
</g>
<rect width="164" height="48" transform="translate(113.667 144)" fill="white"/>
<g clip-path="url(#clip15_27386_65101)">
<path d="M124.269 174H130.933V172.628H128.357C127.853 172.628 127.195 172.684 126.663 172.74C128.847 170.64 130.443 168.582 130.443 166.608C130.443 164.732 129.225 163.514 127.335 163.514C125.991 163.514 125.081 164.088 124.185 165.054L125.109 165.936C125.655 165.306 126.327 164.802 127.139 164.802C128.287 164.802 128.875 165.572 128.875 166.678C128.875 168.372 127.321 170.374 124.269 173.062V174ZM135.641 174.196C137.657 174.196 138.973 172.39 138.973 168.806C138.973 165.25 137.657 163.514 135.641 163.514C133.611 163.514 132.309 165.25 132.309 168.806C132.309 172.39 133.611 174.196 135.641 174.196ZM135.641 172.908C134.591 172.908 133.849 171.788 133.849 168.806C133.849 165.866 134.591 164.774 135.641 164.774C136.691 164.774 137.419 165.866 137.419 168.806C137.419 171.788 136.691 172.908 135.641 172.908ZM140.238 174H146.902V172.628H144.326C143.822 172.628 143.164 172.684 142.632 172.74C144.816 170.64 146.412 168.582 146.412 166.608C146.412 164.732 145.194 163.514 143.304 163.514C141.96 163.514 141.05 164.088 140.154 165.054L141.078 165.936C141.624 165.306 142.296 164.802 143.108 164.802C144.256 164.802 144.844 165.572 144.844 166.678C144.844 168.372 143.29 170.374 140.238 173.062V174ZM148.222 174H154.886V172.628H152.31C151.806 172.628 151.148 172.684 150.616 172.74C152.8 170.64 154.396 168.582 154.396 166.608C154.396 164.732 153.178 163.514 151.288 163.514C149.944 163.514 149.034 164.088 148.138 165.054L149.062 165.936C149.608 165.306 150.28 164.802 151.092 164.802C152.24 164.802 152.828 165.572 152.828 166.678C152.828 168.372 151.274 170.374 148.222 173.062V174ZM156.262 170.654H159.958V169.45H156.262V170.654ZM164.598 174.196C166.614 174.196 167.93 172.39 167.93 168.806C167.93 165.25 166.614 163.514 164.598 163.514C162.568 163.514 161.266 165.25 161.266 168.806C161.266 172.39 162.568 174.196 164.598 174.196ZM164.598 172.908C163.548 172.908 162.806 171.788 162.806 168.806C162.806 165.866 163.548 164.774 164.598 164.774C165.648 164.774 166.376 165.866 166.376 168.806C166.376 171.788 165.648 172.908 164.598 172.908ZM172.597 174.196C174.585 174.196 175.929 173.02 175.929 171.494C175.929 170.08 175.117 169.282 174.193 168.764V168.694C174.823 168.204 175.537 167.322 175.537 166.258C175.537 164.648 174.431 163.542 172.639 163.542C170.945 163.542 169.685 164.592 169.685 166.202C169.685 167.28 170.301 168.064 171.071 168.61V168.666C170.119 169.17 169.237 170.094 169.237 171.452C169.237 173.048 170.651 174.196 172.597 174.196ZM173.269 168.288C172.121 167.826 171.141 167.308 171.141 166.202C171.141 165.278 171.771 164.704 172.611 164.704C173.605 164.704 174.193 165.418 174.193 166.356C174.193 167.056 173.885 167.714 173.269 168.288ZM172.625 173.02C171.505 173.02 170.651 172.306 170.651 171.284C170.651 170.388 171.155 169.632 171.869 169.128C173.269 169.716 174.403 170.192 174.403 171.438C174.403 172.404 173.675 173.02 172.625 173.02ZM177.235 170.654H180.931V169.45H177.235V170.654ZM182.183 174H188.847V172.628H186.271C185.767 172.628 185.109 172.684 184.577 172.74C186.761 170.64 188.357 168.582 188.357 166.608C188.357 164.732 187.139 163.514 185.249 163.514C183.905 163.514 182.995 164.088 182.099 165.054L183.023 165.936C183.569 165.306 184.241 164.802 185.053 164.802C186.201 164.802 186.789 165.572 186.789 166.678C186.789 168.372 185.235 170.374 182.183 173.062V174ZM190.167 174H196.831V172.628H194.255C193.751 172.628 193.093 172.684 192.561 172.74C194.745 170.64 196.341 168.582 196.341 166.608C196.341 164.732 195.123 163.514 193.233 163.514C191.889 163.514 190.979 164.088 190.083 165.054L191.007 165.936C191.553 165.306 192.225 164.802 193.037 164.802C194.185 164.802 194.773 165.572 194.773 166.678C194.773 168.372 193.219 170.374 190.167 173.062V174ZM201.884 174H207.778V172.67H205.762V163.696H204.544C203.942 164.06 203.27 164.312 202.29 164.48V165.502H204.152V172.67H201.884V174ZM213.411 174H214.923V163.696H213.047L208.959 170.15V171.242H216.239V169.982H210.583L212.599 166.888C212.893 166.356 213.173 165.81 213.425 165.292H213.495C213.453 165.852 213.411 166.734 213.411 167.28V174ZM218.749 168.694C219.351 168.694 219.827 168.218 219.827 167.56C219.827 166.902 219.351 166.426 218.749 166.426C218.133 166.426 217.671 166.902 217.671 167.56C217.671 168.218 218.133 168.694 218.749 168.694ZM218.749 174.196C219.351 174.196 219.827 173.72 219.827 173.062C219.827 172.39 219.351 171.928 218.749 171.928C218.133 171.928 217.671 172.39 217.671 173.062C217.671 173.72 218.133 174.196 218.749 174.196ZM222.023 174H227.917V172.67H225.901V163.696H224.683C224.081 164.06 223.409 164.312 222.429 164.48V165.502H224.291V172.67H222.023V174ZM232.807 174.196C234.823 174.196 236.139 172.39 236.139 168.806C236.139 165.25 234.823 163.514 232.807 163.514C230.777 163.514 229.475 165.25 229.475 168.806C229.475 172.39 230.777 174.196 232.807 174.196ZM232.807 172.908C231.757 172.908 231.015 171.788 231.015 168.806C231.015 165.866 231.757 164.774 232.807 164.774C233.857 164.774 234.585 165.866 234.585 168.806C234.585 171.788 233.857 172.908 232.807 172.908ZM238.888 168.694C239.49 168.694 239.966 168.218 239.966 167.56C239.966 166.902 239.49 166.426 238.888 166.426C238.272 166.426 237.81 166.902 237.81 167.56C237.81 168.218 238.272 168.694 238.888 168.694ZM238.888 174.196C239.49 174.196 239.966 173.72 239.966 173.062C239.966 172.39 239.49 171.928 238.888 171.928C238.272 171.928 237.81 172.39 237.81 173.062C237.81 173.72 238.272 174.196 238.888 174.196ZM244.962 174.196C246.978 174.196 248.294 172.39 248.294 168.806C248.294 165.25 246.978 163.514 244.962 163.514C242.932 163.514 241.63 165.25 241.63 168.806C241.63 172.39 242.932 174.196 244.962 174.196ZM244.962 172.908C243.912 172.908 243.17 171.788 243.17 168.806C243.17 165.866 243.912 164.774 244.962 164.774C246.012 164.774 246.74 165.866 246.74 168.806C246.74 171.788 246.012 172.908 244.962 172.908ZM252.694 174.196C254.598 174.196 256.152 173.104 256.152 171.242C256.152 169.842 255.214 168.96 254.024 168.652V168.582C255.116 168.176 255.802 167.35 255.802 166.16C255.802 164.466 254.5 163.514 252.652 163.514C251.462 163.514 250.51 164.018 249.684 164.746L250.538 165.768C251.126 165.18 251.798 164.802 252.582 164.802C253.576 164.802 254.164 165.376 254.164 166.286C254.164 167.322 253.492 168.078 251.476 168.078V169.282C253.786 169.282 254.514 170.01 254.514 171.158C254.514 172.222 253.716 172.866 252.568 172.866C251.49 172.866 250.734 172.348 250.132 171.732L249.334 172.768C250.034 173.552 251.084 174.196 252.694 174.196Z" fill="#909399"/>
</g>
</g>
<rect x="114.167" y="0.5" width="163" height="191" stroke="#E4E7ED"/>
<g clip-path="url(#clip16_27386_65101)">
<g clip-path="url(#clip17_27386_65101)">
<rect width="113.667" height="48" transform="translate(277.667)" fill="#F2F2F2"/>
<rect x="277.667" y="47" width="114" height="1" fill="#E4E7ED"/>
<g clip-path="url(#clip18_27386_65101)">
<path d="M297.397 24.596C296.669 25.282 295.269 25.898 294.051 26.248C294.303 26.444 294.611 26.766 294.779 27.018C296.095 26.584 297.509 25.884 298.377 25.002L297.397 24.596ZM298.741 25.968C297.803 26.934 295.969 27.69 294.205 28.068C294.443 28.306 294.709 28.67 294.863 28.922C296.767 28.418 298.629 27.564 299.721 26.374L298.741 25.968ZM299.931 27.494C298.699 28.894 296.179 29.72 293.463 30.112C293.715 30.392 294.009 30.84 294.135 31.162C297.061 30.63 299.637 29.664 301.065 27.97L299.931 27.494ZM295.507 18.17C294.961 19.654 293.981 21.068 292.875 21.964C293.169 22.146 293.659 22.524 293.869 22.748C294.989 21.726 296.067 20.144 296.725 18.478L295.507 18.17ZM295.577 19.668L294.933 20.746H299.679V19.668H295.577ZM295.353 20.312L294.527 20.886C295.437 22.58 297.481 24.386 300.589 25.114C300.757 24.792 301.079 24.302 301.331 24.05C298.223 23.49 296.193 21.88 295.353 20.312ZM291.909 22.132V28.908H293.015V22.132H291.909ZM290.817 18.254C290.173 20.368 289.095 22.482 287.905 23.84C288.129 24.19 288.465 24.918 288.577 25.24C289.977 23.588 291.251 21.04 292.049 18.604L290.817 18.254ZM289.669 21.852V31.176H290.929V20.662L290.887 20.634L289.669 21.852ZM299.511 19.668V19.864C298.531 22.23 295.787 23.644 292.903 24.19C293.127 24.442 293.407 24.904 293.533 25.198C296.641 24.47 299.511 22.944 300.715 19.99L299.945 19.612L299.735 19.668H299.511ZM303.123 19.248C303.879 19.962 304.845 20.956 305.293 21.586L306.231 20.648C305.769 20.032 304.761 19.08 304.019 18.408L303.123 19.248ZM302.325 22.552V23.826H305.545V22.552H302.325ZM307.295 19.318V20.648H315.149V19.318H307.295ZM311.341 19.766V29.356C311.341 29.608 311.243 29.692 310.963 29.706C310.669 29.72 309.647 29.734 308.667 29.678C308.891 30.056 309.143 30.714 309.213 31.12C310.529 31.12 311.425 31.078 311.999 30.854C312.559 30.616 312.741 30.196 312.741 29.37V19.766H311.341ZM304.439 30.896C304.691 30.588 305.167 30.252 308.191 28.166C308.051 27.9 307.883 27.34 307.813 26.962L304.537 29.104L304.173 29.608L304.439 30.896ZM304.439 30.896C304.439 30.406 305.839 29.524 305.839 29.524V22.552H304.565V28.502C304.565 29.132 304.089 29.58 303.795 29.762C304.019 30.028 304.341 30.574 304.439 30.896ZM321.841 18.226C321.785 20.48 321.953 27.088 316.171 30.084C316.591 30.378 317.025 30.798 317.263 31.148C323.171 27.844 323.269 20.886 323.339 18.226H321.841ZM323.199 19.934L321.925 20.074C322.121 21.376 322.653 28.418 328.281 31.078C328.477 30.7 328.855 30.252 329.247 29.944C323.829 27.522 323.311 20.998 323.199 19.934Z" fill="#909399"/>
</g>
</g>
<g clip-path="url(#clip19_27386_65101)">
<rect width="113.667" height="48" transform="translate(277.667 48)" fill="#F4F4F5"/>
<rect x="277.667" y="95" width="113.667" height="1" fill="#E4E7ED"/>
<g clip-path="url(#clip20_27386_65101)">
<path d="M288.395 64.642V65.846H300.967V64.642H288.395ZM289.403 62.332V63.508H300.029V62.332H289.403ZM291.811 61.184V65.23H293.141V61.184H291.811ZM296.221 61.184V65.23H297.579V61.184H296.221ZM293.981 65.314V71.124H295.339V65.314H293.981ZM291.139 69.598H298.265V70.662H291.139V69.598ZM291.139 67.666H298.265V68.702H291.139V67.666ZM289.865 66.728V71.6H299.595V66.728H289.865ZM295.829 72.496C297.369 73.042 298.965 73.714 299.917 74.176L300.883 73.294C299.847 72.832 298.125 72.174 296.585 71.656L295.829 72.496ZM292.525 71.684C291.643 72.258 289.851 72.93 288.409 73.28C288.703 73.532 289.109 73.952 289.333 74.218C290.761 73.854 292.553 73.154 293.687 72.468L292.525 71.684ZM308.135 64.978V66.056H314.421V64.978H308.135ZM310.977 66.616V74.134H312.265V66.616H310.977ZM308.317 69.332C308.317 69.08 309.227 68.66 309.227 68.66V68.646C310.011 67.386 310.879 65.538 311.467 63.76L310.165 63.466C309.717 65.118 308.905 66.868 308.639 67.316C308.387 67.806 308.163 68.114 307.925 68.17C308.051 68.492 308.247 69.08 308.317 69.332ZM308.317 69.332C308.443 69.206 308.947 69.136 309.535 69.136H314.729L314.743 67.96H308.989L308.317 68.31V69.332ZM307.645 61.884V64.558H308.779V63.074H313.679V64.558H314.855V61.884H307.645ZM307.645 70.592V71.796H315.177V70.592H307.645ZM304.243 61.408V66.728H305.335V61.408H304.243ZM302.255 66.07V67.302H307.295V66.07H302.255ZM303.291 66.742C303.249 69.612 303.137 71.824 302.073 73.14C302.367 73.336 302.717 73.742 302.885 74.036C304.145 72.496 304.341 69.962 304.369 66.742H303.291ZM302.325 62.458C302.577 63.48 302.857 64.824 302.955 65.678L303.893 65.454C303.781 64.6 303.487 63.298 303.193 62.262L302.325 62.458ZM306.385 62.178C306.203 63.172 305.825 64.6 305.503 65.468L306.343 65.706C306.679 64.866 307.085 63.522 307.435 62.43L306.385 62.178ZM305.209 73.154C305.405 72.86 305.755 72.552 307.743 70.998C307.617 70.788 307.407 70.368 307.309 70.074L305.265 71.6L304.999 72.048L305.209 73.154ZM305.209 73.154C305.209 72.734 306.217 71.88 306.217 71.88V66.77H305.125V71.082C305.125 71.754 304.845 72.146 304.621 72.328C304.817 72.51 305.111 72.93 305.209 73.154Z" fill="#909399"/>
</g>
</g>
<g clip-path="url(#clip21_27386_65101)">
<rect width="113.667" height="48" transform="translate(277.667 96)" fill="white"/>
<rect x="277.667" y="143" width="113.667" height="1" fill="#E4E7ED"/>
<g clip-path="url(#clip22_27386_65101)">
<path d="M288.395 112.642V113.846H300.967V112.642H288.395ZM289.403 110.332V111.508H300.029V110.332H289.403ZM291.811 109.184V113.23H293.141V109.184H291.811ZM296.221 109.184V113.23H297.579V109.184H296.221ZM293.981 113.314V119.124H295.339V113.314H293.981ZM291.139 117.598H298.265V118.662H291.139V117.598ZM291.139 115.666H298.265V116.702H291.139V115.666ZM289.865 114.728V119.6H299.595V114.728H289.865ZM295.829 120.496C297.369 121.042 298.965 121.714 299.917 122.176L300.883 121.294C299.847 120.832 298.125 120.174 296.585 119.656L295.829 120.496ZM292.525 119.684C291.643 120.258 289.851 120.93 288.409 121.28C288.703 121.532 289.109 121.952 289.333 122.218C290.761 121.854 292.553 121.154 293.687 120.468L292.525 119.684ZM308.135 112.978V114.056H314.421V112.978H308.135ZM310.977 114.616V122.134H312.265V114.616H310.977ZM308.317 117.332C308.317 117.08 309.227 116.66 309.227 116.66V116.646C310.011 115.386 310.879 113.538 311.467 111.76L310.165 111.466C309.717 113.118 308.905 114.868 308.639 115.316C308.387 115.806 308.163 116.114 307.925 116.17C308.051 116.492 308.247 117.08 308.317 117.332ZM308.317 117.332C308.443 117.206 308.947 117.136 309.535 117.136H314.729L314.743 115.96H308.989L308.317 116.31V117.332ZM307.645 109.884V112.558H308.779V111.074H313.679V112.558H314.855V109.884H307.645ZM307.645 118.592V119.796H315.177V118.592H307.645ZM304.243 109.408V114.728H305.335V109.408H304.243ZM302.255 114.07V115.302H307.295V114.07H302.255ZM303.291 114.742C303.249 117.612 303.137 119.824 302.073 121.14C302.367 121.336 302.717 121.742 302.885 122.036C304.145 120.496 304.341 117.962 304.369 114.742H303.291ZM302.325 110.458C302.577 111.48 302.857 112.824 302.955 113.678L303.893 113.454C303.781 112.6 303.487 111.298 303.193 110.262L302.325 110.458ZM306.385 110.178C306.203 111.172 305.825 112.6 305.503 113.468L306.343 113.706C306.679 112.866 307.085 111.522 307.435 110.43L306.385 110.178ZM305.209 121.154C305.405 120.86 305.755 120.552 307.743 118.998C307.617 118.788 307.407 118.368 307.309 118.074L305.265 119.6L304.999 120.048L305.209 121.154ZM305.209 121.154C305.209 120.734 306.217 119.88 306.217 119.88V114.77H305.125V119.082C305.125 119.754 304.845 120.146 304.621 120.328C304.817 120.51 305.111 120.93 305.209 121.154Z" fill="#909399"/>
</g>
</g>
<rect width="113.667" height="48" transform="translate(277.667 144)" fill="white"/>
<g clip-path="url(#clip23_27386_65101)">
<path d="M288.395 160.642V161.846H300.967V160.642H288.395ZM289.403 158.332V159.508H300.029V158.332H289.403ZM291.811 157.184V161.23H293.141V157.184H291.811ZM296.221 157.184V161.23H297.579V157.184H296.221ZM293.981 161.314V167.124H295.339V161.314H293.981ZM291.139 165.598H298.265V166.662H291.139V165.598ZM291.139 163.666H298.265V164.702H291.139V163.666ZM289.865 162.728V167.6H299.595V162.728H289.865ZM295.829 168.496C297.369 169.042 298.965 169.714 299.917 170.176L300.883 169.294C299.847 168.832 298.125 168.174 296.585 167.656L295.829 168.496ZM292.525 167.684C291.643 168.258 289.851 168.93 288.409 169.28C288.703 169.532 289.109 169.952 289.333 170.218C290.761 169.854 292.553 169.154 293.687 168.468L292.525 167.684ZM308.135 160.978V162.056H314.421V160.978H308.135ZM310.977 162.616V170.134H312.265V162.616H310.977ZM308.317 165.332C308.317 165.08 309.227 164.66 309.227 164.66V164.646C310.011 163.386 310.879 161.538 311.467 159.76L310.165 159.466C309.717 161.118 308.905 162.868 308.639 163.316C308.387 163.806 308.163 164.114 307.925 164.17C308.051 164.492 308.247 165.08 308.317 165.332ZM308.317 165.332C308.443 165.206 308.947 165.136 309.535 165.136H314.729L314.743 163.96H308.989L308.317 164.31V165.332ZM307.645 157.884V160.558H308.779V159.074H313.679V160.558H314.855V157.884H307.645ZM307.645 166.592V167.796H315.177V166.592H307.645ZM304.243 157.408V162.728H305.335V157.408H304.243ZM302.255 162.07V163.302H307.295V162.07H302.255ZM303.291 162.742C303.249 165.612 303.137 167.824 302.073 169.14C302.367 169.336 302.717 169.742 302.885 170.036C304.145 168.496 304.341 165.962 304.369 162.742H303.291ZM302.325 158.458C302.577 159.48 302.857 160.824 302.955 161.678L303.893 161.454C303.781 160.6 303.487 159.298 303.193 158.262L302.325 158.458ZM306.385 158.178C306.203 159.172 305.825 160.6 305.503 161.468L306.343 161.706C306.679 160.866 307.085 159.522 307.435 158.43L306.385 158.178ZM305.209 169.154C305.405 168.86 305.755 168.552 307.743 166.998C307.617 166.788 307.407 166.368 307.309 166.074L305.265 167.6L304.999 168.048L305.209 169.154ZM305.209 169.154C305.209 168.734 306.217 167.88 306.217 167.88V162.77H305.125V167.082C305.125 167.754 304.845 168.146 304.621 168.328C304.817 168.51 305.111 168.93 305.209 169.154Z" fill="#909399"/>
</g>
</g>
<rect x="278.167" y="0.5" width="112.667" height="191" stroke="#E4E7ED"/>
<g clip-path="url(#clip24_27386_65101)">
<g clip-path="url(#clip25_27386_65101)">
<rect width="113.667" height="48" transform="translate(391.333)" fill="#F2F2F2"/>
<rect x="391.333" y="47" width="114" height="1" fill="#E4E7ED"/>
<g clip-path="url(#clip26_27386_65101)">
<path d="M411.063 24.596C410.335 25.282 408.935 25.898 407.717 26.248C407.969 26.444 408.277 26.766 408.445 27.018C409.761 26.584 411.175 25.884 412.043 25.002L411.063 24.596ZM412.407 25.968C411.469 26.934 409.635 27.69 407.871 28.068C408.109 28.306 408.375 28.67 408.529 28.922C410.433 28.418 412.295 27.564 413.387 26.374L412.407 25.968ZM413.597 27.494C412.365 28.894 409.845 29.72 407.129 30.112C407.381 30.392 407.675 30.84 407.801 31.162C410.727 30.63 413.303 29.664 414.731 27.97L413.597 27.494ZM409.173 18.17C408.627 19.654 407.647 21.068 406.541 21.964C406.835 22.146 407.325 22.524 407.535 22.748C408.655 21.726 409.733 20.144 410.391 18.478L409.173 18.17ZM409.243 19.668L408.599 20.746H413.345V19.668H409.243ZM409.019 20.312L408.193 20.886C409.103 22.58 411.147 24.386 414.255 25.114C414.423 24.792 414.745 24.302 414.997 24.05C411.889 23.49 409.859 21.88 409.019 20.312ZM405.575 22.132V28.908H406.681V22.132H405.575ZM404.483 18.254C403.839 20.368 402.761 22.482 401.571 23.84C401.795 24.19 402.131 24.918 402.243 25.24C403.643 23.588 404.917 21.04 405.715 18.604L404.483 18.254ZM403.335 21.852V31.176H404.595V20.662L404.553 20.634L403.335 21.852ZM413.177 19.668V19.864C412.197 22.23 409.453 23.644 406.569 24.19C406.793 24.442 407.073 24.904 407.199 25.198C410.307 24.47 413.177 22.944 414.381 19.99L413.611 19.612L413.401 19.668H413.177ZM416.789 19.248C417.545 19.962 418.511 20.956 418.959 21.586L419.897 20.648C419.435 20.032 418.427 19.08 417.685 18.408L416.789 19.248ZM415.991 22.552V23.826H419.211V22.552H415.991ZM420.961 19.318V20.648H428.815V19.318H420.961ZM425.007 19.766V29.356C425.007 29.608 424.909 29.692 424.629 29.706C424.335 29.72 423.313 29.734 422.333 29.678C422.557 30.056 422.809 30.714 422.879 31.12C424.195 31.12 425.091 31.078 425.665 30.854C426.225 30.616 426.407 30.196 426.407 29.37V19.766H425.007ZM418.105 30.896C418.357 30.588 418.833 30.252 421.857 28.166C421.717 27.9 421.549 27.34 421.479 26.962L418.203 29.104L417.839 29.608L418.105 30.896ZM418.105 30.896C418.105 30.406 419.505 29.524 419.505 29.524V22.552H418.231V28.502C418.231 29.132 417.755 29.58 417.461 29.762C417.685 30.028 418.007 30.574 418.105 30.896ZM434.345 20.116V21.32H442.703V20.116H434.345ZM436.151 18.184V23.042H437.425V18.184H436.151ZM439.665 18.184V23.042H440.939V18.184H439.665ZM434.905 23.588V31.134H436.109V24.75H440.967V31.064H442.227V23.588H434.905ZM435.577 26.416V27.564H441.541V26.416H435.577ZM435.605 29.272V30.434H441.569V29.272H435.605ZM437.915 24.134V30.112H439.119V24.134H437.915ZM429.669 25.478L429.991 26.766C431.195 26.402 432.735 25.926 434.177 25.464L434.009 24.26C432.427 24.722 430.775 25.212 429.669 25.478ZM429.879 20.942V22.16H434.093V20.942H429.879ZM431.475 18.198V29.58C431.475 29.776 431.405 29.832 431.237 29.832C431.069 29.846 430.551 29.846 429.977 29.832C430.145 30.182 430.299 30.728 430.341 31.05C431.237 31.05 431.811 31.008 432.175 30.798C432.567 30.602 432.693 30.252 432.693 29.594V18.198H431.475ZM447.799 20.83V22.076H456.521V20.83H447.799ZM453.371 19.01C453.945 19.542 454.673 20.298 455.009 20.774L456.059 20.088C455.695 19.612 454.939 18.898 454.379 18.394L453.371 19.01ZM451.509 18.324V28.978H452.839V18.324H451.509ZM447.127 23.196H443.935V24.428H445.853V28.796H447.127V23.196ZM444.145 19.388C444.887 20.2 445.797 21.32 446.189 22.034L447.309 21.32C446.875 20.606 445.937 19.542 445.195 18.772L444.145 19.388ZM446.567 28.236C445.797 28.236 444.775 28.936 443.795 29.86L444.621 30.994C445.321 30.168 446.049 29.384 446.553 29.384C446.889 29.384 447.337 29.79 447.953 30.112C448.961 30.658 450.165 30.812 451.831 30.812C453.175 30.812 455.527 30.728 456.493 30.658C456.521 30.308 456.717 29.678 456.857 29.342C455.499 29.51 453.399 29.622 451.873 29.622C450.375 29.622 449.129 29.524 448.205 29.034C447.407 28.614 447.057 28.236 446.567 28.236ZM451.131 21.306C450.431 23.546 449.045 25.884 447.547 27.074C447.827 27.298 448.261 27.76 448.471 28.068C450.025 26.668 451.411 24.162 452.209 21.6L451.131 21.306ZM451.859 22.454C453.273 23.98 454.925 26.108 455.625 27.452L456.661 26.696C455.919 25.338 454.197 23.294 452.797 21.81L451.859 22.454Z" fill="#909399"/>
</g>
</g>
<g clip-path="url(#clip27_27386_65101)">
<rect width="113.667" height="48" transform="translate(391.333 48)" fill="#F4F4F5"/>
<rect x="391.333" y="95" width="113.667" height="1" fill="#E4E7ED"/>
<g clip-path="url(#clip28_27386_65101)">
<path d="M403.419 73.196C404.021 73.196 404.497 72.72 404.497 72.062C404.497 71.39 404.021 70.928 403.419 70.928C402.803 70.928 402.341 71.39 402.341 72.062C402.341 72.72 402.803 73.196 403.419 73.196ZM407.589 73.196C408.191 73.196 408.667 72.72 408.667 72.062C408.667 71.39 408.191 70.928 407.589 70.928C406.973 70.928 406.511 71.39 406.511 72.062C406.511 72.72 406.973 73.196 407.589 73.196ZM411.759 73.196C412.361 73.196 412.837 72.72 412.837 72.062C412.837 71.39 412.361 70.928 411.759 70.928C411.143 70.928 410.681 71.39 410.681 72.062C410.681 72.72 411.143 73.196 411.759 73.196ZM415.929 73.196C416.531 73.196 417.007 72.72 417.007 72.062C417.007 71.39 416.531 70.928 415.929 70.928C415.313 70.928 414.851 71.39 414.851 72.062C414.851 72.72 415.313 73.196 415.929 73.196ZM420.099 73.196C420.701 73.196 421.177 72.72 421.177 72.062C421.177 71.39 420.701 70.928 420.099 70.928C419.483 70.928 419.021 71.39 419.021 72.062C419.021 72.72 419.483 73.196 420.099 73.196ZM424.269 73.196C424.871 73.196 425.347 72.72 425.347 72.062C425.347 71.39 424.871 70.928 424.269 70.928C423.653 70.928 423.191 71.39 423.191 72.062C423.191 72.72 423.653 73.196 424.269 73.196Z" fill="#909399"/>
</g>
</g>
<g clip-path="url(#clip29_27386_65101)">
<rect width="113.667" height="48" transform="translate(391.333 96)" fill="white"/>
<rect x="391.333" y="143" width="113.667" height="1" fill="#E4E7ED"/>
<g clip-path="url(#clip30_27386_65101)">
<path d="M403.419 121.196C404.021 121.196 404.497 120.72 404.497 120.062C404.497 119.39 404.021 118.928 403.419 118.928C402.803 118.928 402.341 119.39 402.341 120.062C402.341 120.72 402.803 121.196 403.419 121.196ZM407.589 121.196C408.191 121.196 408.667 120.72 408.667 120.062C408.667 119.39 408.191 118.928 407.589 118.928C406.973 118.928 406.511 119.39 406.511 120.062C406.511 120.72 406.973 121.196 407.589 121.196ZM411.759 121.196C412.361 121.196 412.837 120.72 412.837 120.062C412.837 119.39 412.361 118.928 411.759 118.928C411.143 118.928 410.681 119.39 410.681 120.062C410.681 120.72 411.143 121.196 411.759 121.196ZM415.929 121.196C416.531 121.196 417.007 120.72 417.007 120.062C417.007 119.39 416.531 118.928 415.929 118.928C415.313 118.928 414.851 119.39 414.851 120.062C414.851 120.72 415.313 121.196 415.929 121.196ZM420.099 121.196C420.701 121.196 421.177 120.72 421.177 120.062C421.177 119.39 420.701 118.928 420.099 118.928C419.483 118.928 419.021 119.39 419.021 120.062C419.021 120.72 419.483 121.196 420.099 121.196ZM424.269 121.196C424.871 121.196 425.347 120.72 425.347 120.062C425.347 119.39 424.871 118.928 424.269 118.928C423.653 118.928 423.191 119.39 423.191 120.062C423.191 120.72 423.653 121.196 424.269 121.196Z" fill="#909399"/>
</g>
</g>
<rect width="113.667" height="48" transform="translate(391.333 144)" fill="white"/>
<g clip-path="url(#clip31_27386_65101)">
<path d="M403.419 169.196C404.021 169.196 404.497 168.72 404.497 168.062C404.497 167.39 404.021 166.928 403.419 166.928C402.803 166.928 402.341 167.39 402.341 168.062C402.341 168.72 402.803 169.196 403.419 169.196ZM407.589 169.196C408.191 169.196 408.667 168.72 408.667 168.062C408.667 167.39 408.191 166.928 407.589 166.928C406.973 166.928 406.511 167.39 406.511 168.062C406.511 168.72 406.973 169.196 407.589 169.196ZM411.759 169.196C412.361 169.196 412.837 168.72 412.837 168.062C412.837 167.39 412.361 166.928 411.759 166.928C411.143 166.928 410.681 167.39 410.681 168.062C410.681 168.72 411.143 169.196 411.759 169.196ZM415.929 169.196C416.531 169.196 417.007 168.72 417.007 168.062C417.007 167.39 416.531 166.928 415.929 166.928C415.313 166.928 414.851 167.39 414.851 168.062C414.851 168.72 415.313 169.196 415.929 169.196ZM420.099 169.196C420.701 169.196 421.177 168.72 421.177 168.062C421.177 167.39 420.701 166.928 420.099 166.928C419.483 166.928 419.021 167.39 419.021 168.062C419.021 168.72 419.483 169.196 420.099 169.196ZM424.269 169.196C424.871 169.196 425.347 168.72 425.347 168.062C425.347 167.39 424.871 166.928 424.269 166.928C423.653 166.928 423.191 167.39 423.191 168.062C423.191 168.72 423.653 169.196 424.269 169.196Z" fill="#909399"/>
</g>
</g>
<rect x="391.833" y="0.5" width="112.667" height="191" stroke="#E4E7ED"/>
<g clip-path="url(#clip32_27386_65101)">
<g clip-path="url(#clip33_27386_65101)">
<rect width="113.667" height="48" transform="translate(505)" fill="#F2F2F2"/>
<rect x="505" y="47" width="114" height="1" fill="#E4E7ED"/>
<g clip-path="url(#clip34_27386_65101)">
<path d="M516.078 19.612V22.048H517.408V20.886H526.522V22.048H527.894V19.612H516.078ZM520.908 18.436C521.16 18.926 521.44 19.598 521.58 20.018L523.008 19.584C522.868 19.178 522.532 18.534 522.28 18.058L520.908 18.436ZM516.932 22.58V29.398H518.206V23.728H525.724V29.328H527.054V22.58H516.932ZM517.744 25.044V26.164H526.382V25.044H517.744ZM517.744 27.508V28.67H526.452V27.508H517.744ZM521.286 21.292V31.162H522.672V21.292H521.286ZM538.646 28.376C539.64 29.174 540.942 30.322 541.558 31.05L542.566 30.182C541.922 29.468 540.592 28.362 539.598 27.606L538.646 28.376ZM539.948 22.23C538.982 24.12 536.882 26.01 534.474 27.06C534.712 27.312 535.062 27.774 535.216 28.068C537.778 26.878 539.948 24.862 541.208 22.65L539.948 22.23ZM540.9 24.806C539.71 27.116 537.05 29.09 533.774 30.084C534.012 30.364 534.39 30.882 534.544 31.19C537.988 30.056 540.718 27.942 542.258 25.296L540.9 24.806ZM534.572 19.99V21.208H542.44V19.99H534.572ZM535.048 24.988C535.048 24.638 536.588 24.19 536.588 24.19C537.218 23.322 538.268 21.586 538.842 20.634H537.442C537.064 21.278 536.028 22.972 535.706 23.322C535.468 23.588 535.02 23.686 534.712 23.756C534.824 24.036 535.006 24.666 535.048 24.988ZM535.048 24.988C535.384 24.848 535.916 24.764 539.388 24.54C539.444 24.274 539.612 23.77 539.766 23.448L535.706 23.658L535.034 24.036L535.048 24.988ZM537.47 18.478C537.792 19.094 538.086 19.92 538.184 20.452L539.5 20.004C539.402 19.486 539.038 18.688 538.702 18.1L537.47 18.478ZM529.714 20.858V22.076H534.292V20.858H529.714ZM531.52 18.184V31.176H532.78V18.184H531.52ZM531.548 21.712C531.17 23.602 530.302 25.94 529.378 27.158C529.602 27.494 529.91 28.096 530.036 28.474C531.016 27.032 531.898 24.274 532.304 21.992L531.548 21.712ZM532.71 22.51L532.108 22.986C532.472 23.616 533.326 25.254 533.634 26.01L534.418 25.1C534.166 24.666 533.032 22.902 532.71 22.51ZM549.174 18.226C549.118 20.48 549.286 27.088 543.504 30.084C543.924 30.378 544.358 30.798 544.596 31.148C550.504 27.844 550.602 20.886 550.672 18.226H549.174ZM550.532 19.934L549.258 20.074C549.454 21.376 549.986 28.418 555.614 31.078C555.81 30.7 556.188 30.252 556.58 29.944C551.162 27.522 550.644 20.998 550.532 19.934Z" fill="#909399"/>
</g>
</g>
<g clip-path="url(#clip35_27386_65101)">
<rect width="113.667" height="48" transform="translate(505 48)" fill="#F4F4F5"/>
<rect x="505" y="95" width="113.667" height="1" fill="#E4E7ED"/>
</g>
<g clip-path="url(#clip36_27386_65101)">
<rect width="113.667" height="48" transform="translate(505 96)" fill="white"/>
<rect x="505" y="143" width="113.667" height="1" fill="#E4E7ED"/>
<g clip-path="url(#clip37_27386_65101)">
<path d="M516.386 110.094V111.396H527.6V110.094H516.386ZM517.016 114.952V116.254H527.096V114.952H517.016ZM515.686 120.258V121.56H528.328V120.258H515.686ZM521.286 110.43V121.098H522.672V110.43H521.286ZM534.768 113.048C534.558 115.288 534.138 118.298 533.774 120.104H535.062C535.356 118.354 535.762 115.358 536.014 113.048H534.768ZM536.84 114.546C537.386 114.994 538.016 115.624 538.296 116.058L539.038 115.54C538.73 115.12 538.086 114.504 537.554 114.084L536.84 114.546ZM536.476 117.486C537.05 117.962 537.75 118.662 538.072 119.124L538.842 118.578C538.506 118.13 537.792 117.458 537.218 117.01L536.476 117.486ZM534.936 110.696V111.9H542.174V110.696H534.936ZM535.314 113.048V114.196H540.746V113.048H535.314ZM533.004 115.89V117.094H542.538V115.89H533.004ZM534.446 118.97V120.104H542.16V118.97H534.446ZM535.104 109.17C534.614 110.78 533.76 112.404 532.794 113.44C533.116 113.608 533.676 113.958 533.942 114.168C534.88 113.034 535.804 111.256 536.392 109.506L535.104 109.17ZM540.368 113.048V113.314C540.186 118.452 539.948 120.356 539.57 120.79C539.43 120.958 539.29 121 539.052 121C538.772 121 538.17 120.986 537.484 120.93C537.68 121.238 537.806 121.714 537.834 122.036C538.506 122.078 539.192 122.092 539.598 122.036C540.046 121.98 540.368 121.868 540.662 121.476C541.138 120.874 541.362 119.012 541.572 113.65C541.586 113.468 541.6 113.048 541.6 113.048H540.368ZM530.302 110.29C531.142 110.71 532.206 111.368 532.738 111.83L533.508 110.822C532.962 110.374 531.87 109.758 531.044 109.394L530.302 110.29ZM529.532 114.322C530.33 114.728 531.352 115.372 531.828 115.834L532.584 114.826C532.08 114.378 531.058 113.79 530.26 113.426L529.532 114.322ZM529.938 121.224L531.1 121.952C531.702 120.608 532.374 118.9 532.892 117.416L531.884 116.688C531.296 118.312 530.512 120.132 529.938 121.224ZM543.924 118.522C543.924 118.256 544.806 117.85 544.806 117.85V117.822C546.262 116.492 547.76 114.658 548.922 112.796L547.76 112.054C546.724 113.93 545.156 115.848 544.652 116.338C544.162 116.842 543.84 117.164 543.476 117.234C543.644 117.598 543.854 118.242 543.924 118.522ZM543.924 118.522C544.274 118.326 544.834 118.2 548.642 117.598C548.6 117.318 548.572 116.786 548.586 116.436L544.498 117.01L543.868 117.444L543.924 118.522ZM543.812 115.134C543.812 114.868 544.666 114.434 544.666 114.434V114.406C545.688 113.16 546.766 111.396 547.55 109.702L546.22 109.156C545.618 110.808 544.568 112.558 544.232 113.006C543.896 113.468 543.658 113.776 543.378 113.846C543.518 114.196 543.742 114.854 543.812 115.134ZM543.812 115.134C544.106 114.994 544.582 114.896 547.27 114.616C547.284 114.336 547.326 113.846 547.41 113.482L544.414 113.734L543.784 114.126L543.812 115.134ZM543.462 120.146L543.7 121.504C545.058 121.196 546.864 120.79 548.572 120.398L548.432 119.152C546.612 119.53 544.722 119.936 543.462 120.146ZM548.908 110.444V111.76H556.132V110.444H548.908ZM548.698 119.978V121.308H556.426V119.978H548.698ZM551.82 110.878V120.734H553.262V110.878H551.82Z" fill="#909399"/>
</g>
</g>
<rect width="113.667" height="48" transform="translate(505 144)" fill="white"/>
<g clip-path="url(#clip38_27386_65101)">
<path d="M516.386 158.094V159.396H527.6V158.094H516.386ZM517.016 162.952V164.254H527.096V162.952H517.016ZM515.686 168.258V169.56H528.328V168.258H515.686ZM521.286 158.43V169.098H522.672V158.43H521.286ZM534.768 161.048C534.558 163.288 534.138 166.298 533.774 168.104H535.062C535.356 166.354 535.762 163.358 536.014 161.048H534.768ZM536.84 162.546C537.386 162.994 538.016 163.624 538.296 164.058L539.038 163.54C538.73 163.12 538.086 162.504 537.554 162.084L536.84 162.546ZM536.476 165.486C537.05 165.962 537.75 166.662 538.072 167.124L538.842 166.578C538.506 166.13 537.792 165.458 537.218 165.01L536.476 165.486ZM534.936 158.696V159.9H542.174V158.696H534.936ZM535.314 161.048V162.196H540.746V161.048H535.314ZM533.004 163.89V165.094H542.538V163.89H533.004ZM534.446 166.97V168.104H542.16V166.97H534.446ZM535.104 157.17C534.614 158.78 533.76 160.404 532.794 161.44C533.116 161.608 533.676 161.958 533.942 162.168C534.88 161.034 535.804 159.256 536.392 157.506L535.104 157.17ZM540.368 161.048V161.314C540.186 166.452 539.948 168.356 539.57 168.79C539.43 168.958 539.29 169 539.052 169C538.772 169 538.17 168.986 537.484 168.93C537.68 169.238 537.806 169.714 537.834 170.036C538.506 170.078 539.192 170.092 539.598 170.036C540.046 169.98 540.368 169.868 540.662 169.476C541.138 168.874 541.362 167.012 541.572 161.65C541.586 161.468 541.6 161.048 541.6 161.048H540.368ZM530.302 158.29C531.142 158.71 532.206 159.368 532.738 159.83L533.508 158.822C532.962 158.374 531.87 157.758 531.044 157.394L530.302 158.29ZM529.532 162.322C530.33 162.728 531.352 163.372 531.828 163.834L532.584 162.826C532.08 162.378 531.058 161.79 530.26 161.426L529.532 162.322ZM529.938 169.224L531.1 169.952C531.702 168.608 532.374 166.9 532.892 165.416L531.884 164.688C531.296 166.312 530.512 168.132 529.938 169.224ZM543.924 166.522C543.924 166.256 544.806 165.85 544.806 165.85V165.822C546.262 164.492 547.76 162.658 548.922 160.796L547.76 160.054C546.724 161.93 545.156 163.848 544.652 164.338C544.162 164.842 543.84 165.164 543.476 165.234C543.644 165.598 543.854 166.242 543.924 166.522ZM543.924 166.522C544.274 166.326 544.834 166.2 548.642 165.598C548.6 165.318 548.572 164.786 548.586 164.436L544.498 165.01L543.868 165.444L543.924 166.522ZM543.812 163.134C543.812 162.868 544.666 162.434 544.666 162.434V162.406C545.688 161.16 546.766 159.396 547.55 157.702L546.22 157.156C545.618 158.808 544.568 160.558 544.232 161.006C543.896 161.468 543.658 161.776 543.378 161.846C543.518 162.196 543.742 162.854 543.812 163.134ZM543.812 163.134C544.106 162.994 544.582 162.896 547.27 162.616C547.284 162.336 547.326 161.846 547.41 161.482L544.414 161.734L543.784 162.126L543.812 163.134ZM543.462 168.146L543.7 169.504C545.058 169.196 546.864 168.79 548.572 168.398L548.432 167.152C546.612 167.53 544.722 167.936 543.462 168.146ZM548.908 158.444V159.76H556.132V158.444H548.908ZM548.698 167.978V169.308H556.426V167.978H548.698ZM551.82 158.878V168.734H553.262V158.878H551.82Z" fill="#909399"/>
</g>
</g>
<rect x="505.5" y="0.5" width="112.667" height="191" stroke="#E4E7ED"/>
<g clip-path="url(#clip39_27386_65101)">
<g clip-path="url(#clip40_27386_65101)">
<rect width="113.667" height="48" transform="translate(618.667)" fill="#F2F2F2"/>
<rect x="618.667" y="47" width="114" height="1" fill="#E4E7ED"/>
<g clip-path="url(#clip41_27386_65101)">
<path d="M629.745 19.612V22.048H631.075V20.886H640.189V22.048H641.561V19.612H629.745ZM634.575 18.436C634.827 18.926 635.107 19.598 635.247 20.018L636.675 19.584C636.535 19.178 636.199 18.534 635.947 18.058L634.575 18.436ZM630.599 22.58V29.398H631.873V23.728H639.391V29.328H640.721V22.58H630.599ZM631.411 25.044V26.164H640.049V25.044H631.411ZM631.411 27.508V28.67H640.119V27.508H631.411ZM634.953 21.292V31.162H636.339V21.292H634.953ZM652.313 28.376C653.307 29.174 654.609 30.322 655.225 31.05L656.233 30.182C655.589 29.468 654.259 28.362 653.265 27.606L652.313 28.376ZM653.615 22.23C652.649 24.12 650.549 26.01 648.141 27.06C648.379 27.312 648.729 27.774 648.883 28.068C651.445 26.878 653.615 24.862 654.875 22.65L653.615 22.23ZM654.567 24.806C653.377 27.116 650.717 29.09 647.441 30.084C647.679 30.364 648.057 30.882 648.211 31.19C651.655 30.056 654.385 27.942 655.925 25.296L654.567 24.806ZM648.239 19.99V21.208H656.107V19.99H648.239ZM648.715 24.988C648.715 24.638 650.255 24.19 650.255 24.19C650.885 23.322 651.935 21.586 652.509 20.634H651.109C650.731 21.278 649.695 22.972 649.373 23.322C649.135 23.588 648.687 23.686 648.379 23.756C648.491 24.036 648.673 24.666 648.715 24.988ZM648.715 24.988C649.051 24.848 649.583 24.764 653.055 24.54C653.111 24.274 653.279 23.77 653.433 23.448L649.373 23.658L648.701 24.036L648.715 24.988ZM651.137 18.478C651.459 19.094 651.753 19.92 651.851 20.452L653.167 20.004C653.069 19.486 652.705 18.688 652.369 18.1L651.137 18.478ZM643.381 20.858V22.076H647.959V20.858H643.381ZM645.187 18.184V31.176H646.447V18.184H645.187ZM645.215 21.712C644.837 23.602 643.969 25.94 643.045 27.158C643.269 27.494 643.577 28.096 643.703 28.474C644.683 27.032 645.565 24.274 645.971 21.992L645.215 21.712ZM646.377 22.51L645.775 22.986C646.139 23.616 646.993 25.254 647.301 26.01L648.085 25.1C647.833 24.666 646.699 22.902 646.377 22.51ZM661.679 20.116V21.32H670.037V20.116H661.679ZM663.485 18.184V23.042H664.759V18.184H663.485ZM666.999 18.184V23.042H668.273V18.184H666.999ZM662.239 23.588V31.134H663.443V24.75H668.301V31.064H669.561V23.588H662.239ZM662.911 26.416V27.564H668.875V26.416H662.911ZM662.939 29.272V30.434H668.903V29.272H662.939ZM665.249 24.134V30.112H666.453V24.134H665.249ZM657.003 25.478L657.325 26.766C658.529 26.402 660.069 25.926 661.511 25.464L661.343 24.26C659.761 24.722 658.109 25.212 657.003 25.478ZM657.213 20.942V22.16H661.427V20.942H657.213ZM658.809 18.198V29.58C658.809 29.776 658.739 29.832 658.571 29.832C658.403 29.846 657.885 29.846 657.311 29.832C657.479 30.182 657.633 30.728 657.675 31.05C658.571 31.05 659.145 31.008 659.509 30.798C659.901 30.602 660.027 30.252 660.027 29.594V18.198H658.809ZM675.133 20.83V22.076H683.855V20.83H675.133ZM680.705 19.01C681.279 19.542 682.007 20.298 682.343 20.774L683.393 20.088C683.029 19.612 682.273 18.898 681.713 18.394L680.705 19.01ZM678.843 18.324V28.978H680.173V18.324H678.843ZM674.461 23.196H671.269V24.428H673.187V28.796H674.461V23.196ZM671.479 19.388C672.221 20.2 673.131 21.32 673.523 22.034L674.643 21.32C674.209 20.606 673.271 19.542 672.529 18.772L671.479 19.388ZM673.901 28.236C673.131 28.236 672.109 28.936 671.129 29.86L671.955 30.994C672.655 30.168 673.383 29.384 673.887 29.384C674.223 29.384 674.671 29.79 675.287 30.112C676.295 30.658 677.499 30.812 679.165 30.812C680.509 30.812 682.861 30.728 683.827 30.658C683.855 30.308 684.051 29.678 684.191 29.342C682.833 29.51 680.733 29.622 679.207 29.622C677.709 29.622 676.463 29.524 675.539 29.034C674.741 28.614 674.391 28.236 673.901 28.236ZM678.465 21.306C677.765 23.546 676.379 25.884 674.881 27.074C675.161 27.298 675.595 27.76 675.805 28.068C677.359 26.668 678.745 24.162 679.543 21.6L678.465 21.306ZM679.193 22.454C680.607 23.98 682.259 26.108 682.959 27.452L683.995 26.696C683.253 25.338 681.531 23.294 680.131 21.81L679.193 22.454Z" fill="#909399"/>
</g>
</g>
<g clip-path="url(#clip42_27386_65101)">
<rect width="113.667" height="48" transform="translate(618.667 48)" fill="#F4F4F5"/>
<rect x="618.667" y="95" width="113.667" height="1" fill="#E4E7ED"/>
</g>
<g clip-path="url(#clip43_27386_65101)">
<rect width="113.667" height="48" transform="translate(618.667 96)" fill="white"/>
<rect x="618.667" y="143" width="113.667" height="1" fill="#E4E7ED"/>
<g clip-path="url(#clip44_27386_65101)">
<path d="M630.753 121.196C631.355 121.196 631.831 120.72 631.831 120.062C631.831 119.39 631.355 118.928 630.753 118.928C630.137 118.928 629.675 119.39 629.675 120.062C629.675 120.72 630.137 121.196 630.753 121.196ZM634.923 121.196C635.525 121.196 636.001 120.72 636.001 120.062C636.001 119.39 635.525 118.928 634.923 118.928C634.307 118.928 633.845 119.39 633.845 120.062C633.845 120.72 634.307 121.196 634.923 121.196ZM639.093 121.196C639.695 121.196 640.171 120.72 640.171 120.062C640.171 119.39 639.695 118.928 639.093 118.928C638.477 118.928 638.015 119.39 638.015 120.062C638.015 120.72 638.477 121.196 639.093 121.196ZM643.263 121.196C643.865 121.196 644.341 120.72 644.341 120.062C644.341 119.39 643.865 118.928 643.263 118.928C642.647 118.928 642.185 119.39 642.185 120.062C642.185 120.72 642.647 121.196 643.263 121.196ZM647.433 121.196C648.035 121.196 648.511 120.72 648.511 120.062C648.511 119.39 648.035 118.928 647.433 118.928C646.817 118.928 646.355 119.39 646.355 120.062C646.355 120.72 646.817 121.196 647.433 121.196ZM651.603 121.196C652.205 121.196 652.681 120.72 652.681 120.062C652.681 119.39 652.205 118.928 651.603 118.928C650.987 118.928 650.525 119.39 650.525 120.062C650.525 120.72 650.987 121.196 651.603 121.196Z" fill="#909399"/>
</g>
</g>
<rect width="113.667" height="48" transform="translate(618.667 144)" fill="white"/>
<g clip-path="url(#clip45_27386_65101)">
<path d="M630.753 169.196C631.355 169.196 631.831 168.72 631.831 168.062C631.831 167.39 631.355 166.928 630.753 166.928C630.137 166.928 629.675 167.39 629.675 168.062C629.675 168.72 630.137 169.196 630.753 169.196ZM634.923 169.196C635.525 169.196 636.001 168.72 636.001 168.062C636.001 167.39 635.525 166.928 634.923 166.928C634.307 166.928 633.845 167.39 633.845 168.062C633.845 168.72 634.307 169.196 634.923 169.196ZM639.093 169.196C639.695 169.196 640.171 168.72 640.171 168.062C640.171 167.39 639.695 166.928 639.093 166.928C638.477 166.928 638.015 167.39 638.015 168.062C638.015 168.72 638.477 169.196 639.093 169.196ZM643.263 169.196C643.865 169.196 644.341 168.72 644.341 168.062C644.341 167.39 643.865 166.928 643.263 166.928C642.647 166.928 642.185 167.39 642.185 168.062C642.185 168.72 642.647 169.196 643.263 169.196ZM647.433 169.196C648.035 169.196 648.511 168.72 648.511 168.062C648.511 167.39 648.035 166.928 647.433 166.928C646.817 166.928 646.355 167.39 646.355 168.062C646.355 168.72 646.817 169.196 647.433 169.196ZM651.603 169.196C652.205 169.196 652.681 168.72 652.681 168.062C652.681 167.39 652.205 166.928 651.603 166.928C650.987 166.928 650.525 167.39 650.525 168.062C650.525 168.72 650.987 169.196 651.603 169.196Z" fill="#909399"/>
</g>
</g>
<rect x="619.167" y="0.5" width="112.667" height="191" stroke="#E4E7ED"/>
<g clip-path="url(#clip46_27386_65101)">
<g clip-path="url(#clip47_27386_65101)">
<rect width="113.667" height="48" transform="translate(732.333)" fill="#F2F2F2"/>
<rect x="732.333" y="47" width="114" height="1" fill="#E4E7ED"/>
<g clip-path="url(#clip48_27386_65101)">
<path d="M747.373 22.216V23.532H755.675V22.216H747.373ZM751.797 22.818L750.691 23.056C751.405 26.654 752.707 29.594 755.045 31.148C755.255 30.798 755.703 30.294 756.011 30.042C753.757 28.754 752.427 25.996 751.797 22.818ZM752.665 19.15C753.267 19.92 753.953 20.984 754.261 21.642L755.339 20.984C755.003 20.34 754.275 19.332 753.673 18.59L752.665 19.15ZM750.467 18.212V21.614C750.467 24.218 750.117 27.648 746.911 30.322C747.261 30.546 747.723 30.896 747.975 31.162C751.321 28.362 751.783 24.638 751.783 21.614V18.212H750.467ZM745.637 18.17V31.148H746.953V18.17H745.637ZM742.921 20.606C743.537 21.446 744.279 22.566 744.573 23.28L745.679 22.58C745.357 21.88 744.587 20.788 743.943 19.99L742.921 20.606ZM742.753 27.116L743.467 28.25C744.377 27.466 745.455 26.458 746.421 25.52L745.889 24.456C744.755 25.478 743.537 26.514 742.753 27.116ZM757.061 20.088V21.306H769.647V20.088H757.061ZM762.703 18.1C762.409 21.124 761.905 23.91 756.907 25.17C757.187 25.45 757.509 25.968 757.649 26.29C762.955 24.82 763.725 21.642 764.075 18.1H762.703ZM764.299 20.172L763.081 20.452C764.089 23.392 765.909 25.324 768.975 26.164C769.157 25.8 769.549 25.24 769.857 24.96C766.973 24.302 765.139 22.608 764.299 20.172ZM761.625 24.386C762.437 24.848 763.445 25.576 763.907 26.08L765.111 25.324C764.579 24.806 763.571 24.12 762.759 23.686L761.625 24.386ZM760.057 26.612V29.202C760.057 30.518 760.519 30.882 762.283 30.882C762.661 30.882 764.929 30.882 765.321 30.882C766.763 30.882 767.169 30.42 767.337 28.544C766.973 28.46 766.413 28.264 766.133 28.054C766.049 29.482 765.937 29.692 765.223 29.692C764.691 29.692 762.787 29.692 762.395 29.692C761.527 29.692 761.373 29.622 761.373 29.202V26.612H760.057ZM762.031 26.346C762.801 27.088 763.725 28.11 764.131 28.782L765.223 28.082C764.775 27.424 763.823 26.43 763.053 25.744L762.031 26.346ZM766.763 26.752C767.449 27.956 768.149 29.58 768.387 30.574L769.647 30.126C769.381 29.118 768.639 27.55 767.939 26.388L766.763 26.752ZM758.335 26.57C758.083 27.732 757.607 29.132 756.991 30.056L758.181 30.658C758.783 29.678 759.231 28.152 759.525 26.962L758.335 26.57Z" fill="#909399"/>
</g>
</g>
<g clip-path="url(#clip49_27386_65101)">
<rect width="113.667" height="48" transform="translate(732.333 48)" fill="#F4F4F5"/>
<rect x="732.333" y="95" width="113.667" height="1" fill="#E4E7ED"/>
<g clip-path="url(#clip50_27386_65101)">
<path d="M743.089 70.788V71.978H755.605V70.788H743.089ZM748.605 69.066V74.162H749.935V69.066H748.605ZM745.889 67.568H752.721V68.618H745.889V67.568ZM745.889 65.58H752.721V66.602H745.889V65.58ZM744.615 64.544V69.64H754.051V64.544H744.615ZM746.253 61.184V64.292H747.541V61.184H746.253ZM751.083 61.184V64.292H752.371V61.184H751.083ZM743.159 62.122V63.298H755.535V62.122H743.159ZM758.909 62.374V74.204H760.141V62.374H758.909ZM756.977 65.188V66.42H761.877V65.188H756.977ZM758.923 65.664C758.503 67.288 757.537 69.388 756.627 70.508C756.837 70.844 757.159 71.404 757.299 71.796C758.293 70.466 759.259 67.974 759.749 66L758.923 65.664ZM760.925 61.366C759.931 61.786 758.335 62.136 756.921 62.36C757.075 62.654 757.243 63.102 757.285 63.396C758.741 63.228 760.477 62.906 761.723 62.444L760.925 61.366ZM760.113 66.686L759.539 67.204C759.903 67.708 760.743 68.968 761.009 69.57L761.793 68.492C761.541 68.17 760.421 66.952 760.113 66.686ZM761.681 62.612V63.732H769.745V62.612H761.681ZM763.781 65.314H767.491V66.392H763.781V65.314ZM762.619 64.39V67.316H768.723V64.39H762.619ZM761.765 67.988V74.176H762.955V69.08H768.821V67.988H761.765ZM768.373 67.988V73C768.373 73.126 768.317 73.168 768.191 73.168C768.065 73.168 767.645 73.168 767.211 73.154C767.351 73.448 767.505 73.882 767.547 74.19C768.289 74.19 768.793 74.19 769.143 74.008C769.493 73.84 769.577 73.546 769.577 73V67.988H768.373ZM764.523 61.45C764.803 62.038 765.125 62.822 765.251 63.312L766.567 62.92C766.427 62.444 766.091 61.674 765.783 61.114L764.523 61.45ZM764.719 70.676H766.581V71.796H764.719V70.676ZM763.753 69.766V72.706H767.589V69.766H763.753Z" fill="#909399"/>
</g>
</g>
<g clip-path="url(#clip51_27386_65101)">
<rect width="113.667" height="48" transform="translate(732.333 96)" fill="white"/>
<rect x="732.333" y="143" width="113.667" height="1" fill="#E4E7ED"/>
<g clip-path="url(#clip52_27386_65101)">
<path d="M743.411 110.612V113.048H744.741V111.886H753.855V113.048H755.227V110.612H743.411ZM748.241 109.436C748.493 109.926 748.773 110.598 748.913 111.018L750.341 110.584C750.201 110.178 749.865 109.534 749.613 109.058L748.241 109.436ZM744.265 113.58V120.398H745.539V114.728H753.057V120.328H754.387V113.58H744.265ZM745.077 116.044V117.164H753.715V116.044H745.077ZM745.077 118.508V119.67H753.785V118.508H745.077ZM748.619 112.292V122.162H750.005V112.292H748.619ZM765.979 119.376C766.973 120.174 768.275 121.322 768.891 122.05L769.899 121.182C769.255 120.468 767.925 119.362 766.931 118.606L765.979 119.376ZM767.281 113.23C766.315 115.12 764.215 117.01 761.807 118.06C762.045 118.312 762.395 118.774 762.549 119.068C765.111 117.878 767.281 115.862 768.541 113.65L767.281 113.23ZM768.233 115.806C767.043 118.116 764.383 120.09 761.107 121.084C761.345 121.364 761.723 121.882 761.877 122.19C765.321 121.056 768.051 118.942 769.591 116.296L768.233 115.806ZM761.905 110.99V112.208H769.773V110.99H761.905ZM762.381 115.988C762.381 115.638 763.921 115.19 763.921 115.19C764.551 114.322 765.601 112.586 766.175 111.634H764.775C764.397 112.278 763.361 113.972 763.039 114.322C762.801 114.588 762.353 114.686 762.045 114.756C762.157 115.036 762.339 115.666 762.381 115.988ZM762.381 115.988C762.717 115.848 763.249 115.764 766.721 115.54C766.777 115.274 766.945 114.77 767.099 114.448L763.039 114.658L762.367 115.036L762.381 115.988ZM764.803 109.478C765.125 110.094 765.419 110.92 765.517 111.452L766.833 111.004C766.735 110.486 766.371 109.688 766.035 109.1L764.803 109.478ZM757.047 111.858V113.076H761.625V111.858H757.047ZM758.853 109.184V122.176H760.113V109.184H758.853ZM758.881 112.712C758.503 114.602 757.635 116.94 756.711 118.158C756.935 118.494 757.243 119.096 757.369 119.474C758.349 118.032 759.231 115.274 759.637 112.992L758.881 112.712ZM760.043 113.51L759.441 113.986C759.805 114.616 760.659 116.254 760.967 117.01L761.751 116.1C761.499 115.666 760.365 113.902 760.043 113.51ZM773.567 113.286V114.504H781.029V113.286H773.567ZM771.089 115.876V117.122H783.563V115.876H771.089ZM774.757 116.73C774.617 119.292 774.239 120.482 770.879 121.084C771.131 121.35 771.481 121.868 771.579 122.19C775.345 121.42 775.947 119.81 776.101 116.73H774.757ZM778.299 116.604V120.272C778.299 121.574 778.649 121.98 780.091 121.98C780.385 121.98 781.771 121.98 782.079 121.98C783.283 121.98 783.633 121.462 783.787 119.488C783.423 119.39 782.863 119.18 782.583 118.97C782.527 120.524 782.443 120.762 781.953 120.762C781.631 120.762 780.511 120.762 780.259 120.762C779.713 120.762 779.629 120.692 779.629 120.272V116.604H778.299ZM771.397 110.724V114H772.727V111.998H781.841V114H783.213V110.724H771.397ZM776.115 109.436C776.465 110.08 776.829 110.948 776.969 111.48L778.397 111.046C778.229 110.5 777.837 109.66 777.459 109.044L776.115 109.436ZM787.175 111.088V112.264H790.941V111.088H787.175ZM791.557 109.282V114.056C791.557 115.414 791.949 115.806 793.475 115.806C793.783 115.806 795.435 115.806 795.771 115.806C797.045 115.806 797.409 115.288 797.563 113.426C797.199 113.342 796.667 113.132 796.373 112.922C796.303 114.378 796.205 114.63 795.659 114.63C795.295 114.63 793.923 114.63 793.629 114.63C793.013 114.63 792.901 114.546 792.901 114.056V109.282H791.557ZM796.247 110.15C795.253 110.738 793.615 111.41 792.159 111.872C792.299 112.138 792.495 112.586 792.565 112.866C794.105 112.432 795.869 111.83 797.185 111.2L796.247 110.15ZM790.619 115.918V122.162H791.949V115.918H790.619ZM785.005 117.626V118.83H797.675V117.626H785.005ZM786.153 116.226C786.503 116.016 787.091 115.89 791.095 115.05C791.067 114.77 791.039 114.238 791.067 113.874L786.699 114.714L786.069 115.148L786.153 116.226ZM786.153 116.226C786.153 115.736 787.567 114.868 787.567 114.868V109.324H786.209V113.916C786.209 114.546 785.803 114.924 785.523 115.106C785.747 115.358 786.055 115.904 786.153 116.226Z" fill="#909399"/>
</g>
</g>
<rect width="113.667" height="48" transform="translate(732.333 144)" fill="white"/>
<g clip-path="url(#clip53_27386_65101)">
<path d="M743.411 158.612V161.048H744.741V159.886H753.855V161.048H755.227V158.612H743.411ZM748.241 157.436C748.493 157.926 748.773 158.598 748.913 159.018L750.341 158.584C750.201 158.178 749.865 157.534 749.613 157.058L748.241 157.436ZM744.265 161.58V168.398H745.539V162.728H753.057V168.328H754.387V161.58H744.265ZM745.077 164.044V165.164H753.715V164.044H745.077ZM745.077 166.508V167.67H753.785V166.508H745.077ZM748.619 160.292V170.162H750.005V160.292H748.619ZM765.979 167.376C766.973 168.174 768.275 169.322 768.891 170.05L769.899 169.182C769.255 168.468 767.925 167.362 766.931 166.606L765.979 167.376ZM767.281 161.23C766.315 163.12 764.215 165.01 761.807 166.06C762.045 166.312 762.395 166.774 762.549 167.068C765.111 165.878 767.281 163.862 768.541 161.65L767.281 161.23ZM768.233 163.806C767.043 166.116 764.383 168.09 761.107 169.084C761.345 169.364 761.723 169.882 761.877 170.19C765.321 169.056 768.051 166.942 769.591 164.296L768.233 163.806ZM761.905 158.99V160.208H769.773V158.99H761.905ZM762.381 163.988C762.381 163.638 763.921 163.19 763.921 163.19C764.551 162.322 765.601 160.586 766.175 159.634H764.775C764.397 160.278 763.361 161.972 763.039 162.322C762.801 162.588 762.353 162.686 762.045 162.756C762.157 163.036 762.339 163.666 762.381 163.988ZM762.381 163.988C762.717 163.848 763.249 163.764 766.721 163.54C766.777 163.274 766.945 162.77 767.099 162.448L763.039 162.658L762.367 163.036L762.381 163.988ZM764.803 157.478C765.125 158.094 765.419 158.92 765.517 159.452L766.833 159.004C766.735 158.486 766.371 157.688 766.035 157.1L764.803 157.478ZM757.047 159.858V161.076H761.625V159.858H757.047ZM758.853 157.184V170.176H760.113V157.184H758.853ZM758.881 160.712C758.503 162.602 757.635 164.94 756.711 166.158C756.935 166.494 757.243 167.096 757.369 167.474C758.349 166.032 759.231 163.274 759.637 160.992L758.881 160.712ZM760.043 161.51L759.441 161.986C759.805 162.616 760.659 164.254 760.967 165.01L761.751 164.1C761.499 163.666 760.365 161.902 760.043 161.51ZM773.567 161.286V162.504H781.029V161.286H773.567ZM771.089 163.876V165.122H783.563V163.876H771.089ZM774.757 164.73C774.617 167.292 774.239 168.482 770.879 169.084C771.131 169.35 771.481 169.868 771.579 170.19C775.345 169.42 775.947 167.81 776.101 164.73H774.757ZM778.299 164.604V168.272C778.299 169.574 778.649 169.98 780.091 169.98C780.385 169.98 781.771 169.98 782.079 169.98C783.283 169.98 783.633 169.462 783.787 167.488C783.423 167.39 782.863 167.18 782.583 166.97C782.527 168.524 782.443 168.762 781.953 168.762C781.631 168.762 780.511 168.762 780.259 168.762C779.713 168.762 779.629 168.692 779.629 168.272V164.604H778.299ZM771.397 158.724V162H772.727V159.998H781.841V162H783.213V158.724H771.397ZM776.115 157.436C776.465 158.08 776.829 158.948 776.969 159.48L778.397 159.046C778.229 158.5 777.837 157.66 777.459 157.044L776.115 157.436ZM787.175 159.088V160.264H790.941V159.088H787.175ZM791.557 157.282V162.056C791.557 163.414 791.949 163.806 793.475 163.806C793.783 163.806 795.435 163.806 795.771 163.806C797.045 163.806 797.409 163.288 797.563 161.426C797.199 161.342 796.667 161.132 796.373 160.922C796.303 162.378 796.205 162.63 795.659 162.63C795.295 162.63 793.923 162.63 793.629 162.63C793.013 162.63 792.901 162.546 792.901 162.056V157.282H791.557ZM796.247 158.15C795.253 158.738 793.615 159.41 792.159 159.872C792.299 160.138 792.495 160.586 792.565 160.866C794.105 160.432 795.869 159.83 797.185 159.2L796.247 158.15ZM790.619 163.918V170.162H791.949V163.918H790.619ZM785.005 165.626V166.83H797.675V165.626H785.005ZM786.153 164.226C786.503 164.016 787.091 163.89 791.095 163.05C791.067 162.77 791.039 162.238 791.067 161.874L786.699 162.714L786.069 163.148L786.153 164.226ZM786.153 164.226C786.153 163.736 787.567 162.868 787.567 162.868V157.324H786.209V161.916C786.209 162.546 785.803 162.924 785.523 163.106C785.747 163.358 786.055 163.904 786.153 164.226Z" fill="#909399"/>
</g>
</g>
<rect x="732.833" y="0.5" width="112.667" height="191" stroke="#E4E7ED"/>
<g clip-path="url(#clip54_27386_65101)">
<rect width="127" height="48" transform="translate(846)" fill="#F2F2F2"/>
<rect x="846" y="47" width="127" height="1" fill="#E4E7ED"/>
<g clip-path="url(#clip55_27386_65101)">
<path d="M856.434 25.506L856.756 26.794C857.89 26.388 859.318 25.856 860.662 25.352L860.452 24.176C858.982 24.694 857.456 25.212 856.434 25.506ZM856.588 20.942V22.16H860.564V20.942H856.588ZM858.072 18.184V29.692C858.072 29.846 858.03 29.902 857.876 29.902C857.75 29.902 857.344 29.902 856.91 29.888C857.064 30.224 857.218 30.756 857.26 31.078C858.016 31.078 858.506 31.036 858.856 30.826C859.206 30.63 859.318 30.294 859.318 29.678V18.184H858.072ZM863.546 19.696H866.486V20.928H863.546V19.696ZM862.398 18.744V21.894H867.69V18.744H862.398ZM862.076 23.392H863.616V24.736H862.076V23.392ZM861.054 22.454V25.688H864.666V22.454H861.054ZM866.402 23.392H867.998V24.736H866.402V23.392ZM865.366 22.454V25.688H869.09V22.454H865.366ZM860.83 26.654V27.746H869.356V26.654H860.83ZM864.386 25.66V31.204H865.66V25.66H864.386ZM864.19 27.158C863.308 28.348 861.572 29.398 859.864 29.888C860.13 30.14 860.508 30.616 860.69 30.924C862.454 30.294 864.232 29.034 865.226 27.564L864.19 27.158ZM865.94 27.298L865.002 27.662C865.842 28.95 867.34 30.196 868.754 30.798C868.95 30.49 869.328 30.028 869.608 29.79C868.208 29.328 866.71 28.334 865.94 27.298ZM876.846 20.508L876.23 21.768H883.524V20.508H876.846ZM878.638 23.56V24.764H883.188V23.56H878.638ZM878.624 26.654V27.9H883.37V26.654H878.624ZM877.966 20.928V31.176H879.324V20.928H877.966ZM877.294 18.338C876.622 20.382 875.502 22.412 874.242 23.7C874.536 23.91 875.054 24.386 875.264 24.624C876.552 23.168 877.784 20.914 878.568 18.674L877.294 18.338ZM873.78 18.24C873.024 20.312 871.75 22.37 870.406 23.686C870.644 24.008 871.036 24.75 871.162 25.058C872.688 23.49 874.144 21.026 875.054 18.646L873.78 18.24ZM872.324 21.964V31.162H873.654V20.648L873.64 20.634L872.324 21.964Z" fill="#909399"/>
</g>
<rect width="127" height="48" transform="translate(846 48)" fill="#F4F4F5"/>
<rect x="846" y="95" width="127" height="1" fill="#E4E7ED"/>
<rect width="127" height="48" transform="translate(846 96)" fill="white"/>
<rect x="846" y="143" width="127" height="1" fill="#E4E7ED"/>
<rect x="856" y="102" width="96" height="36" rx="4" fill="#409EFF"/>
<path d="M876.49 122.64V123.872H889.51V122.64H876.49ZM877.036 114.996V116.228H888.978V114.996H877.036ZM879.024 120.022V121.17H887.032V120.022H879.024ZM886.542 117.404V125.65C886.542 125.888 886.458 125.958 886.192 125.958C885.954 125.972 885.044 125.986 884.19 125.944C884.386 126.28 884.582 126.854 884.666 127.204C885.856 127.204 886.668 127.19 887.172 126.98C887.69 126.77 887.858 126.392 887.858 125.664V117.404H886.542ZM878.128 117.404V127.204H879.43V118.608H887.074V117.404H878.128ZM882.272 115.374V123.088H883.602V115.374H882.272ZM896.244 114.184C895.81 116.452 894.998 118.65 893.878 120.008C894.228 120.162 894.9 120.54 895.18 120.736C896.258 119.252 897.14 116.9 897.672 114.45L896.244 114.184ZM896.3 116.48L895.684 117.796H902.152V116.48H896.3ZM901.732 116.48V116.802C901.536 117.936 900.99 119.462 900.57 120.344C900.878 120.47 901.41 120.736 901.69 120.89C902.194 119.882 902.81 118.384 903.16 116.956L902.194 116.41L901.928 116.48H901.732ZM890.686 116.102C891.652 116.648 892.87 117.502 893.444 118.09L894.284 117.012C893.682 116.424 892.436 115.64 891.484 115.136L890.686 116.102ZM890.49 124.922L891.722 125.832C892.59 124.53 893.584 122.934 894.396 121.478L893.36 120.596C892.45 122.164 891.302 123.9 890.49 124.922ZM899.086 119.63L897.938 119.812C898.624 123.34 899.898 125.902 902.656 127.092C902.838 126.728 903.244 126.168 903.538 125.916C900.962 124.964 899.66 122.64 899.086 119.63ZM897.84 118.37V119.238C897.84 121.17 897.504 124.208 893.36 126.224C893.696 126.462 894.172 126.952 894.382 127.274C898.834 125.006 899.254 121.52 899.254 119.266V118.37H897.84ZM905.47 116.046V124.208H906.786V117.32H915.214V124.138H916.586V116.046H905.47ZM906.324 119.084V120.316H915.9V119.084H906.324ZM906.324 122.164V123.438H915.914V122.164H906.324ZM910.258 114.184V127.176H911.644V114.184H910.258ZM919.33 115.262C920.072 115.934 921.024 116.872 921.472 117.474L922.368 116.536C921.906 115.962 920.926 115.08 920.184 114.45L919.33 115.262ZM920.45 126.98C920.66 126.672 921.08 126.336 923.516 124.432C923.376 124.18 923.166 123.662 923.082 123.312L920.478 125.272L920.17 125.748L920.45 126.98ZM918.532 118.552V119.826H921.262V118.552H918.532ZM920.45 126.98C920.45 126.504 921.738 125.594 921.738 125.594V118.552H920.464V124.6C920.464 125.23 920.058 125.678 919.778 125.86C920.002 126.112 920.338 126.672 920.45 126.98ZM924.846 122.262V123.158H929.494V122.262H924.846ZM923.306 115.22V116.2H931.048V115.22H923.306ZM923.67 116.956V117.88H930.628V116.956H923.67ZM922.886 118.678V119.658H931.482V118.678H922.886ZM924.818 124.152V125.062H929.494V124.152H924.818ZM923.866 120.358V127.176H925.098V121.352H929.508V120.358H923.866ZM929.172 120.358V125.804C929.172 125.972 929.102 126.028 928.92 126.028C928.724 126.042 928.052 126.042 927.408 126.014C927.562 126.336 927.73 126.826 927.772 127.148C928.766 127.162 929.424 127.148 929.858 126.952C930.306 126.77 930.432 126.434 930.432 125.818V120.358H929.172ZM926.47 114.184V119H927.786V114.184H926.47Z" fill="white"/>
<rect width="127" height="48" transform="translate(846 144)" fill="white"/>
<rect x="856" y="150" width="96" height="36" rx="4" fill="#409EFF"/>
<path d="M876.49 170.64V171.872H889.51V170.64H876.49ZM877.036 162.996V164.228H888.978V162.996H877.036ZM879.024 168.022V169.17H887.032V168.022H879.024ZM886.542 165.404V173.65C886.542 173.888 886.458 173.958 886.192 173.958C885.954 173.972 885.044 173.986 884.19 173.944C884.386 174.28 884.582 174.854 884.666 175.204C885.856 175.204 886.668 175.19 887.172 174.98C887.69 174.77 887.858 174.392 887.858 173.664V165.404H886.542ZM878.128 165.404V175.204H879.43V166.608H887.074V165.404H878.128ZM882.272 163.374V171.088H883.602V163.374H882.272ZM896.244 162.184C895.81 164.452 894.998 166.65 893.878 168.008C894.228 168.162 894.9 168.54 895.18 168.736C896.258 167.252 897.14 164.9 897.672 162.45L896.244 162.184ZM896.3 164.48L895.684 165.796H902.152V164.48H896.3ZM901.732 164.48V164.802C901.536 165.936 900.99 167.462 900.57 168.344C900.878 168.47 901.41 168.736 901.69 168.89C902.194 167.882 902.81 166.384 903.16 164.956L902.194 164.41L901.928 164.48H901.732ZM890.686 164.102C891.652 164.648 892.87 165.502 893.444 166.09L894.284 165.012C893.682 164.424 892.436 163.64 891.484 163.136L890.686 164.102ZM890.49 172.922L891.722 173.832C892.59 172.53 893.584 170.934 894.396 169.478L893.36 168.596C892.45 170.164 891.302 171.9 890.49 172.922ZM899.086 167.63L897.938 167.812C898.624 171.34 899.898 173.902 902.656 175.092C902.838 174.728 903.244 174.168 903.538 173.916C900.962 172.964 899.66 170.64 899.086 167.63ZM897.84 166.37V167.238C897.84 169.17 897.504 172.208 893.36 174.224C893.696 174.462 894.172 174.952 894.382 175.274C898.834 173.006 899.254 169.52 899.254 167.266V166.37H897.84ZM905.47 164.046V172.208H906.786V165.32H915.214V172.138H916.586V164.046H905.47ZM906.324 167.084V168.316H915.9V167.084H906.324ZM906.324 170.164V171.438H915.914V170.164H906.324ZM910.258 162.184V175.176H911.644V162.184H910.258ZM919.33 163.262C920.072 163.934 921.024 164.872 921.472 165.474L922.368 164.536C921.906 163.962 920.926 163.08 920.184 162.45L919.33 163.262ZM920.45 174.98C920.66 174.672 921.08 174.336 923.516 172.432C923.376 172.18 923.166 171.662 923.082 171.312L920.478 173.272L920.17 173.748L920.45 174.98ZM918.532 166.552V167.826H921.262V166.552H918.532ZM920.45 174.98C920.45 174.504 921.738 173.594 921.738 173.594V166.552H920.464V172.6C920.464 173.23 920.058 173.678 919.778 173.86C920.002 174.112 920.338 174.672 920.45 174.98ZM924.846 170.262V171.158H929.494V170.262H924.846ZM923.306 163.22V164.2H931.048V163.22H923.306ZM923.67 164.956V165.88H930.628V164.956H923.67ZM922.886 166.678V167.658H931.482V166.678H922.886ZM924.818 172.152V173.062H929.494V172.152H924.818ZM923.866 168.358V175.176H925.098V169.352H929.508V168.358H923.866ZM929.172 168.358V173.804C929.172 173.972 929.102 174.028 928.92 174.028C928.724 174.042 928.052 174.042 927.408 174.014C927.562 174.336 927.73 174.826 927.772 175.148C928.766 175.162 929.424 175.148 929.858 174.952C930.306 174.77 930.432 174.434 930.432 173.818V168.358H929.172ZM926.47 162.184V167H927.786V162.184H926.47Z" fill="white"/>
</g>
<rect x="846.5" y="0.5" width="126" height="191" stroke="#E4E7ED"/>
<defs>
<clipPath id="clip0_27386_65101">
<rect width="113.667" height="192" fill="white"/>
</clipPath>
<clipPath id="clip1_27386_65101">
<rect width="113.667" height="48" fill="white"/>
</clipPath>
<clipPath id="clip2_27386_65101">
<rect width="28" height="22" fill="white" transform="translate(10 13)"/>
</clipPath>
<clipPath id="clip3_27386_65101">
<rect width="113.667" height="48" fill="white" transform="translate(0 48)"/>
</clipPath>
<clipPath id="clip4_27386_65101">
<rect width="8" height="22" fill="white" transform="translate(10 61)"/>
</clipPath>
<clipPath id="clip5_27386_65101">
<rect width="113.667" height="48" fill="white" transform="translate(0 96)"/>
</clipPath>
<clipPath id="clip6_27386_65101">
<rect width="8" height="22" fill="white" transform="translate(10 109)"/>
</clipPath>
<clipPath id="clip7_27386_65101">
<rect width="8" height="22" fill="white" transform="translate(10 157)"/>
</clipPath>
<clipPath id="clip8_27386_65101">
<rect x="113.667" width="164" height="192" fill="white"/>
</clipPath>
<clipPath id="clip9_27386_65101">
<rect width="164" height="48" fill="white" transform="translate(113.667)"/>
</clipPath>
<clipPath id="clip10_27386_65101">
<rect width="28" height="22" fill="white" transform="translate(123.667 13)"/>
</clipPath>
<clipPath id="clip11_27386_65101">
<rect width="164" height="48" fill="white" transform="translate(113.667 48)"/>
</clipPath>
<clipPath id="clip12_27386_65101">
<rect width="134" height="22" fill="white" transform="translate(123.667 61)"/>
</clipPath>
<clipPath id="clip13_27386_65101">
<rect width="164" height="48" fill="white" transform="translate(113.667 96)"/>
</clipPath>
<clipPath id="clip14_27386_65101">
<rect width="134" height="22" fill="white" transform="translate(123.667 109)"/>
</clipPath>
<clipPath id="clip15_27386_65101">
<rect width="134" height="22" fill="white" transform="translate(123.667 157)"/>
</clipPath>
<clipPath id="clip16_27386_65101">
<rect x="277.667" width="113.667" height="192" fill="white"/>
</clipPath>
<clipPath id="clip17_27386_65101">
<rect width="113.667" height="48" fill="white" transform="translate(277.667)"/>
</clipPath>
<clipPath id="clip18_27386_65101">
<rect width="42" height="22" fill="white" transform="translate(287.667 13)"/>
</clipPath>
<clipPath id="clip19_27386_65101">
<rect width="113.667" height="48" fill="white" transform="translate(277.667 48)"/>
</clipPath>
<clipPath id="clip20_27386_65101">
<rect width="28" height="22" fill="white" transform="translate(287.667 56)"/>
</clipPath>
<clipPath id="clip21_27386_65101">
<rect width="113.667" height="48" fill="white" transform="translate(277.667 96)"/>
</clipPath>
<clipPath id="clip22_27386_65101">
<rect width="28" height="22" fill="white" transform="translate(287.667 104)"/>
</clipPath>
<clipPath id="clip23_27386_65101">
<rect width="28" height="22" fill="white" transform="translate(287.667 152)"/>
</clipPath>
<clipPath id="clip24_27386_65101">
<rect x="391.333" width="113.667" height="192" fill="white"/>
</clipPath>
<clipPath id="clip25_27386_65101">
<rect width="113.667" height="48" fill="white" transform="translate(391.333)"/>
</clipPath>
<clipPath id="clip26_27386_65101">
<rect width="56" height="22" fill="white" transform="translate(401.333 13)"/>
</clipPath>
<clipPath id="clip27_27386_65101">
<rect width="113.667" height="48" fill="white" transform="translate(391.333 48)"/>
</clipPath>
<clipPath id="clip28_27386_65101">
<rect width="26" height="22" fill="white" transform="translate(401.333 56)"/>
</clipPath>
<clipPath id="clip29_27386_65101">
<rect width="113.667" height="48" fill="white" transform="translate(391.333 96)"/>
</clipPath>
<clipPath id="clip30_27386_65101">
<rect width="26" height="22" fill="white" transform="translate(401.333 104)"/>
</clipPath>
<clipPath id="clip31_27386_65101">
<rect width="26" height="22" fill="white" transform="translate(401.333 152)"/>
</clipPath>
<clipPath id="clip32_27386_65101">
<rect x="505" width="113.667" height="192" fill="white"/>
</clipPath>
<clipPath id="clip33_27386_65101">
<rect width="113.667" height="48" fill="white" transform="translate(505)"/>
</clipPath>
<clipPath id="clip34_27386_65101">
<rect width="42" height="22" fill="white" transform="translate(515 13)"/>
</clipPath>
<clipPath id="clip35_27386_65101">
<rect width="113.667" height="48" fill="white" transform="translate(505 48)"/>
</clipPath>
<clipPath id="clip36_27386_65101">
<rect width="113.667" height="48" fill="white" transform="translate(505 96)"/>
</clipPath>
<clipPath id="clip37_27386_65101">
<rect width="42" height="22" fill="white" transform="translate(515 104)"/>
</clipPath>
<clipPath id="clip38_27386_65101">
<rect width="42" height="22" fill="white" transform="translate(515 152)"/>
</clipPath>
<clipPath id="clip39_27386_65101">
<rect x="618.667" width="113.667" height="192" fill="white"/>
</clipPath>
<clipPath id="clip40_27386_65101">
<rect width="113.667" height="48" fill="white" transform="translate(618.667)"/>
</clipPath>
<clipPath id="clip41_27386_65101">
<rect width="56" height="22" fill="white" transform="translate(628.667 13)"/>
</clipPath>
<clipPath id="clip42_27386_65101">
<rect width="113.667" height="48" fill="white" transform="translate(618.667 48)"/>
</clipPath>
<clipPath id="clip43_27386_65101">
<rect width="113.667" height="48" fill="white" transform="translate(618.667 96)"/>
</clipPath>
<clipPath id="clip44_27386_65101">
<rect width="26" height="22" fill="white" transform="translate(628.667 104)"/>
</clipPath>
<clipPath id="clip45_27386_65101">
<rect width="26" height="22" fill="white" transform="translate(628.667 152)"/>
</clipPath>
<clipPath id="clip46_27386_65101">
<rect x="732.333" width="113.667" height="192" fill="white"/>
</clipPath>
<clipPath id="clip47_27386_65101">
<rect width="113.667" height="48" fill="white" transform="translate(732.333)"/>
</clipPath>
<clipPath id="clip48_27386_65101">
<rect width="28" height="22" fill="white" transform="translate(742.333 13)"/>
</clipPath>
<clipPath id="clip49_27386_65101">
<rect width="113.667" height="48" fill="white" transform="translate(732.333 48)"/>
</clipPath>
<clipPath id="clip50_27386_65101">
<rect width="28" height="22" fill="white" transform="translate(742.333 56)"/>
</clipPath>
<clipPath id="clip51_27386_65101">
<rect width="113.667" height="48" fill="white" transform="translate(732.333 96)"/>
</clipPath>
<clipPath id="clip52_27386_65101">
<rect width="56" height="22" fill="white" transform="translate(742.333 104)"/>
</clipPath>
<clipPath id="clip53_27386_65101">
<rect width="56" height="22" fill="white" transform="translate(742.333 152)"/>
</clipPath>
<clipPath id="clip54_27386_65101">
<rect x="846" width="127" height="192" fill="white"/>
</clipPath>
<clipPath id="clip55_27386_65101">
<rect width="28" height="22" fill="white" transform="translate(856 13)"/>
</clipPath>
</defs>
</svg>
